<svg width="379" height="607" viewBox="0 0 379 607" fill="none" xmlns="http://www.w3.org/2000/svg">
<rect width="379" height="607" fill="url(#paint0_linear_803_156)"/>
<path d="M77.184 353.816H78.752L83.216 365H81.552L80.432 362.216H75.488L74.4 365H72.72L77.184 353.816ZM79.984 360.856L77.968 355.624L75.952 360.856H79.984ZM86.8906 365.24C86.112 365.24 85.5093 365.016 85.0826 364.568C84.6666 364.12 84.4586 363.485 84.4586 362.664V358.568H83.2906V357.32H84.4586V355.016H86.0906V357.32H87.9786V358.568H86.0906V362.552C86.0906 363.064 86.1866 363.427 86.3786 363.64C86.5813 363.853 86.944 363.96 87.4666 363.96C87.776 363.96 88.0853 363.891 88.3946 363.752V365.032C87.9893 365.171 87.488 365.24 86.8906 365.24ZM98.7969 365.24C98.0182 365.24 97.4155 365.016 96.9889 364.568C96.5729 364.12 96.3649 363.485 96.3649 362.664V358.568H95.1969V357.32H96.3649V355.016H97.9969V357.32H99.8849V358.568H97.9969V362.552C97.9969 363.064 98.0929 363.427 98.2849 363.64C98.4875 363.853 98.8502 363.96 99.3729 363.96C99.6822 363.96 99.9915 363.891 100.301 363.752V365.032C99.8955 365.171 99.3942 365.24 98.7969 365.24ZM101.821 353.176H103.437V358.376C104.173 357.512 105.155 357.08 106.381 357.08C107.405 357.08 108.168 357.352 108.669 357.896C109.171 358.44 109.421 359.171 109.421 360.088V365H107.805V360.248C107.805 359 107.208 358.376 106.013 358.376C105.501 358.376 105.021 358.499 104.573 358.744C104.136 358.979 103.757 359.341 103.437 359.832V365H101.821V353.176ZM115.639 365.24C114.22 365.24 113.106 364.888 112.295 364.184C111.495 363.469 111.095 362.467 111.095 361.176C111.095 359.917 111.452 358.92 112.167 358.184C112.892 357.448 113.922 357.08 115.255 357.08C116.14 357.08 116.892 357.251 117.511 357.592C118.13 357.923 118.594 358.387 118.903 358.984C119.223 359.571 119.383 360.243 119.383 361V361.8H112.631C112.684 362.525 112.988 363.069 113.543 363.432C114.108 363.784 114.871 363.96 115.831 363.96C116.322 363.96 116.818 363.917 117.319 363.832C117.82 363.736 118.263 363.613 118.647 363.464V364.76C118.306 364.899 117.852 365.011 117.287 365.096C116.732 365.192 116.183 365.24 115.639 365.24ZM117.863 360.664C117.842 359.939 117.602 359.379 117.143 358.984C116.695 358.579 116.055 358.376 115.223 358.376C114.412 358.376 113.783 358.584 113.335 359C112.887 359.416 112.652 359.971 112.631 360.664H117.863ZM129.903 365.24C129.37 365.24 128.805 365.171 128.207 365.032C127.61 364.904 127.141 364.728 126.799 364.504V363.128C127.215 363.373 127.695 363.576 128.239 363.736C128.783 363.885 129.311 363.96 129.823 363.96C130.399 363.96 130.821 363.891 131.087 363.752C131.354 363.613 131.487 363.389 131.487 363.08C131.487 362.845 131.423 362.659 131.295 362.52C131.178 362.371 130.97 362.237 130.671 362.12C130.383 362.003 129.946 361.864 129.359 361.704C128.73 361.523 128.229 361.341 127.855 361.16C127.493 360.968 127.215 360.728 127.023 360.44C126.842 360.152 126.751 359.779 126.751 359.32C126.751 358.584 127.039 358.029 127.615 357.656C128.202 357.272 128.986 357.08 129.967 357.08C130.479 357.08 130.981 357.128 131.471 357.224C131.962 357.32 132.357 357.453 132.655 357.624V358.968C132.346 358.787 131.962 358.643 131.503 358.536C131.055 358.429 130.597 358.376 130.127 358.376C129.562 358.376 129.13 358.445 128.831 358.584C128.533 358.723 128.383 358.968 128.383 359.32C128.383 359.544 128.447 359.725 128.575 359.864C128.703 360.003 128.906 360.125 129.183 360.232C129.471 360.328 129.925 360.456 130.543 360.616C131.514 360.883 132.186 361.197 132.559 361.56C132.943 361.923 133.135 362.424 133.135 363.064C133.135 363.725 132.863 364.253 132.319 364.648C131.775 365.043 130.97 365.24 129.903 365.24ZM137.625 365.24C136.846 365.24 136.244 365.016 135.817 364.568C135.401 364.12 135.193 363.485 135.193 362.664V358.568H134.025V357.32H135.193V355.016H136.825V357.32H138.713V358.568H136.825V362.552C136.825 363.064 136.921 363.427 137.113 363.64C137.316 363.853 137.678 363.96 138.201 363.96C138.51 363.96 138.82 363.891 139.129 363.752V365.032C138.724 365.171 138.222 365.24 137.625 365.24ZM143.167 365.24C142.239 365.24 141.492 365.005 140.927 364.536C140.372 364.056 140.095 363.411 140.095 362.6C140.095 361.747 140.362 361.091 140.895 360.632C141.439 360.163 142.207 359.928 143.199 359.928C144.255 359.928 145.151 360.141 145.887 360.568V360.168C145.887 359.56 145.7 359.112 145.327 358.824C144.964 358.525 144.388 358.376 143.599 358.376C143.13 358.376 142.671 358.424 142.223 358.52C141.786 358.605 141.391 358.728 141.039 358.888V357.576C141.359 357.427 141.775 357.309 142.287 357.224C142.799 357.128 143.295 357.08 143.775 357.08C145.044 357.08 145.983 357.363 146.591 357.928C147.21 358.483 147.519 359.256 147.519 360.248V365H145.999V364.136C145.668 364.499 145.274 364.776 144.815 364.968C144.367 365.149 143.818 365.24 143.167 365.24ZM143.567 364.008C144.079 364.008 144.543 363.907 144.959 363.704C145.375 363.501 145.684 363.219 145.887 362.856V361.816C145.194 361.368 144.42 361.144 143.567 361.144C142.948 361.144 142.484 361.267 142.175 361.512C141.876 361.747 141.727 362.109 141.727 362.6C141.727 363.539 142.34 364.008 143.567 364.008ZM149.524 357.32H151.092V358.696C151.412 358.227 151.86 357.88 152.436 357.656C153.023 357.432 153.7 357.32 154.468 357.32V358.584C153.647 358.584 152.943 358.717 152.356 358.984C151.77 359.251 151.364 359.672 151.14 360.248V365H149.524V357.32ZM158.875 365.24C158.096 365.24 157.494 365.016 157.067 364.568C156.651 364.12 156.443 363.485 156.443 362.664V358.568H155.275V357.32H156.443V355.016H158.075V357.32H159.963V358.568H158.075V362.552C158.075 363.064 158.171 363.427 158.363 363.64C158.566 363.853 158.928 363.96 159.451 363.96C159.76 363.96 160.07 363.891 160.379 363.752V365.032C159.974 365.171 159.472 365.24 158.875 365.24ZM171.869 365.24C171.005 365.24 170.243 365.08 169.581 364.76C168.931 364.429 168.419 363.96 168.045 363.352C167.683 362.733 167.501 362.008 167.501 361.176C167.501 360.355 167.683 359.635 168.045 359.016C168.408 358.397 168.92 357.923 169.581 357.592C170.243 357.251 171.005 357.08 171.869 357.08C172.733 357.08 173.496 357.251 174.157 357.592C174.819 357.923 175.331 358.397 175.693 359.016C176.067 359.635 176.253 360.355 176.253 361.176C176.253 362.008 176.067 362.733 175.693 363.352C175.331 363.96 174.819 364.429 174.157 364.76C173.496 365.08 172.733 365.24 171.869 365.24ZM171.869 363.96C172.701 363.96 173.363 363.704 173.853 363.192C174.344 362.68 174.589 362.008 174.589 361.176C174.589 360.312 174.344 359.629 173.853 359.128C173.363 358.627 172.701 358.376 171.869 358.376C171.037 358.376 170.376 358.627 169.885 359.128C169.395 359.629 169.149 360.312 169.149 361.176C169.149 362.008 169.395 362.68 169.885 363.192C170.376 363.704 171.037 363.96 171.869 363.96ZM177.974 358.568H176.806V357.32H177.974V355.816C177.974 354.931 178.225 354.259 178.726 353.8C179.228 353.331 179.9 353.096 180.742 353.096C181.18 353.096 181.59 353.16 181.974 353.288V354.632C181.676 354.493 181.366 354.424 181.046 354.424C180.545 354.424 180.177 354.547 179.942 354.792C179.708 355.027 179.59 355.4 179.59 355.912V357.32H181.51V358.568H179.59V365H177.974V358.568ZM193.233 365.24C191.814 365.24 190.699 364.888 189.889 364.184C189.089 363.469 188.689 362.467 188.689 361.176C188.689 359.917 189.046 358.92 189.761 358.184C190.486 357.448 191.515 357.08 192.849 357.08C193.734 357.08 194.486 357.251 195.105 357.592C195.723 357.923 196.187 358.387 196.497 358.984C196.817 359.571 196.977 360.243 196.977 361V361.8H190.225C190.278 362.525 190.582 363.069 191.137 363.432C191.702 363.784 192.465 363.96 193.425 363.96C193.915 363.96 194.411 363.917 194.913 363.832C195.414 363.736 195.857 363.613 196.241 363.464V364.76C195.899 364.899 195.446 365.011 194.881 365.096C194.326 365.192 193.777 365.24 193.233 365.24ZM195.457 360.664C195.435 359.939 195.195 359.379 194.737 358.984C194.289 358.579 193.649 358.376 192.817 358.376C192.006 358.376 191.377 358.584 190.929 359C190.481 359.416 190.246 359.971 190.225 360.664H195.457ZM201.495 365.24C200.567 365.24 199.82 365.005 199.255 364.536C198.7 364.056 198.423 363.411 198.423 362.6C198.423 361.747 198.69 361.091 199.223 360.632C199.767 360.163 200.535 359.928 201.527 359.928C202.583 359.928 203.479 360.141 204.215 360.568V360.168C204.215 359.56 204.028 359.112 203.655 358.824C203.292 358.525 202.716 358.376 201.927 358.376C201.458 358.376 200.999 358.424 200.551 358.52C200.114 358.605 199.719 358.728 199.367 358.888V357.576C199.687 357.427 200.103 357.309 200.615 357.224C201.127 357.128 201.623 357.08 202.103 357.08C203.372 357.08 204.311 357.363 204.919 357.928C205.538 358.483 205.847 359.256 205.847 360.248V365H204.327V364.136C203.996 364.499 203.602 364.776 203.143 364.968C202.695 365.149 202.146 365.24 201.495 365.24ZM201.895 364.008C202.407 364.008 202.871 363.907 203.287 363.704C203.703 363.501 204.012 363.219 204.215 362.856V361.816C203.522 361.368 202.748 361.144 201.895 361.144C201.276 361.144 200.812 361.267 200.503 361.512C200.204 361.747 200.055 362.109 200.055 362.6C200.055 363.539 200.668 364.008 201.895 364.008ZM211.588 365.24C210.735 365.24 209.977 365.08 209.316 364.76C208.655 364.44 208.137 363.976 207.764 363.368C207.401 362.749 207.22 362.019 207.22 361.176C207.22 360.333 207.401 359.608 207.764 359C208.137 358.381 208.655 357.907 209.316 357.576C209.988 357.245 210.756 357.08 211.62 357.08C212.793 357.08 213.732 357.309 214.436 357.768V359.096C213.743 358.616 212.857 358.376 211.78 358.376C210.905 358.376 210.196 358.616 209.652 359.096C209.119 359.565 208.852 360.259 208.852 361.176C208.852 362.093 209.119 362.787 209.652 363.256C210.185 363.725 210.884 363.96 211.748 363.96C212.825 363.96 213.753 363.704 214.532 363.192V364.504C214.159 364.76 213.732 364.947 213.252 365.064C212.783 365.181 212.228 365.24 211.588 365.24ZM216.29 353.176H217.906V358.376C218.642 357.512 219.623 357.08 220.85 357.08C221.874 357.08 222.637 357.352 223.138 357.896C223.639 358.44 223.89 359.171 223.89 360.088V365H222.274V360.248C222.274 359 221.677 358.376 220.482 358.376C219.97 358.376 219.49 358.499 219.042 358.744C218.605 358.979 218.226 359.341 217.906 359.832V365H216.29V353.176ZM231.486 357.32H233.134L234.862 363.016L236.574 357.32H238.03L239.742 363.016L241.47 357.32H243.134L240.638 365H239.086L237.31 359.272L235.534 365H233.966L231.486 357.32ZM248.639 365.24C247.22 365.24 246.106 364.888 245.295 364.184C244.495 363.469 244.095 362.467 244.095 361.176C244.095 359.917 244.452 358.92 245.167 358.184C245.892 357.448 246.922 357.08 248.255 357.08C249.14 357.08 249.892 357.251 250.511 357.592C251.13 357.923 251.594 358.387 251.903 358.984C252.223 359.571 252.383 360.243 252.383 361V361.8H245.631C245.684 362.525 245.988 363.069 246.543 363.432C247.108 363.784 247.871 363.96 248.831 363.96C249.322 363.96 249.818 363.917 250.319 363.832C250.82 363.736 251.263 363.613 251.647 363.464V364.76C251.306 364.899 250.852 365.011 250.287 365.096C249.732 365.192 249.183 365.24 248.639 365.24ZM250.863 360.664C250.842 359.939 250.602 359.379 250.143 358.984C249.695 358.579 249.055 358.376 248.223 358.376C247.412 358.376 246.783 358.584 246.335 359C245.887 359.416 245.652 359.971 245.631 360.664H250.863ZM258.373 365.24C256.955 365.24 255.84 364.888 255.029 364.184C254.229 363.469 253.829 362.467 253.829 361.176C253.829 359.917 254.187 358.92 254.901 358.184C255.627 357.448 256.656 357.08 257.989 357.08C258.875 357.08 259.627 357.251 260.245 357.592C260.864 357.923 261.328 358.387 261.637 358.984C261.957 359.571 262.117 360.243 262.117 361V361.8H255.365C255.419 362.525 255.723 363.069 256.277 363.432C256.843 363.784 257.605 363.96 258.565 363.96C259.056 363.96 259.552 363.917 260.053 363.832C260.555 363.736 260.997 363.613 261.381 363.464V364.76C261.04 364.899 260.587 365.011 260.021 365.096C259.467 365.192 258.917 365.24 258.373 365.24ZM260.597 360.664C260.576 359.939 260.336 359.379 259.877 358.984C259.429 358.579 258.789 358.376 257.957 358.376C257.147 358.376 256.517 358.584 256.069 359C255.621 359.416 255.387 359.971 255.365 360.664H260.597ZM263.884 353.176H265.5V365H263.884V353.176ZM265.516 361.112L269.052 357.32H271.02L267.468 361.112L271.388 365H269.42L265.516 361.112ZM278.915 357.32H280.483V358.696C280.803 358.227 281.251 357.88 281.827 357.656C282.414 357.432 283.091 357.32 283.859 357.32V358.584C283.038 358.584 282.334 358.717 281.747 358.984C281.16 359.251 280.755 359.672 280.531 360.248V365H278.915V357.32ZM289.045 365.24C287.627 365.24 286.512 364.888 285.701 364.184C284.901 363.469 284.501 362.467 284.501 361.176C284.501 359.917 284.859 358.92 285.573 358.184C286.299 357.448 287.328 357.08 288.661 357.08C289.547 357.08 290.299 357.251 290.917 357.592C291.536 357.923 292 358.387 292.309 358.984C292.629 359.571 292.789 360.243 292.789 361V361.8H286.037C286.091 362.525 286.395 363.069 286.949 363.432C287.515 363.784 288.277 363.96 289.237 363.96C289.728 363.96 290.224 363.917 290.725 363.832C291.227 363.736 291.669 363.613 292.053 363.464V364.76C291.712 364.899 291.259 365.011 290.693 365.096C290.139 365.192 289.589 365.24 289.045 365.24ZM291.269 360.664C291.248 359.939 291.008 359.379 290.549 358.984C290.101 358.579 289.461 358.376 288.629 358.376C287.819 358.376 287.189 358.584 286.741 359C286.293 359.416 286.059 359.971 286.037 360.664H291.269ZM298.604 365.24C297.75 365.24 296.993 365.08 296.332 364.76C295.67 364.44 295.153 363.976 294.78 363.368C294.417 362.749 294.236 362.019 294.236 361.176C294.236 360.333 294.417 359.608 294.78 359C295.153 358.381 295.67 357.907 296.332 357.576C297.004 357.245 297.772 357.08 298.636 357.08C299.809 357.08 300.748 357.309 301.452 357.768V359.096C300.758 358.616 299.873 358.376 298.796 358.376C297.921 358.376 297.212 358.616 296.668 359.096C296.134 359.565 295.868 360.259 295.868 361.176C295.868 362.093 296.134 362.787 296.668 363.256C297.201 363.725 297.9 363.96 298.764 363.96C299.841 363.96 300.769 363.704 301.548 363.192V364.504C301.174 364.76 300.748 364.947 300.268 365.064C299.798 365.181 299.244 365.24 298.604 365.24ZM307.53 365.24C306.111 365.24 304.996 364.888 304.186 364.184C303.386 363.469 302.986 362.467 302.986 361.176C302.986 359.917 303.343 358.92 304.058 358.184C304.783 357.448 305.812 357.08 307.146 357.08C308.031 357.08 308.783 357.251 309.402 357.592C310.02 357.923 310.484 358.387 310.794 358.984C311.114 359.571 311.274 360.243 311.274 361V361.8H304.522C304.575 362.525 304.879 363.069 305.434 363.432C305.999 363.784 306.762 363.96 307.722 363.96C308.212 363.96 308.708 363.917 309.21 363.832C309.711 363.736 310.154 363.613 310.538 363.464V364.76C310.196 364.899 309.743 365.011 309.178 365.096C308.623 365.192 308.074 365.24 307.53 365.24ZM309.754 360.664C309.732 359.939 309.492 359.379 309.034 358.984C308.586 358.579 307.946 358.376 307.114 358.376C306.303 358.376 305.674 358.584 305.226 359C304.778 359.416 304.543 359.971 304.522 360.664H309.754ZM313.984 355.816C313.717 355.816 313.493 355.725 313.312 355.544C313.131 355.363 313.04 355.139 313.04 354.872C313.04 354.605 313.131 354.381 313.312 354.2C313.493 354.019 313.717 353.928 313.984 353.928C314.261 353.928 314.491 354.019 314.672 354.2C314.864 354.381 314.96 354.605 314.96 354.872C314.96 355.139 314.864 355.363 314.672 355.544C314.491 355.725 314.261 355.816 313.984 355.816ZM313.168 357.32H314.816V365H313.168V357.32ZM316.72 357.32H318.432L320.688 362.84L322.944 357.32H324.656L321.392 365H319.984L316.72 357.32ZM329.998 365.24C328.58 365.24 327.465 364.888 326.654 364.184C325.854 363.469 325.454 362.467 325.454 361.176C325.454 359.917 325.812 358.92 326.526 358.184C327.252 357.448 328.281 357.08 329.614 357.08C330.5 357.08 331.252 357.251 331.87 357.592C332.489 357.923 332.953 358.387 333.262 358.984C333.582 359.571 333.742 360.243 333.742 361V361.8H326.99C327.044 362.525 327.348 363.069 327.902 363.432C328.468 363.784 329.23 363.96 330.19 363.96C330.681 363.96 331.177 363.917 331.678 363.832C332.18 363.736 332.622 363.613 333.006 363.464V364.76C332.665 364.899 332.212 365.011 331.646 365.096C331.092 365.192 330.542 365.24 329.998 365.24ZM332.222 360.664C332.201 359.939 331.961 359.379 331.502 358.984C331.054 358.579 330.414 358.376 329.582 358.376C328.772 358.376 328.142 358.584 327.694 359C327.246 359.416 327.012 359.971 326.99 360.664H332.222ZM77.088 387.24C76.224 387.24 75.4613 387.08 74.8 386.76C74.1493 386.429 73.6373 385.96 73.264 385.352C72.9013 384.733 72.72 384.008 72.72 383.176C72.72 382.355 72.9013 381.635 73.264 381.016C73.6267 380.397 74.1387 379.923 74.8 379.592C75.4613 379.251 76.224 379.08 77.088 379.08C77.952 379.08 78.7147 379.251 79.376 379.592C80.0373 379.923 80.5493 380.397 80.912 381.016C81.2853 381.635 81.472 382.355 81.472 383.176C81.472 384.008 81.2853 384.733 80.912 385.352C80.5493 385.96 80.0373 386.429 79.376 386.76C78.7147 387.08 77.952 387.24 77.088 387.24ZM77.088 385.96C77.92 385.96 78.5813 385.704 79.072 385.192C79.5627 384.68 79.808 384.008 79.808 383.176C79.808 382.312 79.5627 381.629 79.072 381.128C78.5813 380.627 77.92 380.376 77.088 380.376C76.256 380.376 75.5947 380.627 75.104 381.128C74.6133 381.629 74.368 382.312 74.368 383.176C74.368 384.008 74.6133 384.68 75.104 385.192C75.5947 385.704 76.256 385.96 77.088 385.96ZM86.2835 387.24C85.2488 387.24 84.4648 386.963 83.9315 386.408C83.4088 385.853 83.1475 385.112 83.1475 384.184V379.32H84.7635V384.12C84.7635 385.347 85.3768 385.96 86.6035 385.96C87.6808 385.96 88.5235 385.475 89.1315 384.504V379.32H90.7475V387H89.1795V385.912C88.8168 386.371 88.3848 386.707 87.8835 386.92C87.3928 387.133 86.8595 387.24 86.2835 387.24ZM92.8213 379.32H94.3893V380.696C94.7093 380.227 95.1573 379.88 95.7333 379.656C96.3199 379.432 96.9973 379.32 97.7653 379.32V380.584C96.9439 380.584 96.2399 380.717 95.6533 380.984C95.0666 381.251 94.6613 381.672 94.4373 382.248V387H92.8213V379.32ZM109.278 375.816H110.846L115.31 387H113.646L112.526 384.216H107.582L106.494 387H104.814L109.278 375.816ZM112.078 382.856L110.062 377.624L108.046 382.856H112.078ZM117.071 375.816H118.719V387H117.071V375.816ZM130.872 375.816H132.44L136.904 387H135.24L134.12 384.216H129.176L128.088 387H126.408L130.872 375.816ZM133.672 382.856L131.656 377.624L129.64 382.856H133.672ZM140.935 387.24C140.401 387.24 139.836 387.171 139.239 387.032C138.641 386.904 138.172 386.728 137.831 386.504V385.128C138.247 385.373 138.727 385.576 139.271 385.736C139.815 385.885 140.343 385.96 140.855 385.96C141.431 385.96 141.852 385.891 142.119 385.752C142.385 385.613 142.519 385.389 142.519 385.08C142.519 384.845 142.455 384.659 142.327 384.52C142.209 384.371 142.001 384.237 141.703 384.12C141.415 384.003 140.977 383.864 140.391 383.704C139.761 383.523 139.26 383.341 138.887 383.16C138.524 382.968 138.247 382.728 138.055 382.44C137.873 382.152 137.783 381.779 137.783 381.32C137.783 380.584 138.071 380.029 138.647 379.656C139.233 379.272 140.017 379.08 140.999 379.08C141.511 379.08 142.012 379.128 142.503 379.224C142.993 379.32 143.388 379.453 143.687 379.624V380.968C143.377 380.787 142.993 380.643 142.535 380.536C142.087 380.429 141.628 380.376 141.159 380.376C140.593 380.376 140.161 380.445 139.863 380.584C139.564 380.723 139.414 380.968 139.414 381.32C139.414 381.544 139.479 381.725 139.607 381.864C139.735 382.003 139.937 382.125 140.215 382.232C140.503 382.328 140.956 382.456 141.575 382.616C142.545 382.883 143.217 383.197 143.591 383.56C143.975 383.923 144.167 384.424 144.167 385.064C144.167 385.725 143.895 386.253 143.351 386.648C142.807 387.043 142.001 387.24 140.935 387.24ZM148.356 387.24C147.823 387.24 147.258 387.171 146.66 387.032C146.063 386.904 145.594 386.728 145.252 386.504V385.128C145.668 385.373 146.148 385.576 146.692 385.736C147.236 385.885 147.764 385.96 148.276 385.96C148.852 385.96 149.274 385.891 149.54 385.752C149.807 385.613 149.94 385.389 149.94 385.08C149.94 384.845 149.876 384.659 149.748 384.52C149.631 384.371 149.423 384.237 149.124 384.12C148.836 384.003 148.399 383.864 147.812 383.704C147.183 383.523 146.682 383.341 146.308 383.16C145.946 382.968 145.668 382.728 145.476 382.44C145.295 382.152 145.204 381.779 145.204 381.32C145.204 380.584 145.492 380.029 146.068 379.656C146.655 379.272 147.439 379.08 148.42 379.08C148.932 379.08 149.434 379.128 149.924 379.224C150.415 379.32 150.81 379.453 151.108 379.624V380.968C150.799 380.787 150.415 380.643 149.956 380.536C149.508 380.429 149.05 380.376 148.58 380.376C148.015 380.376 147.583 380.445 147.284 380.584C146.986 380.723 146.836 380.968 146.836 381.32C146.836 381.544 146.9 381.725 147.028 381.864C147.156 382.003 147.359 382.125 147.636 382.232C147.924 382.328 148.378 382.456 148.996 382.616C149.967 382.883 150.639 383.197 151.012 383.56C151.396 383.923 151.588 384.424 151.588 385.064C151.588 385.725 151.316 386.253 150.772 386.648C150.228 387.043 149.423 387.24 148.356 387.24ZM154.297 377.816C154.03 377.816 153.806 377.725 153.625 377.544C153.443 377.363 153.353 377.139 153.353 376.872C153.353 376.605 153.443 376.381 153.625 376.2C153.806 376.019 154.03 375.928 154.297 375.928C154.574 375.928 154.803 376.019 154.985 376.2C155.177 376.381 155.273 376.605 155.273 376.872C155.273 377.139 155.177 377.363 154.985 377.544C154.803 377.725 154.574 377.816 154.297 377.816ZM153.481 379.32H155.129V387H153.481V379.32ZM160.185 387.24C159.651 387.24 159.086 387.171 158.489 387.032C157.891 386.904 157.422 386.728 157.081 386.504V385.128C157.497 385.373 157.977 385.576 158.521 385.736C159.065 385.885 159.593 385.96 160.105 385.96C160.681 385.96 161.102 385.891 161.369 385.752C161.635 385.613 161.769 385.389 161.769 385.08C161.769 384.845 161.705 384.659 161.577 384.52C161.459 384.371 161.251 384.237 160.953 384.12C160.665 384.003 160.227 383.864 159.641 383.704C159.011 383.523 158.51 383.341 158.137 383.16C157.774 382.968 157.497 382.728 157.305 382.44C157.123 382.152 157.033 381.779 157.033 381.32C157.033 380.584 157.321 380.029 157.897 379.656C158.483 379.272 159.267 379.08 160.249 379.08C160.761 379.08 161.262 379.128 161.753 379.224C162.243 379.32 162.638 379.453 162.937 379.624V380.968C162.627 380.787 162.243 380.643 161.785 380.536C161.337 380.429 160.878 380.376 160.409 380.376C159.843 380.376 159.411 380.445 159.113 380.584C158.814 380.723 158.664 380.968 158.664 381.32C158.664 381.544 158.729 381.725 158.857 381.864C158.985 382.003 159.187 382.125 159.465 382.232C159.753 382.328 160.206 382.456 160.825 382.616C161.795 382.883 162.467 383.197 162.841 383.56C163.225 383.923 163.417 384.424 163.417 385.064C163.417 385.725 163.145 386.253 162.601 386.648C162.057 387.043 161.251 387.24 160.185 387.24ZM167.906 387.24C167.128 387.24 166.525 387.016 166.098 386.568C165.682 386.12 165.474 385.485 165.474 384.664V380.568H164.306V379.32H165.474V377.016H167.106V379.32H168.994V380.568H167.106V384.552C167.106 385.064 167.202 385.427 167.394 385.64C167.597 385.853 167.96 385.96 168.482 385.96C168.792 385.96 169.101 385.891 169.41 385.752V387.032C169.005 387.171 168.504 387.24 167.906 387.24ZM173.448 387.24C172.52 387.24 171.774 387.005 171.208 386.536C170.654 386.056 170.376 385.411 170.376 384.6C170.376 383.747 170.643 383.091 171.176 382.632C171.72 382.163 172.488 381.928 173.48 381.928C174.536 381.928 175.432 382.141 176.168 382.568V382.168C176.168 381.56 175.982 381.112 175.608 380.824C175.246 380.525 174.67 380.376 173.88 380.376C173.411 380.376 172.952 380.424 172.504 380.52C172.067 380.605 171.672 380.728 171.32 380.888V379.576C171.64 379.427 172.056 379.309 172.568 379.224C173.08 379.128 173.576 379.08 174.056 379.08C175.326 379.08 176.264 379.363 176.872 379.928C177.491 380.483 177.8 381.256 177.8 382.248V387H176.28V386.136C175.95 386.499 175.555 386.776 175.096 386.968C174.648 387.149 174.099 387.24 173.448 387.24ZM173.848 386.008C174.36 386.008 174.824 385.907 175.24 385.704C175.656 385.501 175.966 385.219 176.168 384.856V383.816C175.475 383.368 174.702 383.144 173.848 383.144C173.23 383.144 172.766 383.267 172.456 383.512C172.158 383.747 172.008 384.109 172.008 384.6C172.008 385.539 172.622 386.008 173.848 386.008ZM179.806 379.32H181.374V380.424C181.736 379.965 182.179 379.629 182.702 379.416C183.235 379.192 183.79 379.08 184.366 379.08C185.39 379.08 186.152 379.352 186.654 379.896C187.155 380.44 187.406 381.171 187.406 382.088V387H185.79V382.248C185.79 381 185.192 380.376 183.998 380.376C183.486 380.376 183.006 380.499 182.558 380.744C182.12 380.979 181.742 381.341 181.422 381.832V387H179.806V379.32ZM192.359 387.24C191.581 387.24 190.978 387.016 190.551 386.568C190.135 386.12 189.927 385.485 189.927 384.664V380.568H188.759V379.32H189.927V377.016H191.559V379.32H193.447V380.568H191.559V384.552C191.559 385.064 191.655 385.427 191.847 385.64C192.05 385.853 192.413 385.96 192.935 385.96C193.245 385.96 193.554 385.891 193.863 385.752V387.032C193.458 387.171 192.957 387.24 192.359 387.24ZM195.714 375.576H197.314L196.049 378.696H194.658L195.714 375.576ZM201.341 387.24C200.807 387.24 200.242 387.171 199.645 387.032C199.047 386.904 198.578 386.728 198.237 386.504V385.128C198.653 385.373 199.133 385.576 199.677 385.736C200.221 385.885 200.749 385.96 201.261 385.96C201.837 385.96 202.258 385.891 202.525 385.752C202.791 385.613 202.925 385.389 202.925 385.08C202.925 384.845 202.861 384.659 202.733 384.52C202.615 384.371 202.407 384.237 202.109 384.12C201.821 384.003 201.383 383.864 200.797 383.704C200.167 383.523 199.666 383.341 199.293 383.16C198.93 382.968 198.653 382.728 198.461 382.44C198.279 382.152 198.189 381.779 198.189 381.32C198.189 380.584 198.477 380.029 199.053 379.656C199.639 379.272 200.423 379.08 201.405 379.08C201.917 379.08 202.418 379.128 202.909 379.224C203.399 379.32 203.794 379.453 204.093 379.624V380.968C203.783 380.787 203.399 380.643 202.941 380.536C202.493 380.429 202.034 380.376 201.565 380.376C200.999 380.376 200.567 380.445 200.269 380.584C199.97 380.723 199.821 380.968 199.821 381.32C199.821 381.544 199.885 381.725 200.013 381.864C200.141 382.003 200.343 382.125 200.621 382.232C200.909 382.328 201.362 382.456 201.981 382.616C202.951 382.883 203.623 383.197 203.997 383.56C204.381 383.923 204.573 384.424 204.573 385.064C204.573 385.725 204.301 386.253 203.757 386.648C203.213 387.043 202.407 387.24 201.341 387.24ZM215.091 387.24C214.557 387.24 213.992 387.171 213.395 387.032C212.797 386.904 212.328 386.728 211.987 386.504V385.128C212.403 385.373 212.883 385.576 213.427 385.736C213.971 385.885 214.499 385.96 215.011 385.96C215.587 385.96 216.008 385.891 216.275 385.752C216.541 385.613 216.675 385.389 216.675 385.08C216.675 384.845 216.611 384.659 216.483 384.52C216.365 384.371 216.157 384.237 215.859 384.12C215.571 384.003 215.133 383.864 214.547 383.704C213.917 383.523 213.416 383.341 213.043 383.16C212.68 382.968 212.403 382.728 212.211 382.44C212.029 382.152 211.939 381.779 211.939 381.32C211.939 380.584 212.227 380.029 212.803 379.656C213.389 379.272 214.173 379.08 215.155 379.08C215.667 379.08 216.168 379.128 216.659 379.224C217.149 379.32 217.544 379.453 217.843 379.624V380.968C217.533 380.787 217.149 380.643 216.691 380.536C216.243 380.429 215.784 380.376 215.315 380.376C214.749 380.376 214.317 380.445 214.019 380.584C213.72 380.723 213.571 380.968 213.571 381.32C213.571 381.544 213.635 381.725 213.763 381.864C213.891 382.003 214.093 382.125 214.371 382.232C214.659 382.328 215.112 382.456 215.731 382.616C216.701 382.883 217.373 383.197 217.747 383.56C218.131 383.923 218.323 384.424 218.323 385.064C218.323 385.725 218.051 386.253 217.507 386.648C216.963 387.043 216.157 387.24 215.091 387.24ZM223.143 387.24C222.108 387.24 221.324 386.963 220.791 386.408C220.268 385.853 220.007 385.112 220.007 384.184V379.32H221.623V384.12C221.623 385.347 222.236 385.96 223.463 385.96C224.54 385.96 225.383 385.475 225.991 384.504V379.32H227.607V387H226.039V385.912C225.676 386.371 225.244 386.707 224.743 386.92C224.252 387.133 223.719 387.24 223.143 387.24ZM229.681 379.32H231.249V380.456C232.038 379.539 233.105 379.08 234.449 379.08C235.217 379.08 235.905 379.251 236.513 379.592C237.131 379.933 237.611 380.413 237.953 381.032C238.305 381.64 238.481 382.349 238.481 383.16C238.481 383.96 238.305 384.669 237.953 385.288C237.611 385.907 237.137 386.387 236.529 386.728C235.921 387.069 235.227 387.24 234.449 387.24C233.809 387.24 233.211 387.133 232.657 386.92C232.102 386.707 231.649 386.392 231.297 385.976V390.504H229.681V379.32ZM234.081 385.96C234.603 385.96 235.073 385.848 235.489 385.624C235.915 385.389 236.246 385.059 236.481 384.632C236.726 384.205 236.849 383.715 236.849 383.16C236.849 382.605 236.726 382.12 236.481 381.704C236.246 381.277 235.915 380.952 235.489 380.728C235.073 380.493 234.603 380.376 234.081 380.376C233.43 380.376 232.854 380.547 232.353 380.888C231.862 381.229 231.51 381.699 231.297 382.296V384.024C231.478 384.611 231.825 385.08 232.337 385.432C232.849 385.784 233.43 385.96 234.081 385.96ZM240.243 379.32H241.811V380.456C242.6 379.539 243.667 379.08 245.011 379.08C245.779 379.08 246.467 379.251 247.075 379.592C247.694 379.933 248.174 380.413 248.515 381.032C248.867 381.64 249.043 382.349 249.043 383.16C249.043 383.96 248.867 384.669 248.515 385.288C248.174 385.907 247.699 386.387 247.091 386.728C246.483 387.069 245.79 387.24 245.011 387.24C244.371 387.24 243.774 387.133 243.219 386.92C242.664 386.707 242.211 386.392 241.859 385.976V390.504H240.243V379.32ZM244.643 385.96C245.166 385.96 245.635 385.848 246.051 385.624C246.478 385.389 246.808 385.059 247.043 384.632C247.288 384.205 247.411 383.715 247.411 383.16C247.411 382.605 247.288 382.12 247.043 381.704C246.808 381.277 246.478 380.952 246.051 380.728C245.635 380.493 245.166 380.376 244.643 380.376C243.992 380.376 243.416 380.547 242.915 380.888C242.424 381.229 242.072 381.699 241.859 382.296V384.024C242.04 384.611 242.387 385.08 242.899 385.432C243.411 385.784 243.992 385.96 244.643 385.96ZM254.447 387.24C253.583 387.24 252.821 387.08 252.159 386.76C251.509 386.429 250.997 385.96 250.623 385.352C250.261 384.733 250.079 384.008 250.079 383.176C250.079 382.355 250.261 381.635 250.623 381.016C250.986 380.397 251.498 379.923 252.159 379.592C252.821 379.251 253.583 379.08 254.447 379.08C255.311 379.08 256.074 379.251 256.735 379.592C257.397 379.923 257.909 380.397 258.271 381.016C258.645 381.635 258.831 382.355 258.831 383.176C258.831 384.008 258.645 384.733 258.271 385.352C257.909 385.96 257.397 386.429 256.735 386.76C256.074 387.08 255.311 387.24 254.447 387.24ZM254.447 385.96C255.279 385.96 255.941 385.704 256.431 385.192C256.922 384.68 257.167 384.008 257.167 383.176C257.167 382.312 256.922 381.629 256.431 381.128C255.941 380.627 255.279 380.376 254.447 380.376C253.615 380.376 252.954 380.627 252.463 381.128C251.973 381.629 251.727 382.312 251.727 383.176C251.727 384.008 251.973 384.68 252.463 385.192C252.954 385.704 253.615 385.96 254.447 385.96ZM260.587 379.32H262.155V380.696C262.475 380.227 262.923 379.88 263.499 379.656C264.086 379.432 264.763 379.32 265.531 379.32V380.584C264.71 380.584 264.006 380.717 263.419 380.984C262.832 381.251 262.427 381.672 262.203 382.248V387H260.587V379.32ZM269.938 387.24C269.159 387.24 268.556 387.016 268.13 386.568C267.714 386.12 267.506 385.485 267.506 384.664V380.568H266.338V379.32H267.506V377.016H269.138V379.32H271.026V380.568H269.138V384.552C269.138 385.064 269.234 385.427 269.426 385.64C269.628 385.853 269.991 385.96 270.514 385.96C270.823 385.96 271.132 385.891 271.442 385.752V387.032C271.036 387.171 270.535 387.24 269.938 387.24ZM281.636 387.24C280.708 387.24 279.961 387.005 279.396 386.536C278.841 386.056 278.564 385.411 278.564 384.6C278.564 383.747 278.83 383.091 279.364 382.632C279.908 382.163 280.676 381.928 281.668 381.928C282.724 381.928 283.62 382.141 284.356 382.568V382.168C284.356 381.56 284.169 381.112 283.796 380.824C283.433 380.525 282.857 380.376 282.068 380.376C281.598 380.376 281.14 380.424 280.692 380.52C280.254 380.605 279.86 380.728 279.508 380.888V379.576C279.828 379.427 280.244 379.309 280.756 379.224C281.268 379.128 281.764 379.08 282.244 379.08C283.513 379.08 284.452 379.363 285.06 379.928C285.678 380.483 285.988 381.256 285.988 382.248V387H284.468V386.136C284.137 386.499 283.742 386.776 283.284 386.968C282.836 387.149 282.286 387.24 281.636 387.24ZM282.036 386.008C282.548 386.008 283.012 385.907 283.428 385.704C283.844 385.501 284.153 385.219 284.356 384.856V383.816C283.662 383.368 282.889 383.144 282.036 383.144C281.417 383.144 280.953 383.267 280.644 383.512C280.345 383.747 280.196 384.109 280.196 384.6C280.196 385.539 280.809 386.008 282.036 386.008ZM287.993 379.32H289.561V380.424C289.924 379.965 290.366 379.629 290.889 379.416C291.422 379.192 291.977 379.08 292.553 379.08C293.577 379.08 294.34 379.352 294.841 379.896C295.342 380.44 295.593 381.171 295.593 382.088V387H293.977V382.248C293.977 381 293.38 380.376 292.185 380.376C291.673 380.376 291.193 380.499 290.745 380.744C290.308 380.979 289.929 381.341 289.609 381.832V387H287.993V379.32ZM301.299 387.24C300.531 387.24 299.838 387.075 299.219 386.744C298.611 386.403 298.131 385.928 297.779 385.32C297.438 384.701 297.267 383.987 297.267 383.176C297.267 382.376 297.438 381.667 297.779 381.048C298.131 380.429 298.611 379.949 299.219 379.608C299.838 379.256 300.531 379.08 301.299 379.08C302.686 379.08 303.736 379.501 304.451 380.344V375.176H306.067V387H304.499V385.88C304.072 386.349 303.603 386.696 303.091 386.92C302.59 387.133 301.992 387.24 301.299 387.24ZM301.667 385.96C302.328 385.96 302.904 385.789 303.395 385.448C303.896 385.096 304.248 384.627 304.451 384.04V382.312C304.27 381.725 303.923 381.256 303.411 380.904C302.91 380.552 302.328 380.376 301.667 380.376C301.144 380.376 300.67 380.493 300.243 380.728C299.827 380.963 299.496 381.293 299.251 381.72C299.016 382.147 298.899 382.632 298.899 383.176C298.899 383.72 299.016 384.205 299.251 384.632C299.496 385.059 299.827 385.389 300.243 385.624C300.67 385.848 301.144 385.96 301.667 385.96ZM73.04 401.32H74.608V402.696C74.928 402.227 75.376 401.88 75.952 401.656C76.5387 401.432 77.216 401.32 77.984 401.32V402.584C77.1627 402.584 76.4587 402.717 75.872 402.984C75.2853 403.251 74.88 403.672 74.656 404.248V409H73.04V401.32ZM83.1703 409.24C81.7516 409.24 80.6369 408.888 79.8263 408.184C79.0263 407.469 78.6263 406.467 78.6263 405.176C78.6263 403.917 78.9836 402.92 79.6983 402.184C80.4236 401.448 81.4529 401.08 82.7863 401.08C83.6716 401.08 84.4236 401.251 85.0423 401.592C85.6609 401.923 86.1249 402.387 86.4343 402.984C86.7543 403.571 86.9143 404.243 86.9143 405V405.8H80.1623C80.2156 406.525 80.5196 407.069 81.0743 407.432C81.6396 407.784 82.4023 407.96 83.3623 407.96C83.8529 407.96 84.3489 407.917 84.8503 407.832C85.3516 407.736 85.7943 407.613 86.1783 407.464V408.76C85.8369 408.899 85.3836 409.011 84.8183 409.096C84.2636 409.192 83.7143 409.24 83.1703 409.24ZM85.3943 404.664C85.3729 403.939 85.1329 403.379 84.6743 402.984C84.2263 402.579 83.5863 402.376 82.7543 402.376C81.9436 402.376 81.3143 402.584 80.8663 403C80.4183 403.416 80.1836 403.971 80.1623 404.664H85.3943ZM91.5126 409.24C90.9793 409.24 90.414 409.171 89.8166 409.032C89.2193 408.904 88.75 408.728 88.4086 408.504V407.128C88.8246 407.373 89.3046 407.576 89.8486 407.736C90.3926 407.885 90.9206 407.96 91.4326 407.96C92.0086 407.96 92.43 407.891 92.6966 407.752C92.9633 407.613 93.0966 407.389 93.0966 407.08C93.0966 406.845 93.0326 406.659 92.9046 406.52C92.7873 406.371 92.5793 406.237 92.2806 406.12C91.9926 406.003 91.5553 405.864 90.9686 405.704C90.3393 405.523 89.838 405.341 89.4646 405.16C89.102 404.968 88.8246 404.728 88.6326 404.44C88.4513 404.152 88.3606 403.779 88.3606 403.32C88.3606 402.584 88.6486 402.029 89.2246 401.656C89.8113 401.272 90.5953 401.08 91.5766 401.08C92.0886 401.08 92.59 401.128 93.0806 401.224C93.5713 401.32 93.966 401.453 94.2646 401.624V402.968C93.9553 402.787 93.5713 402.643 93.1126 402.536C92.6646 402.429 92.206 402.376 91.7366 402.376C91.1713 402.376 90.7393 402.445 90.4406 402.584C90.142 402.723 89.9926 402.968 89.9926 403.32C89.9926 403.544 90.0566 403.725 90.1846 403.864C90.3126 404.003 90.5153 404.125 90.7926 404.232C91.0806 404.328 91.534 404.456 92.1526 404.616C93.1233 404.883 93.7953 405.197 94.1686 405.56C94.5526 405.923 94.7446 406.424 94.7446 407.064C94.7446 407.725 94.4726 408.253 93.9286 408.648C93.3846 409.043 92.5793 409.24 91.5126 409.24ZM97.4528 399.816C97.1861 399.816 96.9621 399.725 96.7808 399.544C96.5994 399.363 96.5088 399.139 96.5088 398.872C96.5088 398.605 96.5994 398.381 96.7808 398.2C96.9621 398.019 97.1861 397.928 97.4528 397.928C97.7301 397.928 97.9594 398.019 98.1408 398.2C98.3328 398.381 98.4288 398.605 98.4288 398.872C98.4288 399.139 98.3328 399.363 98.1408 399.544C97.9594 399.725 97.7301 399.816 97.4528 399.816ZM96.6368 401.32H98.2848V409H96.6368V401.32ZM103.341 409.24C102.807 409.24 102.242 409.171 101.645 409.032C101.047 408.904 100.578 408.728 100.237 408.504V407.128C100.653 407.373 101.133 407.576 101.677 407.736C102.221 407.885 102.749 407.96 103.261 407.96C103.837 407.96 104.258 407.891 104.525 407.752C104.791 407.613 104.925 407.389 104.925 407.08C104.925 406.845 104.861 406.659 104.733 406.52C104.615 406.371 104.407 406.237 104.109 406.12C103.821 406.003 103.383 405.864 102.797 405.704C102.167 405.523 101.666 405.341 101.293 405.16C100.93 404.968 100.653 404.728 100.461 404.44C100.279 404.152 100.189 403.779 100.189 403.32C100.189 402.584 100.477 402.029 101.053 401.656C101.639 401.272 102.423 401.08 103.405 401.08C103.917 401.08 104.418 401.128 104.909 401.224C105.399 401.32 105.794 401.453 106.093 401.624V402.968C105.783 402.787 105.399 402.643 104.941 402.536C104.493 402.429 104.034 402.376 103.565 402.376C102.999 402.376 102.567 402.445 102.269 402.584C101.97 402.723 101.821 402.968 101.821 403.32C101.821 403.544 101.885 403.725 102.013 403.864C102.141 404.003 102.343 404.125 102.621 404.232C102.909 404.328 103.362 404.456 103.981 404.616C104.951 404.883 105.623 405.197 105.997 405.56C106.381 405.923 106.573 406.424 106.573 407.064C106.573 407.725 106.301 408.253 105.757 408.648C105.213 409.043 104.407 409.24 103.341 409.24ZM111.062 409.24C110.284 409.24 109.681 409.016 109.255 408.568C108.839 408.12 108.631 407.485 108.631 406.664V402.568H107.463V401.32H108.631V399.016H110.263V401.32H112.151V402.568H110.263V406.552C110.263 407.064 110.359 407.427 110.551 407.64C110.753 407.853 111.116 407.96 111.639 407.96C111.948 407.96 112.257 407.891 112.567 407.752V409.032C112.161 409.171 111.66 409.24 111.062 409.24ZM116.605 409.24C115.677 409.24 114.93 409.005 114.365 408.536C113.81 408.056 113.533 407.411 113.533 406.6C113.533 405.747 113.799 405.091 114.333 404.632C114.877 404.163 115.645 403.928 116.637 403.928C117.693 403.928 118.589 404.141 119.325 404.568V404.168C119.325 403.56 119.138 403.112 118.765 402.824C118.402 402.525 117.826 402.376 117.036 402.376C116.567 402.376 116.109 402.424 115.661 402.52C115.223 402.605 114.829 402.728 114.477 402.888V401.576C114.797 401.427 115.213 401.309 115.725 401.224C116.237 401.128 116.733 401.08 117.213 401.08C118.482 401.08 119.421 401.363 120.029 401.928C120.647 402.483 120.957 403.256 120.957 404.248V409H119.437V408.136C119.106 408.499 118.711 408.776 118.253 408.968C117.805 409.149 117.255 409.24 116.605 409.24ZM117.005 408.008C117.517 408.008 117.981 407.907 118.397 407.704C118.813 407.501 119.122 407.219 119.325 406.856V405.816C118.631 405.368 117.858 405.144 117.005 405.144C116.386 405.144 115.922 405.267 115.613 405.512C115.314 405.747 115.164 406.109 115.164 406.6C115.164 407.539 115.778 408.008 117.005 408.008ZM122.962 401.32H124.53V402.424C124.893 401.965 125.335 401.629 125.858 401.416C126.391 401.192 126.946 401.08 127.522 401.08C128.546 401.08 129.309 401.352 129.81 401.896C130.311 402.44 130.562 403.171 130.562 404.088V409H128.946V404.248C128.946 403 128.349 402.376 127.154 402.376C126.642 402.376 126.162 402.499 125.714 402.744C125.277 402.979 124.898 403.341 124.578 403.832V409H122.962V401.32ZM136.604 409.24C135.75 409.24 134.993 409.08 134.332 408.76C133.67 408.44 133.153 407.976 132.78 407.368C132.417 406.749 132.236 406.019 132.236 405.176C132.236 404.333 132.417 403.608 132.78 403C133.153 402.381 133.67 401.907 134.332 401.576C135.004 401.245 135.772 401.08 136.636 401.08C137.809 401.08 138.748 401.309 139.452 401.768V403.096C138.758 402.616 137.873 402.376 136.796 402.376C135.921 402.376 135.212 402.616 134.668 403.096C134.134 403.565 133.868 404.259 133.868 405.176C133.868 406.093 134.134 406.787 134.668 407.256C135.201 407.725 135.9 407.96 136.764 407.96C137.841 407.96 138.769 407.704 139.548 407.192V408.504C139.174 408.76 138.748 408.947 138.268 409.064C137.798 409.181 137.244 409.24 136.604 409.24ZM145.53 409.24C144.111 409.24 142.996 408.888 142.186 408.184C141.386 407.469 140.986 406.467 140.986 405.176C140.986 403.917 141.343 402.92 142.058 402.184C142.783 401.448 143.812 401.08 145.146 401.08C146.031 401.08 146.783 401.251 147.402 401.592C148.02 401.923 148.484 402.387 148.794 402.984C149.114 403.571 149.274 404.243 149.274 405V405.8H142.522C142.575 406.525 142.879 407.069 143.434 407.432C143.999 407.784 144.762 407.96 145.722 407.96C146.212 407.96 146.708 407.917 147.21 407.832C147.711 407.736 148.154 407.613 148.538 407.464V408.76C148.196 408.899 147.743 409.011 147.178 409.096C146.623 409.192 146.074 409.24 145.53 409.24ZM147.754 404.664C147.732 403.939 147.492 403.379 147.034 402.984C146.586 402.579 145.946 402.376 145.114 402.376C144.303 402.376 143.674 402.584 143.226 403C142.778 403.416 142.543 403.971 142.522 404.664H147.754ZM156.962 397.176H158.578V409H156.962V397.176ZM161.609 399.816C161.342 399.816 161.118 399.725 160.937 399.544C160.756 399.363 160.665 399.139 160.665 398.872C160.665 398.605 160.756 398.381 160.937 398.2C161.118 398.019 161.342 397.928 161.609 397.928C161.886 397.928 162.116 398.019 162.297 398.2C162.489 398.381 162.585 398.605 162.585 398.872C162.585 399.139 162.489 399.363 162.297 399.544C162.116 399.725 161.886 399.816 161.609 399.816ZM160.793 401.32H162.441V409H160.793V401.32ZM164.665 401.32H166.233V402.424C166.596 401.965 167.038 401.629 167.561 401.416C168.094 401.192 168.649 401.08 169.225 401.08C170.249 401.08 171.012 401.352 171.513 401.896C172.014 402.44 172.265 403.171 172.265 404.088V409H170.649V404.248C170.649 403 170.052 402.376 168.857 402.376C168.345 402.376 167.865 402.499 167.417 402.744C166.98 402.979 166.601 403.341 166.281 403.832V409H164.665V401.32ZM178.483 409.24C177.064 409.24 175.949 408.888 175.139 408.184C174.339 407.469 173.939 406.467 173.939 405.176C173.939 403.917 174.296 402.92 175.011 402.184C175.736 401.448 176.765 401.08 178.099 401.08C178.984 401.08 179.736 401.251 180.355 401.592C180.973 401.923 181.437 402.387 181.747 402.984C182.067 403.571 182.227 404.243 182.227 405V405.8H175.475C175.528 406.525 175.832 407.069 176.387 407.432C176.952 407.784 177.715 407.96 178.675 407.96C179.165 407.96 179.661 407.917 180.163 407.832C180.664 407.736 181.107 407.613 181.491 407.464V408.76C181.149 408.899 180.696 409.011 180.131 409.096C179.576 409.192 179.027 409.24 178.483 409.24ZM180.707 404.664C180.685 403.939 180.445 403.379 179.987 402.984C179.539 402.579 178.899 402.376 178.067 402.376C177.256 402.376 176.627 402.584 176.179 403C175.731 403.416 175.496 403.971 175.475 404.664H180.707ZM186.825 409.24C186.292 409.24 185.726 409.171 185.129 409.032C184.532 408.904 184.062 408.728 183.721 408.504V407.128C184.137 407.373 184.617 407.576 185.161 407.736C185.705 407.885 186.233 407.96 186.745 407.96C187.321 407.96 187.742 407.891 188.009 407.752C188.276 407.613 188.409 407.389 188.409 407.08C188.409 406.845 188.345 406.659 188.217 406.52C188.1 406.371 187.892 406.237 187.593 406.12C187.305 406.003 186.868 405.864 186.281 405.704C185.652 405.523 185.15 405.341 184.777 405.16C184.414 404.968 184.137 404.728 183.945 404.44C183.764 404.152 183.673 403.779 183.673 403.32C183.673 402.584 183.961 402.029 184.537 401.656C185.124 401.272 185.908 401.08 186.889 401.08C187.401 401.08 187.902 401.128 188.393 401.224C188.884 401.32 189.278 401.453 189.577 401.624V402.968C189.268 402.787 188.884 402.643 188.425 402.536C187.977 402.429 187.518 402.376 187.049 402.376C186.484 402.376 186.052 402.445 185.753 402.584C185.454 402.723 185.305 402.968 185.305 403.32C185.305 403.544 185.369 403.725 185.497 403.864C185.625 404.003 185.828 404.125 186.105 404.232C186.393 404.328 186.846 404.456 187.465 404.616C188.436 404.883 189.108 405.197 189.481 405.56C189.865 405.923 190.057 406.424 190.057 407.064C190.057 407.725 189.785 408.253 189.241 408.648C188.697 409.043 187.892 409.24 186.825 409.24ZM198.271 402.568H197.103V401.32H198.271V399.816C198.271 398.931 198.522 398.259 199.023 397.8C199.524 397.331 200.196 397.096 201.039 397.096C201.476 397.096 201.887 397.16 202.271 397.288V398.632C201.972 398.493 201.663 398.424 201.343 398.424C200.842 398.424 200.474 398.547 200.239 398.792C200.004 399.027 199.887 399.4 199.887 399.912V401.32H201.807V402.568H199.887V409H198.271V402.568ZM206.869 409.24C206.005 409.24 205.243 409.08 204.581 408.76C203.931 408.429 203.419 407.96 203.045 407.352C202.683 406.733 202.501 406.008 202.501 405.176C202.501 404.355 202.683 403.635 203.045 403.016C203.408 402.397 203.92 401.923 204.581 401.592C205.243 401.251 206.005 401.08 206.869 401.08C207.733 401.08 208.496 401.251 209.157 401.592C209.819 401.923 210.331 402.397 210.693 403.016C211.067 403.635 211.253 404.355 211.253 405.176C211.253 406.008 211.067 406.733 210.693 407.352C210.331 407.96 209.819 408.429 209.157 408.76C208.496 409.08 207.733 409.24 206.869 409.24ZM206.869 407.96C207.701 407.96 208.363 407.704 208.853 407.192C209.344 406.68 209.589 406.008 209.589 405.176C209.589 404.312 209.344 403.629 208.853 403.128C208.363 402.627 207.701 402.376 206.869 402.376C206.037 402.376 205.376 402.627 204.885 403.128C204.395 403.629 204.149 404.312 204.149 405.176C204.149 406.008 204.395 406.68 204.885 407.192C205.376 407.704 206.037 407.96 206.869 407.96ZM213.009 401.32H214.577V402.696C214.897 402.227 215.345 401.88 215.921 401.656C216.507 401.432 217.185 401.32 217.953 401.32V402.584C217.131 402.584 216.427 402.717 215.841 402.984C215.254 403.251 214.849 403.672 214.625 404.248V409H213.009V401.32ZM225.321 397.816H230.457C231.449 397.816 232.217 398.072 232.761 398.584C233.305 399.096 233.577 399.843 233.577 400.824C233.577 401.379 233.444 401.869 233.177 402.296C232.921 402.712 232.58 403.021 232.153 403.224C233.348 403.576 233.945 404.445 233.945 405.832C233.945 406.483 233.801 407.048 233.513 407.528C233.236 407.997 232.852 408.36 232.361 408.616C231.871 408.872 231.327 409 230.729 409H225.321V397.816ZM230.249 402.616C230.772 402.616 231.183 402.472 231.481 402.184C231.78 401.896 231.929 401.469 231.929 400.904C231.929 400.253 231.78 399.8 231.481 399.544C231.193 399.277 230.745 399.144 230.137 399.144H226.953V402.616H230.249ZM230.361 407.672C230.991 407.672 231.471 407.533 231.801 407.256C232.132 406.979 232.297 406.504 232.297 405.832C232.297 405.16 232.121 404.68 231.769 404.392C231.428 404.104 230.911 403.96 230.217 403.96H226.953V407.672H230.361ZM238.138 399.192H234.666V397.816H243.258V399.192H239.786V409H238.138V399.192ZM249.421 409.24C248.269 409.24 247.245 409 246.349 408.52C245.453 408.04 244.755 407.363 244.253 406.488C243.752 405.603 243.501 404.579 243.501 403.416C243.501 402.253 243.752 401.229 244.253 400.344C244.755 399.459 245.453 398.776 246.349 398.296C247.245 397.816 248.269 397.576 249.421 397.576C250.957 397.576 252.243 397.965 253.277 398.744V400.312C252.349 399.491 251.112 399.08 249.565 399.08C248.701 399.08 247.933 399.256 247.261 399.608C246.6 399.96 246.083 400.467 245.709 401.128C245.336 401.779 245.149 402.541 245.149 403.416C245.149 404.291 245.336 405.059 245.709 405.72C246.093 406.381 246.616 406.888 247.277 407.24C247.949 407.592 248.712 407.768 249.565 407.768C250.355 407.768 251.059 407.667 251.677 407.464C252.307 407.251 252.888 406.915 253.421 406.456V408.04C252.461 408.84 251.128 409.24 249.421 409.24ZM255.613 409C255.399 409 255.218 408.931 255.069 408.792C254.93 408.643 254.861 408.461 254.861 408.248C254.861 408.035 254.93 407.853 255.069 407.704C255.218 407.555 255.399 407.48 255.613 407.48C255.826 407.48 256.007 407.555 256.157 407.704C256.306 407.853 256.381 408.035 256.381 408.248C256.381 408.461 256.306 408.643 256.157 408.792C256.007 408.931 255.826 409 255.613 409Z" fill="#FAFAF9"/>
<ellipse cx="48.5" cy="370.244" rx="10.5" ry="11.2435" fill="#D9D9D9"/>
<path d="M43 369.708L46.5 373.456L54 365.425" stroke="url(#paint1_linear_803_156)" stroke-width="2"/>
<path d="M75.136 265.576L72.72 267.32V265.768L75.36 263.816H76.768V275H75.136V265.576ZM83.6885 275.24C82.7285 275.24 81.8965 275.005 81.1925 274.536C80.4992 274.067 79.9658 273.395 79.5925 272.52C79.2192 271.645 79.0325 270.611 79.0325 269.416C79.0325 268.221 79.2138 267.187 79.5765 266.312C79.9498 265.427 80.4832 264.749 81.1765 264.28C81.8805 263.811 82.7178 263.576 83.6885 263.576C84.6592 263.576 85.4912 263.811 86.1845 264.28C86.8885 264.749 87.4218 265.427 87.7845 266.312C88.1578 267.187 88.3445 268.221 88.3445 269.416C88.3445 270.611 88.1578 271.645 87.7845 272.52C87.4112 273.395 86.8725 274.067 86.1685 274.536C85.4752 275.005 84.6485 275.24 83.6885 275.24ZM83.6885 273.8C84.6378 273.8 85.3792 273.411 85.9125 272.632C86.4565 271.843 86.7285 270.776 86.7285 269.432C86.7285 268.088 86.4618 267.021 85.9285 266.232C85.3952 265.443 84.6485 265.048 83.6885 265.048C82.7285 265.048 81.9818 265.443 81.4485 266.232C80.9152 267.021 80.6485 268.088 80.6485 269.432C80.6485 270.776 80.9152 271.843 81.4485 272.632C81.9925 273.411 82.7392 273.8 83.6885 273.8ZM93.2585 269.448C92.7252 269.448 92.2345 269.32 91.7865 269.064C91.3385 268.797 90.9812 268.44 90.7145 267.992C90.4585 267.544 90.3305 267.053 90.3305 266.52C90.3305 265.987 90.4585 265.496 90.7145 265.048C90.9812 264.589 91.3385 264.232 91.7865 263.976C92.2345 263.709 92.7252 263.576 93.2585 263.576C93.7918 263.576 94.2825 263.709 94.7305 263.976C95.1892 264.232 95.5465 264.589 95.8025 265.048C96.0692 265.496 96.2025 265.987 96.2025 266.52C96.2025 267.053 96.0692 267.544 95.8025 267.992C95.5465 268.44 95.1892 268.797 94.7305 269.064C94.2825 269.32 93.7918 269.448 93.2585 269.448ZM98.9705 263.816H100.555L94.3625 275H92.7785L98.9705 263.816ZM93.2585 268.264C93.7492 268.264 94.1545 268.099 94.4745 267.768C94.8052 267.437 94.9705 267.032 94.9705 266.552C94.9705 266.061 94.8052 265.651 94.4745 265.32C94.1545 264.989 93.7492 264.824 93.2585 264.824C92.7678 264.824 92.3572 264.989 92.0265 265.32C91.7065 265.651 91.5465 266.061 91.5465 266.552C91.5465 267.032 91.7065 267.437 92.0265 267.768C92.3572 268.099 92.7678 268.264 93.2585 268.264ZM100.059 275.24C99.5252 275.24 99.0345 275.112 98.5865 274.856C98.1385 274.589 97.7812 274.232 97.5145 273.784C97.2585 273.336 97.1305 272.845 97.1305 272.312C97.1305 271.779 97.2585 271.288 97.5145 270.84C97.7812 270.381 98.1385 270.024 98.5865 269.768C99.0345 269.501 99.5252 269.368 100.059 269.368C100.592 269.368 101.083 269.501 101.531 269.768C101.989 270.024 102.347 270.381 102.603 270.84C102.869 271.288 103.003 271.779 103.003 272.312C103.003 272.845 102.869 273.336 102.603 273.784C102.347 274.232 101.989 274.589 101.531 274.856C101.083 275.112 100.592 275.24 100.059 275.24ZM100.043 274.056C100.533 274.056 100.944 273.891 101.275 273.56C101.605 273.229 101.771 272.824 101.771 272.344C101.771 271.853 101.605 271.443 101.275 271.112C100.944 270.781 100.533 270.616 100.043 270.616C99.5625 270.616 99.1572 270.781 98.8265 271.112C98.4958 271.443 98.3305 271.853 98.3305 272.344C98.3305 272.824 98.4958 273.229 98.8265 273.56C99.1572 273.891 99.5625 274.056 100.043 274.056ZM104.939 269.576H110.043V270.904H104.939V269.576ZM114.402 265.576L111.986 267.32V265.768L114.626 263.816H116.034V275H114.402V265.576ZM121.418 275.24C120.831 275.24 120.261 275.176 119.706 275.048C119.151 274.931 118.682 274.765 118.298 274.552V273.096C118.735 273.363 119.231 273.571 119.786 273.72C120.341 273.859 120.869 273.928 121.37 273.928C122.341 273.928 123.077 273.725 123.578 273.32C124.079 272.904 124.33 272.296 124.33 271.496C124.33 270.739 124.095 270.163 123.626 269.768C123.167 269.363 122.479 269.16 121.562 269.16C121.178 269.16 120.773 269.197 120.346 269.272C119.93 269.347 119.557 269.448 119.226 269.576L118.506 269.16L118.922 263.816H125.178V265.192H120.41L120.17 268.072C120.831 267.933 121.503 267.864 122.186 267.864C123.37 267.864 124.298 268.195 124.97 268.856C125.642 269.517 125.978 270.397 125.978 271.496C125.978 272.701 125.599 273.629 124.842 274.28C124.085 274.92 122.943 275.24 121.418 275.24ZM130.899 269.448C130.366 269.448 129.875 269.32 129.427 269.064C128.979 268.797 128.622 268.44 128.355 267.992C128.099 267.544 127.971 267.053 127.971 266.52C127.971 265.987 128.099 265.496 128.355 265.048C128.622 264.589 128.979 264.232 129.427 263.976C129.875 263.709 130.366 263.576 130.899 263.576C131.432 263.576 131.923 263.709 132.371 263.976C132.83 264.232 133.187 264.589 133.443 265.048C133.71 265.496 133.843 265.987 133.843 266.52C133.843 267.053 133.71 267.544 133.443 267.992C133.187 268.44 132.83 268.797 132.371 269.064C131.923 269.32 131.432 269.448 130.899 269.448ZM136.611 263.816H138.195L132.003 275H130.419L136.611 263.816ZM130.899 268.264C131.39 268.264 131.795 268.099 132.115 267.768C132.446 267.437 132.611 267.032 132.611 266.552C132.611 266.061 132.446 265.651 132.115 265.32C131.795 264.989 131.39 264.824 130.899 264.824C130.408 264.824 129.998 264.989 129.667 265.32C129.347 265.651 129.187 266.061 129.187 266.552C129.187 267.032 129.347 267.437 129.667 267.768C129.998 268.099 130.408 268.264 130.899 268.264ZM137.699 275.24C137.166 275.24 136.675 275.112 136.227 274.856C135.779 274.589 135.422 274.232 135.155 273.784C134.899 273.336 134.771 272.845 134.771 272.312C134.771 271.779 134.899 271.288 135.155 270.84C135.422 270.381 135.779 270.024 136.227 269.768C136.675 269.501 137.166 269.368 137.699 269.368C138.232 269.368 138.723 269.501 139.171 269.768C139.63 270.024 139.987 270.381 140.243 270.84C140.51 271.288 140.643 271.779 140.643 272.312C140.643 272.845 140.51 273.336 140.243 273.784C139.987 274.232 139.63 274.589 139.171 274.856C138.723 275.112 138.232 275.24 137.699 275.24ZM137.683 274.056C138.174 274.056 138.584 273.891 138.915 273.56C139.246 273.229 139.411 272.824 139.411 272.344C139.411 271.853 139.246 271.443 138.915 271.112C138.584 270.781 138.174 270.616 137.683 270.616C137.203 270.616 136.798 270.781 136.467 271.112C136.136 271.443 135.971 271.853 135.971 272.344C135.971 272.824 136.136 273.229 136.467 273.56C136.798 273.891 137.203 274.056 137.683 274.056ZM153.369 275.24C152.505 275.24 151.743 275.08 151.081 274.76C150.431 274.429 149.919 273.96 149.545 273.352C149.183 272.733 149.001 272.008 149.001 271.176C149.001 270.355 149.183 269.635 149.545 269.016C149.908 268.397 150.42 267.923 151.081 267.592C151.743 267.251 152.505 267.08 153.369 267.08C154.233 267.08 154.996 267.251 155.657 267.592C156.319 267.923 156.831 268.397 157.193 269.016C157.567 269.635 157.753 270.355 157.753 271.176C157.753 272.008 157.567 272.733 157.193 273.352C156.831 273.96 156.319 274.429 155.657 274.76C154.996 275.08 154.233 275.24 153.369 275.24ZM153.369 273.96C154.201 273.96 154.863 273.704 155.353 273.192C155.844 272.68 156.089 272.008 156.089 271.176C156.089 270.312 155.844 269.629 155.353 269.128C154.863 268.627 154.201 268.376 153.369 268.376C152.537 268.376 151.876 268.627 151.385 269.128C150.895 269.629 150.649 270.312 150.649 271.176C150.649 272.008 150.895 272.68 151.385 273.192C151.876 273.704 152.537 273.96 153.369 273.96ZM159.974 268.568H158.806V267.32H159.974V265.816C159.974 264.931 160.225 264.259 160.726 263.8C161.228 263.331 161.9 263.096 162.742 263.096C163.18 263.096 163.59 263.16 163.974 263.288V264.632C163.676 264.493 163.366 264.424 163.046 264.424C162.545 264.424 162.177 264.547 161.942 264.792C161.708 265.027 161.59 265.4 161.59 265.912V267.32H163.51V268.568H161.59V275H159.974V268.568ZM174.841 275.24C174.307 275.24 173.742 275.171 173.145 275.032C172.547 274.904 172.078 274.728 171.737 274.504V273.128C172.153 273.373 172.633 273.576 173.177 273.736C173.721 273.885 174.249 273.96 174.761 273.96C175.337 273.96 175.758 273.891 176.025 273.752C176.291 273.613 176.425 273.389 176.425 273.08C176.425 272.845 176.361 272.659 176.233 272.52C176.115 272.371 175.907 272.237 175.609 272.12C175.321 272.003 174.883 271.864 174.297 271.704C173.667 271.523 173.166 271.341 172.793 271.16C172.43 270.968 172.153 270.728 171.961 270.44C171.779 270.152 171.689 269.779 171.689 269.32C171.689 268.584 171.977 268.029 172.553 267.656C173.139 267.272 173.923 267.08 174.905 267.08C175.417 267.08 175.918 267.128 176.409 267.224C176.899 267.32 177.294 267.453 177.593 267.624V268.968C177.283 268.787 176.899 268.643 176.441 268.536C175.993 268.429 175.534 268.376 175.065 268.376C174.499 268.376 174.067 268.445 173.769 268.584C173.47 268.723 173.321 268.968 173.321 269.32C173.321 269.544 173.385 269.725 173.513 269.864C173.641 270.003 173.843 270.125 174.121 270.232C174.409 270.328 174.862 270.456 175.481 270.616C176.451 270.883 177.123 271.197 177.497 271.56C177.881 271.923 178.073 272.424 178.073 273.064C178.073 273.725 177.801 274.253 177.257 274.648C176.713 275.043 175.907 275.24 174.841 275.24ZM181.281 265.816C181.014 265.816 180.79 265.725 180.609 265.544C180.428 265.363 180.337 265.139 180.337 264.872C180.337 264.605 180.428 264.381 180.609 264.2C180.79 264.019 181.014 263.928 181.281 263.928C181.558 263.928 181.788 264.019 181.969 264.2C182.161 264.381 182.257 264.605 182.257 264.872C182.257 265.139 182.161 265.363 181.969 265.544C181.788 265.725 181.558 265.816 181.281 265.816ZM180.465 267.32H182.113V275H180.465V267.32ZM188.853 278.68C188.33 278.68 187.818 278.637 187.317 278.552C186.826 278.467 186.41 278.344 186.069 278.184V276.856C186.869 277.219 187.797 277.4 188.853 277.4C189.845 277.4 190.565 277.181 191.013 276.744C191.472 276.317 191.701 275.667 191.701 274.792V273.976C190.997 274.819 189.962 275.24 188.597 275.24C187.818 275.24 187.12 275.069 186.501 274.728C185.882 274.387 185.397 273.907 185.045 273.288C184.693 272.669 184.517 271.96 184.517 271.16C184.517 270.349 184.688 269.64 185.029 269.032C185.381 268.413 185.861 267.933 186.469 267.592C187.088 267.251 187.781 267.08 188.549 267.08C189.264 267.08 189.866 267.187 190.357 267.4C190.858 267.603 191.322 267.944 191.749 268.424V267.32H193.317V274.616C193.317 275.928 192.949 276.931 192.213 277.624C191.488 278.328 190.368 278.68 188.853 278.68ZM188.917 273.96C189.578 273.96 190.16 273.784 190.661 273.432C191.173 273.08 191.52 272.611 191.701 272.024V270.296C191.498 269.699 191.146 269.229 190.645 268.888C190.154 268.547 189.578 268.376 188.917 268.376C188.394 268.376 187.92 268.493 187.493 268.728C187.077 268.952 186.746 269.277 186.501 269.704C186.266 270.131 186.149 270.616 186.149 271.16C186.149 271.715 186.266 272.205 186.501 272.632C186.746 273.048 187.077 273.373 187.493 273.608C187.92 273.843 188.394 273.96 188.917 273.96ZM195.899 267.32H197.467V268.424C197.83 267.965 198.273 267.629 198.795 267.416C199.329 267.192 199.883 267.08 200.459 267.08C201.483 267.08 202.246 267.352 202.747 267.896C203.249 268.44 203.499 269.171 203.499 270.088V275H201.883V270.248C201.883 269 201.286 268.376 200.091 268.376C199.579 268.376 199.099 268.499 198.651 268.744C198.214 268.979 197.835 269.341 197.515 269.832V275H195.899V267.32ZM208.511 275.24C207.583 275.24 206.836 275.005 206.271 274.536C205.716 274.056 205.439 273.411 205.439 272.6C205.439 271.747 205.705 271.091 206.239 270.632C206.783 270.163 207.551 269.928 208.543 269.928C209.599 269.928 210.495 270.141 211.231 270.568V270.168C211.231 269.56 211.044 269.112 210.671 268.824C210.308 268.525 209.732 268.376 208.943 268.376C208.473 268.376 208.015 268.424 207.567 268.52C207.129 268.605 206.735 268.728 206.383 268.888V267.576C206.703 267.427 207.119 267.309 207.631 267.224C208.143 267.128 208.639 267.08 209.119 267.08C210.388 267.08 211.327 267.363 211.935 267.928C212.553 268.483 212.863 269.256 212.863 270.248V275H211.343V274.136C211.012 274.499 210.617 274.776 210.159 274.968C209.711 275.149 209.161 275.24 208.511 275.24ZM208.911 274.008C209.423 274.008 209.887 273.907 210.303 273.704C210.719 273.501 211.028 273.219 211.231 272.856V271.816C210.537 271.368 209.764 271.144 208.911 271.144C208.292 271.144 207.828 271.267 207.519 271.512C207.22 271.747 207.071 272.109 207.071 272.6C207.071 273.539 207.684 274.008 208.911 274.008ZM215.368 263.176H216.984V275H215.368V263.176ZM222.403 275.24C221.87 275.24 221.305 275.171 220.707 275.032C220.11 274.904 219.641 274.728 219.299 274.504V273.128C219.715 273.373 220.195 273.576 220.739 273.736C221.283 273.885 221.811 273.96 222.323 273.96C222.899 273.96 223.321 273.891 223.587 273.752C223.854 273.613 223.987 273.389 223.987 273.08C223.987 272.845 223.923 272.659 223.795 272.52C223.678 272.371 223.47 272.237 223.171 272.12C222.883 272.003 222.446 271.864 221.859 271.704C221.23 271.523 220.729 271.341 220.355 271.16C219.993 270.968 219.715 270.728 219.523 270.44C219.342 270.152 219.251 269.779 219.251 269.32C219.251 268.584 219.539 268.029 220.115 267.656C220.702 267.272 221.486 267.08 222.467 267.08C222.979 267.08 223.481 267.128 223.971 267.224C224.462 267.32 224.857 267.453 225.155 267.624V268.968C224.846 268.787 224.462 268.643 224.003 268.536C223.555 268.429 223.097 268.376 222.627 268.376C222.062 268.376 221.63 268.445 221.331 268.584C221.033 268.723 220.883 268.968 220.883 269.32C220.883 269.544 220.947 269.725 221.075 269.864C221.203 270.003 221.406 270.125 221.683 270.232C221.971 270.328 222.425 270.456 223.043 270.616C224.014 270.883 224.686 271.197 225.059 271.56C225.443 271.923 225.635 272.424 225.635 273.064C225.635 273.725 225.363 274.253 224.819 274.648C224.275 275.043 223.47 275.24 222.403 275.24ZM234.849 268.568H233.681V267.32H234.849V265.816C234.849 264.931 235.1 264.259 235.601 263.8C236.103 263.331 236.775 263.096 237.617 263.096C238.055 263.096 238.465 263.16 238.849 263.288V264.632C238.551 264.493 238.241 264.424 237.921 264.424C237.42 264.424 237.052 264.547 236.817 264.792C236.583 265.027 236.465 265.4 236.465 265.912V267.32H238.385V268.568H236.465V275H234.849V268.568ZM240.384 267.32H241.952V268.696C242.272 268.227 242.72 267.88 243.296 267.656C243.882 267.432 244.56 267.32 245.328 267.32V268.584C244.506 268.584 243.802 268.717 243.216 268.984C242.629 269.251 242.224 269.672 242 270.248V275H240.384V267.32ZM251.088 275.24C250.224 275.24 249.461 275.08 248.8 274.76C248.149 274.429 247.637 273.96 247.264 273.352C246.901 272.733 246.72 272.008 246.72 271.176C246.72 270.355 246.901 269.635 247.264 269.016C247.627 268.397 248.139 267.923 248.8 267.592C249.461 267.251 250.224 267.08 251.088 267.08C251.952 267.08 252.715 267.251 253.376 267.592C254.037 267.923 254.549 268.397 254.912 269.016C255.285 269.635 255.472 270.355 255.472 271.176C255.472 272.008 255.285 272.733 254.912 273.352C254.549 273.96 254.037 274.429 253.376 274.76C252.715 275.08 251.952 275.24 251.088 275.24ZM251.088 273.96C251.92 273.96 252.581 273.704 253.072 273.192C253.563 272.68 253.808 272.008 253.808 271.176C253.808 270.312 253.563 269.629 253.072 269.128C252.581 268.627 251.92 268.376 251.088 268.376C250.256 268.376 249.595 268.627 249.104 269.128C248.613 269.629 248.368 270.312 248.368 271.176C248.368 272.008 248.613 272.68 249.104 273.192C249.595 273.704 250.256 273.96 251.088 273.96ZM257.728 267.32H259.264V268.424C259.626 267.976 260.037 267.64 260.496 267.416C260.954 267.192 261.429 267.08 261.92 267.08C262.538 267.08 263.029 267.187 263.392 267.4C263.754 267.603 264.021 267.917 264.192 268.344C264.533 267.928 264.949 267.613 265.44 267.4C265.941 267.187 266.442 267.08 266.944 267.08C267.882 267.08 268.56 267.32 268.976 267.8C269.392 268.269 269.6 268.968 269.6 269.896V275H268.032V270.104C268.032 269.475 267.914 269.032 267.68 268.776C267.445 268.509 267.045 268.376 266.48 268.376C265.669 268.376 265.008 268.728 264.496 269.432C264.517 269.592 264.528 269.853 264.528 270.216V275H262.96V270.104C262.96 269.475 262.853 269.032 262.64 268.776C262.426 268.509 262.042 268.376 261.488 268.376C260.677 268.376 259.952 268.835 259.312 269.752V275H257.728V267.32ZM278.524 263.816H285.9V265.192H280.156V268.76H284.444V270.056H280.156V275H278.524V263.816ZM288.218 265.816C287.952 265.816 287.728 265.725 287.546 265.544C287.365 265.363 287.274 265.139 287.274 264.872C287.274 264.605 287.365 264.381 287.546 264.2C287.728 264.019 287.952 263.928 288.218 263.928C288.496 263.928 288.725 264.019 288.906 264.2C289.098 264.381 289.194 264.605 289.194 264.872C289.194 265.139 289.098 265.363 288.906 265.544C288.725 265.725 288.496 265.816 288.218 265.816ZM287.402 267.32H289.05V275H287.402V267.32ZM291.774 267.32H293.342V268.696C293.662 268.227 294.11 267.88 294.686 267.656C295.273 267.432 295.95 267.32 296.718 267.32V268.584C295.897 268.584 295.193 268.717 294.606 268.984C294.02 269.251 293.614 269.672 293.39 270.248V275H291.774V267.32ZM301.263 275.24C300.729 275.24 300.164 275.171 299.567 275.032C298.969 274.904 298.5 274.728 298.159 274.504V273.128C298.575 273.373 299.055 273.576 299.599 273.736C300.143 273.885 300.671 273.96 301.183 273.96C301.759 273.96 302.18 273.891 302.447 273.752C302.713 273.613 302.847 273.389 302.847 273.08C302.847 272.845 302.783 272.659 302.655 272.52C302.537 272.371 302.329 272.237 302.031 272.12C301.743 272.003 301.305 271.864 300.719 271.704C300.089 271.523 299.588 271.341 299.215 271.16C298.852 270.968 298.575 270.728 298.383 270.44C298.201 270.152 298.111 269.779 298.111 269.32C298.111 268.584 298.399 268.029 298.975 267.656C299.561 267.272 300.345 267.08 301.327 267.08C301.839 267.08 302.34 267.128 302.831 267.224C303.321 267.32 303.716 267.453 304.015 267.624V268.968C303.705 268.787 303.321 268.643 302.863 268.536C302.415 268.429 301.956 268.376 301.487 268.376C300.921 268.376 300.489 268.445 300.191 268.584C299.892 268.723 299.743 268.968 299.743 269.32C299.743 269.544 299.807 269.725 299.935 269.864C300.063 270.003 300.265 270.125 300.543 270.232C300.831 270.328 301.284 270.456 301.903 270.616C302.873 270.883 303.545 271.197 303.919 271.56C304.303 271.923 304.495 272.424 304.495 273.064C304.495 273.725 304.223 274.253 303.679 274.648C303.135 275.043 302.329 275.24 301.263 275.24ZM309.484 275.24C308.706 275.24 308.103 275.016 307.676 274.568C307.26 274.12 307.052 273.485 307.052 272.664V268.568H305.884V267.32H307.052V265.016H308.684V267.32H310.572V268.568H308.684V272.552C308.684 273.064 308.78 273.427 308.972 273.64C309.175 273.853 309.538 273.96 310.06 273.96C310.37 273.96 310.679 273.891 310.988 273.752V275.032C310.583 275.171 310.082 275.24 309.484 275.24ZM75.872 287.192H72.4V285.816H80.992V287.192H77.52V297H75.872V287.192ZM83.4684 287.816C83.2017 287.816 82.9777 287.725 82.7964 287.544C82.615 287.363 82.5244 287.139 82.5244 286.872C82.5244 286.605 82.615 286.381 82.7964 286.2C82.9777 286.019 83.2017 285.928 83.4684 285.928C83.7457 285.928 83.975 286.019 84.1564 286.2C84.3484 286.381 84.4444 286.605 84.4444 286.872C84.4444 287.139 84.3484 287.363 84.1564 287.544C83.975 287.725 83.7457 287.816 83.4684 287.816ZM82.6524 289.32H84.3004V297H82.6524V289.32ZM91.2484 297.24C89.8297 297.24 88.715 296.888 87.9044 296.184C87.1044 295.469 86.7044 294.467 86.7044 293.176C86.7044 291.917 87.0617 290.92 87.7764 290.184C88.5017 289.448 89.531 289.08 90.8644 289.08C91.7497 289.08 92.5017 289.251 93.1204 289.592C93.739 289.923 94.203 290.387 94.5124 290.984C94.8324 291.571 94.9924 292.243 94.9924 293V293.8H88.2404C88.2937 294.525 88.5977 295.069 89.1524 295.432C89.7177 295.784 90.4804 295.96 91.4404 295.96C91.931 295.96 92.427 295.917 92.9284 295.832C93.4297 295.736 93.8724 295.613 94.2564 295.464V296.76C93.915 296.899 93.4617 297.011 92.8964 297.096C92.3417 297.192 91.7924 297.24 91.2484 297.24ZM93.4724 292.664C93.451 291.939 93.211 291.379 92.7524 290.984C92.3044 290.579 91.6644 290.376 90.8324 290.376C90.0217 290.376 89.3924 290.584 88.9444 291C88.4964 291.416 88.2617 291.971 88.2404 292.664H93.4724ZM97.2588 289.32H98.8268V290.696C99.1468 290.227 99.5948 289.88 100.171 289.656C100.757 289.432 101.435 289.32 102.203 289.32V290.584C101.381 290.584 100.677 290.717 100.091 290.984C99.5041 291.251 99.0988 291.672 98.8748 292.248V297H97.2588V289.32ZM110.571 285.816H114.875C116.081 285.816 117.03 286.12 117.723 286.728C118.427 287.325 118.779 288.179 118.779 289.288C118.779 290.419 118.433 291.277 117.739 291.864C117.046 292.44 116.091 292.728 114.875 292.728H112.203V297H110.571V285.816ZM114.699 291.368C115.446 291.368 116.038 291.213 116.475 290.904C116.913 290.595 117.131 290.056 117.131 289.288C117.131 288.52 116.913 287.981 116.475 287.672C116.038 287.352 115.446 287.192 114.699 287.192H112.203V291.368H114.699ZM122.589 297.24C121.661 297.24 120.914 297.005 120.349 296.536C119.794 296.056 119.517 295.411 119.517 294.6C119.517 293.747 119.784 293.091 120.317 292.632C120.861 292.163 121.629 291.928 122.621 291.928C123.677 291.928 124.573 292.141 125.309 292.568V292.168C125.309 291.56 125.122 291.112 124.749 290.824C124.386 290.525 123.81 290.376 123.021 290.376C122.552 290.376 122.093 290.424 121.645 290.52C121.208 290.605 120.813 290.728 120.461 290.888V289.576C120.781 289.427 121.197 289.309 121.709 289.224C122.221 289.128 122.717 289.08 123.197 289.08C124.466 289.08 125.405 289.363 126.013 289.928C126.632 290.483 126.941 291.256 126.941 292.248V297H125.421V296.136C125.09 296.499 124.696 296.776 124.237 296.968C123.789 297.149 123.24 297.24 122.589 297.24ZM122.989 296.008C123.501 296.008 123.965 295.907 124.381 295.704C124.797 295.501 125.106 295.219 125.309 294.856V293.816C124.616 293.368 123.842 293.144 122.989 293.144C122.37 293.144 121.906 293.267 121.597 293.512C121.298 293.747 121.149 294.109 121.149 294.6C121.149 295.539 121.762 296.008 122.989 296.008ZM130.39 287.816C130.124 287.816 129.9 287.725 129.718 287.544C129.537 287.363 129.446 287.139 129.446 286.872C129.446 286.605 129.537 286.381 129.718 286.2C129.9 286.019 130.124 285.928 130.39 285.928C130.668 285.928 130.897 286.019 131.078 286.2C131.27 286.381 131.366 286.605 131.366 286.872C131.366 287.139 131.27 287.363 131.078 287.544C130.897 287.725 130.668 287.816 130.39 287.816ZM129.574 289.32H131.222V297H129.574V289.32ZM137.658 297.24C136.89 297.24 136.197 297.075 135.578 296.744C134.97 296.403 134.49 295.928 134.138 295.32C133.797 294.701 133.626 293.987 133.626 293.176C133.626 292.376 133.797 291.667 134.138 291.048C134.49 290.429 134.97 289.949 135.578 289.608C136.197 289.256 136.89 289.08 137.658 289.08C139.045 289.08 140.096 289.501 140.81 290.344V285.176H142.426V297H140.858V295.88C140.432 296.349 139.962 296.696 139.45 296.92C138.949 297.133 138.352 297.24 137.658 297.24ZM138.026 295.96C138.688 295.96 139.264 295.789 139.754 295.448C140.256 295.096 140.608 294.627 140.81 294.04V292.312C140.629 291.725 140.282 291.256 139.77 290.904C139.269 290.552 138.688 290.376 138.026 290.376C137.504 290.376 137.029 290.493 136.602 290.728C136.186 290.963 135.856 291.293 135.61 291.72C135.376 292.147 135.258 292.632 135.258 293.176C135.258 293.72 135.376 294.205 135.61 294.632C135.856 295.059 136.186 295.389 136.602 295.624C137.029 295.848 137.504 295.96 138.026 295.96ZM157.031 297.24C155.879 297.24 154.855 297 153.959 296.52C153.063 296.04 152.364 295.363 151.863 294.488C151.361 293.603 151.111 292.579 151.111 291.416C151.111 290.253 151.361 289.229 151.863 288.344C152.364 287.459 153.063 286.776 153.959 286.296C154.855 285.816 155.879 285.576 157.031 285.576C158.577 285.576 159.863 285.96 160.887 286.728V288.296C159.959 287.485 158.721 287.08 157.175 287.08C156.332 287.08 155.575 287.256 154.903 287.608C154.231 287.96 153.703 288.467 153.319 289.128C152.945 289.779 152.759 290.541 152.759 291.416C152.759 292.291 152.945 293.059 153.319 293.72C153.692 294.381 154.209 294.888 154.871 295.24C155.532 295.592 156.279 295.768 157.111 295.768C158.081 295.768 158.876 295.571 159.495 295.176V292.248H157.367V290.92H161.127V296.04C160.625 296.456 160.033 296.76 159.351 296.952C158.679 297.144 157.905 297.24 157.031 297.24ZM163.384 289.32H164.952V290.696C165.272 290.227 165.72 289.88 166.296 289.656C166.882 289.432 167.56 289.32 168.328 289.32V290.584C167.506 290.584 166.802 290.717 166.216 290.984C165.629 291.251 165.224 291.672 165 292.248V297H163.384V289.32ZM174.088 297.24C173.224 297.24 172.461 297.08 171.8 296.76C171.149 296.429 170.637 295.96 170.264 295.352C169.901 294.733 169.72 294.008 169.72 293.176C169.72 292.355 169.901 291.635 170.264 291.016C170.627 290.397 171.139 289.923 171.8 289.592C172.461 289.251 173.224 289.08 174.088 289.08C174.952 289.08 175.715 289.251 176.376 289.592C177.037 289.923 177.549 290.397 177.912 291.016C178.285 291.635 178.472 292.355 178.472 293.176C178.472 294.008 178.285 294.733 177.912 295.352C177.549 295.96 177.037 296.429 176.376 296.76C175.715 297.08 174.952 297.24 174.088 297.24ZM174.088 295.96C174.92 295.96 175.581 295.704 176.072 295.192C176.563 294.68 176.808 294.008 176.808 293.176C176.808 292.312 176.563 291.629 176.072 291.128C175.581 290.627 174.92 290.376 174.088 290.376C173.256 290.376 172.595 290.627 172.104 291.128C171.613 291.629 171.368 292.312 171.368 293.176C171.368 294.008 171.613 294.68 172.104 295.192C172.595 295.704 173.256 295.96 174.088 295.96ZM183.784 297.24C182.749 297.24 181.965 296.963 181.432 296.408C180.909 295.853 180.648 295.112 180.648 294.184V289.32H182.264V294.12C182.264 295.347 182.877 295.96 184.104 295.96C185.181 295.96 186.024 295.475 186.632 294.504V289.32H188.248V297H186.68V295.912C186.317 296.371 185.885 296.707 185.384 296.92C184.893 297.133 184.36 297.24 183.784 297.24ZM190.821 289.32H192.389V290.456C193.179 289.539 194.245 289.08 195.589 289.08C196.357 289.08 197.045 289.251 197.653 289.592C198.272 289.933 198.752 290.413 199.093 291.032C199.445 291.64 199.621 292.349 199.621 293.16C199.621 293.96 199.445 294.669 199.093 295.288C198.752 295.907 198.277 296.387 197.669 296.728C197.061 297.069 196.368 297.24 195.589 297.24C194.949 297.24 194.352 297.133 193.797 296.92C193.243 296.707 192.789 296.392 192.437 295.976V300.504H190.821V289.32ZM195.221 295.96C195.744 295.96 196.213 295.848 196.629 295.624C197.056 295.389 197.387 295.059 197.621 294.632C197.867 294.205 197.989 293.715 197.989 293.16C197.989 292.605 197.867 292.12 197.621 291.704C197.387 291.277 197.056 290.952 196.629 290.728C196.213 290.493 195.744 290.376 195.221 290.376C194.571 290.376 193.995 290.547 193.493 290.888C193.003 291.229 192.651 291.699 192.437 292.296V294.024C192.619 294.611 192.965 295.08 193.477 295.432C193.989 295.784 194.571 295.96 195.221 295.96ZM202.316 297C202.102 297 201.921 296.931 201.772 296.792C201.633 296.643 201.564 296.461 201.564 296.248C201.564 296.035 201.633 295.853 201.772 295.704C201.921 295.555 202.102 295.48 202.316 295.48C202.529 295.48 202.71 295.555 202.86 295.704C203.009 295.853 203.084 296.035 203.084 296.248C203.084 296.461 203.009 296.643 202.86 296.792C202.71 296.931 202.529 297 202.316 297Z" fill="#FAFAF9"/>
<ellipse cx="48.5" cy="279.726" rx="10.5" ry="11.2435" fill="#D9D9D9"/>
<path d="M43 279.19L46.5 282.938L54 274.907" stroke="url(#paint2_linear_803_156)" stroke-width="2"/>
<path d="M113.911 64L119.499 49.7H123.569L129.135 64H126.209L124.801 60.348H118.179L116.793 64H113.911ZM119.125 57.774H123.877L121.457 51.856L119.125 57.774ZM132.986 64V49.7H135.714V61.426H143.854V64H132.986ZM147.994 64V49.7H157.784C160.226 49.7 161.854 51.416 161.854 53.99C161.854 56.454 160.226 58.126 157.784 58.126H150.722V64H147.994ZM150.722 55.552H157.784C158.598 55.552 159.126 54.98 159.126 54.122V53.704C159.126 52.846 158.598 52.274 157.784 52.274H150.722V55.552ZM166.117 64V49.7H168.845V55.552H176.985V49.7H179.713V64H176.985V58.126H168.845V64H166.117ZM183.545 64L189.133 49.7H193.203L198.769 64H195.843L194.435 60.348H187.813L186.427 64H183.545ZM188.759 57.774H193.511L191.091 51.856L188.759 57.774ZM210.41 64V49.7H213.138V61.426H221.278V64H210.41ZM225.418 64V49.7H228.146V64H225.418ZM237.673 64V52.274H232.239V49.7H245.835V52.274H240.401V64H237.673ZM249.955 64V49.7H263.265V52.274H252.683V55.552H260.559V58.126H252.683V61.426H263.265V64H249.955Z" fill="#FF6D36"/>
<path d="M77.3181 139.16H74.5581V134.8H77.3181V131.96C77.3181 129.48 78.0781 127.573 79.5981 126.24C81.1181 124.907 83.0915 124.24 85.5181 124.24C86.9048 124.24 88.1048 124.453 89.1181 124.88V129.72C88.3448 129.373 87.5315 129.2 86.6781 129.2C85.5581 129.2 84.7181 129.453 84.1581 129.96C83.6248 130.467 83.3581 131.293 83.3581 132.44V134.8H87.9181V139.16H83.3581V154H77.3181V139.16ZM91.7284 134.8H97.5684V137.56C98.3418 136.627 99.4218 135.92 100.808 135.44C102.195 134.933 103.768 134.68 105.528 134.68V139.28C103.688 139.28 102.062 139.56 100.648 140.12C99.2618 140.68 98.3018 141.533 97.7684 142.68V154H91.7284V134.8ZM120.136 154.6C116.456 154.6 113.562 153.72 111.456 151.96C109.349 150.173 108.296 147.68 108.296 144.48C108.296 141.307 109.229 138.8 111.096 136.96C112.989 135.12 115.682 134.2 119.176 134.2C121.469 134.2 123.416 134.627 125.016 135.48C126.616 136.333 127.829 137.52 128.656 139.04C129.482 140.533 129.896 142.227 129.896 144.12V146.56H114.056C114.482 149.013 116.776 150.24 120.936 150.24C122.162 150.24 123.429 150.133 124.736 149.92C126.042 149.707 127.176 149.413 128.136 149.04V153.28C127.202 153.68 126.002 154 124.536 154.24C123.069 154.48 121.602 154.6 120.136 154.6ZM124.176 142.64C124.096 141.36 123.616 140.373 122.736 139.68C121.856 138.96 120.642 138.6 119.096 138.6C117.576 138.6 116.376 138.96 115.496 139.68C114.616 140.4 114.136 141.387 114.056 142.64H124.176ZM145.276 154.6C141.596 154.6 138.703 153.72 136.596 151.96C134.49 150.173 133.436 147.68 133.436 144.48C133.436 141.307 134.37 138.8 136.236 136.96C138.13 135.12 140.823 134.2 144.316 134.2C146.61 134.2 148.556 134.627 150.156 135.48C151.756 136.333 152.97 137.52 153.796 139.04C154.623 140.533 155.036 142.227 155.036 144.12V146.56H139.196C139.623 149.013 141.916 150.24 146.076 150.24C147.303 150.24 148.57 150.133 149.876 149.92C151.183 149.707 152.316 149.413 153.276 149.04V153.28C152.343 153.68 151.143 154 149.676 154.24C148.21 154.48 146.743 154.6 145.276 154.6ZM149.316 142.64C149.236 141.36 148.756 140.373 147.876 139.68C146.996 138.96 145.783 138.6 144.236 138.6C142.716 138.6 141.516 138.96 140.636 139.68C139.756 140.4 139.276 141.387 139.196 142.64H149.316ZM182.401 154.6C180.161 154.6 178.455 153.987 177.281 152.76C176.135 151.507 175.561 149.773 175.561 147.56V139.16H172.761V134.8H175.561V129.04H181.601V134.8H186.121V139.16H181.601V146.76C181.601 147.88 181.815 148.693 182.241 149.2C182.668 149.68 183.428 149.92 184.521 149.92C185.401 149.92 186.241 149.707 187.041 149.28V153.8C185.815 154.333 184.268 154.6 182.401 154.6ZM201.395 154.6C199.075 154.6 197.035 154.187 195.275 153.36C193.541 152.507 192.195 151.32 191.235 149.8C190.301 148.253 189.835 146.453 189.835 144.4C189.835 142.4 190.301 140.627 191.235 139.08C192.195 137.533 193.541 136.333 195.275 135.48C197.035 134.627 199.075 134.2 201.395 134.2C203.688 134.2 205.701 134.627 207.435 135.48C209.195 136.333 210.541 137.533 211.475 139.08C212.435 140.627 212.915 142.4 212.915 144.4C212.915 146.453 212.435 148.253 211.475 149.8C210.541 151.32 209.208 152.507 207.475 153.36C205.741 154.187 203.715 154.6 201.395 154.6ZM201.395 149.88C203.021 149.88 204.315 149.387 205.275 148.4C206.235 147.387 206.715 146.053 206.715 144.4C206.715 142.693 206.235 141.36 205.275 140.4C204.341 139.413 203.048 138.92 201.395 138.92C199.741 138.92 198.435 139.413 197.475 140.4C196.515 141.36 196.035 142.693 196.035 144.4C196.035 146.053 196.515 147.387 197.475 148.4C198.461 149.387 199.768 149.88 201.395 149.88ZM235.483 131.84C234.55 131.84 233.763 131.533 233.123 130.92C232.483 130.307 232.163 129.533 232.163 128.6C232.163 127.693 232.483 126.933 233.123 126.32C233.763 125.68 234.55 125.36 235.483 125.36C236.39 125.36 237.163 125.68 237.803 126.32C238.443 126.933 238.763 127.693 238.763 128.6C238.763 129.533 238.443 130.307 237.803 130.92C237.163 131.533 236.39 131.84 235.483 131.84ZM230.403 163.24C228.91 163.24 227.71 163.04 226.803 162.64V157.8C227.496 158.147 228.363 158.32 229.403 158.32C230.416 158.32 231.176 158.067 231.683 157.56C232.19 157.053 232.443 156.253 232.443 155.16V134.8H238.483V155.84C238.483 158.293 237.75 160.133 236.283 161.36C234.816 162.613 232.856 163.24 230.403 163.24ZM254.707 154.6C252.387 154.6 250.347 154.187 248.587 153.36C246.854 152.507 245.507 151.32 244.547 149.8C243.614 148.253 243.147 146.453 243.147 144.4C243.147 142.4 243.614 140.627 244.547 139.08C245.507 137.533 246.854 136.333 248.587 135.48C250.347 134.627 252.387 134.2 254.707 134.2C257.001 134.2 259.014 134.627 260.747 135.48C262.507 136.333 263.854 137.533 264.787 139.08C265.747 140.627 266.227 142.4 266.227 144.4C266.227 146.453 265.747 148.253 264.787 149.8C263.854 151.32 262.521 152.507 260.787 153.36C259.054 154.187 257.027 154.6 254.707 154.6ZM254.707 149.88C256.334 149.88 257.627 149.387 258.587 148.4C259.547 147.387 260.027 146.053 260.027 144.4C260.027 142.693 259.547 141.36 258.587 140.4C257.654 139.413 256.361 138.92 254.707 138.92C253.054 138.92 251.747 139.413 250.787 140.4C249.827 141.36 249.347 142.693 249.347 144.4C249.347 146.053 249.827 147.387 250.787 148.4C251.774 149.387 253.081 149.88 254.707 149.88ZM273.931 131.84C272.998 131.84 272.211 131.533 271.571 130.92C270.931 130.307 270.611 129.533 270.611 128.6C270.611 127.693 270.931 126.933 271.571 126.32C272.211 125.68 272.998 125.36 273.931 125.36C274.865 125.36 275.651 125.68 276.291 126.32C276.931 126.933 277.251 127.693 277.251 128.6C277.251 129.533 276.931 130.307 276.291 130.92C275.651 131.533 274.865 131.84 273.931 131.84ZM270.891 134.8H276.971V154H270.891V134.8ZM282.393 134.8H288.233V137.16C289.113 136.173 290.153 135.44 291.353 134.96C292.579 134.453 293.859 134.2 295.193 134.2C297.806 134.2 299.753 134.907 301.033 136.32C302.339 137.707 302.993 139.587 302.993 141.96V154H296.953V142.64C296.953 140.16 295.806 138.92 293.513 138.92C292.499 138.92 291.553 139.173 290.673 139.68C289.793 140.16 289.046 140.88 288.433 141.84V154H282.393V134.8Z" fill="white"/>
<path d="M108.592 90L112.656 79.6H115.616L119.664 90H117.536L116.512 87.344H111.696L110.688 90H108.592ZM112.384 85.472H115.84L114.08 81.168L112.384 85.472ZM122.738 90V79.6H124.514L130.642 86.768V79.6H132.626V90H130.834L124.722 82.816V90H122.738ZM139.638 90V86.352L135.494 79.6H137.766L139.702 82.72C140.342 83.76 140.614 84.592 140.614 84.592H140.646C140.646 84.592 140.934 83.76 141.558 82.72L143.462 79.6H145.766L141.622 86.352V90H139.638ZM152.737 90.208C149.777 90.208 147.601 87.92 147.601 84.8C147.601 81.68 149.777 79.392 152.737 79.392C155.697 79.392 157.873 81.68 157.873 84.8C157.873 87.92 155.697 90.208 152.737 90.208ZM152.737 88.224C154.513 88.224 155.809 86.768 155.809 84.8C155.809 82.816 154.513 81.36 152.737 81.36C150.961 81.36 149.681 82.816 149.681 84.8C149.681 86.768 150.961 88.224 152.737 88.224ZM161.347 90V79.6H163.123L169.251 86.768V79.6H171.235V90H169.443L163.331 82.816V90H161.347ZM175.191 90V79.6H184.871V81.472H177.175V83.856H182.903V85.728H177.175V88.128H184.871V90H175.191ZM199.128 90.208C196.168 90.208 193.992 87.92 193.992 84.8C193.992 81.68 196.168 79.392 199.128 79.392C201.8 79.392 203.8 81.216 204.2 83.856H202.088C201.752 82.368 200.616 81.36 199.128 81.36C197.352 81.36 196.072 82.816 196.072 84.8C196.072 86.768 197.352 88.224 199.128 88.224C200.616 88.224 201.752 87.216 202.088 85.728H204.2C203.8 88.384 201.8 90.208 199.128 90.208ZM206.217 90L210.281 79.6H213.241L217.289 90H215.161L214.137 87.344H209.321L208.313 90H206.217ZM210.009 85.472H213.465L211.705 81.168L210.009 85.472ZM220.363 90V79.6H222.139L228.267 86.768V79.6H230.251V90H228.459L222.347 82.816V90H220.363ZM243.696 90.208C241.424 90.208 239.744 88.432 239.744 86.048H241.728C241.728 87.296 242.56 88.224 243.696 88.224C244.832 88.224 245.68 87.296 245.68 86.048V79.6H247.648V86.048C247.648 88.432 245.968 90.208 243.696 90.208ZM256.269 90.208C253.309 90.208 251.133 87.92 251.133 84.8C251.133 81.68 253.309 79.392 256.269 79.392C259.229 79.392 261.405 81.68 261.405 84.8C261.405 87.92 259.229 90.208 256.269 90.208ZM256.269 88.224C258.045 88.224 259.341 86.768 259.341 84.8C259.341 82.816 258.045 81.36 256.269 81.36C254.493 81.36 253.213 82.816 253.213 84.8C253.213 86.768 254.493 88.224 256.269 88.224ZM264.879 90V79.6H266.863V90H264.879ZM270.816 90V79.6H272.592L278.72 86.768V79.6H280.704V90H278.912L272.8 82.816V90H270.816Z" fill="#EF8963"/>
<defs>
<linearGradient id="paint0_linear_803_156" x1="189.5" y1="0" x2="189.5" y2="607" gradientUnits="userSpaceOnUse">
<stop stop-color="#3F3F3F"/>
<stop offset="1" stop-color="#2E2E2E"/>
</linearGradient>
<linearGradient id="paint1_linear_803_156" x1="48.5" y1="365.425" x2="48.5" y2="373.456" gradientUnits="userSpaceOnUse">
<stop stop-color="#2D2D2D"/>
<stop offset="1" stop-color="#242424"/>
</linearGradient>
<linearGradient id="paint2_linear_803_156" x1="48.5" y1="274.907" x2="48.5" y2="282.938" gradientUnits="userSpaceOnUse">
<stop stop-color="#2D2D2D"/>
<stop offset="1" stop-color="#242424"/>
</linearGradient>
</defs>
</svg>
