<svg width="379" height="607" viewBox="0 0 379 607" fill="none" xmlns="http://www.w3.org/2000/svg">
<path d="M0 12C0 5.37259 5.37258 0 12 0H367C373.627 0 379 5.37258 379 12V595C379 601.627 373.627 607 367 607H12C5.37259 607 0 601.627 0 595V12Z" fill="url(#paint0_linear_863_431)"/>
<path d="M0 12C0 5.37259 5.37258 0 12 0H367C373.627 0 379 5.37258 379 12V595C379 601.627 373.627 607 367 607H12C5.37259 607 0 601.627 0 595V12Z" fill="url(#paint1_linear_863_431)"/>
<path d="M77.184 313.816H78.752L83.216 325H81.552L80.432 322.216H75.488L74.4 325H72.72L77.184 313.816ZM79.984 320.856L77.968 315.624L75.952 320.856H79.984ZM86.8906 325.24C86.112 325.24 85.5093 325.016 85.0826 324.568C84.6666 324.12 84.4586 323.485 84.4586 322.664V318.568H83.2906V317.32H84.4586V315.016H86.0906V317.32H87.9786V318.568H86.0906V322.552C86.0906 323.064 86.1866 323.427 86.3786 323.64C86.5813 323.853 86.944 323.96 87.4666 323.96C87.776 323.96 88.0853 323.891 88.3946 323.752V325.032C87.9893 325.171 87.488 325.24 86.8906 325.24ZM98.7969 325.24C98.0182 325.24 97.4155 325.016 96.9889 324.568C96.5729 324.12 96.3649 323.485 96.3649 322.664V318.568H95.1969V317.32H96.3649V315.016H97.9969V317.32H99.8849V318.568H97.9969V322.552C97.9969 323.064 98.0929 323.427 98.2849 323.64C98.4875 323.853 98.8502 323.96 99.3729 323.96C99.6822 323.96 99.9915 323.891 100.301 323.752V325.032C99.8955 325.171 99.3942 325.24 98.7969 325.24ZM101.821 313.176H103.437V318.376C104.173 317.512 105.155 317.08 106.381 317.08C107.405 317.08 108.168 317.352 108.669 317.896C109.171 318.44 109.421 319.171 109.421 320.088V325H107.805V320.248C107.805 319 107.208 318.376 106.013 318.376C105.501 318.376 105.021 318.499 104.573 318.744C104.136 318.979 103.757 319.341 103.437 319.832V325H101.821V313.176ZM115.639 325.24C114.22 325.24 113.106 324.888 112.295 324.184C111.495 323.469 111.095 322.467 111.095 321.176C111.095 319.917 111.452 318.92 112.167 318.184C112.892 317.448 113.922 317.08 115.255 317.08C116.14 317.08 116.892 317.251 117.511 317.592C118.13 317.923 118.594 318.387 118.903 318.984C119.223 319.571 119.383 320.243 119.383 321V321.8H112.631C112.684 322.525 112.988 323.069 113.543 323.432C114.108 323.784 114.871 323.96 115.831 323.96C116.322 323.96 116.818 323.917 117.319 323.832C117.82 323.736 118.263 323.613 118.647 323.464V324.76C118.306 324.899 117.852 325.011 117.287 325.096C116.732 325.192 116.183 325.24 115.639 325.24ZM117.863 320.664C117.842 319.939 117.602 319.379 117.143 318.984C116.695 318.579 116.055 318.376 115.223 318.376C114.412 318.376 113.783 318.584 113.335 319C112.887 319.416 112.652 319.971 112.631 320.664H117.863ZM129.903 325.24C129.37 325.24 128.805 325.171 128.207 325.032C127.61 324.904 127.141 324.728 126.799 324.504V323.128C127.215 323.373 127.695 323.576 128.239 323.736C128.783 323.885 129.311 323.96 129.823 323.96C130.399 323.96 130.821 323.891 131.087 323.752C131.354 323.613 131.487 323.389 131.487 323.08C131.487 322.845 131.423 322.659 131.295 322.52C131.178 322.371 130.97 322.237 130.671 322.12C130.383 322.003 129.946 321.864 129.359 321.704C128.73 321.523 128.229 321.341 127.855 321.16C127.493 320.968 127.215 320.728 127.023 320.44C126.842 320.152 126.751 319.779 126.751 319.32C126.751 318.584 127.039 318.029 127.615 317.656C128.202 317.272 128.986 317.08 129.967 317.08C130.479 317.08 130.981 317.128 131.471 317.224C131.962 317.32 132.357 317.453 132.655 317.624V318.968C132.346 318.787 131.962 318.643 131.503 318.536C131.055 318.429 130.597 318.376 130.127 318.376C129.562 318.376 129.13 318.445 128.831 318.584C128.533 318.723 128.383 318.968 128.383 319.32C128.383 319.544 128.447 319.725 128.575 319.864C128.703 320.003 128.906 320.125 129.183 320.232C129.471 320.328 129.925 320.456 130.543 320.616C131.514 320.883 132.186 321.197 132.559 321.56C132.943 321.923 133.135 322.424 133.135 323.064C133.135 323.725 132.863 324.253 132.319 324.648C131.775 325.043 130.97 325.24 129.903 325.24ZM137.625 325.24C136.846 325.24 136.244 325.016 135.817 324.568C135.401 324.12 135.193 323.485 135.193 322.664V318.568H134.025V317.32H135.193V315.016H136.825V317.32H138.713V318.568H136.825V322.552C136.825 323.064 136.921 323.427 137.113 323.64C137.316 323.853 137.678 323.96 138.201 323.96C138.51 323.96 138.82 323.891 139.129 323.752V325.032C138.724 325.171 138.222 325.24 137.625 325.24ZM143.167 325.24C142.239 325.24 141.492 325.005 140.927 324.536C140.372 324.056 140.095 323.411 140.095 322.6C140.095 321.747 140.362 321.091 140.895 320.632C141.439 320.163 142.207 319.928 143.199 319.928C144.255 319.928 145.151 320.141 145.887 320.568V320.168C145.887 319.56 145.7 319.112 145.327 318.824C144.964 318.525 144.388 318.376 143.599 318.376C143.13 318.376 142.671 318.424 142.223 318.52C141.786 318.605 141.391 318.728 141.039 318.888V317.576C141.359 317.427 141.775 317.309 142.287 317.224C142.799 317.128 143.295 317.08 143.775 317.08C145.044 317.08 145.983 317.363 146.591 317.928C147.21 318.483 147.519 319.256 147.519 320.248V325H145.999V324.136C145.668 324.499 145.274 324.776 144.815 324.968C144.367 325.149 143.818 325.24 143.167 325.24ZM143.567 324.008C144.079 324.008 144.543 323.907 144.959 323.704C145.375 323.501 145.684 323.219 145.887 322.856V321.816C145.194 321.368 144.42 321.144 143.567 321.144C142.948 321.144 142.484 321.267 142.175 321.512C141.876 321.747 141.727 322.109 141.727 322.6C141.727 323.539 142.34 324.008 143.567 324.008ZM149.524 317.32H151.092V318.696C151.412 318.227 151.86 317.88 152.436 317.656C153.023 317.432 153.7 317.32 154.468 317.32V318.584C153.647 318.584 152.943 318.717 152.356 318.984C151.77 319.251 151.364 319.672 151.14 320.248V325H149.524V317.32ZM158.875 325.24C158.096 325.24 157.494 325.016 157.067 324.568C156.651 324.12 156.443 323.485 156.443 322.664V318.568H155.275V317.32H156.443V315.016H158.075V317.32H159.963V318.568H158.075V322.552C158.075 323.064 158.171 323.427 158.363 323.64C158.566 323.853 158.928 323.96 159.451 323.96C159.76 323.96 160.07 323.891 160.379 323.752V325.032C159.974 325.171 159.472 325.24 158.875 325.24ZM171.869 325.24C171.005 325.24 170.243 325.08 169.581 324.76C168.931 324.429 168.419 323.96 168.045 323.352C167.683 322.733 167.501 322.008 167.501 321.176C167.501 320.355 167.683 319.635 168.045 319.016C168.408 318.397 168.92 317.923 169.581 317.592C170.243 317.251 171.005 317.08 171.869 317.08C172.733 317.08 173.496 317.251 174.157 317.592C174.819 317.923 175.331 318.397 175.693 319.016C176.067 319.635 176.253 320.355 176.253 321.176C176.253 322.008 176.067 322.733 175.693 323.352C175.331 323.96 174.819 324.429 174.157 324.76C173.496 325.08 172.733 325.24 171.869 325.24ZM171.869 323.96C172.701 323.96 173.363 323.704 173.853 323.192C174.344 322.68 174.589 322.008 174.589 321.176C174.589 320.312 174.344 319.629 173.853 319.128C173.363 318.627 172.701 318.376 171.869 318.376C171.037 318.376 170.376 318.627 169.885 319.128C169.395 319.629 169.149 320.312 169.149 321.176C169.149 322.008 169.395 322.68 169.885 323.192C170.376 323.704 171.037 323.96 171.869 323.96ZM177.974 318.568H176.806V317.32H177.974V315.816C177.974 314.931 178.225 314.259 178.726 313.8C179.228 313.331 179.9 313.096 180.742 313.096C181.18 313.096 181.59 313.16 181.974 313.288V314.632C181.676 314.493 181.366 314.424 181.046 314.424C180.545 314.424 180.177 314.547 179.942 314.792C179.708 315.027 179.59 315.4 179.59 315.912V317.32H181.51V318.568H179.59V325H177.974V318.568ZM193.233 325.24C191.814 325.24 190.699 324.888 189.889 324.184C189.089 323.469 188.689 322.467 188.689 321.176C188.689 319.917 189.046 318.92 189.761 318.184C190.486 317.448 191.515 317.08 192.849 317.08C193.734 317.08 194.486 317.251 195.105 317.592C195.723 317.923 196.187 318.387 196.497 318.984C196.817 319.571 196.977 320.243 196.977 321V321.8H190.225C190.278 322.525 190.582 323.069 191.137 323.432C191.702 323.784 192.465 323.96 193.425 323.96C193.915 323.96 194.411 323.917 194.913 323.832C195.414 323.736 195.857 323.613 196.241 323.464V324.76C195.899 324.899 195.446 325.011 194.881 325.096C194.326 325.192 193.777 325.24 193.233 325.24ZM195.457 320.664C195.435 319.939 195.195 319.379 194.737 318.984C194.289 318.579 193.649 318.376 192.817 318.376C192.006 318.376 191.377 318.584 190.929 319C190.481 319.416 190.246 319.971 190.225 320.664H195.457ZM201.495 325.24C200.567 325.24 199.82 325.005 199.255 324.536C198.7 324.056 198.423 323.411 198.423 322.6C198.423 321.747 198.69 321.091 199.223 320.632C199.767 320.163 200.535 319.928 201.527 319.928C202.583 319.928 203.479 320.141 204.215 320.568V320.168C204.215 319.56 204.028 319.112 203.655 318.824C203.292 318.525 202.716 318.376 201.927 318.376C201.458 318.376 200.999 318.424 200.551 318.52C200.114 318.605 199.719 318.728 199.367 318.888V317.576C199.687 317.427 200.103 317.309 200.615 317.224C201.127 317.128 201.623 317.08 202.103 317.08C203.372 317.08 204.311 317.363 204.919 317.928C205.538 318.483 205.847 319.256 205.847 320.248V325H204.327V324.136C203.996 324.499 203.602 324.776 203.143 324.968C202.695 325.149 202.146 325.24 201.495 325.24ZM201.895 324.008C202.407 324.008 202.871 323.907 203.287 323.704C203.703 323.501 204.012 323.219 204.215 322.856V321.816C203.522 321.368 202.748 321.144 201.895 321.144C201.276 321.144 200.812 321.267 200.503 321.512C200.204 321.747 200.055 322.109 200.055 322.6C200.055 323.539 200.668 324.008 201.895 324.008ZM211.588 325.24C210.735 325.24 209.977 325.08 209.316 324.76C208.655 324.44 208.137 323.976 207.764 323.368C207.401 322.749 207.22 322.019 207.22 321.176C207.22 320.333 207.401 319.608 207.764 319C208.137 318.381 208.655 317.907 209.316 317.576C209.988 317.245 210.756 317.08 211.62 317.08C212.793 317.08 213.732 317.309 214.436 317.768V319.096C213.743 318.616 212.857 318.376 211.78 318.376C210.905 318.376 210.196 318.616 209.652 319.096C209.119 319.565 208.852 320.259 208.852 321.176C208.852 322.093 209.119 322.787 209.652 323.256C210.185 323.725 210.884 323.96 211.748 323.96C212.825 323.96 213.753 323.704 214.532 323.192V324.504C214.159 324.76 213.732 324.947 213.252 325.064C212.783 325.181 212.228 325.24 211.588 325.24ZM216.29 313.176H217.906V318.376C218.642 317.512 219.623 317.08 220.85 317.08C221.874 317.08 222.637 317.352 223.138 317.896C223.639 318.44 223.89 319.171 223.89 320.088V325H222.274V320.248C222.274 319 221.677 318.376 220.482 318.376C219.97 318.376 219.49 318.499 219.042 318.744C218.605 318.979 218.226 319.341 217.906 319.832V325H216.29V313.176ZM231.486 317.32H233.134L234.862 323.016L236.574 317.32H238.03L239.742 323.016L241.47 317.32H243.134L240.638 325H239.086L237.31 319.272L235.534 325H233.966L231.486 317.32ZM248.639 325.24C247.22 325.24 246.106 324.888 245.295 324.184C244.495 323.469 244.095 322.467 244.095 321.176C244.095 319.917 244.452 318.92 245.167 318.184C245.892 317.448 246.922 317.08 248.255 317.08C249.14 317.08 249.892 317.251 250.511 317.592C251.13 317.923 251.594 318.387 251.903 318.984C252.223 319.571 252.383 320.243 252.383 321V321.8H245.631C245.684 322.525 245.988 323.069 246.543 323.432C247.108 323.784 247.871 323.96 248.831 323.96C249.322 323.96 249.818 323.917 250.319 323.832C250.82 323.736 251.263 323.613 251.647 323.464V324.76C251.306 324.899 250.852 325.011 250.287 325.096C249.732 325.192 249.183 325.24 248.639 325.24ZM250.863 320.664C250.842 319.939 250.602 319.379 250.143 318.984C249.695 318.579 249.055 318.376 248.223 318.376C247.412 318.376 246.783 318.584 246.335 319C245.887 319.416 245.652 319.971 245.631 320.664H250.863ZM258.373 325.24C256.955 325.24 255.84 324.888 255.029 324.184C254.229 323.469 253.829 322.467 253.829 321.176C253.829 319.917 254.187 318.92 254.901 318.184C255.627 317.448 256.656 317.08 257.989 317.08C258.875 317.08 259.627 317.251 260.245 317.592C260.864 317.923 261.328 318.387 261.637 318.984C261.957 319.571 262.117 320.243 262.117 321V321.8H255.365C255.419 322.525 255.723 323.069 256.277 323.432C256.843 323.784 257.605 323.96 258.565 323.96C259.056 323.96 259.552 323.917 260.053 323.832C260.555 323.736 260.997 323.613 261.381 323.464V324.76C261.04 324.899 260.587 325.011 260.021 325.096C259.467 325.192 258.917 325.24 258.373 325.24ZM260.597 320.664C260.576 319.939 260.336 319.379 259.877 318.984C259.429 318.579 258.789 318.376 257.957 318.376C257.147 318.376 256.517 318.584 256.069 319C255.621 319.416 255.387 319.971 255.365 320.664H260.597ZM263.884 313.176H265.5V325H263.884V313.176ZM265.516 321.112L269.052 317.32H271.02L267.468 321.112L271.388 325H269.42L265.516 321.112ZM278.915 317.32H280.483V318.696C280.803 318.227 281.251 317.88 281.827 317.656C282.414 317.432 283.091 317.32 283.859 317.32V318.584C283.038 318.584 282.334 318.717 281.747 318.984C281.16 319.251 280.755 319.672 280.531 320.248V325H278.915V317.32ZM289.045 325.24C287.627 325.24 286.512 324.888 285.701 324.184C284.901 323.469 284.501 322.467 284.501 321.176C284.501 319.917 284.859 318.92 285.573 318.184C286.299 317.448 287.328 317.08 288.661 317.08C289.547 317.08 290.299 317.251 290.917 317.592C291.536 317.923 292 318.387 292.309 318.984C292.629 319.571 292.789 320.243 292.789 321V321.8H286.037C286.091 322.525 286.395 323.069 286.949 323.432C287.515 323.784 288.277 323.96 289.237 323.96C289.728 323.96 290.224 323.917 290.725 323.832C291.227 323.736 291.669 323.613 292.053 323.464V324.76C291.712 324.899 291.259 325.011 290.693 325.096C290.139 325.192 289.589 325.24 289.045 325.24ZM291.269 320.664C291.248 319.939 291.008 319.379 290.549 318.984C290.101 318.579 289.461 318.376 288.629 318.376C287.819 318.376 287.189 318.584 286.741 319C286.293 319.416 286.059 319.971 286.037 320.664H291.269ZM298.604 325.24C297.75 325.24 296.993 325.08 296.332 324.76C295.67 324.44 295.153 323.976 294.78 323.368C294.417 322.749 294.236 322.019 294.236 321.176C294.236 320.333 294.417 319.608 294.78 319C295.153 318.381 295.67 317.907 296.332 317.576C297.004 317.245 297.772 317.08 298.636 317.08C299.809 317.08 300.748 317.309 301.452 317.768V319.096C300.758 318.616 299.873 318.376 298.796 318.376C297.921 318.376 297.212 318.616 296.668 319.096C296.134 319.565 295.868 320.259 295.868 321.176C295.868 322.093 296.134 322.787 296.668 323.256C297.201 323.725 297.9 323.96 298.764 323.96C299.841 323.96 300.769 323.704 301.548 323.192V324.504C301.174 324.76 300.748 324.947 300.268 325.064C299.798 325.181 299.244 325.24 298.604 325.24ZM307.53 325.24C306.111 325.24 304.996 324.888 304.186 324.184C303.386 323.469 302.986 322.467 302.986 321.176C302.986 319.917 303.343 318.92 304.058 318.184C304.783 317.448 305.812 317.08 307.146 317.08C308.031 317.08 308.783 317.251 309.402 317.592C310.02 317.923 310.484 318.387 310.794 318.984C311.114 319.571 311.274 320.243 311.274 321V321.8H304.522C304.575 322.525 304.879 323.069 305.434 323.432C305.999 323.784 306.762 323.96 307.722 323.96C308.212 323.96 308.708 323.917 309.21 323.832C309.711 323.736 310.154 323.613 310.538 323.464V324.76C310.196 324.899 309.743 325.011 309.178 325.096C308.623 325.192 308.074 325.24 307.53 325.24ZM309.754 320.664C309.732 319.939 309.492 319.379 309.034 318.984C308.586 318.579 307.946 318.376 307.114 318.376C306.303 318.376 305.674 318.584 305.226 319C304.778 319.416 304.543 319.971 304.522 320.664H309.754ZM313.984 315.816C313.717 315.816 313.493 315.725 313.312 315.544C313.131 315.363 313.04 315.139 313.04 314.872C313.04 314.605 313.131 314.381 313.312 314.2C313.493 314.019 313.717 313.928 313.984 313.928C314.261 313.928 314.491 314.019 314.672 314.2C314.864 314.381 314.96 314.605 314.96 314.872C314.96 315.139 314.864 315.363 314.672 315.544C314.491 315.725 314.261 315.816 313.984 315.816ZM313.168 317.32H314.816V325H313.168V317.32ZM316.72 317.32H318.432L320.688 322.84L322.944 317.32H324.656L321.392 325H319.984L316.72 317.32ZM329.998 325.24C328.58 325.24 327.465 324.888 326.654 324.184C325.854 323.469 325.454 322.467 325.454 321.176C325.454 319.917 325.812 318.92 326.526 318.184C327.252 317.448 328.281 317.08 329.614 317.08C330.5 317.08 331.252 317.251 331.87 317.592C332.489 317.923 332.953 318.387 333.262 318.984C333.582 319.571 333.742 320.243 333.742 321V321.8H326.99C327.044 322.525 327.348 323.069 327.902 323.432C328.468 323.784 329.23 323.96 330.19 323.96C330.681 323.96 331.177 323.917 331.678 323.832C332.18 323.736 332.622 323.613 333.006 323.464V324.76C332.665 324.899 332.212 325.011 331.646 325.096C331.092 325.192 330.542 325.24 329.998 325.24ZM332.222 320.664C332.201 319.939 331.961 319.379 331.502 318.984C331.054 318.579 330.414 318.376 329.582 318.376C328.772 318.376 328.142 318.584 327.694 319C327.246 319.416 327.012 319.971 326.99 320.664H332.222ZM77.088 347.24C76.224 347.24 75.4613 347.08 74.8 346.76C74.1493 346.429 73.6373 345.96 73.264 345.352C72.9013 344.733 72.72 344.008 72.72 343.176C72.72 342.355 72.9013 341.635 73.264 341.016C73.6267 340.397 74.1387 339.923 74.8 339.592C75.4613 339.251 76.224 339.08 77.088 339.08C77.952 339.08 78.7147 339.251 79.376 339.592C80.0373 339.923 80.5493 340.397 80.912 341.016C81.2853 341.635 81.472 342.355 81.472 343.176C81.472 344.008 81.2853 344.733 80.912 345.352C80.5493 345.96 80.0373 346.429 79.376 346.76C78.7147 347.08 77.952 347.24 77.088 347.24ZM77.088 345.96C77.92 345.96 78.5813 345.704 79.072 345.192C79.5627 344.68 79.808 344.008 79.808 343.176C79.808 342.312 79.5627 341.629 79.072 341.128C78.5813 340.627 77.92 340.376 77.088 340.376C76.256 340.376 75.5947 340.627 75.104 341.128C74.6133 341.629 74.368 342.312 74.368 343.176C74.368 344.008 74.6133 344.68 75.104 345.192C75.5947 345.704 76.256 345.96 77.088 345.96ZM86.2835 347.24C85.2488 347.24 84.4648 346.963 83.9315 346.408C83.4088 345.853 83.1475 345.112 83.1475 344.184V339.32H84.7635V344.12C84.7635 345.347 85.3768 345.96 86.6035 345.96C87.6808 345.96 88.5235 345.475 89.1315 344.504V339.32H90.7475V347H89.1795V345.912C88.8168 346.371 88.3848 346.707 87.8835 346.92C87.3928 347.133 86.8595 347.24 86.2835 347.24ZM92.8213 339.32H94.3893V340.696C94.7093 340.227 95.1573 339.88 95.7333 339.656C96.3199 339.432 96.9973 339.32 97.7653 339.32V340.584C96.9439 340.584 96.2399 340.717 95.6533 340.984C95.0666 341.251 94.6613 341.672 94.4373 342.248V347H92.8213V339.32ZM109.278 335.816H110.846L115.31 347H113.646L112.526 344.216H107.582L106.494 347H104.814L109.278 335.816ZM112.078 342.856L110.062 337.624L108.046 342.856H112.078ZM117.071 335.816H118.719V347H117.071V335.816ZM130.872 335.816H132.44L136.904 347H135.24L134.12 344.216H129.176L128.088 347H126.408L130.872 335.816ZM133.672 342.856L131.656 337.624L129.64 342.856H133.672ZM140.935 347.24C140.401 347.24 139.836 347.171 139.239 347.032C138.641 346.904 138.172 346.728 137.831 346.504V345.128C138.247 345.373 138.727 345.576 139.271 345.736C139.815 345.885 140.343 345.96 140.855 345.96C141.431 345.96 141.852 345.891 142.119 345.752C142.385 345.613 142.519 345.389 142.519 345.08C142.519 344.845 142.455 344.659 142.327 344.52C142.209 344.371 142.001 344.237 141.703 344.12C141.415 344.003 140.977 343.864 140.391 343.704C139.761 343.523 139.26 343.341 138.887 343.16C138.524 342.968 138.247 342.728 138.055 342.44C137.873 342.152 137.783 341.779 137.783 341.32C137.783 340.584 138.071 340.029 138.647 339.656C139.233 339.272 140.017 339.08 140.999 339.08C141.511 339.08 142.012 339.128 142.503 339.224C142.993 339.32 143.388 339.453 143.687 339.624V340.968C143.377 340.787 142.993 340.643 142.535 340.536C142.087 340.429 141.628 340.376 141.159 340.376C140.593 340.376 140.161 340.445 139.863 340.584C139.564 340.723 139.414 340.968 139.414 341.32C139.414 341.544 139.479 341.725 139.607 341.864C139.735 342.003 139.937 342.125 140.215 342.232C140.503 342.328 140.956 342.456 141.575 342.616C142.545 342.883 143.217 343.197 143.591 343.56C143.975 343.923 144.167 344.424 144.167 345.064C144.167 345.725 143.895 346.253 143.351 346.648C142.807 347.043 142.001 347.24 140.935 347.24ZM148.356 347.24C147.823 347.24 147.258 347.171 146.66 347.032C146.063 346.904 145.594 346.728 145.252 346.504V345.128C145.668 345.373 146.148 345.576 146.692 345.736C147.236 345.885 147.764 345.96 148.276 345.96C148.852 345.96 149.274 345.891 149.54 345.752C149.807 345.613 149.94 345.389 149.94 345.08C149.94 344.845 149.876 344.659 149.748 344.52C149.631 344.371 149.423 344.237 149.124 344.12C148.836 344.003 148.399 343.864 147.812 343.704C147.183 343.523 146.682 343.341 146.308 343.16C145.946 342.968 145.668 342.728 145.476 342.44C145.295 342.152 145.204 341.779 145.204 341.32C145.204 340.584 145.492 340.029 146.068 339.656C146.655 339.272 147.439 339.08 148.42 339.08C148.932 339.08 149.434 339.128 149.924 339.224C150.415 339.32 150.81 339.453 151.108 339.624V340.968C150.799 340.787 150.415 340.643 149.956 340.536C149.508 340.429 149.05 340.376 148.58 340.376C148.015 340.376 147.583 340.445 147.284 340.584C146.986 340.723 146.836 340.968 146.836 341.32C146.836 341.544 146.9 341.725 147.028 341.864C147.156 342.003 147.359 342.125 147.636 342.232C147.924 342.328 148.378 342.456 148.996 342.616C149.967 342.883 150.639 343.197 151.012 343.56C151.396 343.923 151.588 344.424 151.588 345.064C151.588 345.725 151.316 346.253 150.772 346.648C150.228 347.043 149.423 347.24 148.356 347.24ZM154.297 337.816C154.03 337.816 153.806 337.725 153.625 337.544C153.443 337.363 153.353 337.139 153.353 336.872C153.353 336.605 153.443 336.381 153.625 336.2C153.806 336.019 154.03 335.928 154.297 335.928C154.574 335.928 154.803 336.019 154.985 336.2C155.177 336.381 155.273 336.605 155.273 336.872C155.273 337.139 155.177 337.363 154.985 337.544C154.803 337.725 154.574 337.816 154.297 337.816ZM153.481 339.32H155.129V347H153.481V339.32ZM160.185 347.24C159.651 347.24 159.086 347.171 158.489 347.032C157.891 346.904 157.422 346.728 157.081 346.504V345.128C157.497 345.373 157.977 345.576 158.521 345.736C159.065 345.885 159.593 345.96 160.105 345.96C160.681 345.96 161.102 345.891 161.369 345.752C161.635 345.613 161.769 345.389 161.769 345.08C161.769 344.845 161.705 344.659 161.577 344.52C161.459 344.371 161.251 344.237 160.953 344.12C160.665 344.003 160.227 343.864 159.641 343.704C159.011 343.523 158.51 343.341 158.137 343.16C157.774 342.968 157.497 342.728 157.305 342.44C157.123 342.152 157.033 341.779 157.033 341.32C157.033 340.584 157.321 340.029 157.897 339.656C158.483 339.272 159.267 339.08 160.249 339.08C160.761 339.08 161.262 339.128 161.753 339.224C162.243 339.32 162.638 339.453 162.937 339.624V340.968C162.627 340.787 162.243 340.643 161.785 340.536C161.337 340.429 160.878 340.376 160.409 340.376C159.843 340.376 159.411 340.445 159.113 340.584C158.814 340.723 158.664 340.968 158.664 341.32C158.664 341.544 158.729 341.725 158.857 341.864C158.985 342.003 159.187 342.125 159.465 342.232C159.753 342.328 160.206 342.456 160.825 342.616C161.795 342.883 162.467 343.197 162.841 343.56C163.225 343.923 163.417 344.424 163.417 345.064C163.417 345.725 163.145 346.253 162.601 346.648C162.057 347.043 161.251 347.24 160.185 347.24ZM167.906 347.24C167.128 347.24 166.525 347.016 166.098 346.568C165.682 346.12 165.474 345.485 165.474 344.664V340.568H164.306V339.32H165.474V337.016H167.106V339.32H168.994V340.568H167.106V344.552C167.106 345.064 167.202 345.427 167.394 345.64C167.597 345.853 167.96 345.96 168.482 345.96C168.792 345.96 169.101 345.891 169.41 345.752V347.032C169.005 347.171 168.504 347.24 167.906 347.24ZM173.448 347.24C172.52 347.24 171.774 347.005 171.208 346.536C170.654 346.056 170.376 345.411 170.376 344.6C170.376 343.747 170.643 343.091 171.176 342.632C171.72 342.163 172.488 341.928 173.48 341.928C174.536 341.928 175.432 342.141 176.168 342.568V342.168C176.168 341.56 175.982 341.112 175.608 340.824C175.246 340.525 174.67 340.376 173.88 340.376C173.411 340.376 172.952 340.424 172.504 340.52C172.067 340.605 171.672 340.728 171.32 340.888V339.576C171.64 339.427 172.056 339.309 172.568 339.224C173.08 339.128 173.576 339.08 174.056 339.08C175.326 339.08 176.264 339.363 176.872 339.928C177.491 340.483 177.8 341.256 177.8 342.248V347H176.28V346.136C175.95 346.499 175.555 346.776 175.096 346.968C174.648 347.149 174.099 347.24 173.448 347.24ZM173.848 346.008C174.36 346.008 174.824 345.907 175.24 345.704C175.656 345.501 175.966 345.219 176.168 344.856V343.816C175.475 343.368 174.702 343.144 173.848 343.144C173.23 343.144 172.766 343.267 172.456 343.512C172.158 343.747 172.008 344.109 172.008 344.6C172.008 345.539 172.622 346.008 173.848 346.008ZM179.806 339.32H181.374V340.424C181.736 339.965 182.179 339.629 182.702 339.416C183.235 339.192 183.79 339.08 184.366 339.08C185.39 339.08 186.152 339.352 186.654 339.896C187.155 340.44 187.406 341.171 187.406 342.088V347H185.79V342.248C185.79 341 185.192 340.376 183.998 340.376C183.486 340.376 183.006 340.499 182.558 340.744C182.12 340.979 181.742 341.341 181.422 341.832V347H179.806V339.32ZM192.359 347.24C191.581 347.24 190.978 347.016 190.551 346.568C190.135 346.12 189.927 345.485 189.927 344.664V340.568H188.759V339.32H189.927V337.016H191.559V339.32H193.447V340.568H191.559V344.552C191.559 345.064 191.655 345.427 191.847 345.64C192.05 345.853 192.413 345.96 192.935 345.96C193.245 345.96 193.554 345.891 193.863 345.752V347.032C193.458 347.171 192.957 347.24 192.359 347.24ZM195.714 335.576H197.314L196.049 338.696H194.658L195.714 335.576ZM201.341 347.24C200.807 347.24 200.242 347.171 199.645 347.032C199.047 346.904 198.578 346.728 198.237 346.504V345.128C198.653 345.373 199.133 345.576 199.677 345.736C200.221 345.885 200.749 345.96 201.261 345.96C201.837 345.96 202.258 345.891 202.525 345.752C202.791 345.613 202.925 345.389 202.925 345.08C202.925 344.845 202.861 344.659 202.733 344.52C202.615 344.371 202.407 344.237 202.109 344.12C201.821 344.003 201.383 343.864 200.797 343.704C200.167 343.523 199.666 343.341 199.293 343.16C198.93 342.968 198.653 342.728 198.461 342.44C198.279 342.152 198.189 341.779 198.189 341.32C198.189 340.584 198.477 340.029 199.053 339.656C199.639 339.272 200.423 339.08 201.405 339.08C201.917 339.08 202.418 339.128 202.909 339.224C203.399 339.32 203.794 339.453 204.093 339.624V340.968C203.783 340.787 203.399 340.643 202.941 340.536C202.493 340.429 202.034 340.376 201.565 340.376C200.999 340.376 200.567 340.445 200.269 340.584C199.97 340.723 199.821 340.968 199.821 341.32C199.821 341.544 199.885 341.725 200.013 341.864C200.141 342.003 200.343 342.125 200.621 342.232C200.909 342.328 201.362 342.456 201.981 342.616C202.951 342.883 203.623 343.197 203.997 343.56C204.381 343.923 204.573 344.424 204.573 345.064C204.573 345.725 204.301 346.253 203.757 346.648C203.213 347.043 202.407 347.24 201.341 347.24ZM215.091 347.24C214.557 347.24 213.992 347.171 213.395 347.032C212.797 346.904 212.328 346.728 211.987 346.504V345.128C212.403 345.373 212.883 345.576 213.427 345.736C213.971 345.885 214.499 345.96 215.011 345.96C215.587 345.96 216.008 345.891 216.275 345.752C216.541 345.613 216.675 345.389 216.675 345.08C216.675 344.845 216.611 344.659 216.483 344.52C216.365 344.371 216.157 344.237 215.859 344.12C215.571 344.003 215.133 343.864 214.547 343.704C213.917 343.523 213.416 343.341 213.043 343.16C212.68 342.968 212.403 342.728 212.211 342.44C212.029 342.152 211.939 341.779 211.939 341.32C211.939 340.584 212.227 340.029 212.803 339.656C213.389 339.272 214.173 339.08 215.155 339.08C215.667 339.08 216.168 339.128 216.659 339.224C217.149 339.32 217.544 339.453 217.843 339.624V340.968C217.533 340.787 217.149 340.643 216.691 340.536C216.243 340.429 215.784 340.376 215.315 340.376C214.749 340.376 214.317 340.445 214.019 340.584C213.72 340.723 213.571 340.968 213.571 341.32C213.571 341.544 213.635 341.725 213.763 341.864C213.891 342.003 214.093 342.125 214.371 342.232C214.659 342.328 215.112 342.456 215.731 342.616C216.701 342.883 217.373 343.197 217.747 343.56C218.131 343.923 218.323 344.424 218.323 345.064C218.323 345.725 218.051 346.253 217.507 346.648C216.963 347.043 216.157 347.24 215.091 347.24ZM223.143 347.24C222.108 347.24 221.324 346.963 220.791 346.408C220.268 345.853 220.007 345.112 220.007 344.184V339.32H221.623V344.12C221.623 345.347 222.236 345.96 223.463 345.96C224.54 345.96 225.383 345.475 225.991 344.504V339.32H227.607V347H226.039V345.912C225.676 346.371 225.244 346.707 224.743 346.92C224.252 347.133 223.719 347.24 223.143 347.24ZM229.681 339.32H231.249V340.456C232.038 339.539 233.105 339.08 234.449 339.08C235.217 339.08 235.905 339.251 236.513 339.592C237.131 339.933 237.611 340.413 237.953 341.032C238.305 341.64 238.481 342.349 238.481 343.16C238.481 343.96 238.305 344.669 237.953 345.288C237.611 345.907 237.137 346.387 236.529 346.728C235.921 347.069 235.227 347.24 234.449 347.24C233.809 347.24 233.211 347.133 232.657 346.92C232.102 346.707 231.649 346.392 231.297 345.976V350.504H229.681V339.32ZM234.081 345.96C234.603 345.96 235.073 345.848 235.489 345.624C235.915 345.389 236.246 345.059 236.481 344.632C236.726 344.205 236.849 343.715 236.849 343.16C236.849 342.605 236.726 342.12 236.481 341.704C236.246 341.277 235.915 340.952 235.489 340.728C235.073 340.493 234.603 340.376 234.081 340.376C233.43 340.376 232.854 340.547 232.353 340.888C231.862 341.229 231.51 341.699 231.297 342.296V344.024C231.478 344.611 231.825 345.08 232.337 345.432C232.849 345.784 233.43 345.96 234.081 345.96ZM240.243 339.32H241.811V340.456C242.6 339.539 243.667 339.08 245.011 339.08C245.779 339.08 246.467 339.251 247.075 339.592C247.694 339.933 248.174 340.413 248.515 341.032C248.867 341.64 249.043 342.349 249.043 343.16C249.043 343.96 248.867 344.669 248.515 345.288C248.174 345.907 247.699 346.387 247.091 346.728C246.483 347.069 245.79 347.24 245.011 347.24C244.371 347.24 243.774 347.133 243.219 346.92C242.664 346.707 242.211 346.392 241.859 345.976V350.504H240.243V339.32ZM244.643 345.96C245.166 345.96 245.635 345.848 246.051 345.624C246.478 345.389 246.808 345.059 247.043 344.632C247.288 344.205 247.411 343.715 247.411 343.16C247.411 342.605 247.288 342.12 247.043 341.704C246.808 341.277 246.478 340.952 246.051 340.728C245.635 340.493 245.166 340.376 244.643 340.376C243.992 340.376 243.416 340.547 242.915 340.888C242.424 341.229 242.072 341.699 241.859 342.296V344.024C242.04 344.611 242.387 345.08 242.899 345.432C243.411 345.784 243.992 345.96 244.643 345.96ZM254.447 347.24C253.583 347.24 252.821 347.08 252.159 346.76C251.509 346.429 250.997 345.96 250.623 345.352C250.261 344.733 250.079 344.008 250.079 343.176C250.079 342.355 250.261 341.635 250.623 341.016C250.986 340.397 251.498 339.923 252.159 339.592C252.821 339.251 253.583 339.08 254.447 339.08C255.311 339.08 256.074 339.251 256.735 339.592C257.397 339.923 257.909 340.397 258.271 341.016C258.645 341.635 258.831 342.355 258.831 343.176C258.831 344.008 258.645 344.733 258.271 345.352C257.909 345.96 257.397 346.429 256.735 346.76C256.074 347.08 255.311 347.24 254.447 347.24ZM254.447 345.96C255.279 345.96 255.941 345.704 256.431 345.192C256.922 344.68 257.167 344.008 257.167 343.176C257.167 342.312 256.922 341.629 256.431 341.128C255.941 340.627 255.279 340.376 254.447 340.376C253.615 340.376 252.954 340.627 252.463 341.128C251.973 341.629 251.727 342.312 251.727 343.176C251.727 344.008 251.973 344.68 252.463 345.192C252.954 345.704 253.615 345.96 254.447 345.96ZM260.587 339.32H262.155V340.696C262.475 340.227 262.923 339.88 263.499 339.656C264.086 339.432 264.763 339.32 265.531 339.32V340.584C264.71 340.584 264.006 340.717 263.419 340.984C262.832 341.251 262.427 341.672 262.203 342.248V347H260.587V339.32ZM269.938 347.24C269.159 347.24 268.556 347.016 268.13 346.568C267.714 346.12 267.506 345.485 267.506 344.664V340.568H266.338V339.32H267.506V337.016H269.138V339.32H271.026V340.568H269.138V344.552C269.138 345.064 269.234 345.427 269.426 345.64C269.628 345.853 269.991 345.96 270.514 345.96C270.823 345.96 271.132 345.891 271.442 345.752V347.032C271.036 347.171 270.535 347.24 269.938 347.24ZM281.636 347.24C280.708 347.24 279.961 347.005 279.396 346.536C278.841 346.056 278.564 345.411 278.564 344.6C278.564 343.747 278.83 343.091 279.364 342.632C279.908 342.163 280.676 341.928 281.668 341.928C282.724 341.928 283.62 342.141 284.356 342.568V342.168C284.356 341.56 284.169 341.112 283.796 340.824C283.433 340.525 282.857 340.376 282.068 340.376C281.598 340.376 281.14 340.424 280.692 340.52C280.254 340.605 279.86 340.728 279.508 340.888V339.576C279.828 339.427 280.244 339.309 280.756 339.224C281.268 339.128 281.764 339.08 282.244 339.08C283.513 339.08 284.452 339.363 285.06 339.928C285.678 340.483 285.988 341.256 285.988 342.248V347H284.468V346.136C284.137 346.499 283.742 346.776 283.284 346.968C282.836 347.149 282.286 347.24 281.636 347.24ZM282.036 346.008C282.548 346.008 283.012 345.907 283.428 345.704C283.844 345.501 284.153 345.219 284.356 344.856V343.816C283.662 343.368 282.889 343.144 282.036 343.144C281.417 343.144 280.953 343.267 280.644 343.512C280.345 343.747 280.196 344.109 280.196 344.6C280.196 345.539 280.809 346.008 282.036 346.008ZM287.993 339.32H289.561V340.424C289.924 339.965 290.366 339.629 290.889 339.416C291.422 339.192 291.977 339.08 292.553 339.08C293.577 339.08 294.34 339.352 294.841 339.896C295.342 340.44 295.593 341.171 295.593 342.088V347H293.977V342.248C293.977 341 293.38 340.376 292.185 340.376C291.673 340.376 291.193 340.499 290.745 340.744C290.308 340.979 289.929 341.341 289.609 341.832V347H287.993V339.32ZM301.299 347.24C300.531 347.24 299.838 347.075 299.219 346.744C298.611 346.403 298.131 345.928 297.779 345.32C297.438 344.701 297.267 343.987 297.267 343.176C297.267 342.376 297.438 341.667 297.779 341.048C298.131 340.429 298.611 339.949 299.219 339.608C299.838 339.256 300.531 339.08 301.299 339.08C302.686 339.08 303.736 339.501 304.451 340.344V335.176H306.067V347H304.499V345.88C304.072 346.349 303.603 346.696 303.091 346.92C302.59 347.133 301.992 347.24 301.299 347.24ZM301.667 345.96C302.328 345.96 302.904 345.789 303.395 345.448C303.896 345.096 304.248 344.627 304.451 344.04V342.312C304.27 341.725 303.923 341.256 303.411 340.904C302.91 340.552 302.328 340.376 301.667 340.376C301.144 340.376 300.67 340.493 300.243 340.728C299.827 340.963 299.496 341.293 299.251 341.72C299.016 342.147 298.899 342.632 298.899 343.176C298.899 343.72 299.016 344.205 299.251 344.632C299.496 345.059 299.827 345.389 300.243 345.624C300.67 345.848 301.144 345.96 301.667 345.96ZM73.04 361.32H74.608V362.696C74.928 362.227 75.376 361.88 75.952 361.656C76.5387 361.432 77.216 361.32 77.984 361.32V362.584C77.1627 362.584 76.4587 362.717 75.872 362.984C75.2853 363.251 74.88 363.672 74.656 364.248V369H73.04V361.32ZM83.1703 369.24C81.7516 369.24 80.6369 368.888 79.8263 368.184C79.0263 367.469 78.6263 366.467 78.6263 365.176C78.6263 363.917 78.9836 362.92 79.6983 362.184C80.4236 361.448 81.4529 361.08 82.7863 361.08C83.6716 361.08 84.4236 361.251 85.0423 361.592C85.6609 361.923 86.1249 362.387 86.4343 362.984C86.7543 363.571 86.9143 364.243 86.9143 365V365.8H80.1623C80.2156 366.525 80.5196 367.069 81.0743 367.432C81.6396 367.784 82.4023 367.96 83.3623 367.96C83.8529 367.96 84.3489 367.917 84.8503 367.832C85.3516 367.736 85.7943 367.613 86.1783 367.464V368.76C85.8369 368.899 85.3836 369.011 84.8183 369.096C84.2636 369.192 83.7143 369.24 83.1703 369.24ZM85.3943 364.664C85.3729 363.939 85.1329 363.379 84.6743 362.984C84.2263 362.579 83.5863 362.376 82.7543 362.376C81.9436 362.376 81.3143 362.584 80.8663 363C80.4183 363.416 80.1836 363.971 80.1623 364.664H85.3943ZM91.5126 369.24C90.9793 369.24 90.414 369.171 89.8166 369.032C89.2193 368.904 88.75 368.728 88.4086 368.504V367.128C88.8246 367.373 89.3046 367.576 89.8486 367.736C90.3926 367.885 90.9206 367.96 91.4326 367.96C92.0086 367.96 92.43 367.891 92.6966 367.752C92.9633 367.613 93.0966 367.389 93.0966 367.08C93.0966 366.845 93.0326 366.659 92.9046 366.52C92.7873 366.371 92.5793 366.237 92.2806 366.12C91.9926 366.003 91.5553 365.864 90.9686 365.704C90.3393 365.523 89.838 365.341 89.4646 365.16C89.102 364.968 88.8246 364.728 88.6326 364.44C88.4513 364.152 88.3606 363.779 88.3606 363.32C88.3606 362.584 88.6486 362.029 89.2246 361.656C89.8113 361.272 90.5953 361.08 91.5766 361.08C92.0886 361.08 92.59 361.128 93.0806 361.224C93.5713 361.32 93.966 361.453 94.2646 361.624V362.968C93.9553 362.787 93.5713 362.643 93.1126 362.536C92.6646 362.429 92.206 362.376 91.7366 362.376C91.1713 362.376 90.7393 362.445 90.4406 362.584C90.142 362.723 89.9926 362.968 89.9926 363.32C89.9926 363.544 90.0566 363.725 90.1846 363.864C90.3126 364.003 90.5153 364.125 90.7926 364.232C91.0806 364.328 91.534 364.456 92.1526 364.616C93.1233 364.883 93.7953 365.197 94.1686 365.56C94.5526 365.923 94.7446 366.424 94.7446 367.064C94.7446 367.725 94.4726 368.253 93.9286 368.648C93.3846 369.043 92.5793 369.24 91.5126 369.24ZM97.4528 359.816C97.1861 359.816 96.9621 359.725 96.7808 359.544C96.5994 359.363 96.5088 359.139 96.5088 358.872C96.5088 358.605 96.5994 358.381 96.7808 358.2C96.9621 358.019 97.1861 357.928 97.4528 357.928C97.7301 357.928 97.9594 358.019 98.1408 358.2C98.3328 358.381 98.4288 358.605 98.4288 358.872C98.4288 359.139 98.3328 359.363 98.1408 359.544C97.9594 359.725 97.7301 359.816 97.4528 359.816ZM96.6368 361.32H98.2848V369H96.6368V361.32ZM103.341 369.24C102.807 369.24 102.242 369.171 101.645 369.032C101.047 368.904 100.578 368.728 100.237 368.504V367.128C100.653 367.373 101.133 367.576 101.677 367.736C102.221 367.885 102.749 367.96 103.261 367.96C103.837 367.96 104.258 367.891 104.525 367.752C104.791 367.613 104.925 367.389 104.925 367.08C104.925 366.845 104.861 366.659 104.733 366.52C104.615 366.371 104.407 366.237 104.109 366.12C103.821 366.003 103.383 365.864 102.797 365.704C102.167 365.523 101.666 365.341 101.293 365.16C100.93 364.968 100.653 364.728 100.461 364.44C100.279 364.152 100.189 363.779 100.189 363.32C100.189 362.584 100.477 362.029 101.053 361.656C101.639 361.272 102.423 361.08 103.405 361.08C103.917 361.08 104.418 361.128 104.909 361.224C105.399 361.32 105.794 361.453 106.093 361.624V362.968C105.783 362.787 105.399 362.643 104.941 362.536C104.493 362.429 104.034 362.376 103.565 362.376C102.999 362.376 102.567 362.445 102.269 362.584C101.97 362.723 101.821 362.968 101.821 363.32C101.821 363.544 101.885 363.725 102.013 363.864C102.141 364.003 102.343 364.125 102.621 364.232C102.909 364.328 103.362 364.456 103.981 364.616C104.951 364.883 105.623 365.197 105.997 365.56C106.381 365.923 106.573 366.424 106.573 367.064C106.573 367.725 106.301 368.253 105.757 368.648C105.213 369.043 104.407 369.24 103.341 369.24ZM111.062 369.24C110.284 369.24 109.681 369.016 109.255 368.568C108.839 368.12 108.631 367.485 108.631 366.664V362.568H107.463V361.32H108.631V359.016H110.263V361.32H112.151V362.568H110.263V366.552C110.263 367.064 110.359 367.427 110.551 367.64C110.753 367.853 111.116 367.96 111.639 367.96C111.948 367.96 112.257 367.891 112.567 367.752V369.032C112.161 369.171 111.66 369.24 111.062 369.24ZM116.605 369.24C115.677 369.24 114.93 369.005 114.365 368.536C113.81 368.056 113.533 367.411 113.533 366.6C113.533 365.747 113.799 365.091 114.333 364.632C114.877 364.163 115.645 363.928 116.637 363.928C117.693 363.928 118.589 364.141 119.325 364.568V364.168C119.325 363.56 119.138 363.112 118.765 362.824C118.402 362.525 117.826 362.376 117.036 362.376C116.567 362.376 116.109 362.424 115.661 362.52C115.223 362.605 114.829 362.728 114.477 362.888V361.576C114.797 361.427 115.213 361.309 115.725 361.224C116.237 361.128 116.733 361.08 117.213 361.08C118.482 361.08 119.421 361.363 120.029 361.928C120.647 362.483 120.957 363.256 120.957 364.248V369H119.437V368.136C119.106 368.499 118.711 368.776 118.253 368.968C117.805 369.149 117.255 369.24 116.605 369.24ZM117.005 368.008C117.517 368.008 117.981 367.907 118.397 367.704C118.813 367.501 119.122 367.219 119.325 366.856V365.816C118.631 365.368 117.858 365.144 117.005 365.144C116.386 365.144 115.922 365.267 115.613 365.512C115.314 365.747 115.164 366.109 115.164 366.6C115.164 367.539 115.778 368.008 117.005 368.008ZM122.962 361.32H124.53V362.424C124.893 361.965 125.335 361.629 125.858 361.416C126.391 361.192 126.946 361.08 127.522 361.08C128.546 361.08 129.309 361.352 129.81 361.896C130.311 362.44 130.562 363.171 130.562 364.088V369H128.946V364.248C128.946 363 128.349 362.376 127.154 362.376C126.642 362.376 126.162 362.499 125.714 362.744C125.277 362.979 124.898 363.341 124.578 363.832V369H122.962V361.32ZM136.604 369.24C135.75 369.24 134.993 369.08 134.332 368.76C133.67 368.44 133.153 367.976 132.78 367.368C132.417 366.749 132.236 366.019 132.236 365.176C132.236 364.333 132.417 363.608 132.78 363C133.153 362.381 133.67 361.907 134.332 361.576C135.004 361.245 135.772 361.08 136.636 361.08C137.809 361.08 138.748 361.309 139.452 361.768V363.096C138.758 362.616 137.873 362.376 136.796 362.376C135.921 362.376 135.212 362.616 134.668 363.096C134.134 363.565 133.868 364.259 133.868 365.176C133.868 366.093 134.134 366.787 134.668 367.256C135.201 367.725 135.9 367.96 136.764 367.96C137.841 367.96 138.769 367.704 139.548 367.192V368.504C139.174 368.76 138.748 368.947 138.268 369.064C137.798 369.181 137.244 369.24 136.604 369.24ZM145.53 369.24C144.111 369.24 142.996 368.888 142.186 368.184C141.386 367.469 140.986 366.467 140.986 365.176C140.986 363.917 141.343 362.92 142.058 362.184C142.783 361.448 143.812 361.08 145.146 361.08C146.031 361.08 146.783 361.251 147.402 361.592C148.02 361.923 148.484 362.387 148.794 362.984C149.114 363.571 149.274 364.243 149.274 365V365.8H142.522C142.575 366.525 142.879 367.069 143.434 367.432C143.999 367.784 144.762 367.96 145.722 367.96C146.212 367.96 146.708 367.917 147.21 367.832C147.711 367.736 148.154 367.613 148.538 367.464V368.76C148.196 368.899 147.743 369.011 147.178 369.096C146.623 369.192 146.074 369.24 145.53 369.24ZM147.754 364.664C147.732 363.939 147.492 363.379 147.034 362.984C146.586 362.579 145.946 362.376 145.114 362.376C144.303 362.376 143.674 362.584 143.226 363C142.778 363.416 142.543 363.971 142.522 364.664H147.754ZM156.962 357.176H158.578V369H156.962V357.176ZM161.609 359.816C161.342 359.816 161.118 359.725 160.937 359.544C160.756 359.363 160.665 359.139 160.665 358.872C160.665 358.605 160.756 358.381 160.937 358.2C161.118 358.019 161.342 357.928 161.609 357.928C161.886 357.928 162.116 358.019 162.297 358.2C162.489 358.381 162.585 358.605 162.585 358.872C162.585 359.139 162.489 359.363 162.297 359.544C162.116 359.725 161.886 359.816 161.609 359.816ZM160.793 361.32H162.441V369H160.793V361.32ZM164.665 361.32H166.233V362.424C166.596 361.965 167.038 361.629 167.561 361.416C168.094 361.192 168.649 361.08 169.225 361.08C170.249 361.08 171.012 361.352 171.513 361.896C172.014 362.44 172.265 363.171 172.265 364.088V369H170.649V364.248C170.649 363 170.052 362.376 168.857 362.376C168.345 362.376 167.865 362.499 167.417 362.744C166.98 362.979 166.601 363.341 166.281 363.832V369H164.665V361.32ZM178.483 369.24C177.064 369.24 175.949 368.888 175.139 368.184C174.339 367.469 173.939 366.467 173.939 365.176C173.939 363.917 174.296 362.92 175.011 362.184C175.736 361.448 176.765 361.08 178.099 361.08C178.984 361.08 179.736 361.251 180.355 361.592C180.973 361.923 181.437 362.387 181.747 362.984C182.067 363.571 182.227 364.243 182.227 365V365.8H175.475C175.528 366.525 175.832 367.069 176.387 367.432C176.952 367.784 177.715 367.96 178.675 367.96C179.165 367.96 179.661 367.917 180.163 367.832C180.664 367.736 181.107 367.613 181.491 367.464V368.76C181.149 368.899 180.696 369.011 180.131 369.096C179.576 369.192 179.027 369.24 178.483 369.24ZM180.707 364.664C180.685 363.939 180.445 363.379 179.987 362.984C179.539 362.579 178.899 362.376 178.067 362.376C177.256 362.376 176.627 362.584 176.179 363C175.731 363.416 175.496 363.971 175.475 364.664H180.707ZM186.825 369.24C186.292 369.24 185.726 369.171 185.129 369.032C184.532 368.904 184.062 368.728 183.721 368.504V367.128C184.137 367.373 184.617 367.576 185.161 367.736C185.705 367.885 186.233 367.96 186.745 367.96C187.321 367.96 187.742 367.891 188.009 367.752C188.276 367.613 188.409 367.389 188.409 367.08C188.409 366.845 188.345 366.659 188.217 366.52C188.1 366.371 187.892 366.237 187.593 366.12C187.305 366.003 186.868 365.864 186.281 365.704C185.652 365.523 185.15 365.341 184.777 365.16C184.414 364.968 184.137 364.728 183.945 364.44C183.764 364.152 183.673 363.779 183.673 363.32C183.673 362.584 183.961 362.029 184.537 361.656C185.124 361.272 185.908 361.08 186.889 361.08C187.401 361.08 187.902 361.128 188.393 361.224C188.884 361.32 189.278 361.453 189.577 361.624V362.968C189.268 362.787 188.884 362.643 188.425 362.536C187.977 362.429 187.518 362.376 187.049 362.376C186.484 362.376 186.052 362.445 185.753 362.584C185.454 362.723 185.305 362.968 185.305 363.32C185.305 363.544 185.369 363.725 185.497 363.864C185.625 364.003 185.828 364.125 186.105 364.232C186.393 364.328 186.846 364.456 187.465 364.616C188.436 364.883 189.108 365.197 189.481 365.56C189.865 365.923 190.057 366.424 190.057 367.064C190.057 367.725 189.785 368.253 189.241 368.648C188.697 369.043 187.892 369.24 186.825 369.24ZM198.271 362.568H197.103V361.32H198.271V359.816C198.271 358.931 198.522 358.259 199.023 357.8C199.524 357.331 200.196 357.096 201.039 357.096C201.476 357.096 201.887 357.16 202.271 357.288V358.632C201.972 358.493 201.663 358.424 201.343 358.424C200.842 358.424 200.474 358.547 200.239 358.792C200.004 359.027 199.887 359.4 199.887 359.912V361.32H201.807V362.568H199.887V369H198.271V362.568ZM206.869 369.24C206.005 369.24 205.243 369.08 204.581 368.76C203.931 368.429 203.419 367.96 203.045 367.352C202.683 366.733 202.501 366.008 202.501 365.176C202.501 364.355 202.683 363.635 203.045 363.016C203.408 362.397 203.92 361.923 204.581 361.592C205.243 361.251 206.005 361.08 206.869 361.08C207.733 361.08 208.496 361.251 209.157 361.592C209.819 361.923 210.331 362.397 210.693 363.016C211.067 363.635 211.253 364.355 211.253 365.176C211.253 366.008 211.067 366.733 210.693 367.352C210.331 367.96 209.819 368.429 209.157 368.76C208.496 369.08 207.733 369.24 206.869 369.24ZM206.869 367.96C207.701 367.96 208.363 367.704 208.853 367.192C209.344 366.68 209.589 366.008 209.589 365.176C209.589 364.312 209.344 363.629 208.853 363.128C208.363 362.627 207.701 362.376 206.869 362.376C206.037 362.376 205.376 362.627 204.885 363.128C204.395 363.629 204.149 364.312 204.149 365.176C204.149 366.008 204.395 366.68 204.885 367.192C205.376 367.704 206.037 367.96 206.869 367.96ZM213.009 361.32H214.577V362.696C214.897 362.227 215.345 361.88 215.921 361.656C216.507 361.432 217.185 361.32 217.953 361.32V362.584C217.131 362.584 216.427 362.717 215.841 362.984C215.254 363.251 214.849 363.672 214.625 364.248V369H213.009V361.32ZM225.321 357.816H230.457C231.449 357.816 232.217 358.072 232.761 358.584C233.305 359.096 233.577 359.843 233.577 360.824C233.577 361.379 233.444 361.869 233.177 362.296C232.921 362.712 232.58 363.021 232.153 363.224C233.348 363.576 233.945 364.445 233.945 365.832C233.945 366.483 233.801 367.048 233.513 367.528C233.236 367.997 232.852 368.36 232.361 368.616C231.871 368.872 231.327 369 230.729 369H225.321V357.816ZM230.249 362.616C230.772 362.616 231.183 362.472 231.481 362.184C231.78 361.896 231.929 361.469 231.929 360.904C231.929 360.253 231.78 359.8 231.481 359.544C231.193 359.277 230.745 359.144 230.137 359.144H226.953V362.616H230.249ZM230.361 367.672C230.991 367.672 231.471 367.533 231.801 367.256C232.132 366.979 232.297 366.504 232.297 365.832C232.297 365.16 232.121 364.68 231.769 364.392C231.428 364.104 230.911 363.96 230.217 363.96H226.953V367.672H230.361ZM238.138 359.192H234.666V357.816H243.258V359.192H239.786V369H238.138V359.192ZM249.421 369.24C248.269 369.24 247.245 369 246.349 368.52C245.453 368.04 244.755 367.363 244.253 366.488C243.752 365.603 243.501 364.579 243.501 363.416C243.501 362.253 243.752 361.229 244.253 360.344C244.755 359.459 245.453 358.776 246.349 358.296C247.245 357.816 248.269 357.576 249.421 357.576C250.957 357.576 252.243 357.965 253.277 358.744V360.312C252.349 359.491 251.112 359.08 249.565 359.08C248.701 359.08 247.933 359.256 247.261 359.608C246.6 359.96 246.083 360.467 245.709 361.128C245.336 361.779 245.149 362.541 245.149 363.416C245.149 364.291 245.336 365.059 245.709 365.72C246.093 366.381 246.616 366.888 247.277 367.24C247.949 367.592 248.712 367.768 249.565 367.768C250.355 367.768 251.059 367.667 251.677 367.464C252.307 367.251 252.888 366.915 253.421 366.456V368.04C252.461 368.84 251.128 369.24 249.421 369.24ZM255.613 369C255.399 369 255.218 368.931 255.069 368.792C254.93 368.643 254.861 368.461 254.861 368.248C254.861 368.035 254.93 367.853 255.069 367.704C255.218 367.555 255.399 367.48 255.613 367.48C255.826 367.48 256.007 367.555 256.157 367.704C256.306 367.853 256.381 368.035 256.381 368.248C256.381 368.461 256.306 368.643 256.157 368.792C256.007 368.931 255.826 369 255.613 369Z" fill="#FAFAF9"/>
<ellipse cx="48.5" cy="330.244" rx="10.5" ry="11.2435" fill="#D9D9D9"/>
<path d="M43 329.708L46.5 333.456L54 325.425" stroke="url(#paint2_linear_863_431)" stroke-width="2"/>
<path d="M75.136 235.576L72.72 237.32V235.768L75.36 233.816H76.768V245H75.136V235.576ZM83.6885 245.24C82.7285 245.24 81.8965 245.005 81.1925 244.536C80.4992 244.067 79.9658 243.395 79.5925 242.52C79.2192 241.645 79.0325 240.611 79.0325 239.416C79.0325 238.221 79.2138 237.187 79.5765 236.312C79.9498 235.427 80.4832 234.749 81.1765 234.28C81.8805 233.811 82.7178 233.576 83.6885 233.576C84.6592 233.576 85.4912 233.811 86.1845 234.28C86.8885 234.749 87.4218 235.427 87.7845 236.312C88.1578 237.187 88.3445 238.221 88.3445 239.416C88.3445 240.611 88.1578 241.645 87.7845 242.52C87.4112 243.395 86.8725 244.067 86.1685 244.536C85.4752 245.005 84.6485 245.24 83.6885 245.24ZM83.6885 243.8C84.6378 243.8 85.3792 243.411 85.9125 242.632C86.4565 241.843 86.7285 240.776 86.7285 239.432C86.7285 238.088 86.4618 237.021 85.9285 236.232C85.3952 235.443 84.6485 235.048 83.6885 235.048C82.7285 235.048 81.9818 235.443 81.4485 236.232C80.9152 237.021 80.6485 238.088 80.6485 239.432C80.6485 240.776 80.9152 241.843 81.4485 242.632C81.9925 243.411 82.7392 243.8 83.6885 243.8ZM93.2585 239.448C92.7252 239.448 92.2345 239.32 91.7865 239.064C91.3385 238.797 90.9812 238.44 90.7145 237.992C90.4585 237.544 90.3305 237.053 90.3305 236.52C90.3305 235.987 90.4585 235.496 90.7145 235.048C90.9812 234.589 91.3385 234.232 91.7865 233.976C92.2345 233.709 92.7252 233.576 93.2585 233.576C93.7918 233.576 94.2825 233.709 94.7305 233.976C95.1892 234.232 95.5465 234.589 95.8025 235.048C96.0692 235.496 96.2025 235.987 96.2025 236.52C96.2025 237.053 96.0692 237.544 95.8025 237.992C95.5465 238.44 95.1892 238.797 94.7305 239.064C94.2825 239.32 93.7918 239.448 93.2585 239.448ZM98.9705 233.816H100.555L94.3625 245H92.7785L98.9705 233.816ZM93.2585 238.264C93.7492 238.264 94.1545 238.099 94.4745 237.768C94.8052 237.437 94.9705 237.032 94.9705 236.552C94.9705 236.061 94.8052 235.651 94.4745 235.32C94.1545 234.989 93.7492 234.824 93.2585 234.824C92.7678 234.824 92.3572 234.989 92.0265 235.32C91.7065 235.651 91.5465 236.061 91.5465 236.552C91.5465 237.032 91.7065 237.437 92.0265 237.768C92.3572 238.099 92.7678 238.264 93.2585 238.264ZM100.059 245.24C99.5252 245.24 99.0345 245.112 98.5865 244.856C98.1385 244.589 97.7812 244.232 97.5145 243.784C97.2585 243.336 97.1305 242.845 97.1305 242.312C97.1305 241.779 97.2585 241.288 97.5145 240.84C97.7812 240.381 98.1385 240.024 98.5865 239.768C99.0345 239.501 99.5252 239.368 100.059 239.368C100.592 239.368 101.083 239.501 101.531 239.768C101.989 240.024 102.347 240.381 102.603 240.84C102.869 241.288 103.003 241.779 103.003 242.312C103.003 242.845 102.869 243.336 102.603 243.784C102.347 244.232 101.989 244.589 101.531 244.856C101.083 245.112 100.592 245.24 100.059 245.24ZM100.043 244.056C100.533 244.056 100.944 243.891 101.275 243.56C101.605 243.229 101.771 242.824 101.771 242.344C101.771 241.853 101.605 241.443 101.275 241.112C100.944 240.781 100.533 240.616 100.043 240.616C99.5625 240.616 99.1572 240.781 98.8265 241.112C98.4958 241.443 98.3305 241.853 98.3305 242.344C98.3305 242.824 98.4958 243.229 98.8265 243.56C99.1572 243.891 99.5625 244.056 100.043 244.056ZM104.939 239.576H110.043V240.904H104.939V239.576ZM114.402 235.576L111.986 237.32V235.768L114.626 233.816H116.034V245H114.402V235.576ZM121.418 245.24C120.831 245.24 120.261 245.176 119.706 245.048C119.151 244.931 118.682 244.765 118.298 244.552V243.096C118.735 243.363 119.231 243.571 119.786 243.72C120.341 243.859 120.869 243.928 121.37 243.928C122.341 243.928 123.077 243.725 123.578 243.32C124.079 242.904 124.33 242.296 124.33 241.496C124.33 240.739 124.095 240.163 123.626 239.768C123.167 239.363 122.479 239.16 121.562 239.16C121.178 239.16 120.773 239.197 120.346 239.272C119.93 239.347 119.557 239.448 119.226 239.576L118.506 239.16L118.922 233.816H125.178V235.192H120.41L120.17 238.072C120.831 237.933 121.503 237.864 122.186 237.864C123.37 237.864 124.298 238.195 124.97 238.856C125.642 239.517 125.978 240.397 125.978 241.496C125.978 242.701 125.599 243.629 124.842 244.28C124.085 244.92 122.943 245.24 121.418 245.24ZM130.899 239.448C130.366 239.448 129.875 239.32 129.427 239.064C128.979 238.797 128.622 238.44 128.355 237.992C128.099 237.544 127.971 237.053 127.971 236.52C127.971 235.987 128.099 235.496 128.355 235.048C128.622 234.589 128.979 234.232 129.427 233.976C129.875 233.709 130.366 233.576 130.899 233.576C131.432 233.576 131.923 233.709 132.371 233.976C132.83 234.232 133.187 234.589 133.443 235.048C133.71 235.496 133.843 235.987 133.843 236.52C133.843 237.053 133.71 237.544 133.443 237.992C133.187 238.44 132.83 238.797 132.371 239.064C131.923 239.32 131.432 239.448 130.899 239.448ZM136.611 233.816H138.195L132.003 245H130.419L136.611 233.816ZM130.899 238.264C131.39 238.264 131.795 238.099 132.115 237.768C132.446 237.437 132.611 237.032 132.611 236.552C132.611 236.061 132.446 235.651 132.115 235.32C131.795 234.989 131.39 234.824 130.899 234.824C130.408 234.824 129.998 234.989 129.667 235.32C129.347 235.651 129.187 236.061 129.187 236.552C129.187 237.032 129.347 237.437 129.667 237.768C129.998 238.099 130.408 238.264 130.899 238.264ZM137.699 245.24C137.166 245.24 136.675 245.112 136.227 244.856C135.779 244.589 135.422 244.232 135.155 243.784C134.899 243.336 134.771 242.845 134.771 242.312C134.771 241.779 134.899 241.288 135.155 240.84C135.422 240.381 135.779 240.024 136.227 239.768C136.675 239.501 137.166 239.368 137.699 239.368C138.232 239.368 138.723 239.501 139.171 239.768C139.63 240.024 139.987 240.381 140.243 240.84C140.51 241.288 140.643 241.779 140.643 242.312C140.643 242.845 140.51 243.336 140.243 243.784C139.987 244.232 139.63 244.589 139.171 244.856C138.723 245.112 138.232 245.24 137.699 245.24ZM137.683 244.056C138.174 244.056 138.584 243.891 138.915 243.56C139.246 243.229 139.411 242.824 139.411 242.344C139.411 241.853 139.246 241.443 138.915 241.112C138.584 240.781 138.174 240.616 137.683 240.616C137.203 240.616 136.798 240.781 136.467 241.112C136.136 241.443 135.971 241.853 135.971 242.344C135.971 242.824 136.136 243.229 136.467 243.56C136.798 243.891 137.203 244.056 137.683 244.056ZM153.369 245.24C152.505 245.24 151.743 245.08 151.081 244.76C150.431 244.429 149.919 243.96 149.545 243.352C149.183 242.733 149.001 242.008 149.001 241.176C149.001 240.355 149.183 239.635 149.545 239.016C149.908 238.397 150.42 237.923 151.081 237.592C151.743 237.251 152.505 237.08 153.369 237.08C154.233 237.08 154.996 237.251 155.657 237.592C156.319 237.923 156.831 238.397 157.193 239.016C157.567 239.635 157.753 240.355 157.753 241.176C157.753 242.008 157.567 242.733 157.193 243.352C156.831 243.96 156.319 244.429 155.657 244.76C154.996 245.08 154.233 245.24 153.369 245.24ZM153.369 243.96C154.201 243.96 154.863 243.704 155.353 243.192C155.844 242.68 156.089 242.008 156.089 241.176C156.089 240.312 155.844 239.629 155.353 239.128C154.863 238.627 154.201 238.376 153.369 238.376C152.537 238.376 151.876 238.627 151.385 239.128C150.895 239.629 150.649 240.312 150.649 241.176C150.649 242.008 150.895 242.68 151.385 243.192C151.876 243.704 152.537 243.96 153.369 243.96ZM159.974 238.568H158.806V237.32H159.974V235.816C159.974 234.931 160.225 234.259 160.726 233.8C161.228 233.331 161.9 233.096 162.742 233.096C163.18 233.096 163.59 233.16 163.974 233.288V234.632C163.676 234.493 163.366 234.424 163.046 234.424C162.545 234.424 162.177 234.547 161.942 234.792C161.708 235.027 161.59 235.4 161.59 235.912V237.32H163.51V238.568H161.59V245H159.974V238.568ZM174.841 245.24C174.307 245.24 173.742 245.171 173.145 245.032C172.547 244.904 172.078 244.728 171.737 244.504V243.128C172.153 243.373 172.633 243.576 173.177 243.736C173.721 243.885 174.249 243.96 174.761 243.96C175.337 243.96 175.758 243.891 176.025 243.752C176.291 243.613 176.425 243.389 176.425 243.08C176.425 242.845 176.361 242.659 176.233 242.52C176.115 242.371 175.907 242.237 175.609 242.12C175.321 242.003 174.883 241.864 174.297 241.704C173.667 241.523 173.166 241.341 172.793 241.16C172.43 240.968 172.153 240.728 171.961 240.44C171.779 240.152 171.689 239.779 171.689 239.32C171.689 238.584 171.977 238.029 172.553 237.656C173.139 237.272 173.923 237.08 174.905 237.08C175.417 237.08 175.918 237.128 176.409 237.224C176.899 237.32 177.294 237.453 177.593 237.624V238.968C177.283 238.787 176.899 238.643 176.441 238.536C175.993 238.429 175.534 238.376 175.065 238.376C174.499 238.376 174.067 238.445 173.769 238.584C173.47 238.723 173.321 238.968 173.321 239.32C173.321 239.544 173.385 239.725 173.513 239.864C173.641 240.003 173.843 240.125 174.121 240.232C174.409 240.328 174.862 240.456 175.481 240.616C176.451 240.883 177.123 241.197 177.497 241.56C177.881 241.923 178.073 242.424 178.073 243.064C178.073 243.725 177.801 244.253 177.257 244.648C176.713 245.043 175.907 245.24 174.841 245.24ZM181.281 235.816C181.014 235.816 180.79 235.725 180.609 235.544C180.428 235.363 180.337 235.139 180.337 234.872C180.337 234.605 180.428 234.381 180.609 234.2C180.79 234.019 181.014 233.928 181.281 233.928C181.558 233.928 181.788 234.019 181.969 234.2C182.161 234.381 182.257 234.605 182.257 234.872C182.257 235.139 182.161 235.363 181.969 235.544C181.788 235.725 181.558 235.816 181.281 235.816ZM180.465 237.32H182.113V245H180.465V237.32ZM188.853 248.68C188.33 248.68 187.818 248.637 187.317 248.552C186.826 248.467 186.41 248.344 186.069 248.184V246.856C186.869 247.219 187.797 247.4 188.853 247.4C189.845 247.4 190.565 247.181 191.013 246.744C191.472 246.317 191.701 245.667 191.701 244.792V243.976C190.997 244.819 189.962 245.24 188.597 245.24C187.818 245.24 187.12 245.069 186.501 244.728C185.882 244.387 185.397 243.907 185.045 243.288C184.693 242.669 184.517 241.96 184.517 241.16C184.517 240.349 184.688 239.64 185.029 239.032C185.381 238.413 185.861 237.933 186.469 237.592C187.088 237.251 187.781 237.08 188.549 237.08C189.264 237.08 189.866 237.187 190.357 237.4C190.858 237.603 191.322 237.944 191.749 238.424V237.32H193.317V244.616C193.317 245.928 192.949 246.931 192.213 247.624C191.488 248.328 190.368 248.68 188.853 248.68ZM188.917 243.96C189.578 243.96 190.16 243.784 190.661 243.432C191.173 243.08 191.52 242.611 191.701 242.024V240.296C191.498 239.699 191.146 239.229 190.645 238.888C190.154 238.547 189.578 238.376 188.917 238.376C188.394 238.376 187.92 238.493 187.493 238.728C187.077 238.952 186.746 239.277 186.501 239.704C186.266 240.131 186.149 240.616 186.149 241.16C186.149 241.715 186.266 242.205 186.501 242.632C186.746 243.048 187.077 243.373 187.493 243.608C187.92 243.843 188.394 243.96 188.917 243.96ZM195.899 237.32H197.467V238.424C197.83 237.965 198.273 237.629 198.795 237.416C199.329 237.192 199.883 237.08 200.459 237.08C201.483 237.08 202.246 237.352 202.747 237.896C203.249 238.44 203.499 239.171 203.499 240.088V245H201.883V240.248C201.883 239 201.286 238.376 200.091 238.376C199.579 238.376 199.099 238.499 198.651 238.744C198.214 238.979 197.835 239.341 197.515 239.832V245H195.899V237.32ZM208.511 245.24C207.583 245.24 206.836 245.005 206.271 244.536C205.716 244.056 205.439 243.411 205.439 242.6C205.439 241.747 205.705 241.091 206.239 240.632C206.783 240.163 207.551 239.928 208.543 239.928C209.599 239.928 210.495 240.141 211.231 240.568V240.168C211.231 239.56 211.044 239.112 210.671 238.824C210.308 238.525 209.732 238.376 208.943 238.376C208.473 238.376 208.015 238.424 207.567 238.52C207.129 238.605 206.735 238.728 206.383 238.888V237.576C206.703 237.427 207.119 237.309 207.631 237.224C208.143 237.128 208.639 237.08 209.119 237.08C210.388 237.08 211.327 237.363 211.935 237.928C212.553 238.483 212.863 239.256 212.863 240.248V245H211.343V244.136C211.012 244.499 210.617 244.776 210.159 244.968C209.711 245.149 209.161 245.24 208.511 245.24ZM208.911 244.008C209.423 244.008 209.887 243.907 210.303 243.704C210.719 243.501 211.028 243.219 211.231 242.856V241.816C210.537 241.368 209.764 241.144 208.911 241.144C208.292 241.144 207.828 241.267 207.519 241.512C207.22 241.747 207.071 242.109 207.071 242.6C207.071 243.539 207.684 244.008 208.911 244.008ZM215.368 233.176H216.984V245H215.368V233.176ZM222.403 245.24C221.87 245.24 221.305 245.171 220.707 245.032C220.11 244.904 219.641 244.728 219.299 244.504V243.128C219.715 243.373 220.195 243.576 220.739 243.736C221.283 243.885 221.811 243.96 222.323 243.96C222.899 243.96 223.321 243.891 223.587 243.752C223.854 243.613 223.987 243.389 223.987 243.08C223.987 242.845 223.923 242.659 223.795 242.52C223.678 242.371 223.47 242.237 223.171 242.12C222.883 242.003 222.446 241.864 221.859 241.704C221.23 241.523 220.729 241.341 220.355 241.16C219.993 240.968 219.715 240.728 219.523 240.44C219.342 240.152 219.251 239.779 219.251 239.32C219.251 238.584 219.539 238.029 220.115 237.656C220.702 237.272 221.486 237.08 222.467 237.08C222.979 237.08 223.481 237.128 223.971 237.224C224.462 237.32 224.857 237.453 225.155 237.624V238.968C224.846 238.787 224.462 238.643 224.003 238.536C223.555 238.429 223.097 238.376 222.627 238.376C222.062 238.376 221.63 238.445 221.331 238.584C221.033 238.723 220.883 238.968 220.883 239.32C220.883 239.544 220.947 239.725 221.075 239.864C221.203 240.003 221.406 240.125 221.683 240.232C221.971 240.328 222.425 240.456 223.043 240.616C224.014 240.883 224.686 241.197 225.059 241.56C225.443 241.923 225.635 242.424 225.635 243.064C225.635 243.725 225.363 244.253 224.819 244.648C224.275 245.043 223.47 245.24 222.403 245.24ZM234.849 238.568H233.681V237.32H234.849V235.816C234.849 234.931 235.1 234.259 235.601 233.8C236.103 233.331 236.775 233.096 237.617 233.096C238.055 233.096 238.465 233.16 238.849 233.288V234.632C238.551 234.493 238.241 234.424 237.921 234.424C237.42 234.424 237.052 234.547 236.817 234.792C236.583 235.027 236.465 235.4 236.465 235.912V237.32H238.385V238.568H236.465V245H234.849V238.568ZM240.384 237.32H241.952V238.696C242.272 238.227 242.72 237.88 243.296 237.656C243.882 237.432 244.56 237.32 245.328 237.32V238.584C244.506 238.584 243.802 238.717 243.216 238.984C242.629 239.251 242.224 239.672 242 240.248V245H240.384V237.32ZM251.088 245.24C250.224 245.24 249.461 245.08 248.8 244.76C248.149 244.429 247.637 243.96 247.264 243.352C246.901 242.733 246.72 242.008 246.72 241.176C246.72 240.355 246.901 239.635 247.264 239.016C247.627 238.397 248.139 237.923 248.8 237.592C249.461 237.251 250.224 237.08 251.088 237.08C251.952 237.08 252.715 237.251 253.376 237.592C254.037 237.923 254.549 238.397 254.912 239.016C255.285 239.635 255.472 240.355 255.472 241.176C255.472 242.008 255.285 242.733 254.912 243.352C254.549 243.96 254.037 244.429 253.376 244.76C252.715 245.08 251.952 245.24 251.088 245.24ZM251.088 243.96C251.92 243.96 252.581 243.704 253.072 243.192C253.563 242.68 253.808 242.008 253.808 241.176C253.808 240.312 253.563 239.629 253.072 239.128C252.581 238.627 251.92 238.376 251.088 238.376C250.256 238.376 249.595 238.627 249.104 239.128C248.613 239.629 248.368 240.312 248.368 241.176C248.368 242.008 248.613 242.68 249.104 243.192C249.595 243.704 250.256 243.96 251.088 243.96ZM257.728 237.32H259.264V238.424C259.626 237.976 260.037 237.64 260.496 237.416C260.954 237.192 261.429 237.08 261.92 237.08C262.538 237.08 263.029 237.187 263.392 237.4C263.754 237.603 264.021 237.917 264.192 238.344C264.533 237.928 264.949 237.613 265.44 237.4C265.941 237.187 266.442 237.08 266.944 237.08C267.882 237.08 268.56 237.32 268.976 237.8C269.392 238.269 269.6 238.968 269.6 239.896V245H268.032V240.104C268.032 239.475 267.914 239.032 267.68 238.776C267.445 238.509 267.045 238.376 266.48 238.376C265.669 238.376 265.008 238.728 264.496 239.432C264.517 239.592 264.528 239.853 264.528 240.216V245H262.96V240.104C262.96 239.475 262.853 239.032 262.64 238.776C262.426 238.509 262.042 238.376 261.488 238.376C260.677 238.376 259.952 238.835 259.312 239.752V245H257.728V237.32ZM278.524 233.816H285.9V235.192H280.156V238.76H284.444V240.056H280.156V245H278.524V233.816ZM288.218 235.816C287.952 235.816 287.728 235.725 287.546 235.544C287.365 235.363 287.274 235.139 287.274 234.872C287.274 234.605 287.365 234.381 287.546 234.2C287.728 234.019 287.952 233.928 288.218 233.928C288.496 233.928 288.725 234.019 288.906 234.2C289.098 234.381 289.194 234.605 289.194 234.872C289.194 235.139 289.098 235.363 288.906 235.544C288.725 235.725 288.496 235.816 288.218 235.816ZM287.402 237.32H289.05V245H287.402V237.32ZM291.774 237.32H293.342V238.696C293.662 238.227 294.11 237.88 294.686 237.656C295.273 237.432 295.95 237.32 296.718 237.32V238.584C295.897 238.584 295.193 238.717 294.606 238.984C294.02 239.251 293.614 239.672 293.39 240.248V245H291.774V237.32ZM301.263 245.24C300.729 245.24 300.164 245.171 299.567 245.032C298.969 244.904 298.5 244.728 298.159 244.504V243.128C298.575 243.373 299.055 243.576 299.599 243.736C300.143 243.885 300.671 243.96 301.183 243.96C301.759 243.96 302.18 243.891 302.447 243.752C302.713 243.613 302.847 243.389 302.847 243.08C302.847 242.845 302.783 242.659 302.655 242.52C302.537 242.371 302.329 242.237 302.031 242.12C301.743 242.003 301.305 241.864 300.719 241.704C300.089 241.523 299.588 241.341 299.215 241.16C298.852 240.968 298.575 240.728 298.383 240.44C298.201 240.152 298.111 239.779 298.111 239.32C298.111 238.584 298.399 238.029 298.975 237.656C299.561 237.272 300.345 237.08 301.327 237.08C301.839 237.08 302.34 237.128 302.831 237.224C303.321 237.32 303.716 237.453 304.015 237.624V238.968C303.705 238.787 303.321 238.643 302.863 238.536C302.415 238.429 301.956 238.376 301.487 238.376C300.921 238.376 300.489 238.445 300.191 238.584C299.892 238.723 299.743 238.968 299.743 239.32C299.743 239.544 299.807 239.725 299.935 239.864C300.063 240.003 300.265 240.125 300.543 240.232C300.831 240.328 301.284 240.456 301.903 240.616C302.873 240.883 303.545 241.197 303.919 241.56C304.303 241.923 304.495 242.424 304.495 243.064C304.495 243.725 304.223 244.253 303.679 244.648C303.135 245.043 302.329 245.24 301.263 245.24ZM309.484 245.24C308.706 245.24 308.103 245.016 307.676 244.568C307.26 244.12 307.052 243.485 307.052 242.664V238.568H305.884V237.32H307.052V235.016H308.684V237.32H310.572V238.568H308.684V242.552C308.684 243.064 308.78 243.427 308.972 243.64C309.175 243.853 309.538 243.96 310.06 243.96C310.37 243.96 310.679 243.891 310.988 243.752V245.032C310.583 245.171 310.082 245.24 309.484 245.24ZM75.872 257.192H72.4V255.816H80.992V257.192H77.52V267H75.872V257.192ZM83.4684 257.816C83.2017 257.816 82.9777 257.725 82.7964 257.544C82.615 257.363 82.5244 257.139 82.5244 256.872C82.5244 256.605 82.615 256.381 82.7964 256.2C82.9777 256.019 83.2017 255.928 83.4684 255.928C83.7457 255.928 83.975 256.019 84.1564 256.2C84.3484 256.381 84.4444 256.605 84.4444 256.872C84.4444 257.139 84.3484 257.363 84.1564 257.544C83.975 257.725 83.7457 257.816 83.4684 257.816ZM82.6524 259.32H84.3004V267H82.6524V259.32ZM91.2484 267.24C89.8297 267.24 88.715 266.888 87.9044 266.184C87.1044 265.469 86.7044 264.467 86.7044 263.176C86.7044 261.917 87.0617 260.92 87.7764 260.184C88.5017 259.448 89.531 259.08 90.8644 259.08C91.7497 259.08 92.5017 259.251 93.1204 259.592C93.739 259.923 94.203 260.387 94.5124 260.984C94.8324 261.571 94.9924 262.243 94.9924 263V263.8H88.2404C88.2937 264.525 88.5977 265.069 89.1524 265.432C89.7177 265.784 90.4804 265.96 91.4404 265.96C91.931 265.96 92.427 265.917 92.9284 265.832C93.4297 265.736 93.8724 265.613 94.2564 265.464V266.76C93.915 266.899 93.4617 267.011 92.8964 267.096C92.3417 267.192 91.7924 267.24 91.2484 267.24ZM93.4724 262.664C93.451 261.939 93.211 261.379 92.7524 260.984C92.3044 260.579 91.6644 260.376 90.8324 260.376C90.0217 260.376 89.3924 260.584 88.9444 261C88.4964 261.416 88.2617 261.971 88.2404 262.664H93.4724ZM97.2588 259.32H98.8268V260.696C99.1468 260.227 99.5948 259.88 100.171 259.656C100.757 259.432 101.435 259.32 102.203 259.32V260.584C101.381 260.584 100.677 260.717 100.091 260.984C99.5041 261.251 99.0988 261.672 98.8748 262.248V267H97.2588V259.32ZM110.571 255.816H114.875C116.081 255.816 117.03 256.12 117.723 256.728C118.427 257.325 118.779 258.179 118.779 259.288C118.779 260.419 118.433 261.277 117.739 261.864C117.046 262.44 116.091 262.728 114.875 262.728H112.203V267H110.571V255.816ZM114.699 261.368C115.446 261.368 116.038 261.213 116.475 260.904C116.913 260.595 117.131 260.056 117.131 259.288C117.131 258.52 116.913 257.981 116.475 257.672C116.038 257.352 115.446 257.192 114.699 257.192H112.203V261.368H114.699ZM122.589 267.24C121.661 267.24 120.914 267.005 120.349 266.536C119.794 266.056 119.517 265.411 119.517 264.6C119.517 263.747 119.784 263.091 120.317 262.632C120.861 262.163 121.629 261.928 122.621 261.928C123.677 261.928 124.573 262.141 125.309 262.568V262.168C125.309 261.56 125.122 261.112 124.749 260.824C124.386 260.525 123.81 260.376 123.021 260.376C122.552 260.376 122.093 260.424 121.645 260.52C121.208 260.605 120.813 260.728 120.461 260.888V259.576C120.781 259.427 121.197 259.309 121.709 259.224C122.221 259.128 122.717 259.08 123.197 259.08C124.466 259.08 125.405 259.363 126.013 259.928C126.632 260.483 126.941 261.256 126.941 262.248V267H125.421V266.136C125.09 266.499 124.696 266.776 124.237 266.968C123.789 267.149 123.24 267.24 122.589 267.24ZM122.989 266.008C123.501 266.008 123.965 265.907 124.381 265.704C124.797 265.501 125.106 265.219 125.309 264.856V263.816C124.616 263.368 123.842 263.144 122.989 263.144C122.37 263.144 121.906 263.267 121.597 263.512C121.298 263.747 121.149 264.109 121.149 264.6C121.149 265.539 121.762 266.008 122.989 266.008ZM130.39 257.816C130.124 257.816 129.9 257.725 129.718 257.544C129.537 257.363 129.446 257.139 129.446 256.872C129.446 256.605 129.537 256.381 129.718 256.2C129.9 256.019 130.124 255.928 130.39 255.928C130.668 255.928 130.897 256.019 131.078 256.2C131.27 256.381 131.366 256.605 131.366 256.872C131.366 257.139 131.27 257.363 131.078 257.544C130.897 257.725 130.668 257.816 130.39 257.816ZM129.574 259.32H131.222V267H129.574V259.32ZM137.658 267.24C136.89 267.24 136.197 267.075 135.578 266.744C134.97 266.403 134.49 265.928 134.138 265.32C133.797 264.701 133.626 263.987 133.626 263.176C133.626 262.376 133.797 261.667 134.138 261.048C134.49 260.429 134.97 259.949 135.578 259.608C136.197 259.256 136.89 259.08 137.658 259.08C139.045 259.08 140.096 259.501 140.81 260.344V255.176H142.426V267H140.858V265.88C140.432 266.349 139.962 266.696 139.45 266.92C138.949 267.133 138.352 267.24 137.658 267.24ZM138.026 265.96C138.688 265.96 139.264 265.789 139.754 265.448C140.256 265.096 140.608 264.627 140.81 264.04V262.312C140.629 261.725 140.282 261.256 139.77 260.904C139.269 260.552 138.688 260.376 138.026 260.376C137.504 260.376 137.029 260.493 136.602 260.728C136.186 260.963 135.856 261.293 135.61 261.72C135.376 262.147 135.258 262.632 135.258 263.176C135.258 263.72 135.376 264.205 135.61 264.632C135.856 265.059 136.186 265.389 136.602 265.624C137.029 265.848 137.504 265.96 138.026 265.96ZM157.031 267.24C155.879 267.24 154.855 267 153.959 266.52C153.063 266.04 152.364 265.363 151.863 264.488C151.361 263.603 151.111 262.579 151.111 261.416C151.111 260.253 151.361 259.229 151.863 258.344C152.364 257.459 153.063 256.776 153.959 256.296C154.855 255.816 155.879 255.576 157.031 255.576C158.577 255.576 159.863 255.96 160.887 256.728V258.296C159.959 257.485 158.721 257.08 157.175 257.08C156.332 257.08 155.575 257.256 154.903 257.608C154.231 257.96 153.703 258.467 153.319 259.128C152.945 259.779 152.759 260.541 152.759 261.416C152.759 262.291 152.945 263.059 153.319 263.72C153.692 264.381 154.209 264.888 154.871 265.24C155.532 265.592 156.279 265.768 157.111 265.768C158.081 265.768 158.876 265.571 159.495 265.176V262.248H157.367V260.92H161.127V266.04C160.625 266.456 160.033 266.76 159.351 266.952C158.679 267.144 157.905 267.24 157.031 267.24ZM163.384 259.32H164.952V260.696C165.272 260.227 165.72 259.88 166.296 259.656C166.882 259.432 167.56 259.32 168.328 259.32V260.584C167.506 260.584 166.802 260.717 166.216 260.984C165.629 261.251 165.224 261.672 165 262.248V267H163.384V259.32ZM174.088 267.24C173.224 267.24 172.461 267.08 171.8 266.76C171.149 266.429 170.637 265.96 170.264 265.352C169.901 264.733 169.72 264.008 169.72 263.176C169.72 262.355 169.901 261.635 170.264 261.016C170.627 260.397 171.139 259.923 171.8 259.592C172.461 259.251 173.224 259.08 174.088 259.08C174.952 259.08 175.715 259.251 176.376 259.592C177.037 259.923 177.549 260.397 177.912 261.016C178.285 261.635 178.472 262.355 178.472 263.176C178.472 264.008 178.285 264.733 177.912 265.352C177.549 265.96 177.037 266.429 176.376 266.76C175.715 267.08 174.952 267.24 174.088 267.24ZM174.088 265.96C174.92 265.96 175.581 265.704 176.072 265.192C176.563 264.68 176.808 264.008 176.808 263.176C176.808 262.312 176.563 261.629 176.072 261.128C175.581 260.627 174.92 260.376 174.088 260.376C173.256 260.376 172.595 260.627 172.104 261.128C171.613 261.629 171.368 262.312 171.368 263.176C171.368 264.008 171.613 264.68 172.104 265.192C172.595 265.704 173.256 265.96 174.088 265.96ZM183.784 267.24C182.749 267.24 181.965 266.963 181.432 266.408C180.909 265.853 180.648 265.112 180.648 264.184V259.32H182.264V264.12C182.264 265.347 182.877 265.96 184.104 265.96C185.181 265.96 186.024 265.475 186.632 264.504V259.32H188.248V267H186.68V265.912C186.317 266.371 185.885 266.707 185.384 266.92C184.893 267.133 184.36 267.24 183.784 267.24ZM190.821 259.32H192.389V260.456C193.179 259.539 194.245 259.08 195.589 259.08C196.357 259.08 197.045 259.251 197.653 259.592C198.272 259.933 198.752 260.413 199.093 261.032C199.445 261.64 199.621 262.349 199.621 263.16C199.621 263.96 199.445 264.669 199.093 265.288C198.752 265.907 198.277 266.387 197.669 266.728C197.061 267.069 196.368 267.24 195.589 267.24C194.949 267.24 194.352 267.133 193.797 266.92C193.243 266.707 192.789 266.392 192.437 265.976V270.504H190.821V259.32ZM195.221 265.96C195.744 265.96 196.213 265.848 196.629 265.624C197.056 265.389 197.387 265.059 197.621 264.632C197.867 264.205 197.989 263.715 197.989 263.16C197.989 262.605 197.867 262.12 197.621 261.704C197.387 261.277 197.056 260.952 196.629 260.728C196.213 260.493 195.744 260.376 195.221 260.376C194.571 260.376 193.995 260.547 193.493 260.888C193.003 261.229 192.651 261.699 192.437 262.296V264.024C192.619 264.611 192.965 265.08 193.477 265.432C193.989 265.784 194.571 265.96 195.221 265.96ZM202.316 267C202.102 267 201.921 266.931 201.772 266.792C201.633 266.643 201.564 266.461 201.564 266.248C201.564 266.035 201.633 265.853 201.772 265.704C201.921 265.555 202.102 265.48 202.316 265.48C202.529 265.48 202.71 265.555 202.86 265.704C203.009 265.853 203.084 266.035 203.084 266.248C203.084 266.461 203.009 266.643 202.86 266.792C202.71 266.931 202.529 267 202.316 267Z" fill="#FAFAF9"/>
<ellipse cx="48.5" cy="249.726" rx="10.5" ry="11.2435" fill="#D9D9D9"/>
<path d="M43 249.19L46.5 252.938L54 244.907" stroke="url(#paint3_linear_863_431)" stroke-width="2"/>
<path d="M113.911 64L119.499 49.7H123.569L129.135 64H126.209L124.801 60.348H118.179L116.793 64H113.911ZM119.125 57.774H123.877L121.457 51.856L119.125 57.774ZM132.986 64V49.7H135.714V61.426H143.854V64H132.986ZM147.994 64V49.7H157.784C160.226 49.7 161.854 51.416 161.854 53.99C161.854 56.454 160.226 58.126 157.784 58.126H150.722V64H147.994ZM150.722 55.552H157.784C158.598 55.552 159.126 54.98 159.126 54.122V53.704C159.126 52.846 158.598 52.274 157.784 52.274H150.722V55.552ZM166.117 64V49.7H168.845V55.552H176.985V49.7H179.713V64H176.985V58.126H168.845V64H166.117ZM183.545 64L189.133 49.7H193.203L198.769 64H195.843L194.435 60.348H187.813L186.427 64H183.545ZM188.759 57.774H193.511L191.091 51.856L188.759 57.774ZM210.41 64V49.7H213.138V61.426H221.278V64H210.41ZM225.418 64V49.7H228.146V64H225.418ZM237.673 64V52.274H232.239V49.7H245.835V52.274H240.401V64H237.673ZM249.955 64V49.7H263.265V52.274H252.683V55.552H260.559V58.126H252.683V61.426H263.265V64H249.955Z" fill="#FF6D36"/>
<path d="M95.5214 144.04H114.921V149.16H101.601V155.68H111.401V160.36H101.601V172H95.5214V144.04ZM131.619 172.6C128.819 172.6 126.272 171.987 123.979 170.76C121.712 169.533 119.926 167.827 118.619 165.64C117.312 163.427 116.659 160.893 116.659 158.04C116.659 155.187 117.312 152.653 118.619 150.44C119.926 148.227 121.712 146.507 123.979 145.28C126.272 144.053 128.819 143.44 131.619 143.44C134.419 143.44 136.939 144.053 139.179 145.28C141.446 146.507 143.232 148.227 144.539 150.44C145.846 152.653 146.499 155.187 146.499 158.04C146.499 160.893 145.846 163.427 144.539 165.64C143.232 167.827 141.446 169.533 139.179 170.76C136.939 171.987 134.419 172.6 131.619 172.6ZM131.619 167C133.219 167 134.672 166.64 135.979 165.92C137.312 165.173 138.366 164.133 139.139 162.8C139.912 161.44 140.299 159.853 140.299 158.04C140.299 156.253 139.912 154.693 139.139 153.36C138.392 152 137.352 150.96 136.019 150.24C134.712 149.493 133.246 149.12 131.619 149.12C129.966 149.12 128.472 149.493 127.139 150.24C125.832 150.96 124.792 152 124.019 153.36C123.246 154.693 122.859 156.253 122.859 158.04C122.859 159.853 123.246 161.44 124.019 162.8C124.792 164.133 125.846 165.173 127.179 165.92C128.512 166.64 129.992 167 131.619 167ZM150.842 144.04H162.962C166.135 144.04 168.602 144.84 170.362 146.44C172.148 148.013 173.042 150.293 173.042 153.28C173.042 155.36 172.562 157.133 171.602 158.6C170.642 160.04 169.282 161.093 167.522 161.76L172.842 172H166.602L161.682 162.52H156.922V172H150.842V144.04ZM161.882 157.44C163.428 157.44 164.642 157.107 165.522 156.44C166.428 155.773 166.882 154.72 166.882 153.28C166.882 151.76 166.442 150.693 165.562 150.08C164.682 149.44 163.455 149.12 161.882 149.12H156.922V157.44H161.882ZM192.412 144.04H211.812V149.16H198.492V155.68H208.292V160.36H198.492V172H192.412V144.04ZM215.365 144.04H227.485C230.658 144.04 233.125 144.84 234.885 146.44C236.672 148.013 237.565 150.293 237.565 153.28C237.565 155.36 237.085 157.133 236.125 158.6C235.165 160.04 233.805 161.093 232.045 161.76L237.365 172H231.125L226.205 162.52H221.445V172H215.365V144.04ZM226.405 157.44C227.952 157.44 229.165 157.107 230.045 156.44C230.952 155.773 231.405 154.72 231.405 153.28C231.405 151.76 230.965 150.693 230.085 150.08C229.205 149.44 227.978 149.12 226.405 149.12H221.445V157.44H226.405ZM241.951 144.04H261.351V149.12H248.031V155.6H257.831V160.48H248.031V166.92H261.351V172H241.951V144.04ZM265.295 144.04H284.695V149.12H271.375V155.6H281.175V160.48H271.375V166.92H284.695V172H265.295V144.04Z" fill="white"/>
<path d="M108.592 90L112.656 79.6H115.616L119.664 90H117.536L116.512 87.344H111.696L110.688 90H108.592ZM112.384 85.472H115.84L114.08 81.168L112.384 85.472ZM122.738 90V79.6H124.514L130.642 86.768V79.6H132.626V90H130.834L124.722 82.816V90H122.738ZM139.638 90V86.352L135.494 79.6H137.766L139.702 82.72C140.342 83.76 140.614 84.592 140.614 84.592H140.646C140.646 84.592 140.934 83.76 141.558 82.72L143.462 79.6H145.766L141.622 86.352V90H139.638ZM152.737 90.208C149.777 90.208 147.601 87.92 147.601 84.8C147.601 81.68 149.777 79.392 152.737 79.392C155.697 79.392 157.873 81.68 157.873 84.8C157.873 87.92 155.697 90.208 152.737 90.208ZM152.737 88.224C154.513 88.224 155.809 86.768 155.809 84.8C155.809 82.816 154.513 81.36 152.737 81.36C150.961 81.36 149.681 82.816 149.681 84.8C149.681 86.768 150.961 88.224 152.737 88.224ZM161.347 90V79.6H163.123L169.251 86.768V79.6H171.235V90H169.443L163.331 82.816V90H161.347ZM175.191 90V79.6H184.871V81.472H177.175V83.856H182.903V85.728H177.175V88.128H184.871V90H175.191ZM199.128 90.208C196.168 90.208 193.992 87.92 193.992 84.8C193.992 81.68 196.168 79.392 199.128 79.392C201.8 79.392 203.8 81.216 204.2 83.856H202.088C201.752 82.368 200.616 81.36 199.128 81.36C197.352 81.36 196.072 82.816 196.072 84.8C196.072 86.768 197.352 88.224 199.128 88.224C200.616 88.224 201.752 87.216 202.088 85.728H204.2C203.8 88.384 201.8 90.208 199.128 90.208ZM206.217 90L210.281 79.6H213.241L217.289 90H215.161L214.137 87.344H209.321L208.313 90H206.217ZM210.009 85.472H213.465L211.705 81.168L210.009 85.472ZM220.363 90V79.6H222.139L228.267 86.768V79.6H230.251V90H228.459L222.347 82.816V90H220.363ZM243.696 90.208C241.424 90.208 239.744 88.432 239.744 86.048H241.728C241.728 87.296 242.56 88.224 243.696 88.224C244.832 88.224 245.68 87.296 245.68 86.048V79.6H247.648V86.048C247.648 88.432 245.968 90.208 243.696 90.208ZM256.269 90.208C253.309 90.208 251.133 87.92 251.133 84.8C251.133 81.68 253.309 79.392 256.269 79.392C259.229 79.392 261.405 81.68 261.405 84.8C261.405 87.92 259.229 90.208 256.269 90.208ZM256.269 88.224C258.045 88.224 259.341 86.768 259.341 84.8C259.341 82.816 258.045 81.36 256.269 81.36C254.493 81.36 253.213 82.816 253.213 84.8C253.213 86.768 254.493 88.224 256.269 88.224ZM264.879 90V79.6H266.863V90H264.879ZM270.816 90V79.6H272.592L278.72 86.768V79.6H280.704V90H278.912L272.8 82.816V90H270.816Z" fill="#EF8963"/>
<defs>
<linearGradient id="paint0_linear_863_431" x1="189.5" y1="0" x2="189.5" y2="607" gradientUnits="userSpaceOnUse">
<stop stop-color="#3F3F3F"/>
<stop offset="1" stop-color="#2E2E2E"/>
</linearGradient>
<linearGradient id="paint1_linear_863_431" x1="189.5" y1="0" x2="189.5" y2="607" gradientUnits="userSpaceOnUse">
<stop stop-color="#3F3F3F"/>
<stop offset="1" stop-color="#2E2E2E"/>
</linearGradient>
<linearGradient id="paint2_linear_863_431" x1="48.5" y1="325.425" x2="48.5" y2="333.456" gradientUnits="userSpaceOnUse">
<stop stop-color="#2D2D2D"/>
<stop offset="1" stop-color="#242424"/>
</linearGradient>
<linearGradient id="paint3_linear_863_431" x1="48.5" y1="244.907" x2="48.5" y2="252.938" gradientUnits="userSpaceOnUse">
<stop stop-color="#2D2D2D"/>
<stop offset="1" stop-color="#242424"/>
</linearGradient>
</defs>
</svg>
