<svg width="379" height="700" viewBox="0 0 379 700" fill="none" xmlns="http://www.w3.org/2000/svg">
<path d="M0 0H379V607H0V0Z" fill="url(#paint0_linear_863_431)"/>
<path d="M0 0H379V700H0V0Z" fill="url(#paint1_linear_863_431)"/>
<path d="M77.184 313.816H78.752L83.216 325H81.552L80.432 322.216H75.488L74.4 325H72.72L77.184 313.816ZM79.984 320.856L77.968 315.624L75.952 320.856H79.984ZM86.8906 325.24C86.112 325.24 85.5093 325.016 85.0826 324.568C84.6666 324.12 84.4586 323.485 84.4586 322.664V318.568H83.2906V317.32H84.4586V315.016H86.0906V317.32H87.9786V318.568H86.0906V322.552C86.0906 323.064 86.1866 323.427 86.3786 323.64C86.5813 323.853 86.944 323.96 87.4666 323.96C87.776 323.96 88.0853 323.891 88.3946 323.752V325.032C87.9893 325.171 87.488 325.24 86.8906 325.24ZM98.7969 325.24C98.0182 325.24 97.4155 325.016 96.9889 324.568C96.5729 324.12 96.3649 323.485 96.3649 322.664V318.568H95.1969V317.32H96.3649V315.016H97.9969V317.32H99.8849V318.568H97.9969V322.552C97.9969 323.064 98.0929 323.427 98.2849 323.64C98.4875 323.853 98.8502 323.96 99.3729 323.96C99.6822 323.96 99.9915 323.891 100.301 323.752V325.032C99.8955 325.171 99.3942 325.24 98.7969 325.24ZM101.821 313.176H103.437V318.376C104.173 317.512 105.155 317.08 106.381 317.08C107.405 317.08 108.168 317.352 108.669 317.896C109.171 318.44 109.421 319.171 109.421 320.088V325H107.805V320.248C107.805 319 107.208 318.376 106.013 318.376C105.501 318.376 105.021 318.499 104.573 318.744C104.136 318.979 103.757 319.341 103.437 319.832V325H101.821V313.176ZM115.639 325.24C114.22 325.24 113.106 324.888 112.295 324.184C111.495 323.469 111.095 322.467 111.095 321.176C111.095 319.917 111.452 318.92 112.167 318.184C112.892 317.448 113.922 317.08 115.255 317.08C116.14 317.08 116.892 317.251 117.511 317.592C118.13 317.923 118.594 318.387 118.903 318.984C119.223 319.571 119.383 320.243 119.383 321V321.8H112.631C112.684 322.525 112.988 323.069 113.543 323.432C114.108 323.784 114.871 323.96 115.831 323.96C116.322 323.96 116.818 323.917 117.319 323.832C117.82 323.736 118.263 323.613 118.647 323.464V324.76C118.306 324.899 117.852 325.011 117.287 325.096C116.732 325.192 116.183 325.24 115.639 325.24ZM117.863 320.664C117.842 319.939 117.602 319.379 117.143 318.984C116.695 318.579 116.055 318.376 115.223 318.376C114.412 318.376 113.783 318.584 113.335 319C112.887 319.416 112.652 319.971 112.631 320.664H117.863ZM129.903 325.24C129.37 325.24 128.805 325.171 128.207 325.032C127.61 324.904 127.141 324.728 126.799 324.504V323.128C127.215 323.373 127.695 323.576 128.239 323.736C128.783 323.885 129.311 323.96 129.823 323.96C130.399 323.96 130.821 323.891 131.087 323.752C131.354 323.613 131.487 323.389 131.487 323.08C131.487 322.845 131.423 322.659 131.295 322.52C131.178 322.371 130.97 322.237 130.671 322.12C130.383 322.003 129.946 321.864 129.359 321.704C128.73 321.523 128.229 321.341 127.855 321.16C127.493 320.968 127.215 320.728 127.023 320.44C126.842 320.152 126.751 319.779 126.751 319.32C126.751 318.584 127.039 318.029 127.615 317.656C128.202 317.272 128.986 317.08 129.967 317.08C130.479 317.08 130.981 317.128 131.471 317.224C131.962 317.32 132.357 317.453 132.655 317.624V318.968C132.346 318.787 131.962 318.643 131.503 318.536C131.055 318.429 130.597 318.376 130.127 318.376C129.562 318.376 129.13 318.445 128.831 318.584C128.533 318.723 128.383 318.968 128.383 319.32C128.383 319.544 128.447 319.725 128.575 319.864C128.703 320.003 128.906 320.125 129.183 320.232C129.471 320.328 129.925 320.456 130.543 320.616C131.514 320.883 132.186 321.197 132.559 321.56C132.943 321.923 133.135 322.424 133.135 323.064C133.135 323.725 132.863 324.253 132.319 324.648C131.775 325.043 130.97 325.24 129.903 325.24ZM137.625 325.24C136.846 325.24 136.244 325.016 135.817 324.568C135.401 324.12 135.193 323.485 135.193 322.664V318.568H134.025V317.32H135.193V315.016H136.825V317.32H138.713V318.568H136.825V322.552C136.825 323.064 136.921 323.427 137.113 323.64C137.316 323.853 137.678 323.96 138.201 323.96C138.51 323.96 138.82 323.891 139.129 323.752V325.032C138.724 325.171 138.222 325.24 137.625 325.24ZM143.167 325.24C142.239 325.24 141.492 325.005 140.927 324.536C140.372 324.056 140.095 323.411 140.095 322.6C140.095 321.747 140.362 321.091 140.895 320.632C141.439 320.163 142.207 319.928 143.199 319.928C144.255 319.928 145.151 320.141 145.887 320.568V320.168C145.887 319.56 145.7 319.112 145.327 318.824C144.964 318.525 144.388 318.376 143.599 318.376C143.13 318.376 142.671 318.424 142.223 318.52C141.786 318.605 141.391 318.728 141.039 318.888V317.576C141.359 317.427 141.775 317.309 142.287 317.224C142.799 317.128 143.295 317.08 143.775 317.08C145.044 317.08 145.983 317.363 146.591 317.928C147.21 318.483 147.519 319.256 147.519 320.248V325H145.999V324.136C145.668 324.499 145.274 324.776 144.815 324.968C144.367 325.149 143.818 325.24 143.167 325.24ZM143.567 324.008C144.079 324.008 144.543 323.907 144.959 323.704C145.375 323.501 145.684 323.219 145.887 322.856V321.816C145.194 321.368 144.42 321.144 143.567 321.144C142.948 321.144 142.484 321.267 142.175 321.512C141.876 321.747 141.727 322.109 141.727 322.6C141.727 323.539 142.34 324.008 143.567 324.008ZM149.524 317.32H151.092V318.696C151.412 318.227 151.86 317.88 152.436 317.656C153.023 317.432 153.7 317.32 154.468 317.32V318.584C153.647 318.584 152.943 318.717 152.356 318.984C151.77 319.251 151.364 319.672 151.14 320.248V325H149.524V317.32ZM158.875 325.24C158.096 325.24 157.494 325.016 157.067 324.568C156.651 324.12 156.443 323.485 156.443 322.664V318.568H155.275V317.32H156.443V315.016H158.075V317.32H159.963V318.568H158.075V322.552C158.075 323.064 158.171 323.427 158.363 323.64C158.566 323.853 158.928 323.96 159.451 323.96C159.76 323.96 160.07 323.891 160.379 323.752V325.032C159.974 325.171 159.472 325.24 158.875 325.24ZM171.869 325.24C171.005 325.24 170.243 325.08 169.581 324.76C168.931 324.429 168.419 323.96 168.045 323.352C167.683 322.733 167.501 322.008 167.501 321.176C167.501 320.355 167.683 319.635 168.045 319.016C168.408 318.397 168.92 317.923 169.581 317.592C170.243 317.251 171.005 317.08 171.869 317.08C172.733 317.08 173.496 317.251 174.157 317.592C174.819 317.923 175.331 318.397 175.693 319.016C176.067 319.635 176.253 320.355 176.253 321.176C176.253 322.008 176.067 322.733 175.693 323.352C175.331 323.96 174.819 324.429 174.157 324.76C173.496 325.08 172.733 325.24 171.869 325.24ZM171.869 323.96C172.701 323.96 173.363 323.704 173.853 323.192C174.344 322.68 174.589 322.008 174.589 321.176C174.589 320.312 174.344 319.629 173.853 319.128C173.363 318.627 172.701 318.376 171.869 318.376C171.037 318.376 170.376 318.627 169.885 319.128C169.395 319.629 169.149 320.312 169.149 321.176C169.149 322.008 169.395 322.68 169.885 323.192C170.376 323.704 171.037 323.96 171.869 323.96ZM177.974 318.568H176.806V317.32H177.974V315.816C177.974 314.931 178.225 314.259 178.726 313.8C179.228 313.331 179.9 313.096 180.742 313.096C181.18 313.096 181.59 313.16 181.974 313.288V314.632C181.676 314.493 181.366 314.424 181.046 314.424C180.545 314.424 180.177 314.547 179.942 314.792C179.708 315.027 179.59 315.4 179.59 315.912V317.32H181.51V318.568H179.59V325H177.974V318.568ZM193.233 325.24C191.814 325.24 190.699 324.888 189.889 324.184C189.089 323.469 188.689 322.467 188.689 321.176C188.689 319.917 189.046 318.92 189.761 318.184C190.486 317.448 191.515 317.08 192.849 317.08C193.734 317.08 194.486 317.251 195.105 317.592C195.723 317.923 196.187 318.387 196.497 318.984C196.817 319.571 196.977 320.243 196.977 321V321.8H190.225C190.278 322.525 190.582 323.069 191.137 323.432C191.702 323.784 192.465 323.96 193.425 323.96C193.915 323.96 194.411 323.917 194.913 323.832C195.414 323.736 195.857 323.613 196.241 323.464V324.76C195.899 324.899 195.446 325.011 194.881 325.096C194.326 325.192 193.777 325.24 193.233 325.24ZM195.457 320.664C195.435 319.939 195.195 319.379 194.737 318.984C194.289 318.579 193.649 318.376 192.817 318.376C192.006 318.376 191.377 318.584 190.929 319C190.481 319.416 190.246 319.971 190.225 320.664H195.457ZM201.495 325.24C200.567 325.24 199.82 325.005 199.255 324.536C198.7 324.056 198.423 323.411 198.423 322.6C198.423 321.747 198.69 321.091 199.223 320.632C199.767 320.163 200.535 319.928 201.527 319.928C202.583 319.928 203.479 320.141 204.215 320.568V320.168C204.215 319.56 204.028 319.112 203.655 318.824C203.292 318.525 202.716 318.376 201.927 318.376C201.458 318.376 200.999 318.424 200.551 318.52C200.114 318.605 199.719 318.728 199.367 318.888V317.576C199.687 317.427 200.103 317.309 200.615 317.224C201.127 317.128 201.623 317.08 202.103 317.08C203.372 317.08 204.311 317.363 204.919 317.928C205.538 318.483 205.847 319.256 205.847 320.248V325H204.327V324.136C203.996 324.499 203.602 324.776 203.143 324.968C202.695 325.149 202.146 325.24 201.495 325.24ZM201.895 324.008C202.407 324.008 202.871 323.907 203.287 323.704C203.703 323.501 204.012 323.219 204.215 322.856V321.816C203.522 321.368 202.748 321.144 201.895 321.144C201.276 321.144 200.812 321.267 200.503 321.512C200.204 321.747 200.055 322.109 200.055 322.6C200.055 323.539 200.668 324.008 201.895 324.008ZM211.588 325.24C210.735 325.24 209.977 325.08 209.316 324.76C208.655 324.44 208.137 323.976 207.764 323.368C207.401 322.749 207.22 322.019 207.22 321.176C207.22 320.333 207.401 319.608 207.764 319C208.137 318.381 208.655 317.907 209.316 317.576C209.988 317.245 210.756 317.08 211.62 317.08C212.793 317.08 213.732 317.309 214.436 317.768V319.096C213.743 318.616 212.857 318.376 211.78 318.376C210.905 318.376 210.196 318.616 209.652 319.096C209.119 319.565 208.852 320.259 208.852 321.176C208.852 322.093 209.119 322.787 209.652 323.256C210.185 323.725 210.884 323.96 211.748 323.96C212.825 323.96 213.753 323.704 214.532 323.192V324.504C214.159 324.76 213.732 324.947 213.252 325.064C212.783 325.181 212.228 325.24 211.588 325.24ZM216.29 313.176H217.906V318.376C218.642 317.512 219.623 317.08 220.85 317.08C221.874 317.08 222.637 317.352 223.138 317.896C223.639 318.44 223.89 319.171 223.89 320.088V325H222.274V320.248C222.274 319 221.677 318.376 220.482 318.376C219.97 318.376 219.49 318.499 219.042 318.744C218.605 318.979 218.226 319.341 217.906 319.832V325H216.29V313.176ZM231.486 317.32H233.134L234.862 323.016L236.574 317.32H238.03L239.742 323.016L241.47 317.32H243.134L240.638 325H239.086L237.31 319.272L235.534 325H233.966L231.486 317.32ZM248.639 325.24C247.22 325.24 246.106 324.888 245.295 324.184C244.495 323.469 244.095 322.467 244.095 321.176C244.095 319.917 244.452 318.92 245.167 318.184C245.892 317.448 246.922 317.08 248.255 317.08C249.14 317.08 249.892 317.251 250.511 317.592C251.13 317.923 251.594 318.387 251.903 318.984C252.223 319.571 252.383 320.243 252.383 321V321.8H245.631C245.684 322.525 245.988 323.069 246.543 323.432C247.108 323.784 247.871 323.96 248.831 323.96C249.322 323.96 249.818 323.917 250.319 323.832C250.82 323.736 251.263 323.613 251.647 323.464V324.76C251.306 324.899 250.852 325.011 250.287 325.096C249.732 325.192 249.183 325.24 248.639 325.24ZM250.863 320.664C250.842 319.939 250.602 319.379 250.143 318.984C249.695 318.579 249.055 318.376 248.223 318.376C247.412 318.376 246.783 318.584 246.335 319C245.887 319.416 245.652 319.971 245.631 320.664H250.863ZM258.373 325.24C256.955 325.24 255.84 324.888 255.029 324.184C254.229 323.469 253.829 322.467 253.829 321.176C253.829 319.917 254.187 318.92 254.901 318.184C255.627 317.448 256.656 317.08 257.989 317.08C258.875 317.08 259.627 317.251 260.245 317.592C260.864 317.923 261.328 318.387 261.637 318.984C261.957 319.571 262.117 320.243 262.117 321V321.8H255.365C255.419 322.525 255.723 323.069 256.277 323.432C256.843 323.784 257.605 323.96 258.565 323.96C259.056 323.96 259.552 323.917 260.053 323.832C260.555 323.736 260.997 323.613 261.381 323.464V324.76C261.04 324.899 260.587 325.011 260.021 325.096C259.467 325.192 258.917 325.24 258.373 325.24ZM260.597 320.664C260.576 319.939 260.336 319.379 259.877 318.984C259.429 318.579 258.789 318.376 257.957 318.376C257.147 318.376 256.517 318.584 256.069 319C255.621 319.416 255.387 319.971 255.365 320.664H260.597ZM263.884 313.176H265.5V325H263.884V313.176ZM265.516 321.112L269.052 317.32H271.02L267.468 321.112L271.388 325H269.42L265.516 321.112ZM278.915 317.32H280.483V318.696C280.803 318.227 281.251 317.88 281.827 317.656C282.414 317.432 283.091 317.32 283.859 317.32V318.584C283.038 318.584 282.334 318.717 281.747 318.984C281.16 319.251 280.755 319.672 280.531 320.248V325H278.915V317.32ZM289.045 325.24C287.627 325.24 286.512 324.888 285.701 324.184C284.901 323.469 284.501 322.467 284.501 321.176C284.501 319.917 284.859 318.92 285.573 318.184C286.299 317.448 287.328 317.08 288.661 317.08C289.547 317.08 290.299 317.251 290.917 317.592C291.536 317.923 292 318.387 292.309 318.984C292.629 319.571 292.789 320.243 292.789 321V321.8H286.037C286.091 322.525 286.395 323.069 286.949 323.432C287.515 323.784 288.277 323.96 289.237 323.96C289.728 323.96 290.224 323.917 290.725 323.832C291.227 323.736 291.669 323.613 292.053 323.464V324.76C291.712 324.899 291.259 325.011 290.693 325.096C290.139 325.192 289.589 325.24 289.045 325.24ZM291.269 320.664C291.248 319.939 291.008 319.379 290.549 318.984C290.101 318.579 289.461 318.376 288.629 318.376C287.819 318.376 287.189 318.584 286.741 319C286.293 319.416 286.059 319.971 286.037 320.664H291.269ZM298.604 325.24C297.75 325.24 296.993 325.08 296.332 324.76C295.67 324.44 295.153 323.976 294.78 323.368C294.417 322.749 294.236 322.019 294.236 321.176C294.236 320.333 294.417 319.608 294.78 319C295.153 318.381 295.67 317.907 296.332 317.576C297.004 317.245 297.772 317.08 298.636 317.08C299.809 317.08 300.748 317.309 301.452 317.768V319.096C300.758 318.616 299.873 318.376 298.796 318.376C297.921 318.376 297.212 318.616 296.668 319.096C296.134 319.565 295.868 320.259 295.868 321.176C295.868 322.093 296.134 322.787 296.668 323.256C297.201 323.725 297.9 323.96 298.764 323.96C299.841 323.96 300.769 323.704 301.548 323.192V324.504C301.174 324.76 300.748 324.947 300.268 325.064C299.798 325.181 299.244 325.24 298.604 325.24ZM307.53 325.24C306.111 325.24 304.996 324.888 304.186 324.184C303.386 323.469 302.986 322.467 302.986 321.176C302.986 319.917 303.343 318.92 304.058 318.184C304.783 317.448 305.812 317.08 307.146 317.08C308.031 317.08 308.783 317.251 309.402 317.592C310.02 317.923 310.484 318.387 310.794 318.984C311.114 319.571 311.274 320.243 311.274 321V321.8H304.522C304.575 322.525 304.879 323.069 305.434 323.432C305.999 323.784 306.762 323.96 307.722 323.96C308.212 323.96 308.708 323.917 309.21 323.832C309.711 323.736 310.154 323.613 310.538 323.464V324.76C310.196 324.899 309.743 325.011 309.178 325.096C308.623 325.192 308.074 325.24 307.53 325.24ZM309.754 320.664C309.732 319.939 309.492 319.379 309.034 318.984C308.586 318.579 307.946 318.376 307.114 318.376C306.303 318.376 305.674 318.584 305.226 319C304.778 319.416 304.543 319.971 304.522 320.664H309.754ZM313.984 315.816C313.717 315.816 313.493 315.725 313.312 315.544C313.131 315.363 313.04 315.139 313.04 314.872C313.04 314.605 313.131 314.381 313.312 314.2C313.493 314.019 313.717 313.928 313.984 313.928C314.261 313.928 314.491 314.019 314.672 314.2C314.864 314.381 314.96 314.605 314.96 314.872C314.96 315.139 314.864 315.363 314.672 315.544C314.491 315.725 314.261 315.816 313.984 315.816ZM313.168 317.32H314.816V325H313.168V317.32ZM316.72 317.32H318.432L320.688 322.84L322.944 317.32H324.656L321.392 325H319.984L316.72 317.32ZM329.998 325.24C328.58 325.24 327.465 324.888 326.654 324.184C325.854 323.469 325.454 322.467 325.454 321.176C325.454 319.917 325.812 318.92 326.526 318.184C327.252 317.448 328.281 317.08 329.614 317.08C330.5 317.08 331.252 317.251 331.87 317.592C332.489 317.923 332.953 318.387 333.262 318.984C333.582 319.571 333.742 320.243 333.742 321V321.8H326.99C327.044 322.525 327.348 323.069 327.902 323.432C328.468 323.784 329.23 323.96 330.19 323.96C330.681 323.96 331.177 323.917 331.678 323.832C332.18 323.736 332.622 323.613 333.006 323.464V324.76C332.665 324.899 332.212 325.011 331.646 325.096C331.092 325.192 330.542 325.24 329.998 325.24ZM332.222 320.664C332.201 319.939 331.961 319.379 331.502 318.984C331.054 318.579 330.414 318.376 329.582 318.376C328.772 318.376 328.142 318.584 327.694 319C327.246 319.416 327.012 319.971 326.99 320.664H332.222ZM77.184 335.816H78.752L83.216 347H81.552L80.432 344.216H75.488L74.4 347H72.72L77.184 335.816ZM79.984 342.856L77.968 337.624L75.952 342.856H79.984ZM84.9775 335.816H86.6255V347H84.9775V335.816ZM98.7778 335.816H100.346L104.81 347H103.146L102.026 344.216H97.0818L95.9938 347H94.3138L98.7778 335.816ZM101.578 342.856L99.5618 337.624L97.5458 342.856H101.578ZM106.571 335.176H108.187V347H106.571V335.176ZM110.274 339.32H111.842V340.456C112.632 339.539 113.698 339.08 115.042 339.08C115.81 339.08 116.498 339.251 117.106 339.592C117.725 339.933 118.205 340.413 118.546 341.032C118.898 341.64 119.074 342.349 119.074 343.16C119.074 343.96 118.898 344.669 118.546 345.288C118.205 345.907 117.73 346.387 117.122 346.728C116.514 347.069 115.821 347.24 115.042 347.24C114.402 347.24 113.805 347.133 113.25 346.92C112.696 346.707 112.242 346.392 111.89 345.976V350.504H110.274V339.32ZM114.674 345.96C115.197 345.96 115.666 345.848 116.082 345.624C116.509 345.389 116.84 345.059 117.074 344.632C117.32 344.205 117.442 343.715 117.442 343.16C117.442 342.605 117.32 342.12 117.074 341.704C116.84 341.277 116.509 340.952 116.082 340.728C115.666 340.493 115.197 340.376 114.674 340.376C114.024 340.376 113.448 340.547 112.946 340.888C112.456 341.229 112.104 341.699 111.89 342.296V344.024C112.072 344.611 112.418 345.08 112.93 345.432C113.442 345.784 114.024 345.96 114.674 345.96ZM120.837 335.176H122.453V340.376C123.189 339.512 124.17 339.08 125.397 339.08C126.421 339.08 127.184 339.352 127.685 339.896C128.186 340.44 128.437 341.171 128.437 342.088V347H126.821V342.248C126.821 341 126.224 340.376 125.029 340.376C124.517 340.376 124.037 340.499 123.589 340.744C123.152 340.979 122.773 341.341 122.453 341.832V347H120.837V335.176ZM132.948 347.24C132.02 347.24 131.274 347.005 130.708 346.536C130.154 346.056 129.876 345.411 129.876 344.6C129.876 343.747 130.143 343.091 130.676 342.632C131.22 342.163 131.988 341.928 132.98 341.928C134.036 341.928 134.932 342.141 135.668 342.568V342.168C135.668 341.56 135.482 341.112 135.108 340.824C134.746 340.525 134.17 340.376 133.38 340.376C132.911 340.376 132.452 340.424 132.004 340.52C131.567 340.605 131.172 340.728 130.82 340.888V339.576C131.14 339.427 131.556 339.309 132.068 339.224C132.58 339.128 133.076 339.08 133.556 339.08C134.826 339.08 135.764 339.363 136.372 339.928C136.991 340.483 137.3 341.256 137.3 342.248V347H135.78V346.136C135.45 346.499 135.055 346.776 134.596 346.968C134.148 347.149 133.599 347.24 132.948 347.24ZM133.348 346.008C133.86 346.008 134.324 345.907 134.74 345.704C135.156 345.501 135.466 345.219 135.668 344.856V343.816C134.975 343.368 134.202 343.144 133.348 343.144C132.73 343.144 132.266 343.267 131.956 343.512C131.658 343.747 131.508 344.109 131.508 344.6C131.508 345.539 132.122 346.008 133.348 346.008ZM140.042 335.576H141.642L140.378 338.696H138.986L140.042 335.576ZM145.669 347.24C145.136 347.24 144.57 347.171 143.973 347.032C143.376 346.904 142.906 346.728 142.565 346.504V345.128C142.981 345.373 143.461 345.576 144.005 345.736C144.549 345.885 145.077 345.96 145.589 345.96C146.165 345.96 146.586 345.891 146.853 345.752C147.12 345.613 147.253 345.389 147.253 345.08C147.253 344.845 147.189 344.659 147.061 344.52C146.944 344.371 146.736 344.237 146.437 344.12C146.149 344.003 145.712 343.864 145.125 343.704C144.496 343.523 143.994 343.341 143.621 343.16C143.258 342.968 142.981 342.728 142.789 342.44C142.608 342.152 142.517 341.779 142.517 341.32C142.517 340.584 142.805 340.029 143.381 339.656C143.968 339.272 144.752 339.08 145.733 339.08C146.245 339.08 146.746 339.128 147.237 339.224C147.728 339.32 148.122 339.453 148.421 339.624V340.968C148.112 340.787 147.728 340.643 147.269 340.536C146.821 340.429 146.362 340.376 145.893 340.376C145.328 340.376 144.896 340.445 144.597 340.584C144.298 340.723 144.149 340.968 144.149 341.32C144.149 341.544 144.213 341.725 144.341 341.864C144.469 342.003 144.672 342.125 144.949 342.232C145.237 342.328 145.69 342.456 146.309 342.616C147.28 342.883 147.952 343.197 148.325 343.56C148.709 343.923 148.901 344.424 148.901 345.064C148.901 345.725 148.629 346.253 148.085 346.648C147.541 347.043 146.736 347.24 145.669 347.24ZM159.419 347.24C158.886 347.24 158.32 347.171 157.723 347.032C157.126 346.904 156.656 346.728 156.315 346.504V345.128C156.731 345.373 157.211 345.576 157.755 345.736C158.299 345.885 158.827 345.96 159.339 345.96C159.915 345.96 160.336 345.891 160.603 345.752C160.87 345.613 161.003 345.389 161.003 345.08C161.003 344.845 160.939 344.659 160.811 344.52C160.694 344.371 160.486 344.237 160.187 344.12C159.899 344.003 159.462 343.864 158.875 343.704C158.246 343.523 157.744 343.341 157.371 343.16C157.008 342.968 156.731 342.728 156.539 342.44C156.358 342.152 156.267 341.779 156.267 341.32C156.267 340.584 156.555 340.029 157.131 339.656C157.718 339.272 158.502 339.08 159.483 339.08C159.995 339.08 160.496 339.128 160.987 339.224C161.478 339.32 161.872 339.453 162.171 339.624V340.968C161.862 340.787 161.478 340.643 161.019 340.536C160.571 340.429 160.112 340.376 159.643 340.376C159.078 340.376 158.646 340.445 158.347 340.584C158.048 340.723 157.899 340.968 157.899 341.32C157.899 341.544 157.963 341.725 158.091 341.864C158.219 342.003 158.422 342.125 158.699 342.232C158.987 342.328 159.44 342.456 160.059 342.616C161.03 342.883 161.702 343.197 162.075 343.56C162.459 343.923 162.651 344.424 162.651 345.064C162.651 345.725 162.379 346.253 161.835 346.648C161.291 347.043 160.486 347.24 159.419 347.24ZM167.471 347.24C166.436 347.24 165.652 346.963 165.119 346.408C164.596 345.853 164.335 345.112 164.335 344.184V339.32H165.951V344.12C165.951 345.347 166.564 345.96 167.791 345.96C168.868 345.96 169.711 345.475 170.319 344.504V339.32H171.935V347H170.367V345.912C170.004 346.371 169.572 346.707 169.071 346.92C168.58 347.133 168.047 347.24 167.471 347.24ZM174.009 339.32H175.577V340.456C176.366 339.539 177.433 339.08 178.777 339.08C179.545 339.08 180.233 339.251 180.841 339.592C181.459 339.933 181.939 340.413 182.281 341.032C182.633 341.64 182.809 342.349 182.809 343.16C182.809 343.96 182.633 344.669 182.281 345.288C181.939 345.907 181.465 346.387 180.857 346.728C180.249 347.069 179.555 347.24 178.777 347.24C178.137 347.24 177.539 347.133 176.985 346.92C176.43 346.707 175.977 346.392 175.625 345.976V350.504H174.009V339.32ZM178.409 345.96C178.931 345.96 179.401 345.848 179.817 345.624C180.243 345.389 180.574 345.059 180.809 344.632C181.054 344.205 181.177 343.715 181.177 343.16C181.177 342.605 181.054 342.12 180.809 341.704C180.574 341.277 180.243 340.952 179.817 340.728C179.401 340.493 178.931 340.376 178.409 340.376C177.758 340.376 177.182 340.547 176.681 340.888C176.19 341.229 175.838 341.699 175.625 342.296V344.024C175.806 344.611 176.153 345.08 176.665 345.432C177.177 345.784 177.758 345.96 178.409 345.96ZM184.571 339.32H186.139V340.456C186.929 339.539 187.995 339.08 189.339 339.08C190.107 339.08 190.795 339.251 191.403 339.592C192.022 339.933 192.502 340.413 192.843 341.032C193.195 341.64 193.371 342.349 193.371 343.16C193.371 343.96 193.195 344.669 192.843 345.288C192.502 345.907 192.027 346.387 191.419 346.728C190.811 347.069 190.118 347.24 189.339 347.24C188.699 347.24 188.102 347.133 187.547 346.92C186.993 346.707 186.539 346.392 186.187 345.976V350.504H184.571V339.32ZM188.971 345.96C189.494 345.96 189.963 345.848 190.379 345.624C190.806 345.389 191.137 345.059 191.371 344.632C191.617 344.205 191.739 343.715 191.739 343.16C191.739 342.605 191.617 342.12 191.371 341.704C191.137 341.277 190.806 340.952 190.379 340.728C189.963 340.493 189.494 340.376 188.971 340.376C188.321 340.376 187.745 340.547 187.243 340.888C186.753 341.229 186.401 341.699 186.187 342.296V344.024C186.369 344.611 186.715 345.08 187.227 345.432C187.739 345.784 188.321 345.96 188.971 345.96ZM198.776 347.24C197.912 347.24 197.149 347.08 196.488 346.76C195.837 346.429 195.325 345.96 194.952 345.352C194.589 344.733 194.408 344.008 194.408 343.176C194.408 342.355 194.589 341.635 194.952 341.016C195.314 340.397 195.826 339.923 196.488 339.592C197.149 339.251 197.912 339.08 198.776 339.08C199.64 339.08 200.402 339.251 201.064 339.592C201.725 339.923 202.237 340.397 202.6 341.016C202.973 341.635 203.16 342.355 203.16 343.176C203.16 344.008 202.973 344.733 202.6 345.352C202.237 345.96 201.725 346.429 201.064 346.76C200.402 347.08 199.64 347.24 198.776 347.24ZM198.776 345.96C199.608 345.96 200.269 345.704 200.76 345.192C201.25 344.68 201.496 344.008 201.496 343.176C201.496 342.312 201.25 341.629 200.76 341.128C200.269 340.627 199.608 340.376 198.776 340.376C197.944 340.376 197.282 340.627 196.792 341.128C196.301 341.629 196.056 342.312 196.056 343.176C196.056 344.008 196.301 344.68 196.792 345.192C197.282 345.704 197.944 345.96 198.776 345.96ZM204.915 339.32H206.483V340.696C206.803 340.227 207.251 339.88 207.827 339.656C208.414 339.432 209.091 339.32 209.859 339.32V340.584C209.038 340.584 208.334 340.717 207.747 340.984C207.16 341.251 206.755 341.672 206.531 342.248V347H204.915V339.32ZM214.266 347.24C213.487 347.24 212.884 347.016 212.458 346.568C212.042 346.12 211.834 345.485 211.834 344.664V340.568H210.666V339.32H211.834V337.016H213.466V339.32H215.354V340.568H213.466V344.552C213.466 345.064 213.562 345.427 213.754 345.64C213.956 345.853 214.319 345.96 214.842 345.96C215.151 345.96 215.46 345.891 215.77 345.752V347.032C215.364 347.171 214.863 347.24 214.266 347.24ZM225.964 347.24C225.036 347.24 224.289 347.005 223.724 346.536C223.169 346.056 222.892 345.411 222.892 344.6C222.892 343.747 223.159 343.091 223.692 342.632C224.236 342.163 225.004 341.928 225.996 341.928C227.052 341.928 227.948 342.141 228.684 342.568V342.168C228.684 341.56 228.497 341.112 228.124 340.824C227.761 340.525 227.185 340.376 226.396 340.376C225.927 340.376 225.468 340.424 225.02 340.52C224.583 340.605 224.188 340.728 223.836 340.888V339.576C224.156 339.427 224.572 339.309 225.084 339.224C225.596 339.128 226.092 339.08 226.572 339.08C227.841 339.08 228.78 339.363 229.388 339.928C230.007 340.483 230.316 341.256 230.316 342.248V347H228.796V346.136C228.465 346.499 228.071 346.776 227.612 346.968C227.164 347.149 226.615 347.24 225.964 347.24ZM226.364 346.008C226.876 346.008 227.34 345.907 227.756 345.704C228.172 345.501 228.481 345.219 228.684 344.856V343.816C227.991 343.368 227.217 343.144 226.364 343.144C225.745 343.144 225.281 343.267 224.972 343.512C224.673 343.747 224.524 344.109 224.524 344.6C224.524 345.539 225.137 346.008 226.364 346.008ZM232.321 339.32H233.889V340.424C234.252 339.965 234.695 339.629 235.217 339.416C235.751 339.192 236.305 339.08 236.881 339.08C237.905 339.08 238.668 339.352 239.169 339.896C239.671 340.44 239.921 341.171 239.921 342.088V347H238.305V342.248C238.305 341 237.708 340.376 236.513 340.376C236.001 340.376 235.521 340.499 235.073 340.744C234.636 340.979 234.257 341.341 233.937 341.832V347H232.321V339.32ZM245.627 347.24C244.859 347.24 244.166 347.075 243.547 346.744C242.939 346.403 242.459 345.928 242.107 345.32C241.766 344.701 241.595 343.987 241.595 343.176C241.595 342.376 241.766 341.667 242.107 341.048C242.459 340.429 242.939 339.949 243.547 339.608C244.166 339.256 244.859 339.08 245.627 339.08C247.014 339.08 248.064 339.501 248.779 340.344V335.176H250.395V347H248.827V345.88C248.4 346.349 247.931 346.696 247.419 346.92C246.918 347.133 246.32 347.24 245.627 347.24ZM245.995 345.96C246.656 345.96 247.232 345.789 247.723 345.448C248.224 345.096 248.576 344.627 248.779 344.04V342.312C248.598 341.725 248.251 341.256 247.739 340.904C247.238 340.552 246.656 340.376 245.995 340.376C245.472 340.376 244.998 340.493 244.571 340.728C244.155 340.963 243.824 341.293 243.579 341.72C243.344 342.147 243.227 342.632 243.227 343.176C243.227 343.72 243.344 344.205 243.579 344.632C243.824 345.059 244.155 345.389 244.571 345.624C244.998 345.848 245.472 345.96 245.995 345.96ZM258.399 339.32H259.967V340.696C260.287 340.227 260.735 339.88 261.311 339.656C261.898 339.432 262.575 339.32 263.343 339.32V340.584C262.522 340.584 261.818 340.717 261.231 340.984C260.645 341.251 260.239 341.672 260.015 342.248V347H258.399V339.32ZM268.53 347.24C267.111 347.24 265.996 346.888 265.186 346.184C264.386 345.469 263.986 344.467 263.986 343.176C263.986 341.917 264.343 340.92 265.058 340.184C265.783 339.448 266.812 339.08 268.146 339.08C269.031 339.08 269.783 339.251 270.402 339.592C271.02 339.923 271.484 340.387 271.794 340.984C272.114 341.571 272.274 342.243 272.274 343V343.8H265.522C265.575 344.525 265.879 345.069 266.434 345.432C266.999 345.784 267.762 345.96 268.722 345.96C269.212 345.96 269.708 345.917 270.21 345.832C270.711 345.736 271.154 345.613 271.538 345.464V346.76C271.196 346.899 270.743 347.011 270.178 347.096C269.623 347.192 269.074 347.24 268.53 347.24ZM270.754 342.664C270.732 341.939 270.492 341.379 270.034 340.984C269.586 340.579 268.946 340.376 268.114 340.376C267.303 340.376 266.674 340.584 266.226 341C265.778 341.416 265.543 341.971 265.522 342.664H270.754ZM276.872 347.24C276.339 347.24 275.773 347.171 275.176 347.032C274.579 346.904 274.109 346.728 273.768 346.504V345.128C274.184 345.373 274.664 345.576 275.208 345.736C275.752 345.885 276.28 345.96 276.792 345.96C277.368 345.96 277.789 345.891 278.056 345.752C278.323 345.613 278.456 345.389 278.456 345.08C278.456 344.845 278.392 344.659 278.264 344.52C278.147 344.371 277.939 344.237 277.64 344.12C277.352 344.003 276.915 343.864 276.328 343.704C275.699 343.523 275.197 343.341 274.824 343.16C274.461 342.968 274.184 342.728 273.992 342.44C273.811 342.152 273.72 341.779 273.72 341.32C273.72 340.584 274.008 340.029 274.584 339.656C275.171 339.272 275.955 339.08 276.936 339.08C277.448 339.08 277.949 339.128 278.44 339.224C278.931 339.32 279.325 339.453 279.624 339.624V340.968C279.315 340.787 278.931 340.643 278.472 340.536C278.024 340.429 277.565 340.376 277.096 340.376C276.531 340.376 276.099 340.445 275.8 340.584C275.501 340.723 275.352 340.968 275.352 341.32C275.352 341.544 275.416 341.725 275.544 341.864C275.672 342.003 275.875 342.125 276.152 342.232C276.44 342.328 276.893 342.456 277.512 342.616C278.483 342.883 279.155 343.197 279.528 343.56C279.912 343.923 280.104 344.424 280.104 345.064C280.104 345.725 279.832 346.253 279.288 346.648C278.744 347.043 277.939 347.24 276.872 347.24ZM282.812 337.816C282.545 337.816 282.321 337.725 282.14 337.544C281.959 337.363 281.868 337.139 281.868 336.872C281.868 336.605 281.959 336.381 282.14 336.2C282.321 336.019 282.545 335.928 282.812 335.928C283.089 335.928 283.319 336.019 283.5 336.2C283.692 336.381 283.788 336.605 283.788 336.872C283.788 337.139 283.692 337.363 283.5 337.544C283.319 337.725 283.089 337.816 282.812 337.816ZM281.996 339.32H283.644V347H281.996V339.32ZM288.7 347.24C288.167 347.24 287.601 347.171 287.004 347.032C286.407 346.904 285.937 346.728 285.596 346.504V345.128C286.012 345.373 286.492 345.576 287.036 345.736C287.58 345.885 288.108 345.96 288.62 345.96C289.196 345.96 289.617 345.891 289.884 345.752C290.151 345.613 290.284 345.389 290.284 345.08C290.284 344.845 290.22 344.659 290.092 344.52C289.975 344.371 289.767 344.237 289.468 344.12C289.18 344.003 288.743 343.864 288.156 343.704C287.527 343.523 287.025 343.341 286.652 343.16C286.289 342.968 286.012 342.728 285.82 342.44C285.639 342.152 285.548 341.779 285.548 341.32C285.548 340.584 285.836 340.029 286.412 339.656C286.999 339.272 287.783 339.08 288.764 339.08C289.276 339.08 289.777 339.128 290.268 339.224C290.759 339.32 291.153 339.453 291.452 339.624V340.968C291.143 340.787 290.759 340.643 290.3 340.536C289.852 340.429 289.393 340.376 288.924 340.376C288.359 340.376 287.927 340.445 287.628 340.584C287.329 340.723 287.18 340.968 287.18 341.32C287.18 341.544 287.244 341.725 287.372 341.864C287.5 342.003 287.703 342.125 287.98 342.232C288.268 342.328 288.721 342.456 289.34 342.616C290.311 342.883 290.983 343.197 291.356 343.56C291.74 343.923 291.932 344.424 291.932 345.064C291.932 345.725 291.66 346.253 291.116 346.648C290.572 347.043 289.767 347.24 288.7 347.24ZM296.422 347.24C295.643 347.24 295.041 347.016 294.614 346.568C294.198 346.12 293.99 345.485 293.99 344.664V340.568H292.822V339.32H293.99V337.016H295.622V339.32H297.51V340.568H295.622V344.552C295.622 345.064 295.718 345.427 295.91 345.64C296.113 345.853 296.475 345.96 296.998 345.96C297.307 345.96 297.617 345.891 297.926 345.752V347.032C297.521 347.171 297.019 347.24 296.422 347.24ZM301.964 347.24C301.036 347.24 300.289 347.005 299.724 346.536C299.169 346.056 298.892 345.411 298.892 344.6C298.892 343.747 299.159 343.091 299.692 342.632C300.236 342.163 301.004 341.928 301.996 341.928C303.052 341.928 303.948 342.141 304.684 342.568V342.168C304.684 341.56 304.497 341.112 304.124 340.824C303.761 340.525 303.185 340.376 302.396 340.376C301.927 340.376 301.468 340.424 301.02 340.52C300.583 340.605 300.188 340.728 299.836 340.888V339.576C300.156 339.427 300.572 339.309 301.084 339.224C301.596 339.128 302.092 339.08 302.572 339.08C303.841 339.08 304.78 339.363 305.388 339.928C306.007 340.483 306.316 341.256 306.316 342.248V347H304.796V346.136C304.465 346.499 304.071 346.776 303.612 346.968C303.164 347.149 302.615 347.24 301.964 347.24ZM302.364 346.008C302.876 346.008 303.34 345.907 303.756 345.704C304.172 345.501 304.481 345.219 304.684 344.856V343.816C303.991 343.368 303.217 343.144 302.364 343.144C301.745 343.144 301.281 343.267 300.972 343.512C300.673 343.747 300.524 344.109 300.524 344.6C300.524 345.539 301.137 346.008 302.364 346.008ZM308.321 339.32H309.889V340.424C310.252 339.965 310.695 339.629 311.217 339.416C311.751 339.192 312.305 339.08 312.881 339.08C313.905 339.08 314.668 339.352 315.169 339.896C315.671 340.44 315.921 341.171 315.921 342.088V347H314.305V342.248C314.305 341 313.708 340.376 312.513 340.376C312.001 340.376 311.521 340.499 311.073 340.744C310.636 340.979 310.257 341.341 309.937 341.832V347H308.321V339.32ZM321.963 347.24C321.11 347.24 320.352 347.08 319.691 346.76C319.03 346.44 318.512 345.976 318.139 345.368C317.776 344.749 317.595 344.019 317.595 343.176C317.595 342.333 317.776 341.608 318.139 341C318.512 340.381 319.03 339.907 319.691 339.576C320.363 339.245 321.131 339.08 321.995 339.08C323.168 339.08 324.107 339.309 324.811 339.768V341.096C324.118 340.616 323.232 340.376 322.155 340.376C321.28 340.376 320.571 340.616 320.027 341.096C319.494 341.565 319.227 342.259 319.227 343.176C319.227 344.093 319.494 344.787 320.027 345.256C320.56 345.725 321.259 345.96 322.123 345.96C323.2 345.96 324.128 345.704 324.907 345.192V346.504C324.534 346.76 324.107 346.947 323.627 347.064C323.158 347.181 322.603 347.24 321.963 347.24ZM330.889 347.24C329.47 347.24 328.356 346.888 327.545 346.184C326.745 345.469 326.345 344.467 326.345 343.176C326.345 341.917 326.702 340.92 327.417 340.184C328.142 339.448 329.172 339.08 330.505 339.08C331.39 339.08 332.142 339.251 332.761 339.592C333.38 339.923 333.844 340.387 334.153 340.984C334.473 341.571 334.633 342.243 334.633 343V343.8H327.881C327.934 344.525 328.238 345.069 328.793 345.432C329.358 345.784 330.121 345.96 331.081 345.96C331.572 345.96 332.068 345.917 332.569 345.832C333.07 345.736 333.513 345.613 333.897 345.464V346.76C333.556 346.899 333.102 347.011 332.537 347.096C331.982 347.192 331.433 347.24 330.889 347.24ZM333.113 342.664C333.092 341.939 332.852 341.379 332.393 340.984C331.945 340.579 331.305 340.376 330.473 340.376C329.662 340.376 329.033 340.584 328.585 341C328.137 341.416 327.902 341.971 327.881 342.664H333.113ZM73.04 357.176H74.656V369H73.04V357.176ZM77.6871 359.816C77.4205 359.816 77.1965 359.725 77.0151 359.544C76.8338 359.363 76.7431 359.139 76.7431 358.872C76.7431 358.605 76.8338 358.381 77.0151 358.2C77.1965 358.019 77.4205 357.928 77.6871 357.928C77.9645 357.928 78.1938 358.019 78.3751 358.2C78.5671 358.381 78.6631 358.605 78.6631 358.872C78.6631 359.139 78.5671 359.363 78.3751 359.544C78.1938 359.725 77.9645 359.816 77.6871 359.816ZM76.8711 361.32H78.5191V369H76.8711V361.32ZM80.7431 361.32H82.3111V362.424C82.6738 361.965 83.1165 361.629 83.6391 361.416C84.1725 361.192 84.7271 361.08 85.3031 361.08C86.3271 361.08 87.0898 361.352 87.5911 361.896C88.0925 362.44 88.3431 363.171 88.3431 364.088V369H86.7271V364.248C86.7271 363 86.1298 362.376 84.9351 362.376C84.4231 362.376 83.9431 362.499 83.4951 362.744C83.0578 362.979 82.6791 363.341 82.3591 363.832V369H80.7431V361.32ZM94.5609 369.24C93.1422 369.24 92.0275 368.888 91.2169 368.184C90.4169 367.469 90.0169 366.467 90.0169 365.176C90.0169 363.917 90.3742 362.92 91.0889 362.184C91.8142 361.448 92.8435 361.08 94.1769 361.08C95.0622 361.08 95.8142 361.251 96.4329 361.592C97.0515 361.923 97.5155 362.387 97.8249 362.984C98.1449 363.571 98.3049 364.243 98.3049 365V365.8H91.5529C91.6062 366.525 91.9102 367.069 92.4649 367.432C93.0302 367.784 93.7929 367.96 94.7529 367.96C95.2435 367.96 95.7395 367.917 96.2409 367.832C96.7422 367.736 97.1849 367.613 97.5689 367.464V368.76C97.2275 368.899 96.7742 369.011 96.2089 369.096C95.6542 369.192 95.1049 369.24 94.5609 369.24ZM96.7849 364.664C96.7635 363.939 96.5235 363.379 96.0649 362.984C95.6169 362.579 94.9769 362.376 94.1449 362.376C93.3342 362.376 92.7049 362.584 92.2569 363C91.8089 363.416 91.5742 363.971 91.5529 364.664H96.7849ZM102.903 369.24C102.37 369.24 101.805 369.171 101.207 369.032C100.61 368.904 100.141 368.728 99.7993 368.504V367.128C100.215 367.373 100.695 367.576 101.239 367.736C101.783 367.885 102.311 367.96 102.823 367.96C103.399 367.96 103.821 367.891 104.087 367.752C104.354 367.613 104.487 367.389 104.487 367.08C104.487 366.845 104.423 366.659 104.295 366.52C104.178 366.371 103.97 366.237 103.671 366.12C103.383 366.003 102.946 365.864 102.359 365.704C101.73 365.523 101.229 365.341 100.855 365.16C100.493 364.968 100.215 364.728 100.023 364.44C99.8419 364.152 99.7513 363.779 99.7513 363.32C99.7513 362.584 100.039 362.029 100.615 361.656C101.202 361.272 101.986 361.08 102.967 361.08C103.479 361.08 103.981 361.128 104.471 361.224C104.962 361.32 105.357 361.453 105.655 361.624V362.968C105.346 362.787 104.962 362.643 104.503 362.536C104.055 362.429 103.597 362.376 103.127 362.376C102.562 362.376 102.13 362.445 101.831 362.584C101.533 362.723 101.383 362.968 101.383 363.32C101.383 363.544 101.447 363.725 101.575 363.864C101.703 364.003 101.906 364.125 102.183 364.232C102.471 364.328 102.925 364.456 103.543 364.616C104.514 364.883 105.186 365.197 105.559 365.56C105.943 365.923 106.135 366.424 106.135 367.064C106.135 367.725 105.863 368.253 105.319 368.648C104.775 369.043 103.97 369.24 102.903 369.24ZM114.349 362.568H113.181V361.32H114.349V359.816C114.349 358.931 114.6 358.259 115.101 357.8C115.603 357.331 116.275 357.096 117.117 357.096C117.555 357.096 117.965 357.16 118.349 357.288V358.632C118.051 358.493 117.741 358.424 117.421 358.424C116.92 358.424 116.552 358.547 116.317 358.792C116.083 359.027 115.965 359.4 115.965 359.912V361.32H117.885V362.568H115.965V369H114.349V362.568ZM122.947 369.24C122.083 369.24 121.321 369.08 120.659 368.76C120.009 368.429 119.497 367.96 119.123 367.352C118.761 366.733 118.579 366.008 118.579 365.176C118.579 364.355 118.761 363.635 119.123 363.016C119.486 362.397 119.998 361.923 120.659 361.592C121.321 361.251 122.083 361.08 122.947 361.08C123.811 361.08 124.574 361.251 125.235 361.592C125.897 361.923 126.409 362.397 126.771 363.016C127.145 363.635 127.331 364.355 127.331 365.176C127.331 366.008 127.145 366.733 126.771 367.352C126.409 367.96 125.897 368.429 125.235 368.76C124.574 369.08 123.811 369.24 122.947 369.24ZM122.947 367.96C123.779 367.96 124.441 367.704 124.931 367.192C125.422 366.68 125.667 366.008 125.667 365.176C125.667 364.312 125.422 363.629 124.931 363.128C124.441 362.627 123.779 362.376 122.947 362.376C122.115 362.376 121.454 362.627 120.963 363.128C120.473 363.629 120.227 364.312 120.227 365.176C120.227 366.008 120.473 366.68 120.963 367.192C121.454 367.704 122.115 367.96 122.947 367.96ZM129.087 361.32H130.655V362.696C130.975 362.227 131.423 361.88 131.999 361.656C132.586 361.432 133.263 361.32 134.031 361.32V362.584C133.21 362.584 132.506 362.717 131.919 362.984C131.332 363.251 130.927 363.672 130.703 364.248V369H129.087V361.32ZM141.399 357.816H146.535C147.527 357.816 148.295 358.072 148.839 358.584C149.383 359.096 149.655 359.843 149.655 360.824C149.655 361.379 149.522 361.869 149.255 362.296C148.999 362.712 148.658 363.021 148.231 363.224C149.426 363.576 150.023 364.445 150.023 365.832C150.023 366.483 149.879 367.048 149.591 367.528C149.314 367.997 148.93 368.36 148.439 368.616C147.949 368.872 147.405 369 146.807 369H141.399V357.816ZM146.327 362.616C146.85 362.616 147.261 362.472 147.559 362.184C147.858 361.896 148.007 361.469 148.007 360.904C148.007 360.253 147.858 359.8 147.559 359.544C147.271 359.277 146.823 359.144 146.215 359.144H143.031V362.616H146.327ZM146.439 367.672C147.069 367.672 147.549 367.533 147.879 367.256C148.21 366.979 148.375 366.504 148.375 365.832C148.375 365.16 148.199 364.68 147.847 364.392C147.506 364.104 146.989 363.96 146.295 363.96H143.031V367.672H146.439ZM154.216 359.192H150.744V357.816H159.336V359.192H155.864V369H154.216V359.192ZM165.499 369.24C164.347 369.24 163.323 369 162.427 368.52C161.531 368.04 160.833 367.363 160.331 366.488C159.83 365.603 159.579 364.579 159.579 363.416C159.579 362.253 159.83 361.229 160.331 360.344C160.833 359.459 161.531 358.776 162.427 358.296C163.323 357.816 164.347 357.576 165.499 357.576C167.035 357.576 168.321 357.965 169.355 358.744V360.312C168.427 359.491 167.19 359.08 165.643 359.08C164.779 359.08 164.011 359.256 163.339 359.608C162.678 359.96 162.161 360.467 161.787 361.128C161.414 361.779 161.227 362.541 161.227 363.416C161.227 364.291 161.414 365.059 161.787 365.72C162.171 366.381 162.694 366.888 163.355 367.24C164.027 367.592 164.79 367.768 165.643 367.768C166.433 367.768 167.137 367.667 167.755 367.464C168.385 367.251 168.966 366.915 169.499 366.456V368.04C168.539 368.84 167.206 369.24 165.499 369.24ZM171.691 369C171.477 369 171.296 368.931 171.147 368.792C171.008 368.643 170.939 368.461 170.939 368.248C170.939 368.035 171.008 367.853 171.147 367.704C171.296 367.555 171.477 367.48 171.691 367.48C171.904 367.48 172.085 367.555 172.235 367.704C172.384 367.853 172.459 368.035 172.459 368.248C172.459 368.461 172.384 368.643 172.235 368.792C172.085 368.931 171.904 369 171.691 369Z" fill="#FAFAF9"/>
<ellipse cx="48.5" cy="330.244" rx="10.5" ry="11.2435" fill="#D9D9D9"/>
<path d="M43 329.709L46.5 333.457L54 325.426" stroke="url(#paint2_linear_863_431)" stroke-width="2"/>
<path d="M73.04 233.816H77.536C78.7307 233.816 79.648 234.104 80.288 234.68C80.928 235.256 81.248 236.099 81.248 237.208C81.248 238.029 81.0293 238.728 80.592 239.304C80.1547 239.869 79.536 240.253 78.736 240.456L81.2 245H79.504L77.12 240.584H74.672V245H73.04V233.816ZM77.264 239.208C77.9787 239.208 78.544 239.043 78.96 238.712C79.3867 238.371 79.6 237.869 79.6 237.208C79.6 236.483 79.392 235.965 78.976 235.656C78.5707 235.347 78 235.192 77.264 235.192H74.672V239.208H77.264ZM86.5921 245.24C85.1735 245.24 84.0588 244.888 83.2481 244.184C82.4481 243.469 82.0481 242.467 82.0481 241.176C82.0481 239.917 82.4055 238.92 83.1201 238.184C83.8455 237.448 84.8748 237.08 86.2081 237.08C87.0935 237.08 87.8455 237.251 88.4641 237.592C89.0828 237.923 89.5468 238.387 89.8561 238.984C90.1761 239.571 90.3361 240.243 90.3361 241V241.8H83.5841C83.6375 242.525 83.9415 243.069 84.4961 243.432C85.0615 243.784 85.8241 243.96 86.7841 243.96C87.2748 243.96 87.7708 243.917 88.2721 243.832C88.7735 243.736 89.2161 243.613 89.6001 243.464V244.76C89.2588 244.899 88.8055 245.011 88.2401 245.096C87.6855 245.192 87.1361 245.24 86.5921 245.24ZM88.8161 240.664C88.7948 239.939 88.5548 239.379 88.0961 238.984C87.6481 238.579 87.0081 238.376 86.1761 238.376C85.3655 238.376 84.7361 238.584 84.2881 239C83.8401 239.416 83.6055 239.971 83.5841 240.664H88.8161ZM96.1505 245.24C95.2972 245.24 94.5398 245.08 93.8785 244.76C93.2172 244.44 92.6998 243.976 92.3265 243.368C91.9638 242.749 91.7825 242.019 91.7825 241.176C91.7825 240.333 91.9638 239.608 92.3265 239C92.6998 238.381 93.2172 237.907 93.8785 237.576C94.5505 237.245 95.3185 237.08 96.1825 237.08C97.3558 237.08 98.2945 237.309 98.9985 237.768V239.096C98.3052 238.616 97.4198 238.376 96.3425 238.376C95.4678 238.376 94.7585 238.616 94.2145 239.096C93.6812 239.565 93.4145 240.259 93.4145 241.176C93.4145 242.093 93.6812 242.787 94.2145 243.256C94.7478 243.725 95.4465 243.96 96.3105 243.96C97.3878 243.96 98.3158 243.704 99.0945 243.192V244.504C98.7212 244.76 98.2945 244.947 97.8145 245.064C97.3452 245.181 96.7905 245.24 96.1505 245.24ZM105.077 245.24C103.658 245.24 102.543 244.888 101.733 244.184C100.933 243.469 100.533 242.467 100.533 241.176C100.533 239.917 100.89 238.92 101.605 238.184C102.33 237.448 103.359 237.08 104.693 237.08C105.578 237.08 106.33 237.251 106.949 237.592C107.567 237.923 108.031 238.387 108.341 238.984C108.661 239.571 108.821 240.243 108.821 241V241.8H102.069C102.122 242.525 102.426 243.069 102.981 243.432C103.546 243.784 104.309 243.96 105.269 243.96C105.759 243.96 106.255 243.917 106.757 243.832C107.258 243.736 107.701 243.613 108.085 243.464V244.76C107.743 244.899 107.29 245.011 106.725 245.096C106.17 245.192 105.621 245.24 105.077 245.24ZM107.301 240.664C107.279 239.939 107.039 239.379 106.581 238.984C106.133 238.579 105.493 238.376 104.661 238.376C103.85 238.376 103.221 238.584 102.773 239C102.325 239.416 102.09 239.971 102.069 240.664H107.301ZM111.531 235.816C111.264 235.816 111.04 235.725 110.859 235.544C110.678 235.363 110.587 235.139 110.587 234.872C110.587 234.605 110.678 234.381 110.859 234.2C111.04 234.019 111.264 233.928 111.531 233.928C111.808 233.928 112.038 234.019 112.219 234.2C112.411 234.381 112.507 234.605 112.507 234.872C112.507 235.139 112.411 235.363 112.219 235.544C112.038 235.725 111.808 235.816 111.531 235.816ZM110.715 237.32H112.363V245H110.715V237.32ZM114.267 237.32H115.979L118.235 242.84L120.491 237.32H122.203L118.939 245H117.531L114.267 237.32ZM127.545 245.24C126.127 245.24 125.012 244.888 124.201 244.184C123.401 243.469 123.001 242.467 123.001 241.176C123.001 239.917 123.359 238.92 124.073 238.184C124.799 237.448 125.828 237.08 127.161 237.08C128.047 237.08 128.799 237.251 129.417 237.592C130.036 237.923 130.5 238.387 130.809 238.984C131.129 239.571 131.289 240.243 131.289 241V241.8H124.537C124.591 242.525 124.895 243.069 125.449 243.432C126.015 243.784 126.777 243.96 127.737 243.96C128.228 243.96 128.724 243.917 129.225 243.832C129.727 243.736 130.169 243.613 130.553 243.464V244.76C130.212 244.899 129.759 245.011 129.193 245.096C128.639 245.192 128.089 245.24 127.545 245.24ZM129.769 240.664C129.748 239.939 129.508 239.379 129.049 238.984C128.601 238.579 127.961 238.376 127.129 238.376C126.319 238.376 125.689 238.584 125.241 239C124.793 239.416 124.559 239.971 124.537 240.664H129.769ZM141.73 245.24C140.802 245.24 140.055 245.005 139.49 244.536C138.935 244.056 138.658 243.411 138.658 242.6C138.658 241.747 138.924 241.091 139.458 240.632C140.002 240.163 140.77 239.928 141.762 239.928C142.818 239.928 143.714 240.141 144.45 240.568V240.168C144.45 239.56 144.263 239.112 143.89 238.824C143.527 238.525 142.951 238.376 142.161 238.376C141.692 238.376 141.234 238.424 140.786 238.52C140.348 238.605 139.954 238.728 139.602 238.888V237.576C139.922 237.427 140.338 237.309 140.85 237.224C141.362 237.128 141.858 237.08 142.338 237.08C143.607 237.08 144.546 237.363 145.154 237.928C145.772 238.483 146.082 239.256 146.082 240.248V245H144.562V244.136C144.231 244.499 143.836 244.776 143.378 244.968C142.93 245.149 142.38 245.24 141.73 245.24ZM142.13 244.008C142.642 244.008 143.106 243.907 143.522 243.704C143.938 243.501 144.247 243.219 144.45 242.856V241.816C143.756 241.368 142.983 241.144 142.13 241.144C141.511 241.144 141.047 241.267 140.738 241.512C140.439 241.747 140.289 242.109 140.289 242.6C140.289 243.539 140.903 244.008 142.13 244.008ZM156.841 245.24C156.307 245.24 155.742 245.171 155.145 245.032C154.547 244.904 154.078 244.728 153.737 244.504V243.128C154.153 243.373 154.633 243.576 155.177 243.736C155.721 243.885 156.249 243.96 156.761 243.96C157.337 243.96 157.758 243.891 158.025 243.752C158.291 243.613 158.425 243.389 158.425 243.08C158.425 242.845 158.361 242.659 158.233 242.52C158.115 242.371 157.907 242.237 157.609 242.12C157.321 242.003 156.883 241.864 156.297 241.704C155.667 241.523 155.166 241.341 154.793 241.16C154.43 240.968 154.153 240.728 153.961 240.44C153.779 240.152 153.689 239.779 153.689 239.32C153.689 238.584 153.977 238.029 154.553 237.656C155.139 237.272 155.923 237.08 156.905 237.08C157.417 237.08 157.918 237.128 158.409 237.224C158.899 237.32 159.294 237.453 159.593 237.624V238.968C159.283 238.787 158.899 238.643 158.441 238.536C157.993 238.429 157.534 238.376 157.065 238.376C156.499 238.376 156.067 238.445 155.769 238.584C155.47 238.723 155.321 238.968 155.321 239.32C155.321 239.544 155.385 239.725 155.513 239.864C155.641 240.003 155.843 240.125 156.121 240.232C156.409 240.328 156.862 240.456 157.481 240.616C158.451 240.883 159.123 241.197 159.497 241.56C159.881 241.923 160.073 242.424 160.073 243.064C160.073 243.725 159.801 244.253 159.257 244.648C158.713 245.043 157.907 245.24 156.841 245.24ZM166.061 245.24C164.642 245.24 163.528 244.888 162.717 244.184C161.917 243.469 161.517 242.467 161.517 241.176C161.517 239.917 161.874 238.92 162.589 238.184C163.314 237.448 164.344 237.08 165.677 237.08C166.562 237.08 167.314 237.251 167.933 237.592C168.552 237.923 169.016 238.387 169.325 238.984C169.645 239.571 169.805 240.243 169.805 241V241.8H163.053C163.106 242.525 163.41 243.069 163.965 243.432C164.53 243.784 165.293 243.96 166.253 243.96C166.744 243.96 167.24 243.917 167.741 243.832C168.242 243.736 168.685 243.613 169.069 243.464V244.76C168.728 244.899 168.274 245.011 167.709 245.096C167.154 245.192 166.605 245.24 166.061 245.24ZM168.285 240.664C168.264 239.939 168.024 239.379 167.565 238.984C167.117 238.579 166.477 238.376 165.645 238.376C164.834 238.376 164.205 238.584 163.757 239C163.309 239.416 163.074 239.971 163.053 240.664H168.285ZM171.571 233.176H173.187V245H171.571V233.176ZM179.498 245.24C178.08 245.24 176.965 244.888 176.154 244.184C175.354 243.469 174.954 242.467 174.954 241.176C174.954 239.917 175.312 238.92 176.026 238.184C176.752 237.448 177.781 237.08 179.114 237.08C180 237.08 180.752 237.251 181.37 237.592C181.989 237.923 182.453 238.387 182.762 238.984C183.082 239.571 183.242 240.243 183.242 241V241.8H176.49C176.544 242.525 176.848 243.069 177.402 243.432C177.968 243.784 178.73 243.96 179.69 243.96C180.181 243.96 180.677 243.917 181.178 243.832C181.68 243.736 182.122 243.613 182.506 243.464V244.76C182.165 244.899 181.712 245.011 181.146 245.096C180.592 245.192 180.042 245.24 179.498 245.24ZM181.722 240.664C181.701 239.939 181.461 239.379 181.002 238.984C180.554 238.579 179.914 238.376 179.082 238.376C178.272 238.376 177.642 238.584 177.194 239C176.746 239.416 176.512 239.971 176.49 240.664H181.722ZM189.057 245.24C188.203 245.24 187.446 245.08 186.785 244.76C186.123 244.44 185.606 243.976 185.233 243.368C184.87 242.749 184.689 242.019 184.689 241.176C184.689 240.333 184.87 239.608 185.233 239C185.606 238.381 186.123 237.907 186.785 237.576C187.457 237.245 188.225 237.08 189.089 237.08C190.262 237.08 191.201 237.309 191.905 237.768V239.096C191.211 238.616 190.326 238.376 189.249 238.376C188.374 238.376 187.665 238.616 187.121 239.096C186.587 239.565 186.321 240.259 186.321 241.176C186.321 242.093 186.587 242.787 187.121 243.256C187.654 243.725 188.353 243.96 189.217 243.96C190.294 243.96 191.222 243.704 192.001 243.192V244.504C191.627 244.76 191.201 244.947 190.721 245.064C190.251 245.181 189.697 245.24 189.057 245.24ZM196.719 245.24C195.94 245.24 195.337 245.016 194.911 244.568C194.495 244.12 194.287 243.485 194.287 242.664V238.568H193.119V237.32H194.287V235.016H195.919V237.32H197.807V238.568H195.919V242.552C195.919 243.064 196.015 243.427 196.207 243.64C196.409 243.853 196.772 243.96 197.295 243.96C197.604 243.96 197.913 243.891 198.223 243.752V245.032C197.817 245.171 197.316 245.24 196.719 245.24ZM205.665 237.32H207.233V238.424C207.596 237.965 208.038 237.629 208.561 237.416C209.094 237.192 209.649 237.08 210.225 237.08C211.249 237.08 212.012 237.352 212.513 237.896C213.014 238.44 213.265 239.171 213.265 240.088V245H211.649V240.248C211.649 239 211.052 238.376 209.857 238.376C209.345 238.376 208.865 238.499 208.417 238.744C207.98 238.979 207.601 239.341 207.281 239.832V245H205.665V237.32ZM218.315 245.24C217.28 245.24 216.496 244.963 215.963 244.408C215.44 243.853 215.179 243.112 215.179 242.184V237.32H216.795V242.12C216.795 243.347 217.408 243.96 218.635 243.96C219.712 243.96 220.555 243.475 221.163 242.504V237.32H222.779V245H221.211V243.912C220.848 244.371 220.416 244.707 219.915 244.92C219.424 245.133 218.891 245.24 218.315 245.24ZM224.853 237.32H226.389V238.424C226.751 237.976 227.162 237.64 227.621 237.416C228.079 237.192 228.554 237.08 229.045 237.08C229.663 237.08 230.154 237.187 230.517 237.4C230.879 237.603 231.146 237.917 231.317 238.344C231.658 237.928 232.074 237.613 232.565 237.4C233.066 237.187 233.567 237.08 234.069 237.08C235.007 237.08 235.685 237.32 236.101 237.8C236.517 238.269 236.725 238.968 236.725 239.896V245H235.157V240.104C235.157 239.475 235.039 239.032 234.805 238.776C234.57 238.509 234.17 238.376 233.605 238.376C232.794 238.376 232.133 238.728 231.621 239.432C231.642 239.592 231.653 239.853 231.653 240.216V245H230.085V240.104C230.085 239.475 229.978 239.032 229.765 238.776C229.551 238.509 229.167 238.376 228.613 238.376C227.802 238.376 227.077 238.835 226.437 239.752V245H224.853V237.32ZM243.496 245.24C242.802 245.24 242.2 245.133 241.688 244.92C241.186 244.696 240.722 244.349 240.296 243.88V245H238.728V233.176H240.344V238.344C240.696 237.928 241.149 237.613 241.704 237.4C242.258 237.187 242.856 237.08 243.496 237.08C244.264 237.08 244.952 237.256 245.56 237.608C246.178 237.949 246.658 238.429 247 239.048C247.352 239.667 247.528 240.376 247.528 241.176C247.528 241.987 247.352 242.701 247 243.32C246.658 243.928 246.178 244.403 245.56 244.744C244.952 245.075 244.264 245.24 243.496 245.24ZM243.128 243.96C243.65 243.96 244.12 243.848 244.536 243.624C244.962 243.389 245.293 243.059 245.528 242.632C245.773 242.205 245.896 241.72 245.896 241.176C245.896 240.632 245.773 240.147 245.528 239.72C245.293 239.293 244.962 238.963 244.536 238.728C244.12 238.493 243.65 238.376 243.128 238.376C242.477 238.376 241.896 238.552 241.384 238.904C240.872 239.256 240.525 239.725 240.344 240.312V242.04C240.546 242.627 240.893 243.096 241.384 243.448C241.885 243.789 242.466 243.96 243.128 243.96ZM253.514 245.24C252.095 245.24 250.981 244.888 250.17 244.184C249.37 243.469 248.97 242.467 248.97 241.176C248.97 239.917 249.327 238.92 250.042 238.184C250.767 237.448 251.797 237.08 253.13 237.08C254.015 237.08 254.767 237.251 255.386 237.592C256.005 237.923 256.469 238.387 256.778 238.984C257.098 239.571 257.258 240.243 257.258 241V241.8H250.506C250.559 242.525 250.863 243.069 251.418 243.432C251.983 243.784 252.746 243.96 253.706 243.96C254.197 243.96 254.693 243.917 255.194 243.832C255.695 243.736 256.138 243.613 256.522 243.464V244.76C256.181 244.899 255.727 245.011 255.162 245.096C254.607 245.192 254.058 245.24 253.514 245.24ZM255.738 240.664C255.717 239.939 255.477 239.379 255.018 238.984C254.57 238.579 253.93 238.376 253.098 238.376C252.287 238.376 251.658 238.584 251.21 239C250.762 239.416 250.527 239.971 250.506 240.664H255.738ZM259.024 237.32H260.592V238.696C260.912 238.227 261.36 237.88 261.936 237.656C262.523 237.432 263.2 237.32 263.968 237.32V238.584C263.147 238.584 262.443 238.717 261.856 238.984C261.27 239.251 260.864 239.672 260.64 240.248V245H259.024V237.32ZM275.385 245.24C274.521 245.24 273.758 245.08 273.097 244.76C272.446 244.429 271.934 243.96 271.561 243.352C271.198 242.733 271.017 242.008 271.017 241.176C271.017 240.355 271.198 239.635 271.561 239.016C271.924 238.397 272.436 237.923 273.097 237.592C273.758 237.251 274.521 237.08 275.385 237.08C276.249 237.08 277.012 237.251 277.673 237.592C278.334 237.923 278.846 238.397 279.209 239.016C279.582 239.635 279.769 240.355 279.769 241.176C279.769 242.008 279.582 242.733 279.209 243.352C278.846 243.96 278.334 244.429 277.673 244.76C277.012 245.08 276.249 245.24 275.385 245.24ZM275.385 243.96C276.217 243.96 276.878 243.704 277.369 243.192C277.86 242.68 278.105 242.008 278.105 241.176C278.105 240.312 277.86 239.629 277.369 239.128C276.878 238.627 276.217 238.376 275.385 238.376C274.553 238.376 273.892 238.627 273.401 239.128C272.91 239.629 272.665 240.312 272.665 241.176C272.665 242.008 272.91 242.68 273.401 243.192C273.892 243.704 274.553 243.96 275.385 243.96ZM281.49 238.568H280.322V237.32H281.49V235.816C281.49 234.931 281.741 234.259 282.242 233.8C282.743 233.331 283.415 233.096 284.258 233.096C284.695 233.096 285.106 233.16 285.49 233.288V234.632C285.191 234.493 284.882 234.424 284.562 234.424C284.061 234.424 283.693 234.547 283.458 234.792C283.223 235.027 283.106 235.4 283.106 235.912V237.32H285.026V238.568H283.106V245H281.49V238.568ZM75.872 267.24C75.3387 267.24 74.7733 267.171 74.176 267.032C73.5787 266.904 73.1093 266.728 72.768 266.504V265.128C73.184 265.373 73.664 265.576 74.208 265.736C74.752 265.885 75.28 265.96 75.792 265.96C76.368 265.96 76.7893 265.891 77.056 265.752C77.3227 265.613 77.456 265.389 77.456 265.08C77.456 264.845 77.392 264.659 77.264 264.52C77.1467 264.371 76.9387 264.237 76.64 264.12C76.352 264.003 75.9147 263.864 75.328 263.704C74.6987 263.523 74.1973 263.341 73.824 263.16C73.4613 262.968 73.184 262.728 72.992 262.44C72.8107 262.152 72.72 261.779 72.72 261.32C72.72 260.584 73.008 260.029 73.584 259.656C74.1707 259.272 74.9547 259.08 75.936 259.08C76.448 259.08 76.9493 259.128 77.44 259.224C77.9307 259.32 78.3253 259.453 78.624 259.624V260.968C78.3147 260.787 77.9307 260.643 77.472 260.536C77.024 260.429 76.5653 260.376 76.096 260.376C75.5307 260.376 75.0987 260.445 74.8 260.584C74.5013 260.723 74.352 260.968 74.352 261.32C74.352 261.544 74.416 261.725 74.544 261.864C74.672 262.003 74.8747 262.125 75.152 262.232C75.44 262.328 75.8933 262.456 76.512 262.616C77.4827 262.883 78.1547 263.197 78.528 263.56C78.912 263.923 79.104 264.424 79.104 265.064C79.104 265.725 78.832 266.253 78.288 266.648C77.744 267.043 76.9387 267.24 75.872 267.24ZM81.8121 257.816C81.5455 257.816 81.3215 257.725 81.1401 257.544C80.9588 257.363 80.8681 257.139 80.8681 256.872C80.8681 256.605 80.9588 256.381 81.1401 256.2C81.3215 256.019 81.5455 255.928 81.8121 255.928C82.0895 255.928 82.3188 256.019 82.5001 256.2C82.6921 256.381 82.7881 256.605 82.7881 256.872C82.7881 257.139 82.6921 257.363 82.5001 257.544C82.3188 257.725 82.0895 257.816 81.8121 257.816ZM80.9961 259.32H82.6441V267H80.9961V259.32ZM88.8841 270.68C88.3615 270.68 87.8495 270.637 87.3481 270.552C86.8575 270.467 86.4415 270.344 86.1001 270.184V268.856C86.9001 269.219 87.8281 269.4 88.8841 269.4C89.8761 269.4 90.5961 269.181 91.0441 268.744C91.5028 268.317 91.7321 267.667 91.7321 266.792V265.976C91.0281 266.819 89.9935 267.24 88.6281 267.24C87.8495 267.24 87.1508 267.069 86.5321 266.728C85.9135 266.387 85.4281 265.907 85.0761 265.288C84.7241 264.669 84.5481 263.96 84.5481 263.16C84.5481 262.349 84.7188 261.64 85.0601 261.032C85.4121 260.413 85.8921 259.933 86.5001 259.592C87.1188 259.251 87.8121 259.08 88.5801 259.08C89.2948 259.08 89.8975 259.187 90.3881 259.4C90.8895 259.603 91.3535 259.944 91.7801 260.424V259.32H93.3481V266.616C93.3481 267.928 92.9801 268.931 92.2441 269.624C91.5188 270.328 90.3988 270.68 88.8841 270.68ZM88.9481 265.96C89.6095 265.96 90.1908 265.784 90.6921 265.432C91.2041 265.08 91.5508 264.611 91.7321 264.024V262.296C91.5295 261.699 91.1775 261.229 90.6761 260.888C90.1855 260.547 89.6095 260.376 88.9481 260.376C88.4255 260.376 87.9508 260.493 87.5241 260.728C87.1081 260.952 86.7775 261.277 86.5321 261.704C86.2975 262.131 86.1801 262.616 86.1801 263.16C86.1801 263.715 86.2975 264.205 86.5321 264.632C86.7775 265.048 87.1081 265.373 87.5241 265.608C87.9508 265.843 88.4255 265.96 88.9481 265.96ZM95.4306 259.32H96.9986V260.424C97.3613 259.965 97.804 259.629 98.3266 259.416C98.86 259.192 99.4146 259.08 99.9906 259.08C101.015 259.08 101.777 259.352 102.279 259.896C102.78 260.44 103.031 261.171 103.031 262.088V267H101.415V262.248C101.415 261 100.817 260.376 99.6226 260.376C99.1106 260.376 98.6306 260.499 98.1826 260.744C97.7453 260.979 97.3666 261.341 97.0466 261.832V267H95.4306V259.32ZM107.542 267.24C106.614 267.24 105.867 267.005 105.302 266.536C104.747 266.056 104.47 265.411 104.47 264.6C104.47 263.747 104.737 263.091 105.27 262.632C105.814 262.163 106.582 261.928 107.574 261.928C108.63 261.928 109.526 262.141 110.262 262.568V262.168C110.262 261.56 110.075 261.112 109.702 260.824C109.339 260.525 108.763 260.376 107.974 260.376C107.505 260.376 107.046 260.424 106.598 260.52C106.161 260.605 105.766 260.728 105.414 260.888V259.576C105.734 259.427 106.15 259.309 106.662 259.224C107.174 259.128 107.67 259.08 108.15 259.08C109.419 259.08 110.358 259.363 110.966 259.928C111.585 260.483 111.894 261.256 111.894 262.248V267H110.374V266.136C110.043 266.499 109.649 266.776 109.19 266.968C108.742 267.149 108.193 267.24 107.542 267.24ZM107.942 266.008C108.454 266.008 108.918 265.907 109.334 265.704C109.75 265.501 110.059 265.219 110.262 264.856V263.816C109.569 263.368 108.795 263.144 107.942 263.144C107.323 263.144 106.859 263.267 106.55 263.512C106.251 263.747 106.102 264.109 106.102 264.6C106.102 265.539 106.715 266.008 107.942 266.008ZM113.899 255.176H115.515V267H113.899V255.176ZM120.435 267.24C119.901 267.24 119.336 267.171 118.739 267.032C118.141 266.904 117.672 266.728 117.331 266.504V265.128C117.747 265.373 118.227 265.576 118.771 265.736C119.315 265.885 119.843 265.96 120.355 265.96C120.931 265.96 121.352 265.891 121.619 265.752C121.885 265.613 122.019 265.389 122.019 265.08C122.019 264.845 121.955 264.659 121.827 264.52C121.709 264.371 121.501 264.237 121.203 264.12C120.915 264.003 120.477 263.864 119.891 263.704C119.261 263.523 118.76 263.341 118.387 263.16C118.024 262.968 117.747 262.728 117.555 262.44C117.373 262.152 117.283 261.779 117.283 261.32C117.283 260.584 117.571 260.029 118.147 259.656C118.733 259.272 119.517 259.08 120.499 259.08C121.011 259.08 121.512 259.128 122.003 259.224C122.493 259.32 122.888 259.453 123.187 259.624V260.968C122.877 260.787 122.493 260.643 122.035 260.536C121.587 260.429 121.128 260.376 120.659 260.376C120.093 260.376 119.661 260.445 119.363 260.584C119.064 260.723 118.914 260.968 118.914 261.32C118.914 261.544 118.979 261.725 119.107 261.864C119.235 262.003 119.437 262.125 119.715 262.232C120.003 262.328 120.456 262.456 121.075 262.616C122.045 262.883 122.717 263.197 123.091 263.56C123.475 263.923 123.667 264.424 123.667 265.064C123.667 265.725 123.395 266.253 122.851 266.648C122.307 267.043 121.501 267.24 120.435 267.24ZM131.881 260.568H130.713V259.32H131.881V257.816C131.881 256.931 132.131 256.259 132.633 255.8C133.134 255.331 133.806 255.096 134.649 255.096C135.086 255.096 135.497 255.16 135.881 255.288V256.632C135.582 256.493 135.273 256.424 134.953 256.424C134.451 256.424 134.083 256.547 133.849 256.792C133.614 257.027 133.497 257.4 133.497 257.912V259.32H135.417V260.568H133.497V267H131.881V260.568ZM136.915 259.32H138.483V260.696C138.803 260.227 139.251 259.88 139.827 259.656C140.414 259.432 141.091 259.32 141.859 259.32V260.584C141.038 260.584 140.334 260.717 139.747 260.984C139.16 261.251 138.755 261.672 138.531 262.248V267H136.915V259.32ZM147.119 267.24C146.255 267.24 145.493 267.08 144.831 266.76C144.181 266.429 143.669 265.96 143.295 265.352C142.933 264.733 142.751 264.008 142.751 263.176C142.751 262.355 142.933 261.635 143.295 261.016C143.658 260.397 144.17 259.923 144.831 259.592C145.493 259.251 146.255 259.08 147.119 259.08C147.983 259.08 148.746 259.251 149.407 259.592C150.069 259.923 150.581 260.397 150.943 261.016C151.317 261.635 151.503 262.355 151.503 263.176C151.503 264.008 151.317 264.733 150.943 265.352C150.581 265.96 150.069 266.429 149.407 266.76C148.746 267.08 147.983 267.24 147.119 267.24ZM147.119 265.96C147.951 265.96 148.613 265.704 149.103 265.192C149.594 264.68 149.839 264.008 149.839 263.176C149.839 262.312 149.594 261.629 149.103 261.128C148.613 260.627 147.951 260.376 147.119 260.376C146.287 260.376 145.626 260.627 145.135 261.128C144.645 261.629 144.399 262.312 144.399 263.176C144.399 264.008 144.645 264.68 145.135 265.192C145.626 265.704 146.287 265.96 147.119 265.96ZM153.259 259.32H154.795V260.424C155.157 259.976 155.568 259.64 156.027 259.416C156.485 259.192 156.96 259.08 157.451 259.08C158.069 259.08 158.56 259.187 158.923 259.4C159.285 259.603 159.552 259.917 159.723 260.344C160.064 259.928 160.48 259.613 160.971 259.4C161.472 259.187 161.973 259.08 162.475 259.08C163.413 259.08 164.091 259.32 164.507 259.8C164.923 260.269 165.131 260.968 165.131 261.896V267H163.563V262.104C163.563 261.475 163.445 261.032 163.211 260.776C162.976 260.509 162.576 260.376 162.011 260.376C161.2 260.376 160.539 260.728 160.027 261.432C160.048 261.592 160.059 261.853 160.059 262.216V267H158.491V262.104C158.491 261.475 158.384 261.032 158.171 260.776C157.957 260.509 157.573 260.376 157.019 260.376C156.208 260.376 155.483 260.835 154.843 261.752V267H153.259V259.32ZM177.2 255.816H178.768L183.232 267H181.568L180.448 264.216H175.504L174.416 267H172.736L177.2 255.816ZM180 262.856L177.984 257.624L175.968 262.856H180ZM184.993 255.176H186.609V267H184.993V255.176ZM188.696 259.32H190.264V260.456C191.054 259.539 192.12 259.08 193.464 259.08C194.232 259.08 194.92 259.251 195.528 259.592C196.147 259.933 196.627 260.413 196.968 261.032C197.32 261.64 197.496 262.349 197.496 263.16C197.496 263.96 197.32 264.669 196.968 265.288C196.627 265.907 196.152 266.387 195.544 266.728C194.936 267.069 194.243 267.24 193.464 267.24C192.824 267.24 192.227 267.133 191.672 266.92C191.118 266.707 190.664 266.392 190.312 265.976V270.504H188.696V259.32ZM193.096 265.96C193.619 265.96 194.088 265.848 194.504 265.624C194.931 265.389 195.262 265.059 195.496 264.632C195.742 264.205 195.864 263.715 195.864 263.16C195.864 262.605 195.742 262.12 195.496 261.704C195.262 261.277 194.931 260.952 194.504 260.728C194.088 260.493 193.619 260.376 193.096 260.376C192.446 260.376 191.87 260.547 191.368 260.888C190.878 261.229 190.526 261.699 190.312 262.296V264.024C190.494 264.611 190.84 265.08 191.352 265.432C191.864 265.784 192.446 265.96 193.096 265.96ZM199.259 255.176H200.875V260.376C201.611 259.512 202.592 259.08 203.819 259.08C204.843 259.08 205.605 259.352 206.107 259.896C206.608 260.44 206.859 261.171 206.859 262.088V267H205.243V262.248C205.243 261 204.645 260.376 203.451 260.376C202.939 260.376 202.459 260.499 202.011 260.744C201.573 260.979 201.195 261.341 200.875 261.832V267H199.259V255.176ZM211.37 267.24C210.442 267.24 209.695 267.005 209.13 266.536C208.575 266.056 208.298 265.411 208.298 264.6C208.298 263.747 208.565 263.091 209.098 262.632C209.642 262.163 210.41 261.928 211.402 261.928C212.458 261.928 213.354 262.141 214.09 262.568V262.168C214.09 261.56 213.903 261.112 213.53 260.824C213.167 260.525 212.591 260.376 211.802 260.376C211.333 260.376 210.874 260.424 210.426 260.52C209.989 260.605 209.594 260.728 209.242 260.888V259.576C209.562 259.427 209.978 259.309 210.49 259.224C211.002 259.128 211.498 259.08 211.978 259.08C213.247 259.08 214.186 259.363 214.794 259.928C215.413 260.483 215.722 261.256 215.722 262.248V267H214.202V266.136C213.871 266.499 213.477 266.776 213.018 266.968C212.57 267.149 212.021 267.24 211.37 267.24ZM211.77 266.008C212.282 266.008 212.746 265.907 213.162 265.704C213.578 265.501 213.887 265.219 214.09 264.856V263.816C213.397 263.368 212.623 263.144 211.77 263.144C211.151 263.144 210.687 263.267 210.378 263.512C210.079 263.747 209.93 264.109 209.93 264.6C209.93 265.539 210.543 266.008 211.77 266.008ZM223.649 255.816H231.025V257.192H225.281V260.76H229.569V262.056H225.281V267H223.649V255.816ZM235.307 267.24C234.443 267.24 233.68 267.08 233.019 266.76C232.368 266.429 231.856 265.96 231.483 265.352C231.12 264.733 230.939 264.008 230.939 263.176C230.939 262.355 231.12 261.635 231.483 261.016C231.845 260.397 232.357 259.923 233.019 259.592C233.68 259.251 234.443 259.08 235.307 259.08C236.171 259.08 236.933 259.251 237.595 259.592C238.256 259.923 238.768 260.397 239.131 261.016C239.504 261.635 239.691 262.355 239.691 263.176C239.691 264.008 239.504 264.733 239.131 265.352C238.768 265.96 238.256 266.429 237.595 266.76C236.933 267.08 236.171 267.24 235.307 267.24ZM235.307 265.96C236.139 265.96 236.8 265.704 237.291 265.192C237.781 264.68 238.027 264.008 238.027 263.176C238.027 262.312 237.781 261.629 237.291 261.128C236.8 260.627 236.139 260.376 235.307 260.376C234.475 260.376 233.813 260.627 233.323 261.128C232.832 261.629 232.587 262.312 232.587 263.176C232.587 264.008 232.832 264.68 233.323 265.192C233.813 265.704 234.475 265.96 235.307 265.96ZM244.502 267.24C243.468 267.24 242.684 266.963 242.15 266.408C241.628 265.853 241.366 265.112 241.366 264.184V259.32H242.982V264.12C242.982 265.347 243.596 265.96 244.822 265.96C245.9 265.96 246.742 265.475 247.35 264.504V259.32H248.966V267H247.398V265.912C247.036 266.371 246.604 266.707 246.102 266.92C245.612 267.133 245.078 267.24 244.502 267.24ZM251.04 259.32H252.608V260.424C252.971 259.965 253.413 259.629 253.936 259.416C254.469 259.192 255.024 259.08 255.6 259.08C256.624 259.08 257.387 259.352 257.888 259.896C258.389 260.44 258.64 261.171 258.64 262.088V267H257.024V262.248C257.024 261 256.427 260.376 255.232 260.376C254.72 260.376 254.24 260.499 253.792 260.744C253.355 260.979 252.976 261.341 252.656 261.832V267H251.04V259.32ZM264.346 267.24C263.578 267.24 262.884 267.075 262.266 266.744C261.658 266.403 261.178 265.928 260.826 265.32C260.484 264.701 260.314 263.987 260.314 263.176C260.314 262.376 260.484 261.667 260.826 261.048C261.178 260.429 261.658 259.949 262.266 259.608C262.884 259.256 263.578 259.08 264.346 259.08C265.732 259.08 266.783 259.501 267.498 260.344V255.176H269.114V267H267.546V265.88C267.119 266.349 266.65 266.696 266.138 266.92C265.636 267.133 265.039 267.24 264.346 267.24ZM264.714 265.96C265.375 265.96 265.951 265.789 266.442 265.448C266.943 265.096 267.295 264.627 267.498 264.04V262.312C267.316 261.725 266.97 261.256 266.458 260.904C265.956 260.552 265.375 260.376 264.714 260.376C264.191 260.376 263.716 260.493 263.29 260.728C262.874 260.963 262.543 261.293 262.298 261.72C262.063 262.147 261.946 262.632 261.946 263.176C261.946 263.72 262.063 264.205 262.298 264.632C262.543 265.059 262.874 265.389 263.29 265.624C263.716 265.848 264.191 265.96 264.714 265.96ZM275.42 267.24C274.002 267.24 272.887 266.888 272.076 266.184C271.276 265.469 270.876 264.467 270.876 263.176C270.876 261.917 271.234 260.92 271.948 260.184C272.674 259.448 273.703 259.08 275.036 259.08C275.922 259.08 276.674 259.251 277.292 259.592C277.911 259.923 278.375 260.387 278.684 260.984C279.004 261.571 279.164 262.243 279.164 263V263.8H272.412C272.466 264.525 272.77 265.069 273.324 265.432C273.89 265.784 274.652 265.96 275.612 265.96C276.103 265.96 276.599 265.917 277.1 265.832C277.602 265.736 278.044 265.613 278.428 265.464V266.76C278.087 266.899 277.634 267.011 277.068 267.096C276.514 267.192 275.964 267.24 275.42 267.24ZM277.644 262.664C277.623 261.939 277.383 261.379 276.924 260.984C276.476 260.579 275.836 260.376 275.004 260.376C274.194 260.376 273.564 260.584 273.116 261C272.668 261.416 272.434 261.971 272.412 262.664H277.644ZM280.931 259.32H282.499V260.696C282.819 260.227 283.267 259.88 283.843 259.656C284.429 259.432 285.107 259.32 285.875 259.32V260.584C285.053 260.584 284.349 260.717 283.763 260.984C283.176 261.251 282.771 261.672 282.547 262.248V267H280.931V259.32ZM289.919 267.24C289.386 267.24 288.82 267.171 288.223 267.032C287.626 266.904 287.156 266.728 286.815 266.504V265.128C287.231 265.373 287.711 265.576 288.255 265.736C288.799 265.885 289.327 265.96 289.839 265.96C290.415 265.96 290.836 265.891 291.103 265.752C291.37 265.613 291.503 265.389 291.503 265.08C291.503 264.845 291.439 264.659 291.311 264.52C291.194 264.371 290.986 264.237 290.687 264.12C290.399 264.003 289.962 263.864 289.375 263.704C288.746 263.523 288.244 263.341 287.871 263.16C287.508 262.968 287.231 262.728 287.039 262.44C286.858 262.152 286.767 261.779 286.767 261.32C286.767 260.584 287.055 260.029 287.631 259.656C288.218 259.272 289.002 259.08 289.983 259.08C290.495 259.08 290.996 259.128 291.487 259.224C291.978 259.32 292.372 259.453 292.671 259.624V260.968C292.362 260.787 291.978 260.643 291.519 260.536C291.071 260.429 290.612 260.376 290.143 260.376C289.578 260.376 289.146 260.445 288.847 260.584C288.548 260.723 288.399 260.968 288.399 261.32C288.399 261.544 288.463 261.725 288.591 261.864C288.719 262.003 288.922 262.125 289.199 262.232C289.487 262.328 289.94 262.456 290.559 262.616C291.53 262.883 292.202 263.197 292.575 263.56C292.959 263.923 293.151 264.424 293.151 265.064C293.151 265.725 292.879 266.253 292.335 266.648C291.791 267.043 290.986 267.24 289.919 267.24ZM295.347 267C295.134 267 294.952 266.931 294.803 266.792C294.664 266.643 294.595 266.461 294.595 266.248C294.595 266.035 294.664 265.853 294.803 265.704C294.952 265.555 295.134 265.48 295.347 265.48C295.56 265.48 295.742 265.555 295.891 265.704C296.04 265.853 296.115 266.035 296.115 266.248C296.115 266.461 296.04 266.643 295.891 266.792C295.742 266.931 295.56 267 295.347 267Z" fill="#FAFAF9"/>
<ellipse cx="48.5" cy="249.726" rx="10.5" ry="11.2435" fill="#D9D9D9"/>
<path d="M43 249.191L46.5 252.939L54 244.908" stroke="url(#paint3_linear_863_431)" stroke-width="2"/>
<path d="M115.436 64L121.596 49.744H123.84L130.22 64H127.756L126.128 60.326H119.44L117.856 64H115.436ZM120.232 58.258H125.38L122.74 52.362L120.232 58.258ZM134.082 49.854H136.37V61.91H144.642V64H134.082V49.854ZM148.789 64V49.854H158.491C161.043 49.854 162.363 51.746 162.363 53.924C162.363 56.124 161.043 57.972 158.491 57.972H151.077V64H148.789ZM151.077 55.86H158.491C159.635 55.86 160.075 55.024 160.075 53.946C160.075 52.912 159.591 51.944 158.491 51.944H151.077V55.86ZM166.611 49.854H168.899V55.86H177.633V49.854H179.921V64H177.633V57.972H168.899V64H166.611V49.854ZM183.76 64L189.92 49.744H192.164L198.544 64H196.08L194.452 60.326H187.764L186.18 64H183.76ZM188.556 58.258H193.704L191.064 52.362L188.556 58.258ZM210.195 49.854H212.483V61.91H220.755V64H210.195V49.854ZM224.902 49.854H227.19V64H224.902V49.854ZM236.816 51.944H231.294V49.854H244.604V51.944H239.104V64H236.816V51.944ZM248.731 49.854H261.755V51.944H251.019V55.86H259.005V57.972H251.019V61.91H261.755V64H248.731V49.854Z" fill="#FF6D36"/>
<path d="M77.2753 144.04H96.6753V149.16H83.3553V155.68H93.1553V160.36H83.3553V172H77.2753V144.04ZM98.4316 152.8H104.272V155.56C105.045 154.627 106.125 153.92 107.512 153.44C108.898 152.933 110.472 152.68 112.232 152.68V157.28C110.392 157.28 108.765 157.56 107.352 158.12C105.965 158.68 105.005 159.533 104.472 160.68V172H98.4316V152.8ZM126.839 172.6C123.159 172.6 120.265 171.72 118.159 169.96C116.052 168.173 114.999 165.68 114.999 162.48C114.999 159.307 115.932 156.8 117.799 154.96C119.692 153.12 122.385 152.2 125.879 152.2C128.172 152.2 130.119 152.627 131.719 153.48C133.319 154.333 134.532 155.52 135.359 157.04C136.185 158.533 136.599 160.227 136.599 162.12V164.56H120.759C121.185 167.013 123.479 168.24 127.639 168.24C128.865 168.24 130.132 168.133 131.439 167.92C132.745 167.707 133.879 167.413 134.839 167.04V171.28C133.905 171.68 132.705 172 131.239 172.24C129.772 172.48 128.305 172.6 126.839 172.6ZM130.879 160.64C130.799 159.36 130.319 158.373 129.439 157.68C128.559 156.96 127.345 156.6 125.799 156.6C124.279 156.6 123.079 156.96 122.199 157.68C121.319 158.4 120.839 159.387 120.759 160.64H130.879ZM151.979 172.6C148.299 172.6 145.406 171.72 143.299 169.96C141.193 168.173 140.139 165.68 140.139 162.48C140.139 159.307 141.073 156.8 142.939 154.96C144.833 153.12 147.526 152.2 151.019 152.2C153.313 152.2 155.259 152.627 156.859 153.48C158.459 154.333 159.673 155.52 160.499 157.04C161.326 158.533 161.739 160.227 161.739 162.12V164.56H145.899C146.326 167.013 148.619 168.24 152.779 168.24C154.006 168.24 155.273 168.133 156.579 167.92C157.886 167.707 159.019 167.413 159.979 167.04V171.28C159.046 171.68 157.846 172 156.379 172.24C154.913 172.48 153.446 172.6 151.979 172.6ZM156.019 160.64C155.939 159.36 155.459 158.373 154.579 157.68C153.699 156.96 152.486 156.6 150.939 156.6C149.419 156.6 148.219 156.96 147.339 157.68C146.459 158.4 145.979 159.387 145.899 160.64H156.019ZM195.384 172.6C192.398 172.6 189.758 172.013 187.464 170.84C185.171 169.64 183.398 167.947 182.144 165.76C180.891 163.573 180.264 161 180.264 158.04C180.264 155.08 180.891 152.507 182.144 150.32C183.398 148.107 185.171 146.413 187.464 145.24C189.758 144.04 192.398 143.44 195.384 143.44C197.411 143.44 199.198 143.653 200.744 144.08C202.318 144.48 203.758 145.12 205.064 146V151.8C203.891 150.84 202.544 150.147 201.024 149.72C199.531 149.267 197.824 149.04 195.904 149.04C194.118 149.04 192.504 149.413 191.064 150.16C189.651 150.88 188.531 151.92 187.704 153.28C186.878 154.64 186.464 156.227 186.464 158.04C186.464 159.88 186.838 161.493 187.584 162.88C188.358 164.24 189.438 165.293 190.824 166.04C192.211 166.787 193.811 167.16 195.624 167.16C197.278 167.16 198.718 166.867 199.944 166.28V160.88H195.424V156.4H205.824V169.88C203.184 171.693 199.704 172.6 195.384 172.6ZM210.228 152.8H216.068V155.56C216.842 154.627 217.922 153.92 219.308 153.44C220.695 152.933 222.268 152.68 224.028 152.68V157.28C222.188 157.28 220.562 157.56 219.148 158.12C217.762 158.68 216.802 159.533 216.268 160.68V172H210.228V152.8ZM237.77 172.6C235.45 172.6 233.41 172.187 231.65 171.36C229.916 170.507 228.57 169.32 227.61 167.8C226.676 166.253 226.21 164.453 226.21 162.4C226.21 160.4 226.676 158.627 227.61 157.08C228.57 155.533 229.916 154.333 231.65 153.48C233.41 152.627 235.45 152.2 237.77 152.2C240.063 152.2 242.076 152.627 243.81 153.48C245.57 154.333 246.916 155.533 247.85 157.08C248.81 158.627 249.29 160.4 249.29 162.4C249.29 164.453 248.81 166.253 247.85 167.8C246.916 169.32 245.583 170.507 243.85 171.36C242.116 172.187 240.09 172.6 237.77 172.6ZM237.77 167.88C239.396 167.88 240.69 167.387 241.65 166.4C242.61 165.387 243.09 164.053 243.09 162.4C243.09 160.693 242.61 159.36 241.65 158.4C240.716 157.413 239.423 156.92 237.77 156.92C236.116 156.92 234.81 157.413 233.85 158.4C232.89 159.36 232.41 160.693 232.41 162.4C232.41 164.053 232.89 165.387 233.85 166.4C234.836 167.387 236.143 167.88 237.77 167.88ZM261.314 172.6C258.7 172.6 256.74 171.893 255.434 170.48C254.127 169.04 253.474 167.133 253.474 164.76V152.8H259.514V164.12C259.514 166.627 260.674 167.88 262.994 167.88C264.007 167.88 264.954 167.64 265.834 167.16C266.714 166.68 267.447 165.96 268.034 165V152.8H274.074V172H268.234V169.68C267.38 170.667 266.34 171.4 265.114 171.88C263.914 172.36 262.647 172.6 261.314 172.6ZM279.283 152.8H285.123V154.92C287.07 153.107 289.47 152.2 292.323 152.2C294.323 152.2 296.083 152.627 297.603 153.48C299.15 154.307 300.35 155.493 301.203 157.04C302.056 158.56 302.483 160.333 302.483 162.36C302.483 164.36 302.056 166.133 301.203 167.68C300.35 169.227 299.15 170.44 297.603 171.32C296.083 172.173 294.323 172.6 292.323 172.6C290.963 172.6 289.67 172.4 288.443 172C287.216 171.6 286.176 171.027 285.323 170.28V180.76H279.283V152.8ZM290.803 167.88C292.43 167.88 293.75 167.373 294.763 166.36C295.803 165.347 296.323 164.013 296.323 162.36C296.323 160.707 295.803 159.387 294.763 158.4C293.75 157.413 292.43 156.92 290.803 156.92C289.55 156.92 288.43 157.253 287.443 157.92C286.456 158.587 285.75 159.467 285.323 160.56V164.2C285.723 165.32 286.416 166.213 287.403 166.88C288.416 167.547 289.55 167.88 290.803 167.88Z" fill="white"/>
<path d="M108.592 90L113.072 79.632H114.704L119.344 90H117.552L116.368 87.328H111.504L110.352 90H108.592ZM112.08 85.824H115.824L113.904 81.536L112.08 85.824ZM122.426 79.712H123.994L130.442 87.36V79.712H132.106V90H130.538L124.09 82.336V90H122.426V79.712ZM139.026 86.72C139.026 86.64 139.026 86.544 139.026 86.48V86.4C138.962 86.112 138.754 85.76 138.498 85.392C138.242 85.008 137.97 84.656 137.794 84.352L134.978 79.712H136.866L139.874 84.624L142.818 79.712H144.738L141.922 84.352C141.762 84.624 141.474 85.008 141.218 85.392C140.962 85.792 140.738 86.144 140.674 86.4C140.674 86.432 140.69 86.448 140.69 86.448V90H139.026V87.136V86.72ZM151.594 79.504C154.81 79.504 156.65 82.08 156.65 84.864C156.65 87.632 154.81 90.208 151.594 90.208C148.394 90.208 146.57 87.616 146.57 84.864C146.57 82.096 148.394 79.504 151.594 79.504ZM151.594 81.12C149.498 81.12 148.346 82.976 148.346 84.848C148.346 86.704 149.498 88.56 151.594 88.56C153.706 88.56 154.89 86.736 154.89 84.864C154.89 82.976 153.722 81.12 151.594 81.12ZM160.129 79.712H161.697L168.145 87.36V79.712H169.809V90H168.241L161.793 82.336V90H160.129V79.712ZM173.769 79.712H183.241V81.232H175.433V84.08H181.241V85.616H175.433V88.48H183.241V90H173.769V79.712ZM197.375 79.504C199.983 79.504 201.775 81.232 202.303 83.52L202.335 83.696H200.527L200.495 83.584C200.111 82.192 198.927 81.12 197.375 81.12C195.279 81.12 194.127 82.992 194.127 84.848C194.127 86.688 195.263 88.56 197.375 88.56C198.911 88.56 200.111 87.52 200.495 86.112L200.527 86H202.335L202.303 86.176C201.775 88.464 199.999 90.208 197.375 90.208C194.175 90.208 192.351 87.616 192.351 84.864C192.351 82.096 194.175 79.504 197.375 79.504ZM204.358 90L208.838 79.632H210.47L215.11 90H213.318L212.134 87.328H207.27L206.118 90H204.358ZM207.846 85.824H211.59L209.67 81.536L207.846 85.824ZM218.191 79.712H219.759L226.207 87.36V79.712H227.871V90H226.303L219.855 82.336V90H218.191V79.712ZM239.033 86.336L239.049 86.48C239.193 87.6 239.977 88.56 241.209 88.56C242.585 88.56 243.401 87.376 243.401 86.128V79.712H245.049V86.128C245.049 88.208 243.657 90.208 241.225 90.208C238.937 90.208 237.545 88.48 237.385 86.496L237.369 86.336H239.033ZM253.547 79.504C256.763 79.504 258.603 82.08 258.603 84.864C258.603 87.632 256.763 90.208 253.547 90.208C250.347 90.208 248.523 87.616 248.523 84.864C248.523 82.096 250.347 79.504 253.547 79.504ZM253.547 81.12C251.451 81.12 250.299 82.976 250.299 84.848C250.299 86.704 251.451 88.56 253.547 88.56C255.659 88.56 256.843 86.736 256.843 84.864C256.843 82.976 255.675 81.12 253.547 81.12ZM262.082 79.712H263.746V90H262.082V79.712ZM267.707 79.712H269.275L275.723 87.36V79.712H277.387V90H275.819L269.371 82.336V90H267.707V79.712Z" fill="#EF8963"/>
<defs>
<linearGradient id="paint0_linear_863_431" x1="189.5" y1="0" x2="189.5" y2="607" gradientUnits="userSpaceOnUse">
<stop stop-color="#3F3F3F"/>
<stop offset="1" stop-color="#2E2E2E"/>
</linearGradient>
<linearGradient id="paint1_linear_863_431" x1="189.5" y1="0" x2="189.5" y2="700" gradientUnits="userSpaceOnUse">
<stop stop-color="#3F3F3F"/>
<stop offset="1" stop-color="#2E2E2E"/>
</linearGradient>
<linearGradient id="paint2_linear_863_431" x1="48.5" y1="325.426" x2="48.5" y2="333.457" gradientUnits="userSpaceOnUse">
<stop stop-color="#2D2D2D"/>
<stop offset="1" stop-color="#242424"/>
</linearGradient>
<linearGradient id="paint3_linear_863_431" x1="48.5" y1="244.908" x2="48.5" y2="252.939" gradientUnits="userSpaceOnUse">
<stop stop-color="#2D2D2D"/>
<stop offset="1" stop-color="#242424"/>
</linearGradient>
</defs>
</svg>
