<svg width="158" height="26" viewBox="0 0 158 26" fill="none" xmlns="http://www.w3.org/2000/svg">
<rect width="158" height="26" rx="5" fill="#FE8132"/>
<path d="M16.4636 8.184C17.285 8.184 18.0316 8.32267 18.7036 8.6C19.3756 8.87733 19.925 9.25067 20.3516 9.72C20.789 10.1787 21.1356 10.6853 21.3916 11.24C21.6476 11.7947 21.8183 12.376 21.9036 12.984L21.9356 13.192H18.9596L18.9276 13.032C18.8103 12.424 18.5383 11.9067 18.1116 11.48C17.685 11.0533 17.1356 10.84 16.4636 10.84C15.6636 10.84 15.045 11.1333 14.6076 11.72C14.181 12.296 13.9676 12.952 13.9676 13.688C13.9676 14.424 14.181 15.08 14.6076 15.656C15.045 16.232 15.6636 16.52 16.4636 16.52C17.1356 16.52 17.685 16.3067 18.1116 15.88C18.5383 15.4533 18.8103 14.936 18.9276 14.328L18.9596 14.168H21.9356L21.9036 14.376C21.829 14.984 21.6583 15.5653 21.3916 16.12C21.1356 16.6747 20.789 17.1867 20.3516 17.656C19.925 18.1253 19.3756 18.4987 18.7036 18.776C18.0316 19.0533 17.285 19.192 16.4636 19.192C15.5676 19.192 14.7623 19.0267 14.0476 18.696C13.333 18.3653 12.757 17.928 12.3196 17.384C11.893 16.84 11.5676 16.2533 11.3436 15.624C11.1196 14.984 11.0076 14.3387 11.0076 13.688C11.0076 13.0373 11.1196 12.3973 11.3436 11.768C11.5676 11.128 11.893 10.5413 12.3196 10.008C12.757 9.464 13.333 9.02667 14.0476 8.696C14.7623 8.35467 15.5676 8.184 16.4636 8.184ZM30.3699 8.184C31.2659 8.184 32.0712 8.35467 32.7859 8.696C33.5112 9.02667 34.0872 9.464 34.5139 10.008C34.9512 10.5413 35.2819 11.128 35.5059 11.768C35.7299 12.3973 35.8419 13.0373 35.8419 13.688C35.8419 14.3387 35.7299 14.984 35.5059 15.624C35.2819 16.2533 34.9512 16.84 34.5139 17.384C34.0872 17.928 33.5112 18.3653 32.7859 18.696C32.0712 19.0267 31.2659 19.192 30.3699 19.192C29.4739 19.192 28.6685 19.0267 27.9539 18.696C27.2392 18.3653 26.6632 17.928 26.2259 17.384C25.7992 16.84 25.4739 16.2533 25.2499 15.624C25.0259 14.984 24.9139 14.3387 24.9139 13.688C24.9139 13.0373 25.0259 12.3973 25.2499 11.768C25.4739 11.128 25.7992 10.5413 26.2259 10.008C26.6632 9.464 27.2392 9.02667 27.9539 8.696C28.6685 8.35467 29.4739 8.184 30.3699 8.184ZM30.3699 10.84C29.5699 10.84 28.9512 11.1333 28.5139 11.72C28.0872 12.296 27.8739 12.952 27.8739 13.688C27.8739 14.424 28.0872 15.08 28.5139 15.656C28.9512 16.232 29.5699 16.52 30.3699 16.52C31.1699 16.52 31.7885 16.232 32.2259 15.656C32.6739 15.08 32.8979 14.424 32.8979 13.688C32.8979 12.952 32.6739 12.296 32.2259 11.72C31.7885 11.1333 31.1699 10.84 30.3699 10.84ZM44.6281 12.28L47.3961 8.376H49.8761V19H46.9961V13.416L45.8281 15.064H43.3641L42.1801 13.416V19H39.3161V8.376H41.7801L44.6281 12.28ZM53.8318 8.376H56.6958V19H53.8318V8.376ZM60.6599 8.376H63.0919L68.3399 14.344V8.376H71.2199V19H68.7559L63.5239 13.016V19H60.6599V8.376ZM80.1355 8.184C81.3835 8.184 82.4448 8.49867 83.3195 9.128C84.1942 9.75733 84.8342 10.5627 85.2395 11.544C85.2822 11.672 85.3195 11.768 85.3515 11.832L85.4475 12.072L82.2955 12.12L82.2315 12.008C82.0182 11.656 81.7248 11.3733 81.3515 11.16C80.9782 10.9467 80.5728 10.84 80.1355 10.84C79.3355 10.84 78.7168 11.1333 78.2795 11.72C77.8528 12.296 77.6395 12.952 77.6395 13.688C77.6395 14.424 77.8528 15.08 78.2795 15.656C78.7168 16.232 79.3355 16.52 80.1355 16.52C80.6475 16.52 81.0955 16.3867 81.4795 16.12C81.8635 15.8533 82.1568 15.5013 82.3595 15.064H79.6715V12.504H85.4795L85.5115 12.664C85.5755 12.9947 85.6075 13.336 85.6075 13.688C85.6075 14.2107 85.5382 14.728 85.3995 15.24C85.2715 15.7413 85.0582 16.232 84.7595 16.712C84.4608 17.192 84.1035 17.6187 83.6875 17.992C83.2715 18.3547 82.7542 18.648 82.1355 18.872C81.5275 19.0853 80.8608 19.192 80.1355 19.192C79.2395 19.192 78.4342 19.0267 77.7195 18.696C77.0048 18.3653 76.4288 17.928 75.9915 17.384C75.5648 16.84 75.2395 16.2533 75.0155 15.624C74.7915 14.984 74.6795 14.3387 74.6795 13.688C74.6795 13.0373 74.7915 12.3973 75.0155 11.768C75.2395 11.128 75.5648 10.5413 75.9915 10.008C76.4288 9.464 77.0048 9.02667 77.7195 8.696C78.4342 8.35467 79.2395 8.184 80.1355 8.184ZM94.5233 15.256H97.3713V15.656C97.3713 15.9867 97.6219 16.2373 98.1233 16.408C98.5606 16.5573 99.0513 16.632 99.5953 16.632C100.225 16.632 100.731 16.5627 101.115 16.424C101.585 16.2427 101.819 15.9653 101.819 15.592C101.819 15.3573 101.659 15.1813 101.339 15.064C101.062 14.968 100.71 14.9093 100.283 14.888C100.113 14.8773 99.8566 14.872 99.5153 14.872C98.7899 14.872 98.1553 14.824 97.6113 14.728C97.0779 14.632 96.5819 14.472 96.1233 14.248C95.6646 14.0133 95.3126 13.6827 95.0673 13.256C94.8326 12.8187 94.7153 12.2853 94.7153 11.656C94.7153 10.472 95.1579 9.59733 96.0433 9.032C96.9393 8.46667 98.1233 8.184 99.5953 8.184C100.982 8.184 102.145 8.49867 103.083 9.128C104.022 9.74667 104.491 10.6107 104.491 11.72V12.12H101.627V11.72C101.627 11.4 101.419 11.16 101.003 11C100.598 10.8293 100.129 10.744 99.5953 10.744C99.0406 10.744 98.5819 10.8027 98.2193 10.92C97.7926 11.08 97.5793 11.3253 97.5793 11.656C97.5793 11.9333 97.8193 12.12 98.2993 12.216C98.4486 12.248 98.6939 12.2747 99.0353 12.296C99.2059 12.3067 99.4299 12.312 99.7073 12.312C100.443 12.312 101.089 12.36 101.643 12.456C102.209 12.552 102.731 12.7173 103.211 12.952C103.691 13.1867 104.054 13.528 104.299 13.976C104.555 14.4133 104.683 14.952 104.683 15.592C104.683 16.8187 104.219 17.7253 103.291 18.312C102.363 18.8987 101.131 19.192 99.5953 19.192C98.1873 19.192 96.9873 18.8827 95.9953 18.264C95.0139 17.6453 94.5233 16.776 94.5233 15.656V15.256ZM113.104 8.184C114 8.184 114.806 8.35467 115.52 8.696C116.246 9.02667 116.822 9.464 117.248 10.008C117.686 10.5413 118.016 11.128 118.24 11.768C118.464 12.3973 118.576 13.0373 118.576 13.688C118.576 14.3387 118.464 14.984 118.24 15.624C118.016 16.2533 117.686 16.84 117.248 17.384C116.822 17.928 116.246 18.3653 115.52 18.696C114.806 19.0267 114 19.192 113.104 19.192C112.208 19.192 111.403 19.0267 110.688 18.696C109.974 18.3653 109.398 17.928 108.96 17.384C108.534 16.84 108.208 16.2533 107.984 15.624C107.76 14.984 107.648 14.3387 107.648 13.688C107.648 13.0373 107.76 12.3973 107.984 11.768C108.208 11.128 108.534 10.5413 108.96 10.008C109.398 9.464 109.974 9.02667 110.688 8.696C111.403 8.35467 112.208 8.184 113.104 8.184ZM113.104 10.84C112.304 10.84 111.686 11.1333 111.248 11.72C110.822 12.296 110.608 12.952 110.608 13.688C110.608 14.424 110.822 15.08 111.248 15.656C111.686 16.232 112.304 16.52 113.104 16.52C113.904 16.52 114.523 16.232 114.96 15.656C115.408 15.08 115.632 14.424 115.632 13.688C115.632 12.952 115.408 12.296 114.96 11.72C114.523 11.1333 113.904 10.84 113.104 10.84ZM127.011 8.184C127.907 8.184 128.712 8.35467 129.427 8.696C130.152 9.02667 130.728 9.464 131.155 10.008C131.592 10.5413 131.923 11.128 132.147 11.768C132.371 12.3973 132.483 13.0373 132.483 13.688C132.483 14.3387 132.371 14.984 132.147 15.624C131.923 16.2533 131.592 16.84 131.155 17.384C130.728 17.928 130.152 18.3653 129.427 18.696C128.712 19.0267 127.907 19.192 127.011 19.192C126.115 19.192 125.309 19.0267 124.595 18.696C123.88 18.3653 123.304 17.928 122.867 17.384C122.44 16.84 122.115 16.2533 121.891 15.624C121.667 14.984 121.555 14.3387 121.555 13.688C121.555 13.0373 121.667 12.3973 121.891 11.768C122.115 11.128 122.44 10.5413 122.867 10.008C123.304 9.464 123.88 9.02667 124.595 8.696C125.309 8.35467 126.115 8.184 127.011 8.184ZM127.011 10.84C126.211 10.84 125.592 11.1333 125.155 11.72C124.728 12.296 124.515 12.952 124.515 13.688C124.515 14.424 124.728 15.08 125.155 15.656C125.592 16.232 126.211 16.52 127.011 16.52C127.811 16.52 128.429 16.232 128.867 15.656C129.315 15.08 129.539 14.424 129.539 13.688C129.539 12.952 129.315 12.296 128.867 11.72C128.429 11.1333 127.811 10.84 127.011 10.84ZM135.957 8.376H138.389L143.637 14.344V8.376H146.517V19H144.053L138.821 13.016V19H135.957V8.376Z" fill="white"/>
</svg>
