<svg width="1440" height="1024" viewBox="0 0 1440 1024" fill="none" xmlns="http://www.w3.org/2000/svg">
<rect width="1440" height="1024" fill="#171717"/>
<path d="M718.102 340L720.186 340L720.186 346.946L718.102 346.946L718.102 340ZM718.102 353.891L720.186 353.891L720.186 360.837L718.102 360.837L718.102 353.891ZM718.102 367.782L720.186 367.782L720.186 374.728L718.102 374.728L718.102 367.782ZM718.102 381.673L720.186 381.673L720.186 388.619L718.102 388.619L718.102 381.673ZM718.102 395.565L720.186 395.565L720.186 402.51L718.102 402.51L718.102 395.565ZM718.102 409.456L720.186 409.456L720.186 416.401L718.102 416.401L718.102 409.456ZM718.102 423.347L720.186 423.347L720.186 430.292L718.102 430.292L718.102 423.347ZM718.102 437.238L720.186 437.238L720.186 444.184L718.102 444.184L718.102 437.238ZM718.102 451.129L720.186 451.129L720.186 458.075L718.102 458.075L718.102 451.129ZM718.102 465.02L720.186 465.02L720.186 471.966L718.102 471.966L718.102 465.02ZM718.102 478.911L720.186 478.911L720.186 485.857L718.102 485.857L718.102 478.911ZM718.102 492.803L720.186 492.803L720.186 499.748L718.102 499.748L718.102 492.803ZM718.102 506.694L720.186 506.694L720.186 513.639L718.102 513.639L718.102 506.694ZM718.102 520.585L720.186 520.585L720.186 527.53L718.102 527.53L718.102 520.585ZM718.102 534.476L720.186 534.476L720.186 541.422L718.102 541.422L718.102 534.476ZM718.102 548.367L720.186 548.367L720.186 555.313L718.102 555.313L718.102 548.367ZM718.102 562.258L720.186 562.258L720.186 569.204L718.102 569.204L718.102 562.258ZM718.102 576.149L720.186 576.149L720.186 583.095L718.102 583.095L718.102 576.149ZM718.102 590.272L720.186 590.272L720.186 597.218L718.102 597.218L718.102 590.272ZM718.102 604.163L720.186 604.163L720.186 611.109L718.102 611.109L718.102 604.163ZM718.102 618.054L720.186 618.054L720.186 625L718.102 625L718.102 618.054Z" fill="#C2C2C2"/>
<path d="M719.029 449.046L728.059 459.233L726.67 460.391L719.029 452.056L711.389 460.391L710 459.233L719.029 449.046Z" fill="#C2C2C2"/>
<path d="M719.029 477.523L728.059 487.478L726.67 488.867L719.029 480.301L711.389 488.867L710 487.478L719.029 477.523Z" fill="#C2C2C2"/>
<path d="M927.91 459.417H923.815V457.37H928.137V459.417H927.91ZM916.99 459.417H910.165V457.37H916.99V459.417ZM903.34 459.417H896.515V457.37H903.34V459.417ZM889.69 459.417H882.865V457.37H889.69V459.417ZM876.04 459.417H869.215V457.37H876.04V459.417ZM862.39 459.417H855.565V457.37H862.39V459.417ZM848.74 459.417H841.915V457.37H848.74V459.417ZM835.09 459.417H828.265V457.37H835.09V459.417ZM821.44 459.417H814.615V457.37H821.44V459.417ZM807.79 459.417H800.965V457.37H807.79V459.417ZM794.14 459.417H787.315V457.37H794.14V459.417ZM780.262 459.19C777.987 458.962 775.712 458.507 773.437 457.825L773.892 456.005C775.94 456.687 778.215 457.142 780.49 457.37L780.262 459.19ZM767.067 455.095C765.02 453.957 762.972 452.82 761.152 451.455L762.29 449.862C764.11 451.227 765.93 452.365 767.977 453.275L767.067 455.095ZM755.92 446.677C754.327 445.085 752.962 443.037 751.597 441.217L753.19 440.08C754.327 441.9 755.692 443.72 757.285 445.312L755.92 446.677ZM748.185 435.075C747.275 433.027 746.593 430.752 745.91 428.477L747.73 428.022C748.185 430.07 748.867 432.345 749.777 434.392L748.185 435.075ZM745 421.652C745 420.97 745 420.06 745 419.377V414.827H747.047V419.377C747.047 420.06 747.047 420.742 747.047 421.425L745 421.652ZM747.047 407.775H745V400.95H747.047V407.775ZM747.047 394.125H745V387.3H747.047V394.125ZM747.047 380.475H745V373.65H747.047V380.475ZM747.047 366.825H745V360H747.047V366.825Z" fill="#C2C2C2"/>
<path d="M825.038 458.872L835.048 450L836.186 451.592L827.996 458.872L836.186 466.38L835.048 467.745L825.038 458.872Z" fill="#C2C2C2"/>
<path d="M853.021 458.872L863.03 450L864.168 451.592L855.978 458.872L864.168 466.38L863.03 467.745L853.021 458.872Z" fill="#C2C2C2"/>
<path d="M512.227 459.417H516.322V457.37H512V459.417H512.227ZM523.147 459.417H529.972V457.37H523.147V459.417ZM536.797 459.417H543.622V457.37H536.797V459.417ZM550.447 459.417H557.272V457.37H550.447V459.417ZM564.097 459.417H570.922V457.37H564.097V459.417ZM577.747 459.417H584.572V457.37H577.747V459.417ZM591.397 459.417H598.222V457.37H591.397V459.417ZM605.047 459.417H611.872V457.37H605.047V459.417ZM618.697 459.417H625.522V457.37H618.697V459.417ZM632.347 459.417H639.172V457.37H632.347V459.417ZM645.997 459.417H652.822V457.37H645.997V459.417ZM659.874 459.19C662.149 458.962 664.424 458.507 666.699 457.825L666.244 456.005C664.197 456.687 661.922 457.142 659.647 457.37L659.874 459.19ZM673.069 455.095C675.117 453.957 677.164 452.82 678.984 451.455L677.847 449.862C676.027 451.227 674.207 452.365 672.159 453.275L673.069 455.095ZM684.217 446.677C685.809 445.085 687.174 443.037 688.539 441.217L686.947 440.08C685.809 441.9 684.444 443.72 682.852 445.312L684.217 446.677ZM691.952 435.075C692.862 433.027 693.544 430.752 694.227 428.477L692.407 428.022C691.952 430.07 691.269 432.345 690.359 434.392L691.952 435.075ZM695.137 421.652C695.137 420.97 695.137 420.06 695.137 419.377V414.827H693.089V419.377C693.089 420.06 693.089 420.742 693.089 421.425L695.137 421.652ZM693.089 407.775H695.137V400.95H693.089V407.775ZM693.089 394.125H695.137V387.3H693.089V394.125ZM693.089 380.475H695.137V373.65H693.089V380.475ZM693.089 366.825H695.137V360H693.089V366.825Z" fill="#C2C2C2"/>
<path d="M615.099 458.872L605.089 450L603.951 451.592L612.141 458.872L603.951 466.38L605.089 467.745L615.099 458.872Z" fill="#C2C2C2"/>
<path d="M587.116 458.872L577.106 450L575.969 451.592L584.159 458.872L575.969 466.38L577.106 467.745L587.116 458.872Z" fill="#C2C2C2"/>
<circle cx="720.5" cy="290.5" r="115.75" fill="#272727" stroke="#FF8B37" stroke-width="1.5"/>
<path d="M637.586 311.02H640.046L645.626 325H643.046L641.766 321.78H635.846L634.586 325H631.986L637.586 311.02ZM641.066 319.68L638.806 313.74L636.546 319.68H641.066ZM648.62 311.02H651.16V325H648.62V311.02ZM667.968 311.02H670.428L676.008 325H673.428L672.148 321.78H666.228L664.968 325H662.368L667.968 311.02ZM671.448 319.68L669.188 313.74L666.928 319.68H671.448ZM679.003 310.22H681.523V325H679.003V310.22ZM684.925 315.4H687.365V316.56C687.885 316.067 688.451 315.7 689.065 315.46C689.678 315.22 690.378 315.1 691.165 315.1C692.138 315.1 693.005 315.313 693.765 315.74C694.538 316.153 695.138 316.747 695.565 317.52C696.005 318.28 696.225 319.167 696.225 320.18C696.225 321.18 696.005 322.067 695.565 322.84C695.138 323.613 694.538 324.22 693.765 324.66C693.005 325.087 692.138 325.3 691.165 325.3C690.431 325.3 689.738 325.2 689.085 325C688.445 324.787 687.898 324.473 687.445 324.06V329.38H684.925V315.4ZM690.545 323.32C691.451 323.32 692.198 323.027 692.785 322.44C693.371 321.853 693.665 321.1 693.665 320.18C693.665 319.26 693.371 318.513 692.785 317.94C692.198 317.367 691.451 317.08 690.545 317.08C689.825 317.08 689.185 317.273 688.625 317.66C688.065 318.047 687.671 318.567 687.445 319.22V321.16C687.658 321.813 688.045 322.34 688.605 322.74C689.178 323.127 689.825 323.32 690.545 323.32ZM699.225 310.22H701.745V316.62C702.652 315.607 703.825 315.1 705.265 315.1C706.559 315.1 707.525 315.453 708.165 316.16C708.805 316.853 709.125 317.78 709.125 318.94V325H706.605V319.18C706.605 317.78 705.952 317.08 704.645 317.08C704.072 317.08 703.532 317.22 703.025 317.5C702.519 317.767 702.092 318.173 701.745 318.72V325H699.225V310.22ZM715.659 325.3C714.513 325.3 713.573 325 712.839 324.4C712.106 323.787 711.739 322.967 711.739 321.94C711.739 320.873 712.086 320.04 712.779 319.44C713.473 318.84 714.446 318.54 715.699 318.54C716.913 318.54 717.959 318.787 718.839 319.28V319.02C718.839 318.34 718.626 317.847 718.199 317.54C717.786 317.233 717.113 317.08 716.179 317.08C715.593 317.08 715.013 317.14 714.439 317.26C713.866 317.367 713.359 317.52 712.919 317.72V315.74C713.319 315.553 713.853 315.4 714.519 315.28C715.199 315.16 715.853 315.1 716.479 315.1C718.146 315.1 719.379 315.46 720.179 316.18C720.979 316.887 721.379 317.873 721.379 319.14V325H718.999V324.06C718.586 324.46 718.113 324.767 717.579 324.98C717.059 325.193 716.419 325.3 715.659 325.3ZM716.279 323.46C716.839 323.46 717.346 323.353 717.799 323.14C718.253 322.913 718.599 322.607 718.839 322.22V321.16C718.106 320.64 717.266 320.38 716.319 320.38C714.973 320.38 714.299 320.9 714.299 321.94C714.299 322.447 714.466 322.827 714.799 323.08C715.146 323.333 715.639 323.46 716.279 323.46ZM736.309 313.12H732.089V311.02H743.069V313.12H738.849V325H736.309V313.12ZM744.163 315.4H746.603V316.94C746.99 316.42 747.536 316.033 748.243 315.78C748.963 315.527 749.783 315.4 750.703 315.4V317.32C749.73 317.32 748.883 317.473 748.163 317.78C747.456 318.073 746.963 318.54 746.683 319.18V325H744.163V315.4ZM755.929 325.3C754.782 325.3 753.842 325 753.109 324.4C752.376 323.787 752.009 322.967 752.009 321.94C752.009 320.873 752.356 320.04 753.049 319.44C753.742 318.84 754.716 318.54 755.969 318.54C757.182 318.54 758.229 318.787 759.109 319.28V319.02C759.109 318.34 758.896 317.847 758.469 317.54C758.056 317.233 757.382 317.08 756.449 317.08C755.862 317.08 755.282 317.14 754.709 317.26C754.136 317.367 753.629 317.52 753.189 317.72V315.74C753.589 315.553 754.122 315.4 754.789 315.28C755.469 315.16 756.122 315.1 756.749 315.1C758.416 315.1 759.649 315.46 760.449 316.18C761.249 316.887 761.649 317.873 761.649 319.14V325H759.269V324.06C758.856 324.46 758.382 324.767 757.849 324.98C757.329 325.193 756.689 325.3 755.929 325.3ZM756.549 323.46C757.109 323.46 757.616 323.353 758.069 323.14C758.522 322.913 758.869 322.607 759.109 322.22V321.16C758.376 320.64 757.536 320.38 756.589 320.38C755.242 320.38 754.569 320.9 754.569 321.94C754.569 322.447 754.736 322.827 755.069 323.08C755.416 323.333 755.909 323.46 756.549 323.46ZM769.612 325.3C768.639 325.3 767.765 325.093 766.992 324.68C766.232 324.253 765.632 323.66 765.192 322.9C764.765 322.127 764.552 321.233 764.552 320.22C764.552 319.22 764.765 318.333 765.192 317.56C765.632 316.787 766.232 316.187 766.992 315.76C767.765 315.32 768.639 315.1 769.612 315.1C771.185 315.1 772.425 315.513 773.332 316.34V310.22H775.852V325H773.412V323.88C772.865 324.387 772.299 324.753 771.712 324.98C771.125 325.193 770.425 325.3 769.612 325.3ZM770.232 323.32C770.952 323.32 771.592 323.127 772.152 322.74C772.712 322.353 773.105 321.833 773.332 321.18V319.24C773.119 318.587 772.725 318.067 772.152 317.68C771.592 317.28 770.952 317.08 770.232 317.08C769.325 317.08 768.579 317.373 767.992 317.96C767.405 318.547 767.112 319.3 767.112 320.22C767.112 321.14 767.405 321.887 767.992 322.46C768.579 323.033 769.325 323.32 770.232 323.32ZM780.673 313.72C780.273 313.72 779.933 313.587 779.653 313.32C779.386 313.053 779.253 312.72 779.253 312.32C779.253 311.92 779.386 311.587 779.653 311.32C779.933 311.04 780.273 310.9 780.673 310.9C781.073 310.9 781.413 311.04 781.693 311.32C781.973 311.587 782.113 311.92 782.113 312.32C782.113 312.72 781.973 313.053 781.693 313.32C781.413 313.587 781.073 313.72 780.673 313.72ZM779.393 315.4H781.953V325H779.393V315.4ZM785.507 315.4H787.947V316.7C788.4 316.153 788.94 315.753 789.567 315.5C790.193 315.233 790.853 315.1 791.547 315.1C792.84 315.1 793.807 315.453 794.447 316.16C795.087 316.853 795.407 317.78 795.407 318.94V325H792.887V319.18C792.887 317.78 792.233 317.08 790.927 317.08C790.353 317.08 789.813 317.22 789.307 317.5C788.8 317.767 788.373 318.173 788.027 318.72V325H785.507V315.4ZM803.794 329.6C803.154 329.6 802.514 329.54 801.874 329.42C801.234 329.3 800.7 329.14 800.274 328.94V326.94C801.314 327.393 802.487 327.62 803.794 327.62C804.967 327.62 805.807 327.373 806.314 326.88C806.834 326.387 807.094 325.653 807.094 324.68V324.06C806.64 324.473 806.1 324.787 805.474 325C804.847 325.2 804.174 325.3 803.454 325.3C802.48 325.3 801.6 325.087 800.814 324.66C800.027 324.22 799.414 323.613 798.974 322.84C798.534 322.067 798.314 321.18 798.314 320.18C798.314 319.167 798.527 318.28 798.954 317.52C799.394 316.747 799.994 316.153 800.754 315.74C801.527 315.313 802.4 315.1 803.374 315.1C804.187 315.1 804.887 315.213 805.474 315.44C806.06 315.653 806.627 316.013 807.174 316.52V315.4H809.614V324.42C809.614 326.073 809.134 327.347 808.174 328.24C807.227 329.147 805.767 329.6 803.794 329.6ZM803.994 323.32C804.714 323.32 805.354 323.127 805.914 322.74C806.487 322.34 806.88 321.813 807.094 321.16V319.22C806.867 318.567 806.474 318.047 805.914 317.66C805.354 317.273 804.714 317.08 803.994 317.08C803.087 317.08 802.34 317.367 801.754 317.94C801.167 318.513 800.874 319.26 800.874 320.18C800.874 321.1 801.167 321.853 801.754 322.44C802.34 323.027 803.087 323.32 803.994 323.32ZM673.068 347.3C672.241 347.3 671.421 347.22 670.608 347.06C669.808 346.913 669.148 346.713 668.628 346.46V344.28C669.295 344.6 669.995 344.84 670.728 345C671.461 345.16 672.181 345.24 672.888 345.24C673.781 345.24 674.461 345.073 674.928 344.74C675.395 344.407 675.628 343.947 675.628 343.36C675.628 342.947 675.521 342.607 675.308 342.34C675.095 342.06 674.781 341.82 674.368 341.62C673.955 341.407 673.321 341.133 672.468 340.8C671.161 340.267 670.215 339.673 669.628 339.02C669.041 338.367 668.748 337.553 668.748 336.58C668.748 335.82 668.955 335.147 669.368 334.56C669.781 333.973 670.361 333.52 671.108 333.2C671.855 332.88 672.715 332.72 673.688 332.72C674.488 332.72 675.195 332.787 675.808 332.92C676.435 333.04 677.048 333.233 677.648 333.5V335.62C676.488 335.06 675.315 334.78 674.128 334.78C673.275 334.78 672.615 334.94 672.148 335.26C671.681 335.567 671.448 336.007 671.448 336.58C671.448 336.993 671.555 337.333 671.768 337.6C671.981 337.853 672.261 338.073 672.608 338.26C672.968 338.433 673.608 338.713 674.528 339.1C675.461 339.487 676.195 339.867 676.728 340.24C677.275 340.613 677.681 341.053 677.948 341.56C678.228 342.053 678.368 342.66 678.368 343.38C678.368 344.62 677.921 345.587 677.028 346.28C676.135 346.96 674.815 347.3 673.068 347.3ZM684.533 347.3C683.479 347.3 682.679 347.007 682.133 346.42C681.586 345.833 681.313 345.007 681.313 343.94V339.32H679.873V337.4H681.313V334.52H683.833V337.4H686.133V339.32H683.833V343.62C683.833 344.233 683.946 344.673 684.173 344.94C684.399 345.193 684.813 345.32 685.413 345.32C685.826 345.32 686.233 345.227 686.633 345.04V346.96C686.059 347.187 685.359 347.3 684.533 347.3ZM689.427 337.4H691.867V338.94C692.253 338.42 692.8 338.033 693.507 337.78C694.227 337.527 695.047 337.4 695.967 337.4V339.32C694.993 339.32 694.147 339.473 693.427 339.78C692.72 340.073 692.227 340.54 691.947 341.18V347H689.427V337.4ZM701.193 347.3C700.046 347.3 699.106 347 698.373 346.4C697.639 345.787 697.273 344.967 697.273 343.94C697.273 342.873 697.619 342.04 698.313 341.44C699.006 340.84 699.979 340.54 701.233 340.54C702.446 340.54 703.493 340.787 704.373 341.28V341.02C704.373 340.34 704.159 339.847 703.733 339.54C703.319 339.233 702.646 339.08 701.713 339.08C701.126 339.08 700.546 339.14 699.973 339.26C699.399 339.367 698.893 339.52 698.453 339.72V337.74C698.853 337.553 699.386 337.4 700.053 337.28C700.733 337.16 701.386 337.1 702.013 337.1C703.679 337.1 704.913 337.46 705.713 338.18C706.513 338.887 706.913 339.873 706.913 341.14V347H704.533V346.06C704.119 346.46 703.646 346.767 703.113 346.98C702.593 347.193 701.953 347.3 701.193 347.3ZM701.813 345.46C702.373 345.46 702.879 345.353 703.333 345.14C703.786 344.913 704.133 344.607 704.373 344.22V343.16C703.639 342.64 702.799 342.38 701.853 342.38C700.506 342.38 699.833 342.9 699.833 343.94C699.833 344.447 699.999 344.827 700.333 345.08C700.679 345.333 701.173 345.46 701.813 345.46ZM713.568 347.3C712.514 347.3 711.714 347.007 711.168 346.42C710.621 345.833 710.348 345.007 710.348 343.94V339.32H708.908V337.4H710.348V334.52H712.868V337.4H715.168V339.32H712.868V343.62C712.868 344.233 712.981 344.673 713.208 344.94C713.434 345.193 713.848 345.32 714.448 345.32C714.861 345.32 715.268 345.227 715.668 345.04V346.96C715.094 347.187 714.394 347.3 713.568 347.3ZM723.862 347.3C722.075 347.3 720.662 346.853 719.622 345.96C718.582 345.067 718.062 343.82 718.062 342.22C718.062 340.647 718.522 339.4 719.442 338.48C720.362 337.56 721.675 337.1 723.382 337.1C724.502 337.1 725.455 337.313 726.242 337.74C727.042 338.167 727.642 338.753 728.042 339.5C728.442 340.233 728.642 341.073 728.642 342.02V343.18H720.462C720.635 344.607 721.875 345.32 724.182 345.32C724.795 345.32 725.422 345.267 726.062 345.16C726.702 345.053 727.262 344.907 727.742 344.72V346.66C727.288 346.847 726.702 347 725.982 347.12C725.275 347.24 724.568 347.3 723.862 347.3ZM726.262 341.46C726.235 340.7 725.962 340.113 725.442 339.7C724.935 339.287 724.235 339.08 723.342 339.08C722.462 339.08 721.768 339.293 721.262 339.72C720.755 340.147 720.488 340.727 720.462 341.46H726.262ZM736.729 351.6C736.089 351.6 735.449 351.54 734.809 351.42C734.169 351.3 733.636 351.14 733.209 350.94V348.94C734.249 349.393 735.423 349.62 736.729 349.62C737.903 349.62 738.743 349.373 739.249 348.88C739.769 348.387 740.029 347.653 740.029 346.68V346.06C739.576 346.473 739.036 346.787 738.409 347C737.783 347.2 737.109 347.3 736.389 347.3C735.416 347.3 734.536 347.087 733.749 346.66C732.963 346.22 732.349 345.613 731.909 344.84C731.469 344.067 731.249 343.18 731.249 342.18C731.249 341.167 731.463 340.28 731.889 339.52C732.329 338.747 732.929 338.153 733.689 337.74C734.463 337.313 735.336 337.1 736.309 337.1C737.123 337.1 737.823 337.213 738.409 337.44C738.996 337.653 739.563 338.013 740.109 338.52V337.4H742.549V346.42C742.549 348.073 742.069 349.347 741.109 350.24C740.163 351.147 738.703 351.6 736.729 351.6ZM736.929 345.32C737.649 345.32 738.289 345.127 738.849 344.74C739.423 344.34 739.816 343.813 740.029 343.16V341.22C739.803 340.567 739.409 340.047 738.849 339.66C738.289 339.273 737.649 339.08 736.929 339.08C736.023 339.08 735.276 339.367 734.689 339.94C734.103 340.513 733.809 341.26 733.809 342.18C733.809 343.1 734.103 343.853 734.689 344.44C735.276 345.027 736.023 345.32 736.929 345.32ZM747.37 335.72C746.97 335.72 746.63 335.587 746.35 335.32C746.083 335.053 745.95 334.72 745.95 334.32C745.95 333.92 746.083 333.587 746.35 333.32C746.63 333.04 746.97 332.9 747.37 332.9C747.77 332.9 748.11 333.04 748.39 333.32C748.67 333.587 748.81 333.92 748.81 334.32C748.81 334.72 748.67 335.053 748.39 335.32C748.11 335.587 747.77 335.72 747.37 335.72ZM746.09 337.4H748.65V347H746.09V337.4ZM757.604 347.3C755.817 347.3 754.404 346.853 753.364 345.96C752.324 345.067 751.804 343.82 751.804 342.22C751.804 340.647 752.264 339.4 753.184 338.48C754.104 337.56 755.417 337.1 757.124 337.1C758.244 337.1 759.197 337.313 759.984 337.74C760.784 338.167 761.384 338.753 761.784 339.5C762.184 340.233 762.384 341.073 762.384 342.02V343.18H754.204C754.377 344.607 755.617 345.32 757.924 345.32C758.537 345.32 759.164 345.267 759.804 345.16C760.444 345.053 761.004 344.907 761.484 344.72V346.66C761.031 346.847 760.444 347 759.724 347.12C759.017 347.24 758.311 347.3 757.604 347.3ZM760.004 341.46C759.977 340.7 759.704 340.113 759.184 339.7C758.677 339.287 757.977 339.08 757.084 339.08C756.204 339.08 755.511 339.293 755.004 339.72C754.497 340.147 754.231 340.727 754.204 341.46H760.004ZM769.131 347.3C768.438 347.3 767.698 347.22 766.911 347.06C766.125 346.9 765.511 346.68 765.071 346.4V344.26C765.591 344.58 766.211 344.84 766.931 345.04C767.651 345.227 768.331 345.32 768.971 345.32C769.611 345.32 770.078 345.267 770.371 345.16C770.665 345.04 770.811 344.827 770.811 344.52C770.811 344.28 770.731 344.087 770.571 343.94C770.425 343.78 770.178 343.64 769.831 343.52C769.498 343.387 768.978 343.227 768.271 343.04C767.471 342.813 766.838 342.58 766.371 342.34C765.918 342.1 765.571 341.8 765.331 341.44C765.105 341.067 764.991 340.587 764.991 340C764.991 339.04 765.371 338.32 766.131 337.84C766.891 337.347 767.918 337.1 769.211 337.1C769.878 337.1 770.538 337.167 771.191 337.3C771.858 337.42 772.378 337.593 772.751 337.82V339.88C772.351 339.64 771.865 339.447 771.291 339.3C770.718 339.153 770.131 339.08 769.531 339.08C768.878 339.08 768.385 339.147 768.051 339.28C767.718 339.4 767.551 339.64 767.551 340C767.551 340.24 767.638 340.433 767.811 340.58C767.998 340.713 768.238 340.833 768.531 340.94C768.825 341.033 769.358 341.18 770.131 341.38C770.958 341.607 771.605 341.853 772.071 342.12C772.538 342.387 772.871 342.707 773.071 343.08C773.271 343.453 773.371 343.92 773.371 344.48C773.371 345.333 773.005 346.02 772.271 346.54C771.551 347.047 770.505 347.3 769.131 347.3Z" fill="white"/>
<g clip-path="url(#clip0_1488_13722)">
<path d="M687 244.01C687.427 243.094 687.723 242.093 688.308 241.298C689.625 239.493 692.027 238.886 694.058 239.933C695.097 240.466 695.728 240.298 696.581 239.662C700.95 236.445 705.346 233.265 709.771 230.132C710.633 229.524 711.004 228.954 710.902 227.804C710.643 224.876 712.869 222.501 715.688 222.473C718.545 222.445 720.892 224.933 720.558 227.897C720.419 229.132 720.79 229.767 721.726 230.357C722.431 230.796 723.099 231.311 723.721 231.862C724.88 232.9 725.947 233.368 727.672 232.844C728.915 232.461 730.482 233.144 732.309 233.415C736.901 229.393 741.881 225.035 746.844 220.649C747.113 220.406 747.363 219.967 747.372 219.611C747.456 215.02 747.845 214.412 751.704 212.99H752.418C752.752 213.112 753.077 213.243 753.41 213.346C756.286 214.271 757.714 217.18 756.648 219.929C755.618 222.567 752.622 223.764 749.988 222.567C749.663 222.417 749.367 222.221 748.931 221.977C744.859 225.531 740.778 229.113 736.687 232.685C736.233 233.078 735.815 233.518 735.333 233.864C733.988 234.836 733.191 235.846 733.376 237.81C733.617 240.457 731.02 242.645 728.367 242.533C725.603 242.411 723.489 240.017 723.702 237.221C723.748 236.576 723.952 235.94 724.119 235.107C722.682 234.023 721.198 232.835 719.639 231.759C719.306 231.535 718.619 231.516 718.257 231.703C716.523 232.62 714.881 232.601 713.138 231.703C712.692 231.479 711.858 231.526 711.449 231.816C706.765 235.126 702.128 238.483 697.509 241.878C697.166 242.131 696.841 242.72 696.86 243.122C697.073 246.545 695.802 248.64 693.02 249.257C690.413 249.837 688.234 248.275 687.148 245.048C687.111 244.936 687.046 244.833 687 244.721V244.001V244.01ZM718.285 227.364C718.239 225.915 717.042 224.811 715.586 224.876C714.232 224.942 713.128 226.083 713.128 227.439C713.128 228.86 714.315 230.029 715.753 230.011C717.209 229.992 718.341 228.804 718.295 227.355L718.285 227.364ZM731.113 237.586C731.113 236.117 729.981 234.976 728.525 234.995C727.171 235.014 726.03 236.117 725.984 237.473C725.928 238.914 727.06 240.111 728.507 240.139C729.981 240.176 731.113 239.063 731.122 237.586H731.113ZM752.084 215.525C750.646 215.525 749.506 216.675 749.524 218.143C749.533 219.621 750.665 220.715 752.149 220.677C753.55 220.64 754.588 219.593 754.616 218.171C754.644 216.703 753.531 215.534 752.084 215.525ZM694.624 244.319C694.578 242.841 693.428 241.766 691.953 241.831C690.599 241.897 689.514 243.028 689.504 244.394C689.504 245.843 690.654 246.984 692.111 246.966C693.585 246.947 694.661 245.815 694.624 244.319Z" fill="#FD8A42"/>
<path d="M687 283.326C687.761 283.083 688.521 282.644 689.282 282.644C710.466 282.606 731.642 282.615 752.826 282.615C753.744 282.615 754.987 282.382 754.932 283.831C754.876 285.243 753.633 284.972 752.724 284.972C735.407 284.981 718.1 284.981 700.783 284.981C696.971 284.981 693.168 285.01 689.356 284.953C688.568 284.944 687.788 284.589 687 284.402C687 284.037 687 283.682 687 283.317V283.326Z" fill="#FD8A42"/>
<path d="M741.306 257.375C741.306 250.352 741.352 243.328 741.278 236.305C741.259 234.631 741.844 234.061 743.448 234.126C745.888 234.22 748.327 234.192 750.766 234.126C752.185 234.089 752.798 234.566 752.798 236.09C752.76 250.193 752.76 264.295 752.798 278.398C752.798 279.875 752.25 280.455 750.794 280.418C748.355 280.352 745.915 280.334 743.476 280.418C741.862 280.474 741.268 279.903 741.278 278.239C741.343 271.281 741.306 264.314 741.306 257.356V257.375ZM750.256 277.93V236.586H743.708V277.93H750.256Z" fill="#FD8A42"/>
<path d="M718.498 260.825C718.498 266.651 718.461 272.478 718.526 278.304C718.545 279.838 718.053 280.502 716.476 280.445C713.981 280.361 711.477 280.389 708.973 280.445C707.637 280.474 707.016 279.987 707.016 278.566C707.043 266.736 707.043 254.906 707.016 243.066C707.016 241.766 707.526 241.186 708.806 241.196C711.421 241.214 714.046 241.233 716.662 241.196C718.072 241.177 718.517 241.832 718.508 243.178C718.471 249.061 718.489 254.952 718.489 260.835L718.498 260.825ZM716.096 277.93V243.758H709.529V277.93H716.096Z" fill="#FD8A42"/>
<path d="M701.367 266.342C701.367 270.364 701.33 274.394 701.386 278.416C701.405 279.893 700.867 280.473 699.401 280.436C696.841 280.37 694.281 280.389 691.721 280.436C690.441 280.454 689.885 279.912 689.885 278.612C689.903 270.317 689.903 262.031 689.885 253.736C689.885 252.52 690.432 251.987 691.619 251.997C694.235 252.015 696.86 252.034 699.475 251.987C700.848 251.959 701.386 252.52 701.377 253.914C701.33 258.057 701.358 262.209 701.358 266.352L701.367 266.342ZM692.389 254.484V277.864H698.974V254.484H692.389Z" fill="#FD8A42"/>
<path d="M735.629 268.176C735.629 271.543 735.564 274.909 735.657 278.267C735.703 279.95 735.045 280.492 733.44 280.436C731.001 280.352 728.562 280.38 726.113 280.427C724.796 280.455 724.137 280.015 724.147 278.566C724.184 271.533 724.184 264.51 724.147 257.477C724.147 256.056 724.74 255.56 726.085 255.579C728.645 255.626 731.205 255.626 733.765 255.579C735.156 255.551 735.657 256.168 735.639 257.543C735.583 261.087 735.62 264.632 735.62 268.176H735.629ZM733.199 277.93V258.16H726.623V277.93H733.199Z" fill="#FD8A42"/>
</g>
<rect x="913" y="397" width="253.88" height="119.998" rx="15" fill="#272727"/>
<path d="M1180.5 454.5V402C1180.5 393.716 1173.78 387 1165.5 387H1117" stroke="#FD8A42" stroke-width="1.5" stroke-linecap="round"/>
<path d="M1021.09 451.33C1019.56 451.33 1018.18 451 1016.95 450.34C1015.72 449.665 1014.75 448.719 1014.05 447.502C1013.34 446.285 1012.99 444.891 1012.99 443.322C1012.99 441.753 1013.34 440.359 1014.05 439.142C1014.75 437.925 1015.72 436.979 1016.95 436.304C1018.18 435.629 1019.56 435.292 1021.09 435.292C1022.61 435.292 1023.99 435.629 1025.22 436.304C1026.45 436.979 1027.42 437.925 1028.13 439.142C1028.83 440.359 1029.18 441.753 1029.18 443.322C1029.18 444.891 1028.83 446.285 1028.13 447.502C1027.42 448.719 1026.45 449.665 1025.22 450.34C1023.99 451 1022.61 451.33 1021.09 451.33ZM1021.09 449.306C1022.17 449.306 1023.15 449.064 1024.03 448.58C1024.93 448.081 1025.63 447.385 1026.15 446.49C1026.66 445.581 1026.92 444.525 1026.92 443.322C1026.92 442.134 1026.66 441.093 1026.15 440.198C1025.65 439.289 1024.96 438.592 1024.08 438.108C1023.2 437.609 1022.22 437.36 1021.13 437.36C1020.03 437.36 1019.03 437.602 1018.14 438.086C1017.26 438.57 1016.55 439.267 1016.03 440.176C1015.51 441.085 1015.26 442.134 1015.26 443.322C1015.26 444.525 1015.51 445.581 1016.03 446.49C1016.54 447.385 1017.24 448.081 1018.12 448.58C1019.01 449.064 1020 449.306 1021.09 449.306ZM1038.85 451.33C1036.76 451.33 1035.17 450.795 1034.1 449.724C1033.03 448.639 1032.5 447.15 1032.5 445.258V435.622H1034.74V445.346C1034.74 446.651 1035.11 447.641 1035.84 448.316C1036.57 448.976 1037.58 449.306 1038.85 449.306C1040.12 449.306 1041.11 448.976 1041.85 448.316C1042.58 447.641 1042.95 446.651 1042.95 445.346V435.622H1045.19V445.258C1045.19 447.135 1044.65 448.617 1043.58 449.702C1042.51 450.787 1040.94 451.33 1038.85 451.33ZM1048.95 435.622H1055.13C1056.77 435.622 1058.03 436.018 1058.91 436.81C1059.79 437.602 1060.23 438.761 1060.23 440.286C1060.23 441.415 1059.93 442.376 1059.33 443.168C1058.73 443.945 1057.88 444.473 1056.78 444.752L1060.17 451H1057.83L1054.56 444.928H1051.19V451H1048.95V435.622ZM1054.75 443.036C1055.74 443.036 1056.51 442.809 1057.09 442.354C1057.67 441.885 1057.97 441.195 1057.97 440.286C1057.97 439.289 1057.68 438.577 1057.11 438.152C1056.55 437.727 1055.77 437.514 1054.75 437.514H1051.19V443.036H1054.75ZM1078.23 435.622H1081.51L1087.65 451H1084.24L1082.92 447.656H1076.82L1075.5 451H1072.07L1078.23 435.622ZM1082.04 444.994L1079.86 439.142L1077.68 444.994H1082.04ZM1090.5 435.622H1093.85V451H1090.5V435.622ZM1018.86 461.622H1022.14L1028.28 477H1024.87L1023.55 473.656H1017.46L1016.14 477H1012.7L1018.86 461.622ZM1022.67 470.994L1020.49 465.142L1018.31 470.994H1022.67ZM1031.14 461.622H1034.48V474.206H1041.52V477H1031.14V461.622ZM1051.83 477.33C1050.19 477.33 1048.74 477.007 1047.47 476.362C1046.21 475.702 1045.24 474.771 1044.55 473.568C1043.86 472.365 1043.51 470.95 1043.51 469.322C1043.51 467.694 1043.86 466.279 1044.55 465.076C1045.24 463.859 1046.21 462.927 1047.47 462.282C1048.74 461.622 1050.19 461.292 1051.83 461.292C1052.95 461.292 1053.93 461.409 1054.78 461.644C1055.64 461.864 1056.44 462.216 1057.15 462.7V465.89C1056.51 465.362 1055.77 464.981 1054.93 464.746C1054.11 464.497 1053.17 464.372 1052.12 464.372C1051.13 464.372 1050.25 464.577 1049.45 464.988C1048.68 465.384 1048.06 465.956 1047.61 466.704C1047.15 467.452 1046.92 468.325 1046.92 469.322C1046.92 470.334 1047.13 471.221 1047.54 471.984C1047.97 472.732 1048.56 473.311 1049.32 473.722C1050.09 474.133 1050.97 474.338 1051.96 474.338C1052.87 474.338 1053.66 474.177 1054.34 473.854V470.884H1051.85V468.42H1057.57V475.834C1056.12 476.831 1054.21 477.33 1051.83 477.33ZM1068.23 477.33C1066.69 477.33 1065.29 476.993 1064.03 476.318C1062.78 475.643 1061.8 474.705 1061.08 473.502C1060.36 472.285 1060 470.891 1060 469.322C1060 467.753 1060.36 466.359 1061.08 465.142C1061.8 463.925 1062.78 462.979 1064.03 462.304C1065.29 461.629 1066.69 461.292 1068.23 461.292C1069.77 461.292 1071.16 461.629 1072.39 462.304C1073.64 462.979 1074.62 463.925 1075.34 465.142C1076.06 466.359 1076.42 467.753 1076.42 469.322C1076.42 470.891 1076.06 472.285 1075.34 473.502C1074.62 474.705 1073.64 475.643 1072.39 476.318C1071.16 476.993 1069.77 477.33 1068.23 477.33ZM1068.23 474.25C1069.11 474.25 1069.91 474.052 1070.63 473.656C1071.36 473.245 1071.94 472.673 1072.37 471.94C1072.79 471.192 1073.01 470.319 1073.01 469.322C1073.01 468.339 1072.79 467.481 1072.37 466.748C1071.96 466 1071.39 465.428 1070.65 465.032C1069.93 464.621 1069.13 464.416 1068.23 464.416C1067.32 464.416 1066.5 464.621 1065.77 465.032C1065.05 465.428 1064.48 466 1064.05 466.748C1063.63 467.481 1063.41 468.339 1063.41 469.322C1063.41 470.319 1063.63 471.192 1064.05 471.94C1064.48 472.673 1065.06 473.245 1065.79 473.656C1066.52 474.052 1067.34 474.25 1068.23 474.25ZM1079.26 461.622H1085.92C1087.67 461.622 1089.02 462.062 1089.99 462.942C1090.97 463.807 1091.47 465.061 1091.47 466.704C1091.47 467.848 1091.2 468.823 1090.67 469.63C1090.15 470.422 1089.4 471.001 1088.43 471.368L1091.36 477H1087.92L1085.22 471.786H1082.6V477H1079.26V461.622ZM1085.33 468.992C1086.18 468.992 1086.85 468.809 1087.33 468.442C1087.83 468.075 1088.08 467.496 1088.08 466.704C1088.08 465.868 1087.84 465.281 1087.35 464.944C1086.87 464.592 1086.19 464.416 1085.33 464.416H1082.6V468.992H1085.33ZM1094.33 461.622H1097.67V477H1094.33V461.622ZM1104.65 464.416H1100.16V461.622H1112.48V464.416H1108V477H1104.65V464.416ZM1114.95 461.622H1118.3V467.782H1125.01V461.622H1128.35V477H1125.01V470.554H1118.3V477H1114.95V461.622ZM1131.64 461.622H1134.94L1139.67 471.918L1144.42 461.622H1147.7V477H1144.51V468.266L1140.44 477H1138.9L1134.85 468.266V477H1131.64V461.622Z" fill="#FD8A42"/>
<g clip-path="url(#clip1_1488_13722)">
<path d="M949.331 467.465V459.773H949.038C944.391 459.773 939.744 459.773 935.096 459.773C934.887 459.773 934.804 459.836 934.727 460.031C934.239 461.369 932.832 462.177 931.453 461.919C930.003 461.655 929 460.435 929 458.965C929 457.537 930.038 456.325 931.473 456.074C932.86 455.83 934.26 456.638 934.741 457.983C934.811 458.178 934.901 458.227 935.096 458.227C939.751 458.227 944.405 458.227 949.059 458.227H949.331V450.535C949.233 450.535 949.15 450.535 949.066 450.535C947.073 450.535 945.074 450.535 943.081 450.535C942.879 450.535 942.795 450.597 942.726 450.786C942.224 452.13 940.824 452.924 939.444 452.667C938.002 452.395 936.985 451.176 936.992 449.733C936.999 448.291 938.044 447.072 939.479 446.821C940.872 446.584 942.238 447.385 942.747 448.737C942.802 448.876 942.851 448.953 943.025 448.953C945.067 448.946 947.108 448.953 949.157 448.953C949.212 448.953 949.268 448.953 949.359 448.939C949.359 448.842 949.359 448.751 949.359 448.653C949.359 447.776 949.324 446.891 949.387 446.02C949.568 443.365 951.741 441.366 954.41 441.359C955.162 441.359 955.915 441.359 956.667 441.359C956.751 441.359 956.842 441.359 956.96 441.359V441.059C956.96 439.08 956.96 437.102 956.96 435.123C956.96 434.914 956.911 434.809 956.702 434.733C955.378 434.238 954.591 432.865 954.828 431.486C955.072 430.072 956.263 429.04 957.692 429.006C959.106 428.971 960.374 429.981 960.653 431.367C960.938 432.796 960.179 434.21 958.834 434.726C958.611 434.809 958.542 434.907 958.542 435.144C958.556 437.116 958.542 439.087 958.542 441.059V441.338H966.22C966.22 441.247 966.234 441.157 966.234 441.066C966.234 436.412 966.234 431.758 966.234 427.103C966.234 426.908 966.178 426.818 965.99 426.748C964.645 426.267 963.837 424.86 964.088 423.48C964.332 422.045 965.537 421.007 966.944 421C968.428 420.993 969.648 421.996 969.919 423.46C970.17 424.832 969.376 426.239 968.045 426.727C967.822 426.811 967.766 426.908 967.766 427.131C967.766 431.758 967.766 436.377 967.766 441.003V441.331H975.451C975.451 441.254 975.465 441.171 975.465 441.087C975.465 439.087 975.465 437.081 975.465 435.081C975.465 434.886 975.41 434.809 975.228 434.747C973.877 434.245 973.083 432.852 973.333 431.472C973.598 430.03 974.817 429.006 976.26 429.013C977.702 429.013 978.928 430.051 979.179 431.486C979.423 432.886 978.622 434.266 977.249 434.768C977.096 434.823 977.047 434.893 977.047 435.053C977.047 437.081 977.047 439.108 977.047 441.136C977.047 441.205 977.054 441.275 977.061 441.373C977.165 441.373 977.256 441.373 977.354 441.373C978.238 441.373 979.13 441.338 980.015 441.4C982.628 441.582 984.634 443.762 984.641 446.382C984.641 447.232 984.641 448.075 984.641 448.953C984.739 448.953 984.823 448.967 984.899 448.967C986.913 448.967 988.919 448.967 990.933 448.967C991.121 448.967 991.184 448.904 991.246 448.737C991.748 447.392 993.107 446.598 994.493 446.828C995.894 447.058 996.932 448.235 996.988 449.657C997.043 451.064 996.033 452.36 994.66 452.646C993.211 452.952 991.783 452.193 991.267 450.82C991.184 450.604 991.086 450.542 990.863 450.542C988.884 450.549 986.906 450.542 984.927 450.542H984.655V458.234H984.941C989.588 458.234 994.235 458.234 998.883 458.234C999.092 458.234 999.175 458.171 999.252 457.976C999.74 456.638 1001.15 455.83 1002.53 456.088C1003.98 456.352 1004.99 457.572 1004.98 459.042C1004.98 460.47 1003.94 461.682 1002.51 461.933C1001.12 462.177 999.719 461.369 999.238 460.024C999.168 459.829 999.078 459.78 998.883 459.78C994.228 459.78 989.574 459.78 984.92 459.78H984.648V467.465C984.746 467.465 984.829 467.479 984.913 467.479C986.906 467.479 988.905 467.479 990.898 467.479C991.1 467.479 991.184 467.417 991.253 467.228C991.755 465.884 993.155 465.09 994.535 465.347C995.977 465.619 996.995 466.838 996.988 468.281C996.981 469.723 995.935 470.942 994.5 471.186C993.107 471.423 991.741 470.622 991.232 469.27C991.184 469.145 991.149 469.054 990.982 469.054C988.926 469.054 986.864 469.054 984.809 469.054C984.76 469.054 984.718 469.054 984.634 469.068C984.634 469.165 984.634 469.256 984.634 469.354C984.634 470.238 984.669 471.13 984.607 472.015C984.425 474.635 982.265 476.634 979.639 476.655C978.872 476.655 978.106 476.655 977.333 476.655H977.04V476.927C977.04 478.92 977.04 480.919 977.04 482.912C977.04 483.1 977.082 483.198 977.277 483.267C978.615 483.762 979.402 485.135 979.172 486.521C978.935 487.922 977.758 488.953 976.329 489.001C974.922 489.05 973.633 488.04 973.347 486.66C973.048 485.218 973.807 483.797 975.166 483.281C975.389 483.198 975.458 483.1 975.458 482.863C975.444 480.898 975.458 478.934 975.458 476.976V476.676H967.78C967.78 476.767 967.766 476.857 967.766 476.948C967.766 481.602 967.766 486.256 967.766 490.911C967.766 491.106 967.822 491.196 968.017 491.259C969.362 491.74 970.17 493.147 969.919 494.527C969.662 495.969 968.449 496.993 967 496.993C965.551 496.993 964.338 495.976 964.074 494.534C963.823 493.154 964.631 491.74 965.969 491.259C966.171 491.189 966.227 491.092 966.227 490.89C966.227 486.249 966.227 481.609 966.227 476.969V476.669H958.542C958.542 476.753 958.528 476.836 958.528 476.92C958.528 478.92 958.528 480.926 958.528 482.926C958.528 483.121 958.59 483.198 958.765 483.26C960.116 483.762 960.911 485.156 960.653 486.535C960.381 487.977 959.169 489.001 957.726 488.995C956.284 488.995 955.065 487.949 954.807 486.521C954.563 485.121 955.365 483.741 956.737 483.239C956.89 483.184 956.939 483.114 956.939 482.954C956.939 480.926 956.939 478.899 956.939 476.871C956.939 476.802 956.932 476.732 956.925 476.641C956.821 476.641 956.723 476.641 956.633 476.641C955.755 476.641 954.87 476.676 953.999 476.614C951.365 476.439 949.352 474.252 949.352 471.604C949.352 470.768 949.352 469.925 949.352 469.061C949.254 469.061 949.171 469.047 949.087 469.047C947.073 469.047 945.067 469.047 943.053 469.047C942.886 469.047 942.809 469.089 942.747 469.256C942.252 470.608 940.914 471.402 939.514 471.186C938.12 470.977 937.075 469.806 936.999 468.378C936.922 466.971 937.939 465.654 939.326 465.361C940.775 465.055 942.203 465.814 942.719 467.187C942.802 467.403 942.9 467.465 943.123 467.465C945.102 467.458 947.08 467.465 949.059 467.465H949.338H949.331ZM950.898 458.993C950.898 463.16 950.898 467.319 950.898 471.486C950.898 473.583 952.403 475.088 954.487 475.095C962.834 475.095 971.173 475.095 979.52 475.095C981.583 475.095 983.095 473.59 983.095 471.527C983.095 463.173 983.095 454.827 983.095 446.473C983.095 444.41 981.583 442.905 979.52 442.905C971.173 442.905 962.834 442.905 954.487 442.905C953.999 442.905 953.525 442.975 953.072 443.163C951.714 443.721 950.898 444.968 950.898 446.515C950.898 450.681 950.898 454.841 950.898 459.007V458.993ZM956.354 431.946C956.354 432.698 956.967 433.332 957.719 433.332C958.465 433.332 959.099 432.712 959.106 431.96C959.106 431.207 958.493 430.58 957.733 430.573C956.974 430.573 956.354 431.179 956.347 431.939L956.354 431.946ZM976.26 430.58C975.507 430.58 974.88 431.2 974.88 431.953C974.88 432.705 975.507 433.332 976.26 433.332C977.005 433.332 977.639 432.705 977.632 431.953C977.632 431.193 977.012 430.58 976.253 430.58H976.26ZM976.26 487.406C977.019 487.406 977.632 486.786 977.632 486.026C977.632 485.274 977.005 484.647 976.253 484.654C975.507 484.654 974.873 485.288 974.88 486.04C974.88 486.793 975.507 487.413 976.26 487.413V487.406ZM938.587 449.733C938.587 450.493 939.207 451.113 939.96 451.113C940.705 451.113 941.339 450.493 941.346 449.74C941.346 448.995 940.719 448.361 939.974 448.361C939.214 448.361 938.594 448.974 938.594 449.733H938.587ZM995.413 449.74C995.413 448.981 994.807 448.368 994.04 448.361C993.288 448.361 992.661 448.981 992.654 449.733C992.654 450.479 993.281 451.113 994.026 451.12C994.779 451.12 995.406 450.5 995.406 449.747L995.413 449.74ZM938.587 468.26C938.587 469.019 939.2 469.632 939.96 469.639C940.712 469.639 941.339 469.012 941.339 468.267C941.339 467.514 940.712 466.887 939.96 466.887C939.207 466.887 938.587 467.507 938.58 468.267L938.587 468.26ZM995.413 468.274C995.413 467.514 994.807 466.894 994.047 466.887C993.302 466.887 992.668 467.507 992.661 468.253C992.654 469.005 993.281 469.639 994.026 469.639C994.786 469.639 995.406 469.033 995.413 468.274ZM957.726 487.413C958.486 487.413 959.113 486.8 959.113 486.047C959.113 485.295 958.493 484.668 957.747 484.661C956.995 484.661 956.361 485.281 956.361 486.026C956.361 486.786 956.967 487.406 957.726 487.413ZM966.993 425.334C967.746 425.334 968.373 424.714 968.373 423.961C968.373 423.209 967.752 422.589 967 422.589C966.241 422.589 965.62 423.202 965.62 423.954C965.62 424.707 966.241 425.334 966.993 425.334ZM933.334 458.993C933.334 458.241 932.707 457.614 931.954 457.614C931.202 457.614 930.582 458.234 930.582 458.993C930.582 459.753 931.202 460.373 931.954 460.373C932.707 460.373 933.327 459.746 933.327 458.993H933.334ZM1000.66 458.993C1000.66 459.746 1001.28 460.373 1002.04 460.373C1002.79 460.373 1003.41 459.753 1003.41 458.993C1003.41 458.234 1002.79 457.614 1002.04 457.614C1001.29 457.614 1000.67 458.241 1000.67 458.993H1000.66ZM966.993 495.398C967.752 495.398 968.373 494.784 968.38 494.032C968.38 493.279 967.759 492.652 967.007 492.652C966.254 492.652 965.627 493.266 965.62 494.018C965.62 494.77 966.234 495.391 966.993 495.398Z" fill="#FF8A37"/>
<path d="M971.669 467.326C970.917 467.326 970.192 467.326 969.474 467.319C969.412 467.319 969.328 467.201 969.3 467.117C968.812 465.696 968.332 464.275 967.844 462.846C967.781 462.651 967.705 462.456 967.649 462.261C967.614 462.136 967.551 462.087 967.412 462.087C965.559 462.087 963.705 462.087 961.852 462.087C961.685 462.087 961.657 462.178 961.622 462.289C961.093 463.898 960.556 465.501 960.034 467.11C959.978 467.278 959.901 467.326 959.734 467.326C959.079 467.319 958.424 467.326 957.734 467.326C957.874 466.908 958.006 466.518 958.138 466.135C959.866 461.056 961.594 455.977 963.315 450.897C963.371 450.723 963.455 450.667 963.636 450.674C964.339 450.688 965.043 450.688 965.747 450.674C965.935 450.674 966.019 450.723 966.081 450.911C967.217 454.256 968.353 457.593 969.495 460.93C970.192 462.972 970.889 465.02 971.585 467.062C971.613 467.138 971.634 467.208 971.676 467.333L971.669 467.326ZM962.152 460.387H967.126C966.297 457.781 965.28 455.259 964.625 452.611C963.977 455.259 962.988 457.781 962.152 460.387Z" fill="#FF8A37"/>
<path d="M974.127 450.688H976.238V467.312H974.127V450.688Z" fill="#FF8A37"/>
</g>
<rect width="253.884" height="120" rx="15" transform="matrix(-1 0 0 1 527 393)" fill="#272727"/>
<path d="M259 450.5V398C259 389.716 265.716 383 274 383H322.5" stroke="#FD8A42" stroke-width="1.5" stroke-linecap="round"/>
<g clip-path="url(#clip2_1488_13722)">
<path d="M358.508 486.999H356.385C356.267 486.96 356.142 486.898 356.017 486.874C353.698 486.467 351.896 485.276 350.572 483.34C350.392 483.082 350.235 482.808 350.047 482.502C349.89 482.745 349.773 482.925 349.655 483.105C348.496 484.9 346.882 486.098 344.829 486.694C344.43 486.811 344.03 486.898 343.631 486.999H341.508C341.429 486.96 341.359 486.905 341.281 486.89C338.312 486.365 336.204 484.735 334.99 481.969C334.951 481.875 334.888 481.781 334.841 481.695C327.124 484.414 319.807 478.279 322.236 470.091C316.909 469.01 314.7 461.105 319.322 457.172C317.496 455.252 316.909 454.382 316.447 452.8C316.259 452.212 316.141 451.609 316 451.005V448.882C316.039 448.733 316.094 448.592 316.125 448.443C316.666 445.333 318.382 443.123 321.233 441.791C321.531 441.65 321.821 441.525 322.126 441.384C321.272 438.579 321.335 435.876 322.753 433.306C324.21 430.658 326.592 429.443 329.482 429.154C329.514 429.052 329.537 429.012 329.537 428.973C330.007 424.217 333.447 421.718 338.069 422.807C338.492 422.909 338.648 422.752 338.86 422.447C340.247 420.441 342.127 419.211 344.579 419.023C346.765 418.858 348.606 419.65 350.078 421.342C350.885 420.331 351.872 419.618 353.102 419.258C356.001 418.412 359.221 419.642 361.085 422.368C361.367 422.784 361.602 422.878 362.104 422.752C365.786 421.867 368.982 423.591 370.11 427.062C370.322 427.728 370.408 428.433 370.565 429.154C373.479 429.436 375.837 430.689 377.286 433.337C378.688 435.907 378.735 438.61 377.889 441.384C381.203 442.645 383.318 444.918 383.867 448.42C384.415 451.891 383.311 454.821 380.671 457.156C385.316 461.207 383.083 468.971 377.748 470.068C378.649 473.774 378.305 477.245 375.304 479.932C372.343 482.588 368.833 482.792 365.167 481.64C364.125 484.187 362.362 485.863 359.769 486.639C359.354 486.764 358.923 486.866 358.508 486.976V486.999ZM349.068 472.936V472.379C349.068 456.49 349.068 440.6 349.068 424.711C349.068 423.199 348.308 422.141 346.96 421.538C344.477 420.417 341.813 421.655 340.474 423.896C340.395 424.022 340.372 424.186 340.348 424.335C340.192 425.267 340.2 426.176 340.529 427.077C340.764 427.728 340.489 428.284 339.925 428.495C339.369 428.707 338.789 428.433 338.562 427.79C338.39 427.312 338.249 426.819 338.186 426.317C337.998 424.821 338.022 424.813 336.494 424.656C336.228 424.633 335.961 424.617 335.703 424.641C333.204 424.876 331.582 426.881 331.684 429.592C331.739 430.956 331.535 431.183 330.188 431.23C326.835 431.347 324.563 433.142 323.889 436.244C323.521 437.937 323.701 439.59 324.351 441.188C324.884 442.473 324.688 442.88 323.364 443.257C319.596 444.33 317.622 447.448 318.264 451.311C318.695 453.92 320.403 455.863 322.847 456.38C323.724 456.568 324.649 456.545 325.55 456.568C326.302 456.592 326.772 456.929 326.803 457.548C326.842 458.206 326.388 458.707 325.628 458.676C324.422 458.629 323.215 458.456 322.009 458.37C321.727 458.347 321.382 458.37 321.155 458.527C319.165 459.812 318.421 462.256 319.275 464.685C319.854 466.346 320.873 467.569 322.714 467.929C323.153 468.015 323.45 467.945 323.724 467.545C324.453 466.495 325.417 465.68 326.529 465.061C327.273 464.646 327.869 464.732 328.213 465.304C328.558 465.876 328.339 466.44 327.618 466.887C325.62 468.117 324.328 469.794 324.006 472.215C323.536 475.787 325.526 479 328.934 479.909C330.94 480.449 332.875 480.175 334.763 479.376C335.836 478.921 336.322 479.141 336.635 480.246C336.988 481.484 337.591 482.573 338.586 483.419C342.048 486.365 347.297 484.688 348.684 480.183C349.788 476.602 348.104 473.641 344.5 472.834C342.706 472.434 340.991 472.669 339.369 473.586C338.656 473.985 338.076 473.884 337.747 473.335C337.411 472.771 337.63 472.16 338.343 471.745C340.153 470.71 342.088 470.334 344.156 470.609C345.981 470.851 347.571 471.611 349.06 472.928L349.068 472.936ZM351.214 474.8C351.214 476.124 351.152 477.386 351.23 478.639C351.347 480.481 351.982 482.142 353.416 483.395C356.541 486.122 362.088 485.095 363.388 480.206C363.663 479.172 364.164 478.992 365.167 479.329C366.209 479.674 367.274 480.018 368.355 480.144C371.732 480.543 374.881 478.483 375.751 475.388C376.291 473.46 376.025 471.58 375.367 469.723C374.936 468.501 375.343 467.945 376.62 467.976C377.615 467.999 378.493 467.678 379.237 467.028C381.532 465.014 382.167 460.282 378.359 458.229C377.905 457.986 377.529 457.689 377.545 457.124C377.56 456.568 377.936 456.286 378.399 456.043C382.723 453.755 383.123 447.158 379.065 444.4C378.242 443.844 377.247 443.515 376.299 443.17C375.453 442.857 375.171 442.387 375.492 441.549C375.602 441.259 375.735 440.977 375.837 440.687C377.176 436.832 375.712 431.661 370.282 431.253C368.363 431.104 368.363 431.065 368.332 429.13C368.285 426.646 366.569 424.727 364.18 424.656C363.365 424.633 362.519 424.86 361.728 425.103C360.647 425.424 360.325 425.338 359.816 424.351C359.064 422.893 357.944 421.836 356.361 421.334C353.956 420.574 351.52 421.765 351.277 424.006C351.073 425.902 351.238 427.837 351.238 429.827C352.483 429.827 353.698 429.796 354.904 429.843C355.46 429.867 355.75 429.694 356.017 429.193C356.729 427.853 358.312 427.203 359.753 427.555C361.195 427.908 362.268 429.13 362.37 430.548C362.488 432.139 361.681 433.471 360.271 434.043C358.86 434.615 357.09 434.293 356.361 433.008C355.758 431.951 355.022 431.888 354.05 431.943C353.275 431.99 352.499 431.943 351.724 431.958C351.559 431.958 351.394 431.998 351.23 432.021V442.41C351.481 442.41 351.692 442.41 351.912 442.41C353.619 442.41 355.327 442.332 357.027 442.434C358.578 442.52 359.816 441.776 361.156 441.298C360.842 438.093 362.174 435.829 364.759 435.108C367.18 434.434 369.711 435.547 370.807 437.772C371.912 439.997 371.238 442.7 369.225 444.173C367.008 445.787 364.462 445.458 362.096 443.217C361.414 443.484 360.694 443.719 360.02 444.04C359.158 444.447 358.265 444.573 357.317 444.557C355.523 444.518 353.729 444.549 351.935 444.549H351.23V450.77C351.387 450.786 351.512 450.802 351.637 450.802C356.51 450.802 361.375 450.802 366.248 450.817C366.679 450.817 366.788 450.629 366.914 450.269C367.783 447.707 370.4 446.257 372.977 446.884C375.367 447.464 377.051 449.642 376.949 452.024C376.847 454.57 374.991 456.6 372.413 456.968C370.102 457.305 367.752 455.84 366.929 453.56C366.859 453.356 366.788 453.152 366.726 452.972H351.199V459.389C352.632 459.389 353.964 459.451 355.288 459.373C357.536 459.24 359.699 459.467 361.704 460.548C362.01 460.713 362.198 460.642 362.433 460.384C363.357 459.373 364.532 458.84 365.88 458.754C368.575 458.574 371.011 460.627 371.277 463.275C371.559 466.056 369.687 468.548 367.024 468.948C364.203 469.371 361.626 467.584 361.156 464.826C361.038 464.121 361.14 463.385 361.14 462.625C359.691 462.037 358.312 461.363 356.651 461.489C355.069 461.606 353.463 461.512 351.872 461.512C351.661 461.512 351.449 461.536 351.246 461.543V472.661H356.455C357.458 470.765 358.829 470.029 360.576 470.428C362.072 470.773 363.161 472.16 363.169 473.711C363.177 475.27 362.119 476.657 360.623 477.041C358.9 477.488 357.513 476.751 356.44 474.816H351.206L351.214 474.8ZM371.81 448.859C370.118 448.851 368.747 450.198 368.763 451.859C368.778 453.497 370.126 454.845 371.771 454.852C373.455 454.86 374.818 453.505 374.818 451.836C374.818 450.183 373.487 448.866 371.81 448.859ZM366.209 437.02C364.532 437.004 363.185 438.305 363.169 439.966C363.146 441.619 364.47 442.982 366.123 443.021C367.807 443.061 369.178 441.713 369.194 440.021C369.209 438.352 367.901 437.036 366.217 437.02H366.209ZM366.17 466.856C367.846 466.856 369.17 465.555 369.186 463.886C369.209 462.202 367.846 460.838 366.154 460.854C364.501 460.862 363.153 462.217 363.161 463.863C363.161 465.508 364.509 466.848 366.162 466.856H366.17ZM358.477 473.735C358.477 474.44 359.033 475.004 359.73 475.02C360.435 475.035 361.038 474.432 361.03 473.711C361.03 473.022 360.451 472.442 359.769 472.426C359.048 472.418 358.469 472.998 358.477 473.735ZM359.009 429.6C358.288 429.584 357.724 430.102 357.693 430.807C357.662 431.551 358.202 432.139 358.931 432.154C359.667 432.17 360.247 431.614 360.247 430.877C360.247 430.164 359.714 429.616 359.001 429.6H359.009Z" fill="#FF8A37"/>
<path d="M371.763 450.793C371.183 450.801 370.713 451.295 370.729 451.874C370.745 452.462 371.222 452.909 371.81 452.893C372.398 452.877 372.86 452.407 372.844 451.827C372.836 451.263 372.335 450.785 371.763 450.793Z" fill="#FF8A37"/>
<path d="M333.023 449.43C332.428 446.876 330.971 445.121 328.605 444.11C328.44 444.039 328.268 444 328.111 443.922C327.508 443.648 327.249 443.06 327.485 442.504C327.704 441.987 328.26 441.744 328.871 441.955C331.879 442.997 333.861 445.05 334.864 448.059C334.903 448.184 334.943 448.309 334.982 448.443C335.013 448.568 335.044 448.693 335.052 448.717C336.141 448.819 337.191 448.819 338.186 449.038C341.766 449.822 344.437 453.12 344.539 456.756C344.563 457.539 344.242 457.993 343.631 458.08C342.933 458.174 342.455 457.743 342.416 456.936C342.314 455.071 341.609 453.504 340.152 452.313C337.457 450.111 333.572 450.542 331.402 453.277C330.736 454.115 330.148 454.311 329.592 453.872C329.02 453.418 329.067 452.799 329.733 451.953C330.595 450.856 331.691 450.049 333.023 449.422V449.43Z" fill="#FF8A37"/>
<path d="M339.033 467.576C336.652 467.6 334.482 466.002 333.8 463.714C333.111 461.434 334.012 458.95 335.986 457.665C336.683 457.211 337.318 457.258 337.678 457.798C338.046 458.339 337.866 458.919 337.177 459.412C335.68 460.486 335.257 462.28 336.142 463.8C337.004 465.273 338.79 465.829 340.412 465.116C340.553 465.053 340.694 464.983 340.835 464.936C341.36 464.771 341.932 464.991 342.12 465.461C342.331 465.994 342.269 466.542 341.728 466.785C340.874 467.169 339.965 467.427 339.08 467.733L339.025 467.569L339.033 467.576Z" fill="#FF8A37"/>
<path d="M333.595 432.664C333.963 432.93 334.276 433.095 334.511 433.33C335.647 434.497 336.713 434.615 338.037 433.659C338.413 433.385 338.742 433.063 339.094 432.75C340.967 431.073 343.544 430.619 345.62 431.606C346.317 431.943 346.584 432.507 346.294 433.095C346.035 433.627 345.479 433.855 344.899 433.596C343.098 432.797 341.593 433.306 340.238 434.575C339.102 435.641 337.841 436.464 336.188 436.401C334.739 436.346 333.61 435.649 332.788 434.505C332.6 434.239 332.561 433.714 332.694 433.408C332.819 433.103 333.25 432.93 333.603 432.656L333.595 432.664Z" fill="#FF8A37"/>
<path d="M345.943 441.855C345.88 444.182 344.055 446.07 341.752 446.196C341.046 446.235 340.522 445.851 340.451 445.248C340.381 444.629 340.796 444.182 341.532 444.088C342.958 443.908 343.835 442.999 343.82 441.722C343.804 440.46 342.95 439.622 341.524 439.457C340.851 439.379 340.428 438.933 340.459 438.337C340.49 437.734 340.952 437.342 341.634 437.334C344 437.311 346.029 439.434 345.958 441.863L345.943 441.855Z" fill="#FF8A37"/>
<path d="M371.763 450.793C372.335 450.785 372.836 451.255 372.844 451.827C372.852 452.407 372.398 452.885 371.81 452.893C371.222 452.909 370.745 452.454 370.729 451.874C370.713 451.302 371.183 450.809 371.763 450.793Z" fill="#FF8A37"/>
<path d="M367.25 440.005C367.25 440.577 366.764 441.055 366.185 441.055C365.589 441.055 365.135 440.608 365.135 440.013C365.135 439.425 365.597 438.947 366.177 438.947C366.741 438.947 367.25 439.449 367.25 440.005Z" fill="#FF8A37"/>
<path d="M366.177 462.82C366.764 462.82 367.25 463.29 367.25 463.862C367.25 464.419 366.749 464.928 366.185 464.928C365.613 464.928 365.143 464.458 365.135 463.87C365.135 463.275 365.581 462.82 366.177 462.82Z" fill="#FF8A37"/>
</g>
<path d="M414.086 451.33C412.561 451.33 411.182 451 409.95 450.34C408.718 449.665 407.75 448.719 407.046 447.502C406.342 446.285 405.99 444.891 405.99 443.322C405.99 441.753 406.342 440.359 407.046 439.142C407.75 437.925 408.718 436.979 409.95 436.304C411.182 435.629 412.561 435.292 414.086 435.292C415.611 435.292 416.99 435.629 418.222 436.304C419.454 436.979 420.422 437.925 421.126 439.142C421.83 440.359 422.182 441.753 422.182 443.322C422.182 444.891 421.83 446.285 421.126 447.502C420.422 448.719 419.454 449.665 418.222 450.34C416.99 451 415.611 451.33 414.086 451.33ZM414.086 449.306C415.171 449.306 416.154 449.064 417.034 448.58C417.929 448.081 418.633 447.385 419.146 446.49C419.659 445.581 419.916 444.525 419.916 443.322C419.916 442.134 419.659 441.093 419.146 440.198C418.647 439.289 417.958 438.592 417.078 438.108C416.198 437.609 415.215 437.36 414.13 437.36C413.03 437.36 412.033 437.602 411.138 438.086C410.258 438.57 409.554 439.267 409.026 440.176C408.513 441.085 408.256 442.134 408.256 443.322C408.256 444.525 408.513 445.581 409.026 446.49C409.539 447.385 410.236 448.081 411.116 448.58C412.011 449.064 413.001 449.306 414.086 449.306ZM431.854 451.33C429.756 451.33 428.172 450.795 427.102 449.724C426.031 448.639 425.496 447.15 425.496 445.258V435.622H427.74V445.346C427.74 446.651 428.106 447.641 428.84 448.316C429.573 448.976 430.578 449.306 431.854 449.306C433.115 449.306 434.112 448.976 434.846 448.316C435.579 447.641 435.946 446.651 435.946 445.346V435.622H438.19V445.258C438.19 447.135 437.654 448.617 436.584 449.702C435.513 450.787 433.936 451.33 431.854 451.33ZM441.946 435.622H448.128C449.77 435.622 451.032 436.018 451.912 436.81C452.792 437.602 453.232 438.761 453.232 440.286C453.232 441.415 452.931 442.376 452.33 443.168C451.728 443.945 450.878 444.473 449.778 444.752L453.166 451H450.834L447.556 444.928H444.19V451H441.946V435.622ZM447.754 443.036C448.736 443.036 449.514 442.809 450.086 442.354C450.672 441.885 450.966 441.195 450.966 440.286C450.966 439.289 450.68 438.577 450.108 438.152C449.55 437.727 448.766 437.514 447.754 437.514H444.19V443.036H447.754ZM406.144 461.622H409.444L414.174 471.918L418.926 461.622H422.204V477H419.014V468.266L414.944 477H413.404L409.356 468.266V477H406.144V461.622ZM425.513 461.622H428.857V474.206H435.897V477H425.513V461.622ZM438.33 461.622H444.798C446.543 461.622 447.936 462.084 448.978 463.008C450.019 463.917 450.54 465.186 450.54 466.814C450.54 468.486 450.019 469.769 448.978 470.664C447.951 471.559 446.558 472.006 444.798 472.006H441.674V477H438.33V461.622ZM444.314 469.212C446.206 469.212 447.152 468.413 447.152 466.814C447.152 465.919 446.895 465.296 446.382 464.944C445.883 464.592 445.194 464.416 444.314 464.416H441.674V469.212H444.314Z" fill="#FD8A42"/>
<path d="M847 543C847 534.716 840.284 528 832 528H608.12C599.836 528 593.12 534.716 593.12 543V638C593.12 646.284 599.836 653 608.12 653H832C840.284 653 847 646.284 847 638V543Z" fill="#272727"/>
<path d="M581 585.5V533C581 524.716 587.716 518 596 518H644.5" stroke="#FD8A42" stroke-width="1.5" stroke-linecap="round"/>
<g clip-path="url(#clip3_1488_13722)">
<path d="M644.813 559C645.874 559.149 646.939 559.26 647.992 559.452C653.907 560.535 658.772 563.414 662.603 568.045C662.75 568.222 662.896 568.397 663.118 568.663C663.632 568.119 664.135 567.62 664.585 567.079C664.683 566.96 664.652 566.661 664.58 566.489C663.844 564.746 664.395 562.767 665.941 561.681C667.456 560.616 669.585 560.784 670.901 562.127C671.268 562.5 671.571 562.976 671.771 563.459C671.939 563.863 672.148 563.947 672.538 563.943C674.131 563.926 675.725 563.935 677.32 563.935C677.526 563.935 677.732 563.935 677.971 563.935V565.9C677.775 565.9 677.572 565.9 677.37 565.9C675.718 565.9 674.068 565.909 672.416 565.893C672.074 565.889 671.922 565.997 671.797 566.321C670.983 568.434 668.641 569.405 666.592 568.475C666.267 568.328 666.086 568.359 665.856 568.607C665.439 569.058 665.01 569.5 664.552 569.909C664.258 570.172 664.285 570.374 664.479 570.685C666.255 573.538 667.402 576.629 667.889 579.956C668.604 584.852 667.921 589.552 665.813 594.033C665.422 594.864 664.973 595.672 664.489 596.453C664.255 596.831 664.323 597.029 664.612 597.318C668.504 601.193 672.387 605.075 676.267 608.963C677.784 610.484 678.397 612.283 677.737 614.374C677.124 616.31 675.749 617.459 673.769 617.892C673.642 617.92 673.519 617.963 673.394 617.998H672.356C670.633 617.774 669.423 616.728 668.255 615.546C664.651 611.9 661.007 608.293 657.394 604.654C657.055 604.313 656.816 604.243 656.385 604.513C653.859 606.106 651.109 607.165 648.181 607.713C643.891 608.517 639.657 608.217 635.527 606.784C631.475 605.376 628.026 603.056 625.178 599.842C622.315 596.612 620.429 592.891 619.545 588.671C619.345 587.715 619.259 586.736 619.117 585.77C619.086 585.564 619.04 585.359 619 585.155V582.159C619.035 582.013 619.092 581.87 619.102 581.723C619.354 578.166 620.316 574.806 622.074 571.713C625.857 565.058 631.528 560.962 639.043 559.449C640.034 559.249 641.046 559.147 642.048 559H644.813ZM666.207 583.528C666.113 570.852 655.894 560.685 643.061 560.937C630.771 561.177 620.697 571.244 620.944 584.066C621.181 596.259 631.147 606.398 644.032 606.166C656.328 605.945 666.129 596.012 666.207 583.528ZM662.756 607.237C662.868 607.354 662.996 607.494 663.13 607.627C665.516 610.015 667.904 612.403 670.293 614.789C670.496 614.992 670.707 615.19 670.932 615.368C672.242 616.405 674.136 616.23 675.241 614.976C676.434 613.623 676.313 611.799 674.912 610.393C672.502 607.973 670.082 605.564 667.671 603.147C667.525 603 667.419 602.812 667.313 602.668C665.752 604.233 664.28 605.711 662.757 607.239L662.756 607.237ZM658.962 603.21C659.628 603.875 660.514 604.762 661.323 605.57C662.742 604.164 664.223 602.698 665.669 601.266C664.816 600.417 663.935 599.539 663.27 598.877C661.832 600.325 660.363 601.801 658.961 603.212L658.962 603.21ZM668.173 566.857C669.245 566.856 670.119 566 670.138 564.934C670.156 563.872 669.236 562.939 668.167 562.939C667.083 562.939 666.206 563.843 666.221 564.94C666.235 566.02 667.09 566.859 668.173 566.856V566.857Z" fill="#FF8B37"/>
<path d="M622.949 583.595C623.053 572.174 632.032 562.974 643.57 562.965C655.1 562.954 664.209 572.148 664.223 583.61C664.237 595.029 654.94 604.257 643.589 604.216C632.215 604.174 623.063 595.134 622.947 583.595H622.949ZM659.898 574.561C659.289 575.177 658.738 575.76 658.153 576.307C657.872 576.57 657.829 576.768 657.994 577.137C658.942 579.256 657.794 581.705 655.571 582.407C654.464 582.756 653.42 582.59 652.404 582.046C650.329 584.128 648.278 586.176 646.246 588.244C646.135 588.356 646.146 588.638 646.177 588.828C646.275 589.446 646.537 590.065 646.505 590.672C646.419 592.337 645.547 593.539 643.982 594.124C642.414 594.711 640.958 594.384 639.803 593.182C638.618 591.947 638.359 590.464 639.052 588.876C639.198 588.541 639.131 588.366 638.9 588.138C637.63 586.883 636.363 585.625 635.114 584.348C634.858 584.087 634.674 584.062 634.335 584.216C632.605 584.999 630.409 584.454 629.572 582.77C629.018 581.657 628.336 581.499 627.309 581.599C626.701 581.657 626.08 581.607 625.466 581.613C625.321 581.613 625.178 581.648 625.046 581.665C624.216 589.524 628.437 597.371 636.201 600.72C643.383 603.819 651.699 602.22 657.197 596.377C663.01 590.197 663.678 581.295 659.898 574.559V574.561ZM658.83 572.903C655.155 567.416 647.881 563.761 640.139 565.245C631.964 566.812 626.631 573.262 625.403 579.643C626.522 579.643 627.634 579.657 628.744 579.626C628.877 579.623 629.064 579.4 629.128 579.241C629.967 577.159 632.252 576.168 634.3 577.013C636.322 577.849 637.263 580.215 636.339 582.241C636.182 582.587 636.275 582.745 636.498 582.966C637.754 584.208 639.007 585.452 640.242 586.715C640.507 586.987 640.704 587.061 641.073 586.884C642.077 586.404 643.126 586.394 644.131 586.874C644.531 587.064 644.736 586.964 645.01 586.688C646.383 585.293 647.773 583.913 649.16 582.532C649.784 581.911 650.417 581.299 650.891 580.835C650.74 579.907 650.463 579.15 650.526 578.422C650.774 575.548 653.414 574.035 656.101 575.134C656.244 575.192 656.516 575.147 656.627 575.043C657.371 574.352 658.088 573.629 658.832 572.901L658.83 572.903ZM632.802 578.689C631.715 578.683 630.857 579.513 630.836 580.594C630.814 581.694 631.681 582.596 632.769 582.607C633.836 582.618 634.76 581.694 634.752 580.626C634.744 579.565 633.869 578.695 632.802 578.689ZM642.608 592.422C643.7 592.423 644.59 591.531 644.577 590.444C644.565 589.383 643.683 588.51 642.621 588.507C641.557 588.504 640.673 589.37 640.661 590.434C640.647 591.537 641.514 592.42 642.61 592.423L642.608 592.422ZM656.361 578.677C656.362 577.592 655.523 576.736 654.444 576.724C653.346 576.71 652.446 577.587 652.444 578.671C652.444 579.74 653.373 580.659 654.436 580.642C655.5 580.625 656.359 579.748 656.361 578.677Z" fill="#FF8B37"/>
</g>
<path d="M706.48 554.02H708.44L714.02 568H711.94L710.54 564.52H704.36L703 568H700.9L706.48 554.02ZM709.98 562.82L707.46 556.28L704.94 562.82H709.98ZM717.222 554.02H719.282V568H717.222V554.02ZM736.472 554.02H738.432L744.012 568H741.932L740.532 564.52H734.352L732.992 568H730.892L736.472 554.02ZM739.972 562.82L737.452 556.28L734.932 562.82H739.972ZM747.214 553.22H749.234V568H747.214V553.22ZM752.843 558.4H754.803V559.82C755.79 558.673 757.123 558.1 758.803 558.1C759.763 558.1 760.623 558.313 761.383 558.74C762.156 559.167 762.756 559.767 763.183 560.54C763.623 561.3 763.843 562.187 763.843 563.2C763.843 564.2 763.623 565.087 763.183 565.86C762.756 566.633 762.163 567.233 761.403 567.66C760.643 568.087 759.776 568.3 758.803 568.3C758.003 568.3 757.256 568.167 756.563 567.9C755.87 567.633 755.303 567.24 754.863 566.72V572.38H752.843V558.4ZM758.343 566.7C758.996 566.7 759.583 566.56 760.103 566.28C760.636 565.987 761.05 565.573 761.343 565.04C761.65 564.507 761.803 563.893 761.803 563.2C761.803 562.507 761.65 561.9 761.343 561.38C761.05 560.847 760.636 560.44 760.103 560.16C759.583 559.867 758.996 559.72 758.343 559.72C757.53 559.72 756.81 559.933 756.183 560.36C755.57 560.787 755.13 561.373 754.863 562.12V564.28C755.09 565.013 755.523 565.6 756.163 566.04C756.803 566.48 757.53 566.7 758.343 566.7ZM767.046 553.22H769.066V559.72C769.986 558.64 771.213 558.1 772.746 558.1C774.026 558.1 774.979 558.44 775.606 559.12C776.233 559.8 776.546 560.713 776.546 561.86V568H774.526V562.06C774.526 560.5 773.779 559.72 772.286 559.72C771.646 559.72 771.046 559.873 770.486 560.18C769.939 560.473 769.466 560.927 769.066 561.54V568H767.046V553.22ZM783.185 568.3C782.025 568.3 781.092 568.007 780.385 567.42C779.692 566.82 779.345 566.013 779.345 565C779.345 563.933 779.679 563.113 780.345 562.54C781.025 561.953 781.985 561.66 783.225 561.66C784.545 561.66 785.665 561.927 786.585 562.46V561.96C786.585 561.2 786.352 560.64 785.885 560.28C785.432 559.907 784.712 559.72 783.725 559.72C783.139 559.72 782.565 559.78 782.005 559.9C781.459 560.007 780.965 560.16 780.525 560.36V558.72C780.925 558.533 781.445 558.387 782.085 558.28C782.725 558.16 783.345 558.1 783.945 558.1C785.532 558.1 786.705 558.453 787.465 559.16C788.239 559.853 788.625 560.82 788.625 562.06V568H786.725V566.92C786.312 567.373 785.819 567.72 785.245 567.96C784.685 568.187 783.999 568.3 783.185 568.3ZM783.685 566.76C784.325 566.76 784.905 566.633 785.425 566.38C785.945 566.127 786.332 565.773 786.585 565.32V564.02C785.719 563.46 784.752 563.18 783.685 563.18C782.912 563.18 782.332 563.333 781.945 563.64C781.572 563.933 781.385 564.387 781.385 565C781.385 566.173 782.152 566.76 783.685 566.76ZM793.052 553.72H795.052L793.472 557.62H791.732L793.052 553.72ZM801.086 568.3C800.419 568.3 799.713 568.213 798.966 568.04C798.219 567.88 797.633 567.66 797.206 567.38V565.66C797.726 565.967 798.326 566.22 799.006 566.42C799.686 566.607 800.346 566.7 800.986 566.7C801.706 566.7 802.233 566.613 802.566 566.44C802.899 566.267 803.066 565.987 803.066 565.6C803.066 565.307 802.986 565.073 802.826 564.9C802.679 564.713 802.419 564.547 802.046 564.4C801.686 564.253 801.139 564.08 800.406 563.88C799.619 563.653 798.993 563.427 798.526 563.2C798.073 562.96 797.726 562.66 797.486 562.3C797.259 561.94 797.146 561.473 797.146 560.9C797.146 559.98 797.506 559.287 798.226 558.82C798.959 558.34 799.939 558.1 801.166 558.1C801.806 558.1 802.433 558.16 803.046 558.28C803.659 558.4 804.153 558.567 804.526 558.78V560.46C804.139 560.233 803.659 560.053 803.086 559.92C802.526 559.787 801.953 559.72 801.366 559.72C800.659 559.72 800.119 559.807 799.746 559.98C799.373 560.153 799.186 560.46 799.186 560.9C799.186 561.18 799.266 561.407 799.426 561.58C799.586 561.753 799.839 561.907 800.186 562.04C800.546 562.16 801.113 562.32 801.886 562.52C803.099 562.853 803.939 563.247 804.406 563.7C804.886 564.153 805.126 564.78 805.126 565.58C805.126 566.407 804.786 567.067 804.106 567.56C803.426 568.053 802.419 568.3 801.086 568.3ZM704.818 581.416H700.33V578.622H712.65V581.416H708.162V594H704.818V581.416ZM715.121 578.622H721.787C723.532 578.622 724.889 579.062 725.857 579.942C726.839 580.807 727.331 582.061 727.331 583.704C727.331 584.848 727.067 585.823 726.539 586.63C726.011 587.422 725.263 588.001 724.295 588.368L727.221 594H723.789L721.083 588.786H718.465V594H715.121V578.622ZM721.193 585.992C722.043 585.992 722.711 585.809 723.195 585.442C723.693 585.075 723.943 584.496 723.943 583.704C723.943 582.868 723.701 582.281 723.217 581.944C722.733 581.592 722.058 581.416 721.193 581.416H718.465V585.992H721.193ZM734.925 578.622H738.203L744.341 594H740.931L739.611 590.656H733.517L732.197 594H728.765L734.925 578.622ZM738.731 587.994L736.553 582.142L734.375 587.994H738.731ZM747.199 578.622H752.545C754.217 578.622 755.676 578.93 756.923 579.546C758.169 580.162 759.13 581.042 759.805 582.186C760.479 583.33 760.817 584.679 760.817 586.234C760.817 588.786 760.069 590.722 758.573 592.042C757.091 593.347 755.023 594 752.369 594H747.199V578.622ZM752.545 591.206C754.114 591.206 755.317 590.766 756.153 589.886C756.989 589.006 757.407 587.789 757.407 586.234C757.407 585.31 757.223 584.481 756.857 583.748C756.49 583.015 755.955 582.443 755.251 582.032C754.547 581.621 753.718 581.416 752.765 581.416H750.543V591.206H752.545ZM763.667 578.622H767.011V594H763.667V578.622ZM770.318 578.622H773.574L779.998 588.566V578.622H783.342V594H780.108L773.662 584.056V594H770.318V578.622ZM794.512 594.33C792.87 594.33 791.418 594.007 790.156 593.362C788.895 592.702 787.92 591.771 787.23 590.568C786.541 589.365 786.196 587.95 786.196 586.322C786.196 584.694 786.541 583.279 787.23 582.076C787.92 580.859 788.895 579.927 790.156 579.282C791.418 578.622 792.87 578.292 794.512 578.292C795.627 578.292 796.61 578.409 797.46 578.644C798.326 578.864 799.118 579.216 799.836 579.7V582.89C799.191 582.362 798.45 581.981 797.614 581.746C796.793 581.497 795.854 581.372 794.798 581.372C793.816 581.372 792.928 581.577 792.136 581.988C791.359 582.384 790.743 582.956 790.288 583.704C789.834 584.452 789.606 585.325 789.606 586.322C789.606 587.334 789.812 588.221 790.222 588.984C790.648 589.732 791.242 590.311 792.004 590.722C792.767 591.133 793.647 591.338 794.644 591.338C795.554 591.338 796.346 591.177 797.02 590.854V587.884H794.534V585.42H800.254V592.834C798.802 593.831 796.888 594.33 794.512 594.33ZM706.864 604.622H710.142L716.28 620H712.87L711.55 616.656H705.456L704.136 620H700.704L706.864 604.622ZM710.67 613.994L708.492 608.142L706.314 613.994H710.67ZM719.138 604.622H722.394L728.818 614.566V604.622H732.162V620H728.928L722.482 610.056V620H719.138V604.622ZM741.177 604.622H744.455L750.593 620H747.183L745.863 616.656H739.769L738.449 620H735.017L741.177 604.622ZM744.983 613.994L742.805 608.142L740.627 613.994H744.983ZM753.451 604.622H756.795V617.206H763.835V620H753.451V604.622ZM768.709 614.148L763.077 604.622H766.641L770.359 611.024L774.209 604.622H777.751L771.987 614.148V620H768.709V614.148ZM783.811 620.33C782.872 620.33 781.941 620.242 781.017 620.066C780.093 619.89 779.338 619.655 778.751 619.362V616.414C779.528 616.795 780.335 617.081 781.171 617.272C782.007 617.463 782.806 617.558 783.569 617.558C784.42 617.558 785.065 617.411 785.505 617.118C785.945 616.825 786.165 616.414 786.165 615.886C786.165 615.505 786.055 615.182 785.835 614.918C785.615 614.654 785.292 614.419 784.867 614.214C784.456 613.994 783.818 613.708 782.953 613.356C781.516 612.769 780.474 612.117 779.829 611.398C779.184 610.665 778.861 609.763 778.861 608.692C778.861 607.827 779.096 607.064 779.565 606.404C780.034 605.729 780.694 605.209 781.545 604.842C782.396 604.475 783.378 604.292 784.493 604.292C785.402 604.292 786.209 604.365 786.913 604.512C787.617 604.659 788.306 604.886 788.981 605.194V608.054C787.69 607.409 786.4 607.086 785.109 607.086C784.288 607.086 783.642 607.233 783.173 607.526C782.704 607.805 782.469 608.208 782.469 608.736C782.469 609.117 782.579 609.433 782.799 609.682C783.019 609.931 783.327 610.151 783.723 610.342C784.119 610.533 784.764 610.811 785.659 611.178C786.7 611.618 787.514 612.043 788.101 612.454C788.688 612.85 789.12 613.327 789.399 613.884C789.678 614.427 789.817 615.101 789.817 615.908C789.817 617.301 789.311 618.387 788.299 619.164C787.302 619.941 785.806 620.33 783.811 620.33ZM792.695 604.622H796.039V620H792.695V604.622ZM803.965 620.33C803.027 620.33 802.095 620.242 801.171 620.066C800.247 619.89 799.492 619.655 798.905 619.362V616.414C799.683 616.795 800.489 617.081 801.325 617.272C802.161 617.463 802.961 617.558 803.723 617.558C804.574 617.558 805.219 617.411 805.659 617.118C806.099 616.825 806.319 616.414 806.319 615.886C806.319 615.505 806.209 615.182 805.989 614.918C805.769 614.654 805.447 614.419 805.021 614.214C804.611 613.994 803.973 613.708 803.107 613.356C801.67 612.769 800.629 612.117 799.983 611.398C799.338 610.665 799.015 609.763 799.015 608.692C799.015 607.827 799.25 607.064 799.719 606.404C800.189 605.729 800.849 605.209 801.699 604.842C802.55 604.475 803.533 604.292 804.647 604.292C805.557 604.292 806.363 604.365 807.067 604.512C807.771 604.659 808.461 604.886 809.135 605.194V608.054C807.845 607.409 806.554 607.086 805.263 607.086C804.442 607.086 803.797 607.233 803.327 607.526C802.858 607.805 802.623 608.208 802.623 608.736C802.623 609.117 802.733 609.433 802.953 609.682C803.173 609.931 803.481 610.151 803.877 610.342C804.273 610.533 804.919 610.811 805.813 611.178C806.855 611.618 807.669 612.043 808.255 612.454C808.842 612.85 809.275 613.327 809.553 613.884C809.832 614.427 809.971 615.101 809.971 615.908C809.971 617.301 809.465 618.387 808.453 619.164C807.456 619.941 805.96 620.33 803.965 620.33Z" fill="#FD8A42"/>
<path d="M487 494.3L488.5 493L496 501.4L503.5 493L504.9 494.3L496 504.4L487 494.3Z" fill="#808080"/>
<path d="M1127 494.3L1128.5 493L1136 501.4L1143.5 493L1144.9 494.3L1136 504.4L1127 494.3Z" fill="#808080"/>
<path d="M807 634.3L808.5 633L816 641.4L823.5 633L824.9 634.3L816 644.4L807 634.3Z" fill="#808080"/>
<defs>
<clipPath id="clip0_1488_13722">
<rect width="70" height="72" fill="white" transform="translate(687 213)"/>
</clipPath>
<clipPath id="clip1_1488_13722">
<rect width="76" height="76" fill="white" transform="translate(929 421)"/>
</clipPath>
<clipPath id="clip2_1488_13722">
<rect width="68" height="68" fill="white" transform="translate(316 419)"/>
</clipPath>
<clipPath id="clip3_1488_13722">
<rect width="59" height="59" fill="white" transform="translate(619 559)"/>
</clipPath>
</defs>
</svg>
