<svg width="1299" height="1027" viewBox="0 0 1299 1027" fill="none" xmlns="http://www.w3.org/2000/svg">
<rect width="1299" height="1027" fill="#171717"/>
<path d="M642.432 512.726L642.432 288.042" stroke="#C2C2C2" stroke-width="1.5" stroke-dasharray="8 8"/>
<path d="M637.666 465.565L636.629 464.445L642.431 458.181L648.232 464.445L647.195 465.565L642.431 460.421L637.666 465.565Z" fill="#C2C2C2"/>
<path d="M637.666 417.932L636.629 416.813L642.431 410.549L648.232 416.813L647.195 417.932L642.431 412.788L637.666 417.932Z" fill="#C2C2C2"/>
<path d="M637.666 358.717L636.629 357.597L642.431 351.333L648.232 357.597L647.195 358.717L642.431 353.573L637.666 358.717Z" fill="#C2C2C2"/>
<path d="M936.73 443.633L742.047 443.633C725.478 443.633 712.047 430.202 712.047 413.633L712.047 257.979" stroke="#C2C2C2" stroke-width="1.5" stroke-dasharray="8 8"/>
<path d="M867.638 438.869L866.518 437.831L860.254 443.633L866.518 449.435L867.638 448.397L862.494 443.633L867.638 438.869Z" fill="#C2C2C2"/>
<path d="M776.03 438.869L774.911 437.831L768.646 443.633L774.911 449.435L776.03 448.397L770.886 443.633L776.03 438.869Z" fill="#C2C2C2"/>
<path d="M716.81 399.692L717.848 398.572L712.046 392.308L706.244 398.572L707.282 399.692L712.046 394.548L716.81 399.692Z" fill="#C2C2C2"/>
<path d="M716.81 327.072L717.848 325.952L712.046 319.688L706.244 325.952L707.282 327.072L712.046 321.928L716.81 327.072Z" fill="#C2C2C2"/>
<path d="M351.291 443.633L545.975 443.633C562.543 443.633 575.975 430.201 575.975 413.633L575.975 257.979" stroke="#C2C2C2" stroke-width="1.5" stroke-dasharray="8 8"/>
<path d="M420.384 438.869L421.504 437.831L427.768 443.633L421.504 449.435L420.384 448.397L425.528 443.633L420.384 438.869Z" fill="#C2C2C2"/>
<path d="M511.991 438.869L513.111 437.831L519.375 443.633L513.111 449.435L511.991 448.397L517.135 443.633L511.991 438.869Z" fill="#C2C2C2"/>
<path d="M571.211 399.692L570.174 398.572L575.976 392.308L581.777 398.572L580.74 399.692L575.976 394.548L571.211 399.692Z" fill="#C2C2C2"/>
<path d="M571.211 327.072L570.174 325.952L575.976 319.688L581.777 325.952L580.74 327.072L575.976 321.928L571.211 327.072Z" fill="#C2C2C2"/>
<path d="M768.79 265.89C768.79 333.347 714.106 388.031 646.65 388.031C579.194 388.031 524.51 333.347 524.51 265.89C524.51 198.434 579.194 143.75 646.65 143.75C714.106 143.75 768.79 198.434 768.79 265.89Z" fill="#272727" stroke="#FF8B37" stroke-width="1.5"/>
<path d="M554.97 287.536H557.565L563.451 302.283H560.729L559.379 298.886H553.134L551.805 302.283H549.062L554.97 287.536ZM558.641 296.671L556.257 290.405L553.873 296.671H558.641Z" fill="white"/>
<path d="M566.609 287.536H569.289V302.283H566.609V287.536Z" fill="white"/>
<path d="M587.019 287.536H589.614L595.5 302.283H592.779L591.428 298.886H585.184L583.855 302.283H581.112L587.019 287.536ZM590.69 296.671L588.306 290.405L585.922 296.671H590.69Z" fill="white"/>
<path d="M598.659 286.692H601.317V302.283H598.659V286.692Z" fill="white"/>
<path d="M604.905 292.156H607.479V293.38C608.028 292.859 608.626 292.473 609.272 292.219C609.919 291.966 610.658 291.84 611.488 291.84C612.514 291.84 613.429 292.065 614.23 292.515C615.046 292.951 615.679 293.577 616.129 294.392C616.593 295.194 616.825 296.129 616.825 297.198C616.825 298.253 616.593 299.189 616.129 300.004C615.679 300.82 615.046 301.46 614.23 301.924C613.429 302.374 612.514 302.599 611.488 302.599C610.714 302.599 609.983 302.494 609.294 302.283C608.618 302.058 608.042 301.727 607.564 301.291V306.903H604.905V292.156ZM610.834 300.511C611.79 300.511 612.578 300.201 613.197 299.582C613.815 298.963 614.125 298.169 614.125 297.198C614.125 296.228 613.815 295.44 613.197 294.835C612.578 294.231 611.79 293.928 610.834 293.928C610.074 293.928 609.399 294.132 608.808 294.54C608.218 294.948 607.803 295.497 607.564 296.186V298.232C607.789 298.921 608.197 299.477 608.787 299.899C609.392 300.307 610.074 300.511 610.834 300.511Z" fill="white"/>
<path d="M619.991 286.692H622.649V293.443C623.605 292.374 624.843 291.84 626.362 291.84C627.726 291.84 628.746 292.212 629.421 292.958C630.096 293.689 630.434 294.667 630.434 295.89V302.283H627.775V296.143C627.775 294.667 627.086 293.928 625.708 293.928C625.103 293.928 624.534 294.076 623.999 294.371C623.465 294.653 623.015 295.082 622.649 295.658V302.283H619.991V286.692Z" fill="white"/>
<path d="M637.326 302.599C636.117 302.599 635.125 302.283 634.351 301.65C633.578 301.003 633.191 300.138 633.191 299.055C633.191 297.93 633.557 297.051 634.288 296.418C635.02 295.785 636.046 295.468 637.368 295.468C638.648 295.468 639.752 295.729 640.681 296.249V295.975C640.681 295.257 640.456 294.737 640.005 294.414C639.569 294.09 638.859 293.928 637.875 293.928C637.256 293.928 636.644 293.992 636.039 294.118C635.434 294.231 634.9 294.392 634.436 294.603V292.515C634.858 292.318 635.42 292.156 636.124 292.03C636.841 291.903 637.53 291.84 638.191 291.84C639.949 291.84 641.25 292.219 642.094 292.979C642.938 293.724 643.36 294.765 643.36 296.101V302.283H640.849V301.291C640.413 301.713 639.914 302.037 639.351 302.262C638.803 302.487 638.128 302.599 637.326 302.599ZM637.98 300.658C638.571 300.658 639.105 300.546 639.583 300.321C640.062 300.082 640.427 299.758 640.681 299.35V298.232C639.907 297.684 639.021 297.409 638.022 297.409C636.602 297.409 635.892 297.958 635.892 299.055C635.892 299.589 636.067 299.99 636.419 300.257C636.785 300.525 637.305 300.658 637.98 300.658Z" fill="white"/>
<path d="M659.109 289.751H654.657V287.536H666.24V289.751H661.788V302.283H659.109V289.751Z" fill="white"/>
<path d="M667.393 292.156H669.967V293.781C670.375 293.232 670.951 292.824 671.697 292.557C672.456 292.29 673.321 292.156 674.292 292.156V294.181C673.265 294.181 672.372 294.343 671.612 294.667C670.867 294.976 670.347 295.468 670.051 296.143V302.283H667.393V292.156Z" fill="white"/>
<path d="M679.805 302.599C678.595 302.599 677.603 302.283 676.83 301.65C676.056 301.003 675.67 300.138 675.67 299.055C675.67 297.93 676.035 297.051 676.767 296.418C677.498 295.785 678.525 295.468 679.847 295.468C681.127 295.468 682.231 295.729 683.159 296.249V295.975C683.159 295.257 682.934 294.737 682.484 294.414C682.048 294.09 681.338 293.928 680.353 293.928C679.734 293.928 679.122 293.992 678.518 294.118C677.913 294.231 677.378 294.392 676.914 294.603V292.515C677.336 292.318 677.899 292.156 678.602 292.03C679.319 291.903 680.008 291.84 680.669 291.84C682.428 291.84 683.729 292.219 684.572 292.979C685.416 293.724 685.838 294.765 685.838 296.101V302.283H683.328V301.291C682.892 301.713 682.392 302.037 681.83 302.262C681.281 302.487 680.606 302.599 679.805 302.599ZM680.459 300.658C681.049 300.658 681.584 300.546 682.062 300.321C682.54 300.082 682.906 299.758 683.159 299.35V298.232C682.385 297.684 681.499 297.409 680.501 297.409C679.08 297.409 678.37 297.958 678.37 299.055C678.37 299.589 678.546 299.99 678.897 300.257C679.263 300.525 679.783 300.658 680.459 300.658Z" fill="white"/>
<path d="M694.238 302.599C693.211 302.599 692.29 302.381 691.474 301.945C690.673 301.495 690.04 300.869 689.576 300.068C689.126 299.252 688.9 298.309 688.9 297.241C688.9 296.186 689.126 295.25 689.576 294.435C690.04 293.619 690.673 292.986 691.474 292.536C692.29 292.072 693.211 291.84 694.238 291.84C695.898 291.84 697.206 292.276 698.162 293.148V286.692H700.82V302.283H698.246V301.101C697.67 301.636 697.072 302.023 696.453 302.262C695.834 302.487 695.096 302.599 694.238 302.599ZM694.892 300.511C695.652 300.511 696.327 300.307 696.917 299.899C697.508 299.491 697.923 298.942 698.162 298.253V296.207C697.937 295.518 697.522 294.969 696.917 294.561C696.327 294.139 695.652 293.928 694.892 293.928C693.936 293.928 693.148 294.238 692.529 294.857C691.91 295.475 691.601 296.27 691.601 297.241C691.601 298.211 691.91 298.999 692.529 299.603C693.148 300.208 693.936 300.511 694.892 300.511Z" fill="white"/>
<path d="M705.906 290.384C705.484 290.384 705.125 290.243 704.83 289.962C704.548 289.681 704.408 289.329 704.408 288.907C704.408 288.485 704.548 288.134 704.83 287.852C705.125 287.557 705.484 287.409 705.906 287.409C706.327 287.409 706.686 287.557 706.981 287.852C707.277 288.134 707.425 288.485 707.425 288.907C707.425 289.329 707.277 289.681 706.981 289.962C706.686 290.243 706.327 290.384 705.906 290.384ZM704.555 292.156H707.256V302.283H704.555V292.156Z" fill="white"/>
<path d="M711.005 292.156H713.578V293.527C714.057 292.951 714.626 292.529 715.287 292.262C715.948 291.98 716.645 291.84 717.376 291.84C718.74 291.84 719.76 292.212 720.435 292.958C721.11 293.689 721.448 294.667 721.448 295.89V302.283H718.789V296.143C718.789 294.667 718.1 293.928 716.722 293.928C716.117 293.928 715.547 294.076 715.013 294.371C714.479 294.653 714.028 295.082 713.663 295.658V302.283H711.005V292.156Z" fill="white"/>
<path d="M730.295 307.135C729.62 307.135 728.944 307.072 728.269 306.945C727.594 306.819 727.032 306.65 726.582 306.439V304.329C727.679 304.807 728.916 305.046 730.295 305.046C731.532 305.046 732.418 304.786 732.953 304.266C733.501 303.745 733.776 302.972 733.776 301.945V301.291C733.298 301.727 732.728 302.058 732.067 302.283C731.406 302.494 730.696 302.599 729.936 302.599C728.909 302.599 727.981 302.374 727.151 301.924C726.321 301.46 725.674 300.82 725.21 300.004C724.746 299.189 724.514 298.253 724.514 297.198C724.514 296.129 724.739 295.194 725.189 294.392C725.653 293.577 726.286 292.951 727.088 292.515C727.904 292.065 728.825 291.84 729.852 291.84C730.71 291.84 731.448 291.959 732.067 292.198C732.686 292.423 733.283 292.803 733.86 293.338V292.156H736.434V301.671C736.434 303.415 735.928 304.758 734.915 305.7C733.916 306.657 732.376 307.135 730.295 307.135ZM730.506 300.511C731.265 300.511 731.94 300.307 732.531 299.899C733.136 299.477 733.551 298.921 733.776 298.232V296.186C733.537 295.497 733.122 294.948 732.531 294.54C731.94 294.132 731.265 293.928 730.506 293.928C729.549 293.928 728.762 294.231 728.143 294.835C727.524 295.44 727.215 296.228 727.215 297.198C727.215 298.169 727.524 298.963 728.143 299.582C728.762 300.201 729.549 300.511 730.506 300.511Z" fill="white"/>
<path d="M592.399 325.806C591.527 325.806 590.662 325.722 589.804 325.553C588.96 325.398 588.264 325.187 587.715 324.92V322.62C588.418 322.958 589.157 323.211 589.93 323.38C590.704 323.549 591.463 323.633 592.209 323.633C593.151 323.633 593.868 323.457 594.361 323.106C594.853 322.754 595.099 322.269 595.099 321.65C595.099 321.214 594.986 320.855 594.761 320.574C594.536 320.279 594.206 320.025 593.77 319.814C593.334 319.589 592.666 319.301 591.766 318.949C590.387 318.387 589.389 317.761 588.77 317.072C588.151 316.383 587.842 315.525 587.842 314.498C587.842 313.696 588.06 312.986 588.496 312.367C588.932 311.748 589.543 311.27 590.331 310.933C591.119 310.595 592.026 310.426 593.053 310.426C593.896 310.426 594.642 310.497 595.289 310.637C595.95 310.764 596.597 310.968 597.23 311.249V313.485C596.006 312.895 594.768 312.599 593.517 312.599C592.617 312.599 591.92 312.768 591.428 313.106C590.936 313.429 590.69 313.893 590.69 314.498C590.69 314.934 590.802 315.293 591.027 315.574C591.252 315.841 591.548 316.073 591.913 316.27C592.293 316.453 592.968 316.748 593.939 317.156C594.923 317.564 595.697 317.965 596.259 318.359C596.836 318.752 597.265 319.217 597.546 319.751C597.842 320.271 597.989 320.911 597.989 321.671C597.989 322.979 597.518 323.999 596.576 324.73C595.633 325.447 594.241 325.806 592.399 325.806Z" fill="white"/>
<path d="M604.492 325.806C603.381 325.806 602.537 325.497 601.96 324.878C601.384 324.259 601.095 323.387 601.095 322.262V317.388H599.576V315.363H601.095V312.325H603.754V315.363H606.18V317.388H603.754V321.924C603.754 322.571 603.873 323.035 604.112 323.316C604.351 323.584 604.787 323.717 605.42 323.717C605.856 323.717 606.285 323.619 606.707 323.422V325.447C606.102 325.686 605.364 325.806 604.492 325.806Z" fill="white"/>
<path d="M609.654 315.363H612.228V316.987C612.636 316.439 613.213 316.031 613.958 315.764C614.718 315.497 615.583 315.363 616.553 315.363V317.388C615.526 317.388 614.633 317.55 613.874 317.873C613.128 318.183 612.608 318.675 612.313 319.35V325.489H609.654V315.363Z" fill="white"/>
<path d="M622.066 325.806C620.856 325.806 619.865 325.489 619.091 324.857C618.318 324.21 617.931 323.345 617.931 322.262C617.931 321.136 618.296 320.257 619.028 319.625C619.759 318.992 620.786 318.675 622.108 318.675C623.388 318.675 624.492 318.935 625.42 319.456V319.181C625.42 318.464 625.195 317.944 624.745 317.62C624.309 317.297 623.599 317.135 622.614 317.135C621.995 317.135 621.384 317.198 620.779 317.325C620.174 317.437 619.64 317.599 619.175 317.81V315.722C619.597 315.525 620.16 315.363 620.863 315.236C621.581 315.11 622.27 315.046 622.931 315.046C624.689 315.046 625.99 315.426 626.834 316.186C627.678 316.931 628.1 317.972 628.1 319.308V325.489H625.589V324.498C625.153 324.92 624.654 325.243 624.091 325.468C623.543 325.693 622.867 325.806 622.066 325.806ZM622.72 323.865C623.311 323.865 623.845 323.752 624.323 323.527C624.801 323.288 625.167 322.965 625.42 322.557V321.439C624.647 320.89 623.761 320.616 622.762 320.616C621.341 320.616 620.631 321.165 620.631 322.262C620.631 322.796 620.807 323.197 621.159 323.464C621.524 323.731 622.045 323.865 622.72 323.865Z" fill="white"/>
<path d="M635.12 325.806C634.009 325.806 633.165 325.497 632.588 324.878C632.011 324.259 631.723 323.387 631.723 322.262V317.388H630.204V315.363H631.723V312.325H634.381V315.363H636.808V317.388H634.381V321.924C634.381 322.571 634.501 323.035 634.74 323.316C634.979 323.584 635.415 323.717 636.048 323.717C636.484 323.717 636.913 323.619 637.335 323.422V325.447C636.73 325.686 635.992 325.806 635.12 325.806Z" fill="white"/>
<path d="M645.978 325.806C644.094 325.806 642.603 325.335 641.506 324.392C640.409 323.45 639.86 322.135 639.86 320.447C639.86 318.788 640.345 317.473 641.316 316.502C642.286 315.532 643.672 315.046 645.472 315.046C646.653 315.046 647.659 315.271 648.489 315.722C649.333 316.172 649.966 316.79 650.388 317.578C650.81 318.352 651.02 319.238 651.02 320.236V321.46H642.392C642.575 322.965 643.883 323.717 646.316 323.717C646.963 323.717 647.624 323.661 648.299 323.549C648.974 323.436 649.565 323.281 650.071 323.084V325.131C649.593 325.328 648.974 325.489 648.215 325.616C647.469 325.743 646.724 325.806 645.978 325.806ZM648.51 319.646C648.482 318.844 648.193 318.225 647.645 317.789C647.111 317.353 646.372 317.135 645.43 317.135C644.502 317.135 643.77 317.36 643.236 317.81C642.701 318.26 642.42 318.872 642.392 319.646H648.51Z" fill="white"/>
<path d="M659.552 330.342C658.877 330.342 658.201 330.279 657.526 330.152C656.851 330.025 656.289 329.857 655.839 329.646V327.536C656.936 328.014 658.173 328.253 659.552 328.253C660.789 328.253 661.675 327.993 662.21 327.473C662.758 326.952 663.033 326.179 663.033 325.152V324.498C662.554 324.934 661.985 325.264 661.324 325.489C660.663 325.7 659.952 325.806 659.193 325.806C658.166 325.806 657.238 325.581 656.408 325.131C655.578 324.667 654.931 324.027 654.467 323.211C654.003 322.395 653.771 321.46 653.771 320.405C653.771 319.336 653.996 318.401 654.446 317.599C654.91 316.783 655.543 316.158 656.345 315.722C657.161 315.271 658.082 315.046 659.109 315.046C659.967 315.046 660.705 315.166 661.324 315.405C661.943 315.63 662.54 316.01 663.117 316.544V315.363H665.691V324.878C665.691 326.622 665.185 327.965 664.172 328.907C663.173 329.864 661.633 330.342 659.552 330.342ZM659.763 323.717C660.522 323.717 661.197 323.513 661.788 323.106C662.393 322.684 662.808 322.128 663.033 321.439V319.392C662.794 318.703 662.379 318.155 661.788 317.747C661.197 317.339 660.522 317.135 659.763 317.135C658.806 317.135 658.019 317.437 657.4 318.042C656.781 318.647 656.471 319.435 656.471 320.405C656.471 321.376 656.781 322.17 657.4 322.789C658.019 323.408 658.806 323.717 659.763 323.717Z" fill="white"/>
<path d="M670.776 313.591C670.354 313.591 669.995 313.45 669.7 313.169C669.419 312.888 669.278 312.536 669.278 312.114C669.278 311.692 669.419 311.34 669.7 311.059C669.995 310.764 670.354 310.616 670.776 310.616C671.198 310.616 671.557 310.764 671.852 311.059C672.147 311.34 672.295 311.692 672.295 312.114C672.295 312.536 672.147 312.888 671.852 313.169C671.557 313.45 671.198 313.591 670.776 313.591ZM669.426 315.363H672.126V325.489H669.426V315.363Z" fill="white"/>
<path d="M681.571 325.806C679.687 325.806 678.196 325.335 677.099 324.392C676.002 323.45 675.453 322.135 675.453 320.447C675.453 318.788 675.938 317.473 676.909 316.502C677.879 315.532 679.265 315.046 681.065 315.046C682.246 315.046 683.252 315.271 684.082 315.722C684.926 316.172 685.559 316.79 685.981 317.578C686.403 318.352 686.614 319.238 686.614 320.236V321.46H677.985C678.168 322.965 679.476 323.717 681.909 323.717C682.556 323.717 683.217 323.661 683.892 323.549C684.567 323.436 685.158 323.281 685.664 323.084V325.131C685.186 325.328 684.567 325.489 683.808 325.616C683.062 325.743 682.317 325.806 681.571 325.806ZM684.103 319.646C684.075 318.844 683.787 318.225 683.238 317.789C682.704 317.353 681.965 317.135 681.023 317.135C680.095 317.135 679.363 317.36 678.829 317.81C678.294 318.26 678.013 318.872 677.985 319.646H684.103Z" fill="white"/>
<path d="M693.731 325.806C693 325.806 692.219 325.722 691.389 325.553C690.56 325.384 689.913 325.152 689.448 324.857V322.599C689.997 322.937 690.651 323.211 691.41 323.422C692.17 323.619 692.887 323.717 693.562 323.717C694.237 323.717 694.73 323.661 695.039 323.549C695.349 323.422 695.503 323.197 695.503 322.873C695.503 322.62 695.419 322.416 695.25 322.262C695.095 322.093 694.835 321.945 694.47 321.819C694.118 321.678 693.569 321.509 692.824 321.312C691.98 321.073 691.312 320.827 690.82 320.574C690.342 320.321 689.976 320.004 689.723 319.625C689.484 319.231 689.364 318.724 689.364 318.106C689.364 317.093 689.765 316.333 690.567 315.827C691.368 315.307 692.451 315.046 693.816 315.046C694.519 315.046 695.215 315.117 695.904 315.257C696.607 315.384 697.156 315.567 697.55 315.806V317.979C697.128 317.726 696.614 317.522 696.01 317.367C695.405 317.212 694.786 317.135 694.153 317.135C693.464 317.135 692.944 317.205 692.592 317.346C692.24 317.473 692.064 317.726 692.064 318.106C692.064 318.359 692.156 318.563 692.339 318.717C692.536 318.858 692.789 318.985 693.098 319.097C693.408 319.196 693.97 319.35 694.786 319.561C695.658 319.8 696.34 320.061 696.832 320.342C697.325 320.623 697.676 320.961 697.887 321.354C698.098 321.748 698.204 322.241 698.204 322.831C698.204 323.731 697.817 324.456 697.043 325.004C696.284 325.539 695.18 325.806 693.731 325.806Z" fill="white"/>
<g clip-path="url(#clip0_441_213)">
<path d="M611.312 216.851C611.763 215.884 612.076 214.829 612.692 213.99C614.081 212.086 616.615 211.445 618.758 212.55C619.854 213.112 620.519 212.935 621.419 212.264C626.028 208.87 630.665 205.516 635.332 202.212C636.242 201.57 636.633 200.969 636.526 199.755C636.252 196.668 638.6 194.162 641.574 194.132C644.588 194.103 647.063 196.727 646.711 199.854C646.564 201.156 646.956 201.827 647.944 202.448C648.687 202.912 649.392 203.455 650.047 204.037C651.27 205.132 652.395 205.625 654.215 205.072C655.526 204.668 657.18 205.388 659.107 205.674C663.95 201.432 669.204 196.835 674.439 192.209C674.722 191.952 674.987 191.489 674.996 191.114C675.084 186.27 675.495 185.629 679.566 184.129H680.319C680.671 184.258 681.014 184.396 681.366 184.504C684.399 185.481 685.906 188.549 684.78 191.449C683.694 194.231 680.534 195.494 677.755 194.231C677.413 194.073 677.1 193.866 676.64 193.609C672.345 197.358 668.04 201.136 663.725 204.905C663.246 205.319 662.806 205.783 662.297 206.148C660.878 207.174 660.037 208.239 660.232 210.311C660.487 213.102 657.747 215.411 654.949 215.292C652.033 215.164 649.803 212.639 650.028 209.689C650.077 209.008 650.292 208.338 650.468 207.46C648.951 206.315 647.386 205.063 645.742 203.928C645.39 203.691 644.666 203.672 644.284 203.869C642.455 204.836 640.723 204.816 638.884 203.869C638.414 203.632 637.534 203.681 637.103 203.987C632.162 207.479 627.27 211.021 622.398 214.602C622.036 214.868 621.693 215.49 621.713 215.914C621.938 219.524 620.597 221.734 617.662 222.385C614.913 222.997 612.614 221.349 611.469 217.946C611.43 217.828 611.361 217.719 611.312 217.601V216.841V216.851ZM644.314 199.292C644.265 197.763 643.003 196.598 641.467 196.668C640.038 196.737 638.874 197.94 638.874 199.371C638.874 200.87 640.126 202.103 641.643 202.083C643.179 202.064 644.373 200.811 644.324 199.282L644.314 199.292ZM657.845 210.074C657.845 208.525 656.651 207.322 655.115 207.341C653.687 207.361 652.483 208.525 652.435 209.955C652.376 211.475 653.569 212.737 655.096 212.767C656.651 212.806 657.845 211.632 657.855 210.074H657.845ZM679.967 186.803C678.45 186.803 677.247 188.016 677.266 189.565C677.276 191.124 678.47 192.278 680.035 192.238C681.513 192.199 682.608 191.094 682.638 189.594C682.667 188.046 681.493 186.813 679.967 186.803ZM619.355 217.177C619.306 215.618 618.093 214.483 616.537 214.552C615.109 214.622 613.964 215.815 613.954 217.255C613.954 218.784 615.167 219.988 616.703 219.968C618.259 219.949 619.394 218.755 619.355 217.177Z" fill="#FD8A42"/>
<path d="M611.312 258.323C612.115 258.066 612.917 257.603 613.719 257.603C636.066 257.563 658.403 257.573 680.749 257.573C681.718 257.573 683.029 257.326 682.97 258.855C682.912 260.345 681.601 260.059 680.642 260.059C662.375 260.069 644.118 260.069 625.851 260.069C621.83 260.069 617.819 260.098 613.798 260.039C612.966 260.029 612.144 259.654 611.312 259.457C611.312 259.072 611.312 258.698 611.312 258.313V258.323Z" fill="#FD8A42"/>
<path d="M668.598 230.948C668.598 223.539 668.647 216.131 668.569 208.722C668.549 206.957 669.166 206.355 670.858 206.424C673.431 206.522 676.005 206.493 678.578 206.424C680.075 206.384 680.721 206.887 680.721 208.495C680.681 223.372 680.681 238.248 680.721 253.124C680.721 254.683 680.143 255.294 678.607 255.255C676.034 255.186 673.461 255.166 670.888 255.255C669.185 255.314 668.559 254.712 668.569 252.956C668.637 245.617 668.598 238.268 668.598 230.928V230.948ZM678.04 252.631V209.018H671.132V252.631H678.04Z" fill="#FD8A42"/>
<path d="M644.538 234.588C644.538 240.734 644.499 246.88 644.568 253.025C644.587 254.643 644.069 255.344 642.405 255.284C639.774 255.196 637.132 255.225 634.49 255.284C633.081 255.314 632.426 254.801 632.426 253.302C632.455 240.823 632.455 228.344 632.426 215.855C632.426 214.483 632.964 213.872 634.314 213.882C637.073 213.901 639.842 213.921 642.601 213.882C644.088 213.862 644.558 214.553 644.548 215.973C644.509 222.178 644.529 228.393 644.529 234.598L644.538 234.588ZM642.004 252.631V216.585H635.077V252.631H642.004Z" fill="#FD8A42"/>
<path d="M626.468 240.408C626.468 244.65 626.429 248.902 626.488 253.144C626.507 254.702 625.94 255.314 624.394 255.275C621.693 255.205 618.993 255.225 616.293 255.275C614.943 255.294 614.355 254.722 614.355 253.351C614.375 244.601 614.375 235.861 614.355 227.11C614.355 225.828 614.933 225.266 616.185 225.276C618.944 225.295 621.713 225.315 624.472 225.266C625.92 225.236 626.488 225.828 626.478 227.298C626.429 231.668 626.458 236.048 626.458 240.418L626.468 240.408ZM616.997 227.9V252.562H623.944V227.9H616.997Z" fill="#FD8A42"/>
<path d="M662.611 242.342C662.611 245.893 662.542 249.444 662.64 252.986C662.689 254.762 661.994 255.334 660.302 255.275C657.729 255.186 655.155 255.215 652.572 255.265C651.183 255.294 650.488 254.831 650.498 253.302C650.537 245.883 650.537 238.475 650.498 231.056C650.498 229.557 651.124 229.034 652.543 229.054C655.243 229.103 657.944 229.103 660.644 229.054C662.112 229.024 662.64 229.675 662.62 231.125C662.562 234.864 662.601 238.603 662.601 242.342H662.611ZM660.047 252.631V231.777H653.11V252.631H660.047Z" fill="#FD8A42"/>
</g>
<rect x="852.873" y="378.232" width="267.806" height="126.58" rx="15" fill="#272727"/>
<path d="M1135.05 438.886V382.684C1135.05 374.399 1128.33 367.684 1120.05 367.684H1068.06" stroke="#FD8A42" stroke-width="1.5" stroke-linecap="round"/>
<path d="M1015.6 432.346C1014.13 432.346 1012.81 432.03 1011.63 431.397C1010.45 430.75 1009.52 429.842 1008.84 428.675C1008.17 427.508 1007.83 426.172 1007.83 424.667C1007.83 423.162 1008.17 421.826 1008.84 420.658C1009.52 419.491 1010.45 418.584 1011.63 417.937C1012.81 417.29 1014.13 416.966 1015.6 416.966C1017.06 416.966 1018.38 417.29 1019.56 417.937C1020.74 418.584 1021.67 419.491 1022.35 420.658C1023.02 421.826 1023.36 423.162 1023.36 424.667C1023.36 426.172 1023.02 427.508 1022.35 428.675C1021.67 429.842 1020.74 430.75 1019.56 431.397C1018.38 432.03 1017.06 432.346 1015.6 432.346ZM1015.6 430.405C1016.64 430.405 1017.58 430.173 1018.42 429.709C1019.28 429.231 1019.96 428.563 1020.45 427.705C1020.94 426.833 1021.19 425.82 1021.19 424.667C1021.19 423.527 1020.94 422.529 1020.45 421.671C1019.97 420.799 1019.31 420.131 1018.46 419.667C1017.62 419.188 1016.68 418.949 1015.64 418.949C1014.58 418.949 1013.63 419.181 1012.77 419.646C1011.92 420.11 1011.25 420.778 1010.74 421.65C1010.25 422.522 1010.01 423.527 1010.01 424.667C1010.01 425.82 1010.25 426.833 1010.74 427.705C1011.24 428.563 1011.9 429.231 1012.75 429.709C1013.61 430.173 1014.55 430.405 1015.6 430.405Z" fill="#FD8A42"/>
<path d="M1032.73 432.346C1030.72 432.346 1029.2 431.833 1028.17 430.806C1027.15 429.765 1026.63 428.338 1026.63 426.523V417.283H1028.79V426.608C1028.79 427.859 1029.14 428.809 1029.84 429.456C1030.54 430.089 1031.51 430.405 1032.73 430.405C1033.94 430.405 1034.9 430.089 1035.6 429.456C1036.3 428.809 1036.65 427.859 1036.65 426.608V417.283H1038.81V426.523C1038.81 428.323 1038.29 429.744 1037.27 430.785C1036.24 431.826 1034.73 432.346 1032.73 432.346Z" fill="#FD8A42"/>
<path d="M1042.5 417.283H1048.43C1050.01 417.283 1051.22 417.662 1052.06 418.422C1052.9 419.181 1053.33 420.293 1053.33 421.755C1053.33 422.838 1053.04 423.759 1052.46 424.519C1051.88 425.264 1051.07 425.771 1050.01 426.038L1053.26 432.03H1051.03L1047.88 426.207H1044.66V432.03H1042.5V417.283ZM1048.07 424.392C1049.02 424.392 1049.76 424.174 1050.31 423.738C1050.87 423.288 1051.15 422.627 1051.15 421.755C1051.15 420.799 1050.88 420.117 1050.33 419.709C1049.8 419.301 1049.04 419.097 1048.07 419.097H1044.66V424.392H1048.07Z" fill="#FD8A42"/>
<path d="M1016.76 443.665H1021.47L1030.3 465.785H1025.4L1023.5 460.975H1014.73L1012.83 465.785H1007.9L1016.76 443.665ZM1022.23 457.146L1019.1 448.728L1015.96 457.146H1022.23Z" fill="#FD8A42"/>
<path d="M1034.03 443.665H1038.84V465.785H1034.03V443.665Z" fill="#FD8A42"/>
<g clip-path="url(#clip1_441_213)">
<path d="M931.282 449.398V441.284H930.973C926.071 441.284 921.169 441.284 916.267 441.284C916.046 441.284 915.958 441.35 915.877 441.556C915.363 442.967 913.878 443.82 912.423 443.548C910.894 443.269 909.836 441.982 909.836 440.432C909.836 438.925 910.931 437.646 912.445 437.382C913.908 437.124 915.385 437.977 915.892 439.395C915.965 439.601 916.061 439.653 916.267 439.653C921.176 439.653 926.086 439.653 930.995 439.653H931.282V431.539C931.179 431.539 931.091 431.539 931.003 431.539C928.901 431.539 926.791 431.539 924.689 431.539C924.476 431.539 924.388 431.605 924.315 431.803C923.785 433.222 922.308 434.06 920.853 433.788C919.332 433.501 918.259 432.215 918.266 430.694C918.273 429.172 919.376 427.886 920.89 427.621C922.36 427.372 923.8 428.217 924.337 429.643C924.395 429.79 924.447 429.87 924.631 429.87C926.784 429.863 928.937 429.87 931.098 429.87C931.157 429.87 931.216 429.87 931.311 429.856C931.311 429.753 931.311 429.657 931.311 429.554C931.311 428.628 931.275 427.695 931.341 426.776C931.532 423.976 933.825 421.867 936.64 421.859C937.433 421.859 938.227 421.859 939.021 421.859C939.109 421.859 939.205 421.859 939.33 421.859V421.543C939.33 419.456 939.33 417.369 939.33 415.282C939.33 415.061 939.278 414.951 939.058 414.87C937.661 414.348 936.831 412.9 937.081 411.445C937.338 409.953 938.595 408.865 940.101 408.829C941.593 408.792 942.931 409.858 943.225 411.32C943.526 412.827 942.725 414.319 941.307 414.863C941.071 414.951 940.998 415.054 940.998 415.304C941.013 417.383 940.998 419.463 940.998 421.543V421.837H949.097C949.097 421.742 949.112 421.646 949.112 421.551C949.112 416.641 949.112 411.732 949.112 406.822C949.112 406.616 949.053 406.521 948.855 406.447C947.436 405.94 946.584 404.456 946.848 403C947.105 401.486 948.377 400.391 949.862 400.384C951.427 400.377 952.713 401.435 953 402.978C953.264 404.426 952.427 405.911 951.023 406.425C950.788 406.514 950.729 406.616 950.729 406.852C950.729 411.732 950.729 416.604 950.729 421.485V421.83H958.835C958.835 421.749 958.85 421.661 958.85 421.573C958.85 419.463 958.85 417.347 958.85 415.237C958.85 415.032 958.791 414.951 958.6 414.885C957.174 414.355 956.336 412.886 956.601 411.43C956.88 409.909 958.167 408.829 959.688 408.836C961.209 408.836 962.503 409.931 962.767 411.445C963.025 412.922 962.179 414.378 960.732 414.907C960.57 414.965 960.518 415.039 960.518 415.208C960.518 417.347 960.518 419.485 960.518 421.624C960.518 421.698 960.526 421.771 960.533 421.874C960.643 421.874 960.739 421.874 960.842 421.874C961.775 421.874 962.716 421.837 963.649 421.903C966.405 422.095 968.522 424.395 968.529 427.158C968.529 428.055 968.529 428.944 968.529 429.87C968.632 429.87 968.72 429.885 968.801 429.885C970.925 429.885 973.042 429.885 975.166 429.885C975.364 429.885 975.431 429.819 975.497 429.643C976.026 428.224 977.459 427.386 978.922 427.629C980.399 427.871 981.494 429.113 981.553 430.613C981.612 432.097 980.546 433.464 979.098 433.766C977.569 434.089 976.063 433.288 975.519 431.84C975.431 431.612 975.328 431.546 975.093 431.546C973.005 431.553 970.918 431.546 968.831 431.546H968.544V439.66H968.845C973.748 439.66 978.65 439.66 983.552 439.66C983.772 439.66 983.861 439.594 983.941 439.388C984.456 437.977 985.94 437.124 987.396 437.396C988.924 437.676 989.99 438.962 989.983 440.512C989.983 442.019 988.888 443.298 987.374 443.563C985.911 443.82 984.434 442.967 983.927 441.549C983.853 441.343 983.758 441.292 983.552 441.292C978.642 441.292 973.733 441.292 968.823 441.292H968.537V449.398C968.64 449.398 968.728 449.413 968.816 449.413C970.918 449.413 973.027 449.413 975.129 449.413C975.342 449.413 975.431 449.347 975.504 449.148C976.033 447.73 977.51 446.892 978.966 447.164C980.487 447.45 981.56 448.737 981.553 450.258C981.545 451.779 980.443 453.066 978.929 453.323C977.459 453.573 976.019 452.727 975.482 451.302C975.431 451.169 975.394 451.074 975.217 451.074C973.049 451.074 970.874 451.074 968.706 451.074C968.654 451.074 968.61 451.074 968.522 451.088C968.522 451.191 968.522 451.287 968.522 451.39C968.522 452.323 968.559 453.264 968.493 454.197C968.302 456.961 966.023 459.07 963.252 459.092C962.444 459.092 961.635 459.092 960.82 459.092H960.511V459.379C960.511 461.481 960.511 463.59 960.511 465.692C960.511 465.89 960.555 465.993 960.761 466.067C962.172 466.589 963.003 468.037 962.76 469.499C962.51 470.976 961.268 472.064 959.761 472.116C958.277 472.167 956.917 471.101 956.616 469.646C956.3 468.125 957.101 466.625 958.534 466.082C958.769 465.993 958.843 465.89 958.843 465.641C958.828 463.568 958.843 461.495 958.843 459.43V459.114H950.743C950.743 459.21 950.729 459.305 950.729 459.401C950.729 464.31 950.729 469.22 950.729 474.129C950.729 474.335 950.788 474.431 950.993 474.497C952.412 475.004 953.264 476.488 953 477.944C952.728 479.465 951.449 480.545 949.92 480.545C948.392 480.545 947.113 479.472 946.834 477.951C946.569 476.496 947.421 475.004 948.833 474.497C949.046 474.423 949.105 474.32 949.105 474.107C949.105 469.212 949.105 464.318 949.105 459.423V459.107H940.998C940.998 459.195 940.983 459.283 940.983 459.371C940.983 461.481 940.983 463.597 940.983 465.707C940.983 465.912 941.049 465.993 941.233 466.059C942.659 466.589 943.497 468.059 943.225 469.514C942.938 471.035 941.659 472.116 940.138 472.108C938.617 472.108 937.331 471.006 937.059 469.499C936.801 468.022 937.647 466.567 939.094 466.037C939.256 465.979 939.308 465.905 939.308 465.736C939.308 463.597 939.308 461.459 939.308 459.32C939.308 459.246 939.3 459.173 939.293 459.077C939.183 459.077 939.08 459.077 938.984 459.077C938.058 459.077 937.125 459.114 936.206 459.048C933.428 458.864 931.304 456.557 931.304 453.764C931.304 452.882 931.304 451.992 931.304 451.081C931.201 451.081 931.113 451.066 931.025 451.066C928.901 451.066 926.784 451.066 924.66 451.066C924.484 451.066 924.403 451.111 924.337 451.287C923.815 452.713 922.404 453.551 920.926 453.323C919.456 453.102 918.354 451.868 918.273 450.361C918.192 448.876 919.265 447.487 920.728 447.179C922.257 446.855 923.763 447.656 924.307 449.104C924.395 449.332 924.498 449.398 924.733 449.398C926.821 449.391 928.908 449.398 930.995 449.398H931.289H931.282ZM932.936 440.461C932.936 444.856 932.936 449.244 932.936 453.639C932.936 455.851 934.523 457.438 936.721 457.446C945.525 457.446 954.323 457.446 963.127 457.446C965.303 457.446 966.898 455.858 966.898 453.683C966.898 444.871 966.898 436.066 966.898 427.254C966.898 425.078 965.303 423.491 963.127 423.491C954.323 423.491 945.525 423.491 936.721 423.491C936.206 423.491 935.706 423.564 935.229 423.763C933.795 424.351 932.936 425.666 932.936 427.298C932.936 431.693 932.936 436.081 932.936 440.476V440.461ZM938.69 411.93C938.69 412.724 939.337 413.393 940.131 413.393C940.917 413.393 941.586 412.739 941.593 411.945C941.593 411.151 940.947 410.49 940.145 410.482C939.344 410.482 938.69 411.122 938.683 411.923L938.69 411.93ZM959.688 410.49C958.894 410.49 958.233 411.144 958.233 411.937C958.233 412.731 958.894 413.393 959.688 413.393C960.474 413.393 961.143 412.731 961.136 411.937C961.136 411.136 960.482 410.49 959.681 410.49H959.688ZM959.688 470.432C960.489 470.432 961.136 469.778 961.136 468.977C961.136 468.184 960.474 467.522 959.681 467.529C958.894 467.529 958.225 468.198 958.233 468.992C958.233 469.786 958.894 470.44 959.688 470.44V470.432ZM919.949 430.694C919.949 431.495 920.603 432.149 921.397 432.149C922.183 432.149 922.852 431.495 922.859 430.701C922.859 429.914 922.198 429.246 921.411 429.246C920.61 429.246 919.956 429.892 919.956 430.694H919.949ZM979.892 430.701C979.892 429.9 979.252 429.253 978.444 429.246C977.65 429.246 976.989 429.9 976.981 430.694C976.981 431.48 977.643 432.149 978.429 432.156C979.223 432.156 979.884 431.502 979.884 430.708L979.892 430.701ZM919.949 450.236C919.949 451.037 920.596 451.684 921.397 451.691C922.191 451.691 922.852 451.03 922.852 450.243C922.852 449.45 922.191 448.788 921.397 448.788C920.603 448.788 919.949 449.442 919.942 450.243L919.949 450.236ZM979.892 450.251C979.892 449.45 979.252 448.795 978.451 448.788C977.665 448.788 976.996 449.442 976.989 450.229C976.981 451.022 977.643 451.691 978.429 451.691C979.23 451.691 979.884 451.052 979.892 450.251ZM940.138 470.44C940.939 470.44 941.601 469.793 941.601 468.999C941.601 468.206 940.947 467.544 940.16 467.537C939.366 467.537 938.698 468.191 938.698 468.977C938.698 469.778 939.337 470.432 940.138 470.44ZM949.913 404.955C950.707 404.955 951.368 404.301 951.368 403.508C951.368 402.714 950.714 402.06 949.92 402.06C949.119 402.06 948.465 402.706 948.465 403.5C948.465 404.294 949.119 404.955 949.913 404.955ZM914.407 440.461C914.407 439.667 913.746 439.006 912.952 439.006C912.158 439.006 911.504 439.66 911.504 440.461C911.504 441.262 912.158 441.916 912.952 441.916C913.746 441.916 914.4 441.255 914.4 440.461H914.407ZM985.426 440.461C985.426 441.255 986.08 441.916 986.881 441.916C987.675 441.916 988.329 441.262 988.329 440.461C988.329 439.66 987.675 439.006 986.881 439.006C986.087 439.006 985.433 439.667 985.433 440.461H985.426ZM949.913 478.862C950.714 478.862 951.368 478.216 951.376 477.422C951.376 476.628 950.721 475.967 949.928 475.967C949.134 475.967 948.472 476.613 948.465 477.407C948.465 478.201 949.112 478.855 949.913 478.862Z" fill="#FF8A37"/>
<path d="M954.844 449.251C954.05 449.251 953.286 449.251 952.529 449.244C952.462 449.244 952.374 449.119 952.345 449.031C951.83 447.531 951.323 446.032 950.809 444.525C950.743 444.32 950.662 444.114 950.603 443.908C950.566 443.776 950.5 443.724 950.353 443.724C948.398 443.724 946.443 443.724 944.488 443.724C944.312 443.724 944.282 443.82 944.246 443.937C943.687 445.635 943.121 447.325 942.57 449.023C942.511 449.2 942.43 449.251 942.254 449.251C941.563 449.244 940.872 449.251 940.145 449.251C940.292 448.81 940.431 448.399 940.571 447.994C942.393 442.636 944.216 437.279 946.032 431.921C946.09 431.737 946.179 431.678 946.37 431.686C947.112 431.7 947.854 431.7 948.597 431.686C948.795 431.686 948.883 431.737 948.949 431.936C950.147 435.463 951.345 438.984 952.551 442.504C953.286 444.658 954.02 446.818 954.755 448.972C954.785 449.053 954.807 449.126 954.851 449.258L954.844 449.251ZM944.804 441.931H950.052C949.177 439.182 948.104 436.522 947.413 433.729C946.73 436.522 945.686 439.182 944.804 441.931Z" fill="#FF8A37"/>
<path d="M957.439 431.7H959.666V449.236H957.439V431.7Z" fill="#FF8A37"/>
</g>
<rect width="267.81" height="126.582" rx="15" transform="matrix(-1 0 0 1 445.174 374.013)" fill="#272727"/>
<path d="M163 434.667V378.464C163 370.18 169.716 363.464 178 363.464H229.983" stroke="#FD8A42" stroke-width="1.5" stroke-linecap="round"/>
<g clip-path="url(#clip2_441_213)">
<path d="M267.966 473.169H265.727C265.603 473.127 265.471 473.061 265.339 473.036C262.892 472.607 260.992 471.35 259.595 469.309C259.405 469.036 259.24 468.747 259.042 468.425C258.876 468.681 258.752 468.871 258.628 469.061C257.405 470.954 255.703 472.218 253.538 472.846C253.116 472.97 252.695 473.061 252.273 473.169H250.034C249.951 473.127 249.877 473.069 249.794 473.053C246.662 472.499 244.439 470.78 243.158 467.863C243.117 467.763 243.051 467.664 243.001 467.573C234.862 470.441 227.143 463.97 229.705 455.333C224.086 454.193 221.755 445.853 226.631 441.705C224.705 439.68 224.086 438.762 223.598 437.093C223.4 436.473 223.276 435.837 223.127 435.2V432.96C223.168 432.803 223.226 432.655 223.259 432.498C223.829 429.216 225.639 426.886 228.647 425.481C228.961 425.332 229.267 425.2 229.589 425.051C228.689 422.092 228.755 419.241 230.25 416.53C231.787 413.737 234.3 412.456 237.349 412.15C237.382 412.042 237.407 412.001 237.407 411.96C237.903 406.943 241.53 404.306 246.406 405.455C246.852 405.563 247.018 405.397 247.241 405.075C248.703 402.959 250.687 401.662 253.273 401.463C255.579 401.29 257.521 402.125 259.075 403.91C259.926 402.844 260.967 402.091 262.264 401.711C265.322 400.819 268.718 402.116 270.685 404.992C270.983 405.43 271.231 405.53 271.76 405.397C275.644 404.463 279.015 406.282 280.205 409.943C280.428 410.646 280.519 411.389 280.684 412.15C283.759 412.447 286.246 413.77 287.775 416.563C289.254 419.274 289.304 422.125 288.411 425.051C291.907 426.382 294.138 428.778 294.716 432.473C295.295 436.134 294.13 439.225 291.345 441.688C296.245 445.961 293.89 454.151 288.262 455.308C289.213 459.218 288.849 462.879 285.684 465.714C282.56 468.515 278.858 468.73 274.991 467.515C273.892 470.201 272.032 471.97 269.297 472.788C268.859 472.921 268.404 473.028 267.966 473.144V473.169ZM258.009 458.333V457.746C258.009 440.986 258.009 424.225 258.009 407.464C258.009 405.868 257.207 404.753 255.786 404.116C253.166 402.935 250.356 404.24 248.943 406.604C248.86 406.736 248.836 406.91 248.811 407.067C248.646 408.05 248.654 409.009 249.001 409.96C249.249 410.646 248.96 411.232 248.365 411.455C247.778 411.679 247.166 411.389 246.927 410.712C246.745 410.208 246.596 409.687 246.53 409.158C246.332 407.579 246.357 407.571 244.745 407.406C244.464 407.381 244.183 407.364 243.91 407.389C241.274 407.637 239.564 409.753 239.671 412.613C239.729 414.051 239.514 414.29 238.093 414.34C234.556 414.464 232.159 416.356 231.449 419.629C231.06 421.415 231.25 423.158 231.936 424.844C232.498 426.2 232.292 426.63 230.895 427.026C226.92 428.159 224.838 431.448 225.515 435.523C225.97 438.275 227.771 440.324 230.35 440.87C231.275 441.068 232.25 441.043 233.201 441.068C233.994 441.093 234.49 441.448 234.523 442.101C234.564 442.796 234.085 443.324 233.283 443.291C232.011 443.242 230.738 443.06 229.465 442.969C229.168 442.944 228.804 442.969 228.565 443.134C226.466 444.49 225.68 447.068 226.581 449.63C227.193 451.383 228.267 452.672 230.209 453.052C230.672 453.143 230.986 453.069 231.275 452.647C232.044 451.54 233.06 450.68 234.234 450.027C235.019 449.589 235.647 449.68 236.01 450.283C236.374 450.887 236.142 451.482 235.382 451.953C233.275 453.25 231.911 455.019 231.573 457.573C231.077 461.342 233.176 464.73 236.771 465.689C238.886 466.259 240.927 465.97 242.919 465.127C244.051 464.648 244.563 464.879 244.894 466.044C245.266 467.35 245.902 468.499 246.952 469.392C250.604 472.499 256.141 470.73 257.604 465.978C258.769 462.201 256.992 459.077 253.191 458.226C251.298 457.804 249.489 458.052 247.778 459.019C247.026 459.441 246.414 459.333 246.067 458.755C245.712 458.16 245.943 457.515 246.695 457.077C248.604 455.986 250.645 455.589 252.827 455.879C254.753 456.135 256.43 456.937 258 458.325L258.009 458.333ZM260.273 460.3C260.273 461.697 260.207 463.028 260.289 464.35C260.413 466.292 261.083 468.044 262.595 469.367C265.892 472.243 271.743 471.16 273.115 466.003C273.404 464.912 273.933 464.722 274.991 465.077C276.09 465.441 277.214 465.805 278.354 465.937C281.916 466.358 285.238 464.185 286.155 460.92C286.725 458.887 286.444 456.903 285.75 454.945C285.296 453.655 285.725 453.069 287.072 453.102C288.122 453.126 289.047 452.788 289.833 452.102C292.254 449.978 292.923 444.986 288.907 442.82C288.428 442.564 288.031 442.25 288.048 441.655C288.064 441.068 288.461 440.771 288.948 440.514C293.51 438.101 293.931 431.142 289.651 428.233C288.783 427.646 287.733 427.299 286.734 426.935C285.841 426.605 285.544 426.109 285.882 425.225C285.998 424.919 286.139 424.621 286.246 424.315C287.659 420.249 286.114 414.794 280.387 414.365C278.362 414.208 278.362 414.166 278.329 412.125C278.28 409.505 276.47 407.48 273.949 407.406C273.09 407.381 272.198 407.621 271.363 407.877C270.222 408.216 269.884 408.125 269.346 407.083C268.553 405.546 267.371 404.43 265.702 403.901C263.165 403.1 260.595 404.356 260.339 406.72C260.124 408.72 260.298 410.761 260.298 412.86C261.612 412.86 262.892 412.827 264.165 412.877C264.752 412.902 265.058 412.72 265.339 412.191C266.091 410.778 267.76 410.092 269.28 410.464C270.801 410.836 271.933 412.125 272.041 413.621C272.164 415.299 271.313 416.704 269.826 417.307C268.338 417.91 266.471 417.571 265.702 416.216C265.066 415.1 264.289 415.034 263.264 415.092C262.446 415.142 261.628 415.092 260.81 415.109C260.636 415.109 260.463 415.15 260.289 415.175V426.134C260.554 426.134 260.777 426.134 261.008 426.134C262.81 426.134 264.611 426.051 266.405 426.159C268.041 426.249 269.346 425.464 270.76 424.96C270.429 421.58 271.834 419.191 274.561 418.431C277.114 417.72 279.784 418.894 280.941 421.241C282.106 423.588 281.395 426.44 279.271 427.993C276.933 429.696 274.247 429.349 271.751 426.985C271.032 427.266 270.272 427.514 269.561 427.853C268.652 428.283 267.71 428.415 266.71 428.398C264.818 428.357 262.926 428.39 261.033 428.39H260.289V434.952C260.455 434.969 260.587 434.985 260.719 434.985C265.859 434.985 270.991 434.985 276.131 435.002C276.586 435.002 276.701 434.803 276.834 434.423C277.751 431.721 280.511 430.192 283.23 430.853C285.75 431.464 287.527 433.762 287.419 436.275C287.312 438.961 285.354 441.101 282.635 441.49C280.197 441.845 277.718 440.3 276.85 437.894C276.776 437.68 276.701 437.465 276.635 437.275H260.256V444.043C261.769 444.043 263.173 444.11 264.57 444.027C266.942 443.886 269.223 444.126 271.338 445.267C271.66 445.44 271.859 445.366 272.107 445.093C273.082 444.027 274.321 443.465 275.743 443.374C278.585 443.184 281.155 445.349 281.436 448.143C281.734 451.077 279.759 453.705 276.949 454.127C273.974 454.573 271.255 452.688 270.76 449.779C270.636 449.035 270.743 448.259 270.743 447.457C269.214 446.837 267.76 446.126 266.008 446.258C264.339 446.382 262.645 446.283 260.967 446.283C260.744 446.283 260.521 446.308 260.306 446.316V458.044H265.801C266.859 456.044 268.305 455.267 270.148 455.689C271.726 456.052 272.875 457.515 272.883 459.151C272.892 460.796 271.776 462.259 270.198 462.664C268.38 463.135 266.917 462.358 265.785 460.317H260.265L260.273 460.3ZM281.998 432.936C280.213 432.927 278.767 434.349 278.784 436.101C278.8 437.828 280.222 439.25 281.957 439.258C283.734 439.266 285.172 437.837 285.172 436.076C285.172 434.332 283.767 432.944 281.998 432.936ZM276.09 420.448C274.321 420.431 272.9 421.803 272.883 423.555C272.859 425.299 274.255 426.737 275.999 426.778C277.776 426.82 279.222 425.398 279.238 423.613C279.255 421.853 277.875 420.464 276.098 420.448H276.09ZM276.048 451.92C277.817 451.92 279.213 450.548 279.23 448.787C279.255 447.011 277.817 445.572 276.032 445.589C274.288 445.597 272.867 447.027 272.875 448.763C272.875 450.498 274.297 451.912 276.04 451.92H276.048ZM267.933 459.176C267.933 459.92 268.52 460.515 269.256 460.532C269.999 460.548 270.636 459.912 270.627 459.151C270.627 458.424 270.016 457.813 269.297 457.796C268.537 457.788 267.925 458.399 267.933 459.176ZM268.495 412.621C267.735 412.604 267.14 413.15 267.107 413.894C267.074 414.679 267.644 415.299 268.413 415.315C269.189 415.332 269.801 414.745 269.801 413.968C269.801 413.216 269.239 412.637 268.487 412.621H268.495Z" fill="#FF8A37"/>
<path d="M281.949 434.977C281.337 434.986 280.841 435.506 280.858 436.118C280.874 436.738 281.378 437.209 281.998 437.192C282.618 437.176 283.106 436.68 283.089 436.068C283.081 435.473 282.552 434.969 281.949 434.977Z" fill="#FF8A37"/>
<path d="M241.084 433.539C240.456 430.845 238.919 428.994 236.423 427.927C236.249 427.853 236.068 427.812 235.902 427.729C235.266 427.44 234.993 426.82 235.241 426.233C235.473 425.688 236.059 425.431 236.704 425.655C239.877 426.754 241.968 428.919 243.026 432.093C243.067 432.225 243.108 432.357 243.15 432.498C243.183 432.63 243.216 432.762 243.224 432.787C244.373 432.895 245.48 432.895 246.53 433.126C250.306 433.952 253.124 437.432 253.232 441.267C253.256 442.093 252.917 442.573 252.273 442.663C251.537 442.763 251.033 442.308 250.992 441.457C250.885 439.49 250.141 437.837 248.604 436.581C245.761 434.258 241.662 434.713 239.373 437.597C238.671 438.482 238.051 438.688 237.464 438.225C236.861 437.746 236.91 437.093 237.613 436.2C238.522 435.043 239.679 434.192 241.084 433.531V433.539Z" fill="#FF8A37"/>
<path d="M247.423 452.68C244.91 452.705 242.621 451.019 241.902 448.606C241.175 446.201 242.126 443.581 244.208 442.225C244.944 441.746 245.613 441.796 245.993 442.366C246.381 442.936 246.191 443.548 245.464 444.068C243.886 445.201 243.44 447.093 244.373 448.697C245.282 450.251 247.167 450.837 248.877 450.085C249.026 450.019 249.175 449.945 249.323 449.895C249.877 449.722 250.48 449.953 250.679 450.449C250.902 451.011 250.836 451.589 250.265 451.846C249.365 452.251 248.406 452.523 247.472 452.846L247.414 452.672L247.423 452.68Z" fill="#FF8A37"/>
<path d="M241.688 415.853C242.076 416.134 242.406 416.307 242.654 416.555C243.853 417.787 244.977 417.91 246.373 416.902C246.77 416.613 247.117 416.274 247.489 415.943C249.464 414.175 252.183 413.695 254.373 414.737C255.108 415.092 255.389 415.687 255.083 416.307C254.81 416.869 254.224 417.109 253.612 416.836C251.712 415.993 250.125 416.53 248.695 417.869C247.497 418.993 246.167 419.861 244.423 419.795C242.894 419.737 241.704 419.001 240.836 417.795C240.638 417.514 240.597 416.96 240.737 416.638C240.869 416.315 241.324 416.134 241.696 415.844L241.688 415.853Z" fill="#FF8A37"/>
<path d="M254.711 425.547C254.645 428.002 252.72 429.994 250.29 430.126C249.546 430.167 248.993 429.762 248.918 429.126C248.844 428.473 249.282 428.002 250.059 427.903C251.563 427.713 252.488 426.754 252.472 425.407C252.455 424.076 251.554 423.192 250.05 423.018C249.34 422.935 248.894 422.464 248.927 421.836C248.96 421.2 249.447 420.787 250.166 420.778C252.662 420.754 254.802 422.993 254.728 425.555L254.711 425.547Z" fill="#FF8A37"/>
<path d="M281.949 434.977C282.552 434.969 283.081 435.465 283.089 436.068C283.097 436.68 282.618 437.184 281.998 437.192C281.378 437.209 280.874 436.729 280.858 436.118C280.841 435.514 281.337 434.994 281.949 434.977Z" fill="#FF8A37"/>
<path d="M277.188 423.597C277.188 424.2 276.676 424.704 276.064 424.704C275.436 424.704 274.957 424.233 274.957 423.605C274.957 422.985 275.445 422.481 276.056 422.481C276.651 422.481 277.188 423.01 277.188 423.597Z" fill="#FF8A37"/>
<path d="M276.056 447.664C276.676 447.664 277.188 448.16 277.188 448.763C277.188 449.35 276.659 449.887 276.064 449.887C275.461 449.887 274.965 449.391 274.957 448.771C274.957 448.143 275.428 447.664 276.056 447.664Z" fill="#FF8A37"/>
</g>
<path d="M325.723 428.127C324.26 428.127 322.938 427.81 321.756 427.177C320.575 426.53 319.647 425.623 318.972 424.456C318.297 423.288 317.959 421.952 317.959 420.447C317.959 418.942 318.297 417.606 318.972 416.439C319.647 415.271 320.575 414.364 321.756 413.717C322.938 413.07 324.26 412.747 325.723 412.747C327.185 412.747 328.508 413.07 329.689 413.717C330.87 414.364 331.799 415.271 332.474 416.439C333.149 417.606 333.486 418.942 333.486 420.447C333.486 421.952 333.149 423.288 332.474 424.456C331.799 425.623 330.87 426.53 329.689 427.177C328.508 427.81 327.185 428.127 325.723 428.127ZM325.723 426.186C326.763 426.186 327.706 425.954 328.55 425.489C329.408 425.011 330.083 424.343 330.575 423.485C331.067 422.613 331.313 421.601 331.313 420.447C331.313 419.308 331.067 418.309 330.575 417.451C330.097 416.579 329.436 415.911 328.592 415.447C327.748 414.969 326.806 414.73 325.765 414.73C324.71 414.73 323.754 414.962 322.896 415.426C322.052 415.89 321.377 416.558 320.87 417.43C320.378 418.302 320.132 419.308 320.132 420.447C320.132 421.601 320.378 422.613 320.87 423.485C321.363 424.343 322.031 425.011 322.875 425.489C323.733 425.954 324.682 426.186 325.723 426.186Z" fill="#FD8A42"/>
<path d="M342.857 428.127C340.846 428.127 339.327 427.613 338.3 426.586C337.273 425.546 336.76 424.118 336.76 422.304V413.063H338.912V422.388C338.912 423.64 339.264 424.589 339.967 425.236C340.67 425.869 341.633 426.186 342.857 426.186C344.067 426.186 345.023 425.869 345.726 425.236C346.43 424.589 346.781 423.64 346.781 422.388V413.063H348.933V422.304C348.933 424.104 348.42 425.525 347.393 426.565C346.366 427.606 344.854 428.127 342.857 428.127Z" fill="#FD8A42"/>
<path d="M352.631 413.063H358.559C360.134 413.063 361.344 413.443 362.188 414.203C363.032 414.962 363.453 416.073 363.453 417.536C363.453 418.619 363.165 419.54 362.588 420.3C362.012 421.045 361.196 421.551 360.141 421.819L363.39 427.81H361.154L358.01 421.987H354.783V427.81H352.631V413.063ZM358.2 420.173C359.143 420.173 359.888 419.955 360.437 419.519C360.999 419.069 361.28 418.408 361.28 417.536C361.28 416.579 361.006 415.897 360.458 415.489C359.923 415.082 359.171 414.878 358.2 414.878H354.783V420.173H358.2Z" fill="#FD8A42"/>
<path d="M318.655 439.445H323.402L330.206 454.255L337.041 439.445H341.756V461.565H337.168V449.002L331.313 461.565H329.098L323.275 449.002V461.565H318.655V439.445Z" fill="#FD8A42"/>
<path d="M346.133 439.445H350.943V457.546H361.07V461.565H346.133V439.445Z" fill="#FD8A42"/>
<path d="M364.185 439.445H373.489C375.999 439.445 378.003 440.11 379.501 441.439C380.999 442.747 381.748 444.572 381.748 446.913C381.748 449.319 380.999 451.165 379.501 452.451C378.025 453.738 376.02 454.382 373.489 454.382H368.995V461.565H364.185V439.445ZM372.792 450.363C375.514 450.363 376.875 449.213 376.875 446.913C376.875 445.627 376.506 444.73 375.767 444.224C375.05 443.717 374.058 443.464 372.792 443.464H368.995V450.363H372.792Z" fill="#FD8A42"/>
<rect width="267.806" height="126.582" rx="15" transform="matrix(-1 0 0 1 783.254 516.418)" fill="#272727"/>
<path d="M502.662 577.072V520.869C502.662 512.585 509.378 505.869 517.662 505.869H569.645" stroke="#FD8A42" stroke-width="1.5" stroke-linecap="round"/>
<g clip-path="url(#clip3_441_213)">
<path d="M569.977 549.118C571.096 549.275 572.22 549.392 573.33 549.595C579.57 550.737 584.701 553.774 588.743 558.659C588.897 558.846 589.052 559.031 589.286 559.311C589.828 558.737 590.359 558.21 590.833 557.64C590.937 557.515 590.905 557.199 590.828 557.018C590.052 555.18 590.633 553.092 592.264 551.946C593.862 550.823 596.108 551 597.496 552.416C597.883 552.81 598.203 553.313 598.414 553.821C598.591 554.248 598.812 554.337 599.223 554.332C600.903 554.314 602.584 554.324 604.267 554.324C604.484 554.324 604.702 554.324 604.953 554.324V556.397C604.747 556.397 604.533 556.397 604.32 556.397C602.578 556.397 600.837 556.407 599.094 556.389C598.734 556.385 598.573 556.499 598.441 556.841C597.582 559.069 595.112 560.094 592.951 559.113C592.608 558.958 592.417 558.99 592.175 559.253C591.735 559.727 591.281 560.194 590.799 560.625C590.489 560.902 590.517 561.116 590.721 561.444C592.595 564.454 593.805 567.714 594.318 571.223C595.073 576.389 594.352 581.346 592.129 586.073C591.717 586.949 591.242 587.802 590.733 588.625C590.486 589.024 590.557 589.233 590.862 589.538C594.968 593.625 599.063 597.721 603.156 601.821C604.757 603.426 605.403 605.324 604.707 607.529C604.06 609.572 602.61 610.784 600.522 611.241C600.387 611.27 600.257 611.315 600.125 611.353H599.031C597.214 611.116 595.937 610.012 594.705 608.766C590.903 604.92 587.059 601.115 583.248 597.277C582.89 596.917 582.639 596.842 582.184 597.128C579.519 598.808 576.619 599.925 573.53 600.504C569.004 601.351 564.538 601.035 560.181 599.523C555.907 598.038 552.269 595.591 549.265 592.201C546.244 588.794 544.255 584.868 543.323 580.416C543.112 579.408 543.021 578.376 542.871 577.356C542.839 577.139 542.79 576.923 542.748 576.708V573.547C542.785 573.393 542.845 573.243 542.855 573.087C543.122 569.335 544.137 565.791 545.991 562.528C549.981 555.509 555.964 551.188 563.89 549.591C564.936 549.381 566.003 549.274 567.06 549.118H569.977ZM592.545 574.992C592.446 561.62 581.666 550.896 568.129 551.162C555.165 551.415 544.538 562.034 544.799 575.559C545.049 588.421 555.561 599.116 569.153 598.871C582.124 598.638 592.462 588.16 592.545 574.992ZM588.904 600.001C589.023 600.124 589.157 600.272 589.299 600.413C591.816 602.931 594.334 605.45 596.855 607.967C597.069 608.181 597.292 608.39 597.529 608.578C598.911 609.672 600.908 609.487 602.074 608.165C603.333 606.737 603.204 604.813 601.727 603.33C599.185 600.777 596.632 598.236 594.089 595.687C593.935 595.531 593.823 595.333 593.711 595.181C592.064 596.833 590.512 598.392 588.906 600.003L588.904 600.001ZM584.903 595.753C585.604 596.455 586.54 597.39 587.392 598.243C588.889 596.76 590.452 595.213 591.976 593.703C591.077 592.807 590.148 591.881 589.446 591.183C587.93 592.709 586.38 594.267 584.901 595.755L584.903 595.753ZM594.619 557.407C595.749 557.405 596.671 556.502 596.691 555.377C596.71 554.257 595.739 553.274 594.612 553.274C593.469 553.274 592.543 554.227 592.559 555.384C592.574 556.523 593.475 557.408 594.619 557.405V557.407Z" fill="#FF8B37"/>
<path d="M546.914 575.063C547.024 563.016 556.495 553.311 568.667 553.301C580.828 553.29 590.437 562.988 590.452 575.079C590.466 587.124 580.659 596.859 568.686 596.815C556.688 596.771 547.034 587.235 546.912 575.063H546.914ZM585.89 565.533C585.247 566.183 584.666 566.799 584.049 567.376C583.753 567.653 583.708 567.862 583.881 568.251C584.882 570.486 583.67 573.069 581.325 573.81C580.158 574.178 579.057 574.003 577.985 573.429C575.796 575.625 573.633 577.786 571.489 579.967C571.372 580.086 571.383 580.382 571.416 580.583C571.52 581.235 571.796 581.888 571.762 582.528C571.671 584.285 570.752 585.552 569.1 586.17C567.447 586.789 565.911 586.444 564.693 585.176C563.442 583.873 563.169 582.309 563.9 580.633C564.055 580.28 563.983 580.095 563.739 579.855C562.4 578.531 561.063 577.204 559.746 575.857C559.477 575.581 559.282 575.556 558.924 575.718C557.099 576.544 554.783 575.969 553.9 574.193C553.315 573.019 552.596 572.852 551.513 572.958C550.871 573.019 550.217 572.966 549.569 572.972C549.416 572.972 549.265 573.009 549.126 573.027C548.25 581.317 552.703 589.594 560.893 593.128C568.468 596.397 577.241 594.709 583.04 588.546C589.172 582.027 589.877 572.637 585.89 565.531V565.533ZM584.763 563.784C580.887 557.996 573.214 554.141 565.047 555.706C556.424 557.36 550.798 564.163 549.502 570.894C550.683 570.894 551.855 570.909 553.026 570.876C553.168 570.873 553.364 570.638 553.432 570.47C554.317 568.274 556.727 567.228 558.887 568.12C561.021 569.001 562.013 571.497 561.039 573.635C560.873 574 560.971 574.167 561.206 574.4C562.531 575.71 563.853 577.022 565.156 578.355C565.435 578.641 565.643 578.719 566.033 578.533C567.091 578.026 568.197 578.016 569.258 578.522C569.68 578.722 569.896 578.617 570.185 578.325C571.634 576.854 573.1 575.398 574.563 573.941C575.221 573.287 575.888 572.641 576.388 572.152C576.229 571.173 575.937 570.374 576.004 569.606C576.265 566.575 579.05 564.979 581.884 566.137C582.035 566.199 582.322 566.152 582.439 566.042C583.224 565.312 583.98 564.551 584.765 563.783L584.763 563.784ZM557.307 569.888C556.161 569.881 555.256 570.757 555.233 571.898C555.21 573.058 556.125 574.009 557.273 574.021C558.398 574.032 559.373 573.058 559.365 571.932C559.356 570.812 558.432 569.894 557.307 569.888ZM567.652 584.374C568.803 584.376 569.742 583.434 569.729 582.288C569.716 581.168 568.785 580.248 567.665 580.244C566.542 580.241 565.61 581.155 565.597 582.277C565.583 583.44 566.497 584.372 567.653 584.376L567.652 584.374ZM582.158 569.875C582.16 568.731 581.275 567.828 580.137 567.815C578.979 567.8 578.029 568.726 578.027 569.868C578.027 570.996 579.006 571.966 580.128 571.948C581.251 571.93 582.157 571.005 582.158 569.875Z" fill="#FF8B37"/>
</g>
<path d="M635.026 543.865H637.094L642.98 558.612H640.786L639.309 554.941H632.79L631.356 558.612H629.14L635.026 543.865ZM638.718 553.148L636.06 546.249L633.402 553.148H638.718Z" fill="#FD8A42"/>
<path d="M646.357 543.865H648.53V558.612H646.357V543.865Z" fill="#FD8A42"/>
<path d="M666.664 543.865H668.731L674.617 558.612H672.423L670.946 554.941H664.427L662.993 558.612H660.778L666.664 543.865ZM670.356 553.148L667.697 546.249L665.039 553.148H670.356Z" fill="#FD8A42"/>
<path d="M677.995 543.021H680.126V558.612H677.995V543.021Z" fill="#FD8A42"/>
<path d="M683.932 548.485H686V549.983C687.041 548.774 688.447 548.169 690.219 548.169C691.232 548.169 692.139 548.394 692.941 548.844C693.757 549.294 694.39 549.927 694.84 550.743C695.304 551.544 695.536 552.48 695.536 553.548C695.536 554.603 695.304 555.539 694.84 556.354C694.39 557.17 693.764 557.803 692.962 558.253C692.16 558.703 691.246 558.928 690.219 558.928C689.376 558.928 688.588 558.788 687.857 558.506C687.125 558.225 686.527 557.81 686.063 557.262V563.232H683.932V548.485ZM689.734 557.24C690.423 557.24 691.042 557.093 691.591 556.797C692.153 556.488 692.589 556.052 692.899 555.489C693.222 554.927 693.384 554.28 693.384 553.548C693.384 552.817 693.222 552.177 692.899 551.629C692.589 551.066 692.153 550.637 691.591 550.342C691.042 550.032 690.423 549.878 689.734 549.878C688.876 549.878 688.117 550.103 687.456 550.553C686.809 551.003 686.345 551.622 686.063 552.409V554.688C686.302 555.461 686.759 556.08 687.435 556.544C688.11 557.008 688.876 557.24 689.734 557.24Z" fill="#FD8A42"/>
<path d="M698.915 543.021H701.045V549.878C702.016 548.738 703.31 548.169 704.927 548.169C706.278 548.169 707.283 548.527 707.944 549.245C708.605 549.962 708.936 550.925 708.936 552.135V558.612H706.805V552.346C706.805 550.7 706.017 549.878 704.442 549.878C703.767 549.878 703.134 550.039 702.543 550.363C701.967 550.672 701.467 551.15 701.045 551.797V558.612H698.915V543.021Z" fill="#FD8A42"/>
<path d="M715.939 558.928C714.716 558.928 713.731 558.619 712.986 558C712.254 557.367 711.889 556.516 711.889 555.447C711.889 554.322 712.24 553.457 712.943 552.852C713.661 552.233 714.673 551.924 715.981 551.924C717.374 551.924 718.555 552.205 719.526 552.768V552.24C719.526 551.439 719.28 550.848 718.787 550.468C718.309 550.075 717.55 549.878 716.509 549.878C715.89 549.878 715.285 549.941 714.694 550.067C714.118 550.18 713.597 550.342 713.133 550.553V548.823C713.555 548.626 714.104 548.471 714.779 548.359C715.454 548.232 716.108 548.169 716.741 548.169C718.415 548.169 719.652 548.541 720.454 549.287C721.27 550.018 721.678 551.038 721.678 552.346V558.612H719.673V557.473C719.237 557.951 718.717 558.316 718.112 558.57C717.521 558.809 716.797 558.928 715.939 558.928ZM716.467 557.304C717.142 557.304 717.754 557.17 718.302 556.903C718.851 556.636 719.258 556.263 719.526 555.785V554.413C718.611 553.823 717.592 553.527 716.467 553.527C715.651 553.527 715.039 553.689 714.631 554.013C714.237 554.322 714.04 554.8 714.04 555.447C714.04 556.685 714.849 557.304 716.467 557.304Z" fill="#FD8A42"/>
<path d="M726.347 543.548H728.457L726.79 547.662H724.955L726.347 543.548Z" fill="#FD8A42"/>
<path d="M734.822 558.928C734.119 558.928 733.373 558.837 732.586 558.654C731.798 558.485 731.179 558.253 730.729 557.958V556.143C731.278 556.467 731.91 556.734 732.628 556.945C733.345 557.142 734.041 557.24 734.716 557.24C735.476 557.24 736.031 557.149 736.383 556.966C736.735 556.783 736.91 556.488 736.91 556.08C736.91 555.771 736.826 555.525 736.657 555.342C736.503 555.145 736.228 554.969 735.835 554.814C735.455 554.66 734.878 554.477 734.105 554.266C733.275 554.027 732.614 553.788 732.121 553.548C731.643 553.295 731.278 552.979 731.024 552.599C730.785 552.219 730.666 551.727 730.666 551.122C730.666 550.152 731.045 549.42 731.805 548.928C732.579 548.422 733.612 548.169 734.906 548.169C735.581 548.169 736.242 548.232 736.889 548.359C737.536 548.485 738.057 548.661 738.451 548.886V550.658C738.043 550.419 737.536 550.229 736.932 550.089C736.341 549.948 735.736 549.878 735.117 549.878C734.372 549.878 733.802 549.969 733.408 550.152C733.015 550.335 732.818 550.658 732.818 551.122C732.818 551.418 732.902 551.657 733.071 551.84C733.24 552.022 733.507 552.184 733.872 552.325C734.252 552.451 734.85 552.62 735.666 552.831C736.946 553.183 737.832 553.598 738.324 554.076C738.83 554.554 739.083 555.215 739.083 556.059C739.083 556.931 738.725 557.627 738.008 558.148C737.29 558.668 736.228 558.928 734.822 558.928Z" fill="#FD8A42"/>
<path d="M633.273 572.764H628.539V569.816H641.535V572.764H636.801V586.038H633.273V572.764Z" fill="#FD8A42"/>
<path d="M644.141 569.816H651.173C653.014 569.816 654.445 570.281 655.466 571.209C656.502 572.122 657.021 573.444 657.021 575.177C657.021 576.384 656.742 577.413 656.185 578.264C655.628 579.099 654.839 579.71 653.818 580.097L656.905 586.038H653.284L650.43 580.538H647.668V586.038H644.141V569.816ZM650.546 577.591C651.443 577.591 652.147 577.397 652.658 577.011C653.184 576.624 653.447 576.013 653.447 575.177C653.447 574.295 653.192 573.676 652.681 573.321C652.17 572.949 651.459 572.764 650.546 572.764H647.668V577.591H650.546Z" fill="#FD8A42"/>
<path d="M665.031 569.816H668.489L674.964 586.038H671.367L669.974 582.511H663.546L662.154 586.038H658.533L665.031 569.816ZM669.046 579.702L666.748 573.529L664.451 579.702H669.046Z" fill="#FD8A42"/>
<path d="M677.979 569.816H683.618C685.382 569.816 686.921 570.141 688.236 570.791C689.551 571.441 690.564 572.369 691.276 573.576C691.988 574.783 692.344 576.206 692.344 577.846C692.344 580.538 691.555 582.58 689.976 583.973C688.414 585.349 686.232 586.038 683.432 586.038H677.979V569.816ZM683.618 583.091C685.273 583.091 686.542 582.627 687.424 581.698C688.306 580.77 688.747 579.486 688.747 577.846C688.747 576.871 688.553 575.997 688.166 575.224C687.78 574.45 687.215 573.847 686.472 573.413C685.73 572.98 684.856 572.764 683.85 572.764H681.506V583.091H683.618Z" fill="#FD8A42"/>
<path d="M695.351 569.816H698.878V586.038H695.351V569.816Z" fill="#FD8A42"/>
<path d="M702.366 569.816H705.8L712.577 580.306V569.816H716.104V586.038H712.693L705.893 575.548V586.038H702.366V569.816Z" fill="#FD8A42"/>
<path d="M727.887 586.386C726.155 586.386 724.623 586.046 723.292 585.365C721.962 584.669 720.933 583.686 720.206 582.418C719.479 581.149 719.115 579.656 719.115 577.939C719.115 576.221 719.479 574.729 720.206 573.46C720.933 572.176 721.962 571.193 723.292 570.513C724.623 569.816 726.155 569.468 727.887 569.468C729.063 569.468 730.1 569.592 730.997 569.84C731.91 570.072 732.745 570.443 733.503 570.954V574.319C732.823 573.762 732.041 573.359 731.16 573.112C730.293 572.849 729.303 572.717 728.189 572.717C727.152 572.717 726.216 572.934 725.381 573.367C724.561 573.785 723.911 574.388 723.432 575.177C722.952 575.966 722.712 576.887 722.712 577.939C722.712 579.006 722.929 579.942 723.362 580.747C723.811 581.536 724.437 582.147 725.242 582.58C726.046 583.013 726.975 583.23 728.027 583.23C728.986 583.23 729.821 583.06 730.533 582.719V579.586H727.911V576.987H733.944V584.808C732.413 585.86 730.394 586.386 727.887 586.386Z" fill="#FD8A42"/>
<path d="M635.431 597.243H638.889L645.364 613.464H641.767L640.375 609.937H633.946L632.554 613.464H628.934L635.431 597.243ZM639.446 607.129L637.149 600.956L634.851 607.129H639.446Z" fill="#FD8A42"/>
<path d="M648.379 597.243H651.813L658.59 607.732V597.243H662.117V613.464H658.706L651.906 602.975V613.464H648.379V597.243Z" fill="#FD8A42"/>
<path d="M671.626 597.243H675.084L681.559 613.464H677.962L676.569 609.937H670.141L668.748 613.464H665.128L671.626 597.243ZM675.641 607.129L673.343 600.956L671.046 607.129H675.641Z" fill="#FD8A42"/>
<path d="M684.573 597.243H688.101V610.517H695.527V613.464H684.573V597.243Z" fill="#FD8A42"/>
<path d="M700.669 607.291L694.728 597.243H698.487L702.409 603.996L706.471 597.243H710.207L704.127 607.291V613.464H700.669V607.291Z" fill="#FD8A42"/>
<path d="M716.599 613.812C715.609 613.812 714.626 613.719 713.652 613.534C712.677 613.348 711.88 613.101 711.261 612.791V609.681C712.081 610.084 712.932 610.385 713.814 610.586C714.696 610.788 715.539 610.888 716.344 610.888C717.241 610.888 717.922 610.733 718.386 610.424C718.85 610.115 719.082 609.681 719.082 609.124C719.082 608.722 718.966 608.382 718.734 608.103C718.502 607.825 718.162 607.577 717.713 607.361C717.28 607.129 716.607 606.827 715.694 606.456C714.178 605.837 713.079 605.148 712.399 604.39C711.718 603.617 711.378 602.665 711.378 601.536C711.378 600.623 711.625 599.819 712.12 599.122C712.615 598.411 713.311 597.861 714.209 597.475C715.106 597.088 716.143 596.894 717.318 596.894C718.278 596.894 719.129 596.972 719.871 597.127C720.614 597.281 721.341 597.521 722.053 597.846V600.863C720.691 600.182 719.33 599.842 717.968 599.842C717.102 599.842 716.421 599.996 715.926 600.306C715.431 600.6 715.183 601.025 715.183 601.582C715.183 601.984 715.299 602.317 715.532 602.58C715.764 602.843 716.089 603.075 716.506 603.276C716.924 603.477 717.605 603.771 718.548 604.158C719.647 604.622 720.506 605.071 721.124 605.504C721.743 605.922 722.2 606.425 722.494 607.013C722.788 607.585 722.934 608.297 722.934 609.148C722.934 610.617 722.401 611.762 721.333 612.582C720.281 613.402 718.703 613.812 716.599 613.812Z" fill="#FD8A42"/>
<path d="M725.97 597.243H729.498V613.464H725.97V597.243Z" fill="#FD8A42"/>
<path d="M737.859 613.812C736.869 613.812 735.886 613.719 734.912 613.534C733.937 613.348 733.14 613.101 732.521 612.791V609.681C733.341 610.084 734.192 610.385 735.074 610.586C735.956 610.788 736.799 610.888 737.604 610.888C738.501 610.888 739.182 610.733 739.646 610.424C740.11 610.115 740.342 609.681 740.342 609.124C740.342 608.722 740.226 608.382 739.994 608.103C739.762 607.825 739.421 607.577 738.973 607.361C738.54 607.129 737.867 606.827 736.954 606.456C735.438 605.837 734.339 605.148 733.658 604.39C732.978 603.617 732.637 602.665 732.637 601.536C732.637 600.623 732.885 599.819 733.38 599.122C733.875 598.411 734.571 597.861 735.469 597.475C736.366 597.088 737.402 596.894 738.578 596.894C739.537 596.894 740.388 596.972 741.131 597.127C741.874 597.281 742.601 597.521 743.312 597.846V600.863C741.951 600.182 740.59 599.842 739.228 599.842C738.362 599.842 737.681 599.996 737.186 600.306C736.691 600.6 736.443 601.025 736.443 601.582C736.443 601.984 736.559 602.317 736.791 602.58C737.023 602.843 737.348 603.075 737.766 603.276C738.184 603.477 738.864 603.771 739.808 604.158C740.907 604.622 741.765 605.071 742.384 605.504C743.003 605.922 743.459 606.425 743.753 607.013C744.047 607.585 744.194 608.297 744.194 609.148C744.194 610.617 743.661 611.762 742.593 612.582C741.541 613.402 739.963 613.812 737.859 613.812Z" fill="#FD8A42"/>
<defs>
<clipPath id="clip0_441_213">
<rect width="73.8397" height="75.9494" fill="white" transform="translate(611.312 184.139)"/>
</clipPath>
<clipPath id="clip1_441_213">
<rect width="80.1688" height="80.1688" fill="white" transform="translate(909.836 400.384)"/>
</clipPath>
<clipPath id="clip2_441_213">
<rect width="71.73" height="71.73" fill="white" transform="translate(223.127 401.439)"/>
</clipPath>
<clipPath id="clip3_441_213">
<rect width="62.2363" height="62.2363" fill="white" transform="translate(542.748 549.118)"/>
</clipPath>
</defs>
</svg>
