<svg width="1299" height="927" viewBox="0 0 1299 927" fill="none" xmlns="http://www.w3.org/2000/svg">
<rect width="1299" height="927" fill="#171717"/>
<path d="M642.432 470.726L642.432 246.042" stroke="#C2C2C2" stroke-width="1.5" stroke-dasharray="8 8"/>
<path d="M637.666 423.565L636.629 422.445L642.431 416.181L648.232 422.445L647.195 423.565L642.431 418.421L637.666 423.565Z" fill="#C2C2C2"/>
<path d="M637.666 375.932L636.629 374.813L642.431 368.549L648.232 374.813L647.195 375.932L642.431 370.788L637.666 375.932Z" fill="#C2C2C2"/>
<path d="M637.666 316.717L636.629 315.597L642.431 309.333L648.232 315.597L647.195 316.717L642.431 311.573L637.666 316.717Z" fill="#C2C2C2"/>
<path d="M936.73 401.633L742.047 401.633C725.478 401.633 712.047 388.202 712.047 371.633L712.047 215.979" stroke="#C2C2C2" stroke-width="1.5" stroke-dasharray="8 8"/>
<path d="M867.638 396.869L866.518 395.831L860.254 401.633L866.518 407.435L867.638 406.398L862.494 401.633L867.638 396.869Z" fill="#C2C2C2"/>
<path d="M776.03 396.869L774.911 395.831L768.646 401.633L774.911 407.435L776.03 406.398L770.886 401.633L776.03 396.869Z" fill="#C2C2C2"/>
<path d="M716.81 357.692L717.848 356.572L712.046 350.308L706.244 356.572L707.282 357.692L712.046 352.548L716.81 357.692Z" fill="#C2C2C2"/>
<path d="M716.81 285.072L717.848 283.952L712.046 277.688L706.244 283.952L707.282 285.072L712.046 279.928L716.81 285.072Z" fill="#C2C2C2"/>
<path d="M351.291 401.633L545.975 401.633C562.543 401.633 575.975 388.201 575.975 371.633L575.975 215.979" stroke="#C2C2C2" stroke-width="1.5" stroke-dasharray="8 8"/>
<path d="M420.384 396.869L421.504 395.831L427.768 401.633L421.504 407.435L420.384 406.397L425.528 401.633L420.384 396.869Z" fill="#C2C2C2"/>
<path d="M511.991 396.869L513.111 395.831L519.375 401.633L513.111 407.435L511.991 406.397L517.135 401.633L511.991 396.869Z" fill="#C2C2C2"/>
<path d="M571.211 357.692L570.174 356.572L575.976 350.308L581.777 356.572L580.74 357.692L575.976 352.548L571.211 357.692Z" fill="#C2C2C2"/>
<path d="M571.211 285.072L570.174 283.952L575.976 277.688L581.777 283.952L580.74 285.072L575.976 279.928L571.211 285.072Z" fill="#C2C2C2"/>
<path d="M768.79 223.89C768.79 291.347 714.106 346.031 646.65 346.031C579.194 346.031 524.51 291.347 524.51 223.89C524.51 156.434 579.194 101.75 646.65 101.75C714.106 101.75 768.79 156.434 768.79 223.89Z" fill="#272727" stroke="#FF8B37" stroke-width="1.5"/>
<path d="M554.97 245.536H557.565L563.451 260.283H560.729L559.379 256.886H553.134L551.805 260.283H549.062L554.97 245.536ZM558.641 254.671L556.257 248.405L553.873 254.671H558.641Z" fill="white"/>
<path d="M566.609 245.536H569.289V260.283H566.609V245.536Z" fill="white"/>
<path d="M587.019 245.536H589.614L595.5 260.283H592.779L591.428 256.886H585.184L583.854 260.283H581.112L587.019 245.536ZM590.69 254.671L588.306 248.405L585.922 254.671H590.69Z" fill="white"/>
<path d="M598.659 244.692H601.317V260.283H598.659V244.692Z" fill="white"/>
<path d="M604.905 250.156H607.479V251.38C608.028 250.859 608.626 250.473 609.272 250.219C609.919 249.966 610.658 249.84 611.488 249.84C612.514 249.84 613.429 250.065 614.23 250.515C615.046 250.951 615.679 251.577 616.129 252.392C616.593 253.194 616.825 254.129 616.825 255.198C616.825 256.253 616.593 257.189 616.129 258.004C615.679 258.82 615.046 259.46 614.23 259.924C613.429 260.374 612.514 260.599 611.488 260.599C610.714 260.599 609.983 260.494 609.294 260.283C608.618 260.058 608.042 259.727 607.564 259.291V264.903H604.905V250.156ZM610.834 258.511C611.79 258.511 612.578 258.201 613.197 257.582C613.815 256.963 614.125 256.169 614.125 255.198C614.125 254.228 613.815 253.44 613.197 252.835C612.578 252.231 611.79 251.928 610.834 251.928C610.074 251.928 609.399 252.132 608.808 252.54C608.218 252.948 607.803 253.497 607.564 254.186V256.232C607.789 256.921 608.197 257.477 608.787 257.899C609.392 258.307 610.074 258.511 610.834 258.511Z" fill="white"/>
<path d="M619.991 244.692H622.649V251.443C623.605 250.374 624.843 249.84 626.362 249.84C627.726 249.84 628.746 250.212 629.421 250.958C630.096 251.689 630.434 252.667 630.434 253.89V260.283H627.775V254.143C627.775 252.667 627.086 251.928 625.708 251.928C625.103 251.928 624.534 252.076 623.999 252.371C623.465 252.653 623.015 253.082 622.649 253.658V260.283H619.991V244.692Z" fill="white"/>
<path d="M637.326 260.599C636.117 260.599 635.125 260.283 634.351 259.65C633.578 259.003 633.191 258.138 633.191 257.055C633.191 255.93 633.557 255.051 634.288 254.418C635.02 253.785 636.046 253.468 637.368 253.468C638.648 253.468 639.752 253.729 640.681 254.249V253.975C640.681 253.257 640.456 252.737 640.005 252.414C639.569 252.09 638.859 251.928 637.875 251.928C637.256 251.928 636.644 251.992 636.039 252.118C635.434 252.231 634.9 252.392 634.436 252.603V250.515C634.858 250.318 635.42 250.156 636.124 250.03C636.841 249.903 637.53 249.84 638.191 249.84C639.949 249.84 641.25 250.219 642.094 250.979C642.938 251.724 643.36 252.765 643.36 254.101V260.283H640.849V259.291C640.413 259.713 639.914 260.037 639.351 260.262C638.803 260.487 638.128 260.599 637.326 260.599ZM637.98 258.658C638.571 258.658 639.105 258.546 639.583 258.321C640.062 258.082 640.427 257.758 640.681 257.35V256.232C639.907 255.684 639.021 255.409 638.022 255.409C636.602 255.409 635.892 255.958 635.892 257.055C635.892 257.589 636.067 257.99 636.419 258.257C636.785 258.525 637.305 258.658 637.98 258.658Z" fill="white"/>
<path d="M659.109 247.751H654.657V245.536H666.24V247.751H661.788V260.283H659.109V247.751Z" fill="white"/>
<path d="M667.393 250.156H669.967V251.781C670.375 251.232 670.951 250.824 671.697 250.557C672.456 250.29 673.321 250.156 674.292 250.156V252.181C673.265 252.181 672.372 252.343 671.612 252.667C670.867 252.976 670.347 253.468 670.051 254.143V260.283H667.393V250.156Z" fill="white"/>
<path d="M679.805 260.599C678.595 260.599 677.603 260.283 676.83 259.65C676.056 259.003 675.67 258.138 675.67 257.055C675.67 255.93 676.035 255.051 676.767 254.418C677.498 253.785 678.525 253.468 679.847 253.468C681.127 253.468 682.231 253.729 683.159 254.249V253.975C683.159 253.257 682.934 252.737 682.484 252.414C682.048 252.09 681.338 251.928 680.353 251.928C679.734 251.928 679.122 251.992 678.518 252.118C677.913 252.231 677.378 252.392 676.914 252.603V250.515C677.336 250.318 677.899 250.156 678.602 250.03C679.319 249.903 680.008 249.84 680.669 249.84C682.428 249.84 683.729 250.219 684.572 250.979C685.416 251.724 685.838 252.765 685.838 254.101V260.283H683.328V259.291C682.892 259.713 682.392 260.037 681.83 260.262C681.281 260.487 680.606 260.599 679.805 260.599ZM680.459 258.658C681.049 258.658 681.584 258.546 682.062 258.321C682.54 258.082 682.906 257.758 683.159 257.35V256.232C682.385 255.684 681.499 255.409 680.501 255.409C679.08 255.409 678.37 255.958 678.37 257.055C678.37 257.589 678.546 257.99 678.897 258.257C679.263 258.525 679.783 258.658 680.459 258.658Z" fill="white"/>
<path d="M694.238 260.599C693.211 260.599 692.29 260.381 691.474 259.945C690.673 259.495 690.04 258.869 689.576 258.068C689.126 257.252 688.9 256.309 688.9 255.241C688.9 254.186 689.126 253.25 689.576 252.435C690.04 251.619 690.673 250.986 691.474 250.536C692.29 250.072 693.211 249.84 694.238 249.84C695.898 249.84 697.206 250.276 698.162 251.148V244.692H700.82V260.283H698.246V259.101C697.67 259.636 697.072 260.023 696.453 260.262C695.834 260.487 695.096 260.599 694.238 260.599ZM694.892 258.511C695.652 258.511 696.327 258.307 696.917 257.899C697.508 257.491 697.923 256.942 698.162 256.253V254.207C697.937 253.518 697.522 252.969 696.917 252.561C696.327 252.139 695.652 251.928 694.892 251.928C693.936 251.928 693.148 252.238 692.529 252.857C691.91 253.475 691.601 254.27 691.601 255.241C691.601 256.211 691.91 256.999 692.529 257.603C693.148 258.208 693.936 258.511 694.892 258.511Z" fill="white"/>
<path d="M705.906 248.384C705.484 248.384 705.125 248.243 704.83 247.962C704.548 247.681 704.408 247.329 704.408 246.907C704.408 246.485 704.548 246.134 704.83 245.852C705.125 245.557 705.484 245.409 705.906 245.409C706.327 245.409 706.686 245.557 706.981 245.852C707.277 246.134 707.425 246.485 707.425 246.907C707.425 247.329 707.277 247.681 706.981 247.962C706.686 248.243 706.327 248.384 705.906 248.384ZM704.555 250.156H707.256V260.283H704.555V250.156Z" fill="white"/>
<path d="M711.005 250.156H713.578V251.527C714.057 250.951 714.626 250.529 715.287 250.262C715.948 249.98 716.645 249.84 717.376 249.84C718.74 249.84 719.76 250.212 720.435 250.958C721.11 251.689 721.448 252.667 721.448 253.89V260.283H718.789V254.143C718.789 252.667 718.1 251.928 716.722 251.928C716.117 251.928 715.547 252.076 715.013 252.371C714.479 252.653 714.029 253.082 713.663 253.658V260.283H711.005V250.156Z" fill="white"/>
<path d="M730.295 265.135C729.62 265.135 728.944 265.072 728.269 264.945C727.594 264.819 727.032 264.65 726.582 264.439V262.329C727.679 262.807 728.916 263.046 730.295 263.046C731.532 263.046 732.418 262.786 732.953 262.266C733.501 261.745 733.776 260.972 733.776 259.945V259.291C733.298 259.727 732.728 260.058 732.067 260.283C731.406 260.494 730.696 260.599 729.936 260.599C728.909 260.599 727.981 260.374 727.151 259.924C726.321 259.46 725.674 258.82 725.21 258.004C724.746 257.189 724.514 256.253 724.514 255.198C724.514 254.129 724.739 253.194 725.189 252.392C725.653 251.577 726.286 250.951 727.088 250.515C727.904 250.065 728.825 249.84 729.852 249.84C730.71 249.84 731.448 249.959 732.067 250.198C732.686 250.423 733.283 250.803 733.86 251.338V250.156H736.434V259.671C736.434 261.415 735.928 262.758 734.915 263.7C733.916 264.657 732.376 265.135 730.295 265.135ZM730.506 258.511C731.265 258.511 731.94 258.307 732.531 257.899C733.136 257.477 733.551 256.921 733.776 256.232V254.186C733.537 253.497 733.122 252.948 732.531 252.54C731.94 252.132 731.265 251.928 730.506 251.928C729.549 251.928 728.762 252.231 728.143 252.835C727.524 253.44 727.215 254.228 727.215 255.198C727.215 256.169 727.524 256.963 728.143 257.582C728.762 258.201 729.549 258.511 730.506 258.511Z" fill="white"/>
<path d="M592.399 283.806C591.527 283.806 590.662 283.722 589.804 283.553C588.96 283.398 588.264 283.187 587.715 282.92V280.62C588.418 280.958 589.157 281.211 589.93 281.38C590.704 281.549 591.463 281.633 592.209 281.633C593.151 281.633 593.868 281.457 594.361 281.106C594.853 280.754 595.099 280.269 595.099 279.65C595.099 279.214 594.986 278.855 594.761 278.574C594.536 278.279 594.206 278.025 593.77 277.814C593.334 277.589 592.666 277.301 591.766 276.949C590.387 276.387 589.389 275.761 588.77 275.072C588.151 274.383 587.842 273.525 587.842 272.498C587.842 271.696 588.06 270.986 588.496 270.367C588.932 269.748 589.543 269.27 590.331 268.933C591.119 268.595 592.026 268.426 593.053 268.426C593.896 268.426 594.642 268.497 595.289 268.637C595.95 268.764 596.597 268.968 597.23 269.249V271.485C596.006 270.895 594.768 270.599 593.517 270.599C592.617 270.599 591.92 270.768 591.428 271.106C590.936 271.429 590.69 271.893 590.69 272.498C590.69 272.934 590.802 273.293 591.027 273.574C591.252 273.841 591.548 274.073 591.913 274.27C592.293 274.453 592.968 274.748 593.939 275.156C594.923 275.564 595.697 275.965 596.259 276.359C596.836 276.752 597.265 277.217 597.546 277.751C597.842 278.271 597.989 278.911 597.989 279.671C597.989 280.979 597.518 281.999 596.576 282.73C595.633 283.447 594.241 283.806 592.399 283.806Z" fill="white"/>
<path d="M604.492 283.806C603.381 283.806 602.537 283.497 601.96 282.878C601.384 282.259 601.095 281.387 601.095 280.262V275.388H599.576V273.363H601.095V270.325H603.754V273.363H606.18V275.388H603.754V279.924C603.754 280.571 603.873 281.035 604.112 281.316C604.351 281.584 604.787 281.717 605.42 281.717C605.856 281.717 606.285 281.619 606.707 281.422V283.447C606.102 283.686 605.364 283.806 604.492 283.806Z" fill="white"/>
<path d="M609.654 273.363H612.228V274.987C612.636 274.439 613.213 274.031 613.958 273.764C614.718 273.497 615.583 273.363 616.553 273.363V275.388C615.526 275.388 614.633 275.55 613.874 275.873C613.128 276.183 612.608 276.675 612.313 277.35V283.489H609.654V273.363Z" fill="white"/>
<path d="M622.066 283.806C620.856 283.806 619.865 283.489 619.091 282.857C618.318 282.21 617.931 281.345 617.931 280.262C617.931 279.136 618.296 278.257 619.028 277.625C619.759 276.992 620.786 276.675 622.108 276.675C623.388 276.675 624.492 276.935 625.42 277.456V277.181C625.42 276.464 625.195 275.944 624.745 275.62C624.309 275.297 623.599 275.135 622.614 275.135C621.995 275.135 621.384 275.198 620.779 275.325C620.174 275.437 619.64 275.599 619.175 275.81V273.722C619.597 273.525 620.16 273.363 620.863 273.236C621.581 273.11 622.27 273.046 622.931 273.046C624.689 273.046 625.99 273.426 626.834 274.186C627.678 274.931 628.1 275.972 628.1 277.308V283.489H625.589V282.498C625.153 282.92 624.654 283.243 624.091 283.468C623.543 283.693 622.867 283.806 622.066 283.806ZM622.72 281.865C623.311 281.865 623.845 281.752 624.323 281.527C624.801 281.288 625.167 280.965 625.42 280.557V279.439C624.647 278.89 623.761 278.616 622.762 278.616C621.341 278.616 620.631 279.165 620.631 280.262C620.631 280.796 620.807 281.197 621.159 281.464C621.524 281.731 622.045 281.865 622.72 281.865Z" fill="white"/>
<path d="M635.12 283.806C634.009 283.806 633.165 283.497 632.588 282.878C632.011 282.259 631.723 281.387 631.723 280.262V275.388H630.204V273.363H631.723V270.325H634.381V273.363H636.808V275.388H634.381V279.924C634.381 280.571 634.501 281.035 634.74 281.316C634.979 281.584 635.415 281.717 636.048 281.717C636.484 281.717 636.913 281.619 637.335 281.422V283.447C636.73 283.686 635.992 283.806 635.12 283.806Z" fill="white"/>
<path d="M645.978 283.806C644.094 283.806 642.603 283.335 641.506 282.392C640.409 281.45 639.86 280.135 639.86 278.447C639.86 276.788 640.345 275.473 641.316 274.502C642.286 273.532 643.672 273.046 645.472 273.046C646.653 273.046 647.659 273.271 648.489 273.722C649.333 274.172 649.966 274.79 650.388 275.578C650.81 276.352 651.02 277.238 651.02 278.236V279.46H642.392C642.575 280.965 643.883 281.717 646.316 281.717C646.963 281.717 647.624 281.661 648.299 281.549C648.974 281.436 649.565 281.281 650.071 281.084V283.131C649.593 283.328 648.974 283.489 648.215 283.616C647.469 283.743 646.724 283.806 645.978 283.806ZM648.51 277.646C648.482 276.844 648.193 276.225 647.645 275.789C647.111 275.353 646.372 275.135 645.43 275.135C644.502 275.135 643.77 275.36 643.236 275.81C642.701 276.26 642.42 276.872 642.392 277.646H648.51Z" fill="white"/>
<path d="M659.552 288.342C658.877 288.342 658.201 288.279 657.526 288.152C656.851 288.025 656.289 287.857 655.839 287.646V285.536C656.936 286.014 658.173 286.253 659.552 286.253C660.789 286.253 661.675 285.993 662.21 285.473C662.758 284.952 663.033 284.179 663.033 283.152V282.498C662.554 282.934 661.985 283.264 661.324 283.489C660.663 283.7 659.952 283.806 659.193 283.806C658.166 283.806 657.238 283.581 656.408 283.131C655.578 282.667 654.931 282.027 654.467 281.211C654.003 280.395 653.771 279.46 653.771 278.405C653.771 277.336 653.996 276.401 654.446 275.599C654.91 274.783 655.543 274.158 656.345 273.722C657.161 273.271 658.082 273.046 659.109 273.046C659.967 273.046 660.705 273.166 661.324 273.405C661.943 273.63 662.54 274.01 663.117 274.544V273.363H665.691V282.878C665.691 284.622 665.185 285.965 664.172 286.907C663.173 287.864 661.633 288.342 659.552 288.342ZM659.763 281.717C660.522 281.717 661.197 281.513 661.788 281.106C662.393 280.684 662.808 280.128 663.033 279.439V277.392C662.794 276.703 662.379 276.155 661.788 275.747C661.197 275.339 660.522 275.135 659.763 275.135C658.806 275.135 658.019 275.437 657.4 276.042C656.781 276.647 656.471 277.435 656.471 278.405C656.471 279.376 656.781 280.17 657.4 280.789C658.019 281.408 658.806 281.717 659.763 281.717Z" fill="white"/>
<path d="M670.776 271.591C670.354 271.591 669.995 271.45 669.7 271.169C669.419 270.888 669.278 270.536 669.278 270.114C669.278 269.692 669.419 269.34 669.7 269.059C669.995 268.764 670.354 268.616 670.776 268.616C671.198 268.616 671.557 268.764 671.852 269.059C672.147 269.34 672.295 269.692 672.295 270.114C672.295 270.536 672.147 270.888 671.852 271.169C671.557 271.45 671.198 271.591 670.776 271.591ZM669.426 273.363H672.126V283.489H669.426V273.363Z" fill="white"/>
<path d="M681.571 283.806C679.687 283.806 678.196 283.335 677.099 282.392C676.002 281.45 675.453 280.135 675.453 278.447C675.453 276.788 675.938 275.473 676.909 274.502C677.879 273.532 679.265 273.046 681.065 273.046C682.246 273.046 683.252 273.271 684.082 273.722C684.926 274.172 685.559 274.79 685.981 275.578C686.403 276.352 686.614 277.238 686.614 278.236V279.46H677.985C678.168 280.965 679.476 281.717 681.909 281.717C682.556 281.717 683.217 281.661 683.892 281.549C684.567 281.436 685.158 281.281 685.664 281.084V283.131C685.186 283.328 684.567 283.489 683.808 283.616C683.062 283.743 682.317 283.806 681.571 283.806ZM684.103 277.646C684.075 276.844 683.786 276.225 683.238 275.789C682.704 275.353 681.965 275.135 681.023 275.135C680.095 275.135 679.363 275.36 678.829 275.81C678.294 276.26 678.013 276.872 677.985 277.646H684.103Z" fill="white"/>
<path d="M693.731 283.806C693 283.806 692.219 283.722 691.389 283.553C690.56 283.384 689.913 283.152 689.448 282.857V280.599C689.997 280.937 690.651 281.211 691.41 281.422C692.17 281.619 692.887 281.717 693.562 281.717C694.237 281.717 694.73 281.661 695.039 281.549C695.349 281.422 695.503 281.197 695.503 280.873C695.503 280.62 695.419 280.416 695.25 280.262C695.095 280.093 694.835 279.945 694.47 279.819C694.118 279.678 693.569 279.509 692.824 279.312C691.98 279.073 691.312 278.827 690.82 278.574C690.342 278.321 689.976 278.004 689.723 277.625C689.484 277.231 689.364 276.724 689.364 276.106C689.364 275.093 689.765 274.333 690.567 273.827C691.368 273.307 692.451 273.046 693.816 273.046C694.519 273.046 695.215 273.117 695.904 273.257C696.607 273.384 697.156 273.567 697.55 273.806V275.979C697.128 275.726 696.614 275.522 696.01 275.367C695.405 275.212 694.786 275.135 694.153 275.135C693.464 275.135 692.944 275.205 692.592 275.346C692.24 275.473 692.064 275.726 692.064 276.106C692.064 276.359 692.156 276.563 692.339 276.717C692.536 276.858 692.789 276.985 693.098 277.097C693.408 277.196 693.97 277.35 694.786 277.561C695.658 277.8 696.34 278.061 696.832 278.342C697.325 278.623 697.676 278.961 697.887 279.354C698.098 279.748 698.204 280.241 698.204 280.831C698.204 281.731 697.817 282.456 697.043 283.004C696.284 283.539 695.18 283.806 693.731 283.806Z" fill="white"/>
<g clip-path="url(#clip0_441_213)">
<path d="M611.312 174.851C611.763 173.884 612.076 172.829 612.692 171.99C614.081 170.086 616.615 169.445 618.758 170.55C619.854 171.112 620.519 170.935 621.419 170.264C626.028 166.87 630.665 163.516 635.332 160.212C636.242 159.57 636.633 158.969 636.526 157.755C636.252 154.668 638.6 152.162 641.574 152.132C644.588 152.103 647.063 154.727 646.711 157.854C646.564 159.156 646.956 159.827 647.944 160.448C648.687 160.912 649.392 161.455 650.047 162.037C651.27 163.132 652.395 163.625 654.215 163.072C655.526 162.668 657.18 163.388 659.107 163.674C663.95 159.432 669.204 154.835 674.439 150.209C674.722 149.952 674.987 149.489 674.996 149.114C675.084 144.27 675.495 143.629 679.566 142.129H680.319C680.671 142.258 681.014 142.396 681.366 142.504C684.399 143.481 685.906 146.549 684.78 149.449C683.694 152.231 680.534 153.494 677.755 152.231C677.413 152.073 677.1 151.866 676.64 151.609C672.345 155.358 668.04 159.136 663.725 162.905C663.246 163.319 662.806 163.783 662.297 164.148C660.878 165.174 660.037 166.239 660.232 168.311C660.487 171.102 657.747 173.411 654.949 173.292C652.033 173.164 649.803 170.639 650.028 167.689C650.077 167.008 650.292 166.338 650.468 165.46C648.951 164.315 647.386 163.063 645.742 161.928C645.39 161.691 644.666 161.672 644.284 161.869C642.455 162.836 640.723 162.816 638.884 161.869C638.414 161.632 637.534 161.681 637.103 161.987C632.162 165.479 627.27 169.021 622.398 172.602C622.036 172.868 621.693 173.49 621.713 173.914C621.938 177.524 620.597 179.734 617.662 180.385C614.913 180.997 612.614 179.349 611.469 175.946C611.43 175.828 611.361 175.719 611.312 175.601V174.841V174.851ZM644.314 157.292C644.265 155.763 643.003 154.598 641.467 154.668C640.038 154.737 638.874 155.94 638.874 157.371C638.874 158.87 640.126 160.103 641.643 160.083C643.179 160.064 644.373 158.811 644.324 157.282L644.314 157.292ZM657.845 168.074C657.845 166.525 656.651 165.322 655.115 165.341C653.687 165.361 652.483 166.525 652.435 167.955C652.376 169.475 653.569 170.737 655.096 170.767C656.651 170.806 657.845 169.632 657.855 168.074H657.845ZM679.967 144.803C678.45 144.803 677.247 146.016 677.266 147.565C677.276 149.124 678.47 150.278 680.035 150.238C681.513 150.199 682.608 149.094 682.638 147.594C682.667 146.046 681.493 144.813 679.967 144.803ZM619.355 175.177C619.306 173.618 618.093 172.483 616.537 172.552C615.109 172.622 613.964 173.815 613.954 175.255C613.954 176.785 615.167 177.988 616.703 177.968C618.259 177.949 619.394 176.755 619.355 175.177Z" fill="#FD8A42"/>
<path d="M611.312 216.323C612.115 216.066 612.917 215.603 613.719 215.603C636.066 215.563 658.403 215.573 680.749 215.573C681.718 215.573 683.029 215.326 682.97 216.855C682.912 218.345 681.601 218.059 680.642 218.059C662.375 218.069 644.118 218.069 625.851 218.069C621.83 218.069 617.819 218.098 613.798 218.039C612.966 218.029 612.144 217.654 611.312 217.457C611.312 217.072 611.312 216.698 611.312 216.313V216.323Z" fill="#FD8A42"/>
<path d="M668.598 188.948C668.598 181.539 668.647 174.131 668.569 166.722C668.549 164.957 669.166 164.355 670.858 164.424C673.431 164.522 676.005 164.493 678.578 164.424C680.075 164.384 680.721 164.887 680.721 166.495C680.681 181.372 680.681 196.248 680.721 211.124C680.721 212.683 680.143 213.294 678.607 213.255C676.034 213.186 673.461 213.166 670.888 213.255C669.185 213.314 668.559 212.712 668.569 210.956C668.637 203.617 668.598 196.268 668.598 188.928V188.948ZM678.04 210.631V167.018H671.132V210.631H678.04Z" fill="#FD8A42"/>
<path d="M644.538 192.588C644.538 198.734 644.499 204.88 644.568 211.025C644.587 212.643 644.069 213.344 642.405 213.284C639.774 213.196 637.132 213.225 634.49 213.284C633.081 213.314 632.426 212.801 632.426 211.302C632.455 198.823 632.455 186.344 632.426 173.855C632.426 172.483 632.964 171.872 634.314 171.882C637.073 171.901 639.842 171.921 642.601 171.882C644.088 171.862 644.558 172.553 644.548 173.973C644.509 180.178 644.529 186.393 644.529 192.598L644.538 192.588ZM642.004 210.631V174.585H635.077V210.631H642.004Z" fill="#FD8A42"/>
<path d="M626.468 198.408C626.468 202.65 626.429 206.902 626.488 211.144C626.507 212.702 625.94 213.314 624.394 213.275C621.693 213.205 618.993 213.225 616.293 213.275C614.943 213.294 614.355 212.722 614.355 211.351C614.375 202.601 614.375 193.861 614.355 185.11C614.355 183.828 614.933 183.266 616.185 183.276C618.944 183.295 621.713 183.315 624.472 183.266C625.92 183.236 626.488 183.828 626.478 185.298C626.429 189.668 626.458 194.048 626.458 198.418L626.468 198.408ZM616.997 185.9V210.562H623.944V185.9H616.997Z" fill="#FD8A42"/>
<path d="M662.611 200.342C662.611 203.893 662.542 207.444 662.64 210.986C662.689 212.762 661.994 213.334 660.302 213.275C657.729 213.186 655.155 213.215 652.572 213.265C651.183 213.294 650.488 212.831 650.498 211.302C650.537 203.883 650.537 196.475 650.498 189.056C650.498 187.557 651.124 187.034 652.543 187.054C655.243 187.103 657.944 187.103 660.644 187.054C662.112 187.024 662.64 187.675 662.62 189.125C662.562 192.864 662.601 196.603 662.601 200.342H662.611ZM660.047 210.631V189.777H653.11V210.631H660.047Z" fill="#FD8A42"/>
</g>
<rect x="852.873" y="336.232" width="267.806" height="126.58" rx="15" fill="#272727"/>
<path d="M1135.05 396.886V340.684C1135.05 332.399 1128.33 325.684 1120.05 325.684H1068.06" stroke="#FD8A42" stroke-width="1.5" stroke-linecap="round"/>
<path d="M1015.6 390.346C1014.13 390.346 1012.81 390.03 1011.63 389.397C1010.45 388.75 1009.52 387.842 1008.84 386.675C1008.17 385.508 1007.83 384.172 1007.83 382.667C1007.83 381.162 1008.17 379.826 1008.84 378.658C1009.52 377.491 1010.45 376.584 1011.63 375.937C1012.81 375.29 1014.13 374.966 1015.6 374.966C1017.06 374.966 1018.38 375.29 1019.56 375.937C1020.74 376.584 1021.67 377.491 1022.35 378.658C1023.02 379.826 1023.36 381.162 1023.36 382.667C1023.36 384.172 1023.02 385.508 1022.35 386.675C1021.67 387.842 1020.74 388.75 1019.56 389.397C1018.38 390.03 1017.06 390.346 1015.6 390.346ZM1015.6 388.405C1016.64 388.405 1017.58 388.173 1018.42 387.709C1019.28 387.231 1019.96 386.563 1020.45 385.705C1020.94 384.833 1021.19 383.82 1021.19 382.667C1021.19 381.527 1020.94 380.529 1020.45 379.671C1019.97 378.799 1019.31 378.131 1018.46 377.667C1017.62 377.188 1016.68 376.949 1015.64 376.949C1014.58 376.949 1013.63 377.181 1012.77 377.646C1011.92 378.11 1011.25 378.778 1010.74 379.65C1010.25 380.522 1010.01 381.527 1010.01 382.667C1010.01 383.82 1010.25 384.833 1010.74 385.705C1011.24 386.563 1011.9 387.231 1012.75 387.709C1013.61 388.173 1014.55 388.405 1015.6 388.405Z" fill="#FD8A42"/>
<path d="M1032.73 390.346C1030.72 390.346 1029.2 389.833 1028.17 388.806C1027.15 387.765 1026.63 386.338 1026.63 384.523V375.283H1028.79V384.608C1028.79 385.859 1029.14 386.809 1029.84 387.456C1030.54 388.089 1031.51 388.405 1032.73 388.405C1033.94 388.405 1034.9 388.089 1035.6 387.456C1036.3 386.809 1036.65 385.859 1036.65 384.608V375.283H1038.81V384.523C1038.81 386.323 1038.29 387.744 1037.27 388.785C1036.24 389.826 1034.73 390.346 1032.73 390.346Z" fill="#FD8A42"/>
<path d="M1042.5 375.283H1048.43C1050.01 375.283 1051.22 375.662 1052.06 376.422C1052.9 377.181 1053.33 378.293 1053.33 379.755C1053.33 380.838 1053.04 381.759 1052.46 382.519C1051.88 383.264 1051.07 383.771 1050.01 384.038L1053.26 390.03H1051.03L1047.88 384.207H1044.66V390.03H1042.5V375.283ZM1048.07 382.392C1049.02 382.392 1049.76 382.174 1050.31 381.738C1050.87 381.288 1051.15 380.627 1051.15 379.755C1051.15 378.799 1050.88 378.117 1050.33 377.709C1049.8 377.301 1049.04 377.097 1048.07 377.097H1044.66V382.392H1048.07Z" fill="#FD8A42"/>
<path d="M1016.76 401.665H1021.47L1030.3 423.785H1025.4L1023.5 418.975H1014.73L1012.83 423.785H1007.9L1016.76 401.665ZM1022.23 415.146L1019.1 406.728L1015.96 415.146H1022.23Z" fill="#FD8A42"/>
<path d="M1034.03 401.665H1038.84V423.785H1034.03V401.665Z" fill="#FD8A42"/>
<g clip-path="url(#clip1_441_213)">
<path d="M931.282 407.398V399.284H930.973C926.071 399.284 921.169 399.284 916.267 399.284C916.046 399.284 915.958 399.35 915.877 399.556C915.363 400.967 913.878 401.82 912.423 401.548C910.894 401.269 909.836 399.982 909.836 398.432C909.836 396.925 910.931 395.646 912.445 395.382C913.908 395.124 915.385 395.977 915.892 397.395C915.965 397.601 916.061 397.653 916.267 397.653C921.176 397.653 926.086 397.653 930.995 397.653H931.282V389.539C931.179 389.539 931.091 389.539 931.003 389.539C928.901 389.539 926.791 389.539 924.689 389.539C924.476 389.539 924.388 389.605 924.315 389.803C923.785 391.222 922.308 392.06 920.853 391.788C919.332 391.501 918.259 390.215 918.266 388.694C918.273 387.172 919.376 385.886 920.89 385.621C922.36 385.372 923.8 386.217 924.337 387.643C924.395 387.79 924.447 387.87 924.631 387.87C926.784 387.863 928.937 387.87 931.098 387.87C931.157 387.87 931.216 387.87 931.311 387.856C931.311 387.753 931.311 387.657 931.311 387.554C931.311 386.628 931.275 385.695 931.341 384.776C931.532 381.976 933.825 379.867 936.64 379.859C937.433 379.859 938.227 379.859 939.021 379.859C939.109 379.859 939.205 379.859 939.33 379.859V379.543C939.33 377.456 939.33 375.369 939.33 373.282C939.33 373.061 939.278 372.951 939.058 372.87C937.661 372.348 936.831 370.9 937.081 369.445C937.338 367.953 938.595 366.865 940.101 366.829C941.593 366.792 942.931 367.858 943.225 369.32C943.526 370.827 942.725 372.319 941.307 372.863C941.071 372.951 940.998 373.054 940.998 373.304C941.013 375.383 940.998 377.463 940.998 379.543V379.837H949.097C949.097 379.742 949.112 379.646 949.112 379.551C949.112 374.641 949.112 369.732 949.112 364.822C949.112 364.616 949.053 364.521 948.855 364.447C947.436 363.94 946.584 362.456 946.848 361C947.105 359.486 948.377 358.391 949.862 358.384C951.427 358.377 952.713 359.435 953 360.978C953.264 362.426 952.427 363.911 951.023 364.425C950.788 364.514 950.729 364.616 950.729 364.852C950.729 369.732 950.729 374.604 950.729 379.485V379.83H958.835C958.835 379.749 958.85 379.661 958.85 379.573C958.85 377.463 958.85 375.347 958.85 373.237C958.85 373.032 958.791 372.951 958.6 372.885C957.174 372.355 956.336 370.886 956.601 369.43C956.88 367.909 958.167 366.829 959.688 366.836C961.209 366.836 962.503 367.931 962.767 369.445C963.025 370.922 962.179 372.378 960.732 372.907C960.57 372.965 960.518 373.039 960.518 373.208C960.518 375.347 960.518 377.485 960.518 379.624C960.518 379.698 960.526 379.771 960.533 379.874C960.643 379.874 960.739 379.874 960.842 379.874C961.775 379.874 962.716 379.837 963.649 379.903C966.405 380.095 968.522 382.395 968.529 385.158C968.529 386.055 968.529 386.944 968.529 387.87C968.632 387.87 968.72 387.885 968.801 387.885C970.925 387.885 973.042 387.885 975.166 387.885C975.364 387.885 975.431 387.819 975.497 387.643C976.026 386.224 977.459 385.386 978.922 385.629C980.399 385.871 981.494 387.113 981.553 388.613C981.612 390.097 980.546 391.464 979.098 391.766C977.569 392.089 976.063 391.288 975.519 389.84C975.431 389.612 975.328 389.546 975.093 389.546C973.005 389.553 970.918 389.546 968.831 389.546H968.544V397.66H968.845C973.748 397.66 978.65 397.66 983.552 397.66C983.772 397.66 983.861 397.594 983.941 397.388C984.456 395.977 985.94 395.124 987.396 395.396C988.924 395.676 989.99 396.962 989.983 398.512C989.983 400.019 988.888 401.298 987.374 401.563C985.911 401.82 984.434 400.967 983.927 399.549C983.853 399.343 983.758 399.292 983.552 399.292C978.642 399.292 973.733 399.292 968.823 399.292H968.537V407.398C968.64 407.398 968.728 407.413 968.816 407.413C970.918 407.413 973.027 407.413 975.129 407.413C975.342 407.413 975.431 407.347 975.504 407.148C976.033 405.73 977.51 404.892 978.966 405.164C980.487 405.45 981.56 406.737 981.553 408.258C981.545 409.779 980.443 411.066 978.929 411.323C977.459 411.573 976.019 410.727 975.482 409.302C975.431 409.169 975.394 409.074 975.217 409.074C973.049 409.074 970.874 409.074 968.706 409.074C968.654 409.074 968.61 409.074 968.522 409.088C968.522 409.191 968.522 409.287 968.522 409.39C968.522 410.323 968.559 411.264 968.493 412.197C968.302 414.961 966.023 417.07 963.252 417.092C962.444 417.092 961.635 417.092 960.82 417.092H960.511V417.379C960.511 419.481 960.511 421.59 960.511 423.692C960.511 423.89 960.555 423.993 960.761 424.067C962.172 424.589 963.003 426.037 962.76 427.499C962.51 428.976 961.268 430.064 959.761 430.116C958.277 430.167 956.917 429.101 956.616 427.646C956.3 426.125 957.101 424.625 958.534 424.082C958.769 423.993 958.843 423.89 958.843 423.641C958.828 421.568 958.843 419.495 958.843 417.43V417.114H950.743C950.743 417.21 950.729 417.305 950.729 417.401C950.729 422.31 950.729 427.22 950.729 432.129C950.729 432.335 950.788 432.431 950.993 432.497C952.412 433.004 953.264 434.488 953 435.944C952.728 437.465 951.449 438.545 949.92 438.545C948.392 438.545 947.113 437.472 946.834 435.951C946.569 434.496 947.421 433.004 948.833 432.497C949.046 432.423 949.105 432.32 949.105 432.107C949.105 427.212 949.105 422.318 949.105 417.423V417.107H940.998C940.998 417.195 940.983 417.283 940.983 417.371C940.983 419.481 940.983 421.597 940.983 423.707C940.983 423.912 941.049 423.993 941.233 424.059C942.659 424.589 943.497 426.059 943.225 427.514C942.938 429.035 941.659 430.116 940.138 430.108C938.617 430.108 937.331 429.006 937.059 427.499C936.801 426.022 937.647 424.567 939.094 424.037C939.256 423.979 939.308 423.905 939.308 423.736C939.308 421.597 939.308 419.459 939.308 417.32C939.308 417.246 939.3 417.173 939.293 417.077C939.183 417.077 939.08 417.077 938.984 417.077C938.058 417.077 937.125 417.114 936.206 417.048C933.428 416.864 931.304 414.557 931.304 411.764C931.304 410.882 931.304 409.992 931.304 409.081C931.201 409.081 931.113 409.066 931.025 409.066C928.901 409.066 926.784 409.066 924.66 409.066C924.484 409.066 924.403 409.111 924.337 409.287C923.815 410.713 922.404 411.551 920.926 411.323C919.456 411.102 918.354 409.868 918.273 408.361C918.192 406.876 919.265 405.487 920.728 405.179C922.257 404.855 923.763 405.656 924.307 407.104C924.395 407.332 924.498 407.398 924.733 407.398C926.821 407.391 928.908 407.398 930.995 407.398H931.289H931.282ZM932.936 398.461C932.936 402.856 932.936 407.244 932.936 411.639C932.936 413.851 934.523 415.438 936.721 415.446C945.525 415.446 954.323 415.446 963.127 415.446C965.303 415.446 966.898 413.858 966.898 411.683C966.898 402.871 966.898 394.066 966.898 385.254C966.898 383.078 965.303 381.491 963.127 381.491C954.323 381.491 945.525 381.491 936.721 381.491C936.206 381.491 935.706 381.564 935.229 381.763C933.795 382.351 932.936 383.666 932.936 385.298C932.936 389.693 932.936 394.081 932.936 398.476V398.461ZM938.69 369.93C938.69 370.724 939.337 371.393 940.131 371.393C940.917 371.393 941.586 370.739 941.593 369.945C941.593 369.151 940.947 368.49 940.145 368.482C939.344 368.482 938.69 369.122 938.683 369.923L938.69 369.93ZM959.688 368.49C958.894 368.49 958.233 369.144 958.233 369.937C958.233 370.731 958.894 371.393 959.688 371.393C960.474 371.393 961.143 370.731 961.136 369.937C961.136 369.136 960.482 368.49 959.681 368.49H959.688ZM959.688 428.432C960.489 428.432 961.136 427.778 961.136 426.977C961.136 426.184 960.474 425.522 959.681 425.529C958.894 425.529 958.225 426.198 958.233 426.992C958.233 427.786 958.894 428.44 959.688 428.44V428.432ZM919.949 388.694C919.949 389.495 920.603 390.149 921.397 390.149C922.183 390.149 922.852 389.495 922.859 388.701C922.859 387.914 922.198 387.246 921.411 387.246C920.61 387.246 919.956 387.892 919.956 388.694H919.949ZM979.892 388.701C979.892 387.9 979.252 387.253 978.444 387.246C977.65 387.246 976.989 387.9 976.981 388.694C976.981 389.48 977.643 390.149 978.429 390.156C979.223 390.156 979.884 389.502 979.884 388.708L979.892 388.701ZM919.949 408.236C919.949 409.037 920.596 409.684 921.397 409.691C922.191 409.691 922.852 409.03 922.852 408.243C922.852 407.45 922.191 406.788 921.397 406.788C920.603 406.788 919.949 407.442 919.942 408.243L919.949 408.236ZM979.892 408.251C979.892 407.45 979.252 406.795 978.451 406.788C977.665 406.788 976.996 407.442 976.989 408.229C976.981 409.022 977.643 409.691 978.429 409.691C979.23 409.691 979.884 409.052 979.892 408.251ZM940.138 428.44C940.939 428.44 941.601 427.793 941.601 426.999C941.601 426.206 940.947 425.544 940.16 425.537C939.366 425.537 938.698 426.191 938.698 426.977C938.698 427.778 939.337 428.432 940.138 428.44ZM949.913 362.955C950.707 362.955 951.368 362.301 951.368 361.508C951.368 360.714 950.714 360.06 949.92 360.06C949.119 360.06 948.465 360.706 948.465 361.5C948.465 362.294 949.119 362.955 949.913 362.955ZM914.407 398.461C914.407 397.667 913.746 397.006 912.952 397.006C912.158 397.006 911.504 397.66 911.504 398.461C911.504 399.262 912.158 399.916 912.952 399.916C913.746 399.916 914.4 399.255 914.4 398.461H914.407ZM985.426 398.461C985.426 399.255 986.08 399.916 986.881 399.916C987.675 399.916 988.329 399.262 988.329 398.461C988.329 397.66 987.675 397.006 986.881 397.006C986.087 397.006 985.433 397.667 985.433 398.461H985.426ZM949.913 436.862C950.714 436.862 951.368 436.216 951.376 435.422C951.376 434.628 950.721 433.967 949.928 433.967C949.134 433.967 948.472 434.613 948.465 435.407C948.465 436.201 949.112 436.855 949.913 436.862Z" fill="#FF8A37"/>
<path d="M954.844 407.251C954.05 407.251 953.286 407.251 952.529 407.244C952.462 407.244 952.374 407.119 952.345 407.031C951.83 405.531 951.323 404.032 950.809 402.525C950.743 402.32 950.662 402.114 950.603 401.908C950.566 401.776 950.5 401.724 950.353 401.724C948.398 401.724 946.443 401.724 944.488 401.724C944.312 401.724 944.282 401.82 944.246 401.937C943.687 403.635 943.121 405.325 942.57 407.023C942.511 407.2 942.43 407.251 942.254 407.251C941.563 407.244 940.872 407.251 940.145 407.251C940.292 406.81 940.431 406.399 940.571 405.994C942.393 400.636 944.216 395.279 946.032 389.921C946.09 389.737 946.179 389.678 946.37 389.686C947.112 389.7 947.854 389.7 948.597 389.686C948.795 389.686 948.883 389.737 948.949 389.936C950.147 393.463 951.345 396.984 952.551 400.504C953.286 402.658 954.02 404.818 954.755 406.972C954.785 407.053 954.807 407.126 954.851 407.258L954.844 407.251ZM944.804 399.931H950.052C949.177 397.182 948.104 394.522 947.413 391.729C946.73 394.522 945.686 397.182 944.804 399.931Z" fill="#FF8A37"/>
<path d="M957.439 389.7H959.666V407.236H957.439V389.7Z" fill="#FF8A37"/>
</g>
<rect width="267.81" height="126.582" rx="15" transform="matrix(-1 0 0 1 445.174 332.013)" fill="#272727"/>
<path d="M163 392.667V336.464C163 328.18 169.716 321.464 178 321.464H229.983" stroke="#FD8A42" stroke-width="1.5" stroke-linecap="round"/>
<g clip-path="url(#clip2_441_213)">
<path d="M267.966 431.169H265.727C265.603 431.127 265.471 431.061 265.339 431.036C262.892 430.607 260.992 429.35 259.595 427.309C259.405 427.036 259.24 426.747 259.042 426.425C258.876 426.681 258.752 426.871 258.628 427.061C257.405 428.954 255.703 430.218 253.538 430.846C253.116 430.97 252.695 431.061 252.273 431.169H250.034C249.951 431.127 249.877 431.069 249.794 431.053C246.662 430.499 244.439 428.78 243.158 425.863C243.117 425.763 243.051 425.664 243.001 425.573C234.862 428.441 227.143 421.97 229.705 413.333C224.086 412.193 221.755 403.853 226.631 399.705C224.705 397.68 224.086 396.762 223.598 395.093C223.4 394.473 223.276 393.837 223.127 393.2V390.96C223.168 390.803 223.226 390.655 223.259 390.498C223.829 387.216 225.639 384.886 228.647 383.481C228.961 383.332 229.267 383.2 229.589 383.051C228.689 380.092 228.755 377.241 230.25 374.53C231.787 371.737 234.3 370.456 237.349 370.15C237.382 370.042 237.407 370.001 237.407 369.96C237.903 364.943 241.53 362.306 246.406 363.455C246.852 363.563 247.018 363.397 247.241 363.075C248.703 360.959 250.687 359.662 253.273 359.463C255.579 359.29 257.521 360.125 259.075 361.91C259.926 360.844 260.967 360.091 262.264 359.711C265.322 358.819 268.718 360.116 270.685 362.992C270.983 363.43 271.231 363.53 271.76 363.397C275.644 362.463 279.015 364.282 280.205 367.943C280.428 368.646 280.519 369.389 280.684 370.15C283.759 370.447 286.246 371.77 287.775 374.563C289.254 377.274 289.304 380.125 288.411 383.051C291.907 384.382 294.138 386.778 294.716 390.473C295.295 394.134 294.13 397.225 291.345 399.688C296.245 403.961 293.89 412.151 288.262 413.308C289.213 417.218 288.849 420.879 285.684 423.714C282.56 426.515 278.858 426.73 274.991 425.515C273.892 428.201 272.032 429.97 269.297 430.788C268.859 430.921 268.404 431.028 267.966 431.144V431.169ZM258.009 416.333V415.746C258.009 398.986 258.009 382.225 258.009 365.464C258.009 363.868 257.207 362.753 255.786 362.116C253.166 360.935 250.356 362.24 248.943 364.604C248.86 364.736 248.836 364.91 248.811 365.067C248.646 366.05 248.654 367.009 249.001 367.96C249.249 368.646 248.96 369.232 248.365 369.455C247.778 369.679 247.166 369.389 246.927 368.712C246.745 368.208 246.596 367.687 246.53 367.158C246.332 365.579 246.357 365.571 244.745 365.406C244.464 365.381 244.183 365.364 243.91 365.389C241.274 365.637 239.564 367.753 239.671 370.613C239.729 372.051 239.514 372.29 238.093 372.34C234.556 372.464 232.159 374.356 231.449 377.629C231.06 379.415 231.25 381.158 231.936 382.844C232.498 384.2 232.292 384.63 230.895 385.026C226.92 386.159 224.838 389.448 225.515 393.523C225.97 396.275 227.771 398.324 230.35 398.87C231.275 399.068 232.25 399.043 233.201 399.068C233.994 399.093 234.49 399.448 234.523 400.101C234.564 400.796 234.085 401.324 233.283 401.291C232.011 401.242 230.738 401.06 229.465 400.969C229.168 400.944 228.804 400.969 228.565 401.134C226.466 402.49 225.68 405.068 226.581 407.63C227.193 409.383 228.267 410.672 230.209 411.052C230.672 411.143 230.986 411.069 231.275 410.647C232.044 409.54 233.06 408.68 234.234 408.027C235.019 407.589 235.647 407.68 236.01 408.283C236.374 408.887 236.142 409.482 235.382 409.953C233.275 411.25 231.911 413.019 231.573 415.573C231.077 419.342 233.176 422.73 236.771 423.689C238.886 424.259 240.927 423.97 242.919 423.127C244.051 422.648 244.563 422.879 244.894 424.044C245.266 425.35 245.902 426.499 246.952 427.392C250.604 430.499 256.141 428.73 257.604 423.978C258.769 420.201 256.992 417.077 253.191 416.226C251.298 415.804 249.489 416.052 247.778 417.019C247.026 417.441 246.414 417.333 246.067 416.755C245.712 416.16 245.943 415.515 246.695 415.077C248.604 413.986 250.645 413.589 252.827 413.879C254.753 414.135 256.43 414.937 258 416.325L258.009 416.333ZM260.273 418.3C260.273 419.697 260.207 421.028 260.289 422.35C260.413 424.292 261.083 426.044 262.595 427.367C265.892 430.243 271.743 429.16 273.115 424.003C273.404 422.912 273.933 422.722 274.991 423.077C276.09 423.441 277.214 423.805 278.354 423.937C281.916 424.358 285.238 422.185 286.155 418.92C286.725 416.887 286.444 414.903 285.75 412.945C285.296 411.655 285.725 411.069 287.072 411.102C288.122 411.126 289.047 410.788 289.833 410.102C292.254 407.978 292.923 402.986 288.907 400.82C288.428 400.564 288.031 400.25 288.048 399.655C288.064 399.068 288.461 398.771 288.948 398.514C293.51 396.101 293.931 389.142 289.651 386.233C288.783 385.646 287.733 385.299 286.734 384.935C285.841 384.605 285.544 384.109 285.882 383.225C285.998 382.919 286.139 382.621 286.246 382.315C287.659 378.249 286.114 372.794 280.387 372.365C278.362 372.208 278.362 372.166 278.329 370.125C278.28 367.505 276.47 365.48 273.949 365.406C273.09 365.381 272.198 365.621 271.363 365.877C270.222 366.216 269.884 366.125 269.346 365.083C268.553 363.546 267.371 362.43 265.702 361.901C263.165 361.1 260.595 362.356 260.339 364.72C260.124 366.72 260.298 368.761 260.298 370.86C261.612 370.86 262.892 370.827 264.165 370.877C264.752 370.902 265.058 370.72 265.339 370.191C266.091 368.778 267.76 368.092 269.28 368.464C270.801 368.836 271.933 370.125 272.041 371.621C272.164 373.299 271.313 374.704 269.826 375.307C268.338 375.91 266.471 375.571 265.702 374.216C265.066 373.1 264.289 373.034 263.264 373.092C262.446 373.142 261.628 373.092 260.81 373.109C260.636 373.109 260.463 373.15 260.289 373.175V384.134C260.554 384.134 260.777 384.134 261.008 384.134C262.81 384.134 264.611 384.051 266.405 384.159C268.041 384.249 269.346 383.464 270.76 382.96C270.429 379.58 271.834 377.191 274.561 376.431C277.114 375.72 279.784 376.894 280.941 379.241C282.106 381.588 281.395 384.44 279.271 385.993C276.933 387.696 274.247 387.349 271.751 384.985C271.032 385.266 270.272 385.514 269.561 385.853C268.652 386.283 267.71 386.415 266.71 386.398C264.818 386.357 262.926 386.39 261.033 386.39H260.289V392.952C260.455 392.969 260.587 392.985 260.719 392.985C265.859 392.985 270.991 392.985 276.131 393.002C276.586 393.002 276.701 392.803 276.834 392.423C277.751 389.721 280.511 388.192 283.23 388.853C285.75 389.464 287.527 391.762 287.419 394.275C287.312 396.961 285.354 399.101 282.635 399.49C280.197 399.845 277.718 398.3 276.85 395.894C276.776 395.68 276.701 395.465 276.635 395.275H260.256V402.043C261.769 402.043 263.173 402.11 264.57 402.027C266.942 401.886 269.223 402.126 271.338 403.267C271.66 403.44 271.859 403.366 272.107 403.093C273.082 402.027 274.321 401.465 275.743 401.374C278.585 401.184 281.155 403.349 281.436 406.143C281.734 409.077 279.759 411.705 276.949 412.127C273.974 412.573 271.255 410.688 270.76 407.779C270.636 407.035 270.743 406.259 270.743 405.457C269.214 404.837 267.76 404.126 266.008 404.258C264.339 404.382 262.645 404.283 260.967 404.283C260.744 404.283 260.521 404.308 260.306 404.316V416.044H265.801C266.859 414.044 268.305 413.267 270.148 413.689C271.726 414.052 272.875 415.515 272.883 417.151C272.892 418.796 271.776 420.259 270.198 420.664C268.38 421.135 266.917 420.358 265.785 418.317H260.265L260.273 418.3ZM281.998 390.936C280.213 390.927 278.767 392.349 278.784 394.101C278.8 395.828 280.222 397.25 281.957 397.258C283.734 397.266 285.172 395.837 285.172 394.076C285.172 392.332 283.767 390.944 281.998 390.936ZM276.09 378.448C274.321 378.431 272.9 379.803 272.883 381.555C272.859 383.299 274.255 384.737 275.999 384.778C277.776 384.82 279.222 383.398 279.238 381.613C279.255 379.853 277.875 378.464 276.098 378.448H276.09ZM276.048 409.92C277.817 409.92 279.213 408.548 279.23 406.787C279.255 405.011 277.817 403.572 276.032 403.589C274.288 403.597 272.867 405.027 272.875 406.763C272.875 408.498 274.297 409.912 276.04 409.92H276.048ZM267.933 417.176C267.933 417.92 268.52 418.515 269.256 418.532C269.999 418.548 270.636 417.912 270.627 417.151C270.627 416.424 270.016 415.813 269.297 415.796C268.537 415.788 267.925 416.399 267.933 417.176ZM268.495 370.621C267.735 370.604 267.14 371.15 267.107 371.894C267.074 372.679 267.644 373.299 268.413 373.315C269.189 373.332 269.801 372.745 269.801 371.968C269.801 371.216 269.239 370.637 268.487 370.621H268.495Z" fill="#FF8A37"/>
<path d="M281.949 392.977C281.337 392.986 280.841 393.506 280.858 394.118C280.874 394.738 281.378 395.209 281.998 395.192C282.618 395.176 283.106 394.68 283.089 394.068C283.081 393.473 282.552 392.969 281.949 392.977Z" fill="#FF8A37"/>
<path d="M241.084 391.539C240.456 388.845 238.919 386.994 236.423 385.927C236.249 385.853 236.068 385.812 235.902 385.729C235.266 385.44 234.993 384.82 235.241 384.233C235.473 383.688 236.059 383.431 236.704 383.655C239.877 384.754 241.968 386.919 243.026 390.093C243.067 390.225 243.108 390.357 243.15 390.498C243.183 390.63 243.216 390.762 243.224 390.787C244.373 390.895 245.48 390.895 246.53 391.126C250.306 391.952 253.124 395.432 253.232 399.267C253.256 400.093 252.917 400.573 252.273 400.663C251.537 400.763 251.033 400.308 250.992 399.457C250.885 397.49 250.141 395.837 248.604 394.581C245.761 392.258 241.662 392.713 239.373 395.597C238.671 396.482 238.051 396.688 237.464 396.225C236.861 395.746 236.91 395.093 237.613 394.2C238.522 393.043 239.679 392.192 241.084 391.531V391.539Z" fill="#FF8A37"/>
<path d="M247.423 410.68C244.91 410.705 242.621 409.019 241.902 406.606C241.175 404.201 242.126 401.581 244.208 400.225C244.944 399.746 245.613 399.796 245.993 400.366C246.381 400.936 246.191 401.548 245.464 402.068C243.886 403.201 243.44 405.093 244.373 406.697C245.282 408.251 247.167 408.837 248.877 408.085C249.026 408.019 249.175 407.945 249.323 407.895C249.877 407.722 250.48 407.953 250.679 408.449C250.902 409.011 250.836 409.589 250.265 409.846C249.365 410.251 248.406 410.523 247.472 410.846L247.414 410.672L247.423 410.68Z" fill="#FF8A37"/>
<path d="M241.688 373.853C242.076 374.134 242.406 374.307 242.654 374.555C243.853 375.787 244.977 375.91 246.373 374.902C246.77 374.613 247.117 374.274 247.489 373.943C249.464 372.175 252.183 371.695 254.373 372.737C255.108 373.092 255.389 373.687 255.083 374.307C254.81 374.869 254.224 375.109 253.612 374.836C251.712 373.993 250.125 374.53 248.695 375.869C247.497 376.993 246.167 377.861 244.423 377.795C242.894 377.737 241.704 377.001 240.836 375.795C240.638 375.514 240.597 374.96 240.737 374.638C240.869 374.315 241.324 374.134 241.696 373.844L241.688 373.853Z" fill="#FF8A37"/>
<path d="M254.711 383.547C254.645 386.002 252.72 387.994 250.29 388.126C249.546 388.167 248.993 387.762 248.918 387.126C248.844 386.473 249.282 386.002 250.059 385.903C251.563 385.713 252.488 384.754 252.472 383.407C252.455 382.076 251.554 381.192 250.05 381.018C249.34 380.935 248.894 380.464 248.927 379.836C248.96 379.2 249.447 378.787 250.166 378.778C252.662 378.754 254.802 380.993 254.728 383.555L254.711 383.547Z" fill="#FF8A37"/>
<path d="M281.949 392.977C282.552 392.969 283.081 393.465 283.089 394.068C283.097 394.68 282.618 395.184 281.998 395.192C281.378 395.209 280.874 394.729 280.858 394.118C280.841 393.514 281.337 392.994 281.949 392.977Z" fill="#FF8A37"/>
<path d="M277.188 381.597C277.188 382.2 276.676 382.704 276.064 382.704C275.436 382.704 274.957 382.233 274.957 381.605C274.957 380.985 275.445 380.481 276.056 380.481C276.651 380.481 277.188 381.01 277.188 381.597Z" fill="#FF8A37"/>
<path d="M276.056 405.664C276.676 405.664 277.188 406.16 277.188 406.763C277.188 407.35 276.659 407.887 276.064 407.887C275.461 407.887 274.965 407.391 274.957 406.771C274.957 406.143 275.428 405.664 276.056 405.664Z" fill="#FF8A37"/>
</g>
<path d="M325.723 386.127C324.26 386.127 322.938 385.81 321.756 385.177C320.575 384.53 319.647 383.623 318.972 382.456C318.297 381.288 317.959 379.952 317.959 378.447C317.959 376.942 318.297 375.606 318.972 374.439C319.647 373.271 320.575 372.364 321.756 371.717C322.938 371.07 324.26 370.747 325.723 370.747C327.185 370.747 328.508 371.07 329.689 371.717C330.87 372.364 331.799 373.271 332.474 374.439C333.149 375.606 333.486 376.942 333.486 378.447C333.486 379.952 333.149 381.288 332.474 382.456C331.799 383.623 330.87 384.53 329.689 385.177C328.508 385.81 327.185 386.127 325.723 386.127ZM325.723 384.186C326.763 384.186 327.706 383.954 328.55 383.489C329.408 383.011 330.083 382.343 330.575 381.485C331.067 380.613 331.313 379.601 331.313 378.447C331.313 377.308 331.067 376.309 330.575 375.451C330.097 374.579 329.436 373.911 328.592 373.447C327.748 372.969 326.806 372.73 325.765 372.73C324.71 372.73 323.754 372.962 322.896 373.426C322.052 373.89 321.377 374.558 320.87 375.43C320.378 376.302 320.132 377.308 320.132 378.447C320.132 379.601 320.378 380.613 320.87 381.485C321.363 382.343 322.031 383.011 322.875 383.489C323.733 383.954 324.682 384.186 325.723 384.186Z" fill="#FD8A42"/>
<path d="M342.857 386.127C340.846 386.127 339.327 385.613 338.3 384.586C337.273 383.546 336.76 382.118 336.76 380.304V371.063H338.912V380.388C338.912 381.64 339.264 382.589 339.967 383.236C340.67 383.869 341.633 384.186 342.857 384.186C344.067 384.186 345.023 383.869 345.726 383.236C346.43 382.589 346.781 381.64 346.781 380.388V371.063H348.933V380.304C348.933 382.104 348.42 383.525 347.393 384.565C346.366 385.606 344.854 386.127 342.857 386.127Z" fill="#FD8A42"/>
<path d="M352.631 371.063H358.559C360.134 371.063 361.344 371.443 362.188 372.203C363.032 372.962 363.453 374.073 363.453 375.536C363.453 376.619 363.165 377.54 362.588 378.3C362.012 379.045 361.196 379.551 360.141 379.819L363.39 385.81H361.154L358.01 379.987H354.783V385.81H352.631V371.063ZM358.2 378.173C359.143 378.173 359.888 377.955 360.437 377.519C360.999 377.069 361.28 376.408 361.28 375.536C361.28 374.579 361.006 373.897 360.458 373.489C359.923 373.082 359.171 372.878 358.2 372.878H354.783V378.173H358.2Z" fill="#FD8A42"/>
<path d="M318.655 397.445H323.402L330.206 412.255L337.041 397.445H341.756V419.565H337.168V407.002L331.313 419.565H329.098L323.275 407.002V419.565H318.655V397.445Z" fill="#FD8A42"/>
<path d="M346.133 397.445H350.943V415.546H361.07V419.565H346.133V397.445Z" fill="#FD8A42"/>
<path d="M364.185 397.445H373.489C375.999 397.445 378.003 398.11 379.501 399.439C380.999 400.747 381.748 402.572 381.748 404.913C381.748 407.319 380.999 409.165 379.501 410.451C378.025 411.738 376.02 412.382 373.489 412.382H368.995V419.565H364.185V397.445ZM372.792 408.363C375.514 408.363 376.875 407.213 376.875 404.913C376.875 403.627 376.506 402.73 375.767 402.224C375.05 401.717 374.058 401.464 372.792 401.464H368.995V408.363H372.792Z" fill="#FD8A42"/>
<rect width="267.806" height="126.582" rx="15" transform="matrix(-1 0 0 1 783.254 474.418)" fill="#272727"/>
<path d="M502.662 535.072V478.869C502.662 470.585 509.378 463.869 517.662 463.869H569.645" stroke="#FD8A42" stroke-width="1.5" stroke-linecap="round"/>
<g clip-path="url(#clip3_441_213)">
<path d="M569.977 507.118C571.096 507.275 572.22 507.392 573.33 507.595C579.57 508.737 584.701 511.774 588.743 516.659C588.897 516.846 589.052 517.031 589.286 517.311C589.828 516.737 590.359 516.21 590.833 515.64C590.937 515.515 590.905 515.199 590.828 515.018C590.052 513.18 590.633 511.092 592.264 509.946C593.862 508.823 596.108 509 597.496 510.416C597.883 510.81 598.203 511.313 598.414 511.821C598.591 512.248 598.812 512.337 599.223 512.332C600.903 512.314 602.584 512.324 604.267 512.324C604.484 512.324 604.702 512.324 604.953 512.324V514.397C604.747 514.397 604.533 514.397 604.32 514.397C602.578 514.397 600.837 514.407 599.094 514.389C598.734 514.385 598.573 514.499 598.441 514.841C597.582 517.069 595.112 518.094 592.951 517.113C592.608 516.958 592.417 516.99 592.175 517.253C591.735 517.727 591.281 518.194 590.799 518.625C590.489 518.902 590.517 519.116 590.721 519.444C592.595 522.454 593.805 525.714 594.318 529.223C595.073 534.389 594.352 539.346 592.129 544.073C591.717 544.949 591.242 545.802 590.733 546.625C590.486 547.024 590.557 547.233 590.862 547.538C594.968 551.625 599.063 555.721 603.156 559.821C604.757 561.426 605.403 563.324 604.707 565.529C604.06 567.572 602.61 568.784 600.522 569.241C600.387 569.27 600.257 569.315 600.125 569.353H599.031C597.214 569.116 595.937 568.012 594.705 566.766C590.903 562.92 587.059 559.115 583.248 555.277C582.89 554.917 582.639 554.842 582.184 555.128C579.519 556.808 576.619 557.925 573.53 558.504C569.004 559.351 564.538 559.035 560.181 557.523C555.907 556.038 552.269 553.591 549.265 550.201C546.244 546.794 544.255 542.868 543.323 538.416C543.112 537.408 543.021 536.376 542.871 535.356C542.839 535.139 542.79 534.923 542.748 534.708V531.547C542.785 531.393 542.845 531.243 542.855 531.087C543.122 527.335 544.137 523.791 545.991 520.528C549.981 513.509 555.964 509.188 563.89 507.591C564.936 507.381 566.003 507.274 567.06 507.118H569.977ZM592.545 532.992C592.446 519.62 581.666 508.896 568.129 509.162C555.165 509.415 544.538 520.034 544.799 533.559C545.049 546.421 555.561 557.116 569.153 556.871C582.124 556.638 592.462 546.16 592.545 532.992ZM588.904 558.001C589.023 558.124 589.157 558.272 589.299 558.413C591.816 560.931 594.334 563.45 596.855 565.967C597.069 566.181 597.292 566.39 597.529 566.578C598.911 567.672 600.908 567.487 602.074 566.165C603.333 564.737 603.204 562.813 601.727 561.33C599.185 558.777 596.632 556.236 594.089 553.687C593.935 553.531 593.823 553.333 593.711 553.181C592.064 554.833 590.512 556.392 588.906 558.003L588.904 558.001ZM584.903 553.753C585.604 554.455 586.54 555.39 587.392 556.243C588.889 554.76 590.452 553.213 591.976 551.703C591.077 550.807 590.148 549.881 589.446 549.183C587.93 550.709 586.38 552.267 584.901 553.755L584.903 553.753ZM594.619 515.407C595.749 515.405 596.671 514.502 596.691 513.377C596.71 512.257 595.739 511.274 594.612 511.274C593.469 511.274 592.543 512.227 592.559 513.384C592.574 514.523 593.475 515.408 594.619 515.405V515.407Z" fill="#FF8B37"/>
<path d="M546.914 533.063C547.024 521.016 556.495 511.311 568.667 511.301C580.828 511.29 590.437 520.988 590.452 533.079C590.466 545.124 580.659 554.859 568.686 554.815C556.688 554.771 547.034 545.235 546.912 533.063H546.914ZM585.89 523.533C585.247 524.183 584.666 524.799 584.049 525.376C583.753 525.653 583.708 525.862 583.881 526.251C584.882 528.486 583.67 531.069 581.325 531.81C580.158 532.178 579.057 532.003 577.985 531.429C575.796 533.625 573.633 535.786 571.489 537.967C571.372 538.086 571.383 538.382 571.416 538.583C571.52 539.235 571.796 539.888 571.762 540.528C571.671 542.285 570.752 543.552 569.1 544.17C567.447 544.789 565.911 544.444 564.693 543.176C563.442 541.873 563.169 540.309 563.9 538.633C564.055 538.28 563.983 538.095 563.739 537.855C562.4 536.531 561.063 535.204 559.746 533.857C559.477 533.581 559.282 533.556 558.924 533.718C557.099 534.544 554.783 533.969 553.9 532.193C553.315 531.019 552.596 530.852 551.513 530.958C550.871 531.019 550.217 530.966 549.569 530.972C549.416 530.972 549.265 531.009 549.126 531.027C548.25 539.317 552.703 547.594 560.893 551.128C568.468 554.397 577.241 552.709 583.04 546.546C589.172 540.027 589.877 530.637 585.89 523.531V523.533ZM584.763 521.784C580.887 515.996 573.214 512.141 565.047 513.706C556.424 515.36 550.798 522.163 549.502 528.894C550.683 528.894 551.855 528.909 553.026 528.876C553.168 528.873 553.364 528.638 553.432 528.47C554.317 526.274 556.727 525.228 558.887 526.12C561.021 527.001 562.013 529.497 561.039 531.635C560.873 532 560.971 532.167 561.206 532.4C562.531 533.71 563.853 535.022 565.156 536.355C565.435 536.641 565.643 536.719 566.033 536.533C567.091 536.026 568.197 536.016 569.258 536.522C569.68 536.722 569.896 536.617 570.185 536.325C571.634 534.854 573.1 533.398 574.563 531.941C575.221 531.287 575.888 530.641 576.388 530.152C576.229 529.173 575.937 528.374 576.004 527.606C576.265 524.575 579.05 522.979 581.884 524.137C582.035 524.199 582.322 524.152 582.439 524.042C583.224 523.312 583.98 522.551 584.765 521.783L584.763 521.784ZM557.307 527.888C556.161 527.881 555.256 528.757 555.233 529.898C555.21 531.058 556.125 532.009 557.273 532.021C558.398 532.032 559.373 531.058 559.365 529.932C559.356 528.812 558.432 527.894 557.307 527.888ZM567.652 542.374C568.803 542.376 569.742 541.434 569.729 540.288C569.716 539.168 568.785 538.248 567.665 538.244C566.542 538.241 565.61 539.155 565.597 540.277C565.583 541.44 566.497 542.372 567.653 542.376L567.652 542.374ZM582.158 527.875C582.16 526.731 581.275 525.828 580.137 525.815C578.979 525.8 578.029 526.726 578.027 527.868C578.027 528.996 579.006 529.966 580.128 529.948C581.251 529.93 582.157 529.005 582.158 527.875Z" fill="#FF8B37"/>
</g>
<path d="M635.026 501.865H637.094L642.98 516.612H640.786L639.309 512.941H632.79L631.356 516.612H629.14L635.026 501.865ZM638.718 511.148L636.06 504.249L633.402 511.148H638.718Z" fill="#FD8A42"/>
<path d="M646.357 501.865H648.53V516.612H646.357V501.865Z" fill="#FD8A42"/>
<path d="M666.664 501.865H668.731L674.617 516.612H672.423L670.946 512.941H664.427L662.993 516.612H660.778L666.664 501.865ZM670.356 511.148L667.697 504.249L665.039 511.148H670.356Z" fill="#FD8A42"/>
<path d="M677.995 501.021H680.126V516.612H677.995V501.021Z" fill="#FD8A42"/>
<path d="M683.932 506.485H686V507.983C687.041 506.774 688.447 506.169 690.219 506.169C691.232 506.169 692.139 506.394 692.941 506.844C693.757 507.294 694.39 507.927 694.84 508.743C695.304 509.544 695.536 510.48 695.536 511.548C695.536 512.603 695.304 513.539 694.84 514.354C694.39 515.17 693.764 515.803 692.962 516.253C692.16 516.703 691.246 516.928 690.219 516.928C689.376 516.928 688.588 516.788 687.857 516.506C687.125 516.225 686.527 515.81 686.063 515.262V521.232H683.932V506.485ZM689.734 515.24C690.423 515.24 691.042 515.093 691.591 514.797C692.153 514.488 692.589 514.052 692.899 513.489C693.222 512.927 693.384 512.28 693.384 511.548C693.384 510.817 693.222 510.177 692.899 509.629C692.589 509.066 692.153 508.637 691.591 508.342C691.042 508.032 690.423 507.878 689.734 507.878C688.876 507.878 688.117 508.103 687.456 508.553C686.809 509.003 686.345 509.622 686.063 510.409V512.688C686.302 513.461 686.759 514.08 687.435 514.544C688.11 515.008 688.876 515.24 689.734 515.24Z" fill="#FD8A42"/>
<path d="M698.915 501.021H701.045V507.878C702.016 506.738 703.31 506.169 704.927 506.169C706.278 506.169 707.283 506.527 707.944 507.245C708.605 507.962 708.936 508.925 708.936 510.135V516.612H706.805V510.346C706.805 508.7 706.017 507.878 704.442 507.878C703.767 507.878 703.134 508.039 702.543 508.363C701.967 508.672 701.467 509.15 701.045 509.797V516.612H698.915V501.021Z" fill="#FD8A42"/>
<path d="M715.939 516.928C714.716 516.928 713.731 516.619 712.986 516C712.254 515.367 711.889 514.516 711.889 513.447C711.889 512.322 712.24 511.457 712.943 510.852C713.661 510.233 714.673 509.924 715.981 509.924C717.374 509.924 718.555 510.205 719.526 510.768V510.24C719.526 509.439 719.28 508.848 718.787 508.468C718.309 508.075 717.55 507.878 716.509 507.878C715.89 507.878 715.285 507.941 714.694 508.067C714.118 508.18 713.597 508.342 713.133 508.553V506.823C713.555 506.626 714.104 506.471 714.779 506.359C715.454 506.232 716.108 506.169 716.741 506.169C718.415 506.169 719.652 506.541 720.454 507.287C721.27 508.018 721.678 509.038 721.678 510.346V516.612H719.673V515.473C719.237 515.951 718.717 516.316 718.112 516.57C717.521 516.809 716.797 516.928 715.939 516.928ZM716.467 515.304C717.142 515.304 717.754 515.17 718.302 514.903C718.851 514.636 719.258 514.263 719.526 513.785V512.413C718.611 511.823 717.592 511.527 716.467 511.527C715.651 511.527 715.039 511.689 714.631 512.013C714.237 512.322 714.04 512.8 714.04 513.447C714.04 514.685 714.849 515.304 716.467 515.304Z" fill="#FD8A42"/>
<path d="M726.347 501.548H728.457L726.79 505.662H724.955L726.347 501.548Z" fill="#FD8A42"/>
<path d="M734.822 516.928C734.119 516.928 733.373 516.837 732.586 516.654C731.798 516.485 731.179 516.253 730.729 515.958V514.143C731.278 514.467 731.91 514.734 732.628 514.945C733.345 515.142 734.041 515.24 734.716 515.24C735.476 515.24 736.031 515.149 736.383 514.966C736.735 514.783 736.91 514.488 736.91 514.08C736.91 513.771 736.826 513.525 736.657 513.342C736.503 513.145 736.228 512.969 735.835 512.814C735.455 512.66 734.878 512.477 734.105 512.266C733.275 512.027 732.614 511.788 732.121 511.548C731.643 511.295 731.278 510.979 731.024 510.599C730.785 510.219 730.666 509.727 730.666 509.122C730.666 508.152 731.045 507.42 731.805 506.928C732.579 506.422 733.612 506.169 734.906 506.169C735.581 506.169 736.242 506.232 736.889 506.359C737.536 506.485 738.057 506.661 738.451 506.886V508.658C738.043 508.419 737.536 508.229 736.932 508.089C736.341 507.948 735.736 507.878 735.117 507.878C734.372 507.878 733.802 507.969 733.408 508.152C733.015 508.335 732.818 508.658 732.818 509.122C732.818 509.418 732.902 509.657 733.071 509.84C733.24 510.022 733.507 510.184 733.872 510.325C734.252 510.451 734.85 510.62 735.666 510.831C736.946 511.183 737.832 511.598 738.324 512.076C738.83 512.554 739.083 513.215 739.083 514.059C739.083 514.931 738.725 515.627 738.008 516.148C737.29 516.668 736.228 516.928 734.822 516.928Z" fill="#FD8A42"/>
<path d="M633.273 530.764H628.539V527.816H641.535V530.764H636.801V544.038H633.273V530.764Z" fill="#FD8A42"/>
<path d="M644.141 527.816H651.173C653.014 527.816 654.445 528.281 655.466 529.209C656.502 530.122 657.021 531.444 657.021 533.177C657.021 534.384 656.742 535.413 656.185 536.264C655.628 537.099 654.839 537.71 653.818 538.097L656.905 544.038H653.284L650.43 538.538H647.668V544.038H644.141V527.816ZM650.546 535.591C651.443 535.591 652.147 535.397 652.658 535.011C653.184 534.624 653.447 534.013 653.447 533.177C653.447 532.295 653.192 531.676 652.681 531.321C652.17 530.949 651.459 530.764 650.546 530.764H647.668V535.591H650.546Z" fill="#FD8A42"/>
<path d="M665.031 527.816H668.489L674.964 544.038H671.367L669.974 540.511H663.546L662.154 544.038H658.533L665.031 527.816ZM669.046 537.702L666.748 531.529L664.451 537.702H669.046Z" fill="#FD8A42"/>
<path d="M677.979 527.816H683.618C685.382 527.816 686.921 528.141 688.236 528.791C689.551 529.441 690.564 530.369 691.276 531.576C691.988 532.783 692.344 534.206 692.344 535.846C692.344 538.538 691.555 540.58 689.976 541.973C688.414 543.349 686.232 544.038 683.432 544.038H677.979V527.816ZM683.618 541.091C685.273 541.091 686.542 540.627 687.424 539.698C688.306 538.77 688.747 537.486 688.747 535.846C688.747 534.871 688.553 533.997 688.166 533.224C687.78 532.45 687.215 531.847 686.472 531.413C685.73 530.98 684.856 530.764 683.85 530.764H681.506V541.091H683.618Z" fill="#FD8A42"/>
<path d="M695.351 527.816H698.878V544.038H695.351V527.816Z" fill="#FD8A42"/>
<path d="M702.366 527.816H705.8L712.577 538.306V527.816H716.104V544.038H712.693L705.893 533.548V544.038H702.366V527.816Z" fill="#FD8A42"/>
<path d="M727.887 544.386C726.155 544.386 724.623 544.046 723.292 543.365C721.962 542.669 720.933 541.686 720.206 540.418C719.479 539.149 719.115 537.656 719.115 535.939C719.115 534.221 719.479 532.729 720.206 531.46C720.933 530.176 721.962 529.193 723.292 528.513C724.623 527.816 726.155 527.468 727.887 527.468C729.063 527.468 730.1 527.592 730.997 527.84C731.91 528.072 732.745 528.443 733.503 528.954V532.319C732.823 531.762 732.041 531.359 731.16 531.112C730.293 530.849 729.303 530.717 728.189 530.717C727.152 530.717 726.216 530.934 725.381 531.367C724.561 531.785 723.911 532.388 723.432 533.177C722.952 533.966 722.712 534.887 722.712 535.939C722.712 537.006 722.929 537.942 723.362 538.747C723.811 539.536 724.437 540.147 725.242 540.58C726.046 541.013 726.975 541.23 728.027 541.23C728.986 541.23 729.821 541.06 730.533 540.719V537.586H727.911V534.987H733.944V542.808C732.413 543.86 730.394 544.386 727.887 544.386Z" fill="#FD8A42"/>
<path d="M635.431 555.243H638.889L645.364 571.464H641.767L640.375 567.937H633.946L632.554 571.464H628.934L635.431 555.243ZM639.446 565.129L637.149 558.956L634.851 565.129H639.446Z" fill="#FD8A42"/>
<path d="M648.379 555.243H651.813L658.59 565.732V555.243H662.117V571.464H658.706L651.906 560.975V571.464H648.379V555.243Z" fill="#FD8A42"/>
<path d="M671.626 555.243H675.084L681.559 571.464H677.962L676.569 567.937H670.141L668.748 571.464H665.128L671.626 555.243ZM675.641 565.129L673.343 558.956L671.046 565.129H675.641Z" fill="#FD8A42"/>
<path d="M684.573 555.243H688.101V568.517H695.527V571.464H684.573V555.243Z" fill="#FD8A42"/>
<path d="M700.669 565.291L694.728 555.243H698.487L702.409 561.996L706.471 555.243H710.207L704.127 565.291V571.464H700.669V565.291Z" fill="#FD8A42"/>
<path d="M716.599 571.812C715.609 571.812 714.626 571.719 713.652 571.534C712.677 571.348 711.88 571.101 711.261 570.791V567.681C712.081 568.084 712.932 568.385 713.814 568.586C714.696 568.788 715.539 568.888 716.344 568.888C717.241 568.888 717.922 568.733 718.386 568.424C718.85 568.115 719.082 567.681 719.082 567.124C719.082 566.722 718.966 566.382 718.734 566.103C718.502 565.825 718.162 565.577 717.713 565.361C717.28 565.129 716.607 564.827 715.694 564.456C714.178 563.837 713.079 563.148 712.399 562.39C711.718 561.617 711.378 560.665 711.378 559.536C711.378 558.623 711.625 557.819 712.12 557.122C712.615 556.411 713.311 555.861 714.209 555.475C715.106 555.088 716.143 554.894 717.318 554.894C718.278 554.894 719.129 554.972 719.871 555.127C720.614 555.281 721.341 555.521 722.053 555.846V558.863C720.691 558.182 719.33 557.842 717.968 557.842C717.102 557.842 716.421 557.996 715.926 558.306C715.431 558.6 715.183 559.025 715.183 559.582C715.183 559.984 715.299 560.317 715.532 560.58C715.764 560.843 716.089 561.075 716.506 561.276C716.924 561.477 717.605 561.771 718.548 562.158C719.647 562.622 720.506 563.071 721.124 563.504C721.743 563.922 722.2 564.425 722.494 565.013C722.788 565.585 722.934 566.297 722.934 567.148C722.934 568.617 722.401 569.762 721.333 570.582C720.281 571.402 718.703 571.812 716.599 571.812Z" fill="#FD8A42"/>
<path d="M725.97 555.243H729.498V571.464H725.97V555.243Z" fill="#FD8A42"/>
<path d="M737.859 571.812C736.869 571.812 735.886 571.719 734.912 571.534C733.937 571.348 733.14 571.101 732.521 570.791V567.681C733.341 568.084 734.192 568.385 735.074 568.586C735.956 568.788 736.799 568.888 737.604 568.888C738.501 568.888 739.182 568.733 739.646 568.424C740.11 568.115 740.342 567.681 740.342 567.124C740.342 566.722 740.226 566.382 739.994 566.103C739.762 565.825 739.421 565.577 738.973 565.361C738.54 565.129 737.867 564.827 736.954 564.456C735.438 563.837 734.339 563.148 733.658 562.39C732.978 561.617 732.637 560.665 732.637 559.536C732.637 558.623 732.885 557.819 733.38 557.122C733.875 556.411 734.571 555.861 735.469 555.475C736.366 555.088 737.402 554.894 738.578 554.894C739.537 554.894 740.388 554.972 741.131 555.127C741.874 555.281 742.601 555.521 743.312 555.846V558.863C741.951 558.182 740.59 557.842 739.228 557.842C738.362 557.842 737.681 557.996 737.186 558.306C736.691 558.6 736.443 559.025 736.443 559.582C736.443 559.984 736.559 560.317 736.791 560.58C737.023 560.843 737.348 561.075 737.766 561.276C738.184 561.477 738.864 561.771 739.808 562.158C740.907 562.622 741.765 563.071 742.384 563.504C743.003 563.922 743.459 564.425 743.753 565.013C744.047 565.585 744.194 566.297 744.194 567.148C744.194 568.617 743.661 569.762 742.593 570.582C741.541 571.402 739.963 571.812 737.859 571.812Z" fill="#FD8A42"/>
<defs>
<clipPath id="clip0_441_213">
<rect width="73.8397" height="75.9494" fill="white" transform="translate(611.312 142.139)"/>
</clipPath>
<clipPath id="clip1_441_213">
<rect width="80.1688" height="80.1688" fill="white" transform="translate(909.836 358.384)"/>
</clipPath>
<clipPath id="clip2_441_213">
<rect width="71.73" height="71.73" fill="white" transform="translate(223.127 359.439)"/>
</clipPath>
<clipPath id="clip3_441_213">
<rect width="62.2363" height="62.2363" fill="white" transform="translate(542.748 507.118)"/>
</clipPath>
</defs>
</svg>
