<svg width="375" height="667" viewBox="0 0 375 667" fill="none" xmlns="http://www.w3.org/2000/svg">
<rect width="375" height="667" fill="#171717"/>
<g clip-path="url(#clip0_1491_14495)">
<path d="M188.9 473.199L188.9 193.999" stroke="#C2C2C2" stroke-width="0.8574" stroke-miterlimit="10" stroke-dasharray="3 3"/>
<path d="M192.5 329.498L188.9 325.498L185.3 329.498" stroke="#C2C2C2" stroke-width="0.8574" stroke-miterlimit="10"/>
<path d="M192.5 341.799L188.9 337.699L185.3 341.799" stroke="#C2C2C2" stroke-width="0.8574" stroke-miterlimit="10"/>
</g>
<g clip-path="url(#clip1_1491_14495)">
<path d="M168.8 158V277C168.8 286.5 161.1 294.2 151.6 294.2H58" stroke="#C2C2C2" stroke-width="0.8574" stroke-miterlimit="10" stroke-dasharray="3 3"/>
<path d="M172.2 251.1L168.7 247.1L165.1 251.1" stroke="#C2C2C2" stroke-width="0.8574" stroke-miterlimit="10"/>
<path d="M172.2 263.4L168.7 259.4L165.1 263.4" stroke="#C2C2C2" stroke-width="0.8574" stroke-miterlimit="10"/>
</g>
<path d="M27 271C27 266.582 30.5817 263 35 263H136C140.418 263 144 266.582 144 271V312C144 316.418 140.418 320 136 320H35C30.5817 320 27 316.418 27 312V271Z" fill="#272727"/>
<g clip-path="url(#clip2_1491_14495)">
<path d="M207.8 158L207.8 277C207.8 286.5 215.5 294.2 225 294.2L318.6 294.2" stroke="#C2C2C2" stroke-width="0.8574" stroke-miterlimit="10" stroke-dasharray="3 3"/>
<path d="M204.4 251.1L207.9 247.1L211.5 251.1" stroke="#C2C2C2" stroke-width="0.8574" stroke-miterlimit="10"/>
<path d="M204.4 263.4L207.9 259.4L211.5 263.4" stroke="#C2C2C2" stroke-width="0.8574" stroke-miterlimit="10"/>
</g>
<path fill-rule="evenodd" clip-rule="evenodd" d="M28.348 259.7C24.6763 259.7 21.6998 262.68 21.6998 266.355V290.87C21.6998 291.064 21.5432 291.22 21.3499 291.22C21.1567 291.22 21 291.064 21 290.87V266.355C21 262.293 24.2898 259 28.348 259H50.9752C51.1684 259 51.3251 259.157 51.3251 259.35C51.3251 259.544 51.1684 259.7 50.9752 259.7H28.348Z" fill="#FD8A42"/>
<g clip-path="url(#clip3_1491_14495)">
<path d="M68.8733 306.682H67.884C67.8293 306.663 67.7709 306.634 67.7125 306.623C66.632 306.433 65.7924 305.879 65.1755 304.977C65.0915 304.856 65.0185 304.729 64.9309 304.586C64.8579 304.699 64.8031 304.783 64.7484 304.867C64.2081 305.703 63.4561 306.262 62.4997 306.539C62.3136 306.594 62.1274 306.634 61.9412 306.682H60.952C60.9155 306.663 60.8826 306.638 60.8461 306.631C59.4626 306.386 58.4807 305.627 57.9149 304.338C57.8966 304.294 57.8674 304.25 57.8455 304.21C54.2499 305.477 50.8405 302.618 51.9721 298.803C49.4898 298.3 48.4604 294.616 50.6142 292.783C49.7636 291.889 49.4898 291.484 49.2745 290.746C49.1869 290.472 49.1321 290.191 49.0664 289.91V288.921C49.0847 288.851 49.1102 288.786 49.1248 288.716C49.3767 287.267 50.1761 286.237 51.5048 285.617C51.6436 285.551 51.7786 285.493 51.921 285.427C51.5231 284.12 51.5523 282.86 52.213 281.663C52.892 280.429 54.0017 279.863 55.3487 279.728C55.3633 279.681 55.3742 279.662 55.3742 279.644C55.5933 277.428 57.1958 276.263 59.3495 276.771C59.5466 276.818 59.6196 276.745 59.7182 276.603C60.3643 275.668 61.2404 275.095 62.3829 275.008C63.4014 274.931 64.2592 275.3 64.9455 276.088C65.3215 275.617 65.7814 275.285 66.3545 275.117C67.7052 274.723 69.2055 275.296 70.0742 276.566C70.2057 276.76 70.3152 276.804 70.5488 276.745C72.2645 276.333 73.7538 277.136 74.2795 278.753C74.378 279.064 74.4182 279.392 74.4912 279.728C75.8491 279.859 76.9479 280.444 77.6232 281.678C78.2766 282.875 78.2985 284.134 77.9043 285.427C79.4484 286.015 80.434 287.073 80.6895 288.705C80.945 290.323 80.4303 291.688 79.2002 292.776C81.3648 294.663 80.3245 298.281 77.8386 298.792C78.2584 300.519 78.0977 302.137 76.6997 303.389C75.3198 304.626 73.6845 304.721 71.9761 304.185C71.4906 305.371 70.6693 306.152 69.461 306.514C69.2675 306.572 69.0667 306.62 68.8733 306.671V306.682ZM64.4746 300.129V299.869C64.4746 292.466 64.4746 285.062 64.4746 277.658C64.4746 276.953 64.1205 276.461 63.4926 276.179C62.3355 275.657 61.0944 276.234 60.4701 277.278C60.4336 277.337 60.4227 277.413 60.4117 277.483C60.3387 277.917 60.3424 278.341 60.4957 278.761C60.6052 279.064 60.4774 279.323 60.2146 279.421C59.9554 279.52 59.6853 279.392 59.5795 279.093C59.4991 278.87 59.4334 278.64 59.4042 278.406C59.3166 277.709 59.3276 277.705 58.6158 277.632C58.4916 277.621 58.3675 277.614 58.2471 277.625C57.0826 277.735 56.327 278.669 56.3744 279.932C56.4 280.568 56.3051 280.674 55.6772 280.695C54.1149 280.75 53.0563 281.586 52.7423 283.032C52.5708 283.821 52.6547 284.591 52.9577 285.336C53.2059 285.934 53.1147 286.124 52.4977 286.299C50.7419 286.8 49.822 288.253 50.1214 290.052C50.3221 291.268 51.1179 292.174 52.2568 292.414C52.6657 292.502 53.0964 292.491 53.5162 292.502C53.8666 292.513 54.0857 292.67 54.1003 292.958C54.1185 293.265 53.9068 293.499 53.5527 293.484C52.9905 293.462 52.4284 293.382 51.8662 293.342C51.7348 293.331 51.5742 293.342 51.4683 293.415C50.5412 294.014 50.1944 295.153 50.5923 296.284C50.8624 297.058 51.3369 297.628 52.1948 297.796C52.3992 297.836 52.5379 297.803 52.6657 297.617C53.0051 297.128 53.4541 296.748 53.9725 296.46C54.3193 296.266 54.5967 296.306 54.7573 296.573C54.9179 296.839 54.8157 297.102 54.4799 297.31C53.5491 297.883 52.9467 298.665 52.7971 299.793C52.5781 301.457 53.5052 302.954 55.0932 303.378C56.0276 303.63 56.9293 303.502 57.809 303.13C58.3091 302.918 58.5354 303.02 58.6815 303.535C58.8457 304.112 59.1268 304.619 59.5904 305.013C61.2039 306.386 63.6496 305.605 64.2957 303.506C64.8104 301.837 64.0256 300.457 62.3464 300.081C61.5105 299.895 60.7111 300.004 59.9554 300.432C59.6233 300.618 59.3531 300.57 59.1998 300.315C59.0429 300.052 59.1451 299.767 59.4772 299.574C60.3205 299.092 61.2221 298.917 62.1858 299.044C63.0363 299.157 63.7774 299.512 64.4709 300.125L64.4746 300.129ZM65.4748 300.997C65.4748 301.614 65.4456 302.202 65.4821 302.786C65.5368 303.644 65.8325 304.418 66.5005 305.002C67.957 306.273 70.5415 305.795 71.1475 303.517C71.2752 303.035 71.5088 302.951 71.9761 303.108C72.4616 303.268 72.958 303.429 73.4618 303.487C75.0351 303.673 76.5025 302.713 76.9077 301.271C77.1596 300.373 77.0355 299.497 76.7289 298.632C76.5281 298.062 76.7179 297.803 77.3129 297.818C77.7765 297.829 78.1854 297.679 78.5321 297.376C79.6017 296.438 79.8974 294.233 78.1233 293.276C77.9116 293.163 77.7364 293.024 77.7437 292.761C77.751 292.502 77.9262 292.371 78.1416 292.257C80.1566 291.191 80.3427 288.117 78.4518 286.832C78.0685 286.573 77.6049 286.42 77.1633 286.259C76.769 286.113 76.6376 285.894 76.7873 285.504C76.8384 285.368 76.9004 285.237 76.9479 285.102C77.5721 283.306 76.8895 280.896 74.3598 280.706C73.4654 280.637 73.4654 280.619 73.4508 279.717C73.4289 278.56 72.6295 277.665 71.5161 277.632C71.1365 277.621 70.7423 277.727 70.3736 277.841C69.8698 277.99 69.7202 277.95 69.4829 277.49C69.1325 276.811 68.6105 276.318 67.8731 276.085C66.7524 275.73 65.6172 276.285 65.504 277.329C65.4091 278.213 65.4857 279.115 65.4857 280.042C66.0661 280.042 66.632 280.027 67.1941 280.049C67.4533 280.06 67.5884 279.98 67.7125 279.746C68.0446 279.122 68.782 278.819 69.4537 278.983C70.1254 279.148 70.6255 279.717 70.6729 280.378C70.7277 281.119 70.3517 281.74 69.6946 282.006C69.0375 282.273 68.2126 282.123 67.8731 281.524C67.592 281.031 67.2489 281.002 66.7962 281.028C66.4348 281.05 66.0735 281.028 65.7121 281.035C65.6354 281.035 65.5588 281.053 65.4821 281.064V285.905C65.5989 285.905 65.6975 285.905 65.7997 285.905C66.5955 285.905 67.3912 285.869 68.1834 285.916C68.9061 285.956 69.4829 285.609 70.1071 285.387C69.9611 283.894 70.5816 282.838 71.7863 282.503C72.9142 282.189 74.0933 282.707 74.6043 283.744C75.1191 284.781 74.8051 286.04 73.867 286.727C72.8339 287.479 71.6476 287.325 70.5451 286.281C70.2276 286.405 69.8917 286.515 69.5778 286.664C69.1763 286.854 68.7601 286.913 68.3184 286.905C67.4825 286.887 66.6466 286.902 65.8106 286.902H65.4821V289.8C65.5551 289.808 65.6135 289.815 65.6719 289.815C67.9424 289.815 70.2093 289.815 72.4798 289.822C72.6806 289.822 72.7317 289.735 72.7901 289.567C73.1953 288.373 74.4145 287.698 75.6155 287.99C76.7289 288.26 77.5137 289.275 77.4662 290.385C77.4188 291.571 76.5536 292.517 75.3527 292.688C74.2758 292.845 73.1807 292.163 72.7974 291.1C72.7646 291.005 72.7317 290.91 72.7025 290.826H65.4675V293.816C66.1355 293.816 66.7561 293.846 67.373 293.809C68.4206 293.747 69.4281 293.853 70.3626 294.357C70.505 294.433 70.5926 294.4 70.7021 294.28C71.1329 293.809 71.6804 293.561 72.3083 293.521C73.564 293.437 74.6993 294.393 74.8234 295.627C74.9548 296.923 74.0823 298.084 72.8412 298.27C71.5271 298.467 70.3261 297.635 70.1071 296.35C70.0523 296.021 70.0998 295.678 70.0998 295.324C69.4245 295.05 68.782 294.736 68.0081 294.795C67.2708 294.85 66.5224 294.806 65.7814 294.806C65.6829 294.806 65.5843 294.817 65.4894 294.82V300.001H67.9169C68.3841 299.117 69.0229 298.774 69.837 298.96C70.5342 299.121 71.0416 299.767 71.0452 300.49C71.0489 301.217 70.5561 301.863 69.8589 302.042C69.0558 302.25 68.4097 301.907 67.9096 301.005H65.4711L65.4748 300.997ZM75.0716 288.91C74.2831 288.906 73.6443 289.534 73.6516 290.308C73.6589 291.071 74.2868 291.699 75.0533 291.703C75.8382 291.706 76.4733 291.075 76.4733 290.297C76.4733 289.527 75.8528 288.913 75.0716 288.91ZM72.4616 283.393C71.6804 283.386 71.0525 283.992 71.0452 284.766C71.0343 285.536 71.6512 286.172 72.4214 286.19C73.2063 286.208 73.8451 285.58 73.8524 284.792C73.8597 284.014 73.2501 283.401 72.4652 283.393H72.4616ZM72.4433 297.296C73.2245 297.296 73.8414 296.69 73.8487 295.912C73.8597 295.127 73.2245 294.492 72.436 294.499C71.6658 294.503 71.0379 295.134 71.0416 295.901C71.0416 296.668 71.6695 297.292 72.4397 297.296H72.4433ZM68.8587 300.501C68.8587 300.83 69.1179 301.092 69.4427 301.1C69.7713 301.107 70.0523 300.826 70.0487 300.49C70.0487 300.169 69.7786 299.899 69.461 299.891C69.1252 299.888 68.855 300.158 68.8587 300.501ZM69.1069 279.936C68.7711 279.929 68.5082 280.17 68.4936 280.498C68.479 280.845 68.7309 281.119 69.0704 281.126C69.4135 281.134 69.6837 280.874 69.6837 280.531C69.6837 280.199 69.4354 279.943 69.1033 279.936H69.1069Z" fill="#FF8A37"/>
<path d="M75.0504 289.813C74.7803 289.816 74.5612 290.046 74.5685 290.316C74.5758 290.59 74.7985 290.798 75.0723 290.791C75.3461 290.784 75.5614 290.565 75.5541 290.294C75.5505 290.032 75.3169 289.809 75.0504 289.813Z" fill="#FF8A37"/>
<path d="M56.9979 289.177C56.7204 287.986 56.0415 287.169 54.9391 286.698C54.8624 286.665 54.7821 286.647 54.7091 286.61C54.428 286.482 54.3075 286.209 54.4171 285.949C54.5193 285.708 54.7784 285.595 55.0632 285.694C56.4649 286.179 57.3885 287.136 57.8557 288.538C57.8739 288.596 57.8922 288.655 57.9105 288.717C57.9251 288.775 57.9397 288.833 57.9433 288.844C58.4507 288.892 58.9399 288.892 59.4035 288.994C61.0717 289.359 62.3164 290.896 62.3639 292.59C62.3748 292.955 62.2252 293.167 61.9405 293.207C61.6156 293.251 61.3929 293.05 61.3746 292.674C61.3272 291.805 60.9987 291.075 60.3197 290.52C59.064 289.494 57.2534 289.695 56.2422 290.969C55.932 291.36 55.6582 291.451 55.399 291.247C55.1325 291.035 55.1544 290.746 55.4647 290.352C55.8662 289.841 56.3773 289.465 56.9979 289.173V289.177Z" fill="#FF8A37"/>
<path d="M59.7994 297.632C58.6897 297.643 57.6785 296.898 57.3609 295.832C57.0397 294.769 57.4595 293.612 58.3794 293.013C58.7043 292.802 59 292.824 59.1679 293.075C59.3394 293.327 59.2555 293.598 58.9342 293.828C58.237 294.328 58.0399 295.164 58.4524 295.872C58.8539 296.558 59.6862 296.818 60.4418 296.485C60.5076 296.456 60.5733 296.423 60.639 296.401C60.8835 296.325 61.15 296.427 61.2376 296.646C61.3362 296.894 61.307 297.15 61.0551 297.263C60.6572 297.442 60.2338 297.562 59.8213 297.705L59.7957 297.628L59.7994 297.632Z" fill="#FF8A37"/>
<path d="M57.265 281.364C57.4366 281.488 57.5826 281.565 57.6921 281.675C58.2214 282.219 58.7179 282.273 59.3348 281.828C59.51 281.7 59.6633 281.55 59.8276 281.404C60.7 280.623 61.901 280.411 62.8683 280.871C63.1932 281.028 63.3173 281.291 63.1822 281.565C63.0618 281.813 62.8026 281.919 62.5325 281.799C61.6929 281.426 60.992 281.664 60.3605 282.255C59.8312 282.752 59.2435 283.135 58.4733 283.106C57.798 283.08 57.2723 282.755 56.889 282.222C56.8014 282.098 56.7832 281.853 56.8452 281.711C56.9036 281.569 57.1044 281.488 57.2687 281.361L57.265 281.364Z" fill="#FF8A37"/>
<path d="M63.0176 285.646C62.9884 286.73 62.1379 287.61 61.0646 287.668C60.7361 287.686 60.4915 287.508 60.4587 287.226C60.4258 286.938 60.6193 286.73 60.9624 286.686C61.6268 286.602 62.0356 286.179 62.0283 285.584C62.021 284.996 61.6232 284.605 60.9588 284.529C60.6449 284.492 60.4477 284.284 60.4623 284.006C60.4769 283.725 60.6923 283.543 61.0099 283.539C62.1123 283.528 63.0577 284.518 63.0249 285.649L63.0176 285.646Z" fill="#FF8A37"/>
<path d="M75.0504 289.813C75.3169 289.809 75.5505 290.028 75.5541 290.294C75.5578 290.565 75.3461 290.787 75.0723 290.791C74.7985 290.798 74.5758 290.587 74.5685 290.316C74.5612 290.05 74.7803 289.82 75.0504 289.813Z" fill="#FF8A37"/>
<path d="M72.9465 284.784C72.9465 285.05 72.7202 285.273 72.4501 285.273C72.1727 285.273 71.9609 285.065 71.9609 284.788C71.9609 284.514 72.1763 284.291 72.4464 284.291C72.7093 284.291 72.9465 284.525 72.9465 284.784Z" fill="#FF8A37"/>
<path d="M72.4464 295.416C72.7202 295.416 72.9465 295.635 72.9465 295.902C72.9465 296.161 72.7129 296.398 72.4501 296.398C72.1836 296.398 71.9646 296.179 71.9609 295.905C71.9609 295.628 72.169 295.416 72.4464 295.416Z" fill="#FF8A37"/>
</g>
<path d="M94.7704 290.061C94.0597 290.061 93.4173 289.907 92.8432 289.6C92.2692 289.285 91.8181 288.844 91.4901 288.277C91.1621 287.71 90.998 287.061 90.998 286.33C90.998 285.598 91.1621 284.949 91.4901 284.382C91.8181 283.815 92.2692 283.374 92.8432 283.059C93.4173 282.745 94.0597 282.588 94.7704 282.588C95.4812 282.588 96.1236 282.745 96.6976 283.059C97.2717 283.374 97.7228 283.815 98.0508 284.382C98.3788 284.949 98.5428 285.598 98.5428 286.33C98.5428 287.061 98.3788 287.71 98.0508 288.277C97.7228 288.844 97.2717 289.285 96.6976 289.6C96.1236 289.907 95.4812 290.061 94.7704 290.061ZM94.7704 289.118C95.2762 289.118 95.734 289.005 96.1441 288.78C96.561 288.547 96.889 288.223 97.1282 287.806C97.3674 287.382 97.487 286.89 97.487 286.33C97.487 285.776 97.3674 285.291 97.1282 284.874C96.8958 284.45 96.5746 284.126 96.1646 283.9C95.7545 283.668 95.2967 283.551 94.7909 283.551C94.2784 283.551 93.8137 283.664 93.3968 283.89C92.9868 284.115 92.6587 284.44 92.4127 284.864C92.1735 285.287 92.0539 285.776 92.0539 286.33C92.0539 286.89 92.1735 287.382 92.4127 287.806C92.6519 288.223 92.9765 288.547 93.3865 288.78C93.8034 289.005 94.2647 289.118 94.7704 289.118Z" fill="#FD8A42"/>
<path d="M103.049 290.061C102.072 290.061 101.334 289.811 100.835 289.313C100.336 288.807 100.087 288.113 100.087 287.232V282.742H101.133V287.273C101.133 287.881 101.303 288.342 101.645 288.657C101.987 288.964 102.455 289.118 103.049 289.118C103.637 289.118 104.102 288.964 104.444 288.657C104.785 288.342 104.956 287.881 104.956 287.273V282.742H106.002V287.232C106.002 288.106 105.752 288.797 105.253 289.302C104.755 289.808 104.02 290.061 103.049 290.061Z" fill="#FD8A42"/>
<path d="M107.752 282.742H110.632C111.398 282.742 111.986 282.926 112.396 283.295C112.806 283.664 113.011 284.204 113.011 284.915C113.011 285.441 112.871 285.889 112.59 286.258C112.31 286.62 111.914 286.866 111.401 286.996L112.98 289.907H111.893L110.366 287.078H108.797V289.907H107.752V282.742ZM110.458 286.196C110.916 286.196 111.278 286.09 111.545 285.878C111.818 285.66 111.955 285.339 111.955 284.915C111.955 284.45 111.822 284.119 111.555 283.921C111.295 283.722 110.93 283.623 110.458 283.623H108.797V286.196H110.458Z" fill="#FD8A42"/>
<path d="M91.0698 294.857H92.6075L94.8114 299.654L97.0257 294.857H98.5531V302.022H97.0667V297.952L95.1702 302.022H94.4527L92.5665 297.952V302.022H91.0698V294.857Z" fill="#FD8A42"/>
<path d="M100.095 294.857H101.653V300.72H104.934V302.022H100.095V294.857Z" fill="#FD8A42"/>
<path d="M106.067 294.857H109.081C109.894 294.857 110.543 295.072 111.028 295.502C111.514 295.926 111.756 296.517 111.756 297.276C111.756 298.055 111.514 298.653 111.028 299.07C110.55 299.487 109.901 299.695 109.081 299.695H107.625V302.022H106.067V294.857ZM108.855 298.393C109.737 298.393 110.178 298.021 110.178 297.276C110.178 296.859 110.058 296.568 109.819 296.404C109.586 296.24 109.265 296.158 108.855 296.158H107.625V298.393H108.855Z" fill="#FD8A42"/>
<path d="M128.66 309.606L129.359 309L132.854 312.914L136.348 309L137.001 309.606L132.854 314.312L128.66 309.606Z" fill="#808080"/>
<path d="M233 271.004C233 267.166 236.125 264.055 239.98 264.055H344.161C348.016 264.055 351.142 267.166 351.142 271.004V312.701C351.142 316.539 348.016 319.651 344.161 319.651H239.98C236.125 319.651 233 316.539 233 312.701V271.004Z" fill="#272727"/>
<path fill-rule="evenodd" clip-rule="evenodd" d="M350.744 259.7C354.415 259.7 357.392 262.68 357.392 266.355V290.87C357.392 291.064 357.549 291.22 357.742 291.22C357.935 291.22 358.092 291.064 358.092 290.87V266.355C358.092 262.293 354.802 259 350.744 259H328.117C327.923 259 327.767 259.157 327.767 259.35C327.767 259.544 327.923 259.7 328.117 259.7H350.744Z" fill="#FD8A42"/>
<path d="M283.46 289.164C282.75 289.164 282.107 289.011 281.533 288.703C280.959 288.389 280.508 287.948 280.18 287.381C279.852 286.814 279.688 286.164 279.688 285.433C279.688 284.702 279.852 284.053 280.18 283.485C280.508 282.918 280.959 282.477 281.533 282.163C282.107 281.849 282.75 281.691 283.46 281.691C284.171 281.691 284.813 281.849 285.388 282.163C285.962 282.477 286.413 282.918 286.741 283.485C287.069 284.053 287.233 284.702 287.233 285.433C287.233 286.164 287.069 286.814 286.741 287.381C286.413 287.948 285.962 288.389 285.388 288.703C284.813 289.011 284.171 289.164 283.46 289.164ZM283.46 288.221C283.966 288.221 284.424 288.109 284.834 287.883C285.251 287.651 285.579 287.326 285.818 286.909C286.057 286.485 286.177 285.993 286.177 285.433C286.177 284.879 286.057 284.394 285.818 283.977C285.586 283.554 285.265 283.229 284.854 283.004C284.444 282.771 283.987 282.655 283.481 282.655C282.968 282.655 282.504 282.768 282.087 282.993C281.677 283.219 281.349 283.543 281.103 283.967C280.863 284.391 280.744 284.879 280.744 285.433C280.744 285.993 280.863 286.485 281.103 286.909C281.342 287.326 281.666 287.651 282.076 287.883C282.493 288.109 282.955 288.221 283.46 288.221Z" fill="#FD8A42"/>
<path d="M291.739 289.164C290.762 289.164 290.024 288.915 289.525 288.416C289.026 287.91 288.777 287.217 288.777 286.335V281.845H289.822V286.376C289.822 286.984 289.993 287.446 290.335 287.76C290.677 288.068 291.145 288.221 291.739 288.221C292.327 288.221 292.792 288.068 293.134 287.76C293.475 287.446 293.646 286.984 293.646 286.376V281.845H294.692V286.335C294.692 287.21 294.442 287.9 293.943 288.406C293.444 288.912 292.71 289.164 291.739 289.164Z" fill="#FD8A42"/>
<path d="M296.442 281.845H299.322C300.088 281.845 300.675 282.03 301.086 282.399C301.496 282.768 301.701 283.308 301.701 284.018C301.701 284.545 301.56 284.992 301.28 285.361C301 285.723 300.604 285.97 300.091 286.099L301.67 289.011H300.583L299.056 286.181H297.487V289.011H296.442V281.845ZM299.148 285.3C299.606 285.3 299.968 285.194 300.235 284.982C300.508 284.763 300.645 284.442 300.645 284.018C300.645 283.554 300.511 283.222 300.245 283.024C299.985 282.826 299.62 282.727 299.148 282.727H297.487V285.3H299.148Z" fill="#FD8A42"/>
<path d="M310.087 281.845H311.614L314.474 289.011H312.885L312.27 287.453H309.431L308.816 289.011H307.216L310.087 281.845ZM311.86 286.212L310.845 283.485L309.83 286.212H311.86Z" fill="#FD8A42"/>
<path d="M315.806 281.845H317.364V289.011H315.806V281.845Z" fill="#FD8A42"/>
<path d="M282.425 293.96H283.952L286.812 301.126H285.224L284.608 299.567H281.769L281.154 301.126H279.555L282.425 293.96ZM284.198 298.327L283.184 295.6L282.169 298.327H284.198Z" fill="#FD8A42"/>
<path d="M288.144 293.96H289.702V299.824H292.983V301.126H288.144V293.96Z" fill="#FD8A42"/>
<path d="M297.786 301.279C297.021 301.279 296.344 301.129 295.756 300.828C295.169 300.521 294.714 300.087 294.393 299.526C294.072 298.966 293.911 298.307 293.911 297.548C293.911 296.789 294.072 296.13 294.393 295.57C294.714 295.002 295.169 294.568 295.756 294.268C296.344 293.96 297.021 293.806 297.786 293.806C298.305 293.806 298.763 293.861 299.16 293.97C299.563 294.073 299.932 294.237 300.267 294.462V295.949C299.966 295.703 299.621 295.525 299.231 295.416C298.849 295.3 298.411 295.241 297.919 295.241C297.461 295.241 297.048 295.337 296.679 295.528C296.317 295.713 296.03 295.98 295.818 296.328C295.606 296.677 295.5 297.083 295.5 297.548C295.5 298.02 295.596 298.433 295.787 298.788C295.985 299.137 296.262 299.407 296.617 299.598C296.973 299.79 297.383 299.885 297.848 299.885C298.271 299.885 298.64 299.81 298.955 299.66V298.276H297.796V297.128H300.462V300.582C299.785 301.047 298.893 301.279 297.786 301.279Z" fill="#FD8A42"/>
<path d="M305.429 301.279C304.711 301.279 304.059 301.122 303.471 300.808C302.89 300.493 302.432 300.056 302.097 299.496C301.762 298.928 301.595 298.279 301.595 297.548C301.595 296.817 301.762 296.167 302.097 295.6C302.432 295.033 302.89 294.592 303.471 294.278C304.059 293.964 304.711 293.806 305.429 293.806C306.146 293.806 306.792 293.964 307.366 294.278C307.947 294.592 308.405 295.033 308.74 295.6C309.075 296.167 309.242 296.817 309.242 297.548C309.242 298.279 309.075 298.928 308.74 299.496C308.405 300.056 307.947 300.493 307.366 300.808C306.792 301.122 306.146 301.279 305.429 301.279ZM305.429 299.844C305.839 299.844 306.211 299.752 306.546 299.567C306.888 299.376 307.158 299.11 307.356 298.768C307.554 298.419 307.653 298.013 307.653 297.548C307.653 297.09 307.554 296.69 307.356 296.349C307.165 296 306.898 295.734 306.556 295.549C306.222 295.358 305.846 295.262 305.429 295.262C305.005 295.262 304.622 295.358 304.281 295.549C303.946 295.734 303.679 296 303.481 296.349C303.283 296.69 303.184 297.09 303.184 297.548C303.184 298.013 303.283 298.419 303.481 298.768C303.679 299.11 303.949 299.376 304.291 299.567C304.633 299.752 305.012 299.844 305.429 299.844Z" fill="#FD8A42"/>
<path d="M310.565 293.96H313.671C314.484 293.96 315.116 294.165 315.567 294.575C316.025 294.978 316.254 295.563 316.254 296.328C316.254 296.861 316.131 297.316 315.885 297.691C315.639 298.061 315.291 298.33 314.84 298.501L316.203 301.126H314.604L313.343 298.696H312.123V301.126H310.565V293.96ZM313.394 297.394C313.79 297.394 314.101 297.309 314.327 297.138C314.559 296.967 314.676 296.697 314.676 296.328C314.676 295.939 314.563 295.665 314.337 295.508C314.112 295.344 313.797 295.262 313.394 295.262H312.123V297.394H313.394Z" fill="#FD8A42"/>
<path d="M317.588 293.96H319.146V301.126H317.588V293.96Z" fill="#FD8A42"/>
<path d="M322.399 295.262H320.307V293.96H326.048V295.262H323.957V301.126H322.399V295.262Z" fill="#FD8A42"/>
<path d="M327.199 293.96H328.757V296.83H331.884V293.96H333.442V301.126H331.884V298.122H328.757V301.126H327.199V293.96Z" fill="#FD8A42"/>
<path d="M334.973 293.96H336.511L338.715 298.758L340.929 293.96H342.456V301.126H340.97V297.056L339.073 301.126H338.356L336.47 297.056V301.126H334.973V293.96Z" fill="#FD8A42"/>
<g clip-path="url(#clip4_1491_14495)">
<path d="M250.026 296.682V293.098H249.89C247.724 293.098 245.559 293.098 243.393 293.098C243.296 293.098 243.257 293.127 243.221 293.218C242.994 293.841 242.338 294.218 241.696 294.098C241.02 293.975 240.553 293.406 240.553 292.721C240.553 292.056 241.036 291.491 241.705 291.374C242.351 291.261 243.004 291.637 243.228 292.264C243.26 292.355 243.303 292.377 243.393 292.377C245.562 292.377 247.731 292.377 249.899 292.377H250.026V288.793C249.981 288.793 249.942 288.793 249.903 288.793C248.974 288.793 248.042 288.793 247.114 288.793C247.02 288.793 246.981 288.822 246.948 288.91C246.715 289.537 246.062 289.907 245.419 289.787C244.747 289.66 244.273 289.092 244.276 288.42C244.28 287.748 244.767 287.18 245.435 287.063C246.085 286.952 246.721 287.326 246.958 287.956C246.984 288.021 247.007 288.056 247.088 288.056C248.039 288.053 248.99 288.056 249.945 288.056C249.971 288.056 249.997 288.056 250.039 288.05C250.039 288.004 250.039 287.962 250.039 287.917C250.039 287.508 250.023 287.095 250.052 286.689C250.136 285.453 251.149 284.521 252.393 284.518C252.743 284.518 253.094 284.518 253.445 284.518C253.484 284.518 253.526 284.518 253.581 284.518V284.378C253.581 283.456 253.581 282.534 253.581 281.612C253.581 281.515 253.558 281.466 253.461 281.43C252.844 281.2 252.477 280.56 252.588 279.917C252.701 279.258 253.256 278.778 253.922 278.761C254.581 278.745 255.172 279.216 255.302 279.862C255.435 280.528 255.081 281.187 254.454 281.427C254.35 281.466 254.318 281.511 254.318 281.622C254.324 282.54 254.318 283.459 254.318 284.378V284.508H257.896C257.896 284.466 257.902 284.423 257.902 284.381C257.902 282.213 257.902 280.044 257.902 277.875C257.902 277.784 257.876 277.742 257.788 277.71C257.162 277.486 256.785 276.83 256.902 276.187C257.016 275.518 257.577 275.035 258.233 275.031C258.925 275.028 259.493 275.496 259.619 276.177C259.736 276.817 259.366 277.473 258.746 277.7C258.642 277.739 258.616 277.784 258.616 277.888C258.616 280.044 258.616 282.196 258.616 284.352V284.505H262.197C262.197 284.469 262.204 284.43 262.204 284.391C262.204 283.459 262.204 282.524 262.204 281.592C262.204 281.502 262.178 281.466 262.093 281.437C261.463 281.203 261.093 280.554 261.21 279.911C261.334 279.239 261.902 278.761 262.574 278.765C263.246 278.765 263.817 279.248 263.934 279.917C264.048 280.57 263.674 281.213 263.035 281.446C262.963 281.472 262.941 281.505 262.941 281.579C262.941 282.524 262.941 283.469 262.941 284.414C262.941 284.446 262.944 284.479 262.947 284.524C262.996 284.524 263.038 284.524 263.083 284.524C263.496 284.524 263.911 284.508 264.324 284.537C265.541 284.621 266.476 285.638 266.479 286.858C266.479 287.254 266.479 287.647 266.479 288.056C266.525 288.056 266.564 288.063 266.599 288.063C267.538 288.063 268.473 288.063 269.411 288.063C269.499 288.063 269.528 288.033 269.557 287.956C269.791 287.329 270.424 286.959 271.07 287.066C271.722 287.173 272.206 287.722 272.232 288.384C272.258 289.04 271.787 289.644 271.148 289.777C270.472 289.92 269.807 289.566 269.567 288.926C269.528 288.826 269.482 288.796 269.378 288.796C268.456 288.8 267.534 288.796 266.612 288.796H266.486V292.381H266.619C268.784 292.381 270.95 292.381 273.115 292.381C273.213 292.381 273.251 292.351 273.287 292.26C273.514 291.637 274.17 291.261 274.813 291.381C275.488 291.504 275.959 292.072 275.956 292.757C275.956 293.423 275.472 293.988 274.803 294.104C274.157 294.218 273.505 293.841 273.281 293.215C273.248 293.124 273.206 293.101 273.115 293.101C270.946 293.101 268.778 293.101 266.609 293.101H266.483V296.682C266.528 296.682 266.567 296.689 266.606 296.689C267.534 296.689 268.466 296.689 269.395 296.689C269.489 296.689 269.528 296.659 269.56 296.572C269.794 295.945 270.447 295.575 271.089 295.695C271.761 295.822 272.235 296.39 272.232 297.062C272.229 297.734 271.742 298.302 271.073 298.416C270.424 298.526 269.787 298.153 269.55 297.523C269.528 297.465 269.512 297.422 269.434 297.422C268.476 297.422 267.515 297.422 266.557 297.422C266.534 297.422 266.515 297.422 266.476 297.429C266.476 297.474 266.476 297.517 266.476 297.562C266.476 297.974 266.492 298.39 266.463 298.802C266.379 300.023 265.372 300.955 264.148 300.964C263.791 300.964 263.434 300.964 263.074 300.964H262.937V301.091C262.937 302.019 262.937 302.951 262.937 303.88C262.937 303.967 262.957 304.013 263.048 304.045C263.671 304.276 264.038 304.915 263.931 305.561C263.82 306.214 263.272 306.694 262.606 306.717C261.95 306.74 261.35 306.269 261.217 305.626C261.077 304.954 261.431 304.292 262.064 304.052C262.168 304.013 262.2 303.967 262.2 303.857C262.194 302.941 262.2 302.026 262.2 301.114V300.974H258.623C258.623 301.016 258.616 301.058 258.616 301.101C258.616 303.269 258.616 305.438 258.616 307.607C258.616 307.698 258.642 307.74 258.733 307.769C259.36 307.993 259.736 308.649 259.619 309.292C259.499 309.964 258.934 310.441 258.259 310.441C257.584 310.441 257.019 309.967 256.896 309.295C256.779 308.652 257.155 307.993 257.779 307.769C257.873 307.736 257.899 307.691 257.899 307.597C257.899 305.435 257.899 303.273 257.899 301.11V300.971H254.318C254.318 301.01 254.311 301.049 254.311 301.088C254.311 302.019 254.311 302.954 254.311 303.886C254.311 303.977 254.341 304.013 254.422 304.042C255.052 304.276 255.422 304.925 255.302 305.568C255.175 306.24 254.61 306.717 253.938 306.714C253.266 306.714 252.698 306.227 252.578 305.561C252.464 304.909 252.837 304.266 253.477 304.032C253.548 304.006 253.571 303.974 253.571 303.899C253.571 302.954 253.571 302.01 253.571 301.065C253.571 301.032 253.568 301 253.565 300.958C253.516 300.958 253.471 300.958 253.428 300.958C253.019 300.958 252.607 300.974 252.201 300.945C250.974 300.864 250.036 299.844 250.036 298.611C250.036 298.221 250.036 297.828 250.036 297.426C249.99 297.426 249.951 297.419 249.912 297.419C248.974 297.419 248.039 297.419 247.101 297.419C247.023 297.419 246.987 297.439 246.958 297.517C246.728 298.146 246.104 298.516 245.452 298.416C244.802 298.318 244.315 297.773 244.28 297.107C244.244 296.452 244.718 295.838 245.364 295.702C246.039 295.559 246.705 295.913 246.945 296.552C246.984 296.653 247.03 296.682 247.133 296.682C248.055 296.679 248.977 296.682 249.899 296.682H250.029H250.026ZM250.756 292.734C250.756 294.676 250.756 296.614 250.756 298.555C250.756 299.533 251.458 300.234 252.428 300.237C256.318 300.237 260.204 300.237 264.093 300.237C265.054 300.237 265.759 299.536 265.759 298.575C265.759 294.682 265.759 290.793 265.759 286.9C265.759 285.94 265.054 285.238 264.093 285.238C260.204 285.238 256.318 285.238 252.428 285.238C252.201 285.238 251.98 285.271 251.769 285.358C251.136 285.618 250.756 286.199 250.756 286.92C250.756 288.861 250.756 290.8 250.756 292.741V292.734ZM253.298 280.132C253.298 280.482 253.584 280.778 253.935 280.778C254.282 280.778 254.578 280.489 254.581 280.138C254.581 279.787 254.295 279.495 253.941 279.492C253.587 279.492 253.298 279.774 253.295 280.128L253.298 280.132ZM262.574 279.495C262.223 279.495 261.931 279.784 261.931 280.135C261.931 280.485 262.223 280.778 262.574 280.778C262.921 280.778 263.217 280.485 263.213 280.135C263.213 279.781 262.924 279.495 262.57 279.495H262.574ZM262.574 305.974C262.928 305.974 263.213 305.685 263.213 305.331C263.213 304.98 262.921 304.688 262.57 304.691C262.223 304.691 261.928 304.987 261.931 305.337C261.931 305.688 262.223 305.977 262.574 305.977V305.974ZM245.02 288.42C245.02 288.774 245.309 289.063 245.659 289.063C246.007 289.063 246.302 288.774 246.306 288.423C246.306 288.076 246.013 287.78 245.666 287.78C245.312 287.78 245.023 288.066 245.023 288.42H245.02ZM271.498 288.423C271.498 288.069 271.216 287.784 270.859 287.78C270.508 287.78 270.216 288.069 270.213 288.42C270.213 288.767 270.505 289.063 270.852 289.066C271.203 289.066 271.495 288.777 271.495 288.426L271.498 288.423ZM245.02 297.052C245.02 297.406 245.306 297.692 245.659 297.695C246.01 297.695 246.302 297.403 246.302 297.056C246.302 296.705 246.01 296.413 245.659 296.413C245.309 296.413 245.02 296.702 245.017 297.056L245.02 297.052ZM271.498 297.059C271.498 296.705 271.216 296.416 270.862 296.413C270.515 296.413 270.219 296.702 270.216 297.049C270.213 297.4 270.505 297.695 270.852 297.695C271.206 297.695 271.495 297.413 271.498 297.059ZM253.938 305.977C254.292 305.977 254.584 305.691 254.584 305.341C254.584 304.99 254.295 304.698 253.948 304.695C253.597 304.695 253.302 304.983 253.302 305.331C253.302 305.685 253.584 305.974 253.938 305.977ZM258.256 277.051C258.607 277.051 258.899 276.762 258.899 276.411C258.899 276.06 258.61 275.771 258.259 275.771C257.905 275.771 257.616 276.057 257.616 276.408C257.616 276.758 257.905 277.051 258.256 277.051ZM242.572 292.734C242.572 292.384 242.28 292.092 241.929 292.092C241.579 292.092 241.29 292.381 241.29 292.734C241.29 293.088 241.579 293.377 241.929 293.377C242.28 293.377 242.569 293.085 242.569 292.734H242.572ZM273.943 292.734C273.943 293.085 274.232 293.377 274.586 293.377C274.936 293.377 275.225 293.088 275.225 292.734C275.225 292.381 274.936 292.092 274.586 292.092C274.235 292.092 273.946 292.384 273.946 292.734H273.943ZM258.256 309.697C258.61 309.697 258.899 309.412 258.902 309.061C258.902 308.71 258.613 308.418 258.262 308.418C257.912 308.418 257.62 308.704 257.616 309.055C257.616 309.405 257.902 309.694 258.256 309.697Z" fill="#FF8A37"/>
<path d="M260.434 296.617C260.084 296.617 259.746 296.617 259.412 296.614C259.383 296.614 259.344 296.558 259.331 296.519C259.103 295.857 258.879 295.195 258.652 294.529C258.623 294.438 258.587 294.348 258.561 294.257C258.545 294.198 258.516 294.175 258.451 294.175C257.587 294.175 256.724 294.175 255.86 294.175C255.782 294.175 255.769 294.218 255.753 294.27C255.506 295.02 255.256 295.766 255.013 296.516C254.987 296.594 254.951 296.617 254.873 296.617C254.568 296.614 254.263 296.617 253.941 296.617C254.006 296.422 254.068 296.24 254.13 296.062C254.935 293.695 255.74 291.328 256.542 288.962C256.568 288.88 256.607 288.854 256.691 288.858C257.019 288.864 257.347 288.864 257.675 288.858C257.763 288.858 257.801 288.88 257.831 288.968C258.36 290.526 258.889 292.081 259.421 293.637C259.746 294.588 260.071 295.542 260.395 296.493C260.408 296.529 260.418 296.562 260.438 296.62L260.434 296.617ZM256 293.383H258.318C257.931 292.169 257.457 290.994 257.152 289.76C256.85 290.994 256.389 292.169 256 293.383Z" fill="#FF8A37"/>
<path d="M261.58 288.865H262.564V296.611H261.58V288.865Z" fill="#FF8A37"/>
</g>
<path d="M334.08 309.606L334.779 309L338.274 312.914L341.768 309L342.421 309.606L338.274 314.312L334.08 309.606Z" fill="#808080"/>
<path d="M242.568 161.284C242.568 191.264 218.264 215.568 188.284 215.568C158.304 215.568 134 191.264 134 161.284C134 131.304 158.304 107 188.284 107C218.264 107 242.568 131.304 242.568 161.284Z" fill="#272727"/>
<path fill-rule="evenodd" clip-rule="evenodd" d="M188.284 214.869C217.878 214.869 241.869 190.878 241.869 161.284C241.869 131.69 217.878 107.699 188.284 107.699C158.69 107.699 134.699 131.69 134.699 161.284C134.699 190.878 158.69 214.869 188.284 214.869ZM188.284 215.568C218.264 215.568 242.568 191.264 242.568 161.284C242.568 131.304 218.264 107 188.284 107C158.304 107 134 131.304 134 161.284C134 191.264 158.304 215.568 188.284 215.568Z" fill="#FF8B37"/>
<path d="M149.65 170.845H150.797L153.397 177.36H152.195L151.598 175.859H148.84L148.253 177.36H147.041L149.65 170.845ZM151.272 174.881L150.219 172.113L149.166 174.881H151.272Z" fill="white"/>
<path d="M154.792 170.845H155.975V177.36H154.792V170.845Z" fill="white"/>
<path d="M163.808 170.845H164.954L167.554 177.36H166.352L165.755 175.859H162.997L162.41 177.36H161.198L163.808 170.845ZM165.429 174.881L164.376 172.113L163.323 174.881H165.429Z" fill="white"/>
<path d="M168.949 170.473H170.123V177.36H168.949V170.473Z" fill="white"/>
<path d="M171.708 172.886H172.845V173.427C173.088 173.197 173.352 173.026 173.637 172.914C173.923 172.802 174.249 172.747 174.616 172.747C175.07 172.747 175.473 172.846 175.827 173.045C176.188 173.237 176.467 173.514 176.666 173.874C176.871 174.228 176.974 174.641 176.974 175.114C176.974 175.58 176.871 175.993 176.666 176.353C176.467 176.713 176.188 176.996 175.827 177.201C175.473 177.4 175.07 177.499 174.616 177.499C174.274 177.499 173.951 177.453 173.647 177.36C173.349 177.26 173.094 177.114 172.883 176.922V179.4H171.708V172.886ZM174.327 176.577C174.75 176.577 175.097 176.44 175.371 176.167C175.644 175.893 175.781 175.542 175.781 175.114C175.781 174.685 175.644 174.337 175.371 174.07C175.097 173.803 174.75 173.669 174.327 173.669C173.992 173.669 173.693 173.759 173.432 173.939C173.172 174.12 172.988 174.362 172.883 174.666V175.57C172.982 175.875 173.162 176.12 173.423 176.306C173.69 176.487 173.992 176.577 174.327 176.577Z" fill="white"/>
<path d="M178.372 170.473H179.546V173.455C179.969 172.983 180.515 172.747 181.186 172.747C181.789 172.747 182.239 172.911 182.538 173.24C182.836 173.564 182.985 173.995 182.985 174.536V177.36H181.811V174.648C181.811 173.995 181.506 173.669 180.897 173.669C180.63 173.669 180.379 173.734 180.143 173.865C179.907 173.989 179.708 174.179 179.546 174.433V177.36H178.372V170.473Z" fill="white"/>
<path d="M186.03 177.499C185.495 177.499 185.057 177.36 184.716 177.08C184.374 176.794 184.203 176.412 184.203 175.934C184.203 175.437 184.365 175.048 184.688 174.769C185.011 174.489 185.464 174.349 186.048 174.349C186.614 174.349 187.101 174.464 187.511 174.694V174.573C187.511 174.256 187.412 174.026 187.213 173.883C187.02 173.741 186.707 173.669 186.272 173.669C185.998 173.669 185.728 173.697 185.461 173.753C185.194 173.803 184.958 173.874 184.753 173.967V173.045C184.939 172.958 185.188 172.886 185.498 172.83C185.815 172.774 186.12 172.747 186.412 172.747C187.188 172.747 187.763 172.914 188.136 173.25C188.508 173.579 188.695 174.039 188.695 174.629V177.36H187.586V176.922C187.393 177.108 187.173 177.251 186.924 177.35C186.682 177.45 186.384 177.499 186.03 177.499ZM186.318 176.642C186.579 176.642 186.815 176.592 187.027 176.493C187.238 176.387 187.399 176.244 187.511 176.064V175.57C187.17 175.328 186.778 175.207 186.337 175.207C185.71 175.207 185.396 175.449 185.396 175.934C185.396 176.17 185.474 176.347 185.629 176.465C185.79 176.583 186.02 176.642 186.318 176.642Z" fill="white"/>
<path d="M195.652 171.824H193.685V170.845H198.801V171.824H196.835V177.36H195.652V171.824Z" fill="white"/>
<path d="M199.311 172.886H200.448V173.604C200.628 173.362 200.883 173.181 201.212 173.063C201.548 172.945 201.93 172.886 202.358 172.886V173.781C201.905 173.781 201.51 173.852 201.175 173.995C200.846 174.132 200.616 174.349 200.485 174.648V177.36H199.311V172.886Z" fill="white"/>
<path d="M204.793 177.499C204.259 177.499 203.821 177.36 203.479 177.08C203.138 176.794 202.967 176.412 202.967 175.934C202.967 175.437 203.128 175.048 203.452 174.769C203.775 174.489 204.228 174.349 204.812 174.349C205.377 174.349 205.865 174.464 206.275 174.694V174.573C206.275 174.256 206.176 174.026 205.977 173.883C205.784 173.741 205.471 173.669 205.036 173.669C204.762 173.669 204.492 173.697 204.225 173.753C203.958 173.803 203.722 173.874 203.517 173.967V173.045C203.703 172.958 203.952 172.886 204.262 172.83C204.579 172.774 204.884 172.747 205.176 172.747C205.952 172.747 206.527 172.914 206.9 173.25C207.272 173.579 207.459 174.039 207.459 174.629V177.36H206.35V176.922C206.157 177.108 205.937 177.251 205.688 177.35C205.446 177.45 205.148 177.499 204.793 177.499ZM205.082 176.642C205.343 176.642 205.579 176.592 205.791 176.493C206.002 176.387 206.163 176.244 206.275 176.064V175.57C205.934 175.328 205.542 175.207 205.101 175.207C204.474 175.207 204.16 175.449 204.16 175.934C204.16 176.17 204.237 176.347 204.393 176.465C204.554 176.583 204.784 176.642 205.082 176.642Z" fill="white"/>
<path d="M211.169 177.499C210.716 177.499 210.309 177.403 209.948 177.21C209.594 177.012 209.315 176.735 209.11 176.381C208.911 176.021 208.811 175.604 208.811 175.132C208.811 174.666 208.911 174.253 209.11 173.893C209.315 173.532 209.594 173.253 209.948 173.054C210.309 172.849 210.716 172.747 211.169 172.747C211.902 172.747 212.48 172.939 212.903 173.324V170.473H214.077V177.36H212.94V176.838C212.685 177.074 212.421 177.245 212.148 177.35C211.874 177.45 211.548 177.499 211.169 177.499ZM211.458 176.577C211.794 176.577 212.092 176.487 212.353 176.306C212.614 176.126 212.797 175.884 212.903 175.58V174.676C212.803 174.371 212.62 174.129 212.353 173.949C212.092 173.762 211.794 173.669 211.458 173.669C211.036 173.669 210.688 173.806 210.414 174.079C210.141 174.353 210.004 174.704 210.004 175.132C210.004 175.561 210.141 175.909 210.414 176.176C210.688 176.443 211.036 176.577 211.458 176.577Z" fill="white"/>
<path d="M216.323 172.104C216.137 172.104 215.978 172.041 215.848 171.917C215.723 171.793 215.661 171.638 215.661 171.451C215.661 171.265 215.723 171.109 215.848 170.985C215.978 170.855 216.137 170.79 216.323 170.79C216.509 170.79 216.668 170.855 216.798 170.985C216.929 171.109 216.994 171.265 216.994 171.451C216.994 171.638 216.929 171.793 216.798 171.917C216.668 172.041 216.509 172.104 216.323 172.104ZM215.727 172.886H216.919V177.36H215.727V172.886Z" fill="white"/>
<path d="M218.575 172.886H219.712V173.492C219.924 173.237 220.175 173.051 220.467 172.933C220.759 172.809 221.067 172.747 221.39 172.747C221.992 172.747 222.443 172.911 222.741 173.24C223.039 173.564 223.188 173.995 223.188 174.536V177.36H222.014V174.648C222.014 173.995 221.71 173.669 221.101 173.669C220.834 173.669 220.582 173.734 220.346 173.865C220.11 173.989 219.911 174.179 219.75 174.433V177.36H218.575V172.886Z" fill="white"/>
<path d="M227.096 179.503C226.798 179.503 226.5 179.475 226.202 179.419C225.904 179.363 225.655 179.289 225.456 179.195V178.263C225.941 178.475 226.488 178.58 227.096 178.58C227.643 178.58 228.035 178.465 228.271 178.236C228.513 178.006 228.634 177.664 228.634 177.21V176.922C228.423 177.114 228.171 177.26 227.879 177.36C227.587 177.453 227.273 177.499 226.938 177.499C226.484 177.499 226.074 177.4 225.708 177.201C225.341 176.996 225.056 176.713 224.85 176.353C224.645 175.993 224.543 175.58 224.543 175.114C224.543 174.641 224.642 174.228 224.841 173.874C225.046 173.514 225.326 173.237 225.68 173.045C226.04 172.846 226.447 172.747 226.901 172.747C227.28 172.747 227.606 172.799 227.879 172.905C228.153 173.004 228.417 173.172 228.671 173.408V172.886H229.808V177.089C229.808 177.86 229.585 178.453 229.137 178.869C228.696 179.292 228.016 179.503 227.096 179.503ZM227.19 176.577C227.525 176.577 227.823 176.487 228.084 176.306C228.351 176.12 228.535 175.875 228.634 175.57V174.666C228.528 174.362 228.345 174.12 228.084 173.939C227.823 173.759 227.525 173.669 227.19 173.669C226.767 173.669 226.419 173.803 226.146 174.07C225.872 174.337 225.736 174.685 225.736 175.114C225.736 175.542 225.872 175.893 226.146 176.167C226.419 176.44 226.767 176.577 227.19 176.577Z" fill="white"/>
<path d="M166.184 187.75C165.799 187.75 165.417 187.713 165.038 187.639C164.665 187.57 164.357 187.477 164.115 187.359V186.343C164.426 186.492 164.752 186.604 165.093 186.679C165.435 186.753 165.771 186.791 166.1 186.791C166.516 186.791 166.833 186.713 167.05 186.558C167.268 186.402 167.377 186.188 167.377 185.915C167.377 185.722 167.327 185.563 167.228 185.439C167.128 185.309 166.982 185.197 166.79 185.104C166.597 185.004 166.302 184.877 165.904 184.722C165.295 184.473 164.854 184.197 164.581 183.892C164.308 183.588 164.171 183.209 164.171 182.755C164.171 182.401 164.267 182.087 164.46 181.814C164.652 181.541 164.923 181.329 165.271 181.18C165.618 181.031 166.019 180.957 166.473 180.957C166.845 180.957 167.175 180.988 167.461 181.05C167.753 181.106 168.038 181.196 168.318 181.32V182.308C167.777 182.047 167.231 181.917 166.678 181.917C166.28 181.917 165.973 181.991 165.755 182.14C165.538 182.283 165.429 182.488 165.429 182.755C165.429 182.948 165.479 183.106 165.578 183.231C165.677 183.349 165.808 183.451 165.969 183.538C166.137 183.619 166.435 183.749 166.864 183.93C167.299 184.11 167.641 184.287 167.889 184.461C168.144 184.635 168.333 184.84 168.458 185.076C168.588 185.306 168.653 185.588 168.653 185.924C168.653 186.502 168.445 186.952 168.029 187.275C167.613 187.592 166.998 187.75 166.184 187.75Z" fill="white"/>
<path d="M171.526 187.75C171.035 187.75 170.662 187.614 170.407 187.34C170.153 187.067 170.025 186.682 170.025 186.185V184.032H169.354V183.137H170.025V181.795H171.2V183.137H172.271V184.032H171.2V186.036C171.2 186.321 171.252 186.526 171.358 186.651C171.464 186.769 171.656 186.828 171.936 186.828C172.128 186.828 172.318 186.784 172.504 186.697V187.592C172.237 187.698 171.911 187.75 171.526 187.75Z" fill="white"/>
<path d="M173.806 183.137H174.943V183.855C175.123 183.613 175.378 183.433 175.707 183.314C176.043 183.196 176.425 183.137 176.853 183.137V184.032C176.4 184.032 176.005 184.103 175.67 184.246C175.341 184.383 175.111 184.601 174.98 184.899V187.611H173.806V183.137Z" fill="white"/>
<path d="M179.289 187.75C178.754 187.75 178.316 187.611 177.975 187.331C177.633 187.045 177.462 186.663 177.462 186.185C177.462 185.688 177.624 185.299 177.947 185.02C178.27 184.74 178.723 184.601 179.307 184.601C179.873 184.601 180.36 184.715 180.77 184.945V184.824C180.77 184.507 180.671 184.277 180.472 184.135C180.28 183.992 179.966 183.92 179.531 183.92C179.258 183.92 178.987 183.948 178.72 184.004C178.453 184.054 178.217 184.125 178.012 184.218V183.296C178.198 183.209 178.447 183.137 178.757 183.081C179.074 183.026 179.379 182.998 179.671 182.998C180.447 182.998 181.022 183.165 181.395 183.501C181.768 183.83 181.954 184.29 181.954 184.88V187.611H180.845V187.173C180.652 187.359 180.432 187.502 180.183 187.601C179.941 187.701 179.643 187.75 179.289 187.75ZM179.578 186.893C179.838 186.893 180.075 186.843 180.286 186.744C180.497 186.638 180.659 186.495 180.77 186.315V185.821C180.429 185.579 180.037 185.458 179.596 185.458C178.969 185.458 178.655 185.7 178.655 186.185C178.655 186.421 178.733 186.598 178.888 186.716C179.049 186.834 179.279 186.893 179.578 186.893Z" fill="white"/>
<path d="M185.055 187.75C184.564 187.75 184.191 187.614 183.937 187.34C183.682 187.067 183.555 186.682 183.555 186.185V184.032H182.884V183.137H183.555V181.795H184.729V183.137H185.8V184.032H184.729V186.036C184.729 186.321 184.782 186.526 184.887 186.651C184.993 186.769 185.185 186.828 185.465 186.828C185.658 186.828 185.847 186.784 186.033 186.697V187.592C185.766 187.698 185.44 187.75 185.055 187.75Z" fill="white"/>
<path d="M189.851 187.75C189.019 187.75 188.36 187.542 187.876 187.126C187.391 186.71 187.149 186.129 187.149 185.383C187.149 184.65 187.363 184.069 187.792 183.641C188.221 183.212 188.833 182.998 189.628 182.998C190.15 182.998 190.594 183.097 190.96 183.296C191.333 183.495 191.613 183.768 191.799 184.116C191.986 184.458 192.079 184.849 192.079 185.29V185.831H188.267C188.348 186.495 188.926 186.828 190.001 186.828C190.286 186.828 190.578 186.803 190.877 186.753C191.175 186.704 191.436 186.635 191.659 186.548V187.452C191.448 187.539 191.175 187.611 190.839 187.667C190.51 187.722 190.181 187.75 189.851 187.75ZM190.97 185.029C190.957 184.675 190.83 184.402 190.588 184.209C190.352 184.017 190.025 183.92 189.609 183.92C189.199 183.92 188.876 184.02 188.64 184.218C188.404 184.417 188.28 184.687 188.267 185.029H190.97Z" fill="white"/>
<path d="M195.847 189.754C195.549 189.754 195.251 189.726 194.953 189.67C194.654 189.614 194.406 189.54 194.207 189.446V188.515C194.692 188.726 195.238 188.831 195.847 188.831C196.394 188.831 196.785 188.716 197.021 188.487C197.264 188.257 197.385 187.915 197.385 187.461V187.173C197.174 187.365 196.922 187.511 196.63 187.611C196.338 187.704 196.024 187.75 195.689 187.75C195.235 187.75 194.825 187.651 194.459 187.452C194.092 187.247 193.806 186.964 193.601 186.604C193.396 186.244 193.294 185.831 193.294 185.365C193.294 184.893 193.393 184.479 193.592 184.125C193.797 183.765 194.077 183.488 194.431 183.296C194.791 183.097 195.198 182.998 195.651 182.998C196.03 182.998 196.357 183.05 196.63 183.156C196.903 183.255 197.167 183.423 197.422 183.659V183.137H198.559V187.34C198.559 188.111 198.335 188.704 197.888 189.12C197.447 189.543 196.767 189.754 195.847 189.754ZM195.94 186.828C196.276 186.828 196.574 186.738 196.835 186.558C197.102 186.371 197.285 186.126 197.385 185.821V184.917C197.279 184.613 197.096 184.371 196.835 184.19C196.574 184.01 196.276 183.92 195.94 183.92C195.518 183.92 195.17 184.054 194.897 184.321C194.623 184.588 194.487 184.936 194.487 185.365C194.487 185.793 194.623 186.144 194.897 186.418C195.17 186.691 195.518 186.828 195.94 186.828Z" fill="white"/>
<path d="M200.805 182.355C200.619 182.355 200.461 182.292 200.33 182.168C200.206 182.044 200.144 181.889 200.144 181.702C200.144 181.516 200.206 181.361 200.33 181.236C200.461 181.106 200.619 181.041 200.805 181.041C200.992 181.041 201.15 181.106 201.281 181.236C201.411 181.361 201.476 181.516 201.476 181.702C201.476 181.889 201.411 182.044 201.281 182.168C201.15 182.292 200.992 182.355 200.805 182.355ZM200.209 183.137H201.402V187.611H200.209V183.137Z" fill="white"/>
<path d="M205.574 187.75C204.741 187.75 204.083 187.542 203.598 187.126C203.114 186.71 202.871 186.129 202.871 185.383C202.871 184.65 203.086 184.069 203.514 183.641C203.943 183.212 204.555 182.998 205.35 182.998C205.872 182.998 206.316 183.097 206.683 183.296C207.056 183.495 207.335 183.768 207.522 184.116C207.708 184.458 207.801 184.849 207.801 185.29V185.831H203.99C204.07 186.495 204.648 186.828 205.723 186.828C206.009 186.828 206.301 186.803 206.599 186.753C206.897 186.704 207.158 186.635 207.382 186.548V187.452C207.171 187.539 206.897 187.611 206.562 187.667C206.232 187.722 205.903 187.75 205.574 187.75ZM206.692 185.029C206.68 184.675 206.552 184.402 206.31 184.209C206.074 184.017 205.748 183.92 205.332 183.92C204.922 183.92 204.599 184.02 204.362 184.218C204.126 184.417 204.002 184.687 203.99 185.029H206.692Z" fill="white"/>
<path d="M210.945 187.75C210.622 187.75 210.277 187.713 209.911 187.639C209.544 187.564 209.258 187.461 209.053 187.331V186.334C209.296 186.483 209.585 186.604 209.92 186.697C210.256 186.784 210.572 186.828 210.871 186.828C211.169 186.828 211.386 186.803 211.523 186.753C211.66 186.697 211.728 186.598 211.728 186.455C211.728 186.343 211.691 186.253 211.616 186.185C211.548 186.11 211.433 186.045 211.271 185.989C211.116 185.927 210.874 185.852 210.545 185.765C210.172 185.66 209.877 185.551 209.659 185.439C209.448 185.327 209.286 185.188 209.175 185.02C209.069 184.846 209.016 184.622 209.016 184.349C209.016 183.902 209.193 183.566 209.547 183.342C209.902 183.113 210.38 182.998 210.983 182.998C211.293 182.998 211.601 183.029 211.905 183.091C212.216 183.147 212.458 183.227 212.632 183.333V184.293C212.446 184.181 212.219 184.091 211.952 184.023C211.685 183.954 211.411 183.92 211.132 183.92C210.827 183.92 210.597 183.951 210.442 184.013C210.287 184.069 210.209 184.181 210.209 184.349C210.209 184.461 210.249 184.551 210.33 184.619C210.417 184.681 210.529 184.737 210.666 184.787C210.802 184.83 211.051 184.899 211.411 184.992C211.796 185.098 212.098 185.212 212.315 185.337C212.533 185.461 212.688 185.61 212.781 185.784C212.874 185.958 212.921 186.175 212.921 186.436C212.921 186.834 212.75 187.154 212.408 187.396C212.073 187.632 211.585 187.75 210.945 187.75Z" fill="white"/>
<g clip-path="url(#clip5_1491_14495)">
<path d="M172.674 139.622C172.873 139.195 173.011 138.729 173.283 138.358C173.897 137.517 175.016 137.234 175.963 137.722C176.447 137.971 176.741 137.892 177.138 137.596C179.174 136.097 181.222 134.615 183.284 133.155C183.686 132.872 183.859 132.606 183.811 132.07C183.69 130.706 184.727 129.6 186.041 129.587C187.372 129.573 188.466 130.733 188.31 132.114C188.245 132.689 188.418 132.985 188.855 133.26C189.183 133.465 189.495 133.704 189.784 133.962C190.324 134.445 190.821 134.663 191.625 134.419C192.204 134.24 192.935 134.559 193.786 134.685C195.925 132.811 198.246 130.781 200.558 128.737C200.684 128.624 200.8 128.419 200.805 128.253C200.844 126.114 201.025 125.83 202.823 125.168H203.156C203.311 125.225 203.463 125.286 203.618 125.334C204.958 125.765 205.624 127.12 205.127 128.401C204.647 129.63 203.251 130.188 202.024 129.63C201.872 129.56 201.734 129.469 201.531 129.356C199.634 131.011 197.732 132.68 195.826 134.345C195.614 134.528 195.42 134.733 195.195 134.894C194.568 135.347 194.197 135.818 194.283 136.733C194.395 137.966 193.185 138.986 191.949 138.934C190.661 138.877 189.676 137.761 189.775 136.458C189.797 136.158 189.892 135.861 189.97 135.474C189.3 134.968 188.609 134.415 187.882 133.914C187.727 133.809 187.407 133.8 187.238 133.887C186.43 134.315 185.665 134.306 184.853 133.887C184.645 133.783 184.256 133.805 184.066 133.94C181.884 135.482 179.723 137.047 177.57 138.629C177.411 138.746 177.259 139.021 177.268 139.208C177.367 140.803 176.775 141.779 175.479 142.067C174.264 142.337 173.249 141.609 172.743 140.106C172.726 140.053 172.695 140.006 172.674 139.953V139.618V139.622ZM187.251 131.866C187.23 131.19 186.672 130.676 185.994 130.706C185.363 130.737 184.849 131.269 184.849 131.9C184.849 132.563 185.402 133.107 186.072 133.099C186.75 133.09 187.277 132.537 187.256 131.861L187.251 131.866ZM193.229 136.628C193.229 135.944 192.701 135.413 192.023 135.421C191.392 135.43 190.86 135.944 190.839 136.576C190.813 137.247 191.34 137.805 192.014 137.818C192.701 137.835 193.229 137.317 193.233 136.628H193.229ZM203 126.349C202.33 126.349 201.799 126.885 201.807 127.569C201.812 128.257 202.339 128.767 203.031 128.75C203.683 128.732 204.167 128.244 204.18 127.582C204.193 126.898 203.675 126.353 203 126.349ZM176.226 139.766C176.205 139.077 175.669 138.576 174.982 138.607C174.351 138.637 173.845 139.165 173.841 139.801C173.841 140.476 174.377 141.008 175.055 140.999C175.742 140.99 176.244 140.463 176.226 139.766Z" fill="#FD8A42"/>
<path d="M172.674 157.941C173.028 157.828 173.383 157.623 173.737 157.623C183.608 157.606 193.475 157.61 203.346 157.61C203.774 157.61 204.353 157.501 204.327 158.176C204.301 158.834 203.722 158.708 203.299 158.708C195.23 158.712 187.165 158.712 179.096 158.712C177.32 158.712 175.548 158.726 173.772 158.699C173.404 158.695 173.041 158.529 172.674 158.442C172.674 158.272 172.674 158.107 172.674 157.937V157.941Z" fill="#FD8A42"/>
<path d="M197.978 145.849C197.978 142.576 198 139.304 197.965 136.031C197.956 135.251 198.229 134.985 198.976 135.016C200.113 135.06 201.25 135.047 202.386 135.016C203.048 134.999 203.333 135.221 203.333 135.931C203.316 142.502 203.316 149.074 203.333 155.645C203.333 156.333 203.078 156.603 202.399 156.586C201.263 156.556 200.126 156.547 198.989 156.586C198.237 156.612 197.961 156.346 197.965 155.571C197.995 152.329 197.978 149.082 197.978 145.84V145.849ZM202.149 155.427V136.162H199.097V155.427H202.149Z" fill="#FD8A42"/>
<path d="M187.35 147.457C187.35 150.172 187.333 152.887 187.363 155.602C187.372 156.316 187.143 156.626 186.408 156.599C185.246 156.56 184.079 156.573 182.912 156.599C182.29 156.613 182 156.386 182 155.724C182.013 150.211 182.013 144.699 182 139.182C182 138.577 182.238 138.306 182.834 138.311C184.053 138.319 185.276 138.328 186.495 138.311C187.152 138.302 187.359 138.607 187.355 139.235C187.337 141.975 187.346 144.721 187.346 147.462L187.35 147.457ZM186.231 155.427V139.505H183.171V155.427H186.231Z" fill="#FD8A42"/>
<path d="M179.368 150.027C179.368 151.901 179.351 153.779 179.377 155.653C179.385 156.341 179.135 156.612 178.452 156.594C177.259 156.564 176.066 156.572 174.873 156.594C174.277 156.603 174.018 156.35 174.018 155.744C174.026 151.879 174.026 148.018 174.018 144.153C174.018 143.587 174.273 143.338 174.826 143.343C176.045 143.351 177.268 143.36 178.486 143.338C179.126 143.325 179.377 143.587 179.372 144.236C179.351 146.166 179.364 148.101 179.364 150.032L179.368 150.027ZM175.184 144.502V155.396H178.253V144.502H175.184Z" fill="#FD8A42"/>
<path d="M195.333 150.882C195.333 152.451 195.303 154.019 195.346 155.584C195.368 156.368 195.061 156.621 194.313 156.595C193.176 156.555 192.04 156.568 190.899 156.59C190.285 156.603 189.978 156.398 189.982 155.723C190 152.446 190 149.174 189.982 145.897C189.982 145.234 190.259 145.003 190.886 145.012C192.079 145.034 193.271 145.034 194.464 145.012C195.113 144.999 195.346 145.287 195.337 145.927C195.311 147.579 195.329 149.23 195.329 150.882H195.333ZM194.201 155.427V146.215H191.136V155.427H194.201Z" fill="#FD8A42"/>
</g>
<path d="M132 461.95C132 458.111 135.125 455 138.98 455H243.161C247.016 455 250.142 458.111 250.142 461.95V503.646C250.142 507.485 247.016 510.596 243.161 510.596H138.98C135.125 510.596 132 507.485 132 503.646V461.95Z" fill="#272727"/>
<path fill-rule="evenodd" clip-rule="evenodd" d="M133.348 450.7C129.676 450.7 126.7 453.68 126.7 457.355V481.87C126.7 482.064 126.543 482.22 126.35 482.22C126.157 482.22 126 482.064 126 481.87V457.355C126 453.293 129.29 450 133.348 450H155.975C156.168 450 156.325 450.157 156.325 450.35C156.325 450.544 156.168 450.7 155.975 450.7H133.348Z" fill="#FD8A42"/>
<g clip-path="url(#clip6_1491_14495)">
<path d="M155.918 469.682C156.413 469.751 156.909 469.803 157.4 469.892C160.156 470.397 162.423 471.738 164.208 473.896C164.276 473.979 164.344 474.06 164.448 474.184C164.687 473.931 164.922 473.698 165.131 473.446C165.177 473.391 165.163 473.251 165.129 473.171C164.786 472.359 165.043 471.437 165.763 470.931C166.469 470.435 167.461 470.513 168.074 471.139C168.245 471.313 168.387 471.534 168.48 471.759C168.558 471.948 168.656 471.987 168.837 471.985C169.579 471.977 170.322 471.981 171.065 471.981C171.161 471.981 171.257 471.981 171.369 471.981V472.897C171.277 472.897 171.183 472.897 171.089 472.897C170.319 472.897 169.55 472.901 168.78 472.893C168.621 472.892 168.55 472.942 168.492 473.093C168.112 474.077 167.021 474.53 166.067 474.097C165.915 474.028 165.831 474.042 165.724 474.158C165.529 474.368 165.329 474.574 165.116 474.765C164.979 474.887 164.991 474.982 165.082 475.126C165.91 476.456 166.444 477.896 166.671 479.446C167.004 481.728 166.686 483.918 165.704 486.005C165.521 486.393 165.312 486.769 165.087 487.133C164.978 487.309 165.009 487.402 165.144 487.536C166.958 489.342 168.767 491.151 170.574 492.962C171.282 493.671 171.567 494.509 171.259 495.484C170.974 496.386 170.333 496.921 169.411 497.123C169.351 497.136 169.294 497.156 169.236 497.172H168.752C167.95 497.068 167.386 496.58 166.841 496.03C165.162 494.331 163.464 492.65 161.78 490.955C161.623 490.796 161.511 490.763 161.311 490.889C160.133 491.631 158.852 492.124 157.488 492.38C155.489 492.754 153.516 492.615 151.591 491.947C149.703 491.291 148.096 490.21 146.769 488.712C145.435 487.207 144.556 485.474 144.145 483.507C144.051 483.062 144.011 482.606 143.945 482.155C143.931 482.059 143.909 481.964 143.891 481.869V480.473C143.907 480.405 143.934 480.338 143.938 480.269C144.056 478.612 144.504 477.046 145.323 475.605C147.086 472.505 149.728 470.596 153.23 469.891C153.692 469.798 154.163 469.75 154.63 469.682H155.918ZM165.887 481.111C165.844 475.204 161.082 470.467 155.102 470.584C149.375 470.696 144.681 475.387 144.797 481.361C144.907 487.043 149.55 491.767 155.555 491.659C161.284 491.556 165.851 486.928 165.887 481.111ZM164.279 492.158C164.331 492.213 164.391 492.278 164.453 492.34C165.565 493.453 166.678 494.565 167.791 495.677C167.886 495.771 167.984 495.864 168.089 495.947C168.699 496.43 169.582 496.348 170.097 495.764C170.653 495.134 170.596 494.284 169.943 493.629C168.821 492.501 167.693 491.378 166.569 490.252C166.501 490.184 166.452 490.096 166.402 490.029C165.675 490.758 164.989 491.447 164.28 492.159L164.279 492.158ZM162.511 490.282C162.821 490.592 163.235 491.005 163.611 491.381C164.273 490.726 164.963 490.043 165.636 489.376C165.239 488.98 164.828 488.571 164.519 488.263C163.849 488.937 163.164 489.625 162.511 490.282L162.511 490.282ZM166.803 473.343C167.303 473.342 167.71 472.943 167.719 472.447C167.727 471.952 167.298 471.517 166.8 471.517C166.295 471.517 165.887 471.938 165.894 472.449C165.9 472.953 166.298 473.344 166.803 473.342V473.343Z" fill="#FF8B37"/>
<path d="M145.731 481.142C145.78 475.821 149.964 471.534 155.34 471.529C160.712 471.524 164.957 475.808 164.963 481.149C164.97 486.47 160.638 490.77 155.349 490.75C150.049 490.731 145.784 486.519 145.73 481.142H145.731ZM162.948 476.932C162.664 477.219 162.407 477.492 162.135 477.746C162.004 477.869 161.984 477.961 162.061 478.133C162.503 479.12 161.968 480.261 160.932 480.589C160.416 480.751 159.93 480.674 159.456 480.42C158.489 481.39 157.534 482.345 156.587 483.308C156.535 483.361 156.54 483.492 156.554 483.58C156.6 483.868 156.722 484.157 156.707 484.44C156.667 485.216 156.261 485.775 155.532 486.048C154.801 486.322 154.123 486.169 153.585 485.609C153.032 485.034 152.912 484.343 153.235 483.603C153.303 483.447 153.271 483.365 153.164 483.259C152.572 482.674 151.981 482.088 151.4 481.493C151.281 481.371 151.194 481.36 151.037 481.431C150.23 481.796 149.207 481.542 148.817 480.758C148.559 480.239 148.241 480.166 147.763 480.212C147.479 480.239 147.19 480.216 146.904 480.218C146.837 480.218 146.77 480.235 146.708 480.243C146.322 483.905 148.289 487.561 151.906 489.122C155.253 490.566 159.128 489.82 161.689 487.098C164.398 484.218 164.709 480.07 162.948 476.932V476.932ZM162.45 476.16C160.738 473.603 157.349 471.9 153.741 472.592C149.932 473.322 147.447 476.327 146.875 479.301C147.396 479.301 147.914 479.307 148.431 479.293C148.494 479.291 148.58 479.188 148.611 479.113C149.002 478.143 150.066 477.681 151.02 478.075C151.963 478.464 152.401 479.567 151.971 480.511C151.897 480.672 151.941 480.746 152.045 480.849C152.63 481.428 153.214 482.008 153.789 482.596C153.913 482.723 154.004 482.757 154.176 482.675C154.644 482.451 155.133 482.446 155.601 482.67C155.788 482.759 155.883 482.712 156.011 482.583C156.651 481.933 157.298 481.29 157.945 480.647C158.235 480.357 158.53 480.072 158.751 479.856C158.681 479.424 158.552 479.071 158.581 478.732C158.696 477.393 159.927 476.688 161.178 477.199C161.245 477.227 161.372 477.206 161.424 477.157C161.77 476.835 162.105 476.499 162.451 476.159L162.45 476.16ZM150.322 478.856C149.816 478.853 149.416 479.24 149.406 479.744C149.396 480.256 149.8 480.677 150.307 480.682C150.804 480.687 151.235 480.256 151.231 479.759C151.227 479.264 150.819 478.859 150.322 478.856ZM154.892 485.255C155.4 485.256 155.815 484.84 155.809 484.334C155.803 483.839 155.392 483.432 154.897 483.431C154.402 483.429 153.99 483.833 153.984 484.329C153.978 484.843 154.382 485.254 154.892 485.256L154.892 485.255ZM161.3 478.85C161.3 478.345 160.909 477.946 160.407 477.94C159.895 477.934 159.476 478.343 159.475 478.847C159.475 479.346 159.907 479.774 160.403 479.766C160.899 479.758 161.299 479.349 161.3 478.85Z" fill="#FF8B37"/>
</g>
<path d="M184.653 467.363H185.566L188.166 473.877H187.197L186.545 472.256H183.665L183.031 473.877H182.053L184.653 467.363ZM186.284 471.463L185.109 468.416L183.935 471.463H186.284Z" fill="#FD8A42"/>
<path d="M189.658 467.363H190.618V473.877H189.658V467.363Z" fill="#FD8A42"/>
<path d="M198.628 467.363H199.541L202.141 473.877H201.172L200.52 472.256H197.64L197.006 473.877H196.028L198.628 467.363ZM200.259 471.463L199.084 468.416L197.91 471.463H200.259Z" fill="#FD8A42"/>
<path d="M203.633 466.99H204.574V473.877H203.633V466.99Z" fill="#FD8A42"/>
<path d="M206.256 469.404H207.169V470.066C207.629 469.531 208.25 469.264 209.033 469.264C209.48 469.264 209.881 469.364 210.235 469.562C210.596 469.761 210.875 470.041 211.074 470.401C211.279 470.755 211.381 471.168 211.381 471.64C211.381 472.106 211.279 472.52 211.074 472.88C210.875 473.24 210.599 473.52 210.245 473.719C209.89 473.917 209.487 474.017 209.033 474.017C208.66 474.017 208.312 473.955 207.989 473.83C207.666 473.706 207.402 473.523 207.197 473.281V475.918H206.256V469.404ZM208.819 473.271C209.123 473.271 209.397 473.206 209.639 473.076C209.887 472.939 210.08 472.746 210.217 472.498C210.359 472.249 210.431 471.964 210.431 471.64C210.431 471.317 210.359 471.035 210.217 470.792C210.08 470.544 209.887 470.354 209.639 470.224C209.397 470.087 209.123 470.019 208.819 470.019C208.44 470.019 208.104 470.118 207.812 470.317C207.526 470.516 207.321 470.789 207.197 471.137V472.144C207.303 472.485 207.505 472.759 207.803 472.964C208.101 473.169 208.44 473.271 208.819 473.271Z" fill="#FD8A42"/>
<path d="M212.874 466.99H213.815V470.019C214.244 469.516 214.816 469.264 215.53 469.264C216.126 469.264 216.571 469.423 216.863 469.739C217.155 470.056 217.301 470.482 217.301 471.016V473.877H216.359V471.109C216.359 470.382 216.011 470.019 215.316 470.019C215.017 470.019 214.738 470.09 214.477 470.233C214.222 470.37 214.002 470.581 213.815 470.867V473.877H212.874V466.99Z" fill="#FD8A42"/>
<path d="M220.394 474.017C219.854 474.017 219.419 473.88 219.09 473.607C218.766 473.327 218.605 472.951 218.605 472.479C218.605 471.982 218.76 471.6 219.071 471.333C219.388 471.06 219.835 470.923 220.413 470.923C221.028 470.923 221.55 471.047 221.978 471.296V471.063C221.978 470.709 221.87 470.448 221.652 470.28C221.441 470.106 221.106 470.019 220.646 470.019C220.372 470.019 220.105 470.047 219.844 470.103C219.59 470.153 219.36 470.224 219.155 470.317V469.553C219.341 469.466 219.583 469.398 219.882 469.348C220.18 469.292 220.469 469.264 220.748 469.264C221.488 469.264 222.034 469.429 222.389 469.758C222.749 470.081 222.929 470.532 222.929 471.109V473.877H222.044V473.374C221.851 473.585 221.621 473.747 221.354 473.858C221.093 473.964 220.773 474.017 220.394 474.017ZM220.627 473.299C220.925 473.299 221.196 473.24 221.438 473.122C221.68 473.004 221.86 472.84 221.978 472.628V472.023C221.575 471.762 221.124 471.631 220.627 471.631C220.267 471.631 219.997 471.703 219.816 471.846C219.642 471.982 219.555 472.193 219.555 472.479C219.555 473.026 219.913 473.299 220.627 473.299Z" fill="#FD8A42"/>
<path d="M224.992 467.223H225.924L225.187 469.04H224.377L224.992 467.223Z" fill="#FD8A42"/>
<path d="M228.735 474.017C228.425 474.017 228.095 473.977 227.747 473.896C227.399 473.821 227.126 473.719 226.927 473.588V472.787C227.17 472.93 227.449 473.048 227.766 473.141C228.083 473.228 228.39 473.271 228.689 473.271C229.024 473.271 229.27 473.231 229.425 473.15C229.58 473.069 229.658 472.939 229.658 472.759C229.658 472.622 229.621 472.513 229.546 472.433C229.478 472.346 229.357 472.268 229.183 472.2C229.015 472.131 228.76 472.051 228.418 471.957C228.052 471.852 227.76 471.746 227.542 471.64C227.331 471.529 227.17 471.389 227.058 471.221C226.952 471.053 226.899 470.836 226.899 470.569C226.899 470.14 227.067 469.817 227.403 469.6C227.744 469.376 228.201 469.264 228.773 469.264C229.071 469.264 229.363 469.292 229.649 469.348C229.934 469.404 230.164 469.482 230.338 469.581V470.364C230.158 470.258 229.934 470.174 229.667 470.112C229.406 470.05 229.139 470.019 228.866 470.019C228.536 470.019 228.285 470.059 228.111 470.14C227.937 470.221 227.85 470.364 227.85 470.569C227.85 470.699 227.887 470.805 227.962 470.886C228.036 470.966 228.154 471.038 228.316 471.1C228.484 471.156 228.748 471.23 229.108 471.324C229.673 471.479 230.065 471.662 230.282 471.873C230.506 472.085 230.618 472.377 230.618 472.749C230.618 473.135 230.459 473.442 230.142 473.672C229.826 473.902 229.357 474.017 228.735 474.017Z" fill="#FD8A42"/>
<path d="M183.878 480.128H181.787V478.827H187.528V480.128H185.436V485.992H183.878V480.128Z" fill="#FD8A42"/>
<path d="M188.679 478.827H191.785C192.598 478.827 193.23 479.032 193.681 479.442C194.139 479.845 194.368 480.429 194.368 481.195C194.368 481.728 194.245 482.182 193.999 482.558C193.753 482.927 193.405 483.197 192.954 483.368L194.317 485.992H192.718L191.457 483.563H190.237V485.992H188.679V478.827ZM191.508 482.261C191.905 482.261 192.216 482.175 192.441 482.004C192.673 481.833 192.79 481.564 192.79 481.195C192.79 480.805 192.677 480.532 192.451 480.374C192.226 480.21 191.911 480.128 191.508 480.128H190.237V482.261H191.508Z" fill="#FD8A42"/>
<path d="M197.907 478.827H199.434L202.294 485.992H200.705L200.09 484.434H197.251L196.636 485.992H195.036L197.907 478.827ZM199.68 483.193L198.665 480.467L197.65 483.193H199.68Z" fill="#FD8A42"/>
<path d="M203.626 478.827H206.117C206.896 478.827 207.576 478.97 208.157 479.257C208.738 479.544 209.185 479.954 209.5 480.487C209.814 481.02 209.971 481.649 209.971 482.373C209.971 483.562 209.623 484.465 208.926 485.08C208.236 485.688 207.272 485.992 206.035 485.992H203.626V478.827ZM206.117 484.69C206.848 484.69 207.409 484.485 207.798 484.075C208.188 483.665 208.382 483.098 208.382 482.373C208.382 481.943 208.297 481.557 208.126 481.215C207.955 480.873 207.706 480.607 207.378 480.415C207.05 480.224 206.664 480.128 206.219 480.128H205.184V484.69H206.117Z" fill="#FD8A42"/>
<path d="M211.3 478.827H212.858V485.992H211.3V478.827Z" fill="#FD8A42"/>
<path d="M214.399 478.827H215.916L218.909 483.46V478.827H220.467V485.992H218.96L215.957 481.359V485.992H214.399V478.827Z" fill="#FD8A42"/>
<path d="M225.672 486.146C224.907 486.146 224.23 485.995 223.642 485.695C223.055 485.387 222.6 484.953 222.279 484.393C221.958 483.832 221.797 483.173 221.797 482.414C221.797 481.656 221.958 480.996 222.279 480.436C222.6 479.869 223.055 479.435 223.642 479.134C224.23 478.827 224.907 478.673 225.672 478.673C226.191 478.673 226.649 478.727 227.046 478.837C227.449 478.939 227.818 479.103 228.153 479.329V480.815C227.852 480.569 227.507 480.392 227.117 480.282C226.735 480.166 226.297 480.108 225.805 480.108C225.347 480.108 224.934 480.204 224.565 480.395C224.203 480.579 223.916 480.846 223.704 481.195C223.492 481.543 223.386 481.95 223.386 482.414C223.386 482.886 223.482 483.299 223.673 483.655C223.871 484.003 224.148 484.273 224.503 484.465C224.859 484.656 225.269 484.752 225.734 484.752C226.157 484.752 226.526 484.676 226.841 484.526V483.142H225.682V481.994H228.348V485.449C227.671 485.913 226.779 486.146 225.672 486.146Z" fill="#FD8A42"/>
<path d="M184.832 490.941H186.359L189.219 498.107H187.63L187.015 496.549H184.176L183.561 498.107H181.961L184.832 490.941ZM186.605 495.308L185.59 492.582L184.575 495.308H186.605Z" fill="#FD8A42"/>
<path d="M190.551 490.941H192.068L195.061 495.575V490.941H196.62V498.107H195.113L192.109 493.473V498.107H190.551V490.941Z" fill="#FD8A42"/>
<path d="M200.82 490.941H202.347L205.207 498.107H203.618L203.003 496.549H200.164L199.549 498.107H197.95L200.82 490.941ZM202.593 495.308L201.578 492.582L200.564 495.308H202.593Z" fill="#FD8A42"/>
<path d="M206.539 490.941H208.097V496.805H211.378V498.107H206.539V490.941Z" fill="#FD8A42"/>
<path d="M213.649 495.38L211.025 490.941H212.685L214.418 493.924L216.212 490.941H217.862L215.176 495.38V498.107H213.649V495.38Z" fill="#FD8A42"/>
<path d="M220.686 498.261C220.248 498.261 219.814 498.22 219.384 498.138C218.953 498.056 218.601 497.946 218.328 497.81V496.436C218.69 496.614 219.066 496.747 219.456 496.836C219.845 496.925 220.218 496.969 220.573 496.969C220.969 496.969 221.27 496.901 221.475 496.764C221.68 496.627 221.783 496.436 221.783 496.19C221.783 496.012 221.731 495.862 221.629 495.739C221.526 495.616 221.376 495.507 221.178 495.411C220.986 495.308 220.689 495.175 220.286 495.011C219.616 494.738 219.131 494.434 218.83 494.099C218.53 493.757 218.379 493.337 218.379 492.838C218.379 492.435 218.489 492.079 218.707 491.772C218.926 491.457 219.233 491.215 219.63 491.044C220.026 490.873 220.484 490.788 221.003 490.788C221.427 490.788 221.803 490.822 222.131 490.89C222.459 490.958 222.78 491.064 223.095 491.208V492.541C222.493 492.24 221.892 492.09 221.291 492.09C220.908 492.09 220.607 492.158 220.388 492.295C220.17 492.424 220.06 492.612 220.06 492.858C220.06 493.036 220.112 493.183 220.214 493.299C220.317 493.415 220.46 493.518 220.645 493.607C220.829 493.696 221.13 493.825 221.547 493.996C222.032 494.201 222.411 494.399 222.685 494.591C222.958 494.775 223.16 494.997 223.289 495.257C223.419 495.51 223.484 495.824 223.484 496.2C223.484 496.849 223.248 497.355 222.777 497.717C222.312 498.08 221.615 498.261 220.686 498.261Z" fill="#FD8A42"/>
<path d="M224.825 490.941H226.383V498.107H224.825V490.941Z" fill="#FD8A42"/>
<path d="M230.077 498.261C229.639 498.261 229.205 498.22 228.775 498.138C228.344 498.056 227.992 497.946 227.719 497.81V496.436C228.081 496.614 228.457 496.747 228.847 496.836C229.236 496.925 229.609 496.969 229.964 496.969C230.36 496.969 230.661 496.901 230.866 496.764C231.071 496.627 231.174 496.436 231.174 496.19C231.174 496.012 231.122 495.862 231.02 495.739C230.917 495.616 230.767 495.507 230.569 495.411C230.377 495.308 230.08 495.175 229.677 495.011C229.007 494.738 228.522 494.434 228.221 494.099C227.921 493.757 227.77 493.337 227.77 492.838C227.77 492.435 227.88 492.079 228.098 491.772C228.317 491.457 228.625 491.215 229.021 491.044C229.417 490.873 229.875 490.788 230.395 490.788C230.818 490.788 231.194 490.822 231.522 490.89C231.85 490.958 232.171 491.064 232.486 491.208V492.541C231.884 492.24 231.283 492.09 230.682 492.09C230.299 492.09 229.998 492.158 229.779 492.295C229.561 492.424 229.451 492.612 229.451 492.858C229.451 493.036 229.503 493.183 229.605 493.299C229.708 493.415 229.851 493.518 230.036 493.607C230.22 493.696 230.521 493.825 230.938 493.996C231.423 494.201 231.802 494.399 232.076 494.591C232.349 494.775 232.551 494.997 232.681 495.257C232.81 495.51 232.875 495.824 232.875 496.2C232.875 496.849 232.64 497.355 232.168 497.717C231.703 498.08 231.006 498.261 230.077 498.261Z" fill="#FD8A42"/>
<path d="M235.754 500.84L236.453 500.234L239.948 504.148L243.442 500.234L244.095 500.84L239.948 505.546L235.754 500.84Z" fill="#808080"/>
<defs>
<clipPath id="clip0_1491_14495">
<rect width="7.8" height="279.2" fill="white" transform="translate(192.801 473.199) rotate(-180)"/>
</clipPath>
<clipPath id="clip1_1491_14495">
<rect width="114.6" height="136.7" fill="white" transform="translate(58 158)"/>
</clipPath>
<clipPath id="clip2_1491_14495">
<rect width="114.6" height="136.7" fill="white" transform="matrix(-1 -8.74228e-08 -8.74228e-08 1 318.6 158)"/>
</clipPath>
<clipPath id="clip3_1491_14495">
<rect width="31.6852" height="31.6852" fill="white" transform="translate(49.0664 274.996)"/>
</clipPath>
<clipPath id="clip4_1491_14495">
<rect width="35.4128" height="35.4128" fill="white" transform="translate(240.553 275.031)"/>
</clipPath>
<clipPath id="clip5_1491_14495">
<rect width="32.6171" height="33.549" fill="white" transform="translate(172.674 125.172)"/>
</clipPath>
<clipPath id="clip6_1491_14495">
<rect width="27.4915" height="27.4915" fill="white" transform="translate(143.891 469.682)"/>
</clipPath>
</defs>
</svg>
