<svg width="53" height="52" viewBox="0 0 53 52" fill="none" xmlns="http://www.w3.org/2000/svg">
<g clip-path="url(#clip0_82_136)">
<path d="M0.142981 25.9101C0.142981 21.6552 -0.209365 17.3653 0.219578 13.153C0.985548 5.63496 7.33544 0.168003 15.0283 0.0728384C22.6446 -0.0223263 30.2635 -0.0223263 37.8798 0.0728384C46.2875 0.175516 52.7932 6.62668 52.9157 14.9962C53.023 22.3814 53.0306 29.7717 52.9157 37.1595C52.783 45.6918 46.0016 52.0253 37.2644 52.0027C30.1154 51.9852 22.9663 51.9952 15.8173 52.0027C6.64606 52.0077 0 45.5215 0 36.556C0 33.0073 0 29.4612 0 25.9126C0.0485114 25.9126 0.0970228 25.9126 0.142981 25.9126V25.9101ZM47.605 26.1354C47.605 22.5868 47.605 19.0407 47.605 15.492C47.605 9.51668 43.3641 5.3069 37.2695 5.28937C30.0796 5.26933 22.8872 5.26933 15.6973 5.28937C9.59505 5.30439 5.33626 9.48914 5.32349 15.4645C5.31072 22.4766 5.31072 29.4888 5.32349 36.4984C5.3337 42.6265 9.59249 46.7687 15.8556 46.7687C22.9612 46.7687 30.0669 46.7687 37.1751 46.7687C43.3437 46.7687 47.5795 42.6115 47.5999 36.5284C47.6127 33.0649 47.5999 29.6014 47.605 26.1354Z" fill="url(#paint0_linear_82_136)"/>
<path d="M26.5996 14.0344C33.3886 14.0869 38.7759 19.5339 38.7045 26.273C38.6355 32.8419 33.0644 38.106 26.2447 38.0459C19.5144 37.9858 14.1628 32.5614 14.2241 25.8648C14.2853 19.2409 19.785 13.9818 26.5996 14.0318V14.0344ZM26.4311 32.584C30.0822 32.599 33.1027 29.6714 33.1256 26.0927C33.1486 22.5015 30.1792 19.5264 26.5409 19.4988C22.7876 19.4713 19.8054 22.3638 19.7952 26.0451C19.785 29.6288 22.7646 32.5664 26.4311 32.5815V32.584Z" fill="url(#paint1_linear_82_136)"/>
<path d="M40.3487 15.8148C38.273 15.8574 36.6874 14.3548 36.667 12.3287C36.6466 10.3679 38.1759 8.81266 40.1649 8.77259C42.2126 8.73002 43.8416 10.2727 43.8543 12.2736C43.8696 14.237 42.3454 15.7772 40.3487 15.8173V15.8148Z" fill="url(#paint2_linear_82_136)"/>
</g>
<defs>
<linearGradient id="paint0_linear_82_136" x1="0" y1="26.0002" x2="53" y2="26.0002" gradientUnits="userSpaceOnUse">
<stop stop-color="#FD7528"/>
<stop offset="1" stop-color="#FF8938"/>
</linearGradient>
<linearGradient id="paint1_linear_82_136" x1="14.2266" y1="26.0401" x2="38.707" y2="26.0401" gradientUnits="userSpaceOnUse">
<stop stop-color="#FD7528"/>
<stop offset="1" stop-color="#FF8938"/>
</linearGradient>
<linearGradient id="paint2_linear_82_136" x1="36.667" y1="12.2912" x2="43.8543" y2="12.2912" gradientUnits="userSpaceOnUse">
<stop stop-color="#FD7528"/>
<stop offset="1" stop-color="#FF6800"/>
</linearGradient>
<clipPath id="clip0_82_136">
<rect width="53" height="52" fill="white"/>
</clipPath>
</defs>
</svg>
