<svg width="202" height="344" viewBox="0 0 202 344" fill="none" xmlns="http://www.w3.org/2000/svg">
<path d="M0 0H202V344H0V0Z" fill="url(#paint0_linear_1037_634)"/>
<path d="M51.96 138.11L50.45 139.2V138.23L52.1 137.01H52.98V144H51.96V138.11ZM57.4928 144.15C56.8928 144.15 56.3728 144.003 55.9328 143.71C55.4995 143.417 55.1661 142.997 54.9328 142.45C54.6995 141.903 54.5828 141.257 54.5828 140.51C54.5828 139.763 54.6961 139.117 54.9228 138.57C55.1561 138.017 55.4895 137.593 55.9228 137.3C56.3628 137.007 56.8861 136.86 57.4928 136.86C58.0995 136.86 58.6195 137.007 59.0528 137.3C59.4928 137.593 59.8261 138.017 60.0528 138.57C60.2861 139.117 60.4028 139.763 60.4028 140.51C60.4028 141.257 60.2861 141.903 60.0528 142.45C59.8195 142.997 59.4828 143.417 59.0428 143.71C58.6095 144.003 58.0928 144.15 57.4928 144.15ZM57.4928 143.25C58.0861 143.25 58.5495 143.007 58.8828 142.52C59.2228 142.027 59.3928 141.36 59.3928 140.52C59.3928 139.68 59.2261 139.013 58.8928 138.52C58.5595 138.027 58.0928 137.78 57.4928 137.78C56.8928 137.78 56.4261 138.027 56.0928 138.52C55.7595 139.013 55.5928 139.68 55.5928 140.52C55.5928 141.36 55.7595 142.027 56.0928 142.52C56.4328 143.007 56.8995 143.25 57.4928 143.25ZM63.6616 140.53C63.3282 140.53 63.0216 140.45 62.7416 140.29C62.4616 140.123 62.2382 139.9 62.0716 139.62C61.9116 139.34 61.8316 139.033 61.8316 138.7C61.8316 138.367 61.9116 138.06 62.0716 137.78C62.2382 137.493 62.4616 137.27 62.7416 137.11C63.0216 136.943 63.3282 136.86 63.6616 136.86C63.9949 136.86 64.3016 136.943 64.5816 137.11C64.8682 137.27 65.0916 137.493 65.2516 137.78C65.4182 138.06 65.5016 138.367 65.5016 138.7C65.5016 139.033 65.4182 139.34 65.2516 139.62C65.0916 139.9 64.8682 140.123 64.5816 140.29C64.3016 140.45 63.9949 140.53 63.6616 140.53ZM67.2316 137.01H68.2216L64.3516 144H63.3616L67.2316 137.01ZM63.6616 139.79C63.9682 139.79 64.2216 139.687 64.4216 139.48C64.6282 139.273 64.7316 139.02 64.7316 138.72C64.7316 138.413 64.6282 138.157 64.4216 137.95C64.2216 137.743 63.9682 137.64 63.6616 137.64C63.3549 137.64 63.0982 137.743 62.8916 137.95C62.6916 138.157 62.5916 138.413 62.5916 138.72C62.5916 139.02 62.6916 139.273 62.8916 139.48C63.0982 139.687 63.3549 139.79 63.6616 139.79ZM67.9116 144.15C67.5782 144.15 67.2716 144.07 66.9916 143.91C66.7116 143.743 66.4882 143.52 66.3216 143.24C66.1616 142.96 66.0816 142.653 66.0816 142.32C66.0816 141.987 66.1616 141.68 66.3216 141.4C66.4882 141.113 66.7116 140.89 66.9916 140.73C67.2716 140.563 67.5782 140.48 67.9116 140.48C68.2449 140.48 68.5516 140.563 68.8316 140.73C69.1182 140.89 69.3416 141.113 69.5016 141.4C69.6682 141.68 69.7516 141.987 69.7516 142.32C69.7516 142.653 69.6682 142.96 69.5016 143.24C69.3416 143.52 69.1182 143.743 68.8316 143.91C68.5516 144.07 68.2449 144.15 67.9116 144.15ZM67.9016 143.41C68.2082 143.41 68.4649 143.307 68.6716 143.1C68.8782 142.893 68.9816 142.64 68.9816 142.34C68.9816 142.033 68.8782 141.777 68.6716 141.57C68.4649 141.363 68.2082 141.26 67.9016 141.26C67.6016 141.26 67.3482 141.363 67.1416 141.57C66.9349 141.777 66.8316 142.033 66.8316 142.34C66.8316 142.64 66.9349 142.893 67.1416 143.1C67.3482 143.307 67.6016 143.41 67.9016 143.41ZM71.1492 140.61H74.3392V141.44H71.1492V140.61ZM77.251 138.11L75.741 139.2V138.23L77.391 137.01H78.271V144H77.251V138.11ZM81.8238 144.15C81.4572 144.15 81.1005 144.11 80.7538 144.03C80.4072 143.957 80.1138 143.853 79.8738 143.72V142.81C80.1472 142.977 80.4572 143.107 80.8038 143.2C81.1505 143.287 81.4805 143.33 81.7938 143.33C82.4005 143.33 82.8605 143.203 83.1738 142.95C83.4872 142.69 83.6438 142.31 83.6438 141.81C83.6438 141.337 83.4972 140.977 83.2038 140.73C82.9172 140.477 82.4872 140.35 81.9138 140.35C81.6738 140.35 81.4205 140.373 81.1538 140.42C80.8938 140.467 80.6605 140.53 80.4538 140.61L80.0038 140.35L80.2638 137.01H84.1738V137.87H81.1938L81.0438 139.67C81.4572 139.583 81.8772 139.54 82.3038 139.54C83.0438 139.54 83.6238 139.747 84.0438 140.16C84.4638 140.573 84.6738 141.123 84.6738 141.81C84.6738 142.563 84.4372 143.143 83.9638 143.55C83.4905 143.95 82.7772 144.15 81.8238 144.15ZM87.937 140.53C87.6036 140.53 87.297 140.45 87.017 140.29C86.737 140.123 86.5136 139.9 86.347 139.62C86.187 139.34 86.107 139.033 86.107 138.7C86.107 138.367 86.187 138.06 86.347 137.78C86.5136 137.493 86.737 137.27 87.017 137.11C87.297 136.943 87.6036 136.86 87.937 136.86C88.2703 136.86 88.577 136.943 88.857 137.11C89.1436 137.27 89.367 137.493 89.527 137.78C89.6936 138.06 89.777 138.367 89.777 138.7C89.777 139.033 89.6936 139.34 89.527 139.62C89.367 139.9 89.1436 140.123 88.857 140.29C88.577 140.45 88.2703 140.53 87.937 140.53ZM91.507 137.01H92.497L88.627 144H87.637L91.507 137.01ZM87.937 139.79C88.2436 139.79 88.497 139.687 88.697 139.48C88.9036 139.273 89.007 139.02 89.007 138.72C89.007 138.413 88.9036 138.157 88.697 137.95C88.497 137.743 88.2436 137.64 87.937 137.64C87.6303 137.64 87.3736 137.743 87.167 137.95C86.967 138.157 86.867 138.413 86.867 138.72C86.867 139.02 86.967 139.273 87.167 139.48C87.3736 139.687 87.6303 139.79 87.937 139.79ZM92.187 144.15C91.8536 144.15 91.547 144.07 91.267 143.91C90.987 143.743 90.7636 143.52 90.597 143.24C90.437 142.96 90.357 142.653 90.357 142.32C90.357 141.987 90.437 141.68 90.597 141.4C90.7636 141.113 90.987 140.89 91.267 140.73C91.547 140.563 91.8536 140.48 92.187 140.48C92.5203 140.48 92.827 140.563 93.107 140.73C93.3936 140.89 93.617 141.113 93.777 141.4C93.9436 141.68 94.027 141.987 94.027 142.32C94.027 142.653 93.9436 142.96 93.777 143.24C93.617 143.52 93.3936 143.743 93.107 143.91C92.827 144.07 92.5203 144.15 92.187 144.15ZM92.177 143.41C92.4836 143.41 92.7403 143.307 92.947 143.1C93.1536 142.893 93.257 142.64 93.257 142.34C93.257 142.033 93.1536 141.777 92.947 141.57C92.7403 141.363 92.4836 141.26 92.177 141.26C91.877 141.26 91.6236 141.363 91.417 141.57C91.2103 141.777 91.107 142.033 91.107 142.34C91.107 142.64 91.2103 142.893 91.417 143.1C91.6236 143.307 91.877 143.41 92.177 143.41ZM102.356 144.15C101.816 144.15 101.339 144.05 100.926 143.85C100.519 143.643 100.199 143.35 99.9658 142.97C99.7391 142.583 99.6258 142.13 99.6258 141.61C99.6258 141.097 99.7391 140.647 99.9658 140.26C100.192 139.873 100.512 139.577 100.926 139.37C101.339 139.157 101.816 139.05 102.356 139.05C102.896 139.05 103.372 139.157 103.786 139.37C104.199 139.577 104.519 139.873 104.746 140.26C104.979 140.647 105.096 141.097 105.096 141.61C105.096 142.13 104.979 142.583 104.746 142.97C104.519 143.35 104.199 143.643 103.786 143.85C103.372 144.05 102.896 144.15 102.356 144.15ZM102.356 143.35C102.876 143.35 103.289 143.19 103.596 142.87C103.902 142.55 104.056 142.13 104.056 141.61C104.056 141.07 103.902 140.643 103.596 140.33C103.289 140.017 102.876 139.86 102.356 139.86C101.836 139.86 101.422 140.017 101.116 140.33C100.809 140.643 100.656 141.07 100.656 141.61C100.656 142.13 100.809 142.55 101.116 142.87C101.422 143.19 101.836 143.35 102.356 143.35ZM106.671 139.98H105.941V139.2H106.671V138.26C106.671 137.707 106.828 137.287 107.141 137C107.455 136.707 107.875 136.56 108.401 136.56C108.675 136.56 108.931 136.6 109.171 136.68V137.52C108.985 137.433 108.791 137.39 108.591 137.39C108.278 137.39 108.048 137.467 107.901 137.62C107.755 137.767 107.681 138 107.681 138.32V139.2H108.881V139.98H107.681V144H106.671V139.98ZM116.338 144.15C116.005 144.15 115.651 144.107 115.278 144.02C114.905 143.94 114.611 143.83 114.398 143.69V142.83C114.658 142.983 114.958 143.11 115.298 143.21C115.638 143.303 115.968 143.35 116.288 143.35C116.648 143.35 116.911 143.307 117.078 143.22C117.245 143.133 117.328 142.993 117.328 142.8C117.328 142.653 117.288 142.537 117.208 142.45C117.135 142.357 117.005 142.273 116.818 142.2C116.638 142.127 116.365 142.04 115.998 141.94C115.605 141.827 115.291 141.713 115.058 141.6C114.831 141.48 114.658 141.33 114.538 141.15C114.425 140.97 114.368 140.737 114.368 140.45C114.368 139.99 114.548 139.643 114.908 139.41C115.275 139.17 115.765 139.05 116.378 139.05C116.698 139.05 117.011 139.08 117.318 139.14C117.625 139.2 117.871 139.283 118.058 139.39V140.23C117.865 140.117 117.625 140.027 117.338 139.96C117.058 139.893 116.771 139.86 116.478 139.86C116.125 139.86 115.855 139.903 115.668 139.99C115.481 140.077 115.388 140.23 115.388 140.45C115.388 140.59 115.428 140.703 115.508 140.79C115.588 140.877 115.715 140.953 115.888 141.02C116.068 141.08 116.351 141.16 116.738 141.26C117.345 141.427 117.765 141.623 117.998 141.85C118.238 142.077 118.358 142.39 118.358 142.79C118.358 143.203 118.188 143.533 117.848 143.78C117.508 144.027 117.005 144.15 116.338 144.15ZM120.551 138.26C120.384 138.26 120.244 138.203 120.131 138.09C120.017 137.977 119.961 137.837 119.961 137.67C119.961 137.503 120.017 137.363 120.131 137.25C120.244 137.137 120.384 137.08 120.551 137.08C120.724 137.08 120.867 137.137 120.981 137.25C121.101 137.363 121.161 137.503 121.161 137.67C121.161 137.837 121.101 137.977 120.981 138.09C120.867 138.203 120.724 138.26 120.551 138.26ZM120.041 139.2H121.071V144H120.041V139.2ZM125.471 146.3C125.144 146.3 124.824 146.273 124.511 146.22C124.204 146.167 123.944 146.09 123.731 145.99V145.16C124.231 145.387 124.811 145.5 125.471 145.5C126.091 145.5 126.541 145.363 126.821 145.09C127.107 144.823 127.251 144.417 127.251 143.87V143.36C126.811 143.887 126.164 144.15 125.311 144.15C124.824 144.15 124.387 144.043 124.001 143.83C123.614 143.617 123.311 143.317 123.091 142.93C122.871 142.543 122.761 142.1 122.761 141.6C122.761 141.093 122.867 140.65 123.081 140.27C123.301 139.883 123.601 139.583 123.981 139.37C124.367 139.157 124.801 139.05 125.281 139.05C125.727 139.05 126.104 139.117 126.411 139.25C126.724 139.377 127.014 139.59 127.281 139.89V139.2H128.261V143.76C128.261 144.58 128.031 145.207 127.571 145.64C127.117 146.08 126.417 146.3 125.471 146.3ZM125.511 143.35C125.924 143.35 126.287 143.24 126.601 143.02C126.921 142.8 127.137 142.507 127.251 142.14V141.06C127.124 140.687 126.904 140.393 126.591 140.18C126.284 139.967 125.924 139.86 125.511 139.86C125.184 139.86 124.887 139.933 124.621 140.08C124.361 140.22 124.154 140.423 124.001 140.69C123.854 140.957 123.781 141.26 123.781 141.6C123.781 141.947 123.854 142.253 124.001 142.52C124.154 142.78 124.361 142.983 124.621 143.13C124.887 143.277 125.184 143.35 125.511 143.35ZM130.062 139.2H131.042V139.89C131.269 139.603 131.545 139.393 131.872 139.26C132.205 139.12 132.552 139.05 132.912 139.05C133.552 139.05 134.029 139.22 134.342 139.56C134.655 139.9 134.812 140.357 134.812 140.93V144H133.802V141.03C133.802 140.25 133.429 139.86 132.682 139.86C132.362 139.86 132.062 139.937 131.782 140.09C131.509 140.237 131.272 140.463 131.072 140.77V144H130.062V139.2ZM138.132 144.15C137.552 144.15 137.085 144.003 136.732 143.71C136.385 143.41 136.212 143.007 136.212 142.5C136.212 141.967 136.378 141.557 136.712 141.27C137.052 140.977 137.532 140.83 138.152 140.83C138.812 140.83 139.372 140.963 139.832 141.23V140.98C139.832 140.6 139.715 140.32 139.482 140.14C139.255 139.953 138.895 139.86 138.402 139.86C138.108 139.86 137.822 139.89 137.542 139.95C137.268 140.003 137.022 140.08 136.802 140.18V139.36C137.002 139.267 137.262 139.193 137.582 139.14C137.902 139.08 138.212 139.05 138.512 139.05C139.305 139.05 139.892 139.227 140.272 139.58C140.658 139.927 140.852 140.41 140.852 141.03V144H139.902V143.46C139.695 143.687 139.448 143.86 139.162 143.98C138.882 144.093 138.538 144.15 138.132 144.15ZM138.382 143.38C138.702 143.38 138.992 143.317 139.252 143.19C139.512 143.063 139.705 142.887 139.832 142.66V142.01C139.398 141.73 138.915 141.59 138.382 141.59C137.995 141.59 137.705 141.667 137.512 141.82C137.325 141.967 137.232 142.193 137.232 142.5C137.232 143.087 137.615 143.38 138.382 143.38ZM142.605 136.61H143.615V144H142.605V136.61ZM147.19 144.15C146.856 144.15 146.503 144.107 146.13 144.02C145.756 143.94 145.463 143.83 145.25 143.69V142.83C145.51 142.983 145.81 143.11 146.15 143.21C146.49 143.303 146.82 143.35 147.14 143.35C147.5 143.35 147.763 143.307 147.93 143.22C148.096 143.133 148.18 142.993 148.18 142.8C148.18 142.653 148.14 142.537 148.06 142.45C147.986 142.357 147.856 142.273 147.67 142.2C147.49 142.127 147.216 142.04 146.85 141.94C146.456 141.827 146.143 141.713 145.91 141.6C145.683 141.48 145.51 141.33 145.39 141.15C145.276 140.97 145.22 140.737 145.22 140.45C145.22 139.99 145.4 139.643 145.76 139.41C146.126 139.17 146.616 139.05 147.23 139.05C147.55 139.05 147.863 139.08 148.17 139.14C148.476 139.2 148.723 139.283 148.91 139.39V140.23C148.716 140.117 148.476 140.027 148.19 139.96C147.91 139.893 147.623 139.86 147.33 139.86C146.976 139.86 146.706 139.903 146.52 139.99C146.333 140.077 146.24 140.23 146.24 140.45C146.24 140.59 146.28 140.703 146.36 140.79C146.44 140.877 146.566 140.953 146.74 141.02C146.92 141.08 147.203 141.16 147.59 141.26C148.196 141.427 148.616 141.623 148.85 141.85C149.09 142.077 149.21 142.39 149.21 142.79C149.21 143.203 149.04 143.533 148.7 143.78C148.36 144.027 147.856 144.15 147.19 144.15ZM155.343 139.98H154.613V139.2H155.343V138.26C155.343 137.707 155.5 137.287 155.813 137C156.127 136.707 156.547 136.56 157.073 136.56C157.347 136.56 157.603 136.6 157.843 136.68V137.52C157.657 137.433 157.463 137.39 157.263 137.39C156.95 137.39 156.72 137.467 156.573 137.62C156.427 137.767 156.353 138 156.353 138.32V139.2H157.553V139.98H156.353V144H155.343V139.98ZM158.99 139.2H159.97V140.06C160.17 139.767 160.45 139.55 160.81 139.41C161.177 139.27 161.6 139.2 162.08 139.2V139.99C161.567 139.99 161.127 140.073 160.76 140.24C160.393 140.407 160.14 140.67 160 141.03V144H158.99V139.2ZM165.868 144.15C165.328 144.15 164.851 144.05 164.438 143.85C164.031 143.643 163.711 143.35 163.478 142.97C163.251 142.583 163.138 142.13 163.138 141.61C163.138 141.097 163.251 140.647 163.478 140.26C163.704 139.873 164.024 139.577 164.438 139.37C164.851 139.157 165.328 139.05 165.868 139.05C166.408 139.05 166.884 139.157 167.298 139.37C167.711 139.577 168.031 139.873 168.258 140.26C168.491 140.647 168.608 141.097 168.608 141.61C168.608 142.13 168.491 142.583 168.258 142.97C168.031 143.35 167.711 143.643 167.298 143.85C166.884 144.05 166.408 144.15 165.868 144.15ZM165.868 143.35C166.388 143.35 166.801 143.19 167.108 142.87C167.414 142.55 167.568 142.13 167.568 141.61C167.568 141.07 167.414 140.643 167.108 140.33C166.801 140.017 166.388 139.86 165.868 139.86C165.348 139.86 164.934 140.017 164.628 140.33C164.321 140.643 164.168 141.07 164.168 141.61C164.168 142.13 164.321 142.55 164.628 142.87C164.934 143.19 165.348 143.35 165.868 143.35ZM170.205 139.2H171.165V139.89C171.391 139.61 171.648 139.4 171.935 139.26C172.221 139.12 172.518 139.05 172.825 139.05C173.211 139.05 173.518 139.117 173.745 139.25C173.971 139.377 174.138 139.573 174.245 139.84C174.458 139.58 174.718 139.383 175.025 139.25C175.338 139.117 175.651 139.05 175.965 139.05C176.551 139.05 176.975 139.2 177.235 139.5C177.495 139.793 177.625 140.23 177.625 140.81V144H176.645V140.94C176.645 140.547 176.571 140.27 176.425 140.11C176.278 139.943 176.028 139.86 175.675 139.86C175.168 139.86 174.755 140.08 174.435 140.52C174.448 140.62 174.455 140.783 174.455 141.01V144H173.475V140.94C173.475 140.547 173.408 140.27 173.275 140.11C173.141 139.943 172.901 139.86 172.555 139.86C172.048 139.86 171.595 140.147 171.195 140.72V144H170.205V139.2ZM50.65 149.01H55.26V149.87H51.67V152.1H54.35V152.91H51.67V156H50.65V149.01ZM56.8963 150.26C56.7296 150.26 56.5896 150.203 56.4763 150.09C56.3629 149.977 56.3063 149.837 56.3063 149.67C56.3063 149.503 56.3629 149.363 56.4763 149.25C56.5896 149.137 56.7296 149.08 56.8963 149.08C57.0696 149.08 57.2129 149.137 57.3263 149.25C57.4463 149.363 57.5063 149.503 57.5063 149.67C57.5063 149.837 57.4463 149.977 57.3263 150.09C57.2129 150.203 57.0696 150.26 56.8963 150.26ZM56.3863 151.2H57.4163V156H56.3863V151.2ZM59.3063 151.2H60.2863V152.06C60.4863 151.767 60.7663 151.55 61.1263 151.41C61.4929 151.27 61.9163 151.2 62.3963 151.2V151.99C61.8829 151.99 61.4429 152.073 61.0763 152.24C60.7096 152.407 60.4563 152.67 60.3163 153.03V156H59.3063V151.2ZM65.4239 156.15C65.0906 156.15 64.7372 156.107 64.3639 156.02C63.9906 155.94 63.6972 155.83 63.4839 155.69V154.83C63.7439 154.983 64.0439 155.11 64.3839 155.21C64.7239 155.303 65.0539 155.35 65.3739 155.35C65.7339 155.35 65.9972 155.307 66.1639 155.22C66.3306 155.133 66.4139 154.993 66.4139 154.8C66.4139 154.653 66.3739 154.537 66.2939 154.45C66.2206 154.357 66.0906 154.273 65.9039 154.2C65.7239 154.127 65.4506 154.04 65.0839 153.94C64.6906 153.827 64.3772 153.713 64.1439 153.6C63.9172 153.48 63.7439 153.33 63.6239 153.15C63.5106 152.97 63.4539 152.737 63.4539 152.45C63.4539 151.99 63.6339 151.643 63.9939 151.41C64.3606 151.17 64.8506 151.05 65.4639 151.05C65.7839 151.05 66.0972 151.08 66.4039 151.14C66.7106 151.2 66.9572 151.283 67.1439 151.39V152.23C66.9506 152.117 66.7106 152.027 66.4239 151.96C66.1439 151.893 65.8572 151.86 65.5639 151.86C65.2106 151.86 64.9406 151.903 64.7539 151.99C64.5672 152.077 64.4739 152.23 64.4739 152.45C64.4739 152.59 64.5139 152.703 64.5939 152.79C64.6739 152.877 64.8006 152.953 64.9739 153.02C65.1539 153.08 65.4372 153.16 65.8239 153.26C66.4306 153.427 66.8506 153.623 67.0839 153.85C67.3239 154.077 67.4439 154.39 67.4439 154.79C67.4439 155.203 67.2739 155.533 66.9339 155.78C66.5939 156.027 66.0906 156.15 65.4239 156.15ZM70.75 156.15C70.2633 156.15 69.8867 156.01 69.62 155.73C69.36 155.45 69.23 155.053 69.23 154.54V151.98H68.5V151.2H69.23V149.76H70.25V151.2H71.43V151.98H70.25V154.47C70.25 154.79 70.31 155.017 70.43 155.15C70.5567 155.283 70.7833 155.35 71.11 155.35C71.3033 155.35 71.4967 155.307 71.69 155.22V156.02C71.4367 156.107 71.1233 156.15 70.75 156.15ZM79.1114 149.87H76.9414V149.01H82.3114V149.87H80.1414V156H79.1114V149.87ZM84.0466 150.26C83.88 150.26 83.74 150.203 83.6266 150.09C83.5133 149.977 83.4566 149.837 83.4566 149.67C83.4566 149.503 83.5133 149.363 83.6266 149.25C83.74 149.137 83.88 149.08 84.0466 149.08C84.22 149.08 84.3633 149.137 84.4766 149.25C84.5966 149.363 84.6566 149.503 84.6566 149.67C84.6566 149.837 84.5966 149.977 84.4766 150.09C84.3633 150.203 84.22 150.26 84.0466 150.26ZM83.5366 151.2H84.5666V156H83.5366V151.2ZM89.0966 156.15C88.21 156.15 87.5133 155.93 87.0066 155.49C86.5066 155.043 86.2566 154.417 86.2566 153.61C86.2566 152.823 86.48 152.2 86.9266 151.74C87.38 151.28 88.0233 151.05 88.8566 151.05C89.41 151.05 89.88 151.157 90.2666 151.37C90.6533 151.577 90.9433 151.867 91.1366 152.24C91.3366 152.607 91.4366 153.027 91.4366 153.5V154H87.2166C87.25 154.453 87.44 154.793 87.7866 155.02C88.14 155.24 88.6166 155.35 89.2166 155.35C89.5233 155.35 89.8333 155.323 90.1466 155.27C90.46 155.21 90.7366 155.133 90.9766 155.04V155.85C90.7633 155.937 90.48 156.007 90.1266 156.06C89.78 156.12 89.4366 156.15 89.0966 156.15ZM90.4866 153.29C90.4733 152.837 90.3233 152.487 90.0366 152.24C89.7566 151.987 89.3566 151.86 88.8366 151.86C88.33 151.86 87.9366 151.99 87.6566 152.25C87.3766 152.51 87.23 152.857 87.2166 153.29H90.4866ZM93.0406 151.2H94.0206V152.06C94.2206 151.767 94.5006 151.55 94.8606 151.41C95.2273 151.27 95.6506 151.2 96.1306 151.2V151.99C95.6173 151.99 95.1773 152.073 94.8106 152.24C94.444 152.407 94.1906 152.67 94.0506 153.03V156H93.0406V151.2ZM101.736 149.01H104.426C105.179 149.01 105.773 149.2 106.206 149.58C106.646 149.953 106.866 150.487 106.866 151.18C106.866 151.887 106.649 152.423 106.216 152.79C105.783 153.15 105.186 153.33 104.426 153.33H102.756V156H101.736V149.01ZM104.316 152.48C104.783 152.48 105.153 152.383 105.426 152.19C105.699 151.997 105.836 151.66 105.836 151.18C105.836 150.7 105.699 150.363 105.426 150.17C105.153 149.97 104.783 149.87 104.316 149.87H102.756V152.48H104.316ZM109.434 156.15C108.854 156.15 108.388 156.003 108.034 155.71C107.688 155.41 107.514 155.007 107.514 154.5C107.514 153.967 107.681 153.557 108.014 153.27C108.354 152.977 108.834 152.83 109.454 152.83C110.114 152.83 110.674 152.963 111.134 153.23V152.98C111.134 152.6 111.018 152.32 110.784 152.14C110.558 151.953 110.198 151.86 109.704 151.86C109.411 151.86 109.124 151.89 108.844 151.95C108.571 152.003 108.324 152.08 108.104 152.18V151.36C108.304 151.267 108.564 151.193 108.884 151.14C109.204 151.08 109.514 151.05 109.814 151.05C110.608 151.05 111.194 151.227 111.574 151.58C111.961 151.927 112.154 152.41 112.154 153.03V156H111.204V155.46C110.998 155.687 110.751 155.86 110.464 155.98C110.184 156.093 109.841 156.15 109.434 156.15ZM109.684 155.38C110.004 155.38 110.294 155.317 110.554 155.19C110.814 155.063 111.008 154.887 111.134 154.66V154.01C110.701 153.73 110.218 153.59 109.684 153.59C109.298 153.59 109.008 153.667 108.814 153.82C108.628 153.967 108.534 154.193 108.534 154.5C108.534 155.087 108.918 155.38 109.684 155.38ZM114.498 150.26C114.331 150.26 114.191 150.203 114.078 150.09C113.964 149.977 113.908 149.837 113.908 149.67C113.908 149.503 113.964 149.363 114.078 149.25C114.191 149.137 114.331 149.08 114.498 149.08C114.671 149.08 114.814 149.137 114.928 149.25C115.048 149.363 115.108 149.503 115.108 149.67C115.108 149.837 115.048 149.977 114.928 150.09C114.814 150.203 114.671 150.26 114.498 150.26ZM113.988 151.2H115.018V156H113.988V151.2ZM119.228 156.15C118.748 156.15 118.314 156.047 117.928 155.84C117.548 155.627 117.248 155.33 117.028 154.95C116.814 154.563 116.708 154.117 116.708 153.61C116.708 153.11 116.814 152.667 117.028 152.28C117.248 151.893 117.548 151.593 117.928 151.38C118.314 151.16 118.748 151.05 119.228 151.05C120.094 151.05 120.751 151.313 121.198 151.84V148.61H122.208V156H121.228V155.3C120.961 155.593 120.668 155.81 120.348 155.95C120.034 156.083 119.661 156.15 119.228 156.15ZM119.458 155.35C119.871 155.35 120.231 155.243 120.538 155.03C120.851 154.81 121.071 154.517 121.198 154.15V153.07C121.084 152.703 120.868 152.41 120.548 152.19C120.234 151.97 119.871 151.86 119.458 151.86C119.131 151.86 118.834 151.933 118.568 152.08C118.308 152.227 118.101 152.433 117.948 152.7C117.801 152.967 117.728 153.27 117.728 153.61C117.728 153.95 117.801 154.253 117.948 154.52C118.101 154.787 118.308 154.993 118.568 155.14C118.834 155.28 119.131 155.35 119.458 155.35ZM131.711 156.15C130.991 156.15 130.351 156 129.791 155.7C129.231 155.4 128.794 154.977 128.481 154.43C128.167 153.877 128.011 153.237 128.011 152.51C128.011 151.783 128.167 151.143 128.481 150.59C128.794 150.037 129.231 149.61 129.791 149.31C130.351 149.01 130.991 148.86 131.711 148.86C132.677 148.86 133.481 149.1 134.121 149.58V150.56C133.541 150.053 132.767 149.8 131.801 149.8C131.274 149.8 130.801 149.91 130.381 150.13C129.961 150.35 129.631 150.667 129.391 151.08C129.157 151.487 129.041 151.963 129.041 152.51C129.041 153.057 129.157 153.537 129.391 153.95C129.624 154.363 129.947 154.68 130.361 154.9C130.774 155.12 131.241 155.23 131.761 155.23C132.367 155.23 132.864 155.107 133.251 154.86V153.03H131.921V152.2H134.271V155.4C133.957 155.66 133.587 155.85 133.161 155.97C132.741 156.09 132.257 156.15 131.711 156.15ZM135.869 151.2H136.849V152.06C137.049 151.767 137.329 151.55 137.689 151.41C138.055 151.27 138.479 151.2 138.959 151.2V151.99C138.445 151.99 138.005 152.073 137.639 152.24C137.272 152.407 137.019 152.67 136.879 153.03V156H135.869V151.2ZM142.746 156.15C142.206 156.15 141.73 156.05 141.316 155.85C140.91 155.643 140.59 155.35 140.356 154.97C140.13 154.583 140.016 154.13 140.016 153.61C140.016 153.097 140.13 152.647 140.356 152.26C140.583 151.873 140.903 151.577 141.316 151.37C141.73 151.157 142.206 151.05 142.746 151.05C143.286 151.05 143.763 151.157 144.176 151.37C144.59 151.577 144.91 151.873 145.136 152.26C145.37 152.647 145.486 153.097 145.486 153.61C145.486 154.13 145.37 154.583 145.136 154.97C144.91 155.35 144.59 155.643 144.176 155.85C143.763 156.05 143.286 156.15 142.746 156.15ZM142.746 155.35C143.266 155.35 143.68 155.19 143.986 154.87C144.293 154.55 144.446 154.13 144.446 153.61C144.446 153.07 144.293 152.643 143.986 152.33C143.68 152.017 143.266 151.86 142.746 151.86C142.226 151.86 141.813 152.017 141.506 152.33C141.2 152.643 141.046 153.07 141.046 153.61C141.046 154.13 141.2 154.55 141.506 154.87C141.813 155.19 142.226 155.35 142.746 155.35ZM148.994 156.15C148.347 156.15 147.857 155.977 147.524 155.63C147.197 155.283 147.034 154.82 147.034 154.24V151.2H148.044V154.2C148.044 154.967 148.427 155.35 149.194 155.35C149.867 155.35 150.394 155.047 150.774 154.44V151.2H151.784V156H150.804V155.32C150.577 155.607 150.307 155.817 149.994 155.95C149.687 156.083 149.354 156.15 148.994 156.15ZM153.58 151.2H154.56V151.91C155.053 151.337 155.72 151.05 156.56 151.05C157.04 151.05 157.47 151.157 157.85 151.37C158.236 151.583 158.536 151.883 158.75 152.27C158.97 152.65 159.08 153.093 159.08 153.6C159.08 154.1 158.97 154.543 158.75 154.93C158.536 155.317 158.24 155.617 157.86 155.83C157.48 156.043 157.046 156.15 156.56 156.15C156.16 156.15 155.786 156.083 155.44 155.95C155.093 155.817 154.81 155.62 154.59 155.36V158.19H153.58V151.2ZM156.33 155.35C156.656 155.35 156.95 155.28 157.21 155.14C157.476 154.993 157.683 154.787 157.83 154.52C157.983 154.253 158.06 153.947 158.06 153.6C158.06 153.253 157.983 152.95 157.83 152.69C157.683 152.423 157.476 152.22 157.21 152.08C156.95 151.933 156.656 151.86 156.33 151.86C155.923 151.86 155.563 151.967 155.25 152.18C154.943 152.393 154.723 152.687 154.59 153.06V154.14C154.703 154.507 154.92 154.8 155.24 155.02C155.56 155.24 155.923 155.35 156.33 155.35ZM160.951 156C160.818 156 160.705 155.957 160.611 155.87C160.525 155.777 160.481 155.663 160.481 155.53C160.481 155.397 160.525 155.283 160.611 155.19C160.705 155.097 160.818 155.05 160.951 155.05C161.085 155.05 161.198 155.097 161.291 155.19C161.385 155.283 161.431 155.397 161.431 155.53C161.431 155.663 161.385 155.777 161.291 155.87C161.198 155.957 161.085 156 160.951 156Z" fill="#FAFAF9"/>
<ellipse cx="35.5" cy="146.96" rx="6.5" ry="6.96028" fill="#D9D9D9"/>
<path d="M32.0952 146.629L34.2619 148.949L38.9047 143.978" stroke="url(#paint1_linear_1037_634)" stroke-width="2"/>
<path d="M54.7881 59L58.0901 50.55H60.4951L63.7841 59H62.0551L61.2231 56.842H57.3101L56.4911 59H54.7881ZM57.8691 55.321H60.6771L59.2471 51.824L57.8691 55.321ZM66.4693 59V50.55H68.0813V57.479H72.8913V59H66.4693ZM75.7466 59V50.55H81.5316C82.9746 50.55 83.9366 51.564 83.9366 53.085C83.9366 54.541 82.9746 55.529 81.5316 55.529H77.3586V59H75.7466ZM77.3586 54.008H81.5316C82.0126 54.008 82.3246 53.67 82.3246 53.163V52.916C82.3246 52.409 82.0126 52.071 81.5316 52.071H77.3586V54.008ZM86.8648 59V50.55H88.4768V54.008H93.2868V50.55H94.8988V59H93.2868V55.529H88.4768V59H86.8648ZM97.5723 59L100.874 50.55H103.279L106.568 59H104.839L104.007 56.842H100.094L99.2753 59H97.5723ZM100.653 55.321H103.461L102.031 51.824L100.653 55.321ZM114.265 59V50.55H115.877V57.479H120.687V59H114.265ZM123.542 59V50.55H125.154V59H123.542ZM131.193 59V52.071H127.982V50.55H136.016V52.071H132.805V59H131.193ZM138.86 59V50.55H146.725V52.071H140.472V54.008H145.126V55.529H140.472V57.479H146.725V59H138.86ZM54.253 79L56.285 73.8H57.765L59.789 79H58.725L58.213 77.672H55.805L55.301 79H54.253ZM56.149 76.736H57.877L56.997 74.584L56.149 76.736ZM61.826 79V73.8H62.714L65.778 77.384V73.8H66.77V79H65.874L62.818 75.408V79H61.826ZM70.7759 79V77.176L68.7039 73.8H69.8399L70.8079 75.36C71.1279 75.88 71.2639 76.296 71.2639 76.296H71.2799C71.2799 76.296 71.4239 75.88 71.7359 75.36L72.6879 73.8H73.8399L71.7679 77.176V79H70.7759ZM77.8257 79.104C76.3457 79.104 75.2577 77.96 75.2577 76.4C75.2577 74.84 76.3457 73.696 77.8257 73.696C79.3057 73.696 80.3937 74.84 80.3937 76.4C80.3937 77.96 79.3057 79.104 77.8257 79.104ZM77.8257 78.112C78.7137 78.112 79.3617 77.384 79.3617 76.4C79.3617 75.408 78.7137 74.68 77.8257 74.68C76.9377 74.68 76.2977 75.408 76.2977 76.4C76.2977 77.384 76.9377 78.112 77.8257 78.112ZM82.6307 79V73.8H83.5187L86.5827 77.384V73.8H87.5747V79H86.6787L83.6227 75.408V79H82.6307ZM90.0526 79V73.8H94.8926V74.736H91.0446V75.928H93.9086V76.864H91.0446V78.064H94.8926V79H90.0526ZM103.021 79.104C101.541 79.104 100.453 77.96 100.453 76.4C100.453 74.84 101.541 73.696 103.021 73.696C104.357 73.696 105.357 74.608 105.557 75.928H104.501C104.333 75.184 103.765 74.68 103.021 74.68C102.133 74.68 101.493 75.408 101.493 76.4C101.493 77.384 102.133 78.112 103.021 78.112C103.765 78.112 104.333 77.608 104.501 76.864H105.557C105.357 78.192 104.357 79.104 103.021 79.104ZM107.066 79L109.098 73.8H110.578L112.602 79H111.538L111.026 77.672H108.618L108.114 79H107.066ZM108.962 76.736H110.69L109.81 74.584L108.962 76.736ZM114.639 79V73.8H115.527L118.591 77.384V73.8H119.583V79H118.687L115.631 75.408V79H114.639ZM127.305 79.104C126.169 79.104 125.329 78.216 125.329 77.024H126.321C126.321 77.648 126.737 78.112 127.305 78.112C127.873 78.112 128.297 77.648 128.297 77.024V73.8H129.281V77.024C129.281 78.216 128.441 79.104 127.305 79.104ZM134.091 79.104C132.611 79.104 131.523 77.96 131.523 76.4C131.523 74.84 132.611 73.696 134.091 73.696C135.571 73.696 136.659 74.84 136.659 76.4C136.659 77.96 135.571 79.104 134.091 79.104ZM134.091 78.112C134.979 78.112 135.627 77.384 135.627 76.4C135.627 75.408 134.979 74.68 134.091 74.68C133.203 74.68 132.563 75.408 132.563 76.4C132.563 77.384 133.203 78.112 134.091 78.112ZM138.896 79V73.8H139.888V79H138.896ZM142.365 79V73.8H143.253L146.317 77.384V73.8H147.309V79H146.413L143.357 75.408V79H142.365Z" fill="#FF6D36"/>
<path d="M52.7607 95.02H62.4607V97.58H55.8007V100.84H60.7007V103.18H55.8007V109H52.7607V95.02ZM71.3095 109.3C69.9095 109.3 68.6361 108.993 67.4895 108.38C66.3561 107.767 65.4628 106.913 64.8095 105.82C64.1561 104.713 63.8295 103.447 63.8295 102.02C63.8295 100.593 64.1561 99.3267 64.8095 98.22C65.4628 97.1133 66.3561 96.2533 67.4895 95.64C68.6361 95.0267 69.9095 94.72 71.3095 94.72C72.7095 94.72 73.9695 95.0267 75.0895 95.64C76.2228 96.2533 77.1161 97.1133 77.7695 98.22C78.4228 99.3267 78.7495 100.593 78.7495 102.02C78.7495 103.447 78.4228 104.713 77.7695 105.82C77.1161 106.913 76.2228 107.767 75.0895 108.38C73.9695 108.993 72.7095 109.3 71.3095 109.3ZM71.3095 106.5C72.1095 106.5 72.8361 106.32 73.4895 105.96C74.1561 105.587 74.6828 105.067 75.0695 104.4C75.4561 103.72 75.6495 102.927 75.6495 102.02C75.6495 101.127 75.4561 100.347 75.0695 99.68C74.6961 99 74.1761 98.48 73.5095 98.12C72.8561 97.7467 72.1228 97.56 71.3095 97.56C70.4828 97.56 69.7361 97.7467 69.0695 98.12C68.4161 98.48 67.8961 99 67.5095 99.68C67.1228 100.347 66.9295 101.127 66.9295 102.02C66.9295 102.927 67.1228 103.72 67.5095 104.4C67.8961 105.067 68.4228 105.587 69.0895 105.96C69.7561 106.32 70.4961 106.5 71.3095 106.5ZM81.4209 95.02H87.4809C89.0675 95.02 90.3009 95.42 91.1809 96.22C92.0742 97.0067 92.5209 98.1467 92.5209 99.64C92.5209 100.68 92.2809 101.567 91.8009 102.3C91.3209 103.02 90.6409 103.547 89.7609 103.88L92.4209 109H89.3009L86.8409 104.26H84.4609V109H81.4209V95.02ZM86.9409 101.72C87.7142 101.72 88.3209 101.553 88.7609 101.22C89.2142 100.887 89.4409 100.36 89.4409 99.64C89.4409 98.88 89.2209 98.3467 88.7809 98.04C88.3409 97.72 87.7275 97.56 86.9409 97.56H84.4609V101.72H86.9409ZM103.206 95.02H112.906V97.58H106.246V100.84H111.146V103.18H106.246V109H103.206V95.02ZM115.183 95.02H121.243C122.829 95.02 124.063 95.42 124.943 96.22C125.836 97.0067 126.283 98.1467 126.283 99.64C126.283 100.68 126.043 101.567 125.563 102.3C125.083 103.02 124.403 103.547 123.523 103.88L126.183 109H123.063L120.603 104.26H118.223V109H115.183V95.02ZM120.703 101.72C121.476 101.72 122.083 101.553 122.523 101.22C122.976 100.887 123.203 100.36 123.203 99.64C123.203 98.88 122.983 98.3467 122.543 98.04C122.103 97.72 121.489 97.56 120.703 97.56H118.223V101.72H120.703ZM128.976 95.02H138.676V97.56H132.016V100.8H136.916V103.24H132.016V106.46H138.676V109H128.976V95.02ZM141.147 95.02H150.847V97.56H144.187V100.8H149.087V103.24H144.187V106.46H150.847V109H141.147V95.02Z" fill="white"/>
<path d="M53.24 177.01H54.22L57.01 184H55.97L55.27 182.26H52.18L51.5 184H50.45L53.24 177.01ZM54.99 181.41L53.73 178.14L52.47 181.41H54.99ZM59.0566 184.15C58.57 184.15 58.1933 184.01 57.9266 183.73C57.6666 183.45 57.5366 183.053 57.5366 182.54V179.98H56.8066V179.2H57.5366V177.76H58.5566V179.2H59.7366V179.98H58.5566V182.47C58.5566 182.79 58.6166 183.017 58.7366 183.15C58.8633 183.283 59.09 183.35 59.4166 183.35C59.61 183.35 59.8033 183.307 59.9966 183.22V184.02C59.7433 184.107 59.43 184.15 59.0566 184.15ZM65.998 184.15C65.5114 184.15 65.1347 184.01 64.868 183.73C64.608 183.45 64.478 183.053 64.478 182.54V179.98H63.748V179.2H64.478V177.76H65.498V179.2H66.678V179.98H65.498V182.47C65.498 182.79 65.558 183.017 65.678 183.15C65.8047 183.283 66.0314 183.35 66.358 183.35C66.5514 183.35 66.7447 183.307 66.938 183.22V184.02C66.6847 184.107 66.3714 184.15 65.998 184.15ZM67.6383 176.61H68.6483V179.86C69.1083 179.32 69.7216 179.05 70.4883 179.05C71.1283 179.05 71.6049 179.22 71.9183 179.56C72.2316 179.9 72.3883 180.357 72.3883 180.93V184H71.3783V181.03C71.3783 180.25 71.0049 179.86 70.2583 179.86C69.9383 179.86 69.6383 179.937 69.3583 180.09C69.0849 180.237 68.8483 180.463 68.6483 180.77V184H67.6383V176.61ZM76.0244 184.15C75.1377 184.15 74.441 183.93 73.9344 183.49C73.4344 183.043 73.1844 182.417 73.1844 181.61C73.1844 180.823 73.4077 180.2 73.8544 179.74C74.3077 179.28 74.951 179.05 75.7844 179.05C76.3377 179.05 76.8077 179.157 77.1944 179.37C77.581 179.577 77.871 179.867 78.0644 180.24C78.2644 180.607 78.3644 181.027 78.3644 181.5V182H74.1444C74.1777 182.453 74.3677 182.793 74.7144 183.02C75.0677 183.24 75.5444 183.35 76.1444 183.35C76.451 183.35 76.761 183.323 77.0744 183.27C77.3877 183.21 77.6644 183.133 77.9044 183.04V183.85C77.691 183.937 77.4077 184.007 77.0544 184.06C76.7077 184.12 76.3644 184.15 76.0244 184.15ZM77.4144 181.29C77.401 180.837 77.251 180.487 76.9644 180.24C76.6844 179.987 76.2844 179.86 75.7644 179.86C75.2577 179.86 74.8644 179.99 74.5844 180.25C74.3044 180.51 74.1577 180.857 74.1444 181.29H77.4144ZM84.4395 184.15C84.1062 184.15 83.7529 184.107 83.3795 184.02C83.0062 183.94 82.7129 183.83 82.4995 183.69V182.83C82.7595 182.983 83.0595 183.11 83.3995 183.21C83.7395 183.303 84.0695 183.35 84.3895 183.35C84.7495 183.35 85.0129 183.307 85.1795 183.22C85.3462 183.133 85.4295 182.993 85.4295 182.8C85.4295 182.653 85.3895 182.537 85.3095 182.45C85.2362 182.357 85.1062 182.273 84.9195 182.2C84.7395 182.127 84.4662 182.04 84.0995 181.94C83.7062 181.827 83.3929 181.713 83.1595 181.6C82.9329 181.48 82.7595 181.33 82.6395 181.15C82.5262 180.97 82.4695 180.737 82.4695 180.45C82.4695 179.99 82.6495 179.643 83.0095 179.41C83.3762 179.17 83.8662 179.05 84.4795 179.05C84.7995 179.05 85.1129 179.08 85.4195 179.14C85.7262 179.2 85.9729 179.283 86.1595 179.39V180.23C85.9662 180.117 85.7262 180.027 85.4395 179.96C85.1595 179.893 84.8729 179.86 84.5795 179.86C84.2262 179.86 83.9562 179.903 83.7695 179.99C83.5829 180.077 83.4895 180.23 83.4895 180.45C83.4895 180.59 83.5295 180.703 83.6095 180.79C83.6895 180.877 83.8162 180.953 83.9895 181.02C84.1695 181.08 84.4529 181.16 84.8395 181.26C85.4462 181.427 85.8662 181.623 86.0995 181.85C86.3395 182.077 86.4595 182.39 86.4595 182.79C86.4595 183.203 86.2895 183.533 85.9495 183.78C85.6095 184.027 85.1062 184.15 84.4395 184.15ZM89.0156 184.15C88.529 184.15 88.1523 184.01 87.8856 183.73C87.6256 183.45 87.4956 183.053 87.4956 182.54V179.98H86.7656V179.2H87.4956V177.76H88.5156V179.2H89.6956V179.98H88.5156V182.47C88.5156 182.79 88.5756 183.017 88.6956 183.15C88.8223 183.283 89.049 183.35 89.3756 183.35C89.569 183.35 89.7623 183.307 89.9556 183.22V184.02C89.7023 184.107 89.389 184.15 89.0156 184.15ZM92.2294 184.15C91.6494 184.15 91.1827 184.003 90.8294 183.71C90.4827 183.41 90.3094 183.007 90.3094 182.5C90.3094 181.967 90.476 181.557 90.8094 181.27C91.1494 180.977 91.6294 180.83 92.2494 180.83C92.9094 180.83 93.4694 180.963 93.9294 181.23V180.98C93.9294 180.6 93.8127 180.32 93.5794 180.14C93.3527 179.953 92.9927 179.86 92.4994 179.86C92.206 179.86 91.9194 179.89 91.6394 179.95C91.366 180.003 91.1194 180.08 90.8994 180.18V179.36C91.0994 179.267 91.3594 179.193 91.6794 179.14C91.9994 179.08 92.3094 179.05 92.6094 179.05C93.4027 179.05 93.9894 179.227 94.3694 179.58C94.756 179.927 94.9494 180.41 94.9494 181.03V184H93.9994V183.46C93.7927 183.687 93.546 183.86 93.2594 183.98C92.9794 184.093 92.636 184.15 92.2294 184.15ZM92.4794 183.38C92.7994 183.38 93.0894 183.317 93.3494 183.19C93.6094 183.063 93.8027 182.887 93.9294 182.66V182.01C93.496 181.73 93.0127 181.59 92.4794 181.59C92.0927 181.59 91.8027 181.667 91.6094 181.82C91.4227 181.967 91.3294 182.193 91.3294 182.5C91.3294 183.087 91.7127 183.38 92.4794 183.38ZM95.9527 179.2H96.9327V180.06C97.1327 179.767 97.4127 179.55 97.7727 179.41C98.1394 179.27 98.5627 179.2 99.0427 179.2V179.99C98.5294 179.99 98.0894 180.073 97.7227 180.24C97.3561 180.407 97.1027 180.67 96.9627 181.03V184H95.9527V179.2ZM101.547 184.15C101.06 184.15 100.684 184.01 100.417 183.73C100.157 183.45 100.027 183.053 100.027 182.54V179.98H99.2969V179.2H100.027V177.76H101.047V179.2H102.227V179.98H101.047V182.47C101.047 182.79 101.107 183.017 101.227 183.15C101.354 183.283 101.58 183.35 101.907 183.35C102.1 183.35 102.294 183.307 102.487 183.22V184.02C102.234 184.107 101.92 184.15 101.547 184.15ZM109.168 184.15C108.628 184.15 108.152 184.05 107.738 183.85C107.332 183.643 107.012 183.35 106.778 182.97C106.552 182.583 106.438 182.13 106.438 181.61C106.438 181.097 106.552 180.647 106.778 180.26C107.005 179.873 107.325 179.577 107.738 179.37C108.152 179.157 108.628 179.05 109.168 179.05C109.708 179.05 110.185 179.157 110.598 179.37C111.012 179.577 111.332 179.873 111.558 180.26C111.792 180.647 111.908 181.097 111.908 181.61C111.908 182.13 111.792 182.583 111.558 182.97C111.332 183.35 111.012 183.643 110.598 183.85C110.185 184.05 109.708 184.15 109.168 184.15ZM109.168 183.35C109.688 183.35 110.102 183.19 110.408 182.87C110.715 182.55 110.868 182.13 110.868 181.61C110.868 181.07 110.715 180.643 110.408 180.33C110.102 180.017 109.688 179.86 109.168 179.86C108.648 179.86 108.235 180.017 107.928 180.33C107.622 180.643 107.468 181.07 107.468 181.61C107.468 182.13 107.622 182.55 107.928 182.87C108.235 183.19 108.648 183.35 109.168 183.35ZM112.734 179.98H112.004V179.2H112.734V178.26C112.734 177.707 112.891 177.287 113.204 177C113.517 176.707 113.937 176.56 114.464 176.56C114.737 176.56 114.994 176.6 115.234 176.68V177.52C115.047 177.433 114.854 177.39 114.654 177.39C114.341 177.39 114.111 177.467 113.964 177.62C113.817 177.767 113.744 178 113.744 178.32V179.2H114.944V179.98H113.744V184H112.734V179.98ZM121.77 184.15C120.884 184.15 120.187 183.93 119.68 183.49C119.18 183.043 118.93 182.417 118.93 181.61C118.93 180.823 119.154 180.2 119.6 179.74C120.054 179.28 120.697 179.05 121.53 179.05C122.084 179.05 122.554 179.157 122.94 179.37C123.327 179.577 123.617 179.867 123.81 180.24C124.01 180.607 124.11 181.027 124.11 181.5V182H119.89C119.924 182.453 120.114 182.793 120.46 183.02C120.814 183.24 121.29 183.35 121.89 183.35C122.197 183.35 122.507 183.323 122.82 183.27C123.134 183.21 123.41 183.133 123.65 183.04V183.85C123.437 183.937 123.154 184.007 122.8 184.06C122.454 184.12 122.11 184.15 121.77 184.15ZM123.16 181.29C123.147 180.837 122.997 180.487 122.71 180.24C122.43 179.987 122.03 179.86 121.51 179.86C121.004 179.86 120.61 179.99 120.33 180.25C120.05 180.51 119.904 180.857 119.89 181.29H123.16ZM126.684 184.15C126.104 184.15 125.638 184.003 125.284 183.71C124.938 183.41 124.764 183.007 124.764 182.5C124.764 181.967 124.931 181.557 125.264 181.27C125.604 180.977 126.084 180.83 126.704 180.83C127.364 180.83 127.924 180.963 128.384 181.23V180.98C128.384 180.6 128.268 180.32 128.034 180.14C127.808 179.953 127.448 179.86 126.954 179.86C126.661 179.86 126.374 179.89 126.094 179.95C125.821 180.003 125.574 180.08 125.354 180.18V179.36C125.554 179.267 125.814 179.193 126.134 179.14C126.454 179.08 126.764 179.05 127.064 179.05C127.858 179.05 128.444 179.227 128.824 179.58C129.211 179.927 129.404 180.41 129.404 181.03V184H128.454V183.46C128.248 183.687 128.001 183.86 127.714 183.98C127.434 184.093 127.091 184.15 126.684 184.15ZM126.934 183.38C127.254 183.38 127.544 183.317 127.804 183.19C128.064 183.063 128.258 182.887 128.384 182.66V182.01C127.951 181.73 127.468 181.59 126.934 181.59C126.548 181.59 126.258 181.667 126.064 181.82C125.878 181.967 125.784 182.193 125.784 182.5C125.784 183.087 126.168 183.38 126.934 183.38ZM132.743 184.15C132.209 184.15 131.736 184.05 131.323 183.85C130.909 183.65 130.586 183.36 130.353 182.98C130.126 182.593 130.013 182.137 130.013 181.61C130.013 181.083 130.126 180.63 130.353 180.25C130.586 179.863 130.909 179.567 131.323 179.36C131.743 179.153 132.223 179.05 132.763 179.05C133.496 179.05 134.083 179.193 134.523 179.48V180.31C134.089 180.01 133.536 179.86 132.863 179.86C132.316 179.86 131.873 180.01 131.533 180.31C131.199 180.603 131.032 181.037 131.032 181.61C131.032 182.183 131.199 182.617 131.533 182.91C131.866 183.203 132.303 183.35 132.843 183.35C133.516 183.35 134.096 183.19 134.583 182.87V183.69C134.349 183.85 134.083 183.967 133.783 184.04C133.489 184.113 133.143 184.15 132.743 184.15ZM135.431 176.61H136.441V179.86C136.901 179.32 137.515 179.05 138.281 179.05C138.921 179.05 139.398 179.22 139.711 179.56C140.025 179.9 140.181 180.357 140.181 180.93V184H139.171V181.03C139.171 180.25 138.798 179.86 138.051 179.86C137.731 179.86 137.431 179.937 137.151 180.09C136.878 180.237 136.641 180.463 136.441 180.77V184H135.431V176.61ZM144.429 179.2H145.459L146.539 182.76L147.609 179.2H148.519L149.589 182.76L150.669 179.2H151.709L150.149 184H149.179L148.069 180.42L146.959 184H145.979L144.429 179.2ZM154.899 184.15C154.013 184.15 153.316 183.93 152.809 183.49C152.309 183.043 152.059 182.417 152.059 181.61C152.059 180.823 152.283 180.2 152.729 179.74C153.183 179.28 153.826 179.05 154.659 179.05C155.213 179.05 155.683 179.157 156.069 179.37C156.456 179.577 156.746 179.867 156.939 180.24C157.139 180.607 157.239 181.027 157.239 181.5V182H153.019C153.053 182.453 153.243 182.793 153.589 183.02C153.943 183.24 154.419 183.35 155.019 183.35C155.326 183.35 155.636 183.323 155.949 183.27C156.263 183.21 156.539 183.133 156.779 183.04V183.85C156.566 183.937 156.283 184.007 155.929 184.06C155.583 184.12 155.239 184.15 154.899 184.15ZM156.289 181.29C156.276 180.837 156.126 180.487 155.839 180.24C155.559 179.987 155.159 179.86 154.639 179.86C154.133 179.86 153.739 179.99 153.459 180.25C153.179 180.51 153.033 180.857 153.019 181.29H156.289ZM160.733 184.15C159.847 184.15 159.15 183.93 158.643 183.49C158.143 183.043 157.893 182.417 157.893 181.61C157.893 180.823 158.117 180.2 158.563 179.74C159.017 179.28 159.66 179.05 160.493 179.05C161.047 179.05 161.517 179.157 161.903 179.37C162.29 179.577 162.58 179.867 162.773 180.24C162.973 180.607 163.073 181.027 163.073 181.5V182H158.853C158.887 182.453 159.077 182.793 159.423 183.02C159.777 183.24 160.253 183.35 160.853 183.35C161.16 183.35 161.47 183.323 161.783 183.27C162.097 183.21 162.373 183.133 162.613 183.04V183.85C162.4 183.937 162.117 184.007 161.763 184.06C161.417 184.12 161.073 184.15 160.733 184.15ZM162.123 181.29C162.11 180.837 161.96 180.487 161.673 180.24C161.393 179.987 160.993 179.86 160.473 179.86C159.967 179.86 159.573 179.99 159.293 180.25C159.013 180.51 158.867 180.857 158.853 181.29H162.123ZM163.927 176.61H164.937V184H163.927V176.61ZM164.947 181.57L167.157 179.2H168.387L166.167 181.57L168.617 184H167.387L164.947 181.57ZM50.65 191.2H51.63V192.06C51.83 191.767 52.11 191.55 52.47 191.41C52.8367 191.27 53.26 191.2 53.74 191.2V191.99C53.2267 191.99 52.7867 192.073 52.42 192.24C52.0533 192.407 51.8 192.67 51.66 193.03V196H50.65V191.2ZM56.7314 196.15C55.8447 196.15 55.1481 195.93 54.6414 195.49C54.1414 195.043 53.8914 194.417 53.8914 193.61C53.8914 192.823 54.1147 192.2 54.5614 191.74C55.0147 191.28 55.6581 191.05 56.4914 191.05C57.0447 191.05 57.5147 191.157 57.9014 191.37C58.2881 191.577 58.5781 191.867 58.7714 192.24C58.9714 192.607 59.0714 193.027 59.0714 193.5V194H54.8514C54.8847 194.453 55.0747 194.793 55.4214 195.02C55.7747 195.24 56.2514 195.35 56.8514 195.35C57.1581 195.35 57.4681 195.323 57.7814 195.27C58.0947 195.21 58.3714 195.133 58.6114 195.04V195.85C58.3981 195.937 58.1147 196.007 57.7614 196.06C57.4147 196.12 57.0714 196.15 56.7314 196.15ZM58.1214 193.29C58.1081 192.837 57.9581 192.487 57.6714 192.24C57.3914 191.987 56.9914 191.86 56.4714 191.86C55.9647 191.86 55.5714 191.99 55.2914 192.25C55.0114 192.51 54.8647 192.857 54.8514 193.29H58.1214ZM62.4554 196.15C61.9221 196.15 61.4487 196.05 61.0354 195.85C60.6221 195.65 60.2987 195.36 60.0654 194.98C59.8387 194.593 59.7254 194.137 59.7254 193.61C59.7254 193.083 59.8387 192.63 60.0654 192.25C60.2987 191.863 60.6221 191.567 61.0354 191.36C61.4554 191.153 61.9354 191.05 62.4754 191.05C63.2087 191.05 63.7954 191.193 64.2354 191.48V192.31C63.8021 192.01 63.2487 191.86 62.5754 191.86C62.0287 191.86 61.5854 192.01 61.2454 192.31C60.9121 192.603 60.7454 193.037 60.7454 193.61C60.7454 194.183 60.9121 194.617 61.2454 194.91C61.5787 195.203 62.0154 195.35 62.5554 195.35C63.2287 195.35 63.8087 195.19 64.2954 194.87V195.69C64.0621 195.85 63.7954 195.967 63.4954 196.04C63.2021 196.113 62.8554 196.15 62.4554 196.15ZM67.7841 196.15C66.8975 196.15 66.2008 195.93 65.6941 195.49C65.1941 195.043 64.9441 194.417 64.9441 193.61C64.9441 192.823 65.1675 192.2 65.6141 191.74C66.0675 191.28 66.7108 191.05 67.5441 191.05C68.0975 191.05 68.5675 191.157 68.9541 191.37C69.3408 191.577 69.6308 191.867 69.8241 192.24C70.0241 192.607 70.1241 193.027 70.1241 193.5V194H65.9041C65.9375 194.453 66.1275 194.793 66.4741 195.02C66.8275 195.24 67.3041 195.35 67.9041 195.35C68.2108 195.35 68.5208 195.323 68.8341 195.27C69.1475 195.21 69.4241 195.133 69.6641 195.04V195.85C69.4508 195.937 69.1675 196.007 68.8141 196.06C68.4675 196.12 68.1241 196.15 67.7841 196.15ZM69.1741 193.29C69.1608 192.837 69.0108 192.487 68.7241 192.24C68.4441 191.987 68.0441 191.86 67.5241 191.86C67.0175 191.86 66.6241 191.99 66.3441 192.25C66.0641 192.51 65.9175 192.857 65.9041 193.29H69.1741ZM71.5681 190.26C71.4015 190.26 71.2615 190.203 71.1481 190.09C71.0348 189.977 70.9781 189.837 70.9781 189.67C70.9781 189.503 71.0348 189.363 71.1481 189.25C71.2615 189.137 71.4015 189.08 71.5681 189.08C71.7415 189.08 71.8848 189.137 71.9981 189.25C72.1181 189.363 72.1781 189.503 72.1781 189.67C72.1781 189.837 72.1181 189.977 71.9981 190.09C71.8848 190.203 71.7415 190.26 71.5681 190.26ZM71.0581 191.2H72.0881V196H71.0581V191.2ZM73.0281 191.2H74.0981L75.5081 194.65L76.9181 191.2H77.9881L75.9481 196H75.0681L73.0281 191.2ZM81.0771 196.15C80.1904 196.15 79.4938 195.93 78.9871 195.49C78.4871 195.043 78.2371 194.417 78.2371 193.61C78.2371 192.823 78.4604 192.2 78.9071 191.74C79.3604 191.28 80.0038 191.05 80.8371 191.05C81.3904 191.05 81.8604 191.157 82.2471 191.37C82.6338 191.577 82.9238 191.867 83.1171 192.24C83.3171 192.607 83.4171 193.027 83.4171 193.5V194H79.1971C79.2304 194.453 79.4204 194.793 79.7671 195.02C80.1204 195.24 80.5971 195.35 81.1971 195.35C81.5038 195.35 81.8138 195.323 82.1271 195.27C82.4404 195.21 82.7171 195.133 82.9571 195.04V195.85C82.7438 195.937 82.4604 196.007 82.1071 196.06C81.7604 196.12 81.4171 196.15 81.0771 196.15ZM82.4671 193.29C82.4538 192.837 82.3038 192.487 82.0171 192.24C81.7371 191.987 81.3371 191.86 80.8171 191.86C80.3104 191.86 79.9171 191.99 79.6371 192.25C79.3571 192.51 79.2104 192.857 79.1971 193.29H82.4671ZM90.2523 196.15C89.7123 196.15 89.2356 196.05 88.8223 195.85C88.4156 195.643 88.0956 195.35 87.8623 194.97C87.6356 194.583 87.5223 194.13 87.5223 193.61C87.5223 193.097 87.6356 192.647 87.8623 192.26C88.0889 191.873 88.4089 191.577 88.8223 191.37C89.2356 191.157 89.7123 191.05 90.2523 191.05C90.7923 191.05 91.2689 191.157 91.6823 191.37C92.0956 191.577 92.4156 191.873 92.6423 192.26C92.8756 192.647 92.9923 193.097 92.9923 193.61C92.9923 194.13 92.8756 194.583 92.6423 194.97C92.4156 195.35 92.0956 195.643 91.6823 195.85C91.2689 196.05 90.7923 196.15 90.2523 196.15ZM90.2523 195.35C90.7723 195.35 91.1856 195.19 91.4923 194.87C91.7989 194.55 91.9523 194.13 91.9523 193.61C91.9523 193.07 91.7989 192.643 91.4923 192.33C91.1856 192.017 90.7723 191.86 90.2523 191.86C89.7323 191.86 89.3189 192.017 89.0123 192.33C88.7056 192.643 88.5523 193.07 88.5523 193.61C88.5523 194.13 88.7056 194.55 89.0123 194.87C89.3189 195.19 89.7323 195.35 90.2523 195.35ZM95.7495 196.15C95.1028 196.15 94.6128 195.977 94.2795 195.63C93.9528 195.283 93.7895 194.82 93.7895 194.24V191.2H94.7995V194.2C94.7995 194.967 95.1828 195.35 95.9495 195.35C96.6228 195.35 97.1495 195.047 97.5295 194.44V191.2H98.5395V196H97.5595V195.32C97.3328 195.607 97.0628 195.817 96.7495 195.95C96.4428 196.083 96.1095 196.15 95.7495 196.15ZM99.5855 191.2H100.566V192.06C100.766 191.767 101.046 191.55 101.406 191.41C101.772 191.27 102.196 191.2 102.676 191.2V191.99C102.162 191.99 101.722 192.073 101.356 192.24C100.989 192.407 100.736 192.67 100.596 193.03V196H99.5855V191.2ZM109.371 189.01H110.351L113.141 196H112.101L111.401 194.26H108.311L107.631 196H106.581L109.371 189.01ZM111.121 193.41L109.861 190.14L108.601 193.41H111.121ZM113.992 189.01H115.022V196H113.992V189.01ZM122.117 189.01H123.097L125.887 196H124.847L124.147 194.26H121.057L120.377 196H119.327L122.117 189.01ZM123.867 193.41L122.607 190.14L121.347 193.41H123.867ZM128.156 196.15C127.823 196.15 127.47 196.107 127.096 196.02C126.723 195.94 126.43 195.83 126.216 195.69V194.83C126.476 194.983 126.776 195.11 127.116 195.21C127.456 195.303 127.786 195.35 128.106 195.35C128.466 195.35 128.73 195.307 128.896 195.22C129.063 195.133 129.146 194.993 129.146 194.8C129.146 194.653 129.106 194.537 129.026 194.45C128.953 194.357 128.823 194.273 128.636 194.2C128.456 194.127 128.183 194.04 127.816 193.94C127.423 193.827 127.11 193.713 126.876 193.6C126.65 193.48 126.476 193.33 126.356 193.15C126.243 192.97 126.186 192.737 126.186 192.45C126.186 191.99 126.366 191.643 126.726 191.41C127.093 191.17 127.583 191.05 128.196 191.05C128.516 191.05 128.83 191.08 129.136 191.14C129.443 191.2 129.69 191.283 129.876 191.39V192.23C129.683 192.117 129.443 192.027 129.156 191.96C128.876 191.893 128.59 191.86 128.296 191.86C127.943 191.86 127.673 191.903 127.486 191.99C127.3 192.077 127.206 192.23 127.206 192.45C127.206 192.59 127.246 192.703 127.326 192.79C127.406 192.877 127.533 192.953 127.706 193.02C127.886 193.08 128.17 193.16 128.556 193.26C129.163 193.427 129.583 193.623 129.816 193.85C130.056 194.077 130.176 194.39 130.176 194.79C130.176 195.203 130.006 195.533 129.666 195.78C129.326 196.027 128.823 196.15 128.156 196.15ZM132.545 196.15C132.212 196.15 131.858 196.107 131.485 196.02C131.112 195.94 130.818 195.83 130.605 195.69V194.83C130.865 194.983 131.165 195.11 131.505 195.21C131.845 195.303 132.175 195.35 132.495 195.35C132.855 195.35 133.118 195.307 133.285 195.22C133.452 195.133 133.535 194.993 133.535 194.8C133.535 194.653 133.495 194.537 133.415 194.45C133.342 194.357 133.212 194.273 133.025 194.2C132.845 194.127 132.572 194.04 132.205 193.94C131.812 193.827 131.498 193.713 131.265 193.6C131.038 193.48 130.865 193.33 130.745 193.15C130.632 192.97 130.575 192.737 130.575 192.45C130.575 191.99 130.755 191.643 131.115 191.41C131.482 191.17 131.972 191.05 132.585 191.05C132.905 191.05 133.218 191.08 133.525 191.14C133.832 191.2 134.078 191.283 134.265 191.39V192.23C134.072 192.117 133.832 192.027 133.545 191.96C133.265 191.893 132.978 191.86 132.685 191.86C132.332 191.86 132.062 191.903 131.875 191.99C131.688 192.077 131.595 192.23 131.595 192.45C131.595 192.59 131.635 192.703 131.715 192.79C131.795 192.877 131.922 192.953 132.095 193.02C132.275 193.08 132.558 193.16 132.945 193.26C133.552 193.427 133.972 193.623 134.205 193.85C134.445 194.077 134.565 194.39 134.565 194.79C134.565 195.203 134.395 195.533 134.055 195.78C133.715 196.027 133.212 196.15 132.545 196.15ZM136.008 190.26C135.841 190.26 135.701 190.203 135.588 190.09C135.474 189.977 135.418 189.837 135.418 189.67C135.418 189.503 135.474 189.363 135.588 189.25C135.701 189.137 135.841 189.08 136.008 189.08C136.181 189.08 136.324 189.137 136.438 189.25C136.558 189.363 136.618 189.503 136.618 189.67C136.618 189.837 136.558 189.977 136.438 190.09C136.324 190.203 136.181 190.26 136.008 190.26ZM135.498 191.2H136.528V196H135.498V191.2ZM139.438 196.15C139.104 196.15 138.751 196.107 138.378 196.02C138.004 195.94 137.711 195.83 137.498 195.69V194.83C137.758 194.983 138.058 195.11 138.398 195.21C138.738 195.303 139.068 195.35 139.388 195.35C139.748 195.35 140.011 195.307 140.178 195.22C140.344 195.133 140.428 194.993 140.428 194.8C140.428 194.653 140.388 194.537 140.308 194.45C140.234 194.357 140.104 194.273 139.918 194.2C139.738 194.127 139.464 194.04 139.098 193.94C138.704 193.827 138.391 193.713 138.158 193.6C137.931 193.48 137.758 193.33 137.638 193.15C137.524 192.97 137.468 192.737 137.468 192.45C137.468 191.99 137.648 191.643 138.008 191.41C138.374 191.17 138.864 191.05 139.478 191.05C139.798 191.05 140.111 191.08 140.418 191.14C140.724 191.2 140.971 191.283 141.158 191.39V192.23C140.964 192.117 140.724 192.027 140.438 191.96C140.158 191.893 139.871 191.86 139.578 191.86C139.224 191.86 138.954 191.903 138.768 191.99C138.581 192.077 138.488 192.23 138.488 192.45C138.488 192.59 138.528 192.703 138.608 192.79C138.688 192.877 138.814 192.953 138.988 193.02C139.168 193.08 139.451 193.16 139.838 193.26C140.444 193.427 140.864 193.623 141.098 193.85C141.338 194.077 141.458 194.39 141.458 194.79C141.458 195.203 141.288 195.533 140.948 195.78C140.608 196.027 140.104 196.15 139.438 196.15ZM144.014 196.15C143.527 196.15 143.15 196.01 142.884 195.73C142.624 195.45 142.494 195.053 142.494 194.54V191.98H141.764V191.2H142.494V189.76H143.514V191.2H144.694V191.98H143.514V194.47C143.514 194.79 143.574 195.017 143.694 195.15C143.82 195.283 144.047 195.35 144.374 195.35C144.567 195.35 144.76 195.307 144.954 195.22V196.02C144.7 196.107 144.387 196.15 144.014 196.15ZM147.227 196.15C146.647 196.15 146.181 196.003 145.827 195.71C145.481 195.41 145.307 195.007 145.307 194.5C145.307 193.967 145.474 193.557 145.807 193.27C146.147 192.977 146.627 192.83 147.247 192.83C147.907 192.83 148.467 192.963 148.927 193.23V192.98C148.927 192.6 148.811 192.32 148.577 192.14C148.351 191.953 147.991 191.86 147.497 191.86C147.204 191.86 146.917 191.89 146.637 191.95C146.364 192.003 146.117 192.08 145.897 192.18V191.36C146.097 191.267 146.357 191.193 146.677 191.14C146.997 191.08 147.307 191.05 147.607 191.05C148.401 191.05 148.987 191.227 149.367 191.58C149.754 191.927 149.947 192.41 149.947 193.03V196H148.997V195.46C148.791 195.687 148.544 195.86 148.257 195.98C147.977 196.093 147.634 196.15 147.227 196.15ZM147.477 195.38C147.797 195.38 148.087 195.317 148.347 195.19C148.607 195.063 148.801 194.887 148.927 194.66V194.01C148.494 193.73 148.011 193.59 147.477 193.59C147.091 193.59 146.801 193.667 146.607 193.82C146.421 193.967 146.327 194.193 146.327 194.5C146.327 195.087 146.711 195.38 147.477 195.38ZM150.951 191.2H151.931V191.89C152.157 191.603 152.434 191.393 152.761 191.26C153.094 191.12 153.441 191.05 153.801 191.05C154.441 191.05 154.917 191.22 155.231 191.56C155.544 191.9 155.701 192.357 155.701 192.93V196H154.691V193.03C154.691 192.25 154.317 191.86 153.571 191.86C153.251 191.86 152.951 191.937 152.671 192.09C152.397 192.237 152.161 192.463 151.961 192.77V196H150.951V191.2ZM158.547 196.15C158.06 196.15 157.684 196.01 157.417 195.73C157.157 195.45 157.027 195.053 157.027 194.54V191.98H156.297V191.2H157.027V189.76H158.047V191.2H159.227V191.98H158.047V194.47C158.047 194.79 158.107 195.017 158.227 195.15C158.354 195.283 158.58 195.35 158.907 195.35C159.1 195.35 159.294 195.307 159.487 195.22V196.02C159.234 196.107 158.92 196.15 158.547 196.15ZM160.393 188.86H161.393L160.603 190.81H159.733L160.393 188.86ZM163.66 196.15C163.327 196.15 162.974 196.107 162.6 196.02C162.227 195.94 161.934 195.83 161.72 195.69V194.83C161.98 194.983 162.28 195.11 162.62 195.21C162.96 195.303 163.29 195.35 163.61 195.35C163.97 195.35 164.234 195.307 164.4 195.22C164.567 195.133 164.65 194.993 164.65 194.8C164.65 194.653 164.61 194.537 164.53 194.45C164.457 194.357 164.327 194.273 164.14 194.2C163.96 194.127 163.687 194.04 163.32 193.94C162.927 193.827 162.614 193.713 162.38 193.6C162.154 193.48 161.98 193.33 161.86 193.15C161.747 192.97 161.69 192.737 161.69 192.45C161.69 191.99 161.87 191.643 162.23 191.41C162.597 191.17 163.087 191.05 163.7 191.05C164.02 191.05 164.334 191.08 164.64 191.14C164.947 191.2 165.194 191.283 165.38 191.39V192.23C165.187 192.117 164.947 192.027 164.66 191.96C164.38 191.893 164.094 191.86 163.8 191.86C163.447 191.86 163.177 191.903 162.99 191.99C162.804 192.077 162.71 192.23 162.71 192.45C162.71 192.59 162.75 192.703 162.83 192.79C162.91 192.877 163.037 192.953 163.21 193.02C163.39 193.08 163.674 193.16 164.06 193.26C164.667 193.427 165.087 193.623 165.32 193.85C165.56 194.077 165.68 194.39 165.68 194.79C165.68 195.203 165.51 195.533 165.17 195.78C164.83 196.027 164.327 196.15 163.66 196.15ZM52.42 208.15C52.0867 208.15 51.7333 208.107 51.36 208.02C50.9867 207.94 50.6933 207.83 50.48 207.69V206.83C50.74 206.983 51.04 207.11 51.38 207.21C51.72 207.303 52.05 207.35 52.37 207.35C52.73 207.35 52.9933 207.307 53.16 207.22C53.3267 207.133 53.41 206.993 53.41 206.8C53.41 206.653 53.37 206.537 53.29 206.45C53.2167 206.357 53.0867 206.273 52.9 206.2C52.72 206.127 52.4467 206.04 52.08 205.94C51.6867 205.827 51.3733 205.713 51.14 205.6C50.9133 205.48 50.74 205.33 50.62 205.15C50.5067 204.97 50.45 204.737 50.45 204.45C50.45 203.99 50.63 203.643 50.99 203.41C51.3567 203.17 51.8467 203.05 52.46 203.05C52.78 203.05 53.0933 203.08 53.4 203.14C53.7067 203.2 53.9533 203.283 54.14 203.39V204.23C53.9467 204.117 53.7067 204.027 53.42 203.96C53.14 203.893 52.8533 203.86 52.56 203.86C52.2067 203.86 51.9367 203.903 51.75 203.99C51.5633 204.077 51.47 204.23 51.47 204.45C51.47 204.59 51.51 204.703 51.59 204.79C51.67 204.877 51.7967 204.953 51.97 205.02C52.15 205.08 52.4333 205.16 52.82 205.26C53.4267 205.427 53.8467 205.623 54.08 205.85C54.32 206.077 54.44 206.39 54.44 206.79C54.44 207.203 54.27 207.533 53.93 207.78C53.59 208.027 53.0867 208.15 52.42 208.15ZM57.2026 208.15C56.5559 208.15 56.0659 207.977 55.7326 207.63C55.4059 207.283 55.2426 206.82 55.2426 206.24V203.2H56.2526V206.2C56.2526 206.967 56.6359 207.35 57.4026 207.35C58.0759 207.35 58.6026 207.047 58.9826 206.44V203.2H59.9926V208H59.0126V207.32C58.7859 207.607 58.5159 207.817 58.2026 207.95C57.8959 208.083 57.5626 208.15 57.2026 208.15ZM61.0387 203.2H62.0187V203.91C62.512 203.337 63.1787 203.05 64.0187 203.05C64.4987 203.05 64.9287 203.157 65.3087 203.37C65.6953 203.583 65.9953 203.883 66.2087 204.27C66.4287 204.65 66.5387 205.093 66.5387 205.6C66.5387 206.1 66.4287 206.543 66.2087 206.93C65.9953 207.317 65.6987 207.617 65.3187 207.83C64.9387 208.043 64.5053 208.15 64.0187 208.15C63.6187 208.15 63.2453 208.083 62.8987 207.95C62.552 207.817 62.2687 207.62 62.0487 207.36V210.19H61.0387V203.2ZM63.7887 207.35C64.1153 207.35 64.4087 207.28 64.6687 207.14C64.9353 206.993 65.142 206.787 65.2887 206.52C65.442 206.253 65.5187 205.947 65.5187 205.6C65.5187 205.253 65.442 204.95 65.2887 204.69C65.142 204.423 64.9353 204.22 64.6687 204.08C64.4087 203.933 64.1153 203.86 63.7887 203.86C63.382 203.86 63.022 203.967 62.7087 204.18C62.402 204.393 62.182 204.687 62.0487 205.06V206.14C62.162 206.507 62.3787 206.8 62.6987 207.02C63.0187 207.24 63.382 207.35 63.7887 207.35ZM67.3902 203.2H68.3702V203.91C68.8636 203.337 69.5302 203.05 70.3702 203.05C70.8502 203.05 71.2802 203.157 71.6602 203.37C72.0469 203.583 72.3469 203.883 72.5602 204.27C72.7802 204.65 72.8902 205.093 72.8902 205.6C72.8902 206.1 72.7802 206.543 72.5602 206.93C72.3469 207.317 72.0502 207.617 71.6702 207.83C71.2902 208.043 70.8569 208.15 70.3702 208.15C69.9702 208.15 69.5969 208.083 69.2502 207.95C68.9036 207.817 68.6202 207.62 68.4002 207.36V210.19H67.3902V203.2ZM70.1402 207.35C70.4669 207.35 70.7602 207.28 71.0202 207.14C71.2869 206.993 71.4936 206.787 71.6402 206.52C71.7936 206.253 71.8702 205.947 71.8702 205.6C71.8702 205.253 71.7936 204.95 71.6402 204.69C71.4936 204.423 71.2869 204.22 71.0202 204.08C70.7602 203.933 70.4669 203.86 70.1402 203.86C69.7336 203.86 69.3736 203.967 69.0602 204.18C68.7536 204.393 68.5336 204.687 68.4002 205.06V206.14C68.5136 206.507 68.7302 206.8 69.0502 207.02C69.3702 207.24 69.7336 207.35 70.1402 207.35ZM76.0179 208.15C75.4779 208.15 75.0012 208.05 74.5879 207.85C74.1812 207.643 73.8612 207.35 73.6279 206.97C73.4012 206.583 73.2879 206.13 73.2879 205.61C73.2879 205.097 73.4012 204.647 73.6279 204.26C73.8546 203.873 74.1746 203.577 74.5879 203.37C75.0012 203.157 75.4779 203.05 76.0179 203.05C76.5579 203.05 77.0346 203.157 77.4479 203.37C77.8612 203.577 78.1812 203.873 78.4079 204.26C78.6412 204.647 78.7579 205.097 78.7579 205.61C78.7579 206.13 78.6412 206.583 78.4079 206.97C78.1812 207.35 77.8612 207.643 77.4479 207.85C77.0346 208.05 76.5579 208.15 76.0179 208.15ZM76.0179 207.35C76.5379 207.35 76.9512 207.19 77.2579 206.87C77.5646 206.55 77.7179 206.13 77.7179 205.61C77.7179 205.07 77.5646 204.643 77.2579 204.33C76.9512 204.017 76.5379 203.86 76.0179 203.86C75.4979 203.86 75.0846 204.017 74.7779 204.33C74.4712 204.643 74.3179 205.07 74.3179 205.61C74.3179 206.13 74.4712 206.55 74.7779 206.87C75.0846 207.19 75.4979 207.35 76.0179 207.35ZM79.6051 203.2H80.5851V204.06C80.7851 203.767 81.0651 203.55 81.4251 203.41C81.7917 203.27 82.2151 203.2 82.6951 203.2V203.99C82.1817 203.99 81.7417 204.073 81.3751 204.24C81.0084 204.407 80.7551 204.67 80.6151 205.03V208H79.6051V203.2ZM85.1992 208.15C84.7126 208.15 84.3359 208.01 84.0692 207.73C83.8092 207.45 83.6792 207.053 83.6792 206.54V203.98H82.9492V203.2H83.6792V201.76H84.6992V203.2H85.8792V203.98H84.6992V206.47C84.6992 206.79 84.7592 207.017 84.8792 207.15C85.0059 207.283 85.2326 207.35 85.5592 207.35C85.7526 207.35 85.9459 207.307 86.1392 207.22V208.02C85.8859 208.107 85.5726 208.15 85.1992 208.15ZM92.0106 208.15C91.4306 208.15 90.964 208.003 90.6106 207.71C90.264 207.41 90.0906 207.007 90.0906 206.5C90.0906 205.967 90.2573 205.557 90.5906 205.27C90.9306 204.977 91.4106 204.83 92.0306 204.83C92.6906 204.83 93.2506 204.963 93.7106 205.23V204.98C93.7106 204.6 93.594 204.32 93.3606 204.14C93.134 203.953 92.774 203.86 92.2806 203.86C91.9873 203.86 91.7006 203.89 91.4206 203.95C91.1473 204.003 90.9006 204.08 90.6806 204.18V203.36C90.8806 203.267 91.1406 203.193 91.4606 203.14C91.7806 203.08 92.0906 203.05 92.3906 203.05C93.184 203.05 93.7706 203.227 94.1506 203.58C94.5373 203.927 94.7306 204.41 94.7306 205.03V208H93.7806V207.46C93.574 207.687 93.3273 207.86 93.0406 207.98C92.7606 208.093 92.4173 208.15 92.0106 208.15ZM92.2606 207.38C92.5806 207.38 92.8706 207.317 93.1306 207.19C93.3906 207.063 93.584 206.887 93.7106 206.66V206.01C93.2773 205.73 92.794 205.59 92.2606 205.59C91.874 205.59 91.584 205.667 91.3906 205.82C91.204 205.967 91.1106 206.193 91.1106 206.5C91.1106 207.087 91.494 207.38 92.2606 207.38ZM95.734 203.2H96.714V203.89C96.9407 203.603 97.2173 203.393 97.544 203.26C97.8773 203.12 98.224 203.05 98.584 203.05C99.224 203.05 99.7007 203.22 100.014 203.56C100.327 203.9 100.484 204.357 100.484 204.93V208H99.474V205.03C99.474 204.25 99.1007 203.86 98.354 203.86C98.034 203.86 97.734 203.937 97.454 204.09C97.1807 204.237 96.944 204.463 96.744 204.77V208H95.734V203.2ZM103.8 208.15C103.32 208.15 102.887 208.047 102.5 207.84C102.12 207.627 101.82 207.33 101.6 206.95C101.387 206.563 101.28 206.117 101.28 205.61C101.28 205.11 101.387 204.667 101.6 204.28C101.82 203.893 102.12 203.593 102.5 203.38C102.887 203.16 103.32 203.05 103.8 203.05C104.667 203.05 105.323 203.313 105.77 203.84V200.61H106.78V208H105.8V207.3C105.533 207.593 105.24 207.81 104.92 207.95C104.607 208.083 104.233 208.15 103.8 208.15ZM104.03 207.35C104.443 207.35 104.803 207.243 105.11 207.03C105.423 206.81 105.643 206.517 105.77 206.15V205.07C105.657 204.703 105.44 204.41 105.12 204.19C104.807 203.97 104.443 203.86 104.03 203.86C103.703 203.86 103.407 203.933 103.14 204.08C102.88 204.227 102.673 204.433 102.52 204.7C102.373 204.967 102.3 205.27 102.3 205.61C102.3 205.95 102.373 206.253 102.52 206.52C102.673 206.787 102.88 206.993 103.14 207.14C103.407 207.28 103.703 207.35 104.03 207.35ZM111.283 203.2H112.263V204.06C112.463 203.767 112.743 203.55 113.103 203.41C113.469 203.27 113.893 203.2 114.373 203.2V203.99C113.859 203.99 113.419 204.073 113.053 204.24C112.686 204.407 112.433 204.67 112.293 205.03V208H111.283V203.2ZM117.364 208.15C116.478 208.15 115.781 207.93 115.274 207.49C114.774 207.043 114.524 206.417 114.524 205.61C114.524 204.823 114.748 204.2 115.194 203.74C115.648 203.28 116.291 203.05 117.124 203.05C117.678 203.05 118.148 203.157 118.534 203.37C118.921 203.577 119.211 203.867 119.404 204.24C119.604 204.607 119.704 205.027 119.704 205.5V206H115.484C115.518 206.453 115.708 206.793 116.054 207.02C116.408 207.24 116.884 207.35 117.484 207.35C117.791 207.35 118.101 207.323 118.414 207.27C118.728 207.21 119.004 207.133 119.244 207.04V207.85C119.031 207.937 118.748 208.007 118.394 208.06C118.048 208.12 117.704 208.15 117.364 208.15ZM118.754 205.29C118.741 204.837 118.591 204.487 118.304 204.24C118.024 203.987 117.624 203.86 117.104 203.86C116.598 203.86 116.204 203.99 115.924 204.25C115.644 204.51 115.498 204.857 115.484 205.29H118.754ZM122.328 208.15C121.995 208.15 121.642 208.107 121.268 208.02C120.895 207.94 120.602 207.83 120.388 207.69V206.83C120.648 206.983 120.948 207.11 121.288 207.21C121.628 207.303 121.958 207.35 122.278 207.35C122.638 207.35 122.902 207.307 123.068 207.22C123.235 207.133 123.318 206.993 123.318 206.8C123.318 206.653 123.278 206.537 123.198 206.45C123.125 206.357 122.995 206.273 122.808 206.2C122.628 206.127 122.355 206.04 121.988 205.94C121.595 205.827 121.282 205.713 121.048 205.6C120.822 205.48 120.648 205.33 120.528 205.15C120.415 204.97 120.358 204.737 120.358 204.45C120.358 203.99 120.538 203.643 120.898 203.41C121.265 203.17 121.755 203.05 122.368 203.05C122.688 203.05 123.002 203.08 123.308 203.14C123.615 203.2 123.862 203.283 124.048 203.39V204.23C123.855 204.117 123.615 204.027 123.328 203.96C123.048 203.893 122.762 203.86 122.468 203.86C122.115 203.86 121.845 203.903 121.658 203.99C121.472 204.077 121.378 204.23 121.378 204.45C121.378 204.59 121.418 204.703 121.498 204.79C121.578 204.877 121.705 204.953 121.878 205.02C122.058 205.08 122.342 205.16 122.728 205.26C123.335 205.427 123.755 205.623 123.988 205.85C124.228 206.077 124.348 206.39 124.348 206.79C124.348 207.203 124.178 207.533 123.838 207.78C123.498 208.027 122.995 208.15 122.328 208.15ZM125.791 202.26C125.624 202.26 125.484 202.203 125.371 202.09C125.257 201.977 125.201 201.837 125.201 201.67C125.201 201.503 125.257 201.363 125.371 201.25C125.484 201.137 125.624 201.08 125.791 201.08C125.964 201.08 126.107 201.137 126.221 201.25C126.341 201.363 126.401 201.503 126.401 201.67C126.401 201.837 126.341 201.977 126.221 202.09C126.107 202.203 125.964 202.26 125.791 202.26ZM125.281 203.2H126.311V208H125.281V203.2ZM129.221 208.15C128.887 208.15 128.534 208.107 128.161 208.02C127.787 207.94 127.494 207.83 127.281 207.69V206.83C127.541 206.983 127.841 207.11 128.181 207.21C128.521 207.303 128.851 207.35 129.171 207.35C129.531 207.35 129.794 207.307 129.961 207.22C130.127 207.133 130.211 206.993 130.211 206.8C130.211 206.653 130.171 206.537 130.091 206.45C130.017 206.357 129.887 206.273 129.701 206.2C129.521 206.127 129.247 206.04 128.881 205.94C128.487 205.827 128.174 205.713 127.941 205.6C127.714 205.48 127.541 205.33 127.421 205.15C127.307 204.97 127.251 204.737 127.251 204.45C127.251 203.99 127.431 203.643 127.791 203.41C128.157 203.17 128.647 203.05 129.261 203.05C129.581 203.05 129.894 203.08 130.201 203.14C130.507 203.2 130.754 203.283 130.941 203.39V204.23C130.747 204.117 130.507 204.027 130.221 203.96C129.941 203.893 129.654 203.86 129.361 203.86C129.007 203.86 128.737 203.903 128.551 203.99C128.364 204.077 128.271 204.23 128.271 204.45C128.271 204.59 128.311 204.703 128.391 204.79C128.471 204.877 128.597 204.953 128.771 205.02C128.951 205.08 129.234 205.16 129.621 205.26C130.227 205.427 130.647 205.623 130.881 205.85C131.121 206.077 131.241 206.39 131.241 206.79C131.241 207.203 131.071 207.533 130.731 207.78C130.391 208.027 129.887 208.15 129.221 208.15ZM133.797 208.15C133.31 208.15 132.934 208.01 132.667 207.73C132.407 207.45 132.277 207.053 132.277 206.54V203.98H131.547V203.2H132.277V201.76H133.297V203.2H134.477V203.98H133.297V206.47C133.297 206.79 133.357 207.017 133.477 207.15C133.604 207.283 133.83 207.35 134.157 207.35C134.35 207.35 134.544 207.307 134.737 207.22V208.02C134.484 208.107 134.17 208.15 133.797 208.15ZM137.011 208.15C136.431 208.15 135.964 208.003 135.611 207.71C135.264 207.41 135.091 207.007 135.091 206.5C135.091 205.967 135.257 205.557 135.591 205.27C135.931 204.977 136.411 204.83 137.031 204.83C137.691 204.83 138.251 204.963 138.711 205.23V204.98C138.711 204.6 138.594 204.32 138.361 204.14C138.134 203.953 137.774 203.86 137.281 203.86C136.987 203.86 136.701 203.89 136.421 203.95C136.147 204.003 135.901 204.08 135.681 204.18V203.36C135.881 203.267 136.141 203.193 136.461 203.14C136.781 203.08 137.091 203.05 137.391 203.05C138.184 203.05 138.771 203.227 139.151 203.58C139.537 203.927 139.731 204.41 139.731 205.03V208H138.781V207.46C138.574 207.687 138.327 207.86 138.041 207.98C137.761 208.093 137.417 208.15 137.011 208.15ZM137.261 207.38C137.581 207.38 137.871 207.317 138.131 207.19C138.391 207.063 138.584 206.887 138.711 206.66V206.01C138.277 205.73 137.794 205.59 137.261 205.59C136.874 205.59 136.584 205.667 136.391 205.82C136.204 205.967 136.111 206.193 136.111 206.5C136.111 207.087 136.494 207.38 137.261 207.38ZM140.734 203.2H141.714V203.89C141.941 203.603 142.217 203.393 142.544 203.26C142.877 203.12 143.224 203.05 143.584 203.05C144.224 203.05 144.701 203.22 145.014 203.56C145.327 203.9 145.484 204.357 145.484 204.93V208H144.474V205.03C144.474 204.25 144.101 203.86 143.354 203.86C143.034 203.86 142.734 203.937 142.454 204.09C142.181 204.237 141.944 204.463 141.744 204.77V208H140.734V203.2ZM149.01 208.15C148.477 208.15 148.003 208.05 147.59 207.85C147.177 207.65 146.853 207.36 146.62 206.98C146.393 206.593 146.28 206.137 146.28 205.61C146.28 205.083 146.393 204.63 146.62 204.25C146.853 203.863 147.177 203.567 147.59 203.36C148.01 203.153 148.49 203.05 149.03 203.05C149.763 203.05 150.35 203.193 150.79 203.48V204.31C150.357 204.01 149.803 203.86 149.13 203.86C148.583 203.86 148.14 204.01 147.8 204.31C147.467 204.603 147.3 205.037 147.3 205.61C147.3 206.183 147.467 206.617 147.8 206.91C148.133 207.203 148.57 207.35 149.11 207.35C149.783 207.35 150.363 207.19 150.85 206.87V207.69C150.617 207.85 150.35 207.967 150.05 208.04C149.757 208.113 149.41 208.15 149.01 208.15ZM154.339 208.15C153.452 208.15 152.755 207.93 152.249 207.49C151.749 207.043 151.499 206.417 151.499 205.61C151.499 204.823 151.722 204.2 152.169 203.74C152.622 203.28 153.265 203.05 154.099 203.05C154.652 203.05 155.122 203.157 155.509 203.37C155.895 203.577 156.185 203.867 156.379 204.24C156.579 204.607 156.679 205.027 156.679 205.5V206H152.459C152.492 206.453 152.682 206.793 153.029 207.02C153.382 207.24 153.859 207.35 154.459 207.35C154.765 207.35 155.075 207.323 155.389 207.27C155.702 207.21 155.979 207.133 156.219 207.04V207.85C156.005 207.937 155.722 208.007 155.369 208.06C155.022 208.12 154.679 208.15 154.339 208.15ZM155.729 205.29C155.715 204.837 155.565 204.487 155.279 204.24C154.999 203.987 154.599 203.86 154.079 203.86C153.572 203.86 153.179 203.99 152.899 204.25C152.619 204.51 152.472 204.857 152.459 205.29H155.729ZM50.65 212.61H51.66V220H50.65V212.61ZM53.3045 214.26C53.1378 214.26 52.9978 214.203 52.8845 214.09C52.7711 213.977 52.7145 213.837 52.7145 213.67C52.7145 213.503 52.7711 213.363 52.8845 213.25C52.9978 213.137 53.1378 213.08 53.3045 213.08C53.4778 213.08 53.6211 213.137 53.7345 213.25C53.8545 213.363 53.9145 213.503 53.9145 213.67C53.9145 213.837 53.8545 213.977 53.7345 214.09C53.6211 214.203 53.4778 214.26 53.3045 214.26ZM52.7945 215.2H53.8245V220H52.7945V215.2ZM54.9645 215.2H55.9445V215.89C56.1711 215.603 56.4478 215.393 56.7745 215.26C57.1078 215.12 57.4545 215.05 57.8145 215.05C58.4545 215.05 58.9311 215.22 59.2445 215.56C59.5578 215.9 59.7145 216.357 59.7145 216.93V220H58.7045V217.03C58.7045 216.25 58.3311 215.86 57.5845 215.86C57.2645 215.86 56.9645 215.937 56.6845 216.09C56.4111 216.237 56.1745 216.463 55.9745 216.77V220H54.9645V215.2ZM63.3505 220.15C62.4639 220.15 61.7672 219.93 61.2605 219.49C60.7605 219.043 60.5105 218.417 60.5105 217.61C60.5105 216.823 60.7339 216.2 61.1805 215.74C61.6339 215.28 62.2772 215.05 63.1105 215.05C63.6639 215.05 64.1339 215.157 64.5205 215.37C64.9072 215.577 65.1972 215.867 65.3905 216.24C65.5905 216.607 65.6905 217.027 65.6905 217.5V218H61.4705C61.5039 218.453 61.6939 218.793 62.0405 219.02C62.3939 219.24 62.8705 219.35 63.4705 219.35C63.7772 219.35 64.0872 219.323 64.4005 219.27C64.7139 219.21 64.9905 219.133 65.2305 219.04V219.85C65.0172 219.937 64.7339 220.007 64.3805 220.06C64.0339 220.12 63.6905 220.15 63.3505 220.15ZM64.7405 217.29C64.7272 216.837 64.5772 216.487 64.2905 216.24C64.0105 215.987 63.6105 215.86 63.0905 215.86C62.5839 215.86 62.1905 215.99 61.9105 216.25C61.6305 216.51 61.4839 216.857 61.4705 217.29H64.7405ZM68.3145 220.15C67.9812 220.15 67.6279 220.107 67.2545 220.02C66.8812 219.94 66.5879 219.83 66.3745 219.69V218.83C66.6345 218.983 66.9345 219.11 67.2745 219.21C67.6145 219.303 67.9445 219.35 68.2645 219.35C68.6245 219.35 68.8879 219.307 69.0545 219.22C69.2212 219.133 69.3045 218.993 69.3045 218.8C69.3045 218.653 69.2645 218.537 69.1845 218.45C69.1112 218.357 68.9812 218.273 68.7945 218.2C68.6145 218.127 68.3412 218.04 67.9745 217.94C67.5812 217.827 67.2679 217.713 67.0345 217.6C66.8079 217.48 66.6345 217.33 66.5145 217.15C66.4012 216.97 66.3445 216.737 66.3445 216.45C66.3445 215.99 66.5245 215.643 66.8845 215.41C67.2512 215.17 67.7412 215.05 68.3545 215.05C68.6745 215.05 68.9879 215.08 69.2945 215.14C69.6012 215.2 69.8479 215.283 70.0345 215.39V216.23C69.8412 216.117 69.6012 216.027 69.3145 215.96C69.0345 215.893 68.7479 215.86 68.4545 215.86C68.1012 215.86 67.8312 215.903 67.6445 215.99C67.4579 216.077 67.3645 216.23 67.3645 216.45C67.3645 216.59 67.4045 216.703 67.4845 216.79C67.5645 216.877 67.6912 216.953 67.8645 217.02C68.0445 217.08 68.3279 217.16 68.7145 217.26C69.3212 217.427 69.7412 217.623 69.9745 217.85C70.2145 218.077 70.3345 218.39 70.3345 218.79C70.3345 219.203 70.1645 219.533 69.8245 219.78C69.4845 220.027 68.9812 220.15 68.3145 220.15ZM74.9683 215.98H74.2383V215.2H74.9683V214.26C74.9683 213.707 75.1249 213.287 75.4383 213C75.7516 212.707 76.1716 212.56 76.6983 212.56C76.9716 212.56 77.2283 212.6 77.4683 212.68V213.52C77.2816 213.433 77.0883 213.39 76.8883 213.39C76.5749 213.39 76.3449 213.467 76.1983 213.62C76.0516 213.767 75.9783 214 75.9783 214.32V215.2H77.1783V215.98H75.9783V220H74.9683V215.98ZM80.0921 220.15C79.5521 220.15 79.0754 220.05 78.6621 219.85C78.2554 219.643 77.9354 219.35 77.7021 218.97C77.4754 218.583 77.3621 218.13 77.3621 217.61C77.3621 217.097 77.4754 216.647 77.7021 216.26C77.9288 215.873 78.2488 215.577 78.6621 215.37C79.0754 215.157 79.5521 215.05 80.0921 215.05C80.6321 215.05 81.1088 215.157 81.5221 215.37C81.9354 215.577 82.2554 215.873 82.4821 216.26C82.7154 216.647 82.8321 217.097 82.8321 217.61C82.8321 218.13 82.7154 218.583 82.4821 218.97C82.2554 219.35 81.9354 219.643 81.5221 219.85C81.1088 220.05 80.6321 220.15 80.0921 220.15ZM80.0921 219.35C80.6121 219.35 81.0254 219.19 81.3321 218.87C81.6388 218.55 81.7921 218.13 81.7921 217.61C81.7921 217.07 81.6388 216.643 81.3321 216.33C81.0254 216.017 80.6121 215.86 80.0921 215.86C79.5721 215.86 79.1588 216.017 78.8521 216.33C78.5454 216.643 78.3921 217.07 78.3921 217.61C78.3921 218.13 78.5454 218.55 78.8521 218.87C79.1588 219.19 79.5721 219.35 80.0921 219.35ZM83.6793 215.2H84.6593V216.06C84.8593 215.767 85.1393 215.55 85.4993 215.41C85.866 215.27 86.2893 215.2 86.7693 215.2V215.99C86.256 215.99 85.816 216.073 85.4493 216.24C85.0826 216.407 84.8293 216.67 84.6893 217.03V220H83.6793V215.2ZM90.8746 213.01H94.0846C94.7046 213.01 95.1846 213.17 95.5246 213.49C95.8646 213.81 96.0346 214.277 96.0346 214.89C96.0346 215.237 95.9513 215.543 95.7846 215.81C95.6246 216.07 95.4113 216.263 95.1446 216.39C95.8913 216.61 96.2646 217.153 96.2646 218.02C96.2646 218.427 96.1746 218.78 95.9946 219.08C95.8213 219.373 95.5813 219.6 95.2746 219.76C94.9679 219.92 94.6279 220 94.2546 220H90.8746V213.01ZM93.9546 216.01C94.2813 216.01 94.5379 215.92 94.7246 215.74C94.9113 215.56 95.0046 215.293 95.0046 214.94C95.0046 214.533 94.9113 214.25 94.7246 214.09C94.5446 213.923 94.2646 213.84 93.8846 213.84H91.8946V216.01H93.9546ZM94.0246 219.17C94.4179 219.17 94.7179 219.083 94.9246 218.91C95.1313 218.737 95.2346 218.44 95.2346 218.02C95.2346 217.6 95.1246 217.3 94.9046 217.12C94.6913 216.94 94.3679 216.85 93.9346 216.85H91.8946V219.17H94.0246ZM98.6348 213.87H96.4648V213.01H101.835V213.87H99.6648V220H98.6348V213.87ZM105.437 220.15C104.717 220.15 104.077 220 103.517 219.7C102.957 219.4 102.52 218.977 102.207 218.43C101.894 217.877 101.737 217.237 101.737 216.51C101.737 215.783 101.894 215.143 102.207 214.59C102.52 214.037 102.957 213.61 103.517 213.31C104.077 213.01 104.717 212.86 105.437 212.86C106.397 212.86 107.2 213.103 107.847 213.59V214.57C107.267 214.057 106.494 213.8 105.527 213.8C104.987 213.8 104.507 213.91 104.087 214.13C103.674 214.35 103.35 214.667 103.117 215.08C102.884 215.487 102.767 215.963 102.767 216.51C102.767 217.057 102.884 217.537 103.117 217.95C103.357 218.363 103.684 218.68 104.097 218.9C104.517 219.12 104.994 219.23 105.527 219.23C106.02 219.23 106.46 219.167 106.847 219.04C107.24 218.907 107.604 218.697 107.937 218.41V219.4C107.337 219.9 106.504 220.15 105.437 220.15ZM109.057 220C108.923 220 108.81 219.957 108.717 219.87C108.63 219.777 108.587 219.663 108.587 219.53C108.587 219.397 108.63 219.283 108.717 219.19C108.81 219.097 108.923 219.05 109.057 219.05C109.19 219.05 109.303 219.097 109.397 219.19C109.49 219.283 109.537 219.397 109.537 219.53C109.537 219.663 109.49 219.777 109.397 219.87C109.303 219.957 109.19 220 109.057 220Z" fill="#FAFAF9"/>
<ellipse cx="35.5" cy="184.96" rx="6.5" ry="6.96028" fill="#D9D9D9"/>
<path d="M32.0952 184.629L34.2619 186.949L38.9047 181.978" stroke="url(#paint2_linear_1037_634)" stroke-width="2"/>
<rect x="52" y="249" width="98" height="36.3276" rx="11" fill="url(#paint3_linear_1037_634)"/>
<path d="M79.0315 271.473C78.5035 271.473 77.9795 271.421 77.4595 271.317C76.9395 271.221 76.5115 271.085 76.1755 270.909V269.001C76.6075 269.225 77.0555 269.393 77.5195 269.505C77.9915 269.617 78.4395 269.673 78.8635 269.673C79.2555 269.673 79.5515 269.613 79.7515 269.493C79.9515 269.373 80.0515 269.201 80.0515 268.977C80.0515 268.809 79.9955 268.665 79.8835 268.545C79.7795 268.417 79.6235 268.301 79.4155 268.197C79.2075 268.093 78.8835 267.949 78.4435 267.765C77.6675 267.437 77.1035 267.073 76.7515 266.673C76.3995 266.273 76.2235 265.781 76.2235 265.197C76.2235 264.717 76.3555 264.289 76.6195 263.913C76.8915 263.537 77.2675 263.245 77.7475 263.037C78.2275 262.829 78.7795 262.725 79.4035 262.725C79.9155 262.725 80.3715 262.765 80.7715 262.845C81.1715 262.925 81.5555 263.053 81.9235 263.229V265.089C81.2195 264.721 80.5115 264.537 79.7995 264.537C79.4155 264.537 79.1075 264.601 78.8755 264.729C78.6515 264.849 78.5395 265.025 78.5395 265.257C78.5395 265.489 78.6555 265.677 78.8875 265.821C79.1195 265.965 79.5475 266.161 80.1715 266.409C80.7395 266.641 81.1795 266.869 81.4915 267.093C81.8115 267.317 82.0435 267.577 82.1875 267.873C82.3315 268.169 82.4035 268.545 82.4035 269.001C82.4035 269.777 82.1195 270.385 81.5515 270.825C80.9915 271.257 80.1515 271.473 79.0315 271.473ZM85.3755 264.765C85.0555 264.765 84.7875 264.661 84.5715 264.453C84.3555 264.245 84.2475 263.981 84.2475 263.661C84.2475 263.349 84.3555 263.089 84.5715 262.881C84.7875 262.665 85.0555 262.557 85.3755 262.557C85.6875 262.557 85.9515 262.665 86.1675 262.881C86.3915 263.089 86.5035 263.349 86.5035 263.661C86.5035 263.973 86.3915 264.237 86.1675 264.453C85.9515 264.661 85.6875 264.765 85.3755 264.765ZM84.3195 265.533H86.4315V271.293H84.3195V265.533ZM91.7193 274.053C91.3353 274.053 90.9473 274.017 90.5553 273.945C90.1713 273.873 89.8393 273.777 89.5593 273.657V272.193C90.1913 272.465 90.9113 272.601 91.7193 272.601C92.3033 272.601 92.7233 272.481 92.9793 272.241C93.2433 272.001 93.3753 271.649 93.3753 271.185V270.837C93.1433 271.037 92.8553 271.193 92.5113 271.305C92.1753 271.417 91.8153 271.473 91.4313 271.473C90.8233 271.473 90.2873 271.345 89.8233 271.089C89.3593 270.833 88.9953 270.473 88.7313 270.009C88.4753 269.545 88.3473 269.013 88.3473 268.413C88.3473 267.805 88.4753 267.269 88.7313 266.805C88.9873 266.341 89.3473 265.985 89.8113 265.737C90.2753 265.481 90.8073 265.353 91.4073 265.353C92.2313 265.353 92.9113 265.605 93.4473 266.109V265.533H95.4873V270.897C95.4873 271.897 95.1793 272.673 94.5633 273.225C93.9553 273.777 93.0073 274.053 91.7193 274.053ZM91.9593 269.841C92.2873 269.841 92.5793 269.757 92.8353 269.589C93.0913 269.421 93.2713 269.197 93.3753 268.917V267.909C93.2633 267.629 93.0793 267.409 92.8233 267.249C92.5673 267.081 92.2793 266.997 91.9593 266.997C91.5273 266.997 91.1793 267.125 90.9153 267.381C90.6513 267.629 90.5193 267.969 90.5193 268.401C90.5193 268.841 90.6513 269.193 90.9153 269.457C91.1793 269.713 91.5273 269.841 91.9593 269.841ZM97.5678 265.533H99.6078V266.169C99.8558 265.897 100.156 265.693 100.508 265.557C100.86 265.421 101.228 265.353 101.612 265.353C102.42 265.353 103.016 265.565 103.4 265.989C103.792 266.405 103.988 266.973 103.988 267.693V271.293H101.876V267.969C101.876 267.321 101.58 266.997 100.988 266.997C100.716 266.997 100.468 267.061 100.244 267.189C100.02 267.309 99.8318 267.497 99.6798 267.753V271.293H97.5678V265.533ZM113.403 271.473C112.611 271.473 112.015 271.253 111.615 270.813C111.223 270.373 111.027 269.793 111.027 269.073V265.533H113.139V268.833C113.139 269.497 113.439 269.829 114.039 269.829C114.311 269.829 114.559 269.765 114.783 269.637C115.007 269.509 115.191 269.321 115.335 269.073V265.533H117.447V271.293H115.407V270.669C115.159 270.933 114.859 271.133 114.507 271.269C114.155 271.405 113.787 271.473 113.403 271.473ZM119.529 265.533H121.569V266.109C122.105 265.605 122.785 265.353 123.609 265.353C124.209 265.353 124.741 265.481 125.205 265.737C125.669 265.985 126.029 266.341 126.285 266.805C126.541 267.261 126.669 267.793 126.669 268.401C126.669 269.001 126.541 269.537 126.285 270.009C126.029 270.473 125.669 270.833 125.205 271.089C124.749 271.345 124.217 271.473 123.609 271.473C123.225 271.473 122.857 271.413 122.505 271.293C122.161 271.181 121.873 271.025 121.641 270.825V273.921H119.529V265.533ZM123.057 269.829C123.489 269.829 123.837 269.701 124.101 269.445C124.365 269.189 124.497 268.841 124.497 268.401C124.497 267.961 124.365 267.617 124.101 267.369C123.837 267.113 123.489 266.985 123.057 266.985C122.737 266.985 122.449 267.069 122.193 267.237C121.937 267.397 121.753 267.617 121.641 267.897V268.917C121.753 269.197 121.937 269.421 122.193 269.589C122.449 269.749 122.737 269.829 123.057 269.829Z" fill="white"/>
<defs>
<linearGradient id="paint0_linear_1037_634" x1="101" y1="0" x2="101" y2="344" gradientUnits="userSpaceOnUse">
<stop stop-color="#3F3F3F"/>
<stop offset="1" stop-color="#2E2E2E"/>
</linearGradient>
<linearGradient id="paint1_linear_1037_634" x1="35.5" y1="143.978" x2="35.5" y2="148.949" gradientUnits="userSpaceOnUse">
<stop stop-color="#2D2D2D"/>
<stop offset="1" stop-color="#242424"/>
</linearGradient>
<linearGradient id="paint2_linear_1037_634" x1="35.5" y1="181.978" x2="35.5" y2="186.949" gradientUnits="userSpaceOnUse">
<stop stop-color="#2D2D2D"/>
<stop offset="1" stop-color="#242424"/>
</linearGradient>
<linearGradient id="paint3_linear_1037_634" x1="52" y1="267.586" x2="150" y2="267.586" gradientUnits="userSpaceOnUse">
<stop stop-color="#FF8B37"/>
<stop offset="1" stop-color="#FF6D36"/>
</linearGradient>
</defs>
</svg>
