<svg width="202" height="355" viewBox="0 0 202 355" fill="none" xmlns="http://www.w3.org/2000/svg">
<path d="M0 0H202V307.429H0V0Z" fill="url(#paint0_linear_1502_15154)"/>
<path d="M0 0H202V354.531H0V0Z" fill="url(#paint1_linear_1502_15154)"/>
<path d="M41.137 158.939H41.9728L44.352 164.603H43.4651L42.8682 163.193H40.2331L39.6532 164.603H38.7578L41.137 158.939ZM42.6294 162.504L41.5549 159.855L40.4804 162.504H42.6294Z" fill="#FAFAF9"/>
<path d="M46.3105 164.725C45.8955 164.725 45.5743 164.611 45.3469 164.384C45.1251 164.158 45.0143 163.836 45.0143 163.42V161.346H44.3918V160.714H45.0143V159.547H45.8841V160.714H46.8904V161.346H45.8841V163.363C45.8841 163.623 45.9353 163.806 46.0376 163.914C46.1456 164.023 46.3389 164.077 46.6175 164.077C46.7824 164.077 46.9472 164.041 47.1121 163.971V164.619C46.8961 164.69 46.6289 164.725 46.3105 164.725Z" fill="#FAFAF9"/>
<path d="M52.6563 164.725C52.2413 164.725 51.9201 164.611 51.6927 164.384C51.471 164.158 51.3601 163.836 51.3601 163.42V161.346H50.7376V160.714H51.3601V159.547H52.2299V160.714H53.2362V161.346H52.2299V163.363C52.2299 163.623 52.2811 163.806 52.3834 163.914C52.4914 164.023 52.6847 164.077 52.9633 164.077C53.1282 164.077 53.293 164.041 53.4579 163.971V164.619C53.2419 164.69 52.9747 164.725 52.6563 164.725Z" fill="#FAFAF9"/>
<path d="M54.2682 158.615H55.1295V161.248C55.5218 160.811 56.0448 160.592 56.6986 160.592C57.2444 160.592 57.6509 160.73 57.9181 161.005C58.1853 161.281 58.3189 161.651 58.3189 162.115V164.603H57.4576V162.197C57.4576 161.564 57.1392 161.248 56.5025 161.248C56.2296 161.248 55.9738 161.311 55.735 161.435C55.5019 161.554 55.3001 161.737 55.1295 161.986V164.603H54.2682V158.615Z" fill="#FAFAF9"/>
<path d="M61.6328 164.725C60.8767 164.725 60.2826 164.547 59.8506 164.19C59.4242 163.828 59.211 163.32 59.211 162.667C59.211 162.029 59.4014 161.524 59.7823 161.151C60.1689 160.778 60.7175 160.592 61.4282 160.592C61.9 160.592 62.3008 160.678 62.6306 160.851C62.9603 161.019 63.2076 161.254 63.3725 161.556C63.5431 161.853 63.6283 162.194 63.6283 162.577V162.983H60.0296C60.0581 163.35 60.2201 163.625 60.5157 163.809C60.817 163.987 61.2235 164.077 61.7352 164.077C61.9967 164.077 62.2611 164.055 62.5283 164.012C62.7955 163.963 63.0314 163.901 63.2361 163.825V164.482C63.0541 164.552 62.8125 164.609 62.5112 164.652C62.2156 164.701 61.9228 164.725 61.6328 164.725ZM62.8182 162.407C62.8068 162.04 62.6789 161.756 62.4345 161.556C62.1957 161.351 61.8546 161.248 61.4111 161.248C60.9791 161.248 60.6436 161.354 60.4049 161.564C60.1661 161.775 60.041 162.056 60.0296 162.407H62.8182Z" fill="#FAFAF9"/>
<path d="M69.2354 164.725C68.9512 164.725 68.6499 164.69 68.3315 164.619C68.0131 164.555 67.763 164.466 67.5811 164.352V163.655C67.8028 163.779 68.0586 163.882 68.3485 163.963C68.6385 164.039 68.9199 164.077 69.1928 164.077C69.4998 164.077 69.7243 164.041 69.8665 163.971C70.0086 163.901 70.0797 163.788 70.0797 163.631C70.0797 163.512 70.0456 163.417 69.9773 163.347C69.9148 163.272 69.8039 163.204 69.6448 163.145C69.4913 163.085 69.2582 163.015 68.9455 162.934C68.6101 162.842 68.3429 162.75 68.1439 162.658C67.9506 162.561 67.8028 162.44 67.7004 162.294C67.6038 162.148 67.5555 161.959 67.5555 161.727C67.5555 161.354 67.709 161.073 68.016 160.884C68.3286 160.689 68.7465 160.592 69.2695 160.592C69.5424 160.592 69.8096 160.616 70.0711 160.665C70.3327 160.714 70.543 160.781 70.7022 160.868V161.548C70.5373 161.456 70.3327 161.383 70.0882 161.329C69.8494 161.275 69.605 161.248 69.3548 161.248C69.0535 161.248 68.8233 161.284 68.6641 161.354C68.5049 161.424 68.4253 161.548 68.4253 161.727C68.4253 161.84 68.4594 161.932 68.5276 162.002C68.5958 162.072 68.7039 162.134 68.8517 162.188C69.0052 162.237 69.2468 162.302 69.5765 162.383C70.0939 162.518 70.452 162.677 70.651 162.861C70.8557 163.045 70.958 163.299 70.958 163.623C70.958 163.958 70.8131 164.225 70.5231 164.425C70.2332 164.625 69.8039 164.725 69.2354 164.725Z" fill="#FAFAF9"/>
<path d="M73.351 164.725C72.936 164.725 72.6148 164.611 72.3873 164.384C72.1656 164.158 72.0548 163.836 72.0548 163.42V161.346H71.4322V160.714H72.0548V159.547H72.9246V160.714H73.9309V161.346H72.9246V163.363C72.9246 163.623 72.9758 163.806 73.0781 163.914C73.1861 164.023 73.3794 164.077 73.658 164.077C73.8228 164.077 73.9877 164.041 74.1526 163.971V164.619C73.9365 164.69 73.6693 164.725 73.351 164.725Z" fill="#FAFAF9"/>
<path d="M76.3048 164.725C75.8102 164.725 75.4122 164.606 75.1109 164.368C74.8153 164.125 74.6674 163.798 74.6674 163.388C74.6674 162.956 74.8096 162.623 75.0938 162.391C75.3838 162.153 75.7931 162.034 76.3218 162.034C76.8846 162.034 77.3622 162.142 77.7545 162.359V162.156C77.7545 161.848 77.655 161.621 77.456 161.475C77.2627 161.324 76.9557 161.248 76.535 161.248C76.2849 161.248 76.0404 161.273 75.8016 161.321C75.5685 161.365 75.3582 161.427 75.1706 161.508V160.843C75.3411 160.768 75.5629 160.708 75.8357 160.665C76.1086 160.616 76.373 160.592 76.6288 160.592C77.3053 160.592 77.8056 160.735 78.1297 161.021C78.4594 161.302 78.6243 161.694 78.6243 162.197V164.603H77.8142V164.166C77.6379 164.349 77.4276 164.49 77.1831 164.587C76.9443 164.679 76.6516 164.725 76.3048 164.725ZM76.518 164.101C76.7908 164.101 77.0381 164.05 77.2599 163.947C77.4816 163.844 77.6465 163.701 77.7545 163.517V162.991C77.3849 162.764 76.9728 162.65 76.518 162.65C76.1882 162.65 75.9409 162.712 75.776 162.837C75.6169 162.956 75.5373 163.139 75.5373 163.388C75.5373 163.863 75.8642 164.101 76.518 164.101Z" fill="#FAFAF9"/>
<path d="M79.6931 160.714H80.5288V161.41C80.6994 161.173 80.9382 160.997 81.2452 160.884C81.5578 160.77 81.9189 160.714 82.3282 160.714V161.354C81.8904 161.354 81.5152 161.421 81.2025 161.556C80.8898 161.691 80.6738 161.905 80.5544 162.197V164.603H79.6931V160.714Z" fill="#FAFAF9"/>
<path d="M84.6768 164.725C84.2618 164.725 83.9406 164.611 83.7132 164.384C83.4915 164.158 83.3806 163.836 83.3806 163.42V161.346H82.7581V160.714H83.3806V159.547H84.2504V160.714H85.2567V161.346H84.2504V163.363C84.2504 163.623 84.3016 163.806 84.4039 163.914C84.512 164.023 84.7053 164.077 84.9838 164.077C85.1487 164.077 85.3136 164.041 85.4784 163.971V164.619C85.2624 164.69 84.9952 164.725 84.6768 164.725Z" fill="#FAFAF9"/>
<path d="M91.6025 164.725C91.142 164.725 90.7355 164.644 90.3831 164.482C90.0363 164.314 89.7634 164.077 89.5644 163.769C89.3711 163.455 89.2745 163.088 89.2745 162.667C89.2745 162.251 89.3711 161.886 89.5644 161.573C89.7577 161.259 90.0306 161.019 90.3831 160.851C90.7355 160.678 91.142 160.592 91.6025 160.592C92.063 160.592 92.4695 160.678 92.822 160.851C93.1745 161.019 93.4474 161.259 93.6407 161.573C93.8396 161.886 93.9391 162.251 93.9391 162.667C93.9391 163.088 93.8396 163.455 93.6407 163.769C93.4474 164.077 93.1745 164.314 92.822 164.482C92.4695 164.644 92.063 164.725 91.6025 164.725ZM91.6025 164.077C92.046 164.077 92.3984 163.947 92.66 163.688C92.9215 163.428 93.0522 163.088 93.0522 162.667C93.0522 162.229 92.9215 161.883 92.66 161.629C92.3984 161.375 92.046 161.248 91.6025 161.248C91.1591 161.248 90.8066 161.375 90.5451 161.629C90.2836 161.883 90.1528 162.229 90.1528 162.667C90.1528 163.088 90.2836 163.428 90.5451 163.688C90.8066 163.947 91.1591 164.077 91.6025 164.077Z" fill="#FAFAF9"/>
<path d="M94.8564 161.346H94.2339V160.714H94.8564V159.952C94.8564 159.503 94.99 159.163 95.2572 158.931C95.5244 158.693 95.8825 158.574 96.3317 158.574C96.5648 158.574 96.7836 158.607 96.9883 158.671V159.352C96.8291 159.282 96.6643 159.247 96.4937 159.247C96.2265 159.247 96.0304 159.309 95.9053 159.433C95.7802 159.552 95.7177 159.741 95.7177 160V160.714H96.741V161.346H95.7177V164.603H94.8564V161.346Z" fill="#FAFAF9"/>
<path d="M102.989 164.725C102.233 164.725 101.639 164.547 101.207 164.19C100.78 163.828 100.567 163.32 100.567 162.667C100.567 162.029 100.757 161.524 101.138 161.151C101.525 160.778 102.074 160.592 102.784 160.592C103.256 160.592 103.657 160.678 103.987 160.851C104.316 161.019 104.564 161.254 104.729 161.556C104.899 161.853 104.984 162.194 104.984 162.577V162.983H101.386C101.414 163.35 101.576 163.625 101.872 163.809C102.173 163.987 102.58 164.077 103.091 164.077C103.353 164.077 103.617 164.055 103.884 164.012C104.151 163.963 104.387 163.901 104.592 163.825V164.482C104.41 164.552 104.169 164.609 103.867 164.652C103.572 164.701 103.279 164.725 102.989 164.725ZM104.174 162.407C104.163 162.04 104.035 161.756 103.79 161.556C103.552 161.351 103.211 161.248 102.767 161.248C102.335 161.248 102 161.354 101.761 161.564C101.522 161.775 101.397 162.056 101.386 162.407H104.174Z" fill="#FAFAF9"/>
<path d="M107.393 164.725C106.898 164.725 106.5 164.606 106.199 164.368C105.903 164.125 105.755 163.798 105.755 163.388C105.755 162.956 105.897 162.623 106.182 162.391C106.472 162.153 106.881 162.034 107.41 162.034C107.972 162.034 108.45 162.142 108.842 162.359V162.156C108.842 161.848 108.743 161.621 108.544 161.475C108.351 161.324 108.044 161.248 107.623 161.248C107.373 161.248 107.128 161.273 106.889 161.321C106.656 161.365 106.446 161.427 106.258 161.508V160.843C106.429 160.768 106.651 160.708 106.924 160.665C107.196 160.616 107.461 160.592 107.717 160.592C108.393 160.592 108.893 160.735 109.218 161.021C109.547 161.302 109.712 161.694 109.712 162.197V164.603H108.902V164.166C108.726 164.349 108.515 164.49 108.271 164.587C108.032 164.679 107.739 164.725 107.393 164.725ZM107.606 164.101C107.879 164.101 108.126 164.05 108.348 163.947C108.569 163.844 108.734 163.701 108.842 163.517V162.991C108.473 162.764 108.061 162.65 107.606 162.65C107.276 162.65 107.029 162.712 106.864 162.837C106.705 162.956 106.625 163.139 106.625 163.388C106.625 163.863 106.952 164.101 107.606 164.101Z" fill="#FAFAF9"/>
<path d="M112.772 164.725C112.317 164.725 111.913 164.644 111.561 164.482C111.208 164.32 110.933 164.085 110.734 163.777C110.54 163.463 110.444 163.093 110.444 162.667C110.444 162.24 110.54 161.872 110.734 161.564C110.933 161.251 111.208 161.011 111.561 160.843C111.919 160.676 112.328 160.592 112.789 160.592C113.414 160.592 113.915 160.708 114.29 160.94V161.613C113.92 161.37 113.448 161.248 112.874 161.248C112.408 161.248 112.03 161.37 111.74 161.613C111.456 161.851 111.314 162.202 111.314 162.667C111.314 163.131 111.456 163.482 111.74 163.72C112.024 163.958 112.397 164.077 112.857 164.077C113.431 164.077 113.926 163.947 114.341 163.688V164.352C114.142 164.482 113.915 164.576 113.659 164.636C113.409 164.695 113.113 164.725 112.772 164.725Z" fill="#FAFAF9"/>
<path d="M115.278 158.615H116.139V161.248C116.532 160.811 117.055 160.592 117.708 160.592C118.254 160.592 118.661 160.73 118.928 161.005C119.195 161.281 119.329 161.651 119.329 162.115V164.603H118.467V162.197C118.467 161.564 118.149 161.248 117.512 161.248C117.239 161.248 116.984 161.311 116.745 161.435C116.512 161.554 116.31 161.737 116.139 161.986V164.603H115.278V158.615Z" fill="#FAFAF9"/>
<path d="M123.377 160.714H124.255L125.176 163.598L126.089 160.714H126.865L127.777 163.598L128.698 160.714H129.585L128.255 164.603H127.428L126.481 161.702L125.534 164.603H124.699L123.377 160.714Z" fill="#FAFAF9"/>
<path d="M132.519 164.725C131.763 164.725 131.169 164.547 130.737 164.19C130.311 163.828 130.098 163.32 130.098 162.667C130.098 162.029 130.288 161.524 130.669 161.151C131.055 160.778 131.604 160.592 132.315 160.592C132.787 160.592 133.187 160.678 133.517 160.851C133.847 161.019 134.094 161.254 134.259 161.556C134.43 161.853 134.515 162.194 134.515 162.577V162.983H130.916C130.945 163.35 131.107 163.625 131.402 163.809C131.704 163.987 132.11 164.077 132.622 164.077C132.883 164.077 133.148 164.055 133.415 164.012C133.682 163.963 133.918 163.901 134.123 163.825V164.482C133.941 164.552 133.699 164.609 133.398 164.652C133.102 164.701 132.809 164.725 132.519 164.725ZM133.705 162.407C133.693 162.04 133.565 161.756 133.321 161.556C133.082 161.351 132.741 161.248 132.298 161.248C131.866 161.248 131.53 161.354 131.291 161.564C131.053 161.775 130.928 162.056 130.916 162.407H133.705Z" fill="#FAFAF9"/>
<path d="M137.708 164.725C136.952 164.725 136.357 164.547 135.925 164.19C135.499 163.828 135.286 163.32 135.286 162.667C135.286 162.029 135.476 161.524 135.857 161.151C136.244 160.778 136.792 160.592 137.503 160.592C137.975 160.592 138.376 160.678 138.705 160.851C139.035 161.019 139.282 161.254 139.447 161.556C139.618 161.853 139.703 162.194 139.703 162.577V162.983H136.104C136.133 163.35 136.295 163.625 136.59 163.809C136.892 163.987 137.298 164.077 137.81 164.077C138.071 164.077 138.336 164.055 138.603 164.012C138.87 163.963 139.106 163.901 139.311 163.825V164.482C139.129 164.552 138.887 164.609 138.586 164.652C138.29 164.701 137.998 164.725 137.708 164.725ZM138.893 162.407C138.882 162.04 138.754 161.756 138.509 161.556C138.27 161.351 137.929 161.248 137.486 161.248C137.054 161.248 136.718 161.354 136.48 161.564C136.241 161.775 136.116 162.056 136.104 162.407H138.893Z" fill="#FAFAF9"/>
<path d="M140.645 158.615H141.506V164.603H140.645V158.615ZM141.514 162.634L143.399 160.714H144.448L142.555 162.634L144.644 164.603H143.595L141.514 162.634Z" fill="#FAFAF9"/>
<path d="M148.656 160.714H149.492V161.41C149.662 161.173 149.901 160.997 150.208 160.884C150.521 160.77 150.882 160.714 151.291 160.714V161.354C150.853 161.354 150.478 161.421 150.165 161.556C149.853 161.691 149.637 161.905 149.517 162.197V164.603H148.656V160.714Z" fill="#FAFAF9"/>
<path d="M154.055 164.725C153.299 164.725 152.705 164.547 152.273 164.19C151.846 163.828 151.633 163.32 151.633 162.667C151.633 162.029 151.824 161.524 152.205 161.151C152.591 160.778 153.14 160.592 153.851 160.592C154.322 160.592 154.723 160.678 155.053 160.851C155.383 161.019 155.63 161.254 155.795 161.556C155.965 161.853 156.051 162.194 156.051 162.577V162.983H152.452C152.48 163.35 152.642 163.625 152.938 163.809C153.239 163.987 153.646 164.077 154.158 164.077C154.419 164.077 154.683 164.055 154.951 164.012C155.218 163.963 155.454 163.901 155.658 163.825V164.482C155.476 164.552 155.235 164.609 154.934 164.652C154.638 164.701 154.345 164.725 154.055 164.725ZM155.241 162.407C155.229 162.04 155.101 161.756 154.857 161.556C154.618 161.351 154.277 161.248 153.833 161.248C153.401 161.248 153.066 161.354 152.827 161.564C152.588 161.775 152.463 162.056 152.452 162.407H155.241Z" fill="#FAFAF9"/>
<path d="M159.15 164.725C158.695 164.725 158.291 164.644 157.939 164.482C157.586 164.32 157.31 164.085 157.111 163.777C156.918 163.463 156.822 163.093 156.822 162.667C156.822 162.24 156.918 161.872 157.111 161.564C157.31 161.251 157.586 161.011 157.939 160.843C158.297 160.676 158.706 160.592 159.167 160.592C159.792 160.592 160.292 160.708 160.668 160.94V161.613C160.298 161.37 159.826 161.248 159.252 161.248C158.786 161.248 158.408 161.37 158.118 161.613C157.833 161.851 157.691 162.202 157.691 162.667C157.691 163.131 157.833 163.482 158.118 163.72C158.402 163.958 158.774 164.077 159.235 164.077C159.809 164.077 160.304 163.947 160.719 163.688V164.352C160.52 164.482 160.292 164.576 160.036 164.636C159.786 164.695 159.491 164.725 159.15 164.725Z" fill="#FAFAF9"/>
<path d="M163.907 164.725C163.151 164.725 162.557 164.547 162.125 164.19C161.698 163.828 161.485 163.32 161.485 162.667C161.485 162.029 161.676 161.524 162.056 161.151C162.443 160.778 162.992 160.592 163.702 160.592C164.174 160.592 164.575 160.678 164.905 160.851C165.234 161.019 165.482 161.254 165.647 161.556C165.817 161.853 165.902 162.194 165.902 162.577V162.983H162.304C162.332 163.35 162.494 163.625 162.79 163.809C163.091 163.987 163.498 164.077 164.009 164.077C164.271 164.077 164.535 164.055 164.802 164.012C165.07 163.963 165.306 163.901 165.51 163.825V164.482C165.328 164.552 165.087 164.609 164.785 164.652C164.49 164.701 164.197 164.725 163.907 164.725ZM165.092 162.407C165.081 162.04 164.953 161.756 164.709 161.556C164.47 161.351 164.129 161.248 163.685 161.248C163.253 161.248 162.918 161.354 162.679 161.564C162.44 161.775 162.315 162.056 162.304 162.407H165.092Z" fill="#FAFAF9"/>
<path d="M167.347 159.952C167.205 159.952 167.086 159.906 166.989 159.814C166.892 159.722 166.844 159.609 166.844 159.474C166.844 159.339 166.892 159.225 166.989 159.133C167.086 159.042 167.205 158.996 167.347 158.996C167.495 158.996 167.617 159.042 167.714 159.133C167.816 159.225 167.867 159.339 167.867 159.474C167.867 159.609 167.816 159.722 167.714 159.814C167.617 159.906 167.495 159.952 167.347 159.952ZM166.912 160.714H167.79V164.603H166.912V160.714Z" fill="#FAFAF9"/>
<path d="M168.805 160.714H169.718L170.92 163.509L172.123 160.714H173.035L171.295 164.603H170.545L168.805 160.714Z" fill="#FAFAF9"/>
<path d="M175.882 164.725C175.126 164.725 174.532 164.547 174.1 164.19C173.674 163.828 173.461 163.32 173.461 162.667C173.461 162.029 173.651 161.524 174.032 161.151C174.419 160.778 174.967 160.592 175.678 160.592C176.15 160.592 176.55 160.678 176.88 160.851C177.21 161.019 177.457 161.254 177.622 161.556C177.793 161.853 177.878 162.194 177.878 162.577V162.983H174.279C174.308 163.35 174.47 163.625 174.765 163.809C175.067 163.987 175.473 164.077 175.985 164.077C176.246 164.077 176.511 164.055 176.778 164.012C177.045 163.963 177.281 163.901 177.486 163.825V164.482C177.304 164.552 177.062 164.609 176.761 164.652C176.465 164.701 176.172 164.725 175.882 164.725ZM177.068 162.407C177.056 162.04 176.928 161.756 176.684 161.556C176.445 161.351 176.104 161.248 175.661 161.248C175.229 161.248 174.893 161.354 174.654 161.564C174.416 161.775 174.291 162.056 174.279 162.407H177.068Z" fill="#FAFAF9"/>
<path d="M41.137 170.081H41.9728L44.352 175.746H43.4651L42.8682 174.336H40.2331L39.6532 175.746H38.7578L41.137 170.081ZM42.6294 173.647L41.5549 170.997L40.4804 173.647H42.6294Z" fill="#FAFAF9"/>
<path d="M45.2908 170.081H46.1692V175.746H45.2908V170.081Z" fill="#FAFAF9"/>
<path d="M52.6461 170.081H53.4818L55.8611 175.746H54.9742L54.3772 174.336H51.7422L51.1623 175.746H50.2669L52.6461 170.081ZM54.1385 173.647L53.064 170.997L51.9895 173.647H54.1385Z" fill="#FAFAF9"/>
<path d="M56.7999 169.757H57.6612V175.746H56.7999V169.757Z" fill="#FAFAF9"/>
<path d="M58.7736 171.856H59.6093V172.431C60.03 171.967 60.5985 171.734 61.3149 171.734C61.7242 171.734 62.0909 171.821 62.4149 171.994C62.7447 172.167 63.0005 172.41 63.1824 172.723C63.37 173.031 63.4638 173.39 63.4638 173.801C63.4638 174.206 63.37 174.565 63.1824 174.879C63.0005 175.192 62.7475 175.435 62.4235 175.608C62.0994 175.781 61.7299 175.867 61.3149 175.867C60.9737 175.867 60.6554 175.813 60.3598 175.705C60.0641 175.597 59.8225 175.438 59.6349 175.227V177.52H58.7736V171.856ZM61.1187 175.219C61.3973 175.219 61.6474 175.162 61.8692 175.049C62.0966 174.93 62.2728 174.762 62.3979 174.546C62.5286 174.33 62.594 174.082 62.594 173.801C62.594 173.52 62.5286 173.274 62.3979 173.063C62.2728 172.847 62.0966 172.683 61.8692 172.569C61.6474 172.45 61.3973 172.391 61.1187 172.391C60.7719 172.391 60.4649 172.477 60.1977 172.65C59.9362 172.823 59.7486 173.061 59.6349 173.363V174.238C59.7315 174.536 59.9163 174.773 60.1892 174.952C60.4621 175.13 60.7719 175.219 61.1187 175.219Z" fill="#FAFAF9"/>
<path d="M64.4032 169.757H65.2645V172.391C65.6568 171.953 66.1798 171.734 66.8336 171.734C67.3794 171.734 67.7859 171.872 68.0531 172.148C68.3203 172.423 68.4539 172.793 68.4539 173.258V175.746H67.5926V173.339C67.5926 172.707 67.2742 172.391 66.6375 172.391C66.3646 172.391 66.1088 172.453 65.87 172.577C65.6369 172.696 65.4351 172.88 65.2645 173.128V175.746H64.4032V169.757Z" fill="#FAFAF9"/>
<path d="M70.8584 175.867C70.3637 175.867 69.9658 175.748 69.6645 175.511C69.3689 175.268 69.221 174.941 69.221 174.53C69.221 174.098 69.3632 173.766 69.6474 173.533C69.9374 173.296 70.3467 173.177 70.8754 173.177C71.4382 173.177 71.9158 173.285 72.3081 173.501V173.298C72.3081 172.99 72.2086 172.764 72.0096 172.618C71.8163 172.466 71.5093 172.391 71.0886 172.391C70.8385 172.391 70.594 172.415 70.3552 172.464C70.1221 172.507 69.9118 172.569 69.7242 172.65V171.986C69.8947 171.91 70.1164 171.851 70.3893 171.807C70.6622 171.759 70.9266 171.734 71.1824 171.734C71.8589 171.734 72.3592 171.878 72.6833 172.164C73.013 172.445 73.1779 172.836 73.1779 173.339V175.746H72.3678V175.308C72.1915 175.492 71.9812 175.632 71.7367 175.729C71.4979 175.821 71.2052 175.867 70.8584 175.867ZM71.0715 175.243C71.3444 175.243 71.5917 175.192 71.8135 175.089C72.0352 174.987 72.2001 174.843 72.3081 174.66V174.133C71.9385 173.906 71.5264 173.793 71.0715 173.793C70.7418 173.793 70.4945 173.855 70.3296 173.979C70.1705 174.098 70.0909 174.282 70.0909 174.53C70.0909 175.006 70.4178 175.243 71.0715 175.243Z" fill="#FAFAF9"/>
<path d="M74.639 169.96H75.4918L74.8181 171.54H74.0762L74.639 169.96Z" fill="#FAFAF9"/>
<path d="M77.6382 175.867C77.354 175.867 77.0526 175.832 76.7343 175.762C76.4159 175.697 76.1658 175.608 75.9838 175.494V174.798C76.2056 174.922 76.4614 175.024 76.7513 175.105C77.0413 175.181 77.3227 175.219 77.5956 175.219C77.9026 175.219 78.1271 175.184 78.2693 175.114C78.4114 175.043 78.4825 174.93 78.4825 174.773C78.4825 174.654 78.4483 174.56 78.3801 174.49C78.3176 174.414 78.2067 174.346 78.0475 174.287C77.894 174.228 77.661 174.157 77.3483 174.076C77.0129 173.984 76.7456 173.893 76.5467 173.801C76.3534 173.704 76.2056 173.582 76.1032 173.436C76.0066 173.29 75.9583 173.101 75.9583 172.869C75.9583 172.496 76.1118 172.215 76.4188 172.026C76.7314 171.832 77.1493 171.734 77.6723 171.734C77.9452 171.734 78.2124 171.759 78.4739 171.807C78.7354 171.856 78.9458 171.923 79.105 172.01V172.691C78.9401 172.599 78.7354 172.526 78.491 172.472C78.2522 172.418 78.0077 172.391 77.7576 172.391C77.4563 172.391 77.226 172.426 77.0669 172.496C76.9077 172.566 76.8281 172.691 76.8281 172.869C76.8281 172.982 76.8622 173.074 76.9304 173.144C76.9986 173.215 77.1067 173.277 77.2545 173.331C77.408 173.379 77.6496 173.444 77.9793 173.525C78.4967 173.66 78.8548 173.82 79.0538 174.003C79.2585 174.187 79.3608 174.441 79.3608 174.765C79.3608 175.1 79.2158 175.367 78.9259 175.567C78.636 175.767 78.2067 175.867 77.6382 175.867Z" fill="#FAFAF9"/>
<path d="M84.9667 175.867C84.6825 175.867 84.3811 175.832 84.0628 175.762C83.7444 175.697 83.4943 175.608 83.3123 175.494V174.798C83.5341 174.922 83.7899 175.024 84.0798 175.105C84.3698 175.181 84.6512 175.219 84.9241 175.219C85.2311 175.219 85.4556 175.184 85.5978 175.114C85.7399 175.043 85.811 174.93 85.811 174.773C85.811 174.654 85.7768 174.56 85.7086 174.49C85.6461 174.414 85.5352 174.346 85.376 174.287C85.2225 174.228 84.9895 174.157 84.6768 174.076C84.3413 173.984 84.0741 173.893 83.8752 173.801C83.6819 173.704 83.5341 173.582 83.4317 173.436C83.3351 173.29 83.2868 173.101 83.2868 172.869C83.2868 172.496 83.4403 172.215 83.7472 172.026C84.0599 171.832 84.4778 171.734 85.0008 171.734C85.2737 171.734 85.5409 171.759 85.8024 171.807C86.0639 171.856 86.2743 171.923 86.4335 172.01V172.691C86.2686 172.599 86.0639 172.526 85.8195 172.472C85.5807 172.418 85.3362 172.391 85.0861 172.391C84.7848 172.391 84.5545 172.426 84.3954 172.496C84.2362 172.566 84.1566 172.691 84.1566 172.869C84.1566 172.982 84.1907 173.074 84.2589 173.144C84.3271 173.215 84.4352 173.277 84.583 173.331C84.7365 173.379 84.9781 173.444 85.3078 173.525C85.8252 173.66 86.1833 173.82 86.3823 174.003C86.587 174.187 86.6893 174.441 86.6893 174.765C86.6893 175.1 86.5443 175.367 86.2544 175.567C85.9645 175.767 85.5352 175.867 84.9667 175.867Z" fill="#FAFAF9"/>
<path d="M89.2583 175.867C88.7069 175.867 88.289 175.727 88.0048 175.446C87.7262 175.165 87.5869 174.789 87.5869 174.319V171.856H88.4482V174.287C88.4482 174.908 88.7751 175.219 89.4289 175.219C90.0031 175.219 90.4522 174.973 90.7763 174.482V171.856H91.6376V175.746H90.8019V175.195C90.6086 175.427 90.3783 175.597 90.1111 175.705C89.8496 175.813 89.5653 175.867 89.2583 175.867Z" fill="#FAFAF9"/>
<path d="M92.7428 171.856H93.5786V172.431C93.9993 171.967 94.5678 171.734 95.2841 171.734C95.6934 171.734 96.0601 171.821 96.3842 171.994C96.7139 172.167 96.9697 172.41 97.1517 172.723C97.3393 173.031 97.4331 173.39 97.4331 173.801C97.4331 174.206 97.3393 174.565 97.1517 174.879C96.9697 175.192 96.7168 175.435 96.3927 175.608C96.0686 175.781 95.6991 175.867 95.2841 175.867C94.943 175.867 94.6246 175.813 94.329 175.705C94.0334 175.597 93.7918 175.438 93.6041 175.227V177.52H92.7428V171.856ZM95.088 175.219C95.3665 175.219 95.6167 175.162 95.8384 175.049C96.0658 174.93 96.242 174.762 96.3671 174.546C96.4979 174.33 96.5633 174.082 96.5633 173.801C96.5633 173.52 96.4979 173.274 96.3671 173.063C96.242 172.847 96.0658 172.683 95.8384 172.569C95.6167 172.45 95.3665 172.391 95.088 172.391C94.7412 172.391 94.4342 172.477 94.167 172.65C93.9055 172.823 93.7178 173.061 93.6041 173.363V174.238C93.7008 174.536 93.8856 174.773 94.1584 174.952C94.4313 175.13 94.7412 175.219 95.088 175.219Z" fill="#FAFAF9"/>
<path d="M98.3725 171.856H99.2082V172.431C99.6289 171.967 100.197 171.734 100.914 171.734C101.323 171.734 101.69 171.821 102.014 171.994C102.344 172.167 102.599 172.41 102.781 172.723C102.969 173.031 103.063 173.39 103.063 173.801C103.063 174.206 102.969 174.565 102.781 174.879C102.599 175.192 102.346 175.435 102.022 175.608C101.698 175.781 101.329 175.867 100.914 175.867C100.573 175.867 100.254 175.813 99.9586 175.705C99.663 175.597 99.4214 175.438 99.2338 175.227V177.52H98.3725V171.856ZM100.718 175.219C100.996 175.219 101.246 175.162 101.468 175.049C101.695 174.93 101.872 174.762 101.997 174.546C102.127 174.33 102.193 174.082 102.193 173.801C102.193 173.52 102.127 173.274 101.997 173.063C101.872 172.847 101.695 172.683 101.468 172.569C101.246 172.45 100.996 172.391 100.718 172.391C100.371 172.391 100.064 172.477 99.7966 172.65C99.5351 172.823 99.3475 173.061 99.2338 173.363V174.238C99.3304 174.536 99.5152 174.773 99.7881 174.952C100.061 175.13 100.371 175.219 100.718 175.219Z" fill="#FAFAF9"/>
<path d="M105.943 175.867C105.483 175.867 105.076 175.786 104.724 175.624C104.377 175.457 104.104 175.219 103.905 174.911C103.712 174.598 103.615 174.23 103.615 173.809C103.615 173.393 103.712 173.028 103.905 172.715C104.098 172.402 104.371 172.161 104.724 171.994C105.076 171.821 105.483 171.734 105.943 171.734C106.404 171.734 106.81 171.821 107.163 171.994C107.515 172.161 107.788 172.402 107.981 172.715C108.18 173.028 108.28 173.393 108.28 173.809C108.28 174.23 108.18 174.598 107.981 174.911C107.788 175.219 107.515 175.457 107.163 175.624C106.81 175.786 106.404 175.867 105.943 175.867ZM105.943 175.219C106.387 175.219 106.739 175.089 107.001 174.83C107.262 174.571 107.393 174.23 107.393 173.809C107.393 173.371 107.262 173.026 107.001 172.772C106.739 172.518 106.387 172.391 105.943 172.391C105.5 172.391 105.147 172.518 104.886 172.772C104.624 173.026 104.493 173.371 104.493 173.809C104.493 174.23 104.624 174.571 104.886 174.83C105.147 175.089 105.5 175.219 105.943 175.219Z" fill="#FAFAF9"/>
<path d="M109.215 171.856H110.051V172.553C110.222 172.315 110.46 172.14 110.767 172.026C111.08 171.913 111.441 171.856 111.85 171.856V172.496C111.413 172.496 111.037 172.564 110.725 172.699C110.412 172.834 110.196 173.047 110.077 173.339V175.746H109.215V171.856Z" fill="#FAFAF9"/>
<path d="M114.199 175.867C113.784 175.867 113.463 175.754 113.235 175.527C113.014 175.3 112.903 174.979 112.903 174.563V172.488H112.28V171.856H112.903V170.689H113.773V171.856H114.779V172.488H113.773V174.506C113.773 174.765 113.824 174.949 113.926 175.057C114.034 175.165 114.227 175.219 114.506 175.219C114.671 175.219 114.836 175.184 115.001 175.114V175.762C114.785 175.832 114.517 175.867 114.199 175.867Z" fill="#FAFAF9"/>
<path d="M120.434 175.867C119.939 175.867 119.541 175.748 119.24 175.511C118.944 175.268 118.797 174.941 118.797 174.53C118.797 174.098 118.939 173.766 119.223 173.533C119.513 173.296 119.922 173.177 120.451 173.177C121.014 173.177 121.491 173.285 121.884 173.501V173.298C121.884 172.99 121.784 172.764 121.585 172.618C121.392 172.466 121.085 172.391 120.664 172.391C120.414 172.391 120.17 172.415 119.931 172.464C119.698 172.507 119.487 172.569 119.3 172.65V171.986C119.47 171.91 119.692 171.851 119.965 171.807C120.238 171.759 120.502 171.734 120.758 171.734C121.435 171.734 121.935 171.878 122.259 172.164C122.589 172.445 122.754 172.836 122.754 173.339V175.746H121.943V175.308C121.767 175.492 121.557 175.632 121.312 175.729C121.074 175.821 120.781 175.867 120.434 175.867ZM120.647 175.243C120.92 175.243 121.167 175.192 121.389 175.089C121.611 174.987 121.776 174.843 121.884 174.66V174.133C121.514 173.906 121.102 173.793 120.647 173.793C120.317 173.793 120.07 173.855 119.905 173.979C119.746 174.098 119.666 174.282 119.666 174.53C119.666 175.006 119.993 175.243 120.647 175.243Z" fill="#FAFAF9"/>
<path d="M123.822 171.856H124.658V172.415C124.851 172.183 125.087 172.013 125.366 171.905C125.65 171.791 125.946 171.734 126.253 171.734C126.799 171.734 127.205 171.872 127.472 172.148C127.739 172.423 127.873 172.793 127.873 173.258V175.746H127.012V173.339C127.012 172.707 126.693 172.391 126.057 172.391C125.784 172.391 125.528 172.453 125.289 172.577C125.056 172.696 124.854 172.88 124.684 173.128V175.746H123.822V171.856Z" fill="#FAFAF9"/>
<path d="M130.914 175.867C130.505 175.867 130.135 175.783 129.805 175.616C129.481 175.443 129.226 175.203 129.038 174.895C128.856 174.581 128.765 174.219 128.765 173.809C128.765 173.404 128.856 173.044 129.038 172.731C129.226 172.418 129.481 172.175 129.805 172.002C130.135 171.824 130.505 171.734 130.914 171.734C131.653 171.734 132.213 171.948 132.594 172.375V169.757H133.455V175.746H132.62V175.178C132.392 175.416 132.142 175.592 131.869 175.705C131.602 175.813 131.284 175.867 130.914 175.867ZM131.11 175.219C131.463 175.219 131.77 175.132 132.031 174.96C132.298 174.781 132.486 174.544 132.594 174.246V173.371C132.497 173.074 132.313 172.836 132.04 172.658C131.772 172.48 131.463 172.391 131.11 172.391C130.832 172.391 130.579 172.45 130.351 172.569C130.129 172.688 129.953 172.855 129.822 173.071C129.697 173.288 129.635 173.533 129.635 173.809C129.635 174.084 129.697 174.33 129.822 174.546C129.953 174.762 130.129 174.93 130.351 175.049C130.579 175.162 130.832 175.219 131.11 175.219Z" fill="#FAFAF9"/>
<path d="M137.721 171.856H138.557V172.553C138.728 172.315 138.967 172.14 139.274 172.026C139.586 171.913 139.947 171.856 140.357 171.856V172.496C139.919 172.496 139.544 172.564 139.231 172.699C138.918 172.834 138.702 173.047 138.583 173.339V175.746H137.721V171.856Z" fill="#FAFAF9"/>
<path d="M143.121 175.867C142.365 175.867 141.771 175.689 141.338 175.332C140.912 174.97 140.699 174.463 140.699 173.809C140.699 173.171 140.889 172.666 141.27 172.294C141.657 171.921 142.205 171.734 142.916 171.734C143.388 171.734 143.789 171.821 144.118 171.994C144.448 172.161 144.696 172.396 144.86 172.699C145.031 172.996 145.116 173.336 145.116 173.72V174.125H141.518C141.546 174.492 141.708 174.768 142.004 174.952C142.305 175.13 142.711 175.219 143.223 175.219C143.485 175.219 143.749 175.197 144.016 175.154C144.283 175.105 144.519 175.043 144.724 174.968V175.624C144.542 175.694 144.3 175.751 143.999 175.794C143.703 175.843 143.411 175.867 143.121 175.867ZM144.306 173.55C144.295 173.182 144.167 172.899 143.922 172.699C143.684 172.493 143.342 172.391 142.899 172.391C142.467 172.391 142.132 172.496 141.893 172.707C141.654 172.918 141.529 173.198 141.518 173.55H144.306Z" fill="#FAFAF9"/>
<path d="M147.567 175.867C147.283 175.867 146.981 175.832 146.663 175.762C146.345 175.697 146.095 175.608 145.913 175.494V174.798C146.134 174.922 146.39 175.024 146.68 175.105C146.97 175.181 147.252 175.219 147.524 175.219C147.831 175.219 148.056 175.184 148.198 175.114C148.34 175.043 148.411 174.93 148.411 174.773C148.411 174.654 148.377 174.56 148.309 174.49C148.246 174.414 148.136 174.346 147.976 174.287C147.823 174.228 147.59 174.157 147.277 174.076C146.942 173.984 146.674 173.893 146.476 173.801C146.282 173.704 146.134 173.582 146.032 173.436C145.935 173.29 145.887 173.101 145.887 172.869C145.887 172.496 146.041 172.215 146.348 172.026C146.66 171.832 147.078 171.734 147.601 171.734C147.874 171.734 148.141 171.759 148.403 171.807C148.664 171.856 148.875 171.923 149.034 172.01V172.691C148.869 172.599 148.664 172.526 148.42 172.472C148.181 172.418 147.937 172.391 147.686 172.391C147.385 172.391 147.155 172.426 146.996 172.496C146.837 172.566 146.757 172.691 146.757 172.869C146.757 172.982 146.791 173.074 146.859 173.144C146.927 173.215 147.035 173.277 147.183 173.331C147.337 173.379 147.578 173.444 147.908 173.525C148.426 173.66 148.784 173.82 148.983 174.003C149.187 174.187 149.29 174.441 149.29 174.765C149.29 175.1 149.145 175.367 148.855 175.567C148.565 175.767 148.136 175.867 147.567 175.867Z" fill="#FAFAF9"/>
<path d="M150.733 171.094C150.591 171.094 150.472 171.048 150.375 170.956C150.278 170.865 150.23 170.751 150.23 170.616C150.23 170.481 150.278 170.368 150.375 170.276C150.472 170.184 150.591 170.138 150.733 170.138C150.881 170.138 151.003 170.184 151.1 170.276C151.202 170.368 151.253 170.481 151.253 170.616C151.253 170.751 151.202 170.865 151.1 170.956C151.003 171.048 150.881 171.094 150.733 171.094ZM150.298 171.856H151.176V175.746H150.298V171.856Z" fill="#FAFAF9"/>
<path d="M153.871 175.867C153.587 175.867 153.286 175.832 152.967 175.762C152.649 175.697 152.399 175.608 152.217 175.494V174.798C152.439 174.922 152.694 175.024 152.984 175.105C153.274 175.181 153.556 175.219 153.829 175.219C154.136 175.219 154.36 175.184 154.502 175.114C154.644 175.043 154.715 174.93 154.715 174.773C154.715 174.654 154.681 174.56 154.613 174.49C154.551 174.414 154.44 174.346 154.281 174.287C154.127 174.228 153.894 174.157 153.581 174.076C153.246 173.984 152.979 173.893 152.78 173.801C152.586 173.704 152.439 173.582 152.336 173.436C152.24 173.29 152.191 173.101 152.191 172.869C152.191 172.496 152.345 172.215 152.652 172.026C152.964 171.832 153.382 171.734 153.905 171.734C154.178 171.734 154.445 171.759 154.707 171.807C154.968 171.856 155.179 171.923 155.338 172.01V172.691C155.173 172.599 154.968 172.526 154.724 172.472C154.485 172.418 154.241 172.391 153.991 172.391C153.689 172.391 153.459 172.426 153.3 172.496C153.141 172.566 153.061 172.691 153.061 172.869C153.061 172.982 153.095 173.074 153.163 173.144C153.232 173.215 153.34 173.277 153.487 173.331C153.641 173.379 153.883 173.444 154.212 173.525C154.73 173.66 155.088 173.82 155.287 174.003C155.491 174.187 155.594 174.441 155.594 174.765C155.594 175.1 155.449 175.367 155.159 175.567C154.869 175.767 154.44 175.867 153.871 175.867Z" fill="#FAFAF9"/>
<path d="M157.987 175.867C157.572 175.867 157.251 175.754 157.023 175.527C156.801 175.3 156.691 174.979 156.691 174.563V172.488H156.068V171.856H156.691V170.689H157.56V171.856H158.567V172.488H157.56V174.506C157.56 174.765 157.612 174.949 157.714 175.057C157.822 175.165 158.015 175.219 158.294 175.219C158.459 175.219 158.624 175.184 158.788 175.114V175.762C158.572 175.832 158.305 175.867 157.987 175.867Z" fill="#FAFAF9"/>
<path d="M160.941 175.867C160.446 175.867 160.048 175.748 159.747 175.511C159.451 175.268 159.303 174.941 159.303 174.53C159.303 174.098 159.445 173.766 159.73 173.533C160.02 173.296 160.429 173.177 160.958 173.177C161.52 173.177 161.998 173.285 162.39 173.501V173.298C162.39 172.99 162.291 172.764 162.092 172.618C161.899 172.466 161.592 172.391 161.171 172.391C160.921 172.391 160.676 172.415 160.437 172.464C160.204 172.507 159.994 172.569 159.806 172.65V171.986C159.977 171.91 160.199 171.851 160.472 171.807C160.744 171.759 161.009 171.734 161.265 171.734C161.941 171.734 162.441 171.878 162.765 172.164C163.095 172.445 163.26 172.836 163.26 173.339V175.746H162.45V175.308C162.274 175.492 162.063 175.632 161.819 175.729C161.58 175.821 161.287 175.867 160.941 175.867ZM161.154 175.243C161.427 175.243 161.674 175.192 161.896 175.089C162.117 174.987 162.282 174.843 162.39 174.66V174.133C162.021 173.906 161.609 173.793 161.154 173.793C160.824 173.793 160.577 173.855 160.412 173.979C160.253 174.098 160.173 174.282 160.173 174.53C160.173 175.006 160.5 175.243 161.154 175.243Z" fill="#FAFAF9"/>
<path d="M164.329 171.856H165.165V172.415C165.358 172.183 165.594 172.013 165.872 171.905C166.157 171.791 166.452 171.734 166.759 171.734C167.305 171.734 167.712 171.872 167.979 172.148C168.246 172.423 168.38 172.793 168.38 173.258V175.746H167.518V173.339C167.518 172.707 167.2 172.391 166.563 172.391C166.29 172.391 166.034 172.453 165.796 172.577C165.563 172.696 165.361 172.88 165.19 173.128V175.746H164.329V171.856Z" fill="#FAFAF9"/>
<path d="M171.6 175.867C171.145 175.867 170.741 175.786 170.389 175.624C170.036 175.462 169.761 175.227 169.562 174.919C169.368 174.606 169.272 174.236 169.272 173.809C169.272 173.382 169.368 173.015 169.562 172.707C169.761 172.393 170.036 172.153 170.389 171.986C170.747 171.818 171.156 171.734 171.617 171.734C172.242 171.734 172.742 171.851 173.118 172.083V172.755C172.748 172.512 172.276 172.391 171.702 172.391C171.236 172.391 170.858 172.512 170.568 172.755C170.284 172.993 170.141 173.344 170.141 173.809C170.141 174.274 170.284 174.625 170.568 174.862C170.852 175.1 171.225 175.219 171.685 175.219C172.259 175.219 172.754 175.089 173.169 174.83V175.494C172.97 175.624 172.742 175.719 172.487 175.778C172.236 175.837 171.941 175.867 171.6 175.867Z" fill="#FAFAF9"/>
<path d="M176.357 175.867C175.601 175.867 175.007 175.689 174.575 175.332C174.148 174.97 173.935 174.463 173.935 173.809C173.935 173.171 174.126 172.666 174.507 172.294C174.893 171.921 175.442 171.734 176.152 171.734C176.624 171.734 177.025 171.821 177.355 171.994C177.685 172.161 177.932 172.396 178.097 172.699C178.267 172.996 178.353 173.336 178.353 173.72V174.125H174.754C174.782 174.492 174.944 174.768 175.24 174.952C175.541 175.13 175.948 175.219 176.459 175.219C176.721 175.219 176.985 175.197 177.253 175.154C177.52 175.105 177.756 175.043 177.96 174.968V175.624C177.778 175.694 177.537 175.751 177.235 175.794C176.94 175.843 176.647 175.867 176.357 175.867ZM177.542 173.55C177.531 173.182 177.403 172.899 177.159 172.699C176.92 172.493 176.579 172.391 176.135 172.391C175.703 172.391 175.368 172.496 175.129 172.707C174.89 172.918 174.765 173.198 174.754 173.55H177.542Z" fill="#FAFAF9"/>
<path d="M38.9284 180.9H39.7897V186.888H38.9284V180.9Z" fill="#FAFAF9"/>
<path d="M41.4052 182.237C41.2631 182.237 41.1437 182.191 41.047 182.099C40.9504 182.007 40.9021 181.894 40.9021 181.758C40.9021 181.623 40.9504 181.51 41.047 181.418C41.1437 181.326 41.2631 181.28 41.4052 181.28C41.553 181.28 41.6752 181.326 41.7719 181.418C41.8742 181.51 41.9254 181.623 41.9254 181.758C41.9254 181.894 41.8742 182.007 41.7719 182.099C41.6752 182.191 41.553 182.237 41.4052 182.237ZM40.9703 182.998H41.8486V186.888H40.9703V182.998Z" fill="#FAFAF9"/>
<path d="M43.034 182.998H43.8697V183.557C44.063 183.325 44.2989 183.155 44.5775 183.047C44.8618 182.934 45.1574 182.877 45.4644 182.877C46.0102 182.877 46.4166 183.015 46.6838 183.29C46.951 183.566 47.0846 183.936 47.0846 184.4V186.888H46.2234V184.481C46.2234 183.849 45.905 183.533 45.2682 183.533C44.9954 183.533 44.7395 183.595 44.5008 183.72C44.2677 183.838 44.0658 184.022 43.8953 184.271V186.888H43.034V182.998Z" fill="#FAFAF9"/>
<path d="M50.3986 187.01C49.6425 187.01 49.0484 186.831 48.6163 186.475C48.1899 186.113 47.9767 185.605 47.9767 184.951C47.9767 184.314 48.1672 183.809 48.5481 183.436C48.9347 183.063 49.4833 182.877 50.1939 182.877C50.6658 182.877 51.0666 182.963 51.3963 183.136C51.7261 183.304 51.9734 183.539 52.1382 183.841C52.3088 184.138 52.3941 184.479 52.3941 184.862V185.267H48.7954C48.8238 185.635 48.9858 185.91 49.2815 186.094C49.5828 186.272 49.9893 186.361 50.5009 186.361C50.7624 186.361 51.0268 186.34 51.294 186.296C51.5612 186.248 51.7971 186.186 52.0018 186.11V186.766C51.8199 186.837 51.5783 186.893 51.2769 186.937C50.9813 186.985 50.6885 187.01 50.3986 187.01ZM51.5839 184.692C51.5726 184.325 51.4447 184.041 51.2002 183.841C50.9614 183.636 50.6203 183.533 50.1769 183.533C49.7448 183.533 49.4094 183.639 49.1706 183.849C48.9318 184.06 48.8068 184.341 48.7954 184.692H51.5839Z" fill="#FAFAF9"/>
<path d="M54.8449 187.01C54.5607 187.01 54.2594 186.974 53.941 186.904C53.6226 186.839 53.3725 186.75 53.1906 186.637V185.94C53.4123 186.064 53.6681 186.167 53.958 186.248C54.248 186.324 54.5294 186.361 54.8023 186.361C55.1093 186.361 55.3338 186.326 55.476 186.256C55.6181 186.186 55.6892 186.072 55.6892 185.916C55.6892 185.797 55.6551 185.702 55.5868 185.632C55.5243 185.556 55.4134 185.489 55.2543 185.429C55.1008 185.37 54.8677 185.3 54.555 185.219C54.2196 185.127 53.9524 185.035 53.7534 184.943C53.5601 184.846 53.4123 184.724 53.3099 184.579C53.2133 184.433 53.165 184.244 53.165 184.011C53.165 183.639 53.3185 183.358 53.6255 183.169C53.9381 182.974 54.356 182.877 54.879 182.877C55.1519 182.877 55.4191 182.901 55.6806 182.95C55.9422 182.998 56.1525 183.066 56.3117 183.152V183.833C56.1468 183.741 55.9422 183.668 55.6977 183.614C55.4589 183.56 55.2145 183.533 54.9643 183.533C54.663 183.533 54.4328 183.568 54.2736 183.639C54.1144 183.709 54.0348 183.833 54.0348 184.011C54.0348 184.125 54.0689 184.217 54.1371 184.287C54.2053 184.357 54.3134 184.419 54.4612 184.473C54.6147 184.522 54.8563 184.587 55.186 184.668C55.7034 184.803 56.0615 184.962 56.2605 185.146C56.4652 185.329 56.5675 185.583 56.5675 185.908C56.5675 186.242 56.4226 186.51 56.1326 186.71C55.8427 186.91 55.4134 187.01 54.8449 187.01Z" fill="#FAFAF9"/>
<path d="M60.9454 183.63H60.3229V182.998H60.9454V182.237C60.9454 181.788 61.079 181.448 61.3462 181.216C61.6134 180.978 61.9716 180.859 62.4207 180.859C62.6538 180.859 62.8727 180.891 63.0774 180.956V181.637C62.9182 181.567 62.7533 181.532 62.5828 181.532C62.3155 181.532 62.1194 181.594 61.9943 181.718C61.8693 181.837 61.8067 182.026 61.8067 182.285V182.998H62.8301V183.63H61.8067V186.888H60.9454V183.63Z" fill="#FAFAF9"/>
<path d="M65.5281 187.01C65.0676 187.01 64.6611 186.929 64.3086 186.766C63.9618 186.599 63.6889 186.361 63.49 186.053C63.2967 185.74 63.2 185.373 63.2 184.951C63.2 184.535 63.2967 184.171 63.49 183.857C63.6832 183.544 63.9561 183.304 64.3086 183.136C64.6611 182.963 65.0676 182.877 65.5281 182.877C65.9886 182.877 66.3951 182.963 66.7475 183.136C67.1 183.304 67.3729 183.544 67.5662 183.857C67.7652 184.171 67.8647 184.535 67.8647 184.951C67.8647 185.373 67.7652 185.74 67.5662 186.053C67.3729 186.361 67.1 186.599 66.7475 186.766C66.3951 186.929 65.9886 187.01 65.5281 187.01ZM65.5281 186.361C65.9715 186.361 66.324 186.232 66.5855 185.972C66.847 185.713 66.9778 185.373 66.9778 184.951C66.9778 184.514 66.847 184.168 66.5855 183.914C66.324 183.66 65.9715 183.533 65.5281 183.533C65.0846 183.533 64.7322 183.66 64.4706 183.914C64.2091 184.168 64.0784 184.514 64.0784 184.951C64.0784 185.373 64.2091 185.713 64.4706 185.972C64.7322 186.232 65.0846 186.361 65.5281 186.361Z" fill="#FAFAF9"/>
<path d="M68.8003 182.998H69.636V183.695C69.8066 183.458 70.0454 183.282 70.3524 183.169C70.665 183.055 71.026 182.998 71.4354 182.998V183.639C70.9976 183.639 70.6224 183.706 70.3097 183.841C69.997 183.976 69.781 184.19 69.6616 184.481V186.888H68.8003V182.998Z" fill="#FAFAF9"/>
<path d="M75.3626 181.224H78.1C78.6288 181.224 79.0381 181.353 79.328 181.613C79.618 181.872 79.7629 182.25 79.7629 182.747C79.7629 183.028 79.6919 183.277 79.5498 183.493C79.4133 183.703 79.2314 183.86 79.004 183.963C79.6407 184.141 79.9591 184.581 79.9591 185.284C79.9591 185.613 79.8823 185.899 79.7288 186.143C79.581 186.38 79.3764 186.564 79.1148 186.694C78.8533 186.823 78.5634 186.888 78.245 186.888H75.3626V181.224ZM77.9892 183.655C78.2678 183.655 78.4866 183.582 78.6458 183.436C78.805 183.29 78.8846 183.074 78.8846 182.788C78.8846 182.458 78.805 182.229 78.6458 182.099C78.4923 181.964 78.2535 181.896 77.9295 181.896H76.2325V183.655H77.9892ZM78.0489 186.215C78.3843 186.215 78.6401 186.145 78.8164 186.005C78.9926 185.864 79.0807 185.624 79.0807 185.284C79.0807 184.943 78.9869 184.7 78.7993 184.554C78.6174 184.408 78.3417 184.335 77.9721 184.335H76.2325V186.215H78.0489Z" fill="#FAFAF9"/>
<path d="M82.1935 181.921H80.343V181.224H84.9224V181.921H83.0719V186.888H82.1935V181.921Z" fill="#FAFAF9"/>
<path d="M88.2075 187.01C87.5935 187.01 87.0477 186.888 86.5702 186.645C86.0926 186.402 85.7203 186.059 85.4531 185.616C85.1859 185.167 85.0523 184.649 85.0523 184.06C85.0523 183.471 85.1859 182.952 85.4531 182.504C85.7203 182.056 86.0926 181.71 86.5702 181.467C87.0477 181.224 87.5935 181.102 88.2075 181.102C89.0262 181.102 89.7112 181.299 90.2627 181.694V182.488C89.7681 182.072 89.1086 181.864 88.2843 181.864C87.8238 181.864 87.4144 181.953 87.0563 182.131C86.7038 182.31 86.4281 182.566 86.2291 182.901C86.0301 183.231 85.9306 183.617 85.9306 184.06C85.9306 184.503 86.0301 184.892 86.2291 185.227C86.4337 185.562 86.7123 185.818 87.0648 185.997C87.423 186.175 87.8294 186.264 88.2843 186.264C88.705 186.264 89.0802 186.213 89.4099 186.11C89.7453 186.002 90.0552 185.832 90.3394 185.6V186.402C89.8278 186.807 89.1171 187.01 88.2075 187.01Z" fill="#FAFAF9"/>
<path d="M91.5074 186.888C91.3937 186.888 91.297 186.853 91.2174 186.783C91.1435 186.707 91.1066 186.615 91.1066 186.507C91.1066 186.399 91.1435 186.307 91.2174 186.232C91.297 186.156 91.3937 186.118 91.5074 186.118C91.6211 186.118 91.7177 186.156 91.7973 186.232C91.8769 186.307 91.9167 186.399 91.9167 186.507C91.9167 186.615 91.8769 186.707 91.7973 186.783C91.7177 186.853 91.6211 186.888 91.5074 186.888Z" fill="#FAFAF9"/>
<path d="M31.4446 167.259C31.4446 170.404 28.939 172.954 25.8483 172.954C22.7575 172.954 20.252 170.404 20.252 167.259C20.252 164.114 22.7575 161.564 25.8483 161.564C28.939 161.564 31.4446 164.114 31.4446 167.259Z" fill="#D9D9D9"/>
<path fill-rule="evenodd" clip-rule="evenodd" d="M29.1692 165.164L24.7823 169.628L22.5273 167.333L23.3064 166.642L24.7823 168.144L28.3901 164.473L29.1692 165.164Z" fill="url(#paint2_linear_1502_15154)"/>
<path d="M38.9284 118.421H41.3247C41.9614 118.421 42.4503 118.567 42.7914 118.859C43.1325 119.151 43.3031 119.577 43.3031 120.139C43.3031 120.555 43.1865 120.909 42.9534 121.201C42.7204 121.487 42.3906 121.682 41.9642 121.784L43.2775 124.086H42.3736L41.1029 121.849H39.7982V124.086H38.9284V118.421ZM41.1797 121.152C41.5606 121.152 41.8619 121.068 42.0836 120.901C42.311 120.728 42.4247 120.474 42.4247 120.139C42.4247 119.772 42.3139 119.51 42.0921 119.353C41.8761 119.197 41.572 119.118 41.1797 119.118H39.7982V121.152H41.1797Z" fill="#FAFAF9"/>
<path d="M46.1514 124.207C45.3953 124.207 44.8012 124.029 44.3691 123.672C43.9427 123.31 43.7295 122.803 43.7295 122.149C43.7295 121.511 43.92 121.006 44.3009 120.634C44.6875 120.261 45.2361 120.074 45.9467 120.074C46.4186 120.074 46.8194 120.161 47.1491 120.334C47.4789 120.501 47.7262 120.736 47.8911 121.039C48.0616 121.336 48.1469 121.676 48.1469 122.06V122.465H44.5482C44.5766 122.832 44.7386 123.108 45.0343 123.292C45.3356 123.47 45.7421 123.559 46.2537 123.559C46.5152 123.559 46.7796 123.537 47.0468 123.494C47.314 123.446 47.5499 123.383 47.7546 123.308V123.964C47.5727 124.034 47.3311 124.091 47.0298 124.134C46.7341 124.183 46.4413 124.207 46.1514 124.207ZM47.3368 121.89C47.3254 121.522 47.1975 121.239 46.953 121.039C46.7142 120.833 46.3731 120.731 45.9297 120.731C45.4976 120.731 45.1622 120.836 44.9234 121.047C44.6846 121.258 44.5596 121.538 44.5482 121.89H47.3368Z" fill="#FAFAF9"/>
<path d="M51.2458 124.207C50.791 124.207 50.3874 124.126 50.0349 123.964C49.6824 123.802 49.4067 123.567 49.2077 123.259C49.0144 122.946 48.9178 122.576 48.9178 122.149C48.9178 121.722 49.0144 121.355 49.2077 121.047C49.4067 120.734 49.6824 120.493 50.0349 120.326C50.3931 120.158 50.8024 120.074 51.2629 120.074C51.8883 120.074 52.3885 120.191 52.7638 120.423V121.095C52.3942 120.852 51.9224 120.731 51.3482 120.731C50.882 120.731 50.5039 120.852 50.214 121.095C49.9297 121.333 49.7876 121.684 49.7876 122.149C49.7876 122.614 49.9297 122.965 50.214 123.202C50.4982 123.44 50.8706 123.559 51.3311 123.559C51.9053 123.559 52.3999 123.429 52.8149 123.17V123.834C52.616 123.964 52.3885 124.059 52.1327 124.118C51.8826 124.178 51.5869 124.207 51.2458 124.207Z" fill="#FAFAF9"/>
<path d="M56.0032 124.207C55.2471 124.207 54.653 124.029 54.2209 123.672C53.7946 123.31 53.5814 122.803 53.5814 122.149C53.5814 121.511 53.7718 121.006 54.1527 120.634C54.5393 120.261 55.0879 120.074 55.7986 120.074C56.2704 120.074 56.6712 120.161 57.001 120.334C57.3307 120.501 57.578 120.736 57.7429 121.039C57.9134 121.336 57.9987 121.676 57.9987 122.06V122.465H54.4C54.4284 122.832 54.5905 123.108 54.8861 123.292C55.1874 123.47 55.5939 123.559 56.1056 123.559C56.3671 123.559 56.6314 123.537 56.8986 123.494C57.1658 123.446 57.4018 123.383 57.6064 123.308V123.964C57.4245 124.034 57.1829 124.091 56.8816 124.134C56.586 124.183 56.2932 124.207 56.0032 124.207ZM57.1886 121.89C57.1772 121.522 57.0493 121.239 56.8048 121.039C56.5661 120.833 56.2249 120.731 55.7815 120.731C55.3494 120.731 55.014 120.836 54.7752 121.047C54.5365 121.258 54.4114 121.538 54.4 121.89H57.1886Z" fill="#FAFAF9"/>
<path d="M59.4433 119.434C59.3012 119.434 59.1818 119.388 59.0851 119.296C58.9885 119.205 58.9402 119.091 58.9402 118.956C58.9402 118.821 58.9885 118.708 59.0851 118.616C59.1818 118.524 59.3012 118.478 59.4433 118.478C59.5911 118.478 59.7133 118.524 59.81 118.616C59.9123 118.708 59.9635 118.821 59.9635 118.956C59.9635 119.091 59.9123 119.205 59.81 119.296C59.7133 119.388 59.5911 119.434 59.4433 119.434ZM59.0084 120.196H59.8867V124.086H59.0084V120.196Z" fill="#FAFAF9"/>
<path d="M60.9015 120.196H61.814L63.0164 122.992L64.2188 120.196H65.1313L63.3916 124.086H62.6412L60.9015 120.196Z" fill="#FAFAF9"/>
<path d="M67.9787 124.207C67.2225 124.207 66.6284 124.029 66.1964 123.672C65.77 123.31 65.5568 122.803 65.5568 122.149C65.5568 121.511 65.7472 121.006 66.1281 120.634C66.5147 120.261 67.0634 120.074 67.774 120.074C68.2459 120.074 68.6467 120.161 68.9764 120.334C69.3061 120.501 69.5534 120.736 69.7183 121.039C69.8889 121.336 69.9741 121.676 69.9741 122.06V122.465H66.3754C66.4039 122.832 66.5659 123.108 66.8615 123.292C67.1628 123.47 67.5693 123.559 68.081 123.559C68.3425 123.559 68.6069 123.537 68.8741 123.494C69.1413 123.446 69.3772 123.383 69.5819 123.308V123.964C69.3999 124.034 69.1583 124.091 68.857 124.134C68.5614 124.183 68.2686 124.207 67.9787 124.207ZM69.164 121.89C69.1526 121.522 69.0247 121.239 68.7803 121.039C68.5415 120.833 68.2004 120.731 67.7569 120.731C67.3249 120.731 66.9894 120.836 66.7507 121.047C66.5119 121.258 66.3868 121.538 66.3754 121.89H69.164Z" fill="#FAFAF9"/>
<path d="M75.5386 124.207C75.044 124.207 74.646 124.088 74.3447 123.851C74.0491 123.608 73.9013 123.281 73.9013 122.87C73.9013 122.438 74.0434 122.106 74.3277 121.873C74.6176 121.636 75.0269 121.517 75.5557 121.517C76.1185 121.517 76.596 121.625 76.9883 121.841V121.638C76.9883 121.33 76.8888 121.104 76.6898 120.958C76.4965 120.806 76.1895 120.731 75.7688 120.731C75.5187 120.731 75.2742 120.755 75.0355 120.804C74.8024 120.847 74.592 120.909 74.4044 120.99V120.326C74.575 120.25 74.7967 120.191 75.0696 120.147C75.3425 120.099 75.6068 120.074 75.8627 120.074C76.5392 120.074 77.0395 120.218 77.3635 120.504C77.6933 120.785 77.8581 121.177 77.8581 121.679V124.086H77.048V123.648C76.8718 123.832 76.6614 123.972 76.417 124.069C76.1782 124.161 75.8854 124.207 75.5386 124.207ZM75.7518 123.583C76.0247 123.583 76.272 123.532 76.4937 123.429C76.7154 123.327 76.8803 123.183 76.9883 123V122.473C76.6188 122.246 76.2066 122.133 75.7518 122.133C75.4221 122.133 75.1748 122.195 75.0099 122.319C74.8507 122.438 74.7711 122.622 74.7711 122.87C74.7711 123.346 75.098 123.583 75.7518 123.583Z" fill="#FAFAF9"/>
<path d="M83.5926 124.207C83.3084 124.207 83.007 124.172 82.6887 124.102C82.3703 124.037 82.1202 123.948 81.9382 123.834V123.138C82.16 123.262 82.4158 123.364 82.7057 123.446C82.9957 123.521 83.2771 123.559 83.55 123.559C83.857 123.559 84.0815 123.524 84.2237 123.454C84.3658 123.383 84.4369 123.27 84.4369 123.113C84.4369 122.994 84.4027 122.9 84.3345 122.83C84.272 122.754 84.1611 122.686 84.0019 122.627C83.8484 122.568 83.6154 122.497 83.3027 122.416C82.9673 122.325 82.7001 122.233 82.5011 122.141C82.3078 122.044 82.16 121.922 82.0576 121.776C81.961 121.63 81.9127 121.441 81.9127 121.209C81.9127 120.836 82.0662 120.555 82.3732 120.366C82.6858 120.172 83.1037 120.074 83.6267 120.074C83.8996 120.074 84.1668 120.099 84.4283 120.147C84.6898 120.196 84.9002 120.264 85.0594 120.35V121.031C84.8945 120.939 84.6898 120.866 84.4454 120.812C84.2066 120.758 83.9622 120.731 83.712 120.731C83.4107 120.731 83.1804 120.766 83.0213 120.836C82.8621 120.906 82.7825 121.031 82.7825 121.209C82.7825 121.322 82.8166 121.414 82.8848 121.484C82.953 121.555 83.0611 121.617 83.2089 121.671C83.3624 121.719 83.604 121.784 83.9337 121.865C84.4511 122 84.8092 122.16 85.0082 122.343C85.2129 122.527 85.3152 122.781 85.3152 123.105C85.3152 123.44 85.1702 123.708 84.8803 123.907C84.5904 124.107 84.1611 124.207 83.5926 124.207Z" fill="#FAFAF9"/>
<path d="M88.5068 124.207C87.7506 124.207 87.1566 124.029 86.7245 123.672C86.2981 123.31 86.0849 122.803 86.0849 122.149C86.0849 121.511 86.2754 121.006 86.6563 120.634C87.0429 120.261 87.5915 120.074 88.3021 120.074C88.774 120.074 89.1748 120.161 89.5045 120.334C89.8343 120.501 90.0816 120.736 90.2464 121.039C90.417 121.336 90.5023 121.676 90.5023 122.06V122.465H86.9036C86.932 122.832 87.094 123.108 87.3896 123.292C87.691 123.47 88.0974 123.559 88.6091 123.559C88.8706 123.559 89.135 123.537 89.4022 123.494C89.6694 123.446 89.9053 123.383 90.11 123.308V123.964C89.9281 124.034 89.6864 124.091 89.3851 124.134C89.0895 124.183 88.7967 124.207 88.5068 124.207ZM89.6921 121.89C89.6808 121.522 89.5528 121.239 89.3084 121.039C89.0696 120.833 88.7285 120.731 88.2851 120.731C87.853 120.731 87.5176 120.836 87.2788 121.047C87.04 121.258 86.9149 121.538 86.9036 121.89H89.6921Z" fill="#FAFAF9"/>
<path d="M91.4437 118.097H92.305V124.086H91.4437V118.097Z" fill="#FAFAF9"/>
<path d="M95.6687 124.207C94.9126 124.207 94.3185 124.029 93.8864 123.672C93.46 123.31 93.2468 122.803 93.2468 122.149C93.2468 121.511 93.4373 121.006 93.8182 120.634C94.2048 120.261 94.7534 120.074 95.464 120.074C95.9359 120.074 96.3367 120.161 96.6665 120.334C96.9962 120.501 97.2435 120.736 97.4084 121.039C97.5789 121.336 97.6642 121.676 97.6642 122.06V122.465H94.0655C94.0939 122.832 94.256 123.108 94.5516 123.292C94.8529 123.47 95.2594 123.559 95.771 123.559C96.0326 123.559 96.2969 123.537 96.5641 123.494C96.8313 123.446 97.0673 123.383 97.2719 123.308V123.964C97.09 124.034 96.8484 124.091 96.5471 124.134C96.2514 124.183 95.9587 124.207 95.6687 124.207ZM96.8541 121.89C96.8427 121.522 96.7148 121.239 96.4703 121.039C96.2315 120.833 95.8904 120.731 95.447 120.731C95.0149 120.731 94.6795 120.836 94.4407 121.047C94.2019 121.258 94.0769 121.538 94.0655 121.89H96.8541Z" fill="#FAFAF9"/>
<path d="M100.763 124.207C100.308 124.207 99.9047 124.126 99.5522 123.964C99.1997 123.802 98.924 123.567 98.725 123.259C98.5317 122.946 98.4351 122.576 98.4351 122.149C98.4351 121.722 98.5317 121.355 98.725 121.047C98.924 120.734 99.1997 120.493 99.5522 120.326C99.9104 120.158 100.32 120.074 100.78 120.074C101.406 120.074 101.906 120.191 102.281 120.423V121.095C101.912 120.852 101.44 120.731 100.865 120.731C100.399 120.731 100.021 120.852 99.7313 121.095C99.447 121.333 99.3049 121.684 99.3049 122.149C99.3049 122.614 99.447 122.965 99.7313 123.202C100.016 123.44 100.388 123.559 100.848 123.559C101.423 123.559 101.917 123.429 102.332 123.17V123.834C102.133 123.964 101.906 124.059 101.65 124.118C101.4 124.178 101.104 124.207 100.763 124.207Z" fill="#FAFAF9"/>
<path d="M104.847 124.207C104.432 124.207 104.111 124.094 103.883 123.867C103.662 123.64 103.551 123.319 103.551 122.903V120.828H102.928V120.196H103.551V119.029H104.42V120.196H105.427V120.828H104.42V122.846C104.42 123.105 104.472 123.289 104.574 123.397C104.682 123.505 104.875 123.559 105.154 123.559C105.319 123.559 105.484 123.524 105.648 123.454V124.102C105.432 124.172 105.165 124.207 104.847 124.207Z" fill="#FAFAF9"/>
<path d="M109.615 120.196H110.451V120.755C110.644 120.523 110.88 120.353 111.159 120.245C111.443 120.131 111.738 120.074 112.045 120.074C112.591 120.074 112.998 120.212 113.265 120.488C113.532 120.763 113.666 121.133 113.666 121.598V124.086H112.804V121.679C112.804 121.047 112.486 120.731 111.849 120.731C111.576 120.731 111.321 120.793 111.082 120.917C110.849 121.036 110.647 121.22 110.476 121.468V124.086H109.615V120.196Z" fill="#FAFAF9"/>
<path d="M116.357 124.207C115.806 124.207 115.388 124.067 115.104 123.786C114.825 123.505 114.686 123.129 114.686 122.659V120.196H115.547V122.627C115.547 123.248 115.874 123.559 116.528 123.559C117.102 123.559 117.551 123.313 117.875 122.822V120.196H118.736V124.086H117.901V123.535C117.707 123.767 117.477 123.937 117.21 124.045C116.948 124.153 116.664 124.207 116.357 124.207Z" fill="#FAFAF9"/>
<path d="M119.842 120.196H120.66V120.755C120.854 120.528 121.072 120.358 121.317 120.245C121.561 120.131 121.814 120.074 122.076 120.074C122.406 120.074 122.667 120.128 122.86 120.236C123.054 120.339 123.196 120.499 123.287 120.715C123.469 120.504 123.69 120.345 123.952 120.236C124.219 120.128 124.486 120.074 124.754 120.074C125.254 120.074 125.615 120.196 125.837 120.439C126.058 120.677 126.169 121.031 126.169 121.501V124.086H125.333V121.606C125.333 121.287 125.271 121.063 125.146 120.933C125.021 120.798 124.808 120.731 124.506 120.731C124.074 120.731 123.722 120.909 123.449 121.266C123.46 121.347 123.466 121.479 123.466 121.663V124.086H122.63V121.606C122.63 121.287 122.573 121.063 122.46 120.933C122.346 120.798 122.141 120.731 121.846 120.731C121.414 120.731 121.027 120.963 120.686 121.428V124.086H119.842V120.196Z" fill="#FAFAF9"/>
<path d="M129.778 124.207C129.408 124.207 129.087 124.153 128.814 124.045C128.547 123.932 128.3 123.756 128.072 123.518V124.086H127.237V118.097H128.098V120.715C128.286 120.504 128.527 120.345 128.823 120.236C129.119 120.128 129.437 120.074 129.778 120.074C130.187 120.074 130.554 120.164 130.878 120.342C131.208 120.515 131.464 120.758 131.646 121.071C131.833 121.385 131.927 121.744 131.927 122.149C131.927 122.56 131.833 122.921 131.646 123.235C131.464 123.543 131.208 123.783 130.878 123.956C130.554 124.124 130.187 124.207 129.778 124.207ZM129.582 123.559C129.86 123.559 130.111 123.502 130.332 123.389C130.56 123.27 130.736 123.102 130.861 122.886C130.992 122.67 131.057 122.424 131.057 122.149C131.057 121.873 130.992 121.628 130.861 121.412C130.736 121.195 130.56 121.028 130.332 120.909C130.111 120.79 129.86 120.731 129.582 120.731C129.235 120.731 128.925 120.82 128.652 120.998C128.379 121.177 128.195 121.414 128.098 121.711V122.587C128.206 122.884 128.391 123.121 128.652 123.3C128.92 123.473 129.229 123.559 129.582 123.559Z" fill="#FAFAF9"/>
<path d="M135.118 124.207C134.362 124.207 133.767 124.029 133.335 123.672C132.909 123.31 132.696 122.803 132.696 122.149C132.696 121.511 132.886 121.006 133.267 120.634C133.654 120.261 134.202 120.074 134.913 120.074C135.385 120.074 135.786 120.161 136.115 120.334C136.445 120.501 136.692 120.736 136.857 121.039C137.028 121.336 137.113 121.676 137.113 122.06V122.465H133.514C133.543 122.832 133.705 123.108 134.001 123.292C134.302 123.47 134.708 123.559 135.22 123.559C135.482 123.559 135.746 123.537 136.013 123.494C136.28 123.446 136.516 123.383 136.721 123.308V123.964C136.539 124.034 136.297 124.091 135.996 124.134C135.7 124.183 135.408 124.207 135.118 124.207ZM136.303 121.89C136.292 121.522 136.164 121.239 135.919 121.039C135.681 120.833 135.339 120.731 134.896 120.731C134.464 120.731 134.128 120.836 133.89 121.047C133.651 121.258 133.526 121.538 133.514 121.89H136.303Z" fill="#FAFAF9"/>
<path d="M138.055 120.196H138.89V120.893C139.061 120.655 139.3 120.48 139.607 120.366C139.919 120.253 140.28 120.196 140.69 120.196V120.836C140.252 120.836 139.877 120.904 139.564 121.039C139.251 121.174 139.035 121.387 138.916 121.679V124.086H138.055V120.196Z" fill="#FAFAF9"/>
<path d="M146.774 124.207C146.314 124.207 145.907 124.126 145.555 123.964C145.208 123.797 144.935 123.559 144.736 123.251C144.543 122.938 144.446 122.57 144.446 122.149C144.446 121.733 144.543 121.368 144.736 121.055C144.93 120.742 145.203 120.501 145.555 120.334C145.907 120.161 146.314 120.074 146.774 120.074C147.235 120.074 147.641 120.161 147.994 120.334C148.346 120.501 148.619 120.742 148.813 121.055C149.012 121.368 149.111 121.733 149.111 122.149C149.111 122.57 149.012 122.938 148.813 123.251C148.619 123.559 148.346 123.797 147.994 123.964C147.641 124.126 147.235 124.207 146.774 124.207ZM146.774 123.559C147.218 123.559 147.57 123.429 147.832 123.17C148.093 122.911 148.224 122.57 148.224 122.149C148.224 121.711 148.093 121.366 147.832 121.112C147.57 120.858 147.218 120.731 146.774 120.731C146.331 120.731 145.979 120.858 145.717 121.112C145.455 121.366 145.325 121.711 145.325 122.149C145.325 122.57 145.455 122.911 145.717 123.17C145.979 123.429 146.331 123.559 146.774 123.559Z" fill="#FAFAF9"/>
<path d="M150.028 120.828H149.406V120.196H150.028V119.434C150.028 118.986 150.162 118.645 150.429 118.413C150.696 118.175 151.054 118.057 151.504 118.057C151.737 118.057 151.956 118.089 152.16 118.154V118.835C152.001 118.764 151.836 118.729 151.666 118.729C151.398 118.729 151.202 118.791 151.077 118.916C150.952 119.034 150.89 119.224 150.89 119.483V120.196H151.913V120.828H150.89V124.086H150.028V120.828Z" fill="#FAFAF9"/>
<path d="M40.4378 135.35C40.1535 135.35 39.8522 135.315 39.5338 135.244C39.2155 135.179 38.9653 135.09 38.7834 134.977V134.28C39.0051 134.404 39.2609 134.507 39.5509 134.588C39.8408 134.664 40.1222 134.701 40.3951 134.701C40.7021 134.701 40.9267 134.666 41.0688 134.596C41.2109 134.526 41.282 134.412 41.282 134.256C41.282 134.137 41.2479 134.042 41.1797 133.972C41.1171 133.896 41.0063 133.829 40.8471 133.769C40.6936 133.71 40.4605 133.64 40.1478 133.559C39.8124 133.467 39.5452 133.375 39.3462 133.283C39.1529 133.186 39.0051 133.064 38.9028 132.919C38.8061 132.773 38.7578 132.584 38.7578 132.351C38.7578 131.979 38.9113 131.698 39.2183 131.509C39.531 131.314 39.9488 131.217 40.4719 131.217C40.7448 131.217 41.012 131.241 41.2735 131.29C41.535 131.338 41.7454 131.406 41.9045 131.492V132.173C41.7397 132.081 41.535 132.008 41.2905 131.954C41.0518 131.9 40.8073 131.873 40.5572 131.873C40.2558 131.873 40.0256 131.908 39.8664 131.979C39.7072 132.049 39.6276 132.173 39.6276 132.351C39.6276 132.465 39.6617 132.557 39.73 132.627C39.7982 132.697 39.9062 132.759 40.054 132.813C40.2075 132.862 40.4491 132.927 40.7789 133.008C41.2962 133.143 41.6544 133.302 41.8534 133.486C42.058 133.669 42.1604 133.923 42.1604 134.248C42.1604 134.582 42.0154 134.85 41.7255 135.05C41.4355 135.25 41.0063 135.35 40.4378 135.35Z" fill="#FAFAF9"/>
<path d="M43.6037 130.577C43.4616 130.577 43.3422 130.531 43.2456 130.439C43.1489 130.347 43.1006 130.234 43.1006 130.099C43.1006 129.963 43.1489 129.85 43.2456 129.758C43.3422 129.666 43.4616 129.62 43.6037 129.62C43.7516 129.62 43.8738 129.666 43.9704 129.758C44.0728 129.85 44.1239 129.963 44.1239 130.099C44.1239 130.234 44.0728 130.347 43.9704 130.439C43.8738 130.531 43.7516 130.577 43.6037 130.577ZM43.1688 131.338H44.0472V135.228H43.1688V131.338Z" fill="#FAFAF9"/>
<path d="M47.373 137.092C47.0944 137.092 46.8215 137.07 46.5543 137.027C46.2928 136.984 46.0711 136.922 45.8892 136.841V136.168C46.3156 136.352 46.8102 136.444 47.373 136.444C47.9017 136.444 48.2855 136.333 48.5242 136.111C48.7687 135.895 48.8909 135.566 48.8909 135.123V134.709C48.5157 135.136 47.9642 135.35 47.2365 135.35C46.8215 135.35 46.4492 135.263 46.1194 135.09C45.7897 134.917 45.531 134.674 45.3434 134.361C45.1558 134.048 45.062 133.688 45.062 133.283C45.062 132.873 45.1529 132.513 45.3349 132.205C45.5225 131.892 45.7783 131.649 46.1024 131.476C46.4321 131.303 46.8016 131.217 47.211 131.217C47.5919 131.217 47.9131 131.271 48.1746 131.379C48.4418 131.482 48.6891 131.654 48.9165 131.898V131.338H49.7522V135.034C49.7522 135.698 49.5561 136.206 49.1638 136.557C48.7772 136.914 48.1803 137.092 47.373 137.092ZM47.4071 134.701C47.7596 134.701 48.0694 134.612 48.3366 134.434C48.6095 134.256 48.7943 134.018 48.8909 133.721V132.846C48.7829 132.543 48.5953 132.305 48.3281 132.133C48.0666 131.96 47.7596 131.873 47.4071 131.873C47.1285 131.873 46.8755 131.933 46.6481 132.051C46.4264 132.165 46.2502 132.33 46.1194 132.546C45.9943 132.762 45.9318 133.008 45.9318 133.283C45.9318 133.564 45.9943 133.813 46.1194 134.029C46.2502 134.239 46.4264 134.404 46.6481 134.523C46.8755 134.642 47.1285 134.701 47.4071 134.701Z" fill="#FAFAF9"/>
<path d="M50.8622 131.338H51.6979V131.898C51.8912 131.665 52.1271 131.495 52.4057 131.387C52.6899 131.274 52.9856 131.217 53.2926 131.217C53.8383 131.217 54.2448 131.355 54.512 131.63C54.7792 131.906 54.9128 132.276 54.9128 132.74V135.228H54.0515V132.821C54.0515 132.189 53.7332 131.873 53.0964 131.873C52.8235 131.873 52.5677 131.935 52.3289 132.06C52.0958 132.178 51.894 132.362 51.7235 132.611V135.228H50.8622V131.338Z" fill="#FAFAF9"/>
<path d="M57.3173 135.35C56.8227 135.35 56.4247 135.231 56.1234 134.993C55.8278 134.75 55.68 134.423 55.68 134.013C55.68 133.58 55.8221 133.248 56.1064 133.016C56.3963 132.778 56.8056 132.659 57.3344 132.659C57.8972 132.659 58.3747 132.767 58.767 132.983V132.781C58.767 132.473 58.6675 132.246 58.4685 132.1C58.2752 131.949 57.9682 131.873 57.5475 131.873C57.2974 131.873 57.0529 131.898 56.8142 131.946C56.5811 131.989 56.3707 132.051 56.1831 132.133V131.468C56.3537 131.392 56.5754 131.333 56.8483 131.29C57.1212 131.241 57.3855 131.217 57.6413 131.217C58.3179 131.217 58.8182 131.36 59.1422 131.646C59.472 131.927 59.6368 132.319 59.6368 132.821V135.228H58.8267V134.79C58.6505 134.974 58.4401 135.115 58.1956 135.212C57.9569 135.304 57.6641 135.35 57.3173 135.35ZM57.5305 134.726C57.8034 134.726 58.0507 134.674 58.2724 134.572C58.4941 134.469 58.659 134.326 58.767 134.142V133.615C58.3975 133.389 57.9853 133.275 57.5305 133.275C57.2008 133.275 56.9534 133.337 56.7886 133.462C56.6294 133.58 56.5498 133.764 56.5498 134.013C56.5498 134.488 56.8767 134.726 57.5305 134.726Z" fill="#FAFAF9"/>
<path d="M60.7057 129.24H61.567V135.228H60.7057V129.24Z" fill="#FAFAF9"/>
<path d="M64.1888 135.35C63.9045 135.35 63.6032 135.315 63.2848 135.244C62.9665 135.179 62.7163 135.09 62.5344 134.977V134.28C62.7561 134.404 63.0119 134.507 63.3019 134.588C63.5918 134.664 63.8732 134.701 64.1461 134.701C64.4531 134.701 64.6777 134.666 64.8198 134.596C64.9619 134.526 65.033 134.412 65.033 134.256C65.033 134.137 64.9989 134.042 64.9307 133.972C64.8681 133.896 64.7573 133.829 64.5981 133.769C64.4446 133.71 64.2115 133.64 63.8988 133.559C63.5634 133.467 63.2962 133.375 63.0972 133.283C62.9039 133.186 62.7561 133.064 62.6538 132.919C62.5571 132.773 62.5088 132.584 62.5088 132.351C62.5088 131.979 62.6623 131.698 62.9693 131.509C63.282 131.314 63.6998 131.217 64.2229 131.217C64.4958 131.217 64.763 131.241 65.0245 131.29C65.286 131.338 65.4963 131.406 65.6555 131.492V132.173C65.4907 132.081 65.286 132.008 65.0415 131.954C64.8028 131.9 64.5583 131.873 64.3081 131.873C64.0068 131.873 63.7766 131.908 63.6174 131.979C63.4582 132.049 63.3786 132.173 63.3786 132.351C63.3786 132.465 63.4127 132.557 63.481 132.627C63.5492 132.697 63.6572 132.759 63.805 132.813C63.9585 132.862 64.2001 132.927 64.5299 133.008C65.0472 133.143 65.4054 133.302 65.6044 133.486C65.809 133.669 65.9114 133.923 65.9114 134.248C65.9114 134.582 65.7664 134.85 65.4764 135.05C65.1865 135.25 64.7573 135.35 64.1888 135.35Z" fill="#FAFAF9"/>
<path d="M70.2893 131.97H69.6667V131.338H70.2893V130.577C70.2893 130.128 70.4229 129.788 70.6901 129.556C70.9573 129.318 71.3154 129.199 71.7646 129.199C71.9976 129.199 72.2165 129.231 72.4212 129.296V129.977C72.262 129.907 72.0971 129.872 71.9266 129.872C71.6594 129.872 71.4632 129.934 71.3382 130.058C71.2131 130.177 71.1506 130.366 71.1506 130.625V131.338H72.1739V131.97H71.1506V135.228H70.2893V131.97Z" fill="#FAFAF9"/>
<path d="M72.9726 131.338H73.8083V132.035C73.9788 131.798 74.2176 131.622 74.5246 131.509C74.8373 131.395 75.1983 131.338 75.6076 131.338V131.979C75.1699 131.979 74.7946 132.046 74.482 132.181C74.1693 132.316 73.9532 132.53 73.8339 132.821V135.228H72.9726V131.338Z" fill="#FAFAF9"/>
<path d="M78.4112 135.35C77.9507 135.35 77.5443 135.269 77.1918 135.107C76.845 134.939 76.5721 134.701 76.3731 134.393C76.1798 134.08 76.0832 133.713 76.0832 133.291C76.0832 132.875 76.1798 132.511 76.3731 132.197C76.5664 131.884 76.8393 131.644 77.1918 131.476C77.5443 131.303 77.9507 131.217 78.4112 131.217C78.8717 131.217 79.2782 131.303 79.6307 131.476C79.9832 131.644 80.2561 131.884 80.4494 132.197C80.6483 132.511 80.7478 132.875 80.7478 133.291C80.7478 133.713 80.6483 134.08 80.4494 134.393C80.2561 134.701 79.9832 134.939 79.6307 135.107C79.2782 135.269 78.8717 135.35 78.4112 135.35ZM78.4112 134.701C78.8547 134.701 79.2072 134.572 79.4687 134.312C79.7302 134.053 79.8609 133.713 79.8609 133.291C79.8609 132.854 79.7302 132.508 79.4687 132.254C79.2072 132 78.8547 131.873 78.4112 131.873C77.9678 131.873 77.6153 132 77.3538 132.254C77.0923 132.508 76.9615 132.854 76.9615 133.291C76.9615 133.713 77.0923 134.053 77.3538 134.312C77.6153 134.572 77.9678 134.701 78.4112 134.701Z" fill="#FAFAF9"/>
<path d="M81.6835 131.338H82.5021V131.898C82.6954 131.671 82.9143 131.5 83.1588 131.387C83.4032 131.274 83.6562 131.217 83.9177 131.217C84.2475 131.217 84.509 131.271 84.7023 131.379C84.8956 131.482 85.0377 131.641 85.1287 131.857C85.3106 131.646 85.5323 131.487 85.7938 131.379C86.061 131.271 86.3282 131.217 86.5954 131.217C87.0957 131.217 87.4567 131.338 87.6785 131.581C87.9002 131.819 88.011 132.173 88.011 132.643V135.228H87.1753V132.748C87.1753 132.43 87.1128 132.205 86.9877 132.076C86.8626 131.941 86.6494 131.873 86.3481 131.873C85.9161 131.873 85.5636 132.051 85.2907 132.408C85.3021 132.489 85.3078 132.621 85.3078 132.805V135.228H84.472V132.748C84.472 132.43 84.4152 132.205 84.3015 132.076C84.1878 131.941 83.9831 131.873 83.6875 131.873C83.2554 131.873 82.8688 132.106 82.5277 132.57V135.228H81.6835V131.338Z" fill="#FAFAF9"/>
<path d="M94.4435 129.564H95.2792L97.6585 135.228H96.7716L96.1746 133.818H93.5396L92.9597 135.228H92.0643L94.4435 129.564ZM95.9359 133.129L94.8614 130.479L93.7869 133.129H95.9359Z" fill="#FAFAF9"/>
<path d="M98.5973 129.24H99.4586V135.228H98.5973V129.24Z" fill="#FAFAF9"/>
<path d="M100.571 131.338H101.407V131.914C101.827 131.449 102.396 131.217 103.112 131.217C103.522 131.217 103.888 131.303 104.212 131.476C104.542 131.649 104.798 131.892 104.98 132.205C105.167 132.513 105.261 132.873 105.261 133.283C105.261 133.688 105.167 134.048 104.98 134.361C104.798 134.674 104.545 134.917 104.221 135.09C103.897 135.263 103.527 135.35 103.112 135.35C102.771 135.35 102.453 135.296 102.157 135.188C101.862 135.08 101.62 134.92 101.432 134.709V137.003H100.571V131.338ZM102.916 134.701C103.195 134.701 103.445 134.645 103.667 134.531C103.894 134.412 104.07 134.245 104.195 134.029C104.326 133.813 104.391 133.564 104.391 133.283C104.391 133.002 104.326 132.756 104.195 132.546C104.07 132.33 103.894 132.165 103.667 132.051C103.445 131.933 103.195 131.873 102.916 131.873C102.569 131.873 102.262 131.96 101.995 132.133C101.734 132.305 101.546 132.543 101.432 132.846V133.721C101.529 134.018 101.714 134.256 101.987 134.434C102.259 134.612 102.569 134.701 102.916 134.701Z" fill="#FAFAF9"/>
<path d="M106.201 129.24H107.062V131.873C107.454 131.436 107.977 131.217 108.631 131.217C109.177 131.217 109.583 131.355 109.85 131.63C110.118 131.906 110.251 132.276 110.251 132.74V135.228H109.39V132.821C109.39 132.189 109.072 131.873 108.435 131.873C108.162 131.873 107.906 131.935 107.667 132.06C107.434 132.178 107.232 132.362 107.062 132.611V135.228H106.201V129.24Z" fill="#FAFAF9"/>
<path d="M112.656 135.35C112.161 135.35 111.763 135.231 111.462 134.993C111.166 134.75 111.018 134.423 111.018 134.013C111.018 133.58 111.161 133.248 111.445 133.016C111.735 132.778 112.144 132.659 112.673 132.659C113.236 132.659 113.713 132.767 114.105 132.983V132.781C114.105 132.473 114.006 132.246 113.807 132.1C113.614 131.949 113.307 131.873 112.886 131.873C112.636 131.873 112.391 131.898 112.153 131.946C111.92 131.989 111.709 132.051 111.522 132.133V131.468C111.692 131.392 111.914 131.333 112.187 131.29C112.46 131.241 112.724 131.217 112.98 131.217C113.656 131.217 114.157 131.36 114.481 131.646C114.81 131.927 114.975 132.319 114.975 132.821V135.228H114.165V134.79C113.989 134.974 113.779 135.115 113.534 135.212C113.295 135.304 113.003 135.35 112.656 135.35ZM112.869 134.726C113.142 134.726 113.389 134.674 113.611 134.572C113.833 134.469 113.997 134.326 114.105 134.142V133.615C113.736 133.389 113.324 133.275 112.869 133.275C112.539 133.275 112.292 133.337 112.127 133.462C111.968 133.58 111.888 133.764 111.888 134.013C111.888 134.488 112.215 134.726 112.869 134.726Z" fill="#FAFAF9"/>
<path d="M119.2 129.564H123.132V130.261H120.07V132.068H122.356V132.724H120.07V135.228H119.2V129.564Z" fill="#FAFAF9"/>
<path d="M125.414 135.35C124.953 135.35 124.547 135.269 124.194 135.107C123.847 134.939 123.574 134.701 123.375 134.393C123.182 134.08 123.085 133.713 123.085 133.291C123.085 132.875 123.182 132.511 123.375 132.197C123.569 131.884 123.842 131.644 124.194 131.476C124.547 131.303 124.953 131.217 125.414 131.217C125.874 131.217 126.281 131.303 126.633 131.476C126.985 131.644 127.258 131.884 127.452 132.197C127.651 132.511 127.75 132.875 127.75 133.291C127.75 133.713 127.651 134.08 127.452 134.393C127.258 134.701 126.985 134.939 126.633 135.107C126.281 135.269 125.874 135.35 125.414 135.35ZM125.414 134.701C125.857 134.701 126.209 134.572 126.471 134.312C126.732 134.053 126.863 133.713 126.863 133.291C126.863 132.854 126.732 132.508 126.471 132.254C126.209 132 125.857 131.873 125.414 131.873C124.97 131.873 124.618 132 124.356 132.254C124.095 132.508 123.964 132.854 123.964 133.291C123.964 133.713 124.095 134.053 124.356 134.312C124.618 134.572 124.97 134.701 125.414 134.701Z" fill="#FAFAF9"/>
<path d="M130.315 135.35C129.763 135.35 129.345 135.209 129.061 134.928C128.782 134.647 128.643 134.272 128.643 133.802V131.338H129.504V133.769C129.504 134.391 129.831 134.701 130.485 134.701C131.059 134.701 131.508 134.456 131.833 133.964V131.338H132.694V135.228H131.858V134.677C131.665 134.909 131.435 135.08 131.167 135.188C130.906 135.296 130.622 135.35 130.315 135.35Z" fill="#FAFAF9"/>
<path d="M133.799 131.338H134.635V131.898C134.828 131.665 135.064 131.495 135.343 131.387C135.627 131.274 135.922 131.217 136.229 131.217C136.775 131.217 137.182 131.355 137.449 131.63C137.716 131.906 137.85 132.276 137.85 132.74V135.228H136.988V132.821C136.988 132.189 136.67 131.873 136.033 131.873C135.76 131.873 135.505 131.935 135.266 132.06C135.033 132.178 134.831 132.362 134.66 132.611V135.228H133.799V131.338Z" fill="#FAFAF9"/>
<path d="M140.891 135.35C140.481 135.35 140.112 135.266 139.782 135.098C139.458 134.926 139.202 134.685 139.015 134.377C138.833 134.064 138.742 133.702 138.742 133.291C138.742 132.886 138.833 132.527 139.015 132.214C139.202 131.9 139.458 131.657 139.782 131.484C140.112 131.306 140.481 131.217 140.891 131.217C141.63 131.217 142.19 131.43 142.571 131.857V129.24H143.432V135.228H142.596V134.661C142.369 134.899 142.119 135.074 141.846 135.188C141.579 135.296 141.26 135.35 140.891 135.35ZM141.087 134.701C141.439 134.701 141.746 134.615 142.008 134.442C142.275 134.264 142.463 134.026 142.571 133.729V132.854C142.474 132.557 142.289 132.319 142.016 132.141C141.749 131.962 141.439 131.873 141.087 131.873C140.808 131.873 140.555 131.933 140.328 132.051C140.106 132.17 139.93 132.338 139.799 132.554C139.674 132.77 139.612 133.016 139.612 133.291C139.612 133.567 139.674 133.813 139.799 134.029C139.93 134.245 140.106 134.412 140.328 134.531C140.555 134.645 140.808 134.701 141.087 134.701Z" fill="#FAFAF9"/>
<path d="M146.793 135.35C146.037 135.35 145.443 135.171 145.011 134.815C144.585 134.453 144.371 133.945 144.371 133.291C144.371 132.654 144.562 132.149 144.943 131.776C145.329 131.403 145.878 131.217 146.589 131.217C147.061 131.217 147.461 131.303 147.791 131.476C148.121 131.644 148.368 131.879 148.533 132.181C148.704 132.478 148.789 132.819 148.789 133.202V133.607H145.19C145.219 133.975 145.381 134.25 145.676 134.434C145.977 134.612 146.384 134.701 146.896 134.701C147.157 134.701 147.422 134.68 147.689 134.637C147.956 134.588 148.192 134.526 148.397 134.45V135.107C148.215 135.177 147.973 135.233 147.672 135.277C147.376 135.325 147.083 135.35 146.793 135.35ZM147.979 133.032C147.967 132.665 147.839 132.381 147.595 132.181C147.356 131.976 147.015 131.873 146.572 131.873C146.14 131.873 145.804 131.979 145.565 132.189C145.327 132.4 145.201 132.681 145.19 133.032H147.979Z" fill="#FAFAF9"/>
<path d="M149.73 131.338H150.566V132.035C150.736 131.798 150.975 131.622 151.282 131.509C151.595 131.395 151.956 131.338 152.365 131.338V131.979C151.928 131.979 151.552 132.046 151.24 132.181C150.927 132.316 150.711 132.53 150.592 132.821V135.228H149.73V131.338Z" fill="#FAFAF9"/>
<path d="M154.521 135.35C154.237 135.35 153.935 135.315 153.617 135.244C153.298 135.179 153.048 135.09 152.866 134.977V134.28C153.088 134.404 153.344 134.507 153.634 134.588C153.924 134.664 154.205 134.701 154.478 134.701C154.785 134.701 155.01 134.666 155.152 134.596C155.294 134.526 155.365 134.412 155.365 134.256C155.365 134.137 155.331 134.042 155.263 133.972C155.2 133.896 155.089 133.829 154.93 133.769C154.777 133.71 154.544 133.64 154.231 133.559C153.895 133.467 153.628 133.375 153.429 133.283C153.236 133.186 153.088 133.064 152.986 132.919C152.889 132.773 152.841 132.584 152.841 132.351C152.841 131.979 152.994 131.698 153.301 131.509C153.614 131.314 154.032 131.217 154.555 131.217C154.828 131.217 155.095 131.241 155.357 131.29C155.618 131.338 155.828 131.406 155.988 131.492V132.173C155.823 132.081 155.618 132.008 155.374 131.954C155.135 131.9 154.89 131.873 154.64 131.873C154.339 131.873 154.109 131.908 153.949 131.979C153.79 132.049 153.711 132.173 153.711 132.351C153.711 132.465 153.745 132.557 153.813 132.627C153.881 132.697 153.989 132.759 154.137 132.813C154.291 132.862 154.532 132.927 154.862 133.008C155.379 133.143 155.737 133.302 155.936 133.486C156.141 133.669 156.243 133.923 156.243 134.248C156.243 134.582 156.098 134.85 155.808 135.05C155.519 135.25 155.089 135.35 154.521 135.35Z" fill="#FAFAF9"/>
<path d="M157.414 135.228C157.3 135.228 157.204 135.193 157.124 135.123C157.05 135.047 157.013 134.955 157.013 134.847C157.013 134.739 157.05 134.647 157.124 134.572C157.204 134.496 157.3 134.458 157.414 134.458C157.528 134.458 157.624 134.496 157.704 134.572C157.783 134.647 157.823 134.739 157.823 134.847C157.823 134.955 157.783 135.047 157.704 135.123C157.624 135.193 157.528 135.228 157.414 135.228Z" fill="#FAFAF9"/>
<path d="M31.4446 126.478C31.4446 129.623 28.939 132.172 25.8483 132.172C22.7575 132.172 20.252 129.623 20.252 126.478C20.252 123.333 22.7575 120.783 25.8483 120.783C28.939 120.783 31.4446 123.333 31.4446 126.478Z" fill="#D9D9D9"/>
<path fill-rule="evenodd" clip-rule="evenodd" d="M29.1692 124.383L24.7823 128.847L22.5273 126.552L23.3064 125.861L24.7823 127.363L28.3901 123.691L29.1692 124.383Z" fill="url(#paint3_linear_1502_15154)"/>
<path d="M61.5254 32.4136L64.8086 25.1934H66.0046L69.405 32.4136H68.0917L67.224 30.5528H63.6594L62.8152 32.4136H61.5254ZM64.0816 29.5055H66.8254L65.4183 26.5193L64.0816 29.5055Z" fill="#FF6D36"/>
<path d="M71.4634 25.2491H72.6829V31.3551H77.0917V32.4136H71.4634V25.2491Z" fill="#FF6D36"/>
<path d="M79.302 32.4136V25.2491H84.473C85.8331 25.2491 86.5367 26.2073 86.5367 27.3104C86.5367 28.4247 85.8331 29.3606 84.473 29.3606H80.5214V32.4136H79.302ZM80.5214 28.2909H84.473C85.0827 28.2909 85.3172 27.8675 85.3172 27.3216C85.3172 26.7979 85.0592 26.3076 84.473 26.3076H80.5214V28.2909Z" fill="#FF6D36"/>
<path d="M88.8009 25.2491H90.0204V28.2909H94.6754V25.2491H95.8949V32.4136H94.6754V29.3606H90.0204V32.4136H88.8009V25.2491Z" fill="#FF6D36"/>
<path d="M97.9409 32.4136L101.224 25.1934H102.42L105.821 32.4136H104.507L103.64 30.5528H100.075L99.2308 32.4136H97.9409ZM100.497 29.5055H103.241L101.834 26.5193L100.497 29.5055Z" fill="#FF6D36"/>
<path d="M112.03 25.2491H113.25V31.3551H117.659V32.4136H112.03V25.2491Z" fill="#FF6D36"/>
<path d="M119.869 25.2491H121.088V32.4136H119.869V25.2491Z" fill="#FF6D36"/>
<path d="M126.219 26.3076H123.275V25.2491H130.369V26.3076H127.438V32.4136H126.219V26.3076Z" fill="#FF6D36"/>
<path d="M132.569 25.2491H139.51V26.3076H133.788V28.2909H138.045V29.3606H133.788V31.3551H139.51V32.4136H132.569V25.2491Z" fill="#FF6D36"/>
<path d="M41.1855 72.9523H51.5254V75.5455H44.4261V78.8477H49.6493V81.2179H44.4261V87.1133H41.1855V72.9523Z" fill="white"/>
<path d="M52.4614 77.389H55.574V78.7869C55.9862 78.3142 56.5618 77.9563 57.3009 77.7132C58.04 77.4565 58.8785 77.3282 59.8166 77.3282V79.658C58.8359 79.658 57.9689 79.7998 57.2156 80.0835C56.4766 80.3671 55.9649 80.7993 55.6806 81.38V87.1133H52.4614V77.389Z" fill="white"/>
<path d="M67.6019 87.4172C65.6406 87.4172 64.0985 86.9715 62.9757 86.0801C61.8528 85.1752 61.2914 83.9124 61.2914 82.2917C61.2914 80.6845 61.7889 79.4149 62.7838 78.483C63.7929 77.5511 65.2284 77.0851 67.0903 77.0851C68.3126 77.0851 69.3501 77.3012 70.2029 77.7334C71.0557 78.1656 71.7023 78.7666 72.1429 79.5365C72.5835 80.2928 72.8038 81.1504 72.8038 82.1093V83.3451H64.3614C64.5888 84.5877 65.8111 85.209 68.0283 85.209C68.6821 85.209 69.3572 85.1549 70.0537 85.0469C70.7501 84.9388 71.3541 84.7903 71.8658 84.6012V86.7486C71.3683 86.9512 70.7288 87.1133 69.9471 87.2348C69.1654 87.3564 68.3836 87.4172 67.6019 87.4172ZM69.7552 81.3598C69.7126 80.7115 69.4567 80.2118 68.9877 79.8606C68.5187 79.4959 67.872 79.3136 67.0476 79.3136C66.2375 79.3136 65.5979 79.4959 65.1289 79.8606C64.6599 80.2253 64.4041 80.725 64.3614 81.3598H69.7552Z" fill="white"/>
<path d="M81.0014 87.4172C79.0401 87.4172 77.498 86.9715 76.3752 86.0801C75.2523 85.1752 74.6909 83.9124 74.6909 82.2917C74.6909 80.6845 75.1884 79.4149 76.1833 78.483C77.1924 77.5511 78.6279 77.0851 80.4898 77.0851C81.7121 77.0851 82.7496 77.3012 83.6024 77.7334C84.4552 78.1656 85.1018 78.7666 85.5424 79.5365C85.983 80.2928 86.2033 81.1504 86.2033 82.1093V83.3451H77.7609C77.9883 84.5877 79.2106 85.209 81.4278 85.209C82.0816 85.209 82.7567 85.1549 83.4531 85.0469C84.1496 84.9388 84.7536 84.7903 85.2653 84.6012V86.7486C84.7678 86.9512 84.1283 87.1133 83.3465 87.2348C82.5648 87.3564 81.7831 87.4172 81.0014 87.4172ZM83.1547 81.3598C83.112 80.7115 82.8562 80.2118 82.3872 79.8606C81.9182 79.4959 81.2715 79.3136 80.4471 79.3136C79.637 79.3136 78.9974 79.4959 78.5284 79.8606C78.0594 80.2253 77.8035 80.725 77.7609 81.3598H83.1547Z" fill="white"/>
<path d="M104.135 87.4172C102.544 87.4172 101.137 87.12 99.9143 86.5258C98.692 85.918 97.7468 85.0604 97.0788 83.9529C96.4108 82.8454 96.0768 81.5421 96.0768 80.0429C96.0768 78.5438 96.4108 77.2405 97.0788 76.133C97.7468 75.012 98.692 74.1543 99.9143 73.5601C101.137 72.9523 102.544 72.6484 104.135 72.6484C105.216 72.6484 106.168 72.7565 106.992 72.9726C107.831 73.1752 108.598 73.4993 109.295 73.945V76.8825C108.669 76.3963 107.952 76.0452 107.142 75.8291C106.346 75.5995 105.436 75.4847 104.413 75.4847C103.46 75.4847 102.601 75.6738 101.833 76.0519C101.08 76.4166 100.483 76.9433 100.042 77.6321C99.6016 78.3209 99.3813 79.1245 99.3813 80.0429C99.3813 80.9748 99.5803 81.792 99.9782 82.4943C100.39 83.1831 100.966 83.7165 101.705 84.0947C102.444 84.4729 103.297 84.662 104.263 84.662C105.145 84.662 105.912 84.5134 106.566 84.2163V81.4813H104.157V79.2123H109.7V86.0396C108.293 86.958 106.438 87.4172 104.135 87.4172Z" fill="white"/>
<path d="M112.047 77.389H115.16V78.7869C115.572 78.3142 116.148 77.9563 116.887 77.7132C117.626 77.4565 118.464 77.3282 119.402 77.3282V79.658C118.422 79.658 117.555 79.7998 116.801 80.0835C116.062 80.3671 115.551 80.7993 115.266 81.38V87.1133H112.047V77.389Z" fill="white"/>
<path d="M126.726 87.4172C125.49 87.4172 124.402 87.2078 123.464 86.7891C122.54 86.357 121.823 85.7559 121.311 84.9861C120.814 84.2028 120.565 83.2911 120.565 82.2512C120.565 81.2382 120.814 80.3401 121.311 79.5567C121.823 78.7734 122.54 78.1656 123.464 77.7334C124.402 77.3012 125.49 77.0851 126.726 77.0851C127.948 77.0851 129.021 77.3012 129.945 77.7334C130.883 78.1656 131.601 78.7734 132.099 79.5567C132.61 80.3401 132.866 81.2382 132.866 82.2512C132.866 83.2911 132.61 84.2028 132.099 84.9861C131.601 85.7559 130.89 86.357 129.967 86.7891C129.043 87.2078 127.963 87.4172 126.726 87.4172ZM126.726 85.0266C127.593 85.0266 128.282 84.7768 128.794 84.277C129.306 83.7638 129.562 83.0885 129.562 82.2512C129.562 81.3868 129.306 80.7115 128.794 80.2253C128.297 79.7255 127.607 79.4757 126.726 79.4757C125.845 79.4757 125.148 79.7255 124.637 80.2253C124.125 80.7115 123.869 81.3868 123.869 82.2512C123.869 83.0885 124.125 83.7638 124.637 84.277C125.163 84.7768 125.859 85.0266 126.726 85.0266Z" fill="white"/>
<path d="M139.275 87.4172C137.882 87.4172 136.837 87.0593 136.141 86.3434C135.444 85.6141 135.096 84.6485 135.096 83.4464V77.389H138.315V83.1223C138.315 84.3918 138.934 85.0266 140.17 85.0266C140.71 85.0266 141.215 84.9051 141.684 84.662C142.153 84.4189 142.544 84.0542 142.856 83.568V77.389H146.075V87.1133H142.963V85.9383C142.508 86.438 141.954 86.8094 141.3 87.0525C140.66 87.2956 139.985 87.4172 139.275 87.4172Z" fill="white"/>
<path d="M148.852 77.389H151.965V78.4627C153.002 77.5443 154.281 77.0851 155.802 77.0851C156.868 77.0851 157.806 77.3012 158.616 77.7334C159.441 78.1521 160.08 78.7531 160.535 79.5365C160.99 80.3063 161.217 81.2044 161.217 82.2309C161.217 83.2438 160.99 84.142 160.535 84.9253C160.08 85.7087 159.441 86.3232 158.616 86.7689C157.806 87.2011 156.868 87.4172 155.802 87.4172C155.077 87.4172 154.388 87.3159 153.734 87.1133C153.08 86.9107 152.526 86.6203 152.071 86.2422V91.55H148.852V77.389ZM154.992 85.0266C155.859 85.0266 156.562 84.77 157.103 84.2568C157.657 83.7436 157.934 83.0683 157.934 82.2309C157.934 81.3935 157.657 80.725 157.103 80.2253C156.562 79.7255 155.859 79.4757 154.992 79.4757C154.324 79.4757 153.727 79.6445 153.201 79.9822C152.675 80.3198 152.299 80.7655 152.071 81.3192V83.1628C152.284 83.7301 152.654 84.1825 153.18 84.5201C153.72 84.8578 154.324 85.0266 154.992 85.0266Z" fill="white"/>
<path d="M57.877 45.5816L60.2647 40.3305H61.1345L63.6076 45.5816H62.6525L62.0214 44.2283H59.429L58.815 45.5816H57.877ZM59.736 43.4665H61.7315L60.7082 41.2948L59.736 43.4665Z" fill="#EF8963"/>
<path d="M65.25 40.371H66.0857L69.5223 44.2445V40.371H70.4092V45.5816H69.5735L66.1368 41.7V45.5816H65.25V40.371Z" fill="#EF8963"/>
<path d="M74.0978 43.9203C74.0978 43.8798 74.0978 43.8312 74.0978 43.7988V43.7583C74.0637 43.6124 73.9528 43.4341 73.8164 43.2477C73.6799 43.0532 73.535 42.875 73.4411 42.721L71.9403 40.371H72.9465L74.5497 42.8588L76.1188 40.371H77.1422L75.6413 42.721C75.556 42.8588 75.4025 43.0532 75.2661 43.2477C75.1296 43.4503 75.0102 43.6286 74.9761 43.7583C74.9761 43.7745 74.9847 43.7826 74.9847 43.7826V45.5816H74.0978V44.131V43.9203Z" fill="#EF8963"/>
<path d="M80.7963 40.2656C82.5104 40.2656 83.491 41.5703 83.491 42.9803C83.491 44.3822 82.5104 45.6869 80.7963 45.6869C79.0907 45.6869 78.1186 44.3741 78.1186 42.9803C78.1186 41.5784 79.0907 40.2656 80.7963 40.2656ZM80.7963 41.0841C79.6792 41.0841 79.0652 42.0241 79.0652 42.9722C79.0652 43.9122 79.6792 44.8522 80.7963 44.8522C81.9219 44.8522 82.553 43.9284 82.553 42.9803C82.553 42.0241 81.9305 41.0841 80.7963 41.0841Z" fill="#EF8963"/>
<path d="M85.345 40.371H86.1807L89.6174 44.2445V40.371H90.5043V45.5816H89.6686L86.2319 41.7V45.5816H85.345V40.371Z" fill="#EF8963"/>
<path d="M92.6152 40.371H97.6636V41.1408H93.5021V42.5832H96.5977V43.3612H93.5021V44.8117H97.6636V45.5816H92.6152V40.371Z" fill="#EF8963"/>
<path d="M105.197 40.2656C106.587 40.2656 107.542 41.1408 107.823 42.2996L107.84 42.3888H106.877L106.86 42.332C106.655 41.627 106.024 41.0841 105.197 41.0841C104.08 41.0841 103.466 42.0322 103.466 42.9722C103.466 43.9041 104.071 44.8522 105.197 44.8522C106.016 44.8522 106.655 44.3255 106.86 43.6124L106.877 43.5557H107.84L107.823 43.6448C107.542 44.8036 106.595 45.6869 105.197 45.6869C103.491 45.6869 102.519 44.3741 102.519 42.9803C102.519 41.5784 103.491 40.2656 105.197 40.2656Z" fill="#EF8963"/>
<path d="M108.918 45.5816L111.306 40.3305H112.176L114.649 45.5816H113.694L113.063 44.2283H110.47L109.856 45.5816H108.918ZM110.777 43.4665H112.773L111.749 41.2948L110.777 43.4665Z" fill="#EF8963"/>
<path d="M116.291 40.371H117.127L120.564 44.2445V40.371H121.451V45.5816H120.615L117.178 41.7V45.5816H116.291V40.371Z" fill="#EF8963"/>
<path d="M127.4 43.7258L127.408 43.7988C127.485 44.366 127.903 44.8522 128.559 44.8522C129.293 44.8522 129.728 44.2526 129.728 43.6205V40.371H130.606V43.6205C130.606 44.674 129.864 45.6869 128.568 45.6869C127.349 45.6869 126.607 44.8117 126.521 43.8069L126.513 43.7258H127.4Z" fill="#EF8963"/>
<path d="M135.135 40.2656C136.849 40.2656 137.83 41.5703 137.83 42.9803C137.83 44.3822 136.849 45.6869 135.135 45.6869C133.43 45.6869 132.458 44.3741 132.458 42.9803C132.458 41.5784 133.43 40.2656 135.135 40.2656ZM135.135 41.0841C134.018 41.0841 133.404 42.0241 133.404 42.9722C133.404 43.9122 134.018 44.8522 135.135 44.8522C136.261 44.8522 136.892 43.9284 136.892 42.9803C136.892 42.0241 136.27 41.0841 135.135 41.0841Z" fill="#EF8963"/>
<path d="M139.684 40.371H140.571V45.5816H139.684V40.371Z" fill="#EF8963"/>
<path d="M142.682 40.371H143.518L146.955 44.2445V40.371H147.841V45.5816H147.006L143.569 41.7V45.5816H142.682V40.371Z" fill="#EF8963"/>
<defs>
<linearGradient id="paint0_linear_1502_15154" x1="101" y1="0" x2="101" y2="307.429" gradientUnits="userSpaceOnUse">
<stop stop-color="#3F3F3F"/>
<stop offset="1" stop-color="#2E2E2E"/>
</linearGradient>
<linearGradient id="paint1_linear_1502_15154" x1="101" y1="0" x2="101" y2="354.531" gradientUnits="userSpaceOnUse">
<stop stop-color="#3F3F3F"/>
<stop offset="1" stop-color="#2E2E2E"/>
</linearGradient>
<linearGradient id="paint2_linear_1502_15154" x1="25.8483" y1="164.818" x2="25.8483" y2="168.886" gradientUnits="userSpaceOnUse">
<stop stop-color="#2D2D2D"/>
<stop offset="1" stop-color="#242424"/>
</linearGradient>
<linearGradient id="paint3_linear_1502_15154" x1="25.8483" y1="124.037" x2="25.8483" y2="128.105" gradientUnits="userSpaceOnUse">
<stop stop-color="#2D2D2D"/>
<stop offset="1" stop-color="#242424"/>
</linearGradient>
</defs>
</svg>
