<svg width="508" height="521" viewBox="0 0 508 521" fill="none" xmlns="http://www.w3.org/2000/svg">
<rect x="1.5" y="1.5" width="505" height="518" rx="36.5" stroke="#333333" stroke-width="3"/>
<path d="M0 302H508V483C508 503.987 490.987 521 470 521H38C17.0132 521 0 503.987 0 483V302Z" fill="#333333"/>
<path d="M80.4228 392.816H82.0708V404H80.4228V392.816ZM84.6852 397.568H83.5172V396.32H84.6852V394.816C84.6852 393.931 84.9359 393.259 85.4372 392.8C85.9385 392.331 86.6105 392.096 87.4532 392.096C87.8905 392.096 88.3012 392.16 88.6852 392.288V393.632C88.3865 393.493 88.0772 393.424 87.7572 393.424C87.2559 393.424 86.8879 393.547 86.6532 393.792C86.4185 394.027 86.3012 394.4 86.3012 394.912V396.32H88.2212V397.568H86.3012V404H84.6852V397.568ZM95.7197 396.32H97.2557V397.424C97.6184 396.976 98.029 396.64 98.4877 396.416C98.9464 396.192 99.421 396.08 99.9117 396.08C100.53 396.08 101.021 396.187 101.384 396.4C101.746 396.603 102.013 396.917 102.184 397.344C102.525 396.928 102.941 396.613 103.432 396.4C103.933 396.187 104.434 396.08 104.936 396.08C105.874 396.08 106.552 396.32 106.968 396.8C107.384 397.269 107.592 397.968 107.592 398.896V404H106.024V399.104C106.024 398.475 105.906 398.032 105.672 397.776C105.437 397.509 105.037 397.376 104.472 397.376C103.661 397.376 103 397.728 102.488 398.432C102.509 398.592 102.52 398.853 102.52 399.216V404H100.952V399.104C100.952 398.475 100.845 398.032 100.632 397.776C100.418 397.509 100.034 397.376 99.4797 397.376C98.669 397.376 97.9437 397.835 97.3037 398.752V404H95.7197V396.32ZM113.408 404.24C112.544 404.24 111.782 404.08 111.12 403.76C110.47 403.429 109.958 402.96 109.584 402.352C109.222 401.733 109.04 401.008 109.04 400.176C109.04 399.355 109.222 398.635 109.584 398.016C109.947 397.397 110.459 396.923 111.12 396.592C111.782 396.251 112.544 396.08 113.408 396.08C114.272 396.08 115.035 396.251 115.696 396.592C116.358 396.923 116.87 397.397 117.232 398.016C117.606 398.635 117.792 399.355 117.792 400.176C117.792 401.008 117.606 401.733 117.232 402.352C116.87 402.96 116.358 403.429 115.696 403.76C115.035 404.08 114.272 404.24 113.408 404.24ZM113.408 402.96C114.24 402.96 114.902 402.704 115.392 402.192C115.883 401.68 116.128 401.008 116.128 400.176C116.128 399.312 115.883 398.629 115.392 398.128C114.902 397.627 114.24 397.376 113.408 397.376C112.576 397.376 111.915 397.627 111.424 398.128C110.934 398.629 110.688 399.312 110.688 400.176C110.688 401.008 110.934 401.68 111.424 402.192C111.915 402.704 112.576 402.96 113.408 402.96ZM119.548 396.32H121.116V397.424C121.478 396.965 121.921 396.629 122.444 396.416C122.977 396.192 123.532 396.08 124.108 396.08C125.132 396.08 125.894 396.352 126.396 396.896C126.897 397.44 127.148 398.171 127.148 399.088V404H125.532V399.248C125.532 398 124.934 397.376 123.74 397.376C123.228 397.376 122.748 397.499 122.3 397.744C121.862 397.979 121.484 398.341 121.164 398.832V404H119.548V396.32ZM132.102 404.24C131.323 404.24 130.72 404.016 130.294 403.568C129.878 403.12 129.67 402.485 129.67 401.664V397.568H128.502V396.32H129.67V394.016H131.302V396.32H133.19V397.568H131.302V401.552C131.302 402.064 131.398 402.427 131.59 402.64C131.792 402.853 132.155 402.96 132.678 402.96C132.987 402.96 133.296 402.891 133.606 402.752V404.032C133.2 404.171 132.699 404.24 132.102 404.24ZM135.126 392.176H136.742V397.376C137.478 396.512 138.459 396.08 139.686 396.08C140.71 396.08 141.473 396.352 141.974 396.896C142.475 397.44 142.726 398.171 142.726 399.088V404H141.11V399.248C141.11 398 140.513 397.376 139.318 397.376C138.806 397.376 138.326 397.499 137.878 397.744C137.441 397.979 137.062 398.341 136.742 398.832V404H135.126V392.176ZM144.72 392.176H146.336V404H144.72V392.176ZM150.055 407.168C149.479 407.168 148.999 407.109 148.615 406.992V405.728C148.892 405.835 149.233 405.888 149.639 405.888C150.012 405.888 150.305 405.792 150.519 405.6C150.732 405.419 150.924 405.12 151.095 404.704L151.463 403.808L148.103 396.32H149.767L152.327 402.224L154.711 396.32H156.375L152.919 404.864C152.599 405.664 152.215 406.245 151.767 406.608C151.329 406.981 150.759 407.168 150.055 407.168ZM163.735 396.32H165.303V397.456C166.093 396.539 167.159 396.08 168.503 396.08C169.271 396.08 169.959 396.251 170.567 396.592C171.186 396.933 171.666 397.413 172.007 398.032C172.359 398.64 172.535 399.349 172.535 400.16C172.535 400.96 172.359 401.669 172.007 402.288C171.666 402.907 171.191 403.387 170.583 403.728C169.975 404.069 169.282 404.24 168.503 404.24C167.863 404.24 167.266 404.133 166.711 403.92C166.157 403.707 165.703 403.392 165.351 402.976V407.504H163.735V396.32ZM168.135 402.96C168.658 402.96 169.127 402.848 169.543 402.624C169.97 402.389 170.301 402.059 170.535 401.632C170.781 401.205 170.903 400.715 170.903 400.16C170.903 399.605 170.781 399.12 170.535 398.704C170.301 398.277 169.97 397.952 169.543 397.728C169.127 397.493 168.658 397.376 168.135 397.376C167.485 397.376 166.909 397.547 166.407 397.888C165.917 398.229 165.565 398.699 165.351 399.296V401.024C165.533 401.611 165.879 402.08 166.391 402.432C166.903 402.784 167.485 402.96 168.135 402.96ZM176.644 404.24C175.716 404.24 174.969 404.005 174.404 403.536C173.849 403.056 173.572 402.411 173.572 401.6C173.572 400.747 173.838 400.091 174.372 399.632C174.916 399.163 175.684 398.928 176.676 398.928C177.732 398.928 178.628 399.141 179.364 399.568V399.168C179.364 398.56 179.177 398.112 178.804 397.824C178.441 397.525 177.865 397.376 177.076 397.376C176.606 397.376 176.148 397.424 175.7 397.52C175.262 397.605 174.868 397.728 174.516 397.888V396.576C174.836 396.427 175.252 396.309 175.764 396.224C176.276 396.128 176.772 396.08 177.252 396.08C178.521 396.08 179.46 396.363 180.068 396.928C180.686 397.483 180.996 398.256 180.996 399.248V404H179.476V403.136C179.145 403.499 178.75 403.776 178.292 403.968C177.844 404.149 177.294 404.24 176.644 404.24ZM177.044 403.008C177.556 403.008 178.02 402.907 178.436 402.704C178.852 402.501 179.161 402.219 179.364 401.856V400.816C178.67 400.368 177.897 400.144 177.044 400.144C176.425 400.144 175.961 400.267 175.652 400.512C175.353 400.747 175.204 401.109 175.204 401.6C175.204 402.539 175.817 403.008 177.044 403.008ZM183.914 407.168C183.338 407.168 182.858 407.109 182.474 406.992V405.728C182.752 405.835 183.093 405.888 183.498 405.888C183.872 405.888 184.165 405.792 184.378 405.6C184.592 405.419 184.784 405.12 184.954 404.704L185.322 403.808L181.962 396.32H183.626L186.186 402.224L188.57 396.32H190.234L186.778 404.864C186.458 405.664 186.074 406.245 185.626 406.608C185.189 406.981 184.618 407.168 183.914 407.168ZM191.673 396.32H193.209V397.424C193.571 396.976 193.982 396.64 194.441 396.416C194.899 396.192 195.374 396.08 195.865 396.08C196.483 396.08 196.974 396.187 197.337 396.4C197.699 396.603 197.966 396.917 198.137 397.344C198.478 396.928 198.894 396.613 199.385 396.4C199.886 396.187 200.387 396.08 200.889 396.08C201.827 396.08 202.505 396.32 202.921 396.8C203.337 397.269 203.545 397.968 203.545 398.896V404H201.977V399.104C201.977 398.475 201.859 398.032 201.625 397.776C201.39 397.509 200.99 397.376 200.425 397.376C199.614 397.376 198.953 397.728 198.441 398.432C198.462 398.592 198.473 398.853 198.473 399.216V404H196.905V399.104C196.905 398.475 196.798 398.032 196.585 397.776C196.371 397.509 195.987 397.376 195.433 397.376C194.622 397.376 193.897 397.835 193.257 398.752V404H191.673V396.32ZM209.772 404.24C208.353 404.24 207.238 403.888 206.428 403.184C205.628 402.469 205.228 401.467 205.228 400.176C205.228 398.917 205.585 397.92 206.3 397.184C207.025 396.448 208.054 396.08 209.388 396.08C210.273 396.08 211.025 396.251 211.644 396.592C212.262 396.923 212.726 397.387 213.036 397.984C213.356 398.571 213.516 399.243 213.516 400V400.8H206.764C206.817 401.525 207.121 402.069 207.676 402.432C208.241 402.784 209.004 402.96 209.964 402.96C210.454 402.96 210.95 402.917 211.452 402.832C211.953 402.736 212.396 402.613 212.78 402.464V403.76C212.438 403.899 211.985 404.011 211.42 404.096C210.865 404.192 210.316 404.24 209.772 404.24ZM211.996 399.664C211.974 398.939 211.734 398.379 211.276 397.984C210.828 397.579 210.188 397.376 209.356 397.376C208.545 397.376 207.916 397.584 207.468 398C207.02 398.416 206.785 398.971 206.764 399.664H211.996ZM215.282 396.32H216.85V397.424C217.213 396.965 217.656 396.629 218.178 396.416C218.712 396.192 219.266 396.08 219.842 396.08C220.866 396.08 221.629 396.352 222.13 396.896C222.632 397.44 222.882 398.171 222.882 399.088V404H221.266V399.248C221.266 398 220.669 397.376 219.474 397.376C218.962 397.376 218.482 397.499 218.034 397.744C217.597 397.979 217.218 398.341 216.898 398.832V404H215.282V396.32ZM227.836 404.24C227.057 404.24 226.455 404.016 226.028 403.568C225.612 403.12 225.404 402.485 225.404 401.664V397.568H224.236V396.32H225.404V394.016H227.036V396.32H228.924V397.568H227.036V401.552C227.036 402.064 227.132 402.427 227.324 402.64C227.527 402.853 227.889 402.96 228.412 402.96C228.721 402.96 229.031 402.891 229.34 402.752V404.032C228.935 404.171 228.433 404.24 227.836 404.24ZM233.38 404.24C232.846 404.24 232.281 404.171 231.684 404.032C231.086 403.904 230.617 403.728 230.276 403.504V402.128C230.692 402.373 231.172 402.576 231.716 402.736C232.26 402.885 232.788 402.96 233.3 402.96C233.876 402.96 234.297 402.891 234.564 402.752C234.83 402.613 234.964 402.389 234.964 402.08C234.964 401.845 234.9 401.659 234.772 401.52C234.654 401.371 234.446 401.237 234.148 401.12C233.86 401.003 233.422 400.864 232.836 400.704C232.206 400.523 231.705 400.341 231.332 400.16C230.969 399.968 230.692 399.728 230.5 399.44C230.318 399.152 230.228 398.779 230.228 398.32C230.228 397.584 230.516 397.029 231.092 396.656C231.678 396.272 232.462 396.08 233.444 396.08C233.956 396.08 234.457 396.128 234.948 396.224C235.438 396.32 235.833 396.453 236.132 396.624V397.968C235.822 397.787 235.438 397.643 234.98 397.536C234.532 397.429 234.073 397.376 233.604 397.376C233.038 397.376 232.606 397.445 232.308 397.584C232.009 397.723 231.86 397.968 231.86 398.32C231.86 398.544 231.924 398.725 232.052 398.864C232.18 399.003 232.382 399.125 232.66 399.232C232.948 399.328 233.401 399.456 234.02 399.616C234.99 399.883 235.662 400.197 236.036 400.56C236.42 400.923 236.612 401.424 236.612 402.064C236.612 402.725 236.34 403.253 235.796 403.648C235.252 404.043 234.446 404.24 233.38 404.24ZM247.05 404.24C246.122 404.24 245.375 404.005 244.81 403.536C244.255 403.056 243.978 402.411 243.978 401.6C243.978 400.747 244.244 400.091 244.778 399.632C245.322 399.163 246.09 398.928 247.082 398.928C248.138 398.928 249.034 399.141 249.77 399.568V399.168C249.77 398.56 249.583 398.112 249.21 397.824C248.847 397.525 248.271 397.376 247.482 397.376C247.012 397.376 246.554 397.424 246.106 397.52C245.668 397.605 245.274 397.728 244.922 397.888V396.576C245.242 396.427 245.658 396.309 246.17 396.224C246.682 396.128 247.178 396.08 247.658 396.08C248.927 396.08 249.866 396.363 250.474 396.928C251.092 397.483 251.402 398.256 251.402 399.248V404H249.882V403.136C249.551 403.499 249.156 403.776 248.698 403.968C248.25 404.149 247.7 404.24 247.05 404.24ZM247.45 403.008C247.962 403.008 248.426 402.907 248.842 402.704C249.258 402.501 249.567 402.219 249.77 401.856V400.816C249.076 400.368 248.303 400.144 247.45 400.144C246.831 400.144 246.367 400.267 246.058 400.512C245.759 400.747 245.61 401.109 245.61 401.6C245.61 402.539 246.223 403.008 247.45 403.008ZM253.407 396.32H254.975V397.696C255.295 397.227 255.743 396.88 256.319 396.656C256.906 396.432 257.583 396.32 258.351 396.32V397.584C257.53 397.584 256.826 397.717 256.239 397.984C255.653 398.251 255.247 398.672 255.023 399.248V404H253.407V396.32ZM263.537 404.24C262.119 404.24 261.004 403.888 260.193 403.184C259.393 402.469 258.993 401.467 258.993 400.176C258.993 398.917 259.351 397.92 260.065 397.184C260.791 396.448 261.82 396.08 263.153 396.08C264.039 396.08 264.791 396.251 265.409 396.592C266.028 396.923 266.492 397.387 266.801 397.984C267.121 398.571 267.281 399.243 267.281 400V400.8H260.529C260.583 401.525 260.887 402.069 261.441 402.432C262.007 402.784 262.769 402.96 263.729 402.96C264.22 402.96 264.716 402.917 265.217 402.832C265.719 402.736 266.161 402.613 266.545 402.464V403.76C266.204 403.899 265.751 404.011 265.185 404.096C264.631 404.192 264.081 404.24 263.537 404.24ZM265.761 399.664C265.74 398.939 265.5 398.379 265.041 397.984C264.593 397.579 263.953 397.376 263.121 397.376C262.311 397.376 261.681 397.584 261.233 398C260.785 398.416 260.551 398.971 260.529 399.664H265.761ZM274.97 396.32H276.506V397.424C276.868 396.976 277.279 396.64 277.738 396.416C278.196 396.192 278.671 396.08 279.162 396.08C279.78 396.08 280.271 396.187 280.634 396.4C280.996 396.603 281.263 396.917 281.434 397.344C281.775 396.928 282.191 396.613 282.682 396.4C283.183 396.187 283.684 396.08 284.186 396.08C285.124 396.08 285.802 396.32 286.218 396.8C286.634 397.269 286.842 397.968 286.842 398.896V404H285.274V399.104C285.274 398.475 285.156 398.032 284.922 397.776C284.687 397.509 284.287 397.376 283.722 397.376C282.911 397.376 282.25 397.728 281.738 398.432C281.759 398.592 281.77 398.853 281.77 399.216V404H280.202V399.104C280.202 398.475 280.095 398.032 279.882 397.776C279.668 397.509 279.284 397.376 278.73 397.376C277.919 397.376 277.194 397.835 276.554 398.752V404H274.97V396.32ZM291.362 404.24C290.434 404.24 289.688 404.005 289.122 403.536C288.568 403.056 288.29 402.411 288.29 401.6C288.29 400.747 288.557 400.091 289.09 399.632C289.634 399.163 290.402 398.928 291.394 398.928C292.45 398.928 293.346 399.141 294.082 399.568V399.168C294.082 398.56 293.896 398.112 293.522 397.824C293.16 397.525 292.584 397.376 291.794 397.376C291.325 397.376 290.866 397.424 290.418 397.52C289.981 397.605 289.586 397.728 289.234 397.888V396.576C289.554 396.427 289.97 396.309 290.482 396.224C290.994 396.128 291.49 396.08 291.97 396.08C293.24 396.08 294.178 396.363 294.786 396.928C295.405 397.483 295.714 398.256 295.714 399.248V404H294.194V403.136C293.864 403.499 293.469 403.776 293.01 403.968C292.562 404.149 292.013 404.24 291.362 404.24ZM291.762 403.008C292.274 403.008 292.738 402.907 293.154 402.704C293.57 402.501 293.88 402.219 294.082 401.856V400.816C293.389 400.368 292.616 400.144 291.762 400.144C291.144 400.144 290.68 400.267 290.37 400.512C290.072 400.747 289.922 401.109 289.922 401.6C289.922 402.539 290.536 403.008 291.762 403.008ZM301.432 404.24C300.664 404.24 299.97 404.075 299.352 403.744C298.744 403.403 298.264 402.928 297.912 402.32C297.57 401.701 297.4 400.987 297.4 400.176C297.4 399.376 297.57 398.667 297.912 398.048C298.264 397.429 298.744 396.949 299.352 396.608C299.97 396.256 300.664 396.08 301.432 396.08C302.818 396.08 303.869 396.501 304.584 397.344V392.176H306.2V404H304.632V402.88C304.205 403.349 303.736 403.696 303.224 403.92C302.722 404.133 302.125 404.24 301.432 404.24ZM301.8 402.96C302.461 402.96 303.037 402.789 303.528 402.448C304.029 402.096 304.381 401.627 304.584 401.04V399.312C304.402 398.725 304.056 398.256 303.544 397.904C303.042 397.552 302.461 397.376 301.8 397.376C301.277 397.376 300.802 397.493 300.376 397.728C299.96 397.963 299.629 398.293 299.384 398.72C299.149 399.147 299.032 399.632 299.032 400.176C299.032 400.72 299.149 401.205 299.384 401.632C299.629 402.059 299.96 402.389 300.376 402.624C300.802 402.848 301.277 402.96 301.8 402.96ZM312.506 404.24C311.088 404.24 309.973 403.888 309.162 403.184C308.362 402.469 307.962 401.467 307.962 400.176C307.962 398.917 308.32 397.92 309.034 397.184C309.76 396.448 310.789 396.08 312.122 396.08C313.008 396.08 313.76 396.251 314.378 396.592C314.997 396.923 315.461 397.387 315.77 397.984C316.09 398.571 316.25 399.243 316.25 400V400.8H309.498C309.552 401.525 309.856 402.069 310.41 402.432C310.976 402.784 311.738 402.96 312.698 402.96C313.189 402.96 313.685 402.917 314.186 402.832C314.688 402.736 315.13 402.613 315.514 402.464V403.76C315.173 403.899 314.72 404.011 314.154 404.096C313.6 404.192 313.05 404.24 312.506 404.24ZM314.73 399.664C314.709 398.939 314.469 398.379 314.01 397.984C313.562 397.579 312.922 397.376 312.09 397.376C311.28 397.376 310.65 397.584 310.202 398C309.754 398.416 309.52 398.971 309.498 399.664H314.73ZM323.938 392.176H325.554V404H323.938V392.176ZM330.394 404.24C329.466 404.24 328.719 404.005 328.154 403.536C327.599 403.056 327.322 402.411 327.322 401.6C327.322 400.747 327.588 400.091 328.122 399.632C328.666 399.163 329.434 398.928 330.426 398.928C331.482 398.928 332.378 399.141 333.114 399.568V399.168C333.114 398.56 332.927 398.112 332.554 397.824C332.191 397.525 331.615 397.376 330.826 397.376C330.356 397.376 329.898 397.424 329.45 397.52C329.012 397.605 328.618 397.728 328.266 397.888V396.576C328.586 396.427 329.002 396.309 329.514 396.224C330.026 396.128 330.522 396.08 331.002 396.08C332.271 396.08 333.21 396.363 333.818 396.928C334.436 397.483 334.746 398.256 334.746 399.248V404H333.226V403.136C332.895 403.499 332.5 403.776 332.042 403.968C331.594 404.149 331.044 404.24 330.394 404.24ZM330.794 403.008C331.306 403.008 331.77 402.907 332.186 402.704C332.602 402.501 332.911 402.219 333.114 401.856V400.816C332.42 400.368 331.647 400.144 330.794 400.144C330.175 400.144 329.711 400.267 329.402 400.512C329.103 400.747 328.954 401.109 328.954 401.6C328.954 402.539 329.567 403.008 330.794 403.008ZM339.305 404.24C338.526 404.24 337.923 404.016 337.497 403.568C337.081 403.12 336.873 402.485 336.873 401.664V397.568H335.705V396.32H336.873V394.016H338.505V396.32H340.393V397.568H338.505V401.552C338.505 402.064 338.601 402.427 338.793 402.64C338.995 402.853 339.358 402.96 339.881 402.96C340.19 402.96 340.499 402.891 340.809 402.752V404.032C340.403 404.171 339.902 404.24 339.305 404.24ZM346.553 404.24C345.134 404.24 344.02 403.888 343.209 403.184C342.409 402.469 342.009 401.467 342.009 400.176C342.009 398.917 342.366 397.92 343.081 397.184C343.806 396.448 344.836 396.08 346.169 396.08C347.054 396.08 347.806 396.251 348.425 396.592C349.044 396.923 349.508 397.387 349.817 397.984C350.137 398.571 350.297 399.243 350.297 400V400.8H343.545C343.598 401.525 343.902 402.069 344.457 402.432C345.022 402.784 345.785 402.96 346.745 402.96C347.236 402.96 347.732 402.917 348.233 402.832C348.734 402.736 349.177 402.613 349.561 402.464V403.76C349.22 403.899 348.766 404.011 348.201 404.096C347.646 404.192 347.097 404.24 346.553 404.24ZM348.777 399.664C348.756 398.939 348.516 398.379 348.057 397.984C347.609 397.579 346.969 397.376 346.137 397.376C345.326 397.376 344.697 397.584 344.249 398C343.801 398.416 343.566 398.971 343.545 399.664H348.777ZM352.063 396.32H353.631V397.696C353.951 397.227 354.399 396.88 354.975 396.656C355.562 396.432 356.239 396.32 357.007 396.32V397.584C356.186 397.584 355.482 397.717 354.895 397.984C354.309 398.251 353.903 398.672 353.679 399.248V404H352.063V396.32ZM367.336 404.24C366.557 404.24 365.955 404.016 365.528 403.568C365.112 403.12 364.904 402.485 364.904 401.664V397.568H363.736V396.32H364.904V394.016H366.536V396.32H368.424V397.568H366.536V401.552C366.536 402.064 366.632 402.427 366.824 402.64C367.027 402.853 367.389 402.96 367.912 402.96C368.221 402.96 368.531 402.891 368.84 402.752V404.032C368.435 404.171 367.933 404.24 367.336 404.24ZM370.36 392.176H371.976V397.376C372.712 396.512 373.694 396.08 374.92 396.08C375.944 396.08 376.707 396.352 377.208 396.896C377.71 397.44 377.96 398.171 377.96 399.088V404H376.344V399.248C376.344 398 375.747 397.376 374.552 397.376C374.04 397.376 373.56 397.499 373.112 397.744C372.675 397.979 372.296 398.341 371.976 398.832V404H370.36V392.176ZM382.472 404.24C381.544 404.24 380.797 404.005 380.232 403.536C379.677 403.056 379.4 402.411 379.4 401.6C379.4 400.747 379.666 400.091 380.2 399.632C380.744 399.163 381.512 398.928 382.504 398.928C383.56 398.928 384.456 399.141 385.192 399.568V399.168C385.192 398.56 385.005 398.112 384.632 397.824C384.269 397.525 383.693 397.376 382.904 397.376C382.434 397.376 381.976 397.424 381.528 397.52C381.09 397.605 380.696 397.728 380.344 397.888V396.576C380.664 396.427 381.08 396.309 381.592 396.224C382.104 396.128 382.6 396.08 383.08 396.08C384.349 396.08 385.288 396.363 385.896 396.928C386.514 397.483 386.824 398.256 386.824 399.248V404H385.304V403.136C384.973 403.499 384.578 403.776 384.12 403.968C383.672 404.149 383.122 404.24 382.472 404.24ZM382.872 403.008C383.384 403.008 383.848 402.907 384.264 402.704C384.68 402.501 384.989 402.219 385.192 401.856V400.816C384.498 400.368 383.725 400.144 382.872 400.144C382.253 400.144 381.789 400.267 381.48 400.512C381.181 400.747 381.032 401.109 381.032 401.6C381.032 402.539 381.645 403.008 382.872 403.008ZM388.829 396.32H390.397V397.424C390.76 396.965 391.202 396.629 391.725 396.416C392.258 396.192 392.813 396.08 393.389 396.08C394.413 396.08 395.176 396.352 395.677 396.896C396.178 397.44 396.429 398.171 396.429 399.088V404H394.813V399.248C394.813 398 394.216 397.376 393.021 397.376C392.509 397.376 392.029 397.499 391.581 397.744C391.144 397.979 390.765 398.341 390.445 398.832V404H388.829V396.32ZM407.305 404.24C406.526 404.24 405.923 404.016 405.497 403.568C405.081 403.12 404.873 402.485 404.873 401.664V397.568H403.705V396.32H404.873V394.016H406.505V396.32H408.393V397.568H406.505V401.552C406.505 402.064 406.601 402.427 406.793 402.64C406.995 402.853 407.358 402.96 407.881 402.96C408.19 402.96 408.499 402.891 408.809 402.752V404.032C408.403 404.171 407.902 404.24 407.305 404.24ZM410.329 392.176H411.945V397.376C412.681 396.512 413.662 396.08 414.889 396.08C415.913 396.08 416.676 396.352 417.177 396.896C417.678 397.44 417.929 398.171 417.929 399.088V404H416.313V399.248C416.313 398 415.716 397.376 414.521 397.376C414.009 397.376 413.529 397.499 413.081 397.744C412.644 397.979 412.265 398.341 411.945 398.832V404H410.329V392.176ZM424.147 404.24C422.728 404.24 421.613 403.888 420.803 403.184C420.003 402.469 419.603 401.467 419.603 400.176C419.603 398.917 419.96 397.92 420.675 397.184C421.4 396.448 422.429 396.08 423.763 396.08C424.648 396.08 425.4 396.251 426.019 396.592C426.637 396.923 427.101 397.387 427.411 397.984C427.731 398.571 427.891 399.243 427.891 400V400.8H421.139C421.192 401.525 421.496 402.069 422.051 402.432C422.616 402.784 423.379 402.96 424.339 402.96C424.829 402.96 425.325 402.917 425.827 402.832C426.328 402.736 426.771 402.613 427.155 402.464V403.76C426.813 403.899 426.36 404.011 425.795 404.096C425.24 404.192 424.691 404.24 424.147 404.24ZM426.371 399.664C426.349 398.939 426.109 398.379 425.651 397.984C425.203 397.579 424.563 397.376 423.731 397.376C422.92 397.376 422.291 397.584 421.843 398C421.395 398.416 421.16 398.971 421.139 399.664H426.371ZM84.0781 426.24C83.2995 426.24 82.6968 426.016 82.2701 425.568C81.8541 425.12 81.6461 424.485 81.6461 423.664V419.568H80.4781V418.32H81.6461V416.016H83.2781V418.32H85.1661V419.568H83.2781V423.552C83.2781 424.064 83.3741 424.427 83.5661 424.64C83.7688 424.853 84.1315 424.96 84.6541 424.96C84.9635 424.96 85.2728 424.891 85.5821 424.752V426.032C85.1768 426.171 84.6755 426.24 84.0781 426.24ZM87.1025 414.176H88.7185V419.376C89.4545 418.512 90.4358 418.08 91.6625 418.08C92.6865 418.08 93.4492 418.352 93.9505 418.896C94.4518 419.44 94.7025 420.171 94.7025 421.088V426H93.0865V421.248C93.0865 420 92.4892 419.376 91.2945 419.376C90.7825 419.376 90.3025 419.499 89.8545 419.744C89.4172 419.979 89.0385 420.341 88.7185 420.832V426H87.1025V414.176ZM97.6403 416.816C97.3736 416.816 97.1496 416.725 96.9683 416.544C96.7869 416.363 96.6963 416.139 96.6963 415.872C96.6963 415.605 96.7869 415.381 96.9683 415.2C97.1496 415.019 97.3736 414.928 97.6403 414.928C97.9176 414.928 98.1469 415.019 98.3283 415.2C98.5203 415.381 98.6163 415.605 98.6163 415.872C98.6163 416.139 98.5203 416.363 98.3283 416.544C98.1469 416.725 97.9176 416.816 97.6403 416.816ZM96.8243 418.32H98.4723V426H96.8243V418.32ZM100.696 418.32H102.264V419.696C102.584 419.227 103.032 418.88 103.608 418.656C104.195 418.432 104.872 418.32 105.64 418.32V419.584C104.819 419.584 104.115 419.717 103.528 419.984C102.942 420.251 102.536 420.672 102.312 421.248V426H100.696V418.32ZM110.565 426.24C109.797 426.24 109.103 426.075 108.485 425.744C107.877 425.403 107.397 424.928 107.045 424.32C106.703 423.701 106.533 422.987 106.533 422.176C106.533 421.376 106.703 420.667 107.045 420.048C107.397 419.429 107.877 418.949 108.485 418.608C109.103 418.256 109.797 418.08 110.565 418.08C111.951 418.08 113.002 418.501 113.717 419.344V414.176H115.333V426H113.765V424.88C113.338 425.349 112.869 425.696 112.357 425.92C111.855 426.133 111.258 426.24 110.565 426.24ZM110.933 424.96C111.594 424.96 112.17 424.789 112.661 424.448C113.162 424.096 113.514 423.627 113.717 423.04V421.312C113.535 420.725 113.189 420.256 112.677 419.904C112.175 419.552 111.594 419.376 110.933 419.376C110.41 419.376 109.935 419.493 109.509 419.728C109.093 419.963 108.762 420.293 108.517 420.72C108.282 421.147 108.164 421.632 108.164 422.176C108.164 422.72 108.282 423.205 108.517 423.632C108.762 424.059 109.093 424.389 109.509 424.624C109.935 424.848 110.41 424.96 110.933 424.96ZM127.049 426.24C126.281 426.24 125.588 426.075 124.969 425.744C124.361 425.403 123.881 424.928 123.529 424.32C123.188 423.701 123.017 422.987 123.017 422.176C123.017 421.376 123.188 420.667 123.529 420.048C123.881 419.429 124.361 418.949 124.969 418.608C125.588 418.256 126.281 418.08 127.049 418.08C128.436 418.08 129.486 418.501 130.201 419.344V414.176H131.817V426H130.249V424.88C129.822 425.349 129.353 425.696 128.841 425.92C128.34 426.133 127.742 426.24 127.049 426.24ZM127.417 424.96C128.078 424.96 128.654 424.789 129.145 424.448C129.646 424.096 129.998 423.627 130.201 423.04V421.312C130.02 420.725 129.673 420.256 129.161 419.904C128.66 419.552 128.078 419.376 127.417 419.376C126.894 419.376 126.42 419.493 125.993 419.728C125.577 419.963 125.246 420.293 125.001 420.72C124.766 421.147 124.649 421.632 124.649 422.176C124.649 422.72 124.766 423.205 125.001 423.632C125.246 424.059 125.577 424.389 125.993 424.624C126.42 424.848 126.894 424.96 127.417 424.96ZM136.417 426.24C135.489 426.24 134.742 426.005 134.177 425.536C133.622 425.056 133.345 424.411 133.345 423.6C133.345 422.747 133.612 422.091 134.145 421.632C134.689 421.163 135.457 420.928 136.449 420.928C137.505 420.928 138.401 421.141 139.137 421.568V421.168C139.137 420.56 138.95 420.112 138.577 419.824C138.214 419.525 137.638 419.376 136.849 419.376C136.38 419.376 135.921 419.424 135.473 419.52C135.036 419.605 134.641 419.728 134.289 419.888V418.576C134.609 418.427 135.025 418.309 135.537 418.224C136.049 418.128 136.545 418.08 137.025 418.08C138.294 418.08 139.233 418.363 139.841 418.928C140.46 419.483 140.769 420.256 140.769 421.248V426H139.249V425.136C138.918 425.499 138.524 425.776 138.065 425.968C137.617 426.149 137.068 426.24 136.417 426.24ZM136.817 425.008C137.329 425.008 137.793 424.907 138.209 424.704C138.625 424.501 138.934 424.219 139.137 423.856V422.816C138.444 422.368 137.67 422.144 136.817 422.144C136.198 422.144 135.734 422.267 135.425 422.512C135.126 422.747 134.977 423.109 134.977 423.6C134.977 424.539 135.59 425.008 136.817 425.008ZM143.688 429.168C143.112 429.168 142.632 429.109 142.248 428.992V427.728C142.525 427.835 142.866 427.888 143.272 427.888C143.645 427.888 143.938 427.792 144.152 427.6C144.365 427.419 144.557 427.12 144.728 426.704L145.096 425.808L141.736 418.32H143.4L145.96 424.224L148.344 418.32H150.008L146.552 426.864C146.232 427.664 145.848 428.245 145.4 428.608C144.962 428.981 144.392 429.168 143.688 429.168ZM161.416 426.24C160.552 426.24 159.789 426.08 159.128 425.76C158.477 425.429 157.965 424.96 157.592 424.352C157.229 423.733 157.048 423.008 157.048 422.176C157.048 421.355 157.229 420.635 157.592 420.016C157.955 419.397 158.467 418.923 159.128 418.592C159.789 418.251 160.552 418.08 161.416 418.08C162.28 418.08 163.043 418.251 163.704 418.592C164.365 418.923 164.877 419.397 165.24 420.016C165.613 420.635 165.8 421.355 165.8 422.176C165.8 423.008 165.613 423.733 165.24 424.352C164.877 424.96 164.365 425.429 163.704 425.76C163.043 426.08 162.28 426.24 161.416 426.24ZM161.416 424.96C162.248 424.96 162.909 424.704 163.4 424.192C163.891 423.68 164.136 423.008 164.136 422.176C164.136 421.312 163.891 420.629 163.4 420.128C162.909 419.627 162.248 419.376 161.416 419.376C160.584 419.376 159.923 419.627 159.432 420.128C158.941 420.629 158.696 421.312 158.696 422.176C158.696 423.008 158.941 423.68 159.432 424.192C159.923 424.704 160.584 424.96 161.416 424.96ZM167.521 419.568H166.353V418.32H167.521V416.816C167.521 415.931 167.772 415.259 168.273 414.8C168.774 414.331 169.446 414.096 170.289 414.096C170.726 414.096 171.137 414.16 171.521 414.288V415.632C171.222 415.493 170.913 415.424 170.593 415.424C170.092 415.424 169.724 415.547 169.489 415.792C169.254 416.027 169.137 416.4 169.137 416.912V418.32H171.057V419.568H169.137V426H167.521V419.568ZM181.308 426.24C180.38 426.24 179.633 426.005 179.068 425.536C178.513 425.056 178.236 424.411 178.236 423.6C178.236 422.747 178.502 422.091 179.036 421.632C179.58 421.163 180.348 420.928 181.34 420.928C182.396 420.928 183.292 421.141 184.028 421.568V421.168C184.028 420.56 183.841 420.112 183.468 419.824C183.105 419.525 182.529 419.376 181.74 419.376C181.27 419.376 180.812 419.424 180.364 419.52C179.926 419.605 179.532 419.728 179.18 419.888V418.576C179.5 418.427 179.916 418.309 180.428 418.224C180.94 418.128 181.436 418.08 181.916 418.08C183.185 418.08 184.124 418.363 184.732 418.928C185.35 419.483 185.66 420.256 185.66 421.248V426H184.14V425.136C183.809 425.499 183.414 425.776 182.956 425.968C182.508 426.149 181.958 426.24 181.308 426.24ZM181.708 425.008C182.22 425.008 182.684 424.907 183.1 424.704C183.516 424.501 183.825 424.219 184.028 423.856V422.816C183.334 422.368 182.561 422.144 181.708 422.144C181.089 422.144 180.625 422.267 180.316 422.512C180.017 422.747 179.868 423.109 179.868 423.6C179.868 424.539 180.481 425.008 181.708 425.008ZM187.665 418.32H189.233V419.424C189.596 418.965 190.038 418.629 190.561 418.416C191.094 418.192 191.649 418.08 192.225 418.08C193.249 418.08 194.012 418.352 194.513 418.896C195.014 419.44 195.265 420.171 195.265 421.088V426H193.649V421.248C193.649 420 193.052 419.376 191.857 419.376C191.345 419.376 190.865 419.499 190.417 419.744C189.98 419.979 189.601 420.341 189.281 420.832V426H187.665V418.32ZM198.172 429.168C197.596 429.168 197.116 429.109 196.732 428.992V427.728C197.009 427.835 197.351 427.888 197.756 427.888C198.129 427.888 198.423 427.792 198.636 427.6C198.849 427.419 199.041 427.12 199.212 426.704L199.58 425.808L196.22 418.32H197.884L200.444 424.224L202.828 418.32H204.492L201.036 426.864C200.716 427.664 200.332 428.245 199.884 428.608C199.447 428.981 198.876 429.168 198.172 429.168ZM211.853 418.32H213.389V419.424C213.751 418.976 214.162 418.64 214.621 418.416C215.079 418.192 215.554 418.08 216.045 418.08C216.663 418.08 217.154 418.187 217.517 418.4C217.879 418.603 218.146 418.917 218.317 419.344C218.658 418.928 219.074 418.613 219.565 418.4C220.066 418.187 220.567 418.08 221.069 418.08C222.007 418.08 222.685 418.32 223.101 418.8C223.517 419.269 223.725 419.968 223.725 420.896V426H222.157V421.104C222.157 420.475 222.039 420.032 221.805 419.776C221.57 419.509 221.17 419.376 220.605 419.376C219.794 419.376 219.133 419.728 218.621 420.432C218.642 420.592 218.653 420.853 218.653 421.216V426H217.085V421.104C217.085 420.475 216.978 420.032 216.765 419.776C216.551 419.509 216.167 419.376 215.613 419.376C214.802 419.376 214.077 419.835 213.437 420.752V426H211.853V418.32ZM229.541 426.24C228.677 426.24 227.914 426.08 227.253 425.76C226.602 425.429 226.09 424.96 225.717 424.352C225.354 423.733 225.173 423.008 225.173 422.176C225.173 421.355 225.354 420.635 225.717 420.016C226.08 419.397 226.592 418.923 227.253 418.592C227.914 418.251 228.677 418.08 229.541 418.08C230.405 418.08 231.168 418.251 231.829 418.592C232.49 418.923 233.002 419.397 233.365 420.016C233.738 420.635 233.925 421.355 233.925 422.176C233.925 423.008 233.738 423.733 233.365 424.352C233.002 424.96 232.49 425.429 231.829 425.76C231.168 426.08 230.405 426.24 229.541 426.24ZM229.541 424.96C230.373 424.96 231.034 424.704 231.525 424.192C232.016 423.68 232.261 423.008 232.261 422.176C232.261 421.312 232.016 420.629 231.525 420.128C231.034 419.627 230.373 419.376 229.541 419.376C228.709 419.376 228.048 419.627 227.557 420.128C227.066 420.629 226.821 421.312 226.821 422.176C226.821 423.008 227.066 423.68 227.557 424.192C228.048 424.704 228.709 424.96 229.541 424.96ZM235.681 418.32H237.249V419.424C237.611 418.965 238.054 418.629 238.577 418.416C239.11 418.192 239.665 418.08 240.241 418.08C241.265 418.08 242.027 418.352 242.529 418.896C243.03 419.44 243.281 420.171 243.281 421.088V426H241.665V421.248C241.665 420 241.067 419.376 239.873 419.376C239.361 419.376 238.881 419.499 238.433 419.744C237.995 419.979 237.617 420.341 237.297 420.832V426H235.681V418.32ZM248.234 426.24C247.456 426.24 246.853 426.016 246.426 425.568C246.01 425.12 245.802 424.485 245.802 423.664V419.568H244.634V418.32H245.802V416.016H247.434V418.32H249.322V419.568H247.434V423.552C247.434 424.064 247.53 424.427 247.722 424.64C247.925 424.853 248.288 424.96 248.81 424.96C249.12 424.96 249.429 424.891 249.738 424.752V426.032C249.333 426.171 248.832 426.24 248.234 426.24ZM251.259 414.176H252.875V419.376C253.611 418.512 254.592 418.08 255.819 418.08C256.843 418.08 257.605 418.352 258.107 418.896C258.608 419.44 258.859 420.171 258.859 421.088V426H257.243V421.248C257.243 420 256.645 419.376 255.451 419.376C254.939 419.376 254.459 419.499 254.011 419.744C253.573 419.979 253.195 420.341 252.875 420.832V426H251.259V414.176ZM261.829 425.152H263.525L262.005 428.368H260.533L261.829 425.152ZM274.172 426.24C273.393 426.24 272.791 426.016 272.364 425.568C271.948 425.12 271.74 424.485 271.74 423.664V419.568H270.572V418.32H271.74V416.016H273.372V418.32H275.26V419.568H273.372V423.552C273.372 424.064 273.468 424.427 273.66 424.64C273.863 424.853 274.225 424.96 274.748 424.96C275.057 424.96 275.367 424.891 275.676 424.752V426.032C275.271 426.171 274.769 426.24 274.172 426.24ZM277.196 414.176H278.812V419.376C279.548 418.512 280.53 418.08 281.756 418.08C282.78 418.08 283.543 418.352 284.044 418.896C284.546 419.44 284.796 420.171 284.796 421.088V426H283.18V421.248C283.18 420 282.583 419.376 281.388 419.376C280.876 419.376 280.396 419.499 279.948 419.744C279.511 419.979 279.132 420.341 278.812 420.832V426H277.196V414.176ZM291.014 426.24C289.595 426.24 288.481 425.888 287.67 425.184C286.87 424.469 286.47 423.467 286.47 422.176C286.47 420.917 286.827 419.92 287.542 419.184C288.267 418.448 289.297 418.08 290.63 418.08C291.515 418.08 292.267 418.251 292.886 418.592C293.505 418.923 293.969 419.387 294.278 419.984C294.598 420.571 294.758 421.243 294.758 422V422.8H288.006C288.059 423.525 288.363 424.069 288.918 424.432C289.483 424.784 290.246 424.96 291.206 424.96C291.697 424.96 292.193 424.917 292.694 424.832C293.195 424.736 293.638 424.613 294.022 424.464V425.76C293.681 425.899 293.227 426.011 292.662 426.096C292.107 426.192 291.558 426.24 291.014 426.24ZM293.238 421.664C293.217 420.939 292.977 420.379 292.518 419.984C292.07 419.579 291.43 419.376 290.598 419.376C289.787 419.376 289.158 419.584 288.71 420C288.262 420.416 288.027 420.971 288.006 421.664H293.238ZM296.524 418.32H298.092V419.424C298.455 418.965 298.898 418.629 299.42 418.416C299.954 418.192 300.508 418.08 301.084 418.08C302.108 418.08 302.871 418.352 303.372 418.896C303.874 419.44 304.124 420.171 304.124 421.088V426H302.508V421.248C302.508 420 301.911 419.376 300.716 419.376C300.204 419.376 299.724 419.499 299.276 419.744C298.839 419.979 298.46 420.341 298.14 420.832V426H296.524V418.32ZM311.72 418.32H313.368L315.096 424.016L316.808 418.32H318.264L319.976 424.016L321.704 418.32H323.368L320.872 426H319.32L317.544 420.272L315.768 426H314.2L311.72 418.32ZM328.873 426.24C327.455 426.24 326.34 425.888 325.529 425.184C324.729 424.469 324.329 423.467 324.329 422.176C324.329 420.917 324.687 419.92 325.401 419.184C326.127 418.448 327.156 418.08 328.489 418.08C329.375 418.08 330.127 418.251 330.745 418.592C331.364 418.923 331.828 419.387 332.137 419.984C332.457 420.571 332.617 421.243 332.617 422V422.8H325.865C325.919 423.525 326.223 424.069 326.777 424.432C327.343 424.784 328.105 424.96 329.065 424.96C329.556 424.96 330.052 424.917 330.553 424.832C331.055 424.736 331.497 424.613 331.881 424.464V425.76C331.54 425.899 331.087 426.011 330.521 426.096C329.967 426.192 329.417 426.24 328.873 426.24ZM331.097 421.664C331.076 420.939 330.836 420.379 330.377 419.984C329.929 419.579 329.289 419.376 328.457 419.376C327.647 419.376 327.017 419.584 326.569 420C326.121 420.416 325.887 420.971 325.865 421.664H331.097ZM339.986 418.32H341.634L343.362 424.016L345.074 418.32H346.53L348.242 424.016L349.97 418.32H351.634L349.138 426H347.586L345.81 420.272L344.034 426H342.466L339.986 418.32ZM354.343 416.816C354.077 416.816 353.853 416.725 353.671 416.544C353.49 416.363 353.399 416.139 353.399 415.872C353.399 415.605 353.49 415.381 353.671 415.2C353.853 415.019 354.077 414.928 354.343 414.928C354.621 414.928 354.85 415.019 355.031 415.2C355.223 415.381 355.319 415.605 355.319 415.872C355.319 416.139 355.223 416.363 355.031 416.544C354.85 416.725 354.621 416.816 354.343 416.816ZM353.527 418.32H355.175V426H353.527V418.32ZM357.399 414.176H359.015V426H357.399V414.176ZM361.103 414.176H362.719V426H361.103V414.176ZM370.728 414.176H372.344V419.376C373.08 418.512 374.061 418.08 375.288 418.08C376.312 418.08 377.074 418.352 377.576 418.896C378.077 419.44 378.328 420.171 378.328 421.088V426H376.712V421.248C376.712 420 376.114 419.376 374.92 419.376C374.408 419.376 373.928 419.499 373.48 419.744C373.042 419.979 372.664 420.341 372.344 420.832V426H370.728V414.176ZM382.839 426.24C381.911 426.24 381.164 426.005 380.599 425.536C380.044 425.056 379.767 424.411 379.767 423.6C379.767 422.747 380.034 422.091 380.567 421.632C381.111 421.163 381.879 420.928 382.871 420.928C383.927 420.928 384.823 421.141 385.559 421.568V421.168C385.559 420.56 385.372 420.112 384.999 419.824C384.636 419.525 384.06 419.376 383.271 419.376C382.802 419.376 382.343 419.424 381.895 419.52C381.458 419.605 381.063 419.728 380.711 419.888V418.576C381.031 418.427 381.447 418.309 381.959 418.224C382.471 418.128 382.967 418.08 383.447 418.08C384.716 418.08 385.655 418.363 386.263 418.928C386.882 419.483 387.191 420.256 387.191 421.248V426H385.671V425.136C385.34 425.499 384.946 425.776 384.487 425.968C384.039 426.149 383.49 426.24 382.839 426.24ZM383.239 425.008C383.751 425.008 384.215 424.907 384.631 424.704C385.047 424.501 385.356 424.219 385.559 423.856V422.816C384.866 422.368 384.092 422.144 383.239 422.144C382.62 422.144 382.156 422.267 381.847 422.512C381.548 422.747 381.399 423.109 381.399 423.6C381.399 424.539 382.012 425.008 383.239 425.008ZM388.158 418.32H389.87L392.126 423.84L394.382 418.32H396.094L392.83 426H391.422L388.158 418.32ZM401.436 426.24C400.017 426.24 398.903 425.888 398.092 425.184C397.292 424.469 396.892 423.467 396.892 422.176C396.892 420.917 397.249 419.92 397.964 419.184C398.689 418.448 399.719 418.08 401.052 418.08C401.937 418.08 402.689 418.251 403.308 418.592C403.927 418.923 404.391 419.387 404.7 419.984C405.02 420.571 405.18 421.243 405.18 422V422.8H398.428C398.481 423.525 398.785 424.069 399.34 424.432C399.905 424.784 400.668 424.96 401.628 424.96C402.119 424.96 402.615 424.917 403.116 424.832C403.617 424.736 404.06 424.613 404.444 424.464V425.76C404.103 425.899 403.649 426.011 403.084 426.096C402.529 426.192 401.98 426.24 401.436 426.24ZM403.66 421.664C403.639 420.939 403.399 420.379 402.94 419.984C402.492 419.579 401.852 419.376 401.02 419.376C400.209 419.376 399.58 419.584 399.132 420C398.684 420.416 398.449 420.971 398.428 421.664H403.66ZM415.828 426.24C415.049 426.24 414.447 426.016 414.02 425.568C413.604 425.12 413.396 424.485 413.396 423.664V419.568H412.228V418.32H413.396V416.016H415.028V418.32H416.916V419.568H415.028V423.552C415.028 424.064 415.124 424.427 415.316 424.64C415.519 424.853 415.881 424.96 416.404 424.96C416.713 424.96 417.023 424.891 417.332 424.752V426.032C416.927 426.171 416.425 426.24 415.828 426.24ZM422.822 426.24C421.958 426.24 421.196 426.08 420.534 425.76C419.884 425.429 419.372 424.96 418.998 424.352C418.636 423.733 418.454 423.008 418.454 422.176C418.454 421.355 418.636 420.635 418.998 420.016C419.361 419.397 419.873 418.923 420.534 418.592C421.196 418.251 421.958 418.08 422.822 418.08C423.686 418.08 424.449 418.251 425.11 418.592C425.772 418.923 426.284 419.397 426.646 420.016C427.02 420.635 427.206 421.355 427.206 422.176C427.206 423.008 427.02 423.733 426.646 424.352C426.284 424.96 425.772 425.429 425.11 425.76C424.449 426.08 423.686 426.24 422.822 426.24ZM422.822 424.96C423.654 424.96 424.316 424.704 424.806 424.192C425.297 423.68 425.542 423.008 425.542 422.176C425.542 421.312 425.297 420.629 424.806 420.128C424.316 419.627 423.654 419.376 422.822 419.376C421.99 419.376 421.329 419.627 420.838 420.128C420.348 420.629 420.102 421.312 420.102 422.176C420.102 423.008 420.348 423.68 420.838 424.192C421.329 424.704 421.99 424.96 422.822 424.96ZM184.295 441.568H183.127V440.32H184.295V438.816C184.295 437.931 184.545 437.259 185.047 436.8C185.548 436.331 186.22 436.096 187.063 436.096C187.5 436.096 187.911 436.16 188.295 436.288V437.632C187.996 437.493 187.687 437.424 187.367 437.424C186.865 437.424 186.497 437.547 186.263 437.792C186.028 438.027 185.911 438.4 185.911 438.912V440.32H187.831V441.568H185.911V448H184.295V441.568ZM189.329 440.32H190.897V441.696C191.217 441.227 191.665 440.88 192.241 440.656C192.828 440.432 193.505 440.32 194.273 440.32V441.584C193.452 441.584 192.748 441.717 192.161 441.984C191.574 442.251 191.169 442.672 190.945 443.248V448H189.329V440.32ZM199.533 448.24C198.669 448.24 197.907 448.08 197.245 447.76C196.595 447.429 196.083 446.96 195.709 446.352C195.347 445.733 195.165 445.008 195.165 444.176C195.165 443.355 195.347 442.635 195.709 442.016C196.072 441.397 196.584 440.923 197.245 440.592C197.907 440.251 198.669 440.08 199.533 440.08C200.397 440.08 201.16 440.251 201.821 440.592C202.483 440.923 202.995 441.397 203.357 442.016C203.731 442.635 203.917 443.355 203.917 444.176C203.917 445.008 203.731 445.733 203.357 446.352C202.995 446.96 202.483 447.429 201.821 447.76C201.16 448.08 200.397 448.24 199.533 448.24ZM199.533 446.96C200.365 446.96 201.027 446.704 201.517 446.192C202.008 445.68 202.253 445.008 202.253 444.176C202.253 443.312 202.008 442.629 201.517 442.128C201.027 441.627 200.365 441.376 199.533 441.376C198.701 441.376 198.04 441.627 197.549 442.128C197.059 442.629 196.813 443.312 196.813 444.176C196.813 445.008 197.059 445.68 197.549 446.192C198.04 446.704 198.701 446.96 199.533 446.96ZM205.673 440.32H207.209V441.424C207.571 440.976 207.982 440.64 208.441 440.416C208.899 440.192 209.374 440.08 209.865 440.08C210.483 440.08 210.974 440.187 211.337 440.4C211.699 440.603 211.966 440.917 212.137 441.344C212.478 440.928 212.894 440.613 213.385 440.4C213.886 440.187 214.387 440.08 214.889 440.08C215.827 440.08 216.505 440.32 216.921 440.8C217.337 441.269 217.545 441.968 217.545 442.896V448H215.977V443.104C215.977 442.475 215.859 442.032 215.625 441.776C215.39 441.509 214.99 441.376 214.425 441.376C213.614 441.376 212.953 441.728 212.441 442.432C212.462 442.592 212.473 442.853 212.473 443.216V448H210.905V443.104C210.905 442.475 210.798 442.032 210.585 441.776C210.371 441.509 209.987 441.376 209.433 441.376C208.622 441.376 207.897 441.835 207.257 442.752V448H205.673V440.32ZM228.222 448.24C227.294 448.24 226.547 448.005 225.982 447.536C225.427 447.056 225.15 446.411 225.15 445.6C225.15 444.747 225.416 444.091 225.95 443.632C226.494 443.163 227.262 442.928 228.254 442.928C229.31 442.928 230.206 443.141 230.942 443.568V443.168C230.942 442.56 230.755 442.112 230.382 441.824C230.019 441.525 229.443 441.376 228.654 441.376C228.184 441.376 227.726 441.424 227.278 441.52C226.84 441.605 226.446 441.728 226.094 441.888V440.576C226.414 440.427 226.83 440.309 227.342 440.224C227.854 440.128 228.35 440.08 228.83 440.08C230.099 440.08 231.038 440.363 231.646 440.928C232.264 441.483 232.574 442.256 232.574 443.248V448H231.054V447.136C230.723 447.499 230.328 447.776 229.87 447.968C229.422 448.149 228.872 448.24 228.222 448.24ZM228.622 447.008C229.134 447.008 229.598 446.907 230.014 446.704C230.43 446.501 230.739 446.219 230.942 445.856V444.816C230.248 444.368 229.475 444.144 228.622 444.144C228.003 444.144 227.539 444.267 227.23 444.512C226.931 444.747 226.782 445.109 226.782 445.6C226.782 446.539 227.395 447.008 228.622 447.008ZM234.579 440.32H236.147V441.424C236.51 440.965 236.952 440.629 237.475 440.416C238.008 440.192 238.563 440.08 239.139 440.08C240.163 440.08 240.926 440.352 241.427 440.896C241.928 441.44 242.179 442.171 242.179 443.088V448H240.563V443.248C240.563 442 239.966 441.376 238.771 441.376C238.259 441.376 237.779 441.499 237.331 441.744C236.894 441.979 236.515 442.341 236.195 442.832V448H234.579V440.32ZM245.086 451.168C244.51 451.168 244.03 451.109 243.646 450.992V449.728C243.923 449.835 244.265 449.888 244.67 449.888C245.043 449.888 245.337 449.792 245.55 449.6C245.763 449.419 245.955 449.12 246.126 448.704L246.494 447.808L243.134 440.32H244.798L247.358 446.224L249.742 440.32H251.406L247.95 448.864C247.63 449.664 247.246 450.245 246.798 450.608C246.361 450.981 245.79 451.168 245.086 451.168ZM258.767 440.32H260.335V441.456C261.124 440.539 262.191 440.08 263.535 440.08C264.303 440.08 264.991 440.251 265.599 440.592C266.217 440.933 266.697 441.413 267.039 442.032C267.391 442.64 267.567 443.349 267.567 444.16C267.567 444.96 267.391 445.669 267.039 446.288C266.697 446.907 266.223 447.387 265.615 447.728C265.007 448.069 264.313 448.24 263.535 448.24C262.895 448.24 262.297 448.133 261.743 447.92C261.188 447.707 260.735 447.392 260.383 446.976V451.504H258.767V440.32ZM263.167 446.96C263.689 446.96 264.159 446.848 264.575 446.624C265.001 446.389 265.332 446.059 265.567 445.632C265.812 445.205 265.935 444.715 265.935 444.16C265.935 443.605 265.812 443.12 265.567 442.704C265.332 442.277 265.001 441.952 264.575 441.728C264.159 441.493 263.689 441.376 263.167 441.376C262.516 441.376 261.94 441.547 261.439 441.888C260.948 442.229 260.596 442.699 260.383 443.296V445.024C260.564 445.611 260.911 446.08 261.423 446.432C261.935 446.784 262.516 446.96 263.167 446.96ZM271.675 448.24C270.747 448.24 270 448.005 269.435 447.536C268.88 447.056 268.603 446.411 268.603 445.6C268.603 444.747 268.869 444.091 269.403 443.632C269.947 443.163 270.715 442.928 271.707 442.928C272.763 442.928 273.659 443.141 274.395 443.568V443.168C274.395 442.56 274.208 442.112 273.835 441.824C273.472 441.525 272.896 441.376 272.107 441.376C271.637 441.376 271.179 441.424 270.731 441.52C270.293 441.605 269.899 441.728 269.547 441.888V440.576C269.867 440.427 270.283 440.309 270.795 440.224C271.307 440.128 271.803 440.08 272.283 440.08C273.552 440.08 274.491 440.363 275.099 440.928C275.717 441.483 276.027 442.256 276.027 443.248V448H274.507V447.136C274.176 447.499 273.781 447.776 273.323 447.968C272.875 448.149 272.325 448.24 271.675 448.24ZM272.075 447.008C272.587 447.008 273.051 446.907 273.467 446.704C273.883 446.501 274.192 446.219 274.395 445.856V444.816C273.701 444.368 272.928 444.144 272.075 444.144C271.456 444.144 270.992 444.267 270.683 444.512C270.384 444.747 270.235 445.109 270.235 445.6C270.235 446.539 270.848 447.008 272.075 447.008ZM278.976 438.816C278.71 438.816 278.486 438.725 278.304 438.544C278.123 438.363 278.032 438.139 278.032 437.872C278.032 437.605 278.123 437.381 278.304 437.2C278.486 437.019 278.71 436.928 278.976 436.928C279.254 436.928 279.483 437.019 279.664 437.2C279.856 437.381 279.952 437.605 279.952 437.872C279.952 438.139 279.856 438.363 279.664 438.544C279.483 438.725 279.254 438.816 278.976 438.816ZM278.16 440.32H279.808V448H278.16V440.32ZM285.744 448.24C284.976 448.24 284.283 448.075 283.664 447.744C283.056 447.403 282.576 446.928 282.224 446.32C281.883 445.701 281.712 444.987 281.712 444.176C281.712 443.376 281.883 442.667 282.224 442.048C282.576 441.429 283.056 440.949 283.664 440.608C284.283 440.256 284.976 440.08 285.744 440.08C287.131 440.08 288.182 440.501 288.896 441.344V436.176H290.512V448H288.944V446.88C288.518 447.349 288.048 447.696 287.536 447.92C287.035 448.133 286.438 448.24 285.744 448.24ZM286.112 446.96C286.774 446.96 287.35 446.789 287.84 446.448C288.342 446.096 288.694 445.627 288.896 445.04V443.312C288.715 442.725 288.368 442.256 287.856 441.904C287.355 441.552 286.774 441.376 286.112 441.376C285.59 441.376 285.115 441.493 284.688 441.728C284.272 441.963 283.942 442.293 283.696 442.72C283.462 443.147 283.344 443.632 283.344 444.176C283.344 444.72 283.462 445.205 283.696 445.632C283.942 446.059 284.272 446.389 284.688 446.624C285.115 446.848 285.59 446.96 286.112 446.96ZM302.533 451.68C302.01 451.68 301.498 451.637 300.997 451.552C300.506 451.467 300.09 451.344 299.749 451.184V449.856C300.549 450.219 301.477 450.4 302.533 450.4C303.525 450.4 304.245 450.181 304.693 449.744C305.151 449.317 305.381 448.667 305.381 447.792V446.976C304.677 447.819 303.642 448.24 302.277 448.24C301.498 448.24 300.799 448.069 300.181 447.728C299.562 447.387 299.077 446.907 298.725 446.288C298.373 445.669 298.197 444.96 298.197 444.16C298.197 443.349 298.367 442.64 298.709 442.032C299.061 441.413 299.541 440.933 300.149 440.592C300.767 440.251 301.461 440.08 302.229 440.08C302.943 440.08 303.546 440.187 304.037 440.4C304.538 440.603 305.002 440.944 305.429 441.424V440.32H306.997V447.616C306.997 448.928 306.629 449.931 305.893 450.624C305.167 451.328 304.047 451.68 302.533 451.68ZM302.597 446.96C303.258 446.96 303.839 446.784 304.341 446.432C304.853 446.08 305.199 445.611 305.381 445.024V443.296C305.178 442.699 304.826 442.229 304.325 441.888C303.834 441.547 303.258 441.376 302.597 441.376C302.074 441.376 301.599 441.493 301.173 441.728C300.757 441.952 300.426 442.277 300.181 442.704C299.946 443.131 299.829 443.616 299.829 444.16C299.829 444.715 299.946 445.205 300.181 445.632C300.426 446.048 300.757 446.373 301.173 446.608C301.599 446.843 302.074 446.96 302.597 446.96ZM309.079 440.32H310.647V441.696C310.967 441.227 311.415 440.88 311.991 440.656C312.578 440.432 313.255 440.32 314.023 440.32V441.584C313.202 441.584 312.498 441.717 311.911 441.984C311.324 442.251 310.919 442.672 310.695 443.248V448H309.079V440.32ZM319.283 448.24C318.419 448.24 317.657 448.08 316.995 447.76C316.345 447.429 315.833 446.96 315.459 446.352C315.097 445.733 314.915 445.008 314.915 444.176C314.915 443.355 315.097 442.635 315.459 442.016C315.822 441.397 316.334 440.923 316.995 440.592C317.657 440.251 318.419 440.08 319.283 440.08C320.147 440.08 320.91 440.251 321.571 440.592C322.233 440.923 322.745 441.397 323.107 442.016C323.481 442.635 323.667 443.355 323.667 444.176C323.667 445.008 323.481 445.733 323.107 446.352C322.745 446.96 322.233 447.429 321.571 447.76C320.91 448.08 320.147 448.24 319.283 448.24ZM319.283 446.96C320.115 446.96 320.777 446.704 321.267 446.192C321.758 445.68 322.003 445.008 322.003 444.176C322.003 443.312 321.758 442.629 321.267 442.128C320.777 441.627 320.115 441.376 319.283 441.376C318.451 441.376 317.79 441.627 317.299 442.128C316.809 442.629 316.563 443.312 316.563 444.176C316.563 445.008 316.809 445.68 317.299 446.192C317.79 446.704 318.451 446.96 319.283 446.96ZM328.479 448.24C327.444 448.24 326.66 447.963 326.127 447.408C325.604 446.853 325.343 446.112 325.343 445.184V440.32H326.959V445.12C326.959 446.347 327.572 446.96 328.799 446.96C329.876 446.96 330.719 446.475 331.327 445.504V440.32H332.943V448H331.375V446.912C331.012 447.371 330.58 447.707 330.079 447.92C329.588 448.133 329.055 448.24 328.479 448.24ZM335.017 440.32H336.585V441.456C337.374 440.539 338.441 440.08 339.785 440.08C340.553 440.08 341.241 440.251 341.849 440.592C342.467 440.933 342.947 441.413 343.289 442.032C343.641 442.64 343.817 443.349 343.817 444.16C343.817 444.96 343.641 445.669 343.289 446.288C342.947 446.907 342.473 447.387 341.865 447.728C341.257 448.069 340.563 448.24 339.785 448.24C339.145 448.24 338.547 448.133 337.993 447.92C337.438 447.707 336.985 447.392 336.633 446.976V451.504H335.017V440.32ZM339.417 446.96C339.939 446.96 340.409 446.848 340.825 446.624C341.251 446.389 341.582 446.059 341.817 445.632C342.062 445.205 342.185 444.715 342.185 444.16C342.185 443.605 342.062 443.12 341.817 442.704C341.582 442.277 341.251 441.952 340.825 441.728C340.409 441.493 339.939 441.376 339.417 441.376C338.766 441.376 338.19 441.547 337.689 441.888C337.198 442.229 336.846 442.699 336.633 443.296V445.024C336.814 445.611 337.161 446.08 337.673 446.432C338.185 446.784 338.766 446.96 339.417 446.96ZM348.177 448.24C347.643 448.24 347.078 448.171 346.481 448.032C345.883 447.904 345.414 447.728 345.073 447.504V446.128C345.489 446.373 345.969 446.576 346.513 446.736C347.057 446.885 347.585 446.96 348.097 446.96C348.673 446.96 349.094 446.891 349.361 446.752C349.627 446.613 349.761 446.389 349.761 446.08C349.761 445.845 349.697 445.659 349.569 445.52C349.451 445.371 349.243 445.237 348.945 445.12C348.657 445.003 348.219 444.864 347.633 444.704C347.003 444.523 346.502 444.341 346.129 444.16C345.766 443.968 345.489 443.728 345.297 443.44C345.115 443.152 345.025 442.779 345.025 442.32C345.025 441.584 345.313 441.029 345.889 440.656C346.475 440.272 347.259 440.08 348.241 440.08C348.753 440.08 349.254 440.128 349.745 440.224C350.235 440.32 350.63 440.453 350.929 440.624V441.968C350.619 441.787 350.235 441.643 349.777 441.536C349.329 441.429 348.87 441.376 348.401 441.376C347.835 441.376 347.403 441.445 347.105 441.584C346.806 441.723 346.657 441.968 346.657 442.32C346.657 442.544 346.721 442.725 346.849 442.864C346.977 443.003 347.179 443.125 347.457 443.232C347.745 443.328 348.198 443.456 348.817 443.616C349.787 443.883 350.459 444.197 350.833 444.56C351.217 444.923 351.409 445.424 351.409 446.064C351.409 446.725 351.137 447.253 350.593 447.648C350.049 448.043 349.243 448.24 348.177 448.24ZM362.055 448.24C361.276 448.24 360.673 448.016 360.247 447.568C359.831 447.12 359.623 446.485 359.623 445.664V441.568H358.455V440.32H359.623V438.016H361.255V440.32H363.143V441.568H361.255V445.552C361.255 446.064 361.351 446.427 361.543 446.64C361.745 446.853 362.108 446.96 362.631 446.96C362.94 446.96 363.249 446.891 363.559 446.752V448.032C363.153 448.171 362.652 448.24 362.055 448.24ZM365.079 436.176H366.695V441.376C367.431 440.512 368.412 440.08 369.639 440.08C370.663 440.08 371.426 440.352 371.927 440.896C372.428 441.44 372.679 442.171 372.679 443.088V448H371.063V443.248C371.063 442 370.466 441.376 369.271 441.376C368.759 441.376 368.279 441.499 367.831 441.744C367.394 441.979 367.015 442.341 366.695 442.832V448H365.079V436.176ZM377.19 448.24C376.262 448.24 375.516 448.005 374.95 447.536C374.396 447.056 374.118 446.411 374.118 445.6C374.118 444.747 374.385 444.091 374.918 443.632C375.462 443.163 376.23 442.928 377.222 442.928C378.278 442.928 379.174 443.141 379.91 443.568V443.168C379.91 442.56 379.724 442.112 379.35 441.824C378.988 441.525 378.412 441.376 377.622 441.376C377.153 441.376 376.694 441.424 376.246 441.52C375.809 441.605 375.414 441.728 375.062 441.888V440.576C375.382 440.427 375.798 440.309 376.31 440.224C376.822 440.128 377.318 440.08 377.798 440.08C379.068 440.08 380.006 440.363 380.614 440.928C381.233 441.483 381.542 442.256 381.542 443.248V448H380.022V447.136C379.692 447.499 379.297 447.776 378.838 447.968C378.39 448.149 377.841 448.24 377.19 448.24ZM377.59 447.008C378.102 447.008 378.566 446.907 378.982 446.704C379.398 446.501 379.708 446.219 379.91 445.856V444.816C379.217 444.368 378.444 444.144 377.59 444.144C376.972 444.144 376.508 444.267 376.198 444.512C375.9 444.747 375.75 445.109 375.75 445.6C375.75 446.539 376.364 447.008 377.59 447.008ZM386.102 448.24C385.323 448.24 384.72 448.016 384.294 447.568C383.878 447.12 383.67 446.485 383.67 445.664V441.568H382.502V440.32H383.67V438.016H385.302V440.32H387.19V441.568H385.302V445.552C385.302 446.064 385.398 446.427 385.59 446.64C385.792 446.853 386.155 446.96 386.678 446.96C386.987 446.96 387.296 446.891 387.606 446.752V448.032C387.2 448.171 386.699 448.24 386.102 448.24ZM396.68 451.168C396.104 451.168 395.624 451.109 395.24 450.992V449.728C395.517 449.835 395.858 449.888 396.264 449.888C396.637 449.888 396.93 449.792 397.144 449.6C397.357 449.419 397.549 449.12 397.72 448.704L398.088 447.808L394.728 440.32H396.392L398.952 446.224L401.336 440.32H403L399.544 448.864C399.224 449.664 398.84 450.245 398.392 450.608C397.954 450.981 397.384 451.168 396.68 451.168ZM407.44 448.24C406.576 448.24 405.813 448.08 405.152 447.76C404.501 447.429 403.989 446.96 403.616 446.352C403.253 445.733 403.072 445.008 403.072 444.176C403.072 443.355 403.253 442.635 403.616 442.016C403.978 441.397 404.49 440.923 405.152 440.592C405.813 440.251 406.576 440.08 407.44 440.08C408.304 440.08 409.066 440.251 409.728 440.592C410.389 440.923 410.901 441.397 411.264 442.016C411.637 442.635 411.824 443.355 411.824 444.176C411.824 445.008 411.637 445.733 411.264 446.352C410.901 446.96 410.389 447.429 409.728 447.76C409.066 448.08 408.304 448.24 407.44 448.24ZM407.44 446.96C408.272 446.96 408.933 446.704 409.424 446.192C409.914 445.68 410.16 445.008 410.16 444.176C410.16 443.312 409.914 442.629 409.424 442.128C408.933 441.627 408.272 441.376 407.44 441.376C406.608 441.376 405.946 441.627 405.456 442.128C404.965 442.629 404.72 443.312 404.72 444.176C404.72 445.008 404.965 445.68 405.456 446.192C405.946 446.704 406.608 446.96 407.44 446.96ZM416.635 448.24C415.6 448.24 414.816 447.963 414.283 447.408C413.76 446.853 413.499 446.112 413.499 445.184V440.32H415.115V445.12C415.115 446.347 415.728 446.96 416.955 446.96C418.032 446.96 418.875 446.475 419.483 445.504V440.32H421.099V448H419.531V446.912C419.168 447.371 418.736 447.707 418.235 447.92C417.744 448.133 417.211 448.24 416.635 448.24ZM190.784 470.24C189.856 470.24 189.11 470.005 188.544 469.536C187.99 469.056 187.712 468.411 187.712 467.6C187.712 466.747 187.979 466.091 188.512 465.632C189.056 465.163 189.824 464.928 190.816 464.928C191.872 464.928 192.768 465.141 193.504 465.568V465.168C193.504 464.56 193.318 464.112 192.944 463.824C192.582 463.525 192.006 463.376 191.216 463.376C190.747 463.376 190.288 463.424 189.84 463.52C189.403 463.605 189.008 463.728 188.656 463.888V462.576C188.976 462.427 189.392 462.309 189.904 462.224C190.416 462.128 190.912 462.08 191.392 462.08C192.662 462.08 193.6 462.363 194.208 462.928C194.827 463.483 195.136 464.256 195.136 465.248V470H193.616V469.136C193.286 469.499 192.891 469.776 192.432 469.968C191.984 470.149 191.435 470.24 190.784 470.24ZM191.184 469.008C191.696 469.008 192.16 468.907 192.576 468.704C192.992 468.501 193.302 468.219 193.504 467.856V466.816C192.811 466.368 192.038 466.144 191.184 466.144C190.566 466.144 190.102 466.267 189.792 466.512C189.494 466.747 189.344 467.109 189.344 467.6C189.344 468.539 189.958 469.008 191.184 469.008ZM197.142 462.32H198.71V463.696C199.03 463.227 199.478 462.88 200.054 462.656C200.64 462.432 201.318 462.32 202.086 462.32V463.584C201.264 463.584 200.56 463.717 199.974 463.984C199.387 464.251 198.982 464.672 198.758 465.248V470H197.142V462.32ZM207.272 470.24C205.853 470.24 204.738 469.888 203.928 469.184C203.128 468.469 202.728 467.467 202.728 466.176C202.728 464.917 203.085 463.92 203.8 463.184C204.525 462.448 205.554 462.08 206.888 462.08C207.773 462.08 208.525 462.251 209.144 462.592C209.762 462.923 210.226 463.387 210.536 463.984C210.856 464.571 211.016 465.243 211.016 466V466.8H204.264C204.317 467.525 204.621 468.069 205.176 468.432C205.741 468.784 206.504 468.96 207.464 468.96C207.954 468.96 208.45 468.917 208.952 468.832C209.453 468.736 209.896 468.613 210.28 468.464V469.76C209.938 469.899 209.485 470.011 208.92 470.096C208.365 470.192 207.816 470.24 207.272 470.24ZM209.496 465.664C209.474 464.939 209.234 464.379 208.776 463.984C208.328 463.579 207.688 463.376 206.856 463.376C206.045 463.376 205.416 463.584 204.968 464C204.52 464.416 204.285 464.971 204.264 465.664H209.496ZM221.456 470.24C220.528 470.24 219.781 470.005 219.216 469.536C218.661 469.056 218.384 468.411 218.384 467.6C218.384 466.747 218.651 466.091 219.184 465.632C219.728 465.163 220.496 464.928 221.488 464.928C222.544 464.928 223.44 465.141 224.176 465.568V465.168C224.176 464.56 223.989 464.112 223.616 463.824C223.253 463.525 222.677 463.376 221.888 463.376C221.419 463.376 220.96 463.424 220.512 463.52C220.075 463.605 219.68 463.728 219.328 463.888V462.576C219.648 462.427 220.064 462.309 220.576 462.224C221.088 462.128 221.584 462.08 222.064 462.08C223.333 462.08 224.272 462.363 224.88 462.928C225.499 463.483 225.808 464.256 225.808 465.248V470H224.288V469.136C223.957 469.499 223.563 469.776 223.104 469.968C222.656 470.149 222.107 470.24 221.456 470.24ZM221.856 469.008C222.368 469.008 222.832 468.907 223.248 468.704C223.664 468.501 223.973 468.219 224.176 467.856V466.816C223.483 466.368 222.709 466.144 221.856 466.144C221.237 466.144 220.773 466.267 220.464 466.512C220.165 466.747 220.016 467.109 220.016 467.6C220.016 468.539 220.629 469.008 221.856 469.008ZM233.735 462.32H235.271V463.424C235.634 462.976 236.045 462.64 236.503 462.416C236.962 462.192 237.437 462.08 237.927 462.08C238.546 462.08 239.037 462.187 239.399 462.4C239.762 462.603 240.029 462.917 240.199 463.344C240.541 462.928 240.957 462.613 241.447 462.4C241.949 462.187 242.45 462.08 242.951 462.08C243.89 462.08 244.567 462.32 244.983 462.8C245.399 463.269 245.607 463.968 245.607 464.896V470H244.039V465.104C244.039 464.475 243.922 464.032 243.687 463.776C243.453 463.509 243.053 463.376 242.487 463.376C241.677 463.376 241.015 463.728 240.503 464.432C240.525 464.592 240.535 464.853 240.535 465.216V470H238.967V465.104C238.967 464.475 238.861 464.032 238.647 463.776C238.434 463.509 238.05 463.376 237.495 463.376C236.685 463.376 235.959 463.835 235.319 464.752V470H233.735V462.32ZM251.834 470.24C250.416 470.24 249.301 469.888 248.49 469.184C247.69 468.469 247.29 467.467 247.29 466.176C247.29 464.917 247.648 463.92 248.362 463.184C249.088 462.448 250.117 462.08 251.45 462.08C252.336 462.08 253.088 462.251 253.706 462.592C254.325 462.923 254.789 463.387 255.098 463.984C255.418 464.571 255.578 465.243 255.578 466V466.8H248.826C248.88 467.525 249.184 468.069 249.738 468.432C250.304 468.784 251.066 468.96 252.026 468.96C252.517 468.96 253.013 468.917 253.514 468.832C254.016 468.736 254.458 468.613 254.842 468.464V469.76C254.501 469.899 254.048 470.011 253.482 470.096C252.928 470.192 252.378 470.24 251.834 470.24ZM254.058 465.664C254.037 464.939 253.797 464.379 253.338 463.984C252.89 463.579 252.25 463.376 251.418 463.376C250.608 463.376 249.978 463.584 249.53 464C249.082 464.416 248.848 464.971 248.826 465.664H254.058ZM257.345 462.32H258.881V463.424C259.243 462.976 259.654 462.64 260.113 462.416C260.571 462.192 261.046 462.08 261.537 462.08C262.155 462.08 262.646 462.187 263.009 462.4C263.371 462.603 263.638 462.917 263.809 463.344C264.15 462.928 264.566 462.613 265.057 462.4C265.558 462.187 266.059 462.08 266.561 462.08C267.499 462.08 268.177 462.32 268.593 462.8C269.009 463.269 269.217 463.968 269.217 464.896V470H267.649V465.104C267.649 464.475 267.531 464.032 267.297 463.776C267.062 463.509 266.662 463.376 266.097 463.376C265.286 463.376 264.625 463.728 264.113 464.432C264.134 464.592 264.145 464.853 264.145 465.216V470H262.577V465.104C262.577 464.475 262.47 464.032 262.257 463.776C262.043 463.509 261.659 463.376 261.105 463.376C260.294 463.376 259.569 463.835 258.929 464.752V470H257.345V462.32ZM275.988 470.24C275.294 470.24 274.692 470.133 274.18 469.92C273.678 469.696 273.214 469.349 272.788 468.88V470H271.22V458.176H272.836V463.344C273.188 462.928 273.641 462.613 274.196 462.4C274.75 462.187 275.348 462.08 275.988 462.08C276.756 462.08 277.444 462.256 278.052 462.608C278.67 462.949 279.15 463.429 279.492 464.048C279.844 464.667 280.02 465.376 280.02 466.176C280.02 466.987 279.844 467.701 279.492 468.32C279.15 468.928 278.67 469.403 278.052 469.744C277.444 470.075 276.756 470.24 275.988 470.24ZM275.62 468.96C276.142 468.96 276.612 468.848 277.028 468.624C277.454 468.389 277.785 468.059 278.02 467.632C278.265 467.205 278.388 466.72 278.388 466.176C278.388 465.632 278.265 465.147 278.02 464.72C277.785 464.293 277.454 463.963 277.028 463.728C276.612 463.493 276.142 463.376 275.62 463.376C274.969 463.376 274.388 463.552 273.876 463.904C273.364 464.256 273.017 464.725 272.836 465.312V467.04C273.038 467.627 273.385 468.096 273.876 468.448C274.377 468.789 274.958 468.96 275.62 468.96ZM286.006 470.24C284.588 470.24 283.473 469.888 282.662 469.184C281.862 468.469 281.462 467.467 281.462 466.176C281.462 464.917 281.82 463.92 282.534 463.184C283.26 462.448 284.289 462.08 285.622 462.08C286.508 462.08 287.26 462.251 287.878 462.592C288.497 462.923 288.961 463.387 289.27 463.984C289.59 464.571 289.75 465.243 289.75 466V466.8H282.998C283.052 467.525 283.356 468.069 283.91 468.432C284.476 468.784 285.238 468.96 286.198 468.96C286.689 468.96 287.185 468.917 287.686 468.832C288.188 468.736 288.63 468.613 289.014 468.464V469.76C288.673 469.899 288.22 470.011 287.654 470.096C287.1 470.192 286.55 470.24 286.006 470.24ZM288.23 465.664C288.209 464.939 287.969 464.379 287.51 463.984C287.062 463.579 286.422 463.376 285.59 463.376C284.78 463.376 284.15 463.584 283.702 464C283.254 464.416 283.02 464.971 282.998 465.664H288.23ZM291.517 462.32H293.085V463.696C293.405 463.227 293.853 462.88 294.429 462.656C295.015 462.432 295.693 462.32 296.461 462.32V463.584C295.639 463.584 294.935 463.717 294.349 463.984C293.762 464.251 293.357 464.672 293.133 465.248V470H291.517V462.32ZM307.877 470.24C307.013 470.24 306.25 470.08 305.589 469.76C304.938 469.429 304.426 468.96 304.053 468.352C303.69 467.733 303.509 467.008 303.509 466.176C303.509 465.355 303.69 464.635 304.053 464.016C304.416 463.397 304.928 462.923 305.589 462.592C306.25 462.251 307.013 462.08 307.877 462.08C308.741 462.08 309.504 462.251 310.165 462.592C310.826 462.923 311.338 463.397 311.701 464.016C312.074 464.635 312.261 465.355 312.261 466.176C312.261 467.008 312.074 467.733 311.701 468.352C311.338 468.96 310.826 469.429 310.165 469.76C309.504 470.08 308.741 470.24 307.877 470.24ZM307.877 468.96C308.709 468.96 309.37 468.704 309.861 468.192C310.352 467.68 310.597 467.008 310.597 466.176C310.597 465.312 310.352 464.629 309.861 464.128C309.37 463.627 308.709 463.376 307.877 463.376C307.045 463.376 306.384 463.627 305.893 464.128C305.402 464.629 305.157 465.312 305.157 466.176C305.157 467.008 305.402 467.68 305.893 468.192C306.384 468.704 307.045 468.96 307.877 468.96ZM313.982 463.568H312.814V462.32H313.982V460.816C313.982 459.931 314.233 459.259 314.734 458.8C315.235 458.331 315.907 458.096 316.75 458.096C317.187 458.096 317.598 458.16 317.982 458.288V459.632C317.683 459.493 317.374 459.424 317.054 459.424C316.553 459.424 316.185 459.547 315.95 459.792C315.715 460.027 315.598 460.4 315.598 460.912V462.32H317.518V463.568H315.598V470H313.982V463.568ZM319.527 470C319.313 470 319.132 469.931 318.983 469.792C318.844 469.643 318.775 469.461 318.775 469.248C318.775 469.035 318.844 468.853 318.983 468.704C319.132 468.555 319.313 468.48 319.527 468.48C319.74 468.48 319.921 468.555 320.071 468.704C320.22 468.853 320.295 469.035 320.295 469.248C320.295 469.461 320.22 469.643 320.071 469.792C319.921 469.931 319.74 470 319.527 470Z" fill="white"/>
<path d="M86.9072 440.32H88.4752V441.696C88.7952 441.227 89.2432 440.88 89.8192 440.656C90.4059 440.432 91.0832 440.32 91.8512 440.32V441.584C91.0299 441.584 90.3259 441.717 89.7392 441.984C89.1525 442.251 88.7472 442.672 88.5232 443.248V448H86.9072V440.32ZM97.0374 448.24C95.6188 448.24 94.5041 447.888 93.6934 447.184C92.8934 446.469 92.4934 445.467 92.4934 444.176C92.4934 442.917 92.8508 441.92 93.5654 441.184C94.2908 440.448 95.3201 440.08 96.6534 440.08C97.5388 440.08 98.2908 440.251 98.9094 440.592C99.5281 440.923 99.9921 441.387 100.301 441.984C100.621 442.571 100.781 443.243 100.781 444V444.8H94.0294C94.0828 445.525 94.3868 446.069 94.9414 446.432C95.5068 446.784 96.2694 446.96 97.2294 446.96C97.7201 446.96 98.2161 446.917 98.7174 446.832C99.2188 446.736 99.6614 446.613 100.045 446.464V447.76C99.7041 447.899 99.2508 448.011 98.6854 448.096C98.1308 448.192 97.5814 448.24 97.0374 448.24ZM99.2614 443.664C99.2401 442.939 99.0001 442.379 98.5414 441.984C98.0934 441.579 97.4534 441.376 96.6214 441.376C95.8108 441.376 95.1814 441.584 94.7334 442C94.2854 442.416 94.0508 442.971 94.0294 443.664H99.2614ZM102.548 440.32H104.084V441.424C104.446 440.976 104.857 440.64 105.316 440.416C105.774 440.192 106.249 440.08 106.74 440.08C107.358 440.08 107.849 440.187 108.212 440.4C108.574 440.603 108.841 440.917 109.012 441.344C109.353 440.928 109.769 440.613 110.26 440.4C110.761 440.187 111.262 440.08 111.764 440.08C112.702 440.08 113.38 440.32 113.796 440.8C114.212 441.269 114.42 441.968 114.42 442.896V448H112.852V443.104C112.852 442.475 112.734 442.032 112.5 441.776C112.265 441.509 111.865 441.376 111.3 441.376C110.489 441.376 109.828 441.728 109.316 442.432C109.337 442.592 109.348 442.853 109.348 443.216V448H107.78V443.104C107.78 442.475 107.673 442.032 107.46 441.776C107.246 441.509 106.862 441.376 106.308 441.376C105.497 441.376 104.772 441.835 104.132 442.752V448H102.548V440.32ZM120.236 448.24C119.372 448.24 118.61 448.08 117.948 447.76C117.298 447.429 116.786 446.96 116.412 446.352C116.05 445.733 115.868 445.008 115.868 444.176C115.868 443.355 116.05 442.635 116.412 442.016C116.775 441.397 117.287 440.923 117.948 440.592C118.61 440.251 119.372 440.08 120.236 440.08C121.1 440.08 121.863 440.251 122.524 440.592C123.186 440.923 123.698 441.397 124.06 442.016C124.434 442.635 124.62 443.355 124.62 444.176C124.62 445.008 124.434 445.733 124.06 446.352C123.698 446.96 123.186 447.429 122.524 447.76C121.863 448.08 121.1 448.24 120.236 448.24ZM120.236 446.96C121.068 446.96 121.73 446.704 122.22 446.192C122.711 445.68 122.956 445.008 122.956 444.176C122.956 443.312 122.711 442.629 122.22 442.128C121.73 441.627 121.068 441.376 120.236 441.376C119.404 441.376 118.743 441.627 118.252 442.128C117.762 442.629 117.516 443.312 117.516 444.176C117.516 445.008 117.762 445.68 118.252 446.192C118.743 446.704 119.404 446.96 120.236 446.96ZM125.009 440.32H126.721L128.977 445.84L131.233 440.32H132.945L129.681 448H128.273L125.009 440.32ZM138.287 448.24C136.869 448.24 135.754 447.888 134.943 447.184C134.143 446.469 133.743 445.467 133.743 444.176C133.743 442.917 134.101 441.92 134.815 441.184C135.541 440.448 136.57 440.08 137.903 440.08C138.789 440.08 139.541 440.251 140.159 440.592C140.778 440.923 141.242 441.387 141.551 441.984C141.871 442.571 142.031 443.243 142.031 444V444.8H135.279C135.333 445.525 135.637 446.069 136.191 446.432C136.757 446.784 137.519 446.96 138.479 446.96C138.97 446.96 139.466 446.917 139.967 446.832C140.469 446.736 140.911 446.613 141.295 446.464V447.76C140.954 447.899 140.501 448.011 139.935 448.096C139.381 448.192 138.831 448.24 138.287 448.24ZM140.511 443.664C140.49 442.939 140.25 442.379 139.791 441.984C139.343 441.579 138.703 441.376 137.871 441.376C137.061 441.376 136.431 441.584 135.983 442C135.535 442.416 135.301 442.971 135.279 443.664H140.511ZM151.352 451.168C150.776 451.168 150.296 451.109 149.912 450.992V449.728C150.189 449.835 150.53 449.888 150.936 449.888C151.309 449.888 151.602 449.792 151.816 449.6C152.029 449.419 152.221 449.12 152.392 448.704L152.76 447.808L149.4 440.32H151.064L153.624 446.224L156.008 440.32H157.672L154.216 448.864C153.896 449.664 153.512 450.245 153.064 450.608C152.626 450.981 152.056 451.168 151.352 451.168ZM162.111 448.24C161.247 448.24 160.485 448.08 159.823 447.76C159.173 447.429 158.661 446.96 158.287 446.352C157.925 445.733 157.743 445.008 157.743 444.176C157.743 443.355 157.925 442.635 158.287 442.016C158.65 441.397 159.162 440.923 159.823 440.592C160.485 440.251 161.247 440.08 162.111 440.08C162.975 440.08 163.738 440.251 164.399 440.592C165.061 440.923 165.573 441.397 165.935 442.016C166.309 442.635 166.495 443.355 166.495 444.176C166.495 445.008 166.309 445.733 165.935 446.352C165.573 446.96 165.061 447.429 164.399 447.76C163.738 448.08 162.975 448.24 162.111 448.24ZM162.111 446.96C162.943 446.96 163.605 446.704 164.095 446.192C164.586 445.68 164.831 445.008 164.831 444.176C164.831 443.312 164.586 442.629 164.095 442.128C163.605 441.627 162.943 441.376 162.111 441.376C161.279 441.376 160.618 441.627 160.127 442.128C159.637 442.629 159.391 443.312 159.391 444.176C159.391 445.008 159.637 445.68 160.127 446.192C160.618 446.704 161.279 446.96 162.111 446.96ZM171.307 448.24C170.272 448.24 169.488 447.963 168.955 447.408C168.432 446.853 168.171 446.112 168.171 445.184V440.32H169.787V445.12C169.787 446.347 170.4 446.96 171.627 446.96C172.704 446.96 173.547 446.475 174.155 445.504V440.32H175.771V448H174.203V446.912C173.84 447.371 173.408 447.707 172.907 447.92C172.416 448.133 171.883 448.24 171.307 448.24Z" fill="#FF8A37"/>
<path d="M161.827 344.416H157.339V341.622H169.659V344.416H165.171V357H161.827V344.416ZM171.129 341.622H174.473V357H171.129V341.622ZM176.78 341.622H180.08L184.81 351.918L189.562 341.622H192.84V357H189.65V348.266L185.58 357H184.04L179.992 348.266V357H176.78V341.622ZM195.149 341.622H205.819V344.416H198.493V347.98H203.883V350.664H198.493V354.206H205.819V357H195.149V341.622ZM207.438 341.622H210.782V354.206H217.822V357H207.438V341.622ZM221.696 351.148L216.064 341.622H219.628L223.346 348.024L227.196 341.622H230.738L224.974 351.148V357H221.696V351.148ZM240.309 341.622H246.777C248.522 341.622 249.916 342.084 250.957 343.008C251.998 343.917 252.519 345.186 252.519 346.814C252.519 348.486 251.998 349.769 250.957 350.664C249.93 351.559 248.537 352.006 246.777 352.006H243.653V357H240.309V341.622ZM246.293 349.212C248.185 349.212 249.131 348.413 249.131 346.814C249.131 345.919 248.874 345.296 248.361 344.944C247.862 344.592 247.173 344.416 246.293 344.416H243.653V349.212H246.293ZM257.588 341.622H260.866L267.004 357H263.594L262.274 353.656H256.18L254.86 357H251.428L257.588 341.622ZM261.394 350.994L259.216 345.142L257.038 350.994H261.394ZM271.089 351.148L265.457 341.622H269.021L272.739 348.024L276.589 341.622H280.131L274.367 351.148V357H271.089V351.148ZM281.237 341.622H284.537L289.267 351.918L294.019 341.622H297.297V357H294.107V348.266L290.037 357H288.497L284.449 348.266V357H281.237V341.622ZM299.606 341.622H310.276V344.416H302.95V347.98H308.34V350.664H302.95V354.206H310.276V357H299.606V341.622ZM311.895 341.622H315.151L321.575 351.566V341.622H324.919V357H321.685L315.239 347.056V357H311.895V341.622ZM330.887 344.416H326.399V341.622H338.719V344.416H334.231V357H330.887V344.416ZM344.251 357.33C343.313 357.33 342.381 357.242 341.457 357.066C340.533 356.89 339.778 356.655 339.191 356.362V353.414C339.969 353.795 340.775 354.081 341.611 354.272C342.447 354.463 343.247 354.558 344.009 354.558C344.86 354.558 345.505 354.411 345.945 354.118C346.385 353.825 346.605 353.414 346.605 352.886C346.605 352.505 346.495 352.182 346.275 351.918C346.055 351.654 345.733 351.419 345.307 351.214C344.897 350.994 344.259 350.708 343.393 350.356C341.956 349.769 340.915 349.117 340.269 348.398C339.624 347.665 339.301 346.763 339.301 345.692C339.301 344.827 339.536 344.064 340.005 343.404C340.475 342.729 341.135 342.209 341.985 341.842C342.836 341.475 343.819 341.292 344.933 341.292C345.843 341.292 346.649 341.365 347.353 341.512C348.057 341.659 348.747 341.886 349.421 342.194V345.054C348.131 344.409 346.84 344.086 345.549 344.086C344.728 344.086 344.083 344.233 343.613 344.526C343.144 344.805 342.909 345.208 342.909 345.736C342.909 346.117 343.019 346.433 343.239 346.682C343.459 346.931 343.767 347.151 344.163 347.342C344.559 347.533 345.205 347.811 346.099 348.178C347.141 348.618 347.955 349.043 348.541 349.454C349.128 349.85 349.561 350.327 349.839 350.884C350.118 351.427 350.257 352.101 350.257 352.908C350.257 354.301 349.751 355.387 348.739 356.164C347.742 356.941 346.246 357.33 344.251 357.33Z" fill="#FF8A37"/>
</svg>
