<svg width="375" height="667" viewBox="0 0 375 667" fill="none" xmlns="http://www.w3.org/2000/svg">
<rect width="375" height="667" fill="#171717"/>
<rect x="52" y="343" width="270" height="15" fill="url(#paint0_linear_1525_834)"/>
<rect x="52" y="343" width="270" height="1" fill="#FF8A37"/>
<rect x="46" y="339" width="283" height="19" fill="url(#paint1_linear_1525_834)"/>
<circle cx="127" cy="374" r="10.5" fill="#FF8A37" stroke="#FF8A37"/>
<circle cx="203" cy="374" r="6.5" fill="#171717" stroke="#FF8A37"/>
<circle cx="167" cy="374" r="6.5" fill="#171717" stroke="#FF8A37"/>
<circle cx="239" cy="374" r="6.5" fill="#171717" stroke="#FF8A37"/>
<path d="M34.42 450.26C30.64 450.26 28.62 447.86 28.62 443.5C28.62 439.16 30.68 436.74 34.42 436.74C38.18 436.74 40.22 439.14 40.22 443.5C40.22 447.84 38.14 450.26 34.42 450.26ZM34.42 447.78C36.52 447.78 37.62 446.28 37.62 443.5C37.62 440.7 36.52 439.2 34.42 439.2C32.32 439.2 31.2 440.7 31.2 443.5C31.2 446.3 32.32 447.78 34.42 447.78ZM43.6842 450V437H46.1642V450H43.6842ZM51.2161 450.26C50.2361 450.26 49.6161 449.58 49.6161 448.56C49.6161 447.56 50.2361 446.88 51.2161 446.88C52.1761 446.88 52.8161 447.56 52.8161 448.56C52.8161 449.58 52.1761 450.26 51.2161 450.26Z" fill="#FF8A37"/>
<path d="M64.302 450V440.9H66.038V445.31L70.672 440.9H73.136L69.104 444.708L73.136 450H71.022L67.886 445.87L66.038 447.62V450H64.302ZM75.0208 450V440.9H83.4908V442.538H76.7568V444.624H81.7688V446.262H76.7568V448.362H83.4908V450H75.0208ZM85.8352 450V440.9H94.3052V442.538H87.5712V444.624H92.5832V446.262H87.5712V448.362H94.3052V450H85.8352ZM96.6497 450V440.9H102.88C104.434 440.9 105.47 441.992 105.47 443.63C105.47 445.198 104.434 446.262 102.88 446.262H98.3857V450H96.6497ZM98.3857 444.624H102.88C103.398 444.624 103.734 444.26 103.734 443.714V443.448C103.734 442.902 103.398 442.538 102.88 442.538H98.3857V444.624ZM111.962 450V440.9H118.192C119.746 440.9 120.782 441.992 120.782 443.63C120.782 445.198 119.746 446.262 118.192 446.262H113.698V450H111.962ZM113.698 444.624H118.192C118.71 444.624 119.046 444.26 119.046 443.714V443.448C119.046 442.902 118.71 442.538 118.192 442.538H113.698V444.624ZM120.954 450L124.51 440.9H127.1L130.642 450H128.78L127.884 447.676H123.67L122.788 450H120.954ZM124.258 446.038H127.296L125.756 442.258L124.258 446.038ZM134.246 450V446.808L130.62 440.9H132.622L134.302 443.63C134.862 444.54 135.1 445.268 135.1 445.268H135.128C135.128 445.268 135.38 444.54 135.926 443.63L137.606 440.9H139.608L135.982 446.808V450H134.246ZM141.425 450V440.9H142.979L145.695 444.722H145.821L148.509 440.9H150.077V450H148.341V443.63H148.299C148.299 443.63 148.131 444.218 147.823 444.652L146.619 446.36H144.883L143.679 444.652C143.357 444.218 143.189 443.63 143.189 443.63H143.161V450H141.425ZM152.663 450V440.9H161.133V442.538H154.399V444.624H159.411V446.262H154.399V448.362H161.133V450H152.663ZM163.478 450V440.9H165.032L170.394 447.172V440.9H172.13V450H170.562L165.214 443.714V450H163.478ZM177.558 450V442.538H174.1V440.9H182.752V442.538H179.294V450H177.558ZM189.058 450V440.9H193.384C195.974 440.9 197.878 442.804 197.878 445.45C197.878 448.068 195.974 450 193.384 450H189.058ZM190.794 448.362H193.384C194.938 448.362 196.058 447.144 196.058 445.45C196.058 443.77 194.938 442.538 193.384 442.538H190.794V448.362ZM200.05 450V440.9H208.52V442.538H201.786V444.624H206.798V446.262H201.786V448.362H208.52V450H200.05ZM213.707 450V442.538H210.249V440.9H218.901V442.538H215.443V450H213.707ZM218.981 450L222.537 440.9H225.127L228.669 450H226.807L225.911 447.676H221.697L220.815 450H218.981ZM222.285 446.038H225.323L223.783 442.258L222.285 446.038ZM230.484 450V440.9H232.22V450H230.484ZM234.804 450V440.9H236.54V448.362H241.72V450H234.804ZM247.428 450.182C244.95 450.182 243.284 449.02 243.284 447.27H245.006C245.006 448.04 245.986 448.544 247.428 448.544C248.996 448.544 249.85 448.068 249.85 447.214C249.85 446.486 249.094 446.178 247.358 446.178C244.628 446.178 243.452 445.408 243.452 443.574C243.452 441.712 244.838 440.718 247.428 440.718C249.808 440.718 251.404 441.88 251.404 443.63H249.682C249.682 442.86 248.772 442.356 247.428 442.356C245.972 442.356 245.188 442.776 245.188 443.574C245.188 444.26 245.874 444.54 247.526 444.54C250.368 444.54 251.586 445.352 251.586 447.214C251.586 449.146 250.13 450.182 247.428 450.182ZM262.218 450.182C259.824 450.182 258.06 448.25 258.06 445.632V440.9H259.796V445.632C259.796 447.27 260.804 448.446 262.218 448.446C263.604 448.446 264.626 447.27 264.626 445.632V440.9H266.362V445.632C266.362 448.25 264.598 450.182 262.218 450.182ZM268.956 450V440.9H275.186C276.74 440.9 277.776 441.992 277.776 443.63C277.776 445.198 276.74 446.262 275.186 446.262H270.692V450H268.956ZM270.692 444.624H275.186C275.704 444.624 276.04 444.26 276.04 443.714V443.448C276.04 442.902 275.704 442.538 275.186 442.538H270.692V444.624ZM287.111 450V442.538H283.653V440.9H292.305V442.538H288.847V450H287.111ZM297.79 450.182C295.2 450.182 293.296 448.18 293.296 445.45C293.296 442.72 295.2 440.718 297.79 440.718C300.38 440.718 302.284 442.72 302.284 445.45C302.284 448.18 300.38 450.182 297.79 450.182ZM297.79 448.446C299.344 448.446 300.478 447.172 300.478 445.45C300.478 443.714 299.344 442.44 297.79 442.44C296.236 442.44 295.116 443.714 295.116 445.45C295.116 447.172 296.236 448.446 297.79 448.446ZM308.769 450V440.9H313.095C315.685 440.9 317.589 442.804 317.589 445.45C317.589 448.068 315.685 450 313.095 450H308.769ZM310.505 448.362H313.095C314.649 448.362 315.769 447.144 315.769 445.45C315.769 443.77 314.649 442.538 313.095 442.538H310.505V448.362ZM318.485 450L322.041 440.9H324.631L328.173 450H326.311L325.415 447.676H321.201L320.319 450H318.485ZM321.789 446.038H324.827L323.287 442.258L321.789 446.038ZM331.708 450V442.538H328.25V440.9H336.902V442.538H333.444V450H331.708ZM338.888 450V440.9H347.358V442.538H340.624V444.624H345.636V446.262H340.624V448.362H347.358V450H338.888Z" fill="#FF8A37"/>
<path d="M78.9193 487.612H80.0953L83.4433 496H82.1953L81.3553 493.912H77.6473L76.8313 496H75.5713L78.9193 487.612ZM81.0193 492.892L79.5073 488.968L77.9953 492.892H81.0193ZM86.1992 496.18C85.6152 496.18 85.1632 496.012 84.8432 495.676C84.5312 495.34 84.3752 494.864 84.3752 494.248V491.176H83.4992V490.24H84.3752V488.512H85.5992V490.24H87.0152V491.176H85.5992V494.164C85.5992 494.548 85.6712 494.82 85.8152 494.98C85.9672 495.14 86.2392 495.22 86.6312 495.22C86.8632 495.22 87.0952 495.168 87.3272 495.064V496.024C87.0232 496.128 86.6472 496.18 86.1992 496.18ZM95.1289 496.18C94.5449 496.18 94.0929 496.012 93.7729 495.676C93.4609 495.34 93.3049 494.864 93.3049 494.248V491.176H92.4289V490.24H93.3049V488.512H94.5289V490.24H95.9449V491.176H94.5289V494.164C94.5289 494.548 94.6009 494.82 94.7449 494.98C94.8969 495.14 95.1689 495.22 95.5609 495.22C95.7929 495.22 96.0249 495.168 96.2569 495.064V496.024C95.9529 496.128 95.5769 496.18 95.1289 496.18ZM97.3972 487.132H98.6092V491.032C99.1612 490.384 99.8972 490.06 100.817 490.06C101.585 490.06 102.157 490.264 102.533 490.672C102.909 491.08 103.097 491.628 103.097 492.316V496H101.885V492.436C101.885 491.5 101.437 491.032 100.541 491.032C100.157 491.032 99.7972 491.124 99.4612 491.308C99.1332 491.484 98.8492 491.756 98.6092 492.124V496H97.3972V487.132ZM107.761 496.18C106.697 496.18 105.861 495.916 105.253 495.388C104.653 494.852 104.353 494.1 104.353 493.132C104.353 492.188 104.621 491.44 105.157 490.888C105.701 490.336 106.473 490.06 107.473 490.06C108.137 490.06 108.701 490.188 109.165 490.444C109.629 490.692 109.977 491.04 110.209 491.488C110.449 491.928 110.569 492.432 110.569 493V493.6H105.505C105.545 494.144 105.773 494.552 106.189 494.824C106.613 495.088 107.185 495.22 107.905 495.22C108.273 495.22 108.645 495.188 109.021 495.124C109.397 495.052 109.729 494.96 110.017 494.848V495.82C109.761 495.924 109.421 496.008 108.997 496.072C108.581 496.144 108.169 496.18 107.761 496.18ZM109.429 492.748C109.413 492.204 109.233 491.784 108.889 491.488C108.553 491.184 108.073 491.032 107.449 491.032C106.841 491.032 106.369 491.188 106.033 491.5C105.697 491.812 105.521 492.228 105.505 492.748H109.429ZM118.459 496.18C118.059 496.18 117.635 496.128 117.187 496.024C116.739 495.928 116.387 495.796 116.131 495.628V494.596C116.443 494.78 116.803 494.932 117.211 495.052C117.619 495.164 118.015 495.22 118.399 495.22C118.831 495.22 119.147 495.168 119.347 495.064C119.547 494.96 119.647 494.792 119.647 494.56C119.647 494.384 119.599 494.244 119.503 494.14C119.415 494.028 119.259 493.928 119.035 493.84C118.819 493.752 118.491 493.648 118.051 493.528C117.579 493.392 117.203 493.256 116.923 493.12C116.651 492.976 116.443 492.796 116.299 492.58C116.163 492.364 116.095 492.084 116.095 491.74C116.095 491.188 116.311 490.772 116.743 490.492C117.183 490.204 117.771 490.06 118.507 490.06C118.891 490.06 119.267 490.096 119.635 490.168C120.003 490.24 120.299 490.34 120.523 490.468V491.476C120.291 491.34 120.003 491.232 119.659 491.152C119.323 491.072 118.979 491.032 118.627 491.032C118.203 491.032 117.879 491.084 117.655 491.188C117.431 491.292 117.319 491.476 117.319 491.74C117.319 491.908 117.367 492.044 117.463 492.148C117.559 492.252 117.711 492.344 117.919 492.424C118.135 492.496 118.475 492.592 118.939 492.712C119.667 492.912 120.171 493.148 120.451 493.42C120.739 493.692 120.883 494.068 120.883 494.548C120.883 495.044 120.679 495.44 120.271 495.736C119.863 496.032 119.259 496.18 118.459 496.18ZM124.25 496.18C123.666 496.18 123.214 496.012 122.894 495.676C122.582 495.34 122.426 494.864 122.426 494.248V491.176H121.55V490.24H122.426V488.512H123.65V490.24H125.066V491.176H123.65V494.164C123.65 494.548 123.722 494.82 123.866 494.98C124.018 495.14 124.29 495.22 124.682 495.22C124.914 495.22 125.146 495.168 125.378 495.064V496.024C125.074 496.128 124.698 496.18 124.25 496.18ZM128.407 496.18C127.711 496.18 127.151 496.004 126.727 495.652C126.311 495.292 126.103 494.808 126.103 494.2C126.103 493.56 126.303 493.068 126.703 492.724C127.111 492.372 127.687 492.196 128.431 492.196C129.223 492.196 129.895 492.356 130.447 492.676V492.376C130.447 491.92 130.307 491.584 130.027 491.368C129.755 491.144 129.323 491.032 128.73 491.032C128.379 491.032 128.035 491.068 127.699 491.14C127.371 491.204 127.075 491.296 126.811 491.416V490.432C127.051 490.32 127.363 490.232 127.747 490.168C128.131 490.096 128.503 490.06 128.863 490.06C129.815 490.06 130.519 490.272 130.975 490.696C131.439 491.112 131.671 491.692 131.671 492.436V496H130.531V495.352C130.283 495.624 129.987 495.832 129.643 495.976C129.307 496.112 128.895 496.18 128.407 496.18ZM128.707 495.256C129.091 495.256 129.439 495.18 129.751 495.028C130.063 494.876 130.295 494.664 130.447 494.392V493.612C129.927 493.276 129.347 493.108 128.707 493.108C128.243 493.108 127.895 493.2 127.663 493.384C127.439 493.56 127.326 493.832 127.326 494.2C127.326 494.904 127.787 495.256 128.707 495.256ZM133.175 490.24H134.351V491.272C134.591 490.92 134.927 490.66 135.359 490.492C135.799 490.324 136.307 490.24 136.883 490.24V491.188C136.267 491.188 135.739 491.288 135.299 491.488C134.859 491.688 134.555 492.004 134.387 492.436V496H133.175V490.24ZM140.188 496.18C139.604 496.18 139.152 496.012 138.832 495.676C138.52 495.34 138.364 494.864 138.364 494.248V491.176H137.488V490.24H138.364V488.512H139.588V490.24H141.004V491.176H139.588V494.164C139.588 494.548 139.66 494.82 139.804 494.98C139.956 495.14 140.228 495.22 140.62 495.22C140.852 495.22 141.084 495.168 141.316 495.064V496.024C141.012 496.128 140.636 496.18 140.188 496.18ZM149.933 496.18C149.285 496.18 148.713 496.06 148.217 495.82C147.729 495.572 147.345 495.22 147.065 494.764C146.793 494.3 146.657 493.756 146.657 493.132C146.657 492.516 146.793 491.976 147.065 491.512C147.337 491.048 147.721 490.692 148.217 490.444C148.713 490.188 149.285 490.06 149.933 490.06C150.581 490.06 151.153 490.188 151.649 490.444C152.145 490.692 152.529 491.048 152.801 491.512C153.081 491.976 153.221 492.516 153.221 493.132C153.221 493.756 153.081 494.3 152.801 494.764C152.529 495.22 152.145 495.572 151.649 495.82C151.153 496.06 150.581 496.18 149.933 496.18ZM149.933 495.22C150.557 495.22 151.053 495.028 151.421 494.644C151.789 494.26 151.973 493.756 151.973 493.132C151.973 492.484 151.789 491.972 151.421 491.596C151.053 491.22 150.557 491.032 149.933 491.032C149.309 491.032 148.813 491.22 148.445 491.596C148.077 491.972 147.893 492.484 147.893 493.132C147.893 493.756 148.077 494.26 148.445 494.644C148.813 495.028 149.309 495.22 149.933 495.22ZM154.512 491.176H153.636V490.24H154.512V489.112C154.512 488.448 154.7 487.944 155.076 487.6C155.452 487.248 155.956 487.072 156.588 487.072C156.916 487.072 157.224 487.12 157.512 487.216V488.224C157.288 488.12 157.056 488.068 156.816 488.068C156.44 488.068 156.164 488.16 155.988 488.344C155.812 488.52 155.724 488.8 155.724 489.184V490.24H157.164V491.176H155.724V496H154.512V491.176ZM165.956 496.18C164.892 496.18 164.056 495.916 163.448 495.388C162.848 494.852 162.548 494.1 162.548 493.132C162.548 492.188 162.816 491.44 163.352 490.888C163.896 490.336 164.668 490.06 165.668 490.06C166.332 490.06 166.896 490.188 167.36 490.444C167.824 490.692 168.172 491.04 168.404 491.488C168.644 491.928 168.764 492.432 168.764 493V493.6H163.7C163.74 494.144 163.968 494.552 164.384 494.824C164.808 495.088 165.38 495.22 166.1 495.22C166.468 495.22 166.84 495.188 167.216 495.124C167.592 495.052 167.924 494.96 168.212 494.848V495.82C167.956 495.924 167.616 496.008 167.192 496.072C166.776 496.144 166.364 496.18 165.956 496.18ZM167.624 492.748C167.608 492.204 167.428 491.784 167.084 491.488C166.748 491.184 166.268 491.032 165.644 491.032C165.036 491.032 164.564 491.188 164.228 491.5C163.892 491.812 163.716 492.228 163.7 492.748H167.624ZM172.153 496.18C171.457 496.18 170.897 496.004 170.473 495.652C170.057 495.292 169.849 494.808 169.849 494.2C169.849 493.56 170.049 493.068 170.449 492.724C170.857 492.372 171.433 492.196 172.177 492.196C172.969 492.196 173.641 492.356 174.193 492.676V492.376C174.193 491.92 174.053 491.584 173.773 491.368C173.501 491.144 173.069 491.032 172.477 491.032C172.125 491.032 171.781 491.068 171.445 491.14C171.117 491.204 170.821 491.296 170.557 491.416V490.432C170.797 490.32 171.109 490.232 171.493 490.168C171.877 490.096 172.249 490.06 172.609 490.06C173.561 490.06 174.265 490.272 174.721 490.696C175.185 491.112 175.417 491.692 175.417 492.436V496H174.277V495.352C174.029 495.624 173.733 495.832 173.389 495.976C173.053 496.112 172.641 496.18 172.153 496.18ZM172.453 495.256C172.837 495.256 173.185 495.18 173.497 495.028C173.809 494.876 174.041 494.664 174.193 494.392V493.612C173.673 493.276 173.093 493.108 172.453 493.108C171.989 493.108 171.641 493.2 171.409 493.384C171.185 493.56 171.073 493.832 171.073 494.2C171.073 494.904 171.533 495.256 172.453 495.256ZM179.722 496.18C179.082 496.18 178.514 496.06 178.018 495.82C177.522 495.58 177.134 495.232 176.854 494.776C176.582 494.312 176.446 493.764 176.446 493.132C176.446 492.5 176.582 491.956 176.854 491.5C177.134 491.036 177.522 490.68 178.018 490.432C178.522 490.184 179.098 490.06 179.746 490.06C180.626 490.06 181.33 490.232 181.858 490.576V491.572C181.338 491.212 180.674 491.032 179.866 491.032C179.21 491.032 178.678 491.212 178.27 491.572C177.87 491.924 177.67 492.444 177.67 493.132C177.67 493.82 177.87 494.34 178.27 494.692C178.67 495.044 179.194 495.22 179.842 495.22C180.65 495.22 181.346 495.028 181.93 494.644V495.628C181.65 495.82 181.33 495.96 180.97 496.048C180.618 496.136 180.202 496.18 179.722 496.18ZM183.249 487.132H184.461V491.032C185.013 490.384 185.749 490.06 186.669 490.06C187.437 490.06 188.009 490.264 188.385 490.672C188.761 491.08 188.949 491.628 188.949 492.316V496H187.737V492.436C187.737 491.5 187.289 491.032 186.393 491.032C186.009 491.032 185.649 491.124 185.313 491.308C184.985 491.484 184.701 491.756 184.461 492.124V496H183.249V487.132ZM198.461 496.18C197.941 496.18 197.489 496.1 197.105 495.94C196.729 495.772 196.381 495.512 196.061 495.16V496H194.885V487.132H196.097V491.008C196.361 490.696 196.701 490.46 197.117 490.3C197.533 490.14 197.981 490.06 198.461 490.06C199.037 490.06 199.553 490.192 200.009 490.456C200.473 490.712 200.833 491.072 201.089 491.536C201.353 492 201.485 492.532 201.485 493.132C201.485 493.74 201.353 494.276 201.089 494.74C200.833 495.196 200.473 495.552 200.009 495.808C199.553 496.056 199.037 496.18 198.461 496.18ZM198.185 495.22C198.577 495.22 198.929 495.136 199.241 494.968C199.561 494.792 199.809 494.544 199.985 494.224C200.169 493.904 200.261 493.54 200.261 493.132C200.261 492.724 200.169 492.36 199.985 492.04C199.809 491.72 199.561 491.472 199.241 491.296C198.929 491.12 198.577 491.032 198.185 491.032C197.697 491.032 197.261 491.164 196.877 491.428C196.493 491.692 196.233 492.044 196.097 492.484V493.78C196.249 494.22 196.509 494.572 196.877 494.836C197.253 495.092 197.689 495.22 198.185 495.22ZM203.515 489.112C203.315 489.112 203.147 489.044 203.011 488.908C202.875 488.772 202.807 488.604 202.807 488.404C202.807 488.204 202.875 488.036 203.011 487.9C203.147 487.764 203.315 487.696 203.515 487.696C203.723 487.696 203.895 487.764 204.031 487.9C204.175 488.036 204.247 488.204 204.247 488.404C204.247 488.604 204.175 488.772 204.031 488.908C203.895 489.044 203.723 489.112 203.515 489.112ZM202.903 490.24H204.139V496H202.903V490.24ZM205.807 487.132H207.019V496H205.807V487.132ZM208.585 487.132H209.797V496H208.585V487.132ZM212.07 489.112C211.87 489.112 211.702 489.044 211.566 488.908C211.43 488.772 211.362 488.604 211.362 488.404C211.362 488.204 211.43 488.036 211.566 487.9C211.702 487.764 211.87 487.696 212.07 487.696C212.278 487.696 212.45 487.764 212.586 487.9C212.73 488.036 212.802 488.204 212.802 488.404C212.802 488.604 212.73 488.772 212.586 488.908C212.45 489.044 212.278 489.112 212.07 489.112ZM211.458 490.24H212.694V496H211.458V490.24ZM214.362 490.24H215.538V491.068C215.81 490.724 216.142 490.472 216.534 490.312C216.934 490.144 217.35 490.06 217.782 490.06C218.55 490.06 219.122 490.264 219.498 490.672C219.874 491.08 220.062 491.628 220.062 492.316V496H218.85V492.436C218.85 491.5 218.402 491.032 217.506 491.032C217.122 491.032 216.762 491.124 216.426 491.308C216.098 491.484 215.814 491.756 215.574 492.124V496H214.362V490.24ZM224.569 498.76C224.177 498.76 223.793 498.728 223.417 498.664C223.049 498.6 222.737 498.508 222.481 498.388V497.392C223.081 497.664 223.777 497.8 224.569 497.8C225.313 497.8 225.853 497.636 226.189 497.308C226.533 496.988 226.705 496.5 226.705 495.844V495.232C226.177 495.864 225.401 496.18 224.377 496.18C223.793 496.18 223.269 496.052 222.805 495.796C222.341 495.54 221.977 495.18 221.713 494.716C221.449 494.252 221.317 493.72 221.317 493.12C221.317 492.512 221.445 491.98 221.701 491.524C221.965 491.06 222.325 490.7 222.781 490.444C223.245 490.188 223.765 490.06 224.341 490.06C224.877 490.06 225.329 490.14 225.697 490.3C226.073 490.452 226.421 490.708 226.741 491.068V490.24H227.917V495.712C227.917 496.696 227.641 497.448 227.089 497.968C226.545 498.496 225.705 498.76 224.569 498.76ZM224.617 495.22C225.113 495.22 225.549 495.088 225.925 494.824C226.309 494.56 226.569 494.208 226.705 493.768V492.472C226.553 492.024 226.289 491.672 225.913 491.416C225.545 491.16 225.113 491.032 224.617 491.032C224.225 491.032 223.869 491.12 223.549 491.296C223.237 491.464 222.989 491.708 222.805 492.028C222.629 492.348 222.541 492.712 222.541 493.12C222.541 493.536 222.629 493.904 222.805 494.224C222.989 494.536 223.237 494.78 223.549 494.956C223.869 495.132 224.225 495.22 224.617 495.22ZM236.957 496.18C236.317 496.18 235.749 496.06 235.253 495.82C234.757 495.58 234.369 495.232 234.089 494.776C233.817 494.312 233.681 493.764 233.681 493.132C233.681 492.5 233.817 491.956 234.089 491.5C234.369 491.036 234.757 490.68 235.253 490.432C235.757 490.184 236.333 490.06 236.981 490.06C237.861 490.06 238.565 490.232 239.093 490.576V491.572C238.573 491.212 237.909 491.032 237.101 491.032C236.445 491.032 235.913 491.212 235.505 491.572C235.105 491.924 234.905 492.444 234.905 493.132C234.905 493.82 235.105 494.34 235.505 494.692C235.905 495.044 236.429 495.22 237.077 495.22C237.885 495.22 238.581 495.028 239.165 494.644V495.628C238.885 495.82 238.565 495.96 238.205 496.048C237.853 496.136 237.437 496.18 236.957 496.18ZM241.402 498.376C240.97 498.376 240.61 498.332 240.322 498.244V497.296C240.53 497.376 240.786 497.416 241.09 497.416C241.37 497.416 241.59 497.344 241.75 497.2C241.91 497.064 242.054 496.84 242.182 496.528L242.458 495.856L239.938 490.24H241.186L243.106 494.668L244.894 490.24H246.142L243.55 496.648C243.31 497.248 243.022 497.684 242.686 497.956C242.358 498.236 241.93 498.376 241.402 498.376ZM249.718 496.18C249.078 496.18 248.51 496.06 248.014 495.82C247.518 495.58 247.13 495.232 246.85 494.776C246.578 494.312 246.442 493.764 246.442 493.132C246.442 492.5 246.578 491.956 246.85 491.5C247.13 491.036 247.518 490.68 248.014 490.432C248.518 490.184 249.094 490.06 249.742 490.06C250.622 490.06 251.326 490.232 251.854 490.576V491.572C251.334 491.212 250.67 491.032 249.862 491.032C249.206 491.032 248.674 491.212 248.266 491.572C247.866 491.924 247.666 492.444 247.666 493.132C247.666 493.82 247.866 494.34 248.266 494.692C248.666 495.044 249.19 495.22 249.838 495.22C250.646 495.22 251.342 495.028 251.926 494.644V495.628C251.646 495.82 251.326 495.96 250.966 496.048C250.614 496.136 250.198 496.18 249.718 496.18ZM253.245 487.132H254.457V496H253.245V487.132ZM259.19 496.18C258.126 496.18 257.29 495.916 256.682 495.388C256.082 494.852 255.782 494.1 255.782 493.132C255.782 492.188 256.05 491.44 256.586 490.888C257.13 490.336 257.902 490.06 258.902 490.06C259.566 490.06 260.13 490.188 260.594 490.444C261.058 490.692 261.406 491.04 261.638 491.488C261.878 491.928 261.998 492.432 261.998 493V493.6H256.934C256.974 494.144 257.202 494.552 257.618 494.824C258.042 495.088 258.614 495.22 259.334 495.22C259.702 495.22 260.074 495.188 260.45 495.124C260.826 495.052 261.158 494.96 261.446 494.848V495.82C261.19 495.924 260.85 496.008 260.426 496.072C260.01 496.144 259.598 496.18 259.19 496.18ZM260.858 492.748C260.842 492.204 260.662 491.784 260.318 491.488C259.982 491.184 259.502 491.032 258.878 491.032C258.27 491.032 257.798 491.188 257.462 491.5C257.126 491.812 256.95 492.228 256.934 492.748H260.858ZM264.055 495.364H265.327L264.187 497.776H263.083L264.055 495.364ZM271.801 489.112C271.601 489.112 271.433 489.044 271.297 488.908C271.161 488.772 271.093 488.604 271.093 488.404C271.093 488.204 271.161 488.036 271.297 487.9C271.433 487.764 271.601 487.696 271.801 487.696C272.009 487.696 272.181 487.764 272.317 487.9C272.461 488.036 272.533 488.204 272.533 488.404C272.533 488.604 272.461 488.772 272.317 488.908C272.181 489.044 272.009 489.112 271.801 489.112ZM271.189 490.24H272.425V496H271.189V490.24ZM274.489 491.176H273.613V490.24H274.489V489.112C274.489 488.448 274.677 487.944 275.053 487.6C275.429 487.248 275.933 487.072 276.565 487.072C276.893 487.072 277.201 487.12 277.489 487.216V488.224C277.265 488.12 277.033 488.068 276.793 488.068C276.417 488.068 276.141 488.16 275.965 488.344C275.789 488.52 275.701 488.8 275.701 489.184V490.24H277.141V491.176H275.701V496H274.489V491.176ZM284.984 496.18C284.4 496.18 283.948 496.012 283.628 495.676C283.316 495.34 283.16 494.864 283.16 494.248V491.176H282.284V490.24H283.16V488.512H284.384V490.24H285.8V491.176H284.384V494.164C284.384 494.548 284.456 494.82 284.6 494.98C284.752 495.14 285.024 495.22 285.416 495.22C285.648 495.22 285.88 495.168 286.112 495.064V496.024C285.808 496.128 285.432 496.18 284.984 496.18ZM287.253 487.132H288.465V491.032C289.017 490.384 289.753 490.06 290.673 490.06C291.441 490.06 292.013 490.264 292.389 490.672C292.765 491.08 292.953 491.628 292.953 492.316V496H291.741V492.436C291.741 491.5 291.293 491.032 290.397 491.032C290.013 491.032 289.653 491.124 289.317 491.308C288.989 491.484 288.705 491.756 288.465 492.124V496H287.253V487.132ZM297.616 496.18C296.552 496.18 295.716 495.916 295.108 495.388C294.508 494.852 294.208 494.1 294.208 493.132C294.208 492.188 294.476 491.44 295.012 490.888C295.556 490.336 296.328 490.06 297.328 490.06C297.992 490.06 298.556 490.188 299.02 490.444C299.484 490.692 299.832 491.04 300.064 491.488C300.304 491.928 300.424 492.432 300.424 493V493.6H295.36C295.4 494.144 295.628 494.552 296.044 494.824C296.468 495.088 297.04 495.22 297.76 495.22C298.128 495.22 298.5 495.188 298.876 495.124C299.252 495.052 299.584 494.96 299.872 494.848V495.82C299.616 495.924 299.276 496.008 298.852 496.072C298.436 496.144 298.024 496.18 297.616 496.18ZM299.284 492.748C299.268 492.204 299.088 491.784 298.744 491.488C298.408 491.184 297.928 491.032 297.304 491.032C296.696 491.032 296.224 491.188 295.888 491.5C295.552 491.812 295.376 492.228 295.36 492.748H299.284ZM60.1257 508.24H61.3017V509.092C61.8937 508.404 62.6937 508.06 63.7017 508.06C64.2777 508.06 64.7937 508.188 65.2497 508.444C65.7137 508.7 66.0737 509.06 66.3297 509.524C66.5937 509.98 66.7257 510.512 66.7257 511.12C66.7257 511.72 66.5937 512.252 66.3297 512.716C66.0737 513.18 65.7177 513.54 65.2617 513.796C64.8057 514.052 64.2857 514.18 63.7017 514.18C63.2217 514.18 62.7737 514.1 62.3577 513.94C61.9417 513.78 61.6017 513.544 61.3377 513.232V516.628H60.1257V508.24ZM63.4257 513.22C63.8177 513.22 64.1697 513.136 64.4817 512.968C64.8017 512.792 65.0497 512.544 65.2257 512.224C65.4097 511.904 65.5017 511.536 65.5017 511.12C65.5017 510.704 65.4097 510.34 65.2257 510.028C65.0497 509.708 64.8017 509.464 64.4817 509.296C64.1697 509.12 63.8177 509.032 63.4257 509.032C62.9377 509.032 62.5057 509.16 62.1297 509.416C61.7617 509.672 61.4977 510.024 61.3377 510.472V511.768C61.4737 512.208 61.7337 512.56 62.1177 512.824C62.5017 513.088 62.9377 513.22 63.4257 513.22ZM69.8069 514.18C69.1109 514.18 68.5509 514.004 68.1269 513.652C67.7109 513.292 67.5029 512.808 67.5029 512.2C67.5029 511.56 67.7029 511.068 68.1029 510.724C68.5109 510.372 69.0869 510.196 69.8309 510.196C70.6229 510.196 71.2949 510.356 71.8469 510.676V510.376C71.8469 509.92 71.7069 509.584 71.4269 509.368C71.1549 509.144 70.7229 509.032 70.1309 509.032C69.7789 509.032 69.4349 509.068 69.0989 509.14C68.7709 509.204 68.4749 509.296 68.2109 509.416V508.432C68.4509 508.32 68.7629 508.232 69.1469 508.168C69.5309 508.096 69.9029 508.06 70.2629 508.06C71.2149 508.06 71.9189 508.272 72.3749 508.696C72.8389 509.112 73.0709 509.692 73.0709 510.436V514H71.9309V513.352C71.6829 513.624 71.3869 513.832 71.0429 513.976C70.7069 514.112 70.2949 514.18 69.8069 514.18ZM70.1069 513.256C70.4909 513.256 70.8389 513.18 71.1509 513.028C71.4629 512.876 71.6949 512.664 71.8469 512.392V511.612C71.3269 511.276 70.7469 511.108 70.1069 511.108C69.6429 511.108 69.2949 511.2 69.0629 511.384C68.8389 511.56 68.7269 511.832 68.7269 512.2C68.7269 512.904 69.1869 513.256 70.1069 513.256ZM75.2599 516.376C74.8279 516.376 74.4679 516.332 74.1799 516.244V515.296C74.3879 515.376 74.6439 515.416 74.9479 515.416C75.2279 515.416 75.4479 515.344 75.6079 515.2C75.7679 515.064 75.9119 514.84 76.0399 514.528L76.3159 513.856L73.7959 508.24H75.0439L76.9639 512.668L78.7519 508.24H79.9999L77.4079 514.648C77.1679 515.248 76.8799 515.684 76.5439 515.956C76.2159 516.236 75.7879 516.376 75.2599 516.376ZM81.0788 508.24H82.2308V509.068C82.5028 508.732 82.8108 508.48 83.1548 508.312C83.4988 508.144 83.8548 508.06 84.2228 508.06C84.6868 508.06 85.0548 508.14 85.3268 508.3C85.5988 508.452 85.7988 508.688 85.9268 509.008C86.1828 508.696 86.4948 508.46 86.8628 508.3C87.2388 508.14 87.6148 508.06 87.9908 508.06C88.6948 508.06 89.2028 508.24 89.5148 508.6C89.8268 508.952 89.9828 509.476 89.9828 510.172V514H88.8068V510.328C88.8068 509.856 88.7188 509.524 88.5428 509.332C88.3668 509.132 88.0668 509.032 87.6428 509.032C87.0348 509.032 86.5388 509.296 86.1548 509.824C86.1708 509.944 86.1788 510.14 86.1788 510.412V514H85.0028V510.328C85.0028 509.856 84.9228 509.524 84.7628 509.332C84.6028 509.132 84.3148 509.032 83.8988 509.032C83.2908 509.032 82.7468 509.376 82.2668 510.064V514H81.0788V508.24ZM94.6531 514.18C93.5891 514.18 92.7531 513.916 92.1451 513.388C91.5451 512.852 91.2451 512.1 91.2451 511.132C91.2451 510.188 91.5131 509.44 92.0491 508.888C92.5931 508.336 93.3651 508.06 94.3651 508.06C95.0291 508.06 95.5931 508.188 96.0571 508.444C96.5211 508.692 96.8691 509.04 97.1011 509.488C97.3411 509.928 97.4611 510.432 97.4611 511V511.6H92.3971C92.4371 512.144 92.6651 512.552 93.0811 512.824C93.5051 513.088 94.0771 513.22 94.7971 513.22C95.1651 513.22 95.5371 513.188 95.9131 513.124C96.2891 513.052 96.6211 512.96 96.9091 512.848V513.82C96.6531 513.924 96.3131 514.008 95.8891 514.072C95.4731 514.144 95.0611 514.18 94.6531 514.18ZM96.3211 510.748C96.3051 510.204 96.1251 509.784 95.7811 509.488C95.4451 509.184 94.9651 509.032 94.3411 509.032C93.7331 509.032 93.2611 509.188 92.9251 509.5C92.5891 509.812 92.4131 510.228 92.3971 510.748H96.3211ZM98.7859 508.24H99.9619V509.068C100.234 508.724 100.566 508.472 100.958 508.312C101.358 508.144 101.774 508.06 102.206 508.06C102.974 508.06 103.546 508.264 103.922 508.672C104.298 509.08 104.486 509.628 104.486 510.316V514H103.274V510.436C103.274 509.5 102.826 509.032 101.93 509.032C101.546 509.032 101.186 509.124 100.85 509.308C100.522 509.484 100.238 509.756 99.9979 510.124V514H98.7859V508.24ZM108.201 514.18C107.617 514.18 107.165 514.012 106.845 513.676C106.533 513.34 106.377 512.864 106.377 512.248V509.176H105.501V508.24H106.377V506.512H107.601V508.24H109.017V509.176H107.601V512.164C107.601 512.548 107.673 512.82 107.817 512.98C107.969 513.14 108.241 513.22 108.633 513.22C108.865 513.22 109.097 513.168 109.329 513.064V514.024C109.025 514.128 108.649 514.18 108.201 514.18ZM117.695 514.18C117.119 514.18 116.599 514.056 116.135 513.808C115.679 513.552 115.319 513.196 115.055 512.74C114.799 512.276 114.671 511.74 114.671 511.132C114.671 510.532 114.799 510 115.055 509.536C115.319 509.072 115.679 508.712 116.135 508.456C116.599 508.192 117.119 508.06 117.695 508.06C118.735 508.06 119.523 508.376 120.059 509.008V505.132H121.271V514H120.095V513.16C119.775 513.512 119.423 513.772 119.039 513.94C118.663 514.1 118.215 514.18 117.695 514.18ZM117.971 513.22C118.467 513.22 118.899 513.092 119.267 512.836C119.643 512.572 119.907 512.22 120.059 511.78V510.484C119.923 510.044 119.663 509.692 119.279 509.428C118.903 509.164 118.467 509.032 117.971 509.032C117.579 509.032 117.223 509.12 116.903 509.296C116.591 509.472 116.343 509.72 116.159 510.04C115.983 510.36 115.895 510.724 115.895 511.132C115.895 511.54 115.983 511.904 116.159 512.224C116.343 512.544 116.591 512.792 116.903 512.968C117.223 513.136 117.579 513.22 117.971 513.22ZM126.001 514.18C124.937 514.18 124.101 513.916 123.493 513.388C122.893 512.852 122.593 512.1 122.593 511.132C122.593 510.188 122.861 509.44 123.397 508.888C123.941 508.336 124.713 508.06 125.713 508.06C126.377 508.06 126.941 508.188 127.405 508.444C127.869 508.692 128.217 509.04 128.449 509.488C128.689 509.928 128.809 510.432 128.809 511V511.6H123.745C123.785 512.144 124.013 512.552 124.429 512.824C124.853 513.088 125.425 513.22 126.145 513.22C126.513 513.22 126.885 513.188 127.261 513.124C127.637 513.052 127.969 512.96 128.257 512.848V513.82C128.001 513.924 127.661 514.008 127.237 514.072C126.821 514.144 126.409 514.18 126.001 514.18ZM127.669 510.748C127.653 510.204 127.473 509.784 127.129 509.488C126.793 509.184 126.313 509.032 125.689 509.032C125.081 509.032 124.609 509.188 124.273 509.5C123.937 509.812 123.761 510.228 123.745 510.748H127.669ZM132.354 514.18C131.77 514.18 131.318 514.012 130.998 513.676C130.686 513.34 130.53 512.864 130.53 512.248V509.176H129.654V508.24H130.53V506.512H131.754V508.24H133.17V509.176H131.754V512.164C131.754 512.548 131.826 512.82 131.97 512.98C132.122 513.14 132.394 513.22 132.786 513.22C133.018 513.22 133.25 513.168 133.482 513.064V514.024C133.178 514.128 132.802 514.18 132.354 514.18ZM136.51 514.18C135.814 514.18 135.254 514.004 134.83 513.652C134.414 513.292 134.206 512.808 134.206 512.2C134.206 511.56 134.406 511.068 134.806 510.724C135.214 510.372 135.79 510.196 136.534 510.196C137.326 510.196 137.998 510.356 138.55 510.676V510.376C138.55 509.92 138.41 509.584 138.13 509.368C137.858 509.144 137.426 509.032 136.834 509.032C136.482 509.032 136.138 509.068 135.802 509.14C135.474 509.204 135.178 509.296 134.914 509.416V508.432C135.154 508.32 135.466 508.232 135.85 508.168C136.234 508.096 136.606 508.06 136.966 508.06C137.918 508.06 138.622 508.272 139.078 508.696C139.542 509.112 139.774 509.692 139.774 510.436V514H138.634V513.352C138.386 513.624 138.09 513.832 137.746 513.976C137.41 514.112 136.998 514.18 136.51 514.18ZM136.81 513.256C137.194 513.256 137.542 513.18 137.854 513.028C138.166 512.876 138.398 512.664 138.55 512.392V511.612C138.03 511.276 137.45 511.108 136.81 511.108C136.346 511.108 135.998 511.2 135.766 511.384C135.542 511.56 135.43 511.832 135.43 512.2C135.43 512.904 135.89 513.256 136.81 513.256ZM141.986 507.112C141.786 507.112 141.618 507.044 141.482 506.908C141.346 506.772 141.278 506.604 141.278 506.404C141.278 506.204 141.346 506.036 141.482 505.9C141.618 505.764 141.786 505.696 141.986 505.696C142.194 505.696 142.366 505.764 142.502 505.9C142.646 506.036 142.718 506.204 142.718 506.404C142.718 506.604 142.646 506.772 142.502 506.908C142.366 507.044 142.194 507.112 141.986 507.112ZM141.374 508.24H142.61V514H141.374V508.24ZM144.278 505.132H145.49V514H144.278V505.132ZM149.179 514.18C148.779 514.18 148.355 514.128 147.907 514.024C147.459 513.928 147.107 513.796 146.851 513.628V512.596C147.163 512.78 147.523 512.932 147.931 513.052C148.339 513.164 148.735 513.22 149.119 513.22C149.551 513.22 149.867 513.168 150.067 513.064C150.267 512.96 150.367 512.792 150.367 512.56C150.367 512.384 150.319 512.244 150.223 512.14C150.135 512.028 149.979 511.928 149.755 511.84C149.539 511.752 149.211 511.648 148.771 511.528C148.299 511.392 147.923 511.256 147.643 511.12C147.371 510.976 147.163 510.796 147.019 510.58C146.883 510.364 146.815 510.084 146.815 509.74C146.815 509.188 147.031 508.772 147.463 508.492C147.903 508.204 148.491 508.06 149.227 508.06C149.611 508.06 149.987 508.096 150.355 508.168C150.723 508.24 151.019 508.34 151.243 508.468V509.476C151.011 509.34 150.723 509.232 150.379 509.152C150.043 509.072 149.699 509.032 149.347 509.032C148.923 509.032 148.599 509.084 148.375 509.188C148.151 509.292 148.039 509.476 148.039 509.74C148.039 509.908 148.087 510.044 148.183 510.148C148.279 510.252 148.431 510.344 148.639 510.424C148.855 510.496 149.195 510.592 149.659 510.712C150.387 510.912 150.891 511.148 151.171 511.42C151.459 511.692 151.603 512.068 151.603 512.548C151.603 513.044 151.399 513.44 150.991 513.736C150.583 514.032 149.979 514.18 149.179 514.18ZM159.432 514.18C158.736 514.18 158.176 514.004 157.752 513.652C157.336 513.292 157.128 512.808 157.128 512.2C157.128 511.56 157.328 511.068 157.728 510.724C158.136 510.372 158.712 510.196 159.456 510.196C160.248 510.196 160.92 510.356 161.472 510.676V510.376C161.472 509.92 161.332 509.584 161.052 509.368C160.78 509.144 160.348 509.032 159.756 509.032C159.404 509.032 159.06 509.068 158.724 509.14C158.396 509.204 158.1 509.296 157.836 509.416V508.432C158.076 508.32 158.388 508.232 158.772 508.168C159.156 508.096 159.528 508.06 159.888 508.06C160.84 508.06 161.544 508.272 162 508.696C162.464 509.112 162.696 509.692 162.696 510.436V514H161.556V513.352C161.308 513.624 161.012 513.832 160.668 513.976C160.332 514.112 159.92 514.18 159.432 514.18ZM159.732 513.256C160.116 513.256 160.464 513.18 160.776 513.028C161.088 512.876 161.32 512.664 161.472 512.392V511.612C160.952 511.276 160.372 511.108 159.732 511.108C159.268 511.108 158.92 511.2 158.688 511.384C158.464 511.56 158.352 511.832 158.352 512.2C158.352 512.904 158.812 513.256 159.732 513.256ZM164.2 508.24H165.376V509.272C165.616 508.92 165.952 508.66 166.384 508.492C166.824 508.324 167.332 508.24 167.908 508.24V509.188C167.292 509.188 166.764 509.288 166.324 509.488C165.884 509.688 165.58 510.004 165.412 510.436V514H164.2V508.24ZM171.798 514.18C170.734 514.18 169.898 513.916 169.29 513.388C168.69 512.852 168.39 512.1 168.39 511.132C168.39 510.188 168.658 509.44 169.194 508.888C169.738 508.336 170.51 508.06 171.51 508.06C172.174 508.06 172.738 508.188 173.202 508.444C173.666 508.692 174.014 509.04 174.246 509.488C174.486 509.928 174.606 510.432 174.606 511V511.6H169.542C169.582 512.144 169.81 512.552 170.226 512.824C170.65 513.088 171.222 513.22 171.942 513.22C172.31 513.22 172.682 513.188 173.058 513.124C173.434 513.052 173.766 512.96 174.054 512.848V513.82C173.798 513.924 173.458 514.008 173.034 514.072C172.618 514.144 172.206 514.18 171.798 514.18ZM173.466 510.748C173.45 510.204 173.27 509.784 172.926 509.488C172.59 509.184 172.11 509.032 171.486 509.032C170.878 509.032 170.406 509.188 170.07 509.5C169.734 509.812 169.558 510.228 169.542 510.748H173.466ZM183.408 514.18C182.76 514.18 182.188 514.06 181.692 513.82C181.204 513.572 180.82 513.22 180.54 512.764C180.268 512.3 180.132 511.756 180.132 511.132C180.132 510.516 180.268 509.976 180.54 509.512C180.812 509.048 181.196 508.692 181.692 508.444C182.188 508.188 182.76 508.06 183.408 508.06C184.056 508.06 184.628 508.188 185.124 508.444C185.62 508.692 186.004 509.048 186.276 509.512C186.556 509.976 186.696 510.516 186.696 511.132C186.696 511.756 186.556 512.3 186.276 512.764C186.004 513.22 185.62 513.572 185.124 513.82C184.628 514.06 184.056 514.18 183.408 514.18ZM183.408 513.22C184.032 513.22 184.528 513.028 184.896 512.644C185.264 512.26 185.448 511.756 185.448 511.132C185.448 510.484 185.264 509.972 184.896 509.596C184.528 509.22 184.032 509.032 183.408 509.032C182.784 509.032 182.288 509.22 181.92 509.596C181.552 509.972 181.368 510.484 181.368 511.132C181.368 511.756 181.552 512.26 181.92 512.644C182.288 513.028 182.784 513.22 183.408 513.22ZM190.304 514.18C189.528 514.18 188.94 513.972 188.54 513.556C188.148 513.14 187.952 512.584 187.952 511.888V508.24H189.164V511.84C189.164 512.76 189.624 513.22 190.544 513.22C191.352 513.22 191.984 512.856 192.44 512.128V508.24H193.652V514H192.476V513.184C192.204 513.528 191.88 513.78 191.504 513.94C191.136 514.1 190.736 514.18 190.304 514.18ZM197.428 514.18C196.844 514.18 196.392 514.012 196.072 513.676C195.76 513.34 195.604 512.864 195.604 512.248V509.176H194.728V508.24H195.604V506.512H196.828V508.24H198.244V509.176H196.828V512.164C196.828 512.548 196.9 512.82 197.044 512.98C197.196 513.14 197.468 513.22 197.86 513.22C198.092 513.22 198.324 513.168 198.556 513.064V514.024C198.252 514.128 197.876 514.18 197.428 514.18ZM207.173 514.18C206.525 514.18 205.953 514.06 205.457 513.82C204.969 513.572 204.585 513.22 204.305 512.764C204.033 512.3 203.897 511.756 203.897 511.132C203.897 510.516 204.033 509.976 204.305 509.512C204.577 509.048 204.961 508.692 205.457 508.444C205.953 508.188 206.525 508.06 207.173 508.06C207.821 508.06 208.393 508.188 208.889 508.444C209.385 508.692 209.769 509.048 210.041 509.512C210.321 509.976 210.461 510.516 210.461 511.132C210.461 511.756 210.321 512.3 210.041 512.764C209.769 513.22 209.385 513.572 208.889 513.82C208.393 514.06 207.821 514.18 207.173 514.18ZM207.173 513.22C207.797 513.22 208.293 513.028 208.661 512.644C209.029 512.26 209.213 511.756 209.213 511.132C209.213 510.484 209.029 509.972 208.661 509.596C208.293 509.22 207.797 509.032 207.173 509.032C206.549 509.032 206.053 509.22 205.685 509.596C205.317 509.972 205.133 510.484 205.133 511.132C205.133 511.756 205.317 512.26 205.685 512.644C206.053 513.028 206.549 513.22 207.173 513.22ZM211.752 509.176H210.876V508.24H211.752V507.112C211.752 506.448 211.94 505.944 212.316 505.6C212.692 505.248 213.196 505.072 213.828 505.072C214.156 505.072 214.464 505.12 214.752 505.216V506.224C214.528 506.12 214.296 506.068 214.056 506.068C213.68 506.068 213.404 506.16 213.228 506.344C213.052 506.52 212.964 506.8 212.964 507.184V508.24H214.404V509.176H212.964V514H211.752V509.176ZM222.812 514.18C222.236 514.18 221.716 514.056 221.252 513.808C220.796 513.552 220.436 513.196 220.172 512.74C219.916 512.276 219.788 511.74 219.788 511.132C219.788 510.532 219.916 510 220.172 509.536C220.436 509.072 220.796 508.712 221.252 508.456C221.716 508.192 222.236 508.06 222.812 508.06C223.852 508.06 224.64 508.376 225.176 509.008V505.132H226.388V514H225.212V513.16C224.892 513.512 224.54 513.772 224.156 513.94C223.78 514.1 223.332 514.18 222.812 514.18ZM223.088 513.22C223.584 513.22 224.016 513.092 224.384 512.836C224.76 512.572 225.024 512.22 225.176 511.78V510.484C225.04 510.044 224.78 509.692 224.396 509.428C224.02 509.164 223.584 509.032 223.088 509.032C222.696 509.032 222.34 509.12 222.02 509.296C221.708 509.472 221.46 509.72 221.276 510.04C221.1 510.36 221.012 510.724 221.012 511.132C221.012 511.54 221.1 511.904 221.276 512.224C221.46 512.544 221.708 512.792 222.02 512.968C222.34 513.136 222.696 513.22 223.088 513.22ZM229.838 514.18C229.142 514.18 228.582 514.004 228.158 513.652C227.742 513.292 227.534 512.808 227.534 512.2C227.534 511.56 227.734 511.068 228.134 510.724C228.542 510.372 229.118 510.196 229.862 510.196C230.654 510.196 231.326 510.356 231.878 510.676V510.376C231.878 509.92 231.738 509.584 231.458 509.368C231.186 509.144 230.754 509.032 230.162 509.032C229.81 509.032 229.466 509.068 229.13 509.14C228.802 509.204 228.506 509.296 228.242 509.416V508.432C228.482 508.32 228.794 508.232 229.178 508.168C229.562 508.096 229.934 508.06 230.294 508.06C231.246 508.06 231.95 508.272 232.406 508.696C232.87 509.112 233.102 509.692 233.102 510.436V514H231.962V513.352C231.714 513.624 231.418 513.832 231.074 513.976C230.738 514.112 230.326 514.18 229.838 514.18ZM230.138 513.256C230.522 513.256 230.87 513.18 231.182 513.028C231.494 512.876 231.726 512.664 231.878 512.392V511.612C231.358 511.276 230.778 511.108 230.138 511.108C229.674 511.108 229.326 511.2 229.094 511.384C228.87 511.56 228.758 511.832 228.758 512.2C228.758 512.904 229.218 513.256 230.138 513.256ZM236.521 514.18C235.937 514.18 235.485 514.012 235.165 513.676C234.853 513.34 234.697 512.864 234.697 512.248V509.176H233.821V508.24H234.697V506.512H235.921V508.24H237.337V509.176H235.921V512.164C235.921 512.548 235.993 512.82 236.137 512.98C236.289 513.14 236.561 513.22 236.953 513.22C237.185 513.22 237.417 513.168 237.649 513.064V514.024C237.345 514.128 236.969 514.18 236.521 514.18ZM241.958 514.18C240.894 514.18 240.058 513.916 239.45 513.388C238.85 512.852 238.55 512.1 238.55 511.132C238.55 510.188 238.818 509.44 239.354 508.888C239.898 508.336 240.67 508.06 241.67 508.06C242.334 508.06 242.898 508.188 243.362 508.444C243.826 508.692 244.174 509.04 244.406 509.488C244.646 509.928 244.766 510.432 244.766 511V511.6H239.702C239.742 512.144 239.97 512.552 240.386 512.824C240.81 513.088 241.382 513.22 242.102 513.22C242.47 513.22 242.842 513.188 243.218 513.124C243.594 513.052 243.926 512.96 244.214 512.848V513.82C243.958 513.924 243.618 514.008 243.194 514.072C242.778 514.144 242.366 514.18 241.958 514.18ZM243.626 510.748C243.61 510.204 243.43 509.784 243.086 509.488C242.75 509.184 242.27 509.032 241.646 509.032C241.038 509.032 240.566 509.188 240.23 509.5C239.894 509.812 239.718 510.228 239.702 510.748H243.626ZM246.823 513.364H248.095L246.955 515.776H245.851L246.823 513.364ZM255.084 516.376C254.652 516.376 254.292 516.332 254.004 516.244V515.296C254.212 515.376 254.468 515.416 254.772 515.416C255.052 515.416 255.272 515.344 255.432 515.2C255.592 515.064 255.736 514.84 255.864 514.528L256.14 513.856L253.62 508.24H254.868L256.788 512.668L258.576 508.24H259.824L257.232 514.648C256.992 515.248 256.704 515.684 256.368 515.956C256.04 516.236 255.612 516.376 255.084 516.376ZM263.154 514.18C262.506 514.18 261.934 514.06 261.438 513.82C260.95 513.572 260.566 513.22 260.286 512.764C260.014 512.3 259.878 511.756 259.878 511.132C259.878 510.516 260.014 509.976 260.286 509.512C260.558 509.048 260.942 508.692 261.438 508.444C261.934 508.188 262.506 508.06 263.154 508.06C263.802 508.06 264.374 508.188 264.87 508.444C265.366 508.692 265.75 509.048 266.022 509.512C266.302 509.976 266.442 510.516 266.442 511.132C266.442 511.756 266.302 512.3 266.022 512.764C265.75 513.22 265.366 513.572 264.87 513.82C264.374 514.06 263.802 514.18 263.154 514.18ZM263.154 513.22C263.778 513.22 264.274 513.028 264.642 512.644C265.01 512.26 265.194 511.756 265.194 511.132C265.194 510.484 265.01 509.972 264.642 509.596C264.274 509.22 263.778 509.032 263.154 509.032C262.53 509.032 262.034 509.22 261.666 509.596C261.298 509.972 261.114 510.484 261.114 511.132C261.114 511.756 261.298 512.26 261.666 512.644C262.034 513.028 262.53 513.22 263.154 513.22ZM270.051 514.18C269.275 514.18 268.687 513.972 268.287 513.556C267.895 513.14 267.699 512.584 267.699 511.888V508.24H268.911V511.84C268.911 512.76 269.371 513.22 270.291 513.22C271.099 513.22 271.731 512.856 272.187 512.128V508.24H273.399V514H272.223V513.184C271.951 513.528 271.627 513.78 271.251 513.94C270.883 514.1 270.483 514.18 270.051 514.18ZM279.155 508.24H280.391L281.687 512.512L282.971 508.24H284.063L285.347 512.512L286.643 508.24H287.891L286.019 514H284.855L283.523 509.704L282.191 514H281.015L279.155 508.24ZM289.924 507.112C289.724 507.112 289.556 507.044 289.42 506.908C289.284 506.772 289.216 506.604 289.216 506.404C289.216 506.204 289.284 506.036 289.42 505.9C289.556 505.764 289.724 505.696 289.924 505.696C290.132 505.696 290.304 505.764 290.44 505.9C290.584 506.036 290.656 506.204 290.656 506.404C290.656 506.604 290.584 506.772 290.44 506.908C290.304 507.044 290.132 507.112 289.924 507.112ZM289.312 508.24H290.548V514H289.312V508.24ZM292.216 505.132H293.428V514H292.216V505.132ZM294.993 505.132H296.205V514H294.993V505.132ZM305.788 514.18C305.268 514.18 304.816 514.1 304.432 513.94C304.056 513.772 303.708 513.512 303.388 513.16V514H302.212V505.132H303.424V509.008C303.688 508.696 304.028 508.46 304.444 508.3C304.86 508.14 305.308 508.06 305.788 508.06C306.364 508.06 306.88 508.192 307.336 508.456C307.8 508.712 308.16 509.072 308.416 509.536C308.68 510 308.812 510.532 308.812 511.132C308.812 511.74 308.68 512.276 308.416 512.74C308.16 513.196 307.8 513.552 307.336 513.808C306.88 514.056 306.364 514.18 305.788 514.18ZM305.512 513.22C305.904 513.22 306.256 513.136 306.568 512.968C306.888 512.792 307.136 512.544 307.312 512.224C307.496 511.904 307.588 511.54 307.588 511.132C307.588 510.724 307.496 510.36 307.312 510.04C307.136 509.72 306.888 509.472 306.568 509.296C306.256 509.12 305.904 509.032 305.512 509.032C305.024 509.032 304.588 509.164 304.204 509.428C303.82 509.692 303.56 510.044 303.424 510.484V511.78C303.576 512.22 303.836 512.572 304.204 512.836C304.58 513.092 305.016 513.22 305.512 513.22ZM313.302 514.18C312.238 514.18 311.402 513.916 310.794 513.388C310.194 512.852 309.894 512.1 309.894 511.132C309.894 510.188 310.162 509.44 310.698 508.888C311.242 508.336 312.014 508.06 313.014 508.06C313.678 508.06 314.242 508.188 314.706 508.444C315.17 508.692 315.518 509.04 315.75 509.488C315.99 509.928 316.11 510.432 316.11 511V511.6H311.046C311.086 512.144 311.314 512.552 311.73 512.824C312.154 513.088 312.726 513.22 313.446 513.22C313.814 513.22 314.186 513.188 314.562 513.124C314.938 513.052 315.27 512.96 315.558 512.848V513.82C315.302 513.924 314.962 514.008 314.538 514.072C314.122 514.144 313.71 514.18 313.302 514.18ZM314.97 510.748C314.954 510.204 314.774 509.784 314.43 509.488C314.094 509.184 313.614 509.032 312.99 509.032C312.382 509.032 311.91 509.188 311.574 509.5C311.238 509.812 311.062 510.228 311.046 510.748H314.97ZM54.9695 526.24H56.1455V527.272C56.3855 526.92 56.7215 526.66 57.1535 526.492C57.5935 526.324 58.1015 526.24 58.6775 526.24V527.188C58.0615 527.188 57.5335 527.288 57.0935 527.488C56.6535 527.688 56.3495 528.004 56.1815 528.436V532H54.9695V526.24ZM62.5671 532.18C61.5031 532.18 60.6671 531.916 60.0591 531.388C59.4591 530.852 59.1591 530.1 59.1591 529.132C59.1591 528.188 59.4271 527.44 59.9631 526.888C60.5071 526.336 61.2791 526.06 62.2791 526.06C62.9431 526.06 63.5071 526.188 63.9711 526.444C64.4351 526.692 64.7831 527.04 65.0151 527.488C65.2551 527.928 65.3751 528.432 65.3751 529V529.6H60.3111C60.3511 530.144 60.5791 530.552 60.9951 530.824C61.4191 531.088 61.9911 531.22 62.7111 531.22C63.0791 531.22 63.4511 531.188 63.8271 531.124C64.2031 531.052 64.5351 530.96 64.8231 530.848V531.82C64.5671 531.924 64.2271 532.008 63.8031 532.072C63.3871 532.144 62.9751 532.18 62.5671 532.18ZM64.2351 528.748C64.2191 528.204 64.0391 527.784 63.6951 527.488C63.3591 527.184 62.8791 527.032 62.2551 527.032C61.6471 527.032 61.1751 527.188 60.8391 527.5C60.5031 527.812 60.3271 528.228 60.3111 528.748H64.2351ZM66.6999 526.24H67.8519V527.068C68.1239 526.732 68.4319 526.48 68.7759 526.312C69.1199 526.144 69.4759 526.06 69.8439 526.06C70.3079 526.06 70.6759 526.14 70.9479 526.3C71.2199 526.452 71.4199 526.688 71.5479 527.008C71.8039 526.696 72.1159 526.46 72.4839 526.3C72.8599 526.14 73.2359 526.06 73.6119 526.06C74.3159 526.06 74.8239 526.24 75.1359 526.6C75.4479 526.952 75.6039 527.476 75.6039 528.172V532H74.4279V528.328C74.4279 527.856 74.3399 527.524 74.1639 527.332C73.9879 527.132 73.6879 527.032 73.2639 527.032C72.6559 527.032 72.1599 527.296 71.7759 527.824C71.7919 527.944 71.7999 528.14 71.7999 528.412V532H70.6239V528.328C70.6239 527.856 70.5439 527.524 70.3839 527.332C70.2239 527.132 69.9359 527.032 69.5199 527.032C68.9119 527.032 68.3679 527.376 67.8879 528.064V532H66.6999V526.24ZM79.9664 532.18C79.3184 532.18 78.7464 532.06 78.2504 531.82C77.7624 531.572 77.3784 531.22 77.0984 530.764C76.8264 530.3 76.6904 529.756 76.6904 529.132C76.6904 528.516 76.8264 527.976 77.0984 527.512C77.3704 527.048 77.7544 526.692 78.2504 526.444C78.7464 526.188 79.3184 526.06 79.9664 526.06C80.6144 526.06 81.1864 526.188 81.6824 526.444C82.1784 526.692 82.5624 527.048 82.8344 527.512C83.1144 527.976 83.2544 528.516 83.2544 529.132C83.2544 529.756 83.1144 530.3 82.8344 530.764C82.5624 531.22 82.1784 531.572 81.6824 531.82C81.1864 532.06 80.6144 532.18 79.9664 532.18ZM79.9664 531.22C80.5904 531.22 81.0864 531.028 81.4544 530.644C81.8224 530.26 82.0064 529.756 82.0064 529.132C82.0064 528.484 81.8224 527.972 81.4544 527.596C81.0864 527.22 80.5904 527.032 79.9664 527.032C79.3424 527.032 78.8464 527.22 78.4784 527.596C78.1104 527.972 77.9264 528.484 77.9264 529.132C77.9264 529.756 78.1104 530.26 78.4784 530.644C78.8464 531.028 79.3424 531.22 79.9664 531.22ZM83.5459 526.24H84.8299L86.5219 530.38L88.2139 526.24H89.4979L87.0499 532H85.9939L83.5459 526.24ZM93.5046 532.18C92.4406 532.18 91.6046 531.916 90.9966 531.388C90.3966 530.852 90.0966 530.1 90.0966 529.132C90.0966 528.188 90.3646 527.44 90.9006 526.888C91.4446 526.336 92.2166 526.06 93.2166 526.06C93.8806 526.06 94.4446 526.188 94.9086 526.444C95.3726 526.692 95.7206 527.04 95.9526 527.488C96.1926 527.928 96.3126 528.432 96.3126 529V529.6H91.2486C91.2886 530.144 91.5166 530.552 91.9326 530.824C92.3566 531.088 92.9286 531.22 93.6486 531.22C94.0166 531.22 94.3886 531.188 94.7646 531.124C95.1406 531.052 95.4726 530.96 95.7606 530.848V531.82C95.5046 531.924 95.1646 532.008 94.7406 532.072C94.3246 532.144 93.9126 532.18 93.5046 532.18ZM95.1726 528.748C95.1566 528.204 94.9766 527.784 94.6326 527.488C94.2966 527.184 93.8166 527.032 93.1926 527.032C92.5846 527.032 92.1126 527.188 91.7766 527.5C91.4406 527.812 91.2646 528.228 91.2486 528.748H95.1726ZM100.421 532.18C99.8454 532.18 99.3254 532.056 98.8614 531.808C98.4054 531.552 98.0454 531.196 97.7814 530.74C97.5254 530.276 97.3974 529.74 97.3974 529.132C97.3974 528.532 97.5254 528 97.7814 527.536C98.0454 527.072 98.4054 526.712 98.8614 526.456C99.3254 526.192 99.8454 526.06 100.421 526.06C101.461 526.06 102.249 526.376 102.785 527.008V523.132H103.997V532H102.821V531.16C102.501 531.512 102.149 531.772 101.765 531.94C101.389 532.1 100.941 532.18 100.421 532.18ZM100.697 531.22C101.193 531.22 101.625 531.092 101.993 530.836C102.369 530.572 102.633 530.22 102.785 529.78V528.484C102.649 528.044 102.389 527.692 102.005 527.428C101.629 527.164 101.193 527.032 100.697 527.032C100.305 527.032 99.9494 527.12 99.6294 527.296C99.3174 527.472 99.0694 527.72 98.8854 528.04C98.7094 528.36 98.6214 528.724 98.6214 529.132C98.6214 529.54 98.7094 529.904 98.8854 530.224C99.0694 530.544 99.3174 530.792 99.6294 530.968C99.9494 531.136 100.305 531.22 100.697 531.22ZM110.397 527.176H109.521V526.24H110.397V525.112C110.397 524.448 110.585 523.944 110.961 523.6C111.337 523.248 111.841 523.072 112.473 523.072C112.801 523.072 113.109 523.12 113.397 523.216V524.224C113.173 524.12 112.941 524.068 112.701 524.068C112.325 524.068 112.049 524.16 111.873 524.344C111.697 524.52 111.609 524.8 111.609 525.184V526.24H113.049V527.176H111.609V532H110.397V527.176ZM114.173 526.24H115.349V527.272C115.589 526.92 115.925 526.66 116.357 526.492C116.797 526.324 117.305 526.24 117.881 526.24V527.188C117.265 527.188 116.737 527.288 116.297 527.488C115.857 527.688 115.553 528.004 115.385 528.436V532H114.173V526.24ZM121.826 532.18C121.178 532.18 120.606 532.06 120.11 531.82C119.622 531.572 119.238 531.22 118.958 530.764C118.686 530.3 118.55 529.756 118.55 529.132C118.55 528.516 118.686 527.976 118.958 527.512C119.23 527.048 119.614 526.692 120.11 526.444C120.606 526.188 121.178 526.06 121.826 526.06C122.474 526.06 123.046 526.188 123.542 526.444C124.038 526.692 124.422 527.048 124.694 527.512C124.974 527.976 125.114 528.516 125.114 529.132C125.114 529.756 124.974 530.3 124.694 530.764C124.422 531.22 124.038 531.572 123.542 531.82C123.046 532.06 122.474 532.18 121.826 532.18ZM121.826 531.22C122.45 531.22 122.946 531.028 123.314 530.644C123.682 530.26 123.866 529.756 123.866 529.132C123.866 528.484 123.682 527.972 123.314 527.596C122.946 527.22 122.45 527.032 121.826 527.032C121.202 527.032 120.706 527.22 120.338 527.596C119.97 527.972 119.786 528.484 119.786 529.132C119.786 529.756 119.97 530.26 120.338 530.644C120.706 531.028 121.202 531.22 121.826 531.22ZM126.43 526.24H127.582V527.068C127.854 526.732 128.162 526.48 128.506 526.312C128.85 526.144 129.206 526.06 129.574 526.06C130.038 526.06 130.406 526.14 130.678 526.3C130.95 526.452 131.15 526.688 131.278 527.008C131.534 526.696 131.846 526.46 132.214 526.3C132.59 526.14 132.966 526.06 133.342 526.06C134.046 526.06 134.554 526.24 134.866 526.6C135.178 526.952 135.334 527.476 135.334 528.172V532H134.158V528.328C134.158 527.856 134.07 527.524 133.894 527.332C133.718 527.132 133.418 527.032 132.994 527.032C132.386 527.032 131.89 527.296 131.506 527.824C131.522 527.944 131.53 528.14 131.53 528.412V532H130.354V528.328C130.354 527.856 130.274 527.524 130.114 527.332C129.954 527.132 129.666 527.032 129.25 527.032C128.642 527.032 128.098 527.376 127.618 528.064V532H126.43V526.24ZM143.498 532.18C142.914 532.18 142.462 532.012 142.142 531.676C141.83 531.34 141.674 530.864 141.674 530.248V527.176H140.798V526.24H141.674V524.512H142.898V526.24H144.314V527.176H142.898V530.164C142.898 530.548 142.97 530.82 143.114 530.98C143.266 531.14 143.538 531.22 143.93 531.22C144.162 531.22 144.394 531.168 144.626 531.064V532.024C144.322 532.128 143.946 532.18 143.498 532.18ZM145.766 523.132H146.978V527.032C147.53 526.384 148.266 526.06 149.186 526.06C149.954 526.06 150.526 526.264 150.902 526.672C151.278 527.08 151.466 527.628 151.466 528.316V532H150.254V528.436C150.254 527.5 149.806 527.032 148.91 527.032C148.526 527.032 148.166 527.124 147.83 527.308C147.502 527.484 147.218 527.756 146.978 528.124V532H145.766V523.132ZM156.13 532.18C155.066 532.18 154.23 531.916 153.622 531.388C153.022 530.852 152.722 530.1 152.722 529.132C152.722 528.188 152.99 527.44 153.526 526.888C154.07 526.336 154.842 526.06 155.842 526.06C156.506 526.06 157.07 526.188 157.534 526.444C157.998 526.692 158.346 527.04 158.578 527.488C158.818 527.928 158.938 528.432 158.938 529V529.6H153.874C153.914 530.144 154.142 530.552 154.558 530.824C154.982 531.088 155.554 531.22 156.274 531.22C156.642 531.22 157.014 531.188 157.39 531.124C157.766 531.052 158.098 530.96 158.386 530.848V531.82C158.13 531.924 157.79 532.008 157.366 532.072C156.95 532.144 156.538 532.18 156.13 532.18ZM157.798 528.748C157.782 528.204 157.602 527.784 157.258 527.488C156.922 527.184 156.442 527.032 155.818 527.032C155.21 527.032 154.738 527.188 154.402 527.5C154.066 527.812 153.89 528.228 153.874 528.748H157.798ZM164.704 526.24H165.88V527.272C166.12 526.92 166.456 526.66 166.888 526.492C167.328 526.324 167.836 526.24 168.412 526.24V527.188C167.796 527.188 167.268 527.288 166.828 527.488C166.388 527.688 166.084 528.004 165.916 528.436V532H164.704V526.24ZM172.302 532.18C171.238 532.18 170.402 531.916 169.794 531.388C169.194 530.852 168.894 530.1 168.894 529.132C168.894 528.188 169.162 527.44 169.698 526.888C170.242 526.336 171.014 526.06 172.014 526.06C172.678 526.06 173.242 526.188 173.706 526.444C174.17 526.692 174.518 527.04 174.75 527.488C174.99 527.928 175.11 528.432 175.11 529V529.6H170.046C170.086 530.144 170.314 530.552 170.73 530.824C171.154 531.088 171.726 531.22 172.446 531.22C172.814 531.22 173.186 531.188 173.562 531.124C173.938 531.052 174.27 530.96 174.558 530.848V531.82C174.302 531.924 173.962 532.008 173.538 532.072C173.122 532.144 172.71 532.18 172.302 532.18ZM173.97 528.748C173.954 528.204 173.774 527.784 173.43 527.488C173.094 527.184 172.614 527.032 171.99 527.032C171.382 527.032 170.91 527.188 170.574 527.5C170.238 527.812 170.062 528.228 170.046 528.748H173.97ZM176.434 523.132H177.646V532H176.434V523.132ZM182.38 532.18C181.316 532.18 180.48 531.916 179.872 531.388C179.272 530.852 178.972 530.1 178.972 529.132C178.972 528.188 179.24 527.44 179.776 526.888C180.32 526.336 181.092 526.06 182.092 526.06C182.756 526.06 183.32 526.188 183.784 526.444C184.248 526.692 184.596 527.04 184.828 527.488C185.068 527.928 185.188 528.432 185.188 529V529.6H180.124C180.164 530.144 180.392 530.552 180.808 530.824C181.232 531.088 181.804 531.22 182.524 531.22C182.892 531.22 183.264 531.188 183.64 531.124C184.016 531.052 184.348 530.96 184.636 530.848V531.82C184.38 531.924 184.04 532.008 183.616 532.072C183.2 532.144 182.788 532.18 182.38 532.18ZM184.048 528.748C184.032 528.204 183.852 527.784 183.508 527.488C183.172 527.184 182.692 527.032 182.068 527.032C181.46 527.032 180.988 527.188 180.652 527.5C180.316 527.812 180.14 528.228 180.124 528.748H184.048ZM185.792 526.24H187.076L188.768 530.38L190.46 526.24H191.744L189.296 532H188.24L185.792 526.24ZM194.588 532.18C193.892 532.18 193.332 532.004 192.908 531.652C192.492 531.292 192.284 530.808 192.284 530.2C192.284 529.56 192.484 529.068 192.884 528.724C193.292 528.372 193.868 528.196 194.612 528.196C195.404 528.196 196.076 528.356 196.628 528.676V528.376C196.628 527.92 196.488 527.584 196.208 527.368C195.936 527.144 195.504 527.032 194.912 527.032C194.56 527.032 194.216 527.068 193.88 527.14C193.552 527.204 193.256 527.296 192.992 527.416V526.432C193.232 526.32 193.544 526.232 193.928 526.168C194.312 526.096 194.684 526.06 195.044 526.06C195.996 526.06 196.7 526.272 197.156 526.696C197.62 527.112 197.852 527.692 197.852 528.436V532H196.712V531.352C196.464 531.624 196.168 531.832 195.824 531.976C195.488 532.112 195.076 532.18 194.588 532.18ZM194.888 531.256C195.272 531.256 195.62 531.18 195.932 531.028C196.244 530.876 196.476 530.664 196.628 530.392V529.612C196.108 529.276 195.528 529.108 194.888 529.108C194.424 529.108 194.076 529.2 193.844 529.384C193.62 529.56 193.508 529.832 193.508 530.2C193.508 530.904 193.968 531.256 194.888 531.256ZM199.356 526.24H200.532V527.068C200.804 526.724 201.136 526.472 201.528 526.312C201.928 526.144 202.344 526.06 202.776 526.06C203.544 526.06 204.116 526.264 204.492 526.672C204.868 527.08 205.056 527.628 205.056 528.316V532H203.844V528.436C203.844 527.5 203.396 527.032 202.5 527.032C202.116 527.032 201.756 527.124 201.42 527.308C201.092 527.484 200.808 527.756 200.568 528.124V532H199.356V526.24ZM208.771 532.18C208.187 532.18 207.735 532.012 207.415 531.676C207.103 531.34 206.947 530.864 206.947 530.248V527.176H206.071V526.24H206.947V524.512H208.171V526.24H209.587V527.176H208.171V530.164C208.171 530.548 208.243 530.82 208.387 530.98C208.539 531.14 208.811 531.22 209.203 531.22C209.435 531.22 209.667 531.168 209.899 531.064V532.024C209.595 532.128 209.219 532.18 208.771 532.18ZM215.481 526.24H216.657V527.092C217.249 526.404 218.049 526.06 219.057 526.06C219.633 526.06 220.149 526.188 220.605 526.444C221.069 526.7 221.429 527.06 221.685 527.524C221.949 527.98 222.081 528.512 222.081 529.12C222.081 529.72 221.949 530.252 221.685 530.716C221.429 531.18 221.073 531.54 220.617 531.796C220.161 532.052 219.641 532.18 219.057 532.18C218.577 532.18 218.129 532.1 217.713 531.94C217.297 531.78 216.957 531.544 216.693 531.232V534.628H215.481V526.24ZM218.781 531.22C219.173 531.22 219.525 531.136 219.837 530.968C220.157 530.792 220.405 530.544 220.581 530.224C220.765 529.904 220.857 529.536 220.857 529.12C220.857 528.704 220.765 528.34 220.581 528.028C220.405 527.708 220.157 527.464 219.837 527.296C219.525 527.12 219.173 527.032 218.781 527.032C218.293 527.032 217.861 527.16 217.485 527.416C217.117 527.672 216.853 528.024 216.693 528.472V529.768C216.829 530.208 217.089 530.56 217.473 530.824C217.857 531.088 218.293 531.22 218.781 531.22ZM225.162 532.18C224.466 532.18 223.906 532.004 223.482 531.652C223.066 531.292 222.858 530.808 222.858 530.2C222.858 529.56 223.058 529.068 223.458 528.724C223.866 528.372 224.442 528.196 225.186 528.196C225.978 528.196 226.65 528.356 227.202 528.676V528.376C227.202 527.92 227.062 527.584 226.782 527.368C226.51 527.144 226.078 527.032 225.486 527.032C225.134 527.032 224.79 527.068 224.454 527.14C224.126 527.204 223.83 527.296 223.566 527.416V526.432C223.806 526.32 224.118 526.232 224.502 526.168C224.886 526.096 225.258 526.06 225.618 526.06C226.57 526.06 227.274 526.272 227.73 526.696C228.194 527.112 228.426 527.692 228.426 528.436V532H227.286V531.352C227.038 531.624 226.742 531.832 226.398 531.976C226.062 532.112 225.65 532.18 225.162 532.18ZM225.462 531.256C225.846 531.256 226.194 531.18 226.506 531.028C226.818 530.876 227.05 530.664 227.202 530.392V529.612C226.682 529.276 226.102 529.108 225.462 529.108C224.998 529.108 224.65 529.2 224.418 529.384C224.194 529.56 224.082 529.832 224.082 530.2C224.082 530.904 224.542 531.256 225.462 531.256ZM230.638 525.112C230.438 525.112 230.27 525.044 230.134 524.908C229.998 524.772 229.93 524.604 229.93 524.404C229.93 524.204 229.998 524.036 230.134 523.9C230.27 523.764 230.438 523.696 230.638 523.696C230.846 523.696 231.018 523.764 231.154 523.9C231.298 524.036 231.37 524.204 231.37 524.404C231.37 524.604 231.298 524.772 231.154 524.908C231.018 525.044 230.846 525.112 230.638 525.112ZM230.026 526.24H231.262V532H230.026V526.24ZM235.714 532.18C235.138 532.18 234.618 532.056 234.154 531.808C233.698 531.552 233.338 531.196 233.074 530.74C232.818 530.276 232.69 529.74 232.69 529.132C232.69 528.532 232.818 528 233.074 527.536C233.338 527.072 233.698 526.712 234.154 526.456C234.618 526.192 235.138 526.06 235.714 526.06C236.754 526.06 237.542 526.376 238.078 527.008V523.132H239.29V532H238.114V531.16C237.794 531.512 237.442 531.772 237.058 531.94C236.682 532.1 236.234 532.18 235.714 532.18ZM235.99 531.22C236.486 531.22 236.918 531.092 237.286 530.836C237.662 530.572 237.926 530.22 238.078 529.78V528.484C237.942 528.044 237.682 527.692 237.298 527.428C236.922 527.164 236.486 527.032 235.99 527.032C235.598 527.032 235.242 527.12 234.922 527.296C234.61 527.472 234.362 527.72 234.178 528.04C234.002 528.36 233.914 528.724 233.914 529.132C233.914 529.54 234.002 529.904 234.178 530.224C234.362 530.544 234.61 530.792 234.922 530.968C235.242 531.136 235.598 531.22 235.99 531.22ZM248.306 534.76C247.914 534.76 247.53 534.728 247.154 534.664C246.786 534.6 246.474 534.508 246.218 534.388V533.392C246.818 533.664 247.514 533.8 248.306 533.8C249.05 533.8 249.59 533.636 249.926 533.308C250.27 532.988 250.442 532.5 250.442 531.844V531.232C249.914 531.864 249.138 532.18 248.114 532.18C247.53 532.18 247.006 532.052 246.542 531.796C246.078 531.54 245.714 531.18 245.45 530.716C245.186 530.252 245.054 529.72 245.054 529.12C245.054 528.512 245.182 527.98 245.438 527.524C245.702 527.06 246.062 526.7 246.518 526.444C246.982 526.188 247.502 526.06 248.078 526.06C248.614 526.06 249.066 526.14 249.434 526.3C249.81 526.452 250.158 526.708 250.478 527.068V526.24H251.654V531.712C251.654 532.696 251.378 533.448 250.826 533.968C250.282 534.496 249.442 534.76 248.306 534.76ZM248.354 531.22C248.85 531.22 249.286 531.088 249.662 530.824C250.046 530.56 250.306 530.208 250.442 529.768V528.472C250.29 528.024 250.026 527.672 249.65 527.416C249.282 527.16 248.85 527.032 248.354 527.032C247.962 527.032 247.606 527.12 247.286 527.296C246.974 527.464 246.726 527.708 246.542 528.028C246.366 528.348 246.278 528.712 246.278 529.12C246.278 529.536 246.366 529.904 246.542 530.224C246.726 530.536 246.974 530.78 247.286 530.956C247.606 531.132 247.962 531.22 248.354 531.22ZM253.216 526.24H254.392V527.272C254.632 526.92 254.968 526.66 255.4 526.492C255.84 526.324 256.348 526.24 256.924 526.24V527.188C256.308 527.188 255.78 527.288 255.34 527.488C254.9 527.688 254.596 528.004 254.428 528.436V532H253.216V526.24ZM260.869 532.18C260.221 532.18 259.649 532.06 259.153 531.82C258.665 531.572 258.281 531.22 258.001 530.764C257.729 530.3 257.593 529.756 257.593 529.132C257.593 528.516 257.729 527.976 258.001 527.512C258.273 527.048 258.657 526.692 259.153 526.444C259.649 526.188 260.221 526.06 260.869 526.06C261.517 526.06 262.089 526.188 262.585 526.444C263.081 526.692 263.465 527.048 263.737 527.512C264.017 527.976 264.157 528.516 264.157 529.132C264.157 529.756 264.017 530.3 263.737 530.764C263.465 531.22 263.081 531.572 262.585 531.82C262.089 532.06 261.517 532.18 260.869 532.18ZM260.869 531.22C261.493 531.22 261.989 531.028 262.357 530.644C262.725 530.26 262.909 529.756 262.909 529.132C262.909 528.484 262.725 527.972 262.357 527.596C261.989 527.22 261.493 527.032 260.869 527.032C260.245 527.032 259.749 527.22 259.381 527.596C259.013 527.972 258.829 528.484 258.829 529.132C258.829 529.756 259.013 530.26 259.381 530.644C259.749 531.028 260.245 531.22 260.869 531.22ZM267.765 532.18C266.989 532.18 266.401 531.972 266.001 531.556C265.609 531.14 265.413 530.584 265.413 529.888V526.24H266.625V529.84C266.625 530.76 267.085 531.22 268.005 531.22C268.813 531.22 269.445 530.856 269.901 530.128V526.24H271.113V532H269.937V531.184C269.665 531.528 269.341 531.78 268.965 531.94C268.597 532.1 268.197 532.18 267.765 532.18ZM272.669 526.24H273.845V527.092C274.437 526.404 275.237 526.06 276.245 526.06C276.821 526.06 277.337 526.188 277.793 526.444C278.257 526.7 278.617 527.06 278.873 527.524C279.137 527.98 279.269 528.512 279.269 529.12C279.269 529.72 279.137 530.252 278.873 530.716C278.617 531.18 278.261 531.54 277.805 531.796C277.349 532.052 276.829 532.18 276.245 532.18C275.765 532.18 275.317 532.1 274.901 531.94C274.485 531.78 274.145 531.544 273.881 531.232V534.628H272.669V526.24ZM275.969 531.22C276.361 531.22 276.713 531.136 277.025 530.968C277.345 530.792 277.593 530.544 277.769 530.224C277.953 529.904 278.045 529.536 278.045 529.12C278.045 528.704 277.953 528.34 277.769 528.028C277.593 527.708 277.345 527.464 277.025 527.296C276.713 527.12 276.361 527.032 275.969 527.032C275.481 527.032 275.049 527.16 274.673 527.416C274.305 527.672 274.041 528.024 273.881 528.472V529.768C274.017 530.208 274.277 530.56 274.661 530.824C275.045 531.088 275.481 531.22 275.969 531.22ZM285.74 525.112C285.54 525.112 285.372 525.044 285.236 524.908C285.1 524.772 285.032 524.604 285.032 524.404C285.032 524.204 285.1 524.036 285.236 523.9C285.372 523.764 285.54 523.696 285.74 523.696C285.948 523.696 286.12 523.764 286.256 523.9C286.4 524.036 286.472 524.204 286.472 524.404C286.472 524.604 286.4 524.772 286.256 524.908C286.12 525.044 285.948 525.112 285.74 525.112ZM285.128 526.24H286.364V532H285.128V526.24ZM288.428 527.176H287.552V526.24H288.428V525.112C288.428 524.448 288.616 523.944 288.992 523.6C289.368 523.248 289.872 523.072 290.504 523.072C290.832 523.072 291.14 523.12 291.428 523.216V524.224C291.204 524.12 290.972 524.068 290.732 524.068C290.356 524.068 290.08 524.16 289.904 524.344C289.728 524.52 289.64 524.8 289.64 525.184V526.24H291.08V527.176H289.64V532H288.428V527.176ZM297.928 534.376C297.496 534.376 297.136 534.332 296.848 534.244V533.296C297.056 533.376 297.312 533.416 297.616 533.416C297.896 533.416 298.116 533.344 298.276 533.2C298.436 533.064 298.58 532.84 298.708 532.528L298.984 531.856L296.464 526.24H297.712L299.632 530.668L301.42 526.24H302.668L300.076 532.648C299.836 533.248 299.548 533.684 299.212 533.956C298.884 534.236 298.456 534.376 297.928 534.376ZM305.998 532.18C305.35 532.18 304.778 532.06 304.282 531.82C303.794 531.572 303.41 531.22 303.13 530.764C302.858 530.3 302.722 529.756 302.722 529.132C302.722 528.516 302.858 527.976 303.13 527.512C303.402 527.048 303.786 526.692 304.282 526.444C304.778 526.188 305.35 526.06 305.998 526.06C306.646 526.06 307.218 526.188 307.714 526.444C308.21 526.692 308.594 527.048 308.866 527.512C309.146 527.976 309.286 528.516 309.286 529.132C309.286 529.756 309.146 530.3 308.866 530.764C308.594 531.22 308.21 531.572 307.714 531.82C307.218 532.06 306.646 532.18 305.998 532.18ZM305.998 531.22C306.622 531.22 307.118 531.028 307.486 530.644C307.854 530.26 308.038 529.756 308.038 529.132C308.038 528.484 307.854 527.972 307.486 527.596C307.118 527.22 306.622 527.032 305.998 527.032C305.374 527.032 304.878 527.22 304.51 527.596C304.142 527.972 303.958 528.484 303.958 529.132C303.958 529.756 304.142 530.26 304.51 530.644C304.878 531.028 305.374 531.22 305.998 531.22ZM312.894 532.18C312.118 532.18 311.53 531.972 311.13 531.556C310.738 531.14 310.542 530.584 310.542 529.888V526.24H311.754V529.84C311.754 530.76 312.214 531.22 313.134 531.22C313.942 531.22 314.574 530.856 315.03 530.128V526.24H316.242V532H315.066V531.184C314.794 531.528 314.47 531.78 314.094 531.94C313.726 532.1 313.326 532.18 312.894 532.18ZM317.798 526.24H318.974V527.272C319.214 526.92 319.55 526.66 319.982 526.492C320.422 526.324 320.93 526.24 321.506 526.24V527.188C320.89 527.188 320.362 527.288 319.922 527.488C319.482 527.688 319.178 528.004 319.01 528.436V532H317.798V526.24ZM99.4245 544.24H100.601V545.092C101.193 544.404 101.993 544.06 103.001 544.06C103.577 544.06 104.093 544.188 104.549 544.444C105.013 544.7 105.373 545.06 105.629 545.524C105.893 545.98 106.025 546.512 106.025 547.12C106.025 547.72 105.893 548.252 105.629 548.716C105.373 549.18 105.017 549.54 104.561 549.796C104.105 550.052 103.585 550.18 103.001 550.18C102.521 550.18 102.073 550.1 101.657 549.94C101.241 549.78 100.901 549.544 100.637 549.232V552.628H99.4245V544.24ZM102.725 549.22C103.117 549.22 103.469 549.136 103.781 548.968C104.101 548.792 104.349 548.544 104.525 548.224C104.709 547.904 104.801 547.536 104.801 547.12C104.801 546.704 104.709 546.34 104.525 546.028C104.349 545.708 104.101 545.464 103.781 545.296C103.469 545.12 103.117 545.032 102.725 545.032C102.237 545.032 101.805 545.16 101.429 545.416C101.061 545.672 100.797 546.024 100.637 546.472V547.768C100.773 548.208 101.033 548.56 101.417 548.824C101.801 549.088 102.237 549.22 102.725 549.22ZM109.106 550.18C108.41 550.18 107.85 550.004 107.426 549.652C107.01 549.292 106.802 548.808 106.802 548.2C106.802 547.56 107.002 547.068 107.402 546.724C107.81 546.372 108.386 546.196 109.13 546.196C109.922 546.196 110.594 546.356 111.146 546.676V546.376C111.146 545.92 111.006 545.584 110.726 545.368C110.454 545.144 110.022 545.032 109.43 545.032C109.078 545.032 108.734 545.068 108.398 545.14C108.07 545.204 107.774 545.296 107.51 545.416V544.432C107.75 544.32 108.062 544.232 108.446 544.168C108.83 544.096 109.202 544.06 109.562 544.06C110.514 544.06 111.218 544.272 111.674 544.696C112.138 545.112 112.37 545.692 112.37 546.436V550H111.23V549.352C110.982 549.624 110.686 549.832 110.342 549.976C110.006 550.112 109.594 550.18 109.106 550.18ZM109.406 549.256C109.79 549.256 110.138 549.18 110.45 549.028C110.762 548.876 110.994 548.664 111.146 548.392V547.612C110.626 547.276 110.046 547.108 109.406 547.108C108.942 547.108 108.594 547.2 108.362 547.384C108.138 547.56 108.026 547.832 108.026 548.2C108.026 548.904 108.486 549.256 109.406 549.256ZM114.559 552.376C114.127 552.376 113.767 552.332 113.479 552.244V551.296C113.687 551.376 113.943 551.416 114.247 551.416C114.527 551.416 114.747 551.344 114.907 551.2C115.067 551.064 115.211 550.84 115.339 550.528L115.615 549.856L113.095 544.24H114.343L116.263 548.668L118.051 544.24H119.299L116.707 550.648C116.467 551.248 116.179 551.684 115.843 551.956C115.515 552.236 115.087 552.376 114.559 552.376ZM120.378 544.24H121.53V545.068C121.802 544.732 122.11 544.48 122.454 544.312C122.798 544.144 123.154 544.06 123.522 544.06C123.986 544.06 124.354 544.14 124.626 544.3C124.898 544.452 125.098 544.688 125.226 545.008C125.482 544.696 125.794 544.46 126.162 544.3C126.538 544.14 126.914 544.06 127.29 544.06C127.994 544.06 128.502 544.24 128.814 544.6C129.126 544.952 129.282 545.476 129.282 546.172V550H128.106V546.328C128.106 545.856 128.018 545.524 127.842 545.332C127.666 545.132 127.366 545.032 126.942 545.032C126.334 545.032 125.838 545.296 125.454 545.824C125.47 545.944 125.478 546.14 125.478 546.412V550H124.302V546.328C124.302 545.856 124.222 545.524 124.062 545.332C123.902 545.132 123.614 545.032 123.198 545.032C122.59 545.032 122.046 545.376 121.566 546.064V550H120.378V544.24ZM133.952 550.18C132.888 550.18 132.052 549.916 131.444 549.388C130.844 548.852 130.544 548.1 130.544 547.132C130.544 546.188 130.812 545.44 131.348 544.888C131.892 544.336 132.664 544.06 133.664 544.06C134.328 544.06 134.892 544.188 135.356 544.444C135.82 544.692 136.168 545.04 136.4 545.488C136.64 545.928 136.76 546.432 136.76 547V547.6H131.696C131.736 548.144 131.964 548.552 132.38 548.824C132.804 549.088 133.376 549.22 134.096 549.22C134.464 549.22 134.836 549.188 135.212 549.124C135.588 549.052 135.92 548.96 136.208 548.848V549.82C135.952 549.924 135.612 550.008 135.188 550.072C134.772 550.144 134.36 550.18 133.952 550.18ZM135.62 546.748C135.604 546.204 135.424 545.784 135.08 545.488C134.744 545.184 134.264 545.032 133.64 545.032C133.032 545.032 132.56 545.188 132.224 545.5C131.888 545.812 131.712 546.228 131.696 546.748H135.62ZM138.085 544.24H139.261V545.068C139.533 544.724 139.865 544.472 140.257 544.312C140.657 544.144 141.073 544.06 141.505 544.06C142.273 544.06 142.845 544.264 143.221 544.672C143.597 545.08 143.785 545.628 143.785 546.316V550H142.573V546.436C142.573 545.5 142.125 545.032 141.229 545.032C140.845 545.032 140.485 545.124 140.149 545.308C139.821 545.484 139.537 545.756 139.297 546.124V550H138.085V544.24ZM147.5 550.18C146.916 550.18 146.464 550.012 146.144 549.676C145.832 549.34 145.676 548.864 145.676 548.248V545.176H144.8V544.24H145.676V542.512H146.9V544.24H148.316V545.176H146.9V548.164C146.9 548.548 146.972 548.82 147.116 548.98C147.268 549.14 147.54 549.22 147.932 549.22C148.164 549.22 148.396 549.168 148.628 549.064V550.024C148.324 550.128 147.948 550.18 147.5 550.18ZM157.246 550.18C156.598 550.18 156.026 550.06 155.53 549.82C155.042 549.572 154.658 549.22 154.378 548.764C154.106 548.3 153.97 547.756 153.97 547.132C153.97 546.516 154.106 545.976 154.378 545.512C154.65 545.048 155.034 544.692 155.53 544.444C156.026 544.188 156.598 544.06 157.246 544.06C157.894 544.06 158.466 544.188 158.962 544.444C159.458 544.692 159.842 545.048 160.114 545.512C160.394 545.976 160.534 546.516 160.534 547.132C160.534 547.756 160.394 548.3 160.114 548.764C159.842 549.22 159.458 549.572 158.962 549.82C158.466 550.06 157.894 550.18 157.246 550.18ZM157.246 549.22C157.87 549.22 158.366 549.028 158.734 548.644C159.102 548.26 159.286 547.756 159.286 547.132C159.286 546.484 159.102 545.972 158.734 545.596C158.366 545.22 157.87 545.032 157.246 545.032C156.622 545.032 156.126 545.22 155.758 545.596C155.39 545.972 155.206 546.484 155.206 547.132C155.206 547.756 155.39 548.26 155.758 548.644C156.126 549.028 156.622 549.22 157.246 549.22ZM161.824 545.176H160.948V544.24H161.824V543.112C161.824 542.448 162.012 541.944 162.388 541.6C162.764 541.248 163.268 541.072 163.9 541.072C164.228 541.072 164.536 541.12 164.824 541.216V542.224C164.6 542.12 164.368 542.068 164.128 542.068C163.752 542.068 163.476 542.16 163.3 542.344C163.124 542.52 163.036 542.8 163.036 543.184V544.24H164.476V545.176H163.036V550H161.824V545.176ZM173.136 550.18C172.496 550.18 171.928 550.06 171.432 549.82C170.936 549.58 170.548 549.232 170.268 548.776C169.996 548.312 169.86 547.764 169.86 547.132C169.86 546.5 169.996 545.956 170.268 545.5C170.548 545.036 170.936 544.68 171.432 544.432C171.936 544.184 172.512 544.06 173.16 544.06C174.04 544.06 174.744 544.232 175.272 544.576V545.572C174.752 545.212 174.088 545.032 173.28 545.032C172.624 545.032 172.092 545.212 171.684 545.572C171.284 545.924 171.084 546.444 171.084 547.132C171.084 547.82 171.284 548.34 171.684 548.692C172.084 549.044 172.608 549.22 173.256 549.22C174.064 549.22 174.76 549.028 175.344 548.644V549.628C175.064 549.82 174.744 549.96 174.384 550.048C174.032 550.136 173.616 550.18 173.136 550.18ZM176.663 541.132H177.875V545.032C178.427 544.384 179.163 544.06 180.083 544.06C180.851 544.06 181.423 544.264 181.799 544.672C182.175 545.08 182.363 545.628 182.363 546.316V550H181.151V546.436C181.151 545.5 180.703 545.032 179.807 545.032C179.423 545.032 179.063 545.124 178.727 545.308C178.399 545.484 178.115 545.756 177.875 546.124V550H176.663V541.132ZM186.718 550.18C186.07 550.18 185.498 550.06 185.002 549.82C184.514 549.572 184.13 549.22 183.85 548.764C183.578 548.3 183.442 547.756 183.442 547.132C183.442 546.516 183.578 545.976 183.85 545.512C184.122 545.048 184.506 544.692 185.002 544.444C185.498 544.188 186.07 544.06 186.718 544.06C187.366 544.06 187.938 544.188 188.434 544.444C188.93 544.692 189.314 545.048 189.586 545.512C189.866 545.976 190.006 546.516 190.006 547.132C190.006 547.756 189.866 548.3 189.586 548.764C189.314 549.22 188.93 549.572 188.434 549.82C187.938 550.06 187.366 550.18 186.718 550.18ZM186.718 549.22C187.342 549.22 187.838 549.028 188.206 548.644C188.574 548.26 188.758 547.756 188.758 547.132C188.758 546.484 188.574 545.972 188.206 545.596C187.838 545.22 187.342 545.032 186.718 545.032C186.094 545.032 185.598 545.22 185.23 545.596C184.862 545.972 184.678 546.484 184.678 547.132C184.678 547.756 184.862 548.26 185.23 548.644C185.598 549.028 186.094 549.22 186.718 549.22ZM192.031 543.112C191.831 543.112 191.663 543.044 191.527 542.908C191.391 542.772 191.323 542.604 191.323 542.404C191.323 542.204 191.391 542.036 191.527 541.9C191.663 541.764 191.831 541.696 192.031 541.696C192.239 541.696 192.411 541.764 192.547 541.9C192.691 542.036 192.763 542.204 192.763 542.404C192.763 542.604 192.691 542.772 192.547 542.908C192.411 543.044 192.239 543.112 192.031 543.112ZM191.419 544.24H192.655V550H191.419V544.24ZM197.359 550.18C196.719 550.18 196.151 550.06 195.655 549.82C195.159 549.58 194.771 549.232 194.491 548.776C194.219 548.312 194.083 547.764 194.083 547.132C194.083 546.5 194.219 545.956 194.491 545.5C194.771 545.036 195.159 544.68 195.655 544.432C196.159 544.184 196.735 544.06 197.383 544.06C198.263 544.06 198.967 544.232 199.495 544.576V545.572C198.975 545.212 198.311 545.032 197.503 545.032C196.847 545.032 196.315 545.212 195.907 545.572C195.507 545.924 195.307 546.444 195.307 547.132C195.307 547.82 195.507 548.34 195.907 548.692C196.307 549.044 196.831 549.22 197.479 549.22C198.287 549.22 198.983 549.028 199.567 548.644V549.628C199.287 549.82 198.967 549.96 198.607 550.048C198.255 550.136 197.839 550.18 197.359 550.18ZM204.053 550.18C202.989 550.18 202.153 549.916 201.545 549.388C200.945 548.852 200.645 548.1 200.645 547.132C200.645 546.188 200.913 545.44 201.449 544.888C201.993 544.336 202.765 544.06 203.765 544.06C204.429 544.06 204.993 544.188 205.457 544.444C205.921 544.692 206.269 545.04 206.501 545.488C206.741 545.928 206.861 546.432 206.861 547V547.6H201.797C201.837 548.144 202.065 548.552 202.481 548.824C202.905 549.088 203.477 549.22 204.197 549.22C204.565 549.22 204.937 549.188 205.313 549.124C205.689 549.052 206.021 548.96 206.309 548.848V549.82C206.053 549.924 205.713 550.008 205.289 550.072C204.873 550.144 204.461 550.18 204.053 550.18ZM205.721 546.748C205.705 546.204 205.525 545.784 205.181 545.488C204.845 545.184 204.365 545.032 203.741 545.032C203.133 545.032 202.661 545.188 202.325 545.5C201.989 545.812 201.813 546.228 201.797 546.748H205.721ZM213.336 543.112C213.136 543.112 212.968 543.044 212.832 542.908C212.696 542.772 212.628 542.604 212.628 542.404C212.628 542.204 212.696 542.036 212.832 541.9C212.968 541.764 213.136 541.696 213.336 541.696C213.544 541.696 213.716 541.764 213.852 541.9C213.996 542.036 214.068 542.204 214.068 542.404C214.068 542.604 213.996 542.772 213.852 542.908C213.716 543.044 213.544 543.112 213.336 543.112ZM212.724 544.24H213.96V550H212.724V544.24ZM217.752 550.18C217.352 550.18 216.928 550.128 216.48 550.024C216.032 549.928 215.68 549.796 215.424 549.628V548.596C215.736 548.78 216.096 548.932 216.504 549.052C216.912 549.164 217.308 549.22 217.692 549.22C218.124 549.22 218.44 549.168 218.64 549.064C218.84 548.96 218.94 548.792 218.94 548.56C218.94 548.384 218.892 548.244 218.796 548.14C218.708 548.028 218.552 547.928 218.328 547.84C218.112 547.752 217.784 547.648 217.344 547.528C216.872 547.392 216.496 547.256 216.216 547.12C215.944 546.976 215.736 546.796 215.592 546.58C215.456 546.364 215.388 546.084 215.388 545.74C215.388 545.188 215.604 544.772 216.036 544.492C216.476 544.204 217.064 544.06 217.8 544.06C218.184 544.06 218.56 544.096 218.928 544.168C219.296 544.24 219.592 544.34 219.816 544.468V545.476C219.584 545.34 219.296 545.232 218.952 545.152C218.616 545.072 218.272 545.032 217.92 545.032C217.496 545.032 217.172 545.084 216.948 545.188C216.724 545.292 216.612 545.476 216.612 545.74C216.612 545.908 216.66 546.044 216.756 546.148C216.852 546.252 217.004 546.344 217.212 546.424C217.428 546.496 217.768 546.592 218.232 546.712C218.96 546.912 219.464 547.148 219.744 547.42C220.032 547.692 220.176 548.068 220.176 548.548C220.176 549.044 219.972 549.44 219.564 549.736C219.156 550.032 218.552 550.18 217.752 550.18ZM228.724 550.18C228.148 550.18 227.628 550.056 227.164 549.808C226.708 549.552 226.348 549.196 226.084 548.74C225.828 548.276 225.7 547.74 225.7 547.132C225.7 546.532 225.828 546 226.084 545.536C226.348 545.072 226.708 544.712 227.164 544.456C227.628 544.192 228.148 544.06 228.724 544.06C229.764 544.06 230.552 544.376 231.088 545.008V541.132H232.3V550H231.124V549.16C230.804 549.512 230.452 549.772 230.068 549.94C229.692 550.1 229.244 550.18 228.724 550.18ZM229 549.22C229.496 549.22 229.928 549.092 230.296 548.836C230.672 548.572 230.936 548.22 231.088 547.78V546.484C230.952 546.044 230.692 545.692 230.308 545.428C229.932 545.164 229.496 545.032 229 545.032C228.608 545.032 228.252 545.12 227.932 545.296C227.62 545.472 227.372 545.72 227.188 546.04C227.012 546.36 226.924 546.724 226.924 547.132C226.924 547.54 227.012 547.904 227.188 548.224C227.372 548.544 227.62 548.792 227.932 548.968C228.252 549.136 228.608 549.22 229 549.22ZM237.03 550.18C235.966 550.18 235.13 549.916 234.522 549.388C233.922 548.852 233.622 548.1 233.622 547.132C233.622 546.188 233.89 545.44 234.426 544.888C234.97 544.336 235.742 544.06 236.742 544.06C237.406 544.06 237.97 544.188 238.434 544.444C238.898 544.692 239.246 545.04 239.478 545.488C239.718 545.928 239.838 546.432 239.838 547V547.6H234.774C234.814 548.144 235.042 548.552 235.458 548.824C235.882 549.088 236.454 549.22 237.174 549.22C237.542 549.22 237.914 549.188 238.29 549.124C238.666 549.052 238.998 548.96 239.286 548.848V549.82C239.03 549.924 238.69 550.008 238.266 550.072C237.85 550.144 237.438 550.18 237.03 550.18ZM238.698 546.748C238.682 546.204 238.502 545.784 238.158 545.488C237.822 545.184 237.342 545.032 236.718 545.032C236.11 545.032 235.638 545.188 235.302 545.5C234.966 545.812 234.79 546.228 234.774 546.748H238.698ZM244.199 550.18C243.559 550.18 242.991 550.06 242.495 549.82C241.999 549.58 241.611 549.232 241.331 548.776C241.059 548.312 240.923 547.764 240.923 547.132C240.923 546.5 241.059 545.956 241.331 545.5C241.611 545.036 241.999 544.68 242.495 544.432C242.999 544.184 243.575 544.06 244.223 544.06C245.103 544.06 245.807 544.232 246.335 544.576V545.572C245.815 545.212 245.151 545.032 244.343 545.032C243.687 545.032 243.155 545.212 242.747 545.572C242.347 545.924 242.147 546.444 242.147 547.132C242.147 547.82 242.347 548.34 242.747 548.692C243.147 549.044 243.671 549.22 244.319 549.22C245.127 549.22 245.823 549.028 246.407 548.644V549.628C246.127 549.82 245.807 549.96 245.447 550.048C245.095 550.136 244.679 550.18 244.199 550.18ZM247.725 541.132H248.937V550H247.725V541.132ZM251.211 543.112C251.011 543.112 250.843 543.044 250.707 542.908C250.571 542.772 250.503 542.604 250.503 542.404C250.503 542.204 250.571 542.036 250.707 541.9C250.843 541.764 251.011 541.696 251.211 541.696C251.419 541.696 251.591 541.764 251.727 541.9C251.871 542.036 251.943 542.204 251.943 542.404C251.943 542.604 251.871 542.772 251.727 542.908C251.591 543.044 251.419 543.112 251.211 543.112ZM250.599 544.24H251.835V550H250.599V544.24ZM253.503 544.24H254.679V545.068C254.951 544.724 255.283 544.472 255.675 544.312C256.075 544.144 256.491 544.06 256.923 544.06C257.691 544.06 258.263 544.264 258.639 544.672C259.015 545.08 259.203 545.628 259.203 546.316V550H257.991V546.436C257.991 545.5 257.543 545.032 256.647 545.032C256.263 545.032 255.903 545.124 255.567 545.308C255.239 545.484 254.955 545.756 254.715 546.124V550H253.503V544.24ZM263.866 550.18C262.802 550.18 261.966 549.916 261.358 549.388C260.758 548.852 260.458 548.1 260.458 547.132C260.458 546.188 260.726 545.44 261.262 544.888C261.806 544.336 262.578 544.06 263.578 544.06C264.242 544.06 264.806 544.188 265.27 544.444C265.734 544.692 266.082 545.04 266.314 545.488C266.554 545.928 266.674 546.432 266.674 547V547.6H261.61C261.65 548.144 261.878 548.552 262.294 548.824C262.718 549.088 263.29 549.22 264.01 549.22C264.378 549.22 264.75 549.188 265.126 549.124C265.502 549.052 265.834 548.96 266.122 548.848V549.82C265.866 549.924 265.526 550.008 265.102 550.072C264.686 550.144 264.274 550.18 263.866 550.18ZM265.534 546.748C265.518 546.204 265.338 545.784 264.994 545.488C264.658 545.184 264.178 545.032 263.554 545.032C262.946 545.032 262.474 545.188 262.138 545.5C261.802 545.812 261.626 546.228 261.61 546.748H265.534ZM270.783 550.18C270.207 550.18 269.687 550.056 269.223 549.808C268.767 549.552 268.407 549.196 268.143 548.74C267.887 548.276 267.759 547.74 267.759 547.132C267.759 546.532 267.887 546 268.143 545.536C268.407 545.072 268.767 544.712 269.223 544.456C269.687 544.192 270.207 544.06 270.783 544.06C271.823 544.06 272.611 544.376 273.147 545.008V541.132H274.359V550H273.183V549.16C272.863 549.512 272.511 549.772 272.127 549.94C271.751 550.1 271.303 550.18 270.783 550.18ZM271.059 549.22C271.555 549.22 271.987 549.092 272.355 548.836C272.731 548.572 272.995 548.22 273.147 547.78V546.484C273.011 546.044 272.751 545.692 272.367 545.428C271.991 545.164 271.555 545.032 271.059 545.032C270.667 545.032 270.311 545.12 269.991 545.296C269.679 545.472 269.431 545.72 269.247 546.04C269.071 546.36 268.983 546.724 268.983 547.132C268.983 547.54 269.071 547.904 269.247 548.224C269.431 548.544 269.679 548.792 269.991 548.968C270.311 549.136 270.667 549.22 271.059 549.22ZM276.245 550C276.085 550 275.949 549.948 275.837 549.844C275.733 549.732 275.681 549.596 275.681 549.436C275.681 549.276 275.733 549.14 275.837 549.028C275.949 548.916 276.085 548.86 276.245 548.86C276.405 548.86 276.541 548.916 276.653 549.028C276.765 549.14 276.821 549.276 276.821 549.436C276.821 549.596 276.765 549.732 276.653 549.844C276.541 549.948 276.405 550 276.245 550Z" fill="white"/>
<rect x="127" y="384" width="1" height="33" fill="#FF8A37"/>
<path d="M15.5 443C15.5 428.917 26.9167 417.5 41 417.5H335C349.083 417.5 360.5 428.917 360.5 443C360.5 457.083 349.083 468.5 335 468.5H41C26.9167 468.5 15.5 457.083 15.5 443Z" stroke="#FF8A37"/>
<defs>
<linearGradient id="paint0_linear_1525_834" x1="187" y1="343" x2="187" y2="356.5" gradientUnits="userSpaceOnUse">
<stop stop-color="#FF8A37"/>
<stop offset="0.520833" stop-color="#FF8A37" stop-opacity="0.322917"/>
<stop offset="1" stop-color="#FF8A37" stop-opacity="0"/>
</linearGradient>
<linearGradient id="paint1_linear_1525_834" x1="46" y1="358" x2="329" y2="358" gradientUnits="userSpaceOnUse">
<stop offset="0.0516655" stop-color="#171717"/>
<stop offset="0.505208" stop-color="#171717" stop-opacity="0"/>
<stop offset="0.934152" stop-color="#171717"/>
</linearGradient>
</defs>
</svg>
