<svg width="1440" height="876" viewBox="0 0 1440 876" fill="none" xmlns="http://www.w3.org/2000/svg">
<g clip-path="url(#clip0_1144_910)">
<rect width="1440" height="876" fill="#171717"/>
<rect x="558.745" y="641.889" width="455.088" height="21.1484" transform="rotate(-90 558.745 641.889)" fill="url(#paint0_linear_1144_910)"/>
<rect x="558.745" y="641.889" width="455.088" height="1.40989" transform="rotate(-90 558.745 641.889)" fill="#FF8A37"/>
<rect x="553.106" y="652" width="477" height="26.788" transform="rotate(-90 553.106 652)" fill="url(#paint1_linear_1144_910)"/>
<path d="M769.276 365.54C767.068 365.54 765.148 365.012 763.516 363.956C761.884 362.9 760.624 361.388 759.736 359.42C758.872 357.452 758.44 355.124 758.44 352.436C758.44 349.748 758.872 347.42 759.736 345.452C760.6 343.46 761.836 341.936 763.444 340.88C765.076 339.824 767.02 339.296 769.276 339.296C771.508 339.296 773.44 339.824 775.072 340.88C776.704 341.936 777.952 343.46 778.816 345.452C779.68 347.42 780.112 349.748 780.112 352.436C780.112 355.124 779.68 357.452 778.816 359.42C777.952 361.388 776.704 362.9 775.072 363.956C773.44 365.012 771.508 365.54 769.276 365.54ZM769.276 361.436C771.268 361.436 772.804 360.644 773.884 359.06C774.988 357.452 775.54 355.256 775.54 352.472C775.54 349.688 775 347.492 773.92 345.884C772.84 344.276 771.304 343.472 769.312 343.472C767.32 343.472 765.772 344.276 764.668 345.884C763.588 347.492 763.048 349.688 763.048 352.472C763.048 355.256 763.588 357.452 764.668 359.06C765.772 360.644 767.308 361.436 769.276 361.436ZM788.307 344.66L782.979 348.512V344.264L789.027 339.836H792.843V365H788.307V344.66ZM798.28 365C797.776 365 797.344 364.832 796.984 364.496C796.624 364.136 796.444 363.704 796.444 363.2C796.444 362.672 796.624 362.228 796.984 361.868C797.344 361.508 797.776 361.328 798.28 361.328C798.784 361.328 799.216 361.508 799.576 361.868C799.936 362.228 800.116 362.672 800.116 363.2C800.116 363.704 799.936 364.136 799.576 364.496C799.216 364.832 798.784 365 798.28 365Z" fill="#FF8A37"/>
<path d="M827.006 349.556H821.52V346.826H835.794V349.556H830.308V365H827.006V349.556ZM839.056 350.336C838.536 350.336 838.094 350.163 837.73 349.816C837.384 349.469 837.21 349.036 837.21 348.516C837.21 347.996 837.384 347.563 837.73 347.216C838.094 346.852 838.536 346.67 839.056 346.67C839.576 346.67 840.018 346.852 840.382 347.216C840.746 347.563 840.928 347.996 840.928 348.516C840.928 349.036 840.746 349.469 840.382 349.816C840.018 350.163 839.576 350.336 839.056 350.336ZM837.392 352.52H840.72V365H837.392V352.52ZM844.04 352.52H847.108V354.158C847.663 353.499 848.313 352.997 849.058 352.65C849.804 352.303 850.558 352.13 851.32 352.13C852.291 352.13 853.071 352.295 853.66 352.624C854.25 352.936 854.692 353.413 854.986 354.054C855.541 353.43 856.208 352.953 856.988 352.624C857.786 352.295 858.574 352.13 859.354 352.13C860.914 352.13 862.032 352.52 862.708 353.3C863.384 354.08 863.722 355.224 863.722 356.732V365H860.576V357.174C860.576 356.29 860.394 355.657 860.03 355.276C859.684 354.895 859.12 354.704 858.34 354.704C857.786 354.704 857.274 354.817 856.806 355.042C856.356 355.25 855.94 355.614 855.558 356.134C855.593 356.689 855.61 357.139 855.61 357.486V365H852.438V357.122C852.438 356.221 852.291 355.597 851.996 355.25C851.702 354.886 851.164 354.704 850.384 354.704C849.206 354.704 848.148 355.371 847.212 356.706V365H844.04V352.52ZM873.734 365.39C871.412 365.39 869.574 364.809 868.222 363.648C866.87 362.487 866.194 360.866 866.194 358.786C866.194 356.741 866.792 355.12 867.988 353.924C869.184 352.728 870.892 352.13 873.11 352.13C874.566 352.13 875.806 352.407 876.828 352.962C877.868 353.517 878.648 354.279 879.168 355.25C879.688 356.203 879.948 357.295 879.948 358.526V360.034H869.314C869.54 361.889 871.152 362.816 874.15 362.816C874.948 362.816 875.762 362.747 876.594 362.608C877.426 362.469 878.154 362.279 878.778 362.036V364.558C878.189 364.801 877.426 365 876.49 365.156C875.572 365.312 874.653 365.39 873.734 365.39ZM876.854 357.798C876.82 356.81 876.464 356.047 875.788 355.51C875.13 354.973 874.22 354.704 873.058 354.704C871.914 354.704 871.013 354.981 870.354 355.536C869.696 356.091 869.349 356.845 869.314 357.798H876.854ZM882.558 345.786H885.834V365H882.558V345.786ZM891.946 370.148C891.496 370.148 891.019 370.113 890.516 370.044C890.031 369.992 889.65 369.914 889.372 369.81V367.314C889.806 367.487 890.343 367.574 890.984 367.574C891.643 367.574 892.137 367.427 892.466 367.132C892.796 366.837 893.082 366.369 893.324 365.728L893.818 364.428L888.436 352.52H891.738L895.586 361.62L899.2 352.52H902.476L897.016 366.118C896.462 367.487 895.786 368.501 894.988 369.16C894.208 369.819 893.194 370.148 891.946 370.148ZM913.915 352.52H917.087V354.028C917.763 353.387 918.5 352.91 919.297 352.598C920.095 352.286 921.005 352.13 922.027 352.13C923.293 352.13 924.419 352.407 925.407 352.962C926.413 353.499 927.193 354.271 927.747 355.276C928.319 356.264 928.605 357.417 928.605 358.734C928.605 360.034 928.319 361.187 927.747 362.192C927.193 363.197 926.413 363.986 925.407 364.558C924.419 365.113 923.293 365.39 922.027 365.39C921.074 365.39 920.173 365.26 919.323 365C918.491 364.723 917.781 364.315 917.191 363.778V370.694H913.915V352.52ZM921.221 362.816C922.4 362.816 923.371 362.435 924.133 361.672C924.896 360.909 925.277 359.93 925.277 358.734C925.277 357.538 924.896 356.567 924.133 355.822C923.371 355.077 922.4 354.704 921.221 354.704C920.285 354.704 919.453 354.955 918.725 355.458C917.997 355.961 917.486 356.637 917.191 357.486V360.008C917.469 360.857 917.971 361.542 918.699 362.062C919.445 362.565 920.285 362.816 921.221 362.816ZM935.122 365.39C933.632 365.39 932.41 365 931.456 364.22C930.503 363.423 930.026 362.357 930.026 361.022C930.026 359.635 930.477 358.552 931.378 357.772C932.28 356.992 933.545 356.602 935.174 356.602C936.752 356.602 938.112 356.923 939.256 357.564V357.226C939.256 356.342 938.979 355.701 938.424 355.302C937.887 354.903 937.012 354.704 935.798 354.704C935.036 354.704 934.282 354.782 933.536 354.938C932.791 355.077 932.132 355.276 931.56 355.536V352.962C932.08 352.719 932.774 352.52 933.64 352.364C934.524 352.208 935.374 352.13 936.188 352.13C938.355 352.13 939.958 352.598 940.998 353.534C942.038 354.453 942.558 355.735 942.558 357.382V365H939.464V363.778C938.927 364.298 938.312 364.697 937.618 364.974C936.942 365.251 936.11 365.39 935.122 365.39ZM935.928 362.998C936.656 362.998 937.315 362.859 937.904 362.582C938.494 362.287 938.944 361.889 939.256 361.386V360.008C938.303 359.332 937.211 358.994 935.98 358.994C934.23 358.994 933.354 359.67 933.354 361.022C933.354 361.681 933.571 362.175 934.004 362.504C934.455 362.833 935.096 362.998 935.928 362.998ZM947.374 370.148C946.924 370.148 946.447 370.113 945.944 370.044C945.459 369.992 945.078 369.914 944.8 369.81V367.314C945.234 367.487 945.771 367.574 946.412 367.574C947.071 367.574 947.565 367.427 947.894 367.132C948.224 366.837 948.51 366.369 948.752 365.728L949.246 364.428L943.864 352.52H947.166L951.014 361.62L954.628 352.52H957.904L952.444 366.118C951.89 367.487 951.214 368.501 950.416 369.16C949.636 369.819 948.622 370.148 947.374 370.148ZM959.974 352.52H963.042V354.158C963.597 353.499 964.247 352.997 964.992 352.65C965.737 352.303 966.491 352.13 967.254 352.13C968.225 352.13 969.005 352.295 969.594 352.624C970.183 352.936 970.625 353.413 970.92 354.054C971.475 353.43 972.142 352.953 972.922 352.624C973.719 352.295 974.508 352.13 975.288 352.13C976.848 352.13 977.966 352.52 978.642 353.3C979.318 354.08 979.656 355.224 979.656 356.732V365H976.51V357.174C976.51 356.29 976.328 355.657 975.964 355.276C975.617 354.895 975.054 354.704 974.274 354.704C973.719 354.704 973.208 354.817 972.74 355.042C972.289 355.25 971.873 355.614 971.492 356.134C971.527 356.689 971.544 357.139 971.544 357.486V365H968.372V357.122C968.372 356.221 968.225 355.597 967.93 355.25C967.635 354.886 967.098 354.704 966.318 354.704C965.139 354.704 964.082 355.371 963.146 356.706V365H959.974V352.52ZM989.668 365.39C987.345 365.39 985.508 364.809 984.156 363.648C982.804 362.487 982.128 360.866 982.128 358.786C982.128 356.741 982.726 355.12 983.922 353.924C985.118 352.728 986.825 352.13 989.044 352.13C990.5 352.13 991.739 352.407 992.762 352.962C993.802 353.517 994.582 354.279 995.102 355.25C995.622 356.203 995.882 357.295 995.882 358.526V360.034H985.248C985.473 361.889 987.085 362.816 990.084 362.816C990.881 362.816 991.696 362.747 992.528 362.608C993.36 362.469 994.088 362.279 994.712 362.036V364.558C994.123 364.801 993.36 365 992.424 365.156C991.505 365.312 990.587 365.39 989.668 365.39ZM992.788 357.798C992.753 356.81 992.398 356.047 991.722 355.51C991.063 354.973 990.153 354.704 988.992 354.704C987.848 354.704 986.947 354.981 986.288 355.536C985.629 356.091 985.283 356.845 985.248 357.798H992.788ZM998.492 352.52H1001.66V354.21C1002.25 353.499 1002.95 352.979 1003.77 352.65C1004.58 352.303 1005.44 352.13 1006.34 352.13C1008.02 352.13 1009.28 352.589 1010.11 353.508C1010.95 354.409 1011.36 355.614 1011.36 357.122V365H1008.09V357.434C1008.09 355.614 1007.24 354.704 1005.54 354.704C1004.79 354.704 1004.09 354.886 1003.43 355.25C1002.77 355.597 1002.22 356.125 1001.77 356.836V365H998.492V352.52ZM1019.38 365.39C1018.01 365.39 1016.97 365.009 1016.26 364.246C1015.55 363.483 1015.19 362.409 1015.19 361.022V355.016H1013.32V352.52H1015.19V348.776H1018.47V352.52H1021.46V355.016H1018.47V360.606C1018.47 361.403 1018.62 361.975 1018.91 362.322C1019.21 362.651 1019.74 362.816 1020.52 362.816C1021.06 362.816 1021.59 362.695 1022.11 362.452V364.948C1021.36 365.243 1020.45 365.39 1019.38 365.39ZM1028.8 365.39C1027.89 365.39 1026.93 365.286 1025.91 365.078C1024.89 364.87 1024.09 364.584 1023.52 364.22V361.438C1024.19 361.854 1025 362.192 1025.94 362.452C1026.87 362.695 1027.76 362.816 1028.59 362.816C1029.42 362.816 1030.03 362.747 1030.41 362.608C1030.79 362.452 1030.98 362.175 1030.98 361.776C1030.98 361.464 1030.88 361.213 1030.67 361.022C1030.48 360.814 1030.16 360.632 1029.71 360.476C1029.27 360.303 1028.6 360.095 1027.68 359.852C1026.64 359.557 1025.81 359.254 1025.21 358.942C1024.62 358.63 1024.17 358.24 1023.86 357.772C1023.56 357.287 1023.41 356.663 1023.41 355.9C1023.41 354.652 1023.91 353.716 1024.9 353.092C1025.88 352.451 1027.22 352.13 1028.9 352.13C1029.77 352.13 1030.62 352.217 1031.47 352.39C1032.34 352.546 1033.02 352.771 1033.5 353.066V355.744C1032.98 355.432 1032.35 355.181 1031.6 354.99C1030.86 354.799 1030.1 354.704 1029.32 354.704C1028.47 354.704 1027.82 354.791 1027.39 354.964C1026.96 355.12 1026.74 355.432 1026.74 355.9C1026.74 356.212 1026.85 356.463 1027.08 356.654C1027.32 356.827 1027.63 356.983 1028.02 357.122C1028.4 357.243 1029.09 357.434 1030.1 357.694C1031.17 357.989 1032.01 358.309 1032.62 358.656C1033.22 359.003 1033.66 359.419 1033.92 359.904C1034.18 360.389 1034.31 360.996 1034.31 361.724C1034.31 362.833 1033.83 363.726 1032.88 364.402C1031.94 365.061 1030.58 365.39 1028.8 365.39Z" fill="#FF8A37"/>
<rect x="720.5" y="313.5" width="593" height="78" rx="39" stroke="#FF8A37"/>
<rect x="630" y="354" width="0.999996" height="91" transform="rotate(-90 630 354)" fill="#FF8A37"/>
<path d="M822.17 414.418H824.024V427H822.17V414.418ZM826.875 419.764H825.561V418.36H826.875V416.668C826.875 415.672 827.157 414.916 827.721 414.4C828.285 413.872 829.041 413.608 829.989 413.608C830.481 413.608 830.943 413.68 831.375 413.824V415.336C831.039 415.18 830.691 415.102 830.331 415.102C829.767 415.102 829.353 415.24 829.089 415.516C828.825 415.78 828.693 416.2 828.693 416.776V418.36H830.853V419.764H828.693V427H826.875V419.764ZM839.109 418.36H840.837V419.602C841.245 419.098 841.707 418.72 842.223 418.468C842.739 418.216 843.273 418.09 843.825 418.09C844.521 418.09 845.073 418.21 845.481 418.45C845.889 418.678 846.189 419.032 846.381 419.512C846.765 419.044 847.233 418.69 847.785 418.45C848.349 418.21 848.913 418.09 849.477 418.09C850.533 418.09 851.295 418.36 851.763 418.9C852.231 419.428 852.465 420.214 852.465 421.258V427H850.701V421.492C850.701 420.784 850.569 420.286 850.305 419.998C850.041 419.698 849.591 419.548 848.955 419.548C848.043 419.548 847.299 419.944 846.723 420.736C846.747 420.916 846.759 421.21 846.759 421.618V427H844.995V421.492C844.995 420.784 844.875 420.286 844.635 419.998C844.395 419.698 843.963 419.548 843.339 419.548C842.427 419.548 841.611 420.064 840.891 421.096V427H839.109V418.36ZM858.919 427.27C857.947 427.27 857.089 427.09 856.345 426.73C855.613 426.358 855.037 425.83 854.617 425.146C854.209 424.45 854.005 423.634 854.005 422.698C854.005 421.774 854.209 420.964 854.617 420.268C855.025 419.572 855.601 419.038 856.345 418.666C857.089 418.282 857.947 418.09 858.919 418.09C859.891 418.09 860.749 418.282 861.493 418.666C862.237 419.038 862.813 419.572 863.221 420.268C863.641 420.964 863.851 421.774 863.851 422.698C863.851 423.634 863.641 424.45 863.221 425.146C862.813 425.83 862.237 426.358 861.493 426.73C860.749 427.09 859.891 427.27 858.919 427.27ZM858.919 425.83C859.855 425.83 860.599 425.542 861.151 424.966C861.703 424.39 861.979 423.634 861.979 422.698C861.979 421.726 861.703 420.958 861.151 420.394C860.599 419.83 859.855 419.548 858.919 419.548C857.983 419.548 857.239 419.83 856.687 420.394C856.135 420.958 855.859 421.726 855.859 422.698C855.859 423.634 856.135 424.39 856.687 424.966C857.239 425.542 857.983 425.83 858.919 425.83ZM865.736 418.36H867.5V419.602C867.908 419.086 868.406 418.708 868.994 418.468C869.594 418.216 870.218 418.09 870.866 418.09C872.018 418.09 872.876 418.396 873.44 419.008C874.004 419.62 874.286 420.442 874.286 421.474V427H872.468V421.654C872.468 420.25 871.796 419.548 870.452 419.548C869.876 419.548 869.336 419.686 868.832 419.962C868.34 420.226 867.914 420.634 867.554 421.186V427H865.736V418.36ZM879.769 427.27C878.893 427.27 878.215 427.018 877.735 426.514C877.267 426.01 877.033 425.296 877.033 424.372V419.764H875.719V418.36H877.033V415.768H878.869V418.36H880.993V419.764H878.869V424.246C878.869 424.822 878.977 425.23 879.193 425.47C879.421 425.71 879.829 425.83 880.417 425.83C880.765 425.83 881.113 425.752 881.461 425.596V427.036C881.005 427.192 880.441 427.27 879.769 427.27ZM883.081 413.698H884.899V419.548C885.727 418.576 886.831 418.09 888.211 418.09C889.363 418.09 890.221 418.396 890.785 419.008C891.349 419.62 891.631 420.442 891.631 421.474V427H889.813V421.654C889.813 420.25 889.141 419.548 887.797 419.548C887.221 419.548 886.681 419.686 886.177 419.962C885.685 420.226 885.259 420.634 884.899 421.186V427H883.081V413.698ZM893.784 413.698H895.602V427H893.784V413.698ZM899.696 430.564C899.048 430.564 898.508 430.498 898.076 430.366V428.944C898.388 429.064 898.772 429.124 899.228 429.124C899.648 429.124 899.978 429.016 900.218 428.8C900.458 428.596 900.674 428.26 900.866 427.792L901.28 426.784L897.5 418.36H899.372L902.252 425.002L904.934 418.36H906.806L902.918 427.972C902.558 428.872 902.126 429.526 901.622 429.934C901.13 430.354 900.488 430.564 899.696 430.564ZM914.907 418.36H916.671V419.638C917.559 418.606 918.759 418.09 920.271 418.09C921.135 418.09 921.909 418.282 922.593 418.666C923.289 419.05 923.829 419.59 924.213 420.286C924.609 420.97 924.807 421.768 924.807 422.68C924.807 423.58 924.609 424.378 924.213 425.074C923.829 425.77 923.295 426.31 922.611 426.694C921.927 427.078 921.147 427.27 920.271 427.27C919.551 427.27 918.879 427.15 918.255 426.91C917.631 426.67 917.121 426.316 916.725 425.848V430.942H914.907V418.36ZM919.857 425.83C920.445 425.83 920.973 425.704 921.441 425.452C921.921 425.188 922.293 424.816 922.557 424.336C922.833 423.856 922.971 423.304 922.971 422.68C922.971 422.056 922.833 421.51 922.557 421.042C922.293 420.562 921.921 420.196 921.441 419.944C920.973 419.68 920.445 419.548 919.857 419.548C919.125 419.548 918.477 419.74 917.913 420.124C917.361 420.508 916.965 421.036 916.725 421.708V423.652C916.929 424.312 917.319 424.84 917.895 425.236C918.471 425.632 919.125 425.83 919.857 425.83ZM929.338 427.27C928.294 427.27 927.454 427.006 926.818 426.478C926.194 425.938 925.882 425.212 925.882 424.3C925.882 423.34 926.182 422.602 926.782 422.086C927.394 421.558 928.258 421.294 929.374 421.294C930.562 421.294 931.57 421.534 932.398 422.014V421.564C932.398 420.88 932.188 420.376 931.768 420.052C931.36 419.716 930.712 419.548 929.824 419.548C929.296 419.548 928.78 419.602 928.276 419.71C927.784 419.806 927.34 419.944 926.944 420.124V418.648C927.304 418.48 927.772 418.348 928.348 418.252C928.924 418.144 929.482 418.09 930.022 418.09C931.45 418.09 932.506 418.408 933.19 419.044C933.886 419.668 934.234 420.538 934.234 421.654V427H932.524V426.028C932.152 426.436 931.708 426.748 931.192 426.964C930.688 427.168 930.07 427.27 929.338 427.27ZM929.788 425.884C930.364 425.884 930.886 425.77 931.354 425.542C931.822 425.314 932.17 424.996 932.398 424.588V423.418C931.618 422.914 930.748 422.662 929.788 422.662C929.092 422.662 928.57 422.8 928.222 423.076C927.886 423.34 927.718 423.748 927.718 424.3C927.718 425.356 928.408 425.884 929.788 425.884ZM937.428 430.564C936.78 430.564 936.24 430.498 935.808 430.366V428.944C936.12 429.064 936.504 429.124 936.96 429.124C937.38 429.124 937.71 429.016 937.95 428.8C938.19 428.596 938.406 428.26 938.598 427.792L939.012 426.784L935.232 418.36H937.104L939.984 425.002L942.666 418.36H944.538L940.65 427.972C940.29 428.872 939.858 429.526 939.354 429.934C938.862 430.354 938.22 430.564 937.428 430.564ZM946.066 418.36H947.794V419.602C948.202 419.098 948.664 418.72 949.18 418.468C949.696 418.216 950.23 418.09 950.782 418.09C951.478 418.09 952.03 418.21 952.438 418.45C952.846 418.678 953.146 419.032 953.338 419.512C953.722 419.044 954.19 418.69 954.742 418.45C955.306 418.21 955.87 418.09 956.434 418.09C957.49 418.09 958.252 418.36 958.72 418.9C959.188 419.428 959.422 420.214 959.422 421.258V427H957.658V421.492C957.658 420.784 957.526 420.286 957.262 419.998C956.998 419.698 956.548 419.548 955.912 419.548C955 419.548 954.256 419.944 953.68 420.736C953.704 420.916 953.716 421.21 953.716 421.618V427H951.952V421.492C951.952 420.784 951.832 420.286 951.592 419.998C951.352 419.698 950.92 419.548 950.296 419.548C949.384 419.548 948.568 420.064 947.848 421.096V427H946.066V418.36ZM966.338 427.27C964.742 427.27 963.488 426.874 962.576 426.082C961.676 425.278 961.226 424.15 961.226 422.698C961.226 421.282 961.628 420.16 962.432 419.332C963.248 418.504 964.406 418.09 965.906 418.09C966.902 418.09 967.748 418.282 968.444 418.666C969.14 419.038 969.662 419.56 970.01 420.232C970.37 420.892 970.55 421.648 970.55 422.5V423.4H962.954C963.014 424.216 963.356 424.828 963.98 425.236C964.616 425.632 965.474 425.83 966.554 425.83C967.106 425.83 967.664 425.782 968.228 425.686C968.792 425.578 969.29 425.44 969.722 425.272V426.73C969.338 426.886 968.828 427.012 968.192 427.108C967.568 427.216 966.95 427.27 966.338 427.27ZM968.84 422.122C968.816 421.306 968.546 420.676 968.03 420.232C967.526 419.776 966.806 419.548 965.87 419.548C964.958 419.548 964.25 419.782 963.746 420.25C963.242 420.718 962.978 421.342 962.954 422.122H968.84ZM972.447 418.36H974.211V419.602C974.619 419.086 975.117 418.708 975.705 418.468C976.305 418.216 976.929 418.09 977.577 418.09C978.729 418.09 979.587 418.396 980.151 419.008C980.715 419.62 980.997 420.442 980.997 421.474V427H979.179V421.654C979.179 420.25 978.507 419.548 977.163 419.548C976.587 419.548 976.047 419.686 975.543 419.962C975.051 420.226 974.625 420.634 974.265 421.186V427H972.447V418.36ZM986.48 427.27C985.604 427.27 984.926 427.018 984.446 426.514C983.978 426.01 983.744 425.296 983.744 424.372V419.764H982.43V418.36H983.744V415.768H985.58V418.36H987.704V419.764H985.58V424.246C985.58 424.822 985.688 425.23 985.904 425.47C986.132 425.71 986.54 425.83 987.128 425.83C987.476 425.83 987.824 425.752 988.172 425.596V427.036C987.716 427.192 987.152 427.27 986.48 427.27ZM992.627 427.27C992.027 427.27 991.391 427.192 990.719 427.036C990.047 426.892 989.519 426.694 989.135 426.442V424.894C989.603 425.17 990.143 425.398 990.755 425.578C991.367 425.746 991.961 425.83 992.537 425.83C993.185 425.83 993.659 425.752 993.959 425.596C994.259 425.44 994.409 425.188 994.409 424.84C994.409 424.576 994.337 424.366 994.193 424.21C994.061 424.042 993.827 423.892 993.491 423.76C993.167 423.628 992.675 423.472 992.015 423.292C991.307 423.088 990.743 422.884 990.323 422.68C989.915 422.464 989.603 422.194 989.387 421.87C989.183 421.546 989.081 421.126 989.081 420.61C989.081 419.782 989.405 419.158 990.053 418.738C990.713 418.306 991.595 418.09 992.699 418.09C993.275 418.09 993.839 418.144 994.391 418.252C994.943 418.36 995.387 418.51 995.723 418.702V420.214C995.375 420.01 994.943 419.848 994.427 419.728C993.923 419.608 993.407 419.548 992.879 419.548C992.243 419.548 991.757 419.626 991.421 419.782C991.085 419.938 990.917 420.214 990.917 420.61C990.917 420.862 990.989 421.066 991.133 421.222C991.277 421.378 991.505 421.516 991.817 421.636C992.141 421.744 992.651 421.888 993.347 422.068C994.439 422.368 995.195 422.722 995.615 423.13C996.047 423.538 996.263 424.102 996.263 424.822C996.263 425.566 995.957 426.16 995.345 426.604C994.733 427.048 993.827 427.27 992.627 427.27ZM1007.83 427.27C1006.78 427.27 1005.94 427.006 1005.31 426.478C1004.68 425.938 1004.37 425.212 1004.37 424.3C1004.37 423.34 1004.67 422.602 1005.27 422.086C1005.88 421.558 1006.75 421.294 1007.86 421.294C1009.05 421.294 1010.06 421.534 1010.89 422.014V421.564C1010.89 420.88 1010.68 420.376 1010.26 420.052C1009.85 419.716 1009.2 419.548 1008.31 419.548C1007.78 419.548 1007.27 419.602 1006.76 419.71C1006.27 419.806 1005.83 419.944 1005.43 420.124V418.648C1005.79 418.48 1006.26 418.348 1006.84 418.252C1007.41 418.144 1007.97 418.09 1008.51 418.09C1009.94 418.09 1010.99 418.408 1011.68 419.044C1012.37 419.668 1012.72 420.538 1012.72 421.654V427H1011.01V426.028C1010.64 426.436 1010.2 426.748 1009.68 426.964C1009.18 427.168 1008.56 427.27 1007.83 427.27ZM1008.28 425.884C1008.85 425.884 1009.37 425.77 1009.84 425.542C1010.31 425.314 1010.66 424.996 1010.89 424.588V423.418C1010.11 422.914 1009.24 422.662 1008.28 422.662C1007.58 422.662 1007.06 422.8 1006.71 423.076C1006.37 423.34 1006.21 423.748 1006.21 424.3C1006.21 425.356 1006.9 425.884 1008.28 425.884ZM1014.89 418.36H1016.65V419.908C1017.01 419.38 1017.52 418.99 1018.16 418.738C1018.82 418.486 1019.59 418.36 1020.45 418.36V419.782C1019.53 419.782 1018.73 419.932 1018.07 420.232C1017.41 420.532 1016.96 421.006 1016.71 421.654V427H1014.89V418.36ZM1026.19 427.27C1024.6 427.27 1023.34 426.874 1022.43 426.082C1021.53 425.278 1021.08 424.15 1021.08 422.698C1021.08 421.282 1021.48 420.16 1022.29 419.332C1023.1 418.504 1024.26 418.09 1025.76 418.09C1026.76 418.09 1027.6 418.282 1028.3 418.666C1029 419.038 1029.52 419.56 1029.87 420.232C1030.23 420.892 1030.41 421.648 1030.41 422.5V423.4H1022.81C1022.87 424.216 1023.21 424.828 1023.84 425.236C1024.47 425.632 1025.33 425.83 1026.41 425.83C1026.96 425.83 1027.52 425.782 1028.08 425.686C1028.65 425.578 1029.15 425.44 1029.58 425.272V426.73C1029.19 426.886 1028.68 427.012 1028.05 427.108C1027.42 427.216 1026.81 427.27 1026.19 427.27ZM1028.7 422.122C1028.67 421.306 1028.4 420.676 1027.89 420.232C1027.38 419.776 1026.66 419.548 1025.73 419.548C1024.81 419.548 1024.11 419.782 1023.6 420.25C1023.1 420.718 1022.83 421.342 1022.81 422.122H1028.7ZM1038.88 418.36H1040.6V419.602C1041.01 419.098 1041.47 418.72 1041.99 418.468C1042.51 418.216 1043.04 418.09 1043.59 418.09C1044.29 418.09 1044.84 418.21 1045.25 418.45C1045.66 418.678 1045.96 419.032 1046.15 419.512C1046.53 419.044 1047 418.69 1047.55 418.45C1048.12 418.21 1048.68 418.09 1049.24 418.09C1050.3 418.09 1051.06 418.36 1051.53 418.9C1052 419.428 1052.23 420.214 1052.23 421.258V427H1050.47V421.492C1050.47 420.784 1050.34 420.286 1050.07 419.998C1049.81 419.698 1049.36 419.548 1048.72 419.548C1047.81 419.548 1047.07 419.944 1046.49 420.736C1046.51 420.916 1046.53 421.21 1046.53 421.618V427H1044.76V421.492C1044.76 420.784 1044.64 420.286 1044.4 419.998C1044.16 419.698 1043.73 419.548 1043.11 419.548C1042.19 419.548 1041.38 420.064 1040.66 421.096V427H1038.88V418.36ZM1057.23 427.27C1056.18 427.27 1055.34 427.006 1054.71 426.478C1054.08 425.938 1053.77 425.212 1053.77 424.3C1053.77 423.34 1054.07 422.602 1054.67 422.086C1055.28 421.558 1056.15 421.294 1057.26 421.294C1058.45 421.294 1059.46 421.534 1060.29 422.014V421.564C1060.29 420.88 1060.08 420.376 1059.66 420.052C1059.25 419.716 1058.6 419.548 1057.71 419.548C1057.18 419.548 1056.67 419.602 1056.16 419.71C1055.67 419.806 1055.23 419.944 1054.83 420.124V418.648C1055.19 418.48 1055.66 418.348 1056.24 418.252C1056.81 418.144 1057.37 418.09 1057.91 418.09C1059.34 418.09 1060.39 418.408 1061.08 419.044C1061.77 419.668 1062.12 420.538 1062.12 421.654V427H1060.41V426.028C1060.04 426.436 1059.6 426.748 1059.08 426.964C1058.58 427.168 1057.96 427.27 1057.23 427.27ZM1057.68 425.884C1058.25 425.884 1058.77 425.77 1059.24 425.542C1059.71 425.314 1060.06 424.996 1060.29 424.588V423.418C1059.51 422.914 1058.64 422.662 1057.68 422.662C1056.98 422.662 1056.46 422.8 1056.11 423.076C1055.77 423.34 1055.61 423.748 1055.61 424.3C1055.61 425.356 1056.3 425.884 1057.68 425.884ZM1068.46 427.27C1067.6 427.27 1066.82 427.084 1066.12 426.712C1065.44 426.328 1064.9 425.794 1064.5 425.11C1064.12 424.414 1063.93 423.61 1063.93 422.698C1063.93 421.798 1064.12 421 1064.5 420.304C1064.9 419.608 1065.44 419.068 1066.12 418.684C1066.82 418.288 1067.6 418.09 1068.46 418.09C1070.02 418.09 1071.21 418.564 1072.01 419.512V413.698H1073.83V427H1072.06V425.74C1071.58 426.268 1071.06 426.658 1070.48 426.91C1069.92 427.15 1069.24 427.27 1068.46 427.27ZM1068.88 425.83C1069.62 425.83 1070.27 425.638 1070.82 425.254C1071.39 424.858 1071.78 424.33 1072.01 423.67V421.726C1071.81 421.066 1071.42 420.538 1070.84 420.142C1070.28 419.746 1069.62 419.548 1068.88 419.548C1068.29 419.548 1067.76 419.68 1067.28 419.944C1066.81 420.208 1066.44 420.58 1066.16 421.06C1065.9 421.54 1065.76 422.086 1065.76 422.698C1065.76 423.31 1065.9 423.856 1066.16 424.336C1066.44 424.816 1066.81 425.188 1067.28 425.452C1067.76 425.704 1068.29 425.83 1068.88 425.83ZM1080.83 427.27C1079.24 427.27 1077.98 426.874 1077.07 426.082C1076.17 425.278 1075.72 424.15 1075.72 422.698C1075.72 421.282 1076.12 420.16 1076.93 419.332C1077.74 418.504 1078.9 418.09 1080.4 418.09C1081.4 418.09 1082.24 418.282 1082.94 418.666C1083.64 419.038 1084.16 419.56 1084.51 420.232C1084.87 420.892 1085.05 421.648 1085.05 422.5V423.4H1077.45C1077.51 424.216 1077.85 424.828 1078.48 425.236C1079.11 425.632 1079.97 425.83 1081.05 425.83C1081.6 425.83 1082.16 425.782 1082.72 425.686C1083.29 425.578 1083.79 425.44 1084.22 425.272V426.73C1083.83 426.886 1083.32 427.012 1082.69 427.108C1082.06 427.216 1081.45 427.27 1080.83 427.27ZM1083.34 422.122C1083.31 421.306 1083.04 420.676 1082.53 420.232C1082.02 419.776 1081.3 419.548 1080.37 419.548C1079.45 419.548 1078.75 419.782 1078.24 420.25C1077.74 420.718 1077.47 421.342 1077.45 422.122H1083.34ZM1093.52 413.698H1095.33V427H1093.52V413.698ZM1100.69 427.27C1099.64 427.27 1098.8 427.006 1098.17 426.478C1097.54 425.938 1097.23 425.212 1097.23 424.3C1097.23 423.34 1097.53 422.602 1098.13 422.086C1098.74 421.558 1099.61 421.294 1100.72 421.294C1101.91 421.294 1102.92 421.534 1103.75 422.014V421.564C1103.75 420.88 1103.54 420.376 1103.12 420.052C1102.71 419.716 1102.06 419.548 1101.17 419.548C1100.65 419.548 1100.13 419.602 1099.63 419.71C1099.13 419.806 1098.69 419.944 1098.29 420.124V418.648C1098.65 418.48 1099.12 418.348 1099.7 418.252C1100.27 418.144 1100.83 418.09 1101.37 418.09C1102.8 418.09 1103.86 418.408 1104.54 419.044C1105.24 419.668 1105.58 420.538 1105.58 421.654V427H1103.87V426.028C1103.5 426.436 1103.06 426.748 1102.54 426.964C1102.04 427.168 1101.42 427.27 1100.69 427.27ZM1101.14 425.884C1101.71 425.884 1102.24 425.77 1102.7 425.542C1103.17 425.314 1103.52 424.996 1103.75 424.588V423.418C1102.97 422.914 1102.1 422.662 1101.14 422.662C1100.44 422.662 1099.92 422.8 1099.57 423.076C1099.24 423.34 1099.07 423.748 1099.07 424.3C1099.07 425.356 1099.76 425.884 1101.14 425.884ZM1110.62 427.27C1109.75 427.27 1109.07 427.018 1108.59 426.514C1108.12 426.01 1107.89 425.296 1107.89 424.372V419.764H1106.57V418.36H1107.89V415.768H1109.72V418.36H1111.85V419.764H1109.72V424.246C1109.72 424.822 1109.83 425.23 1110.05 425.47C1110.27 425.71 1110.68 425.83 1111.27 425.83C1111.62 425.83 1111.97 425.752 1112.31 425.596V427.036C1111.86 427.192 1111.29 427.27 1110.62 427.27ZM1118.69 427.27C1117.09 427.27 1115.84 426.874 1114.92 426.082C1114.02 425.278 1113.57 424.15 1113.57 422.698C1113.57 421.282 1113.98 420.16 1114.78 419.332C1115.6 418.504 1116.75 418.09 1118.25 418.09C1119.25 418.09 1120.1 418.282 1120.79 418.666C1121.49 419.038 1122.01 419.56 1122.36 420.232C1122.72 420.892 1122.9 421.648 1122.9 422.5V423.4H1115.3C1115.36 424.216 1115.7 424.828 1116.33 425.236C1116.96 425.632 1117.82 425.83 1118.9 425.83C1119.45 425.83 1120.01 425.782 1120.58 425.686C1121.14 425.578 1121.64 425.44 1122.07 425.272V426.73C1121.69 426.886 1121.18 427.012 1120.54 427.108C1119.92 427.216 1119.3 427.27 1118.69 427.27ZM1121.19 422.122C1121.16 421.306 1120.89 420.676 1120.38 420.232C1119.87 419.776 1119.15 419.548 1118.22 419.548C1117.31 419.548 1116.6 419.782 1116.09 420.25C1115.59 420.718 1115.33 421.342 1115.3 422.122H1121.19ZM1124.8 418.36H1126.56V419.908C1126.92 419.38 1127.42 418.99 1128.07 418.738C1128.73 418.486 1129.49 418.36 1130.36 418.36V419.782C1129.43 419.782 1128.64 419.932 1127.98 420.232C1127.32 420.532 1126.87 421.006 1126.61 421.654V427H1124.8V418.36ZM1141.8 427.27C1140.92 427.27 1140.24 427.018 1139.76 426.514C1139.3 426.01 1139.06 425.296 1139.06 424.372V419.764H1137.75V418.36H1139.06V415.768H1140.9V418.36H1143.02V419.764H1140.9V424.246C1140.9 424.822 1141.01 425.23 1141.22 425.47C1141.45 425.71 1141.86 425.83 1142.45 425.83C1142.79 425.83 1143.14 425.752 1143.49 425.596V427.036C1143.03 427.192 1142.47 427.27 1141.8 427.27ZM1145.11 413.698H1146.93V419.548C1147.76 418.576 1148.86 418.09 1150.24 418.09C1151.39 418.09 1152.25 418.396 1152.81 419.008C1153.38 419.62 1153.66 420.442 1153.66 421.474V427H1151.84V421.654C1151.84 420.25 1151.17 419.548 1149.83 419.548C1149.25 419.548 1148.71 419.686 1148.21 419.962C1147.71 420.226 1147.29 420.634 1146.93 421.186V427H1145.11V413.698ZM1158.64 427.27C1157.6 427.27 1156.76 427.006 1156.12 426.478C1155.5 425.938 1155.19 425.212 1155.19 424.3C1155.19 423.34 1155.49 422.602 1156.09 422.086C1156.7 421.558 1157.56 421.294 1158.68 421.294C1159.87 421.294 1160.88 421.534 1161.7 422.014V421.564C1161.7 420.88 1161.49 420.376 1161.07 420.052C1160.67 419.716 1160.02 419.548 1159.13 419.548C1158.6 419.548 1158.09 419.602 1157.58 419.71C1157.09 419.806 1156.65 419.944 1156.25 420.124V418.648C1156.61 418.48 1157.08 418.348 1157.65 418.252C1158.23 418.144 1158.79 418.09 1159.33 418.09C1160.76 418.09 1161.81 418.408 1162.5 419.044C1163.19 419.668 1163.54 420.538 1163.54 421.654V427H1161.83V426.028C1161.46 426.436 1161.01 426.748 1160.5 426.964C1159.99 427.168 1159.38 427.27 1158.64 427.27ZM1159.09 425.884C1159.67 425.884 1160.19 425.77 1160.66 425.542C1161.13 425.314 1161.48 424.996 1161.7 424.588V423.418C1160.92 422.914 1160.05 422.662 1159.09 422.662C1158.4 422.662 1157.88 422.8 1157.53 423.076C1157.19 423.34 1157.02 423.748 1157.02 424.3C1157.02 425.356 1157.71 425.884 1159.09 425.884ZM1165.71 418.36H1167.47V419.602C1167.88 419.086 1168.38 418.708 1168.97 418.468C1169.57 418.216 1170.19 418.09 1170.84 418.09C1171.99 418.09 1172.85 418.396 1173.41 419.008C1173.98 419.62 1174.26 420.442 1174.26 421.474V427H1172.44V421.654C1172.44 420.25 1171.77 419.548 1170.42 419.548C1169.85 419.548 1169.31 419.686 1168.8 419.962C1168.31 420.226 1167.89 420.634 1167.53 421.186V427H1165.71V418.36ZM1186.31 427.27C1185.44 427.27 1184.76 427.018 1184.28 426.514C1183.81 426.01 1183.58 425.296 1183.58 424.372V419.764H1182.26V418.36H1183.58V415.768H1185.41V418.36H1187.54V419.764H1185.41V424.246C1185.41 424.822 1185.52 425.23 1185.74 425.47C1185.96 425.71 1186.37 425.83 1186.96 425.83C1187.31 425.83 1187.66 425.752 1188 425.596V427.036C1187.55 427.192 1186.98 427.27 1186.31 427.27ZM1189.62 413.698H1191.44V419.548C1192.27 418.576 1193.37 418.09 1194.75 418.09C1195.91 418.09 1196.76 418.396 1197.33 419.008C1197.89 419.62 1198.17 420.442 1198.17 421.474V427H1196.36V421.654C1196.36 420.25 1195.68 419.548 1194.34 419.548C1193.76 419.548 1193.22 419.686 1192.72 419.962C1192.23 420.226 1191.8 420.634 1191.44 421.186V427H1189.62V413.698ZM1205.08 427.27C1203.48 427.27 1202.23 426.874 1201.32 426.082C1200.42 425.278 1199.97 424.15 1199.97 422.698C1199.97 421.282 1200.37 420.16 1201.17 419.332C1201.99 418.504 1203.15 418.09 1204.65 418.09C1205.64 418.09 1206.49 418.282 1207.19 418.666C1207.88 419.038 1208.4 419.56 1208.75 420.232C1209.11 420.892 1209.29 421.648 1209.29 422.5V423.4H1201.7C1201.76 424.216 1202.1 424.828 1202.72 425.236C1203.36 425.632 1204.22 425.83 1205.3 425.83C1205.85 425.83 1206.41 425.782 1206.97 425.686C1207.53 425.578 1208.03 425.44 1208.46 425.272V426.73C1208.08 426.886 1207.57 427.012 1206.93 427.108C1206.31 427.216 1205.69 427.27 1205.08 427.27ZM1207.58 422.122C1207.56 421.306 1207.29 420.676 1206.77 420.232C1206.27 419.776 1205.55 419.548 1204.61 419.548C1203.7 419.548 1202.99 419.782 1202.49 420.25C1201.98 420.718 1201.72 421.342 1201.7 422.122H1207.58ZM825.5 453.27C824.624 453.27 823.946 453.018 823.466 452.514C822.998 452.01 822.764 451.296 822.764 450.372V445.764H821.45V444.36H822.764V441.768H824.6V444.36H826.724V445.764H824.6V450.246C824.6 450.822 824.708 451.23 824.924 451.47C825.152 451.71 825.56 451.83 826.148 451.83C826.496 451.83 826.844 451.752 827.192 451.596V453.036C826.736 453.192 826.172 453.27 825.5 453.27ZM828.812 439.698H830.63V445.548C831.458 444.576 832.562 444.09 833.942 444.09C835.094 444.09 835.952 444.396 836.516 445.008C837.08 445.62 837.362 446.442 837.362 447.474V453H835.544V447.654C835.544 446.25 834.872 445.548 833.528 445.548C832.952 445.548 832.412 445.686 831.908 445.962C831.416 446.226 830.99 446.634 830.63 447.186V453H828.812V439.698ZM840.577 442.668C840.277 442.668 840.025 442.566 839.821 442.362C839.617 442.158 839.515 441.906 839.515 441.606C839.515 441.306 839.617 441.054 839.821 440.85C840.025 440.646 840.277 440.544 840.577 440.544C840.889 440.544 841.147 440.646 841.351 440.85C841.567 441.054 841.675 441.306 841.675 441.606C841.675 441.906 841.567 442.158 841.351 442.362C841.147 442.566 840.889 442.668 840.577 442.668ZM839.659 444.36H841.513V453H839.659V444.36ZM843.925 444.36H845.689V445.908C846.049 445.38 846.553 444.99 847.201 444.738C847.861 444.486 848.623 444.36 849.487 444.36V445.782C848.563 445.782 847.771 445.932 847.111 446.232C846.451 446.532 845.995 447.006 845.743 447.654V453H843.925V444.36ZM854.937 453.27C854.073 453.27 853.293 453.084 852.597 452.712C851.913 452.328 851.373 451.794 850.977 451.11C850.593 450.414 850.401 449.61 850.401 448.698C850.401 447.798 850.593 447 850.977 446.304C851.373 445.608 851.913 445.068 852.597 444.684C853.293 444.288 854.073 444.09 854.937 444.09C856.497 444.09 857.679 444.564 858.483 445.512V439.698H860.301V453H858.537V451.74C858.057 452.268 857.529 452.658 856.953 452.91C856.389 453.15 855.717 453.27 854.937 453.27ZM855.351 451.83C856.095 451.83 856.743 451.638 857.295 451.254C857.859 450.858 858.255 450.33 858.483 449.67V447.726C858.279 447.066 857.889 446.538 857.313 446.142C856.749 445.746 856.095 445.548 855.351 445.548C854.763 445.548 854.229 445.68 853.749 445.944C853.281 446.208 852.909 446.58 852.633 447.06C852.369 447.54 852.237 448.086 852.237 448.698C852.237 449.31 852.369 449.856 852.633 450.336C852.909 450.816 853.281 451.188 853.749 451.452C854.229 451.704 854.763 451.83 855.351 451.83ZM873.302 453.27C872.438 453.27 871.658 453.084 870.962 452.712C870.278 452.328 869.738 451.794 869.342 451.11C868.958 450.414 868.766 449.61 868.766 448.698C868.766 447.798 868.958 447 869.342 446.304C869.738 445.608 870.278 445.068 870.962 444.684C871.658 444.288 872.438 444.09 873.302 444.09C874.862 444.09 876.044 444.564 876.848 445.512V439.698H878.666V453H876.902V451.74C876.422 452.268 875.894 452.658 875.318 452.91C874.754 453.15 874.082 453.27 873.302 453.27ZM873.716 451.83C874.46 451.83 875.108 451.638 875.66 451.254C876.224 450.858 876.62 450.33 876.848 449.67V447.726C876.644 447.066 876.254 446.538 875.678 446.142C875.114 445.746 874.46 445.548 873.716 445.548C873.128 445.548 872.594 445.68 872.114 445.944C871.646 446.208 871.274 446.58 870.998 447.06C870.734 447.54 870.602 448.086 870.602 448.698C870.602 449.31 870.734 449.856 870.998 450.336C871.274 450.816 871.646 451.188 872.114 451.452C872.594 451.704 873.128 451.83 873.716 451.83ZM883.751 453.27C882.707 453.27 881.867 453.006 881.231 452.478C880.607 451.938 880.295 451.212 880.295 450.3C880.295 449.34 880.595 448.602 881.195 448.086C881.807 447.558 882.671 447.294 883.787 447.294C884.975 447.294 885.983 447.534 886.811 448.014V447.564C886.811 446.88 886.601 446.376 886.181 446.052C885.773 445.716 885.125 445.548 884.237 445.548C883.709 445.548 883.193 445.602 882.689 445.71C882.197 445.806 881.753 445.944 881.357 446.124V444.648C881.717 444.48 882.185 444.348 882.761 444.252C883.337 444.144 883.895 444.09 884.435 444.09C885.863 444.09 886.919 444.408 887.603 445.044C888.299 445.668 888.647 446.538 888.647 447.654V453H886.937V452.028C886.565 452.436 886.121 452.748 885.605 452.964C885.101 453.168 884.483 453.27 883.751 453.27ZM884.201 451.884C884.777 451.884 885.299 451.77 885.767 451.542C886.235 451.314 886.583 450.996 886.811 450.588V449.418C886.031 448.914 885.161 448.662 884.201 448.662C883.505 448.662 882.983 448.8 882.635 449.076C882.299 449.34 882.131 449.748 882.131 450.3C882.131 451.356 882.821 451.884 884.201 451.884ZM891.841 456.564C891.193 456.564 890.653 456.498 890.221 456.366V454.944C890.533 455.064 890.917 455.124 891.373 455.124C891.793 455.124 892.123 455.016 892.363 454.8C892.603 454.596 892.819 454.26 893.011 453.792L893.425 452.784L889.645 444.36H891.517L894.397 451.002L897.079 444.36H898.951L895.063 453.972C894.703 454.872 894.271 455.526 893.767 455.934C893.275 456.354 892.633 456.564 891.841 456.564ZM911.605 453.27C910.633 453.27 909.775 453.09 909.031 452.73C908.299 452.358 907.723 451.83 907.303 451.146C906.895 450.45 906.691 449.634 906.691 448.698C906.691 447.774 906.895 446.964 907.303 446.268C907.711 445.572 908.287 445.038 909.031 444.666C909.775 444.282 910.633 444.09 911.605 444.09C912.577 444.09 913.435 444.282 914.179 444.666C914.923 445.038 915.499 445.572 915.907 446.268C916.327 446.964 916.537 447.774 916.537 448.698C916.537 449.634 916.327 450.45 915.907 451.146C915.499 451.83 914.923 452.358 914.179 452.73C913.435 453.09 912.577 453.27 911.605 453.27ZM911.605 451.83C912.541 451.83 913.285 451.542 913.837 450.966C914.389 450.39 914.665 449.634 914.665 448.698C914.665 447.726 914.389 446.958 913.837 446.394C913.285 445.83 912.541 445.548 911.605 445.548C910.669 445.548 909.925 445.83 909.373 446.394C908.821 446.958 908.545 447.726 908.545 448.698C908.545 449.634 908.821 450.39 909.373 450.966C909.925 451.542 910.669 451.83 911.605 451.83ZM918.383 445.764H917.069V444.36H918.383V442.668C918.383 441.672 918.665 440.916 919.229 440.4C919.793 439.872 920.549 439.608 921.497 439.608C921.989 439.608 922.451 439.68 922.883 439.824V441.336C922.547 441.18 922.199 441.102 921.839 441.102C921.275 441.102 920.861 441.24 920.597 441.516C920.333 441.78 920.201 442.2 920.201 442.776V444.36H922.361V445.764H920.201V453H918.383V445.764ZM933.713 453.27C932.669 453.27 931.829 453.006 931.193 452.478C930.569 451.938 930.257 451.212 930.257 450.3C930.257 449.34 930.557 448.602 931.157 448.086C931.769 447.558 932.633 447.294 933.749 447.294C934.937 447.294 935.945 447.534 936.773 448.014V447.564C936.773 446.88 936.563 446.376 936.143 446.052C935.735 445.716 935.087 445.548 934.199 445.548C933.671 445.548 933.155 445.602 932.651 445.71C932.159 445.806 931.715 445.944 931.319 446.124V444.648C931.679 444.48 932.147 444.348 932.723 444.252C933.299 444.144 933.857 444.09 934.397 444.09C935.825 444.09 936.881 444.408 937.565 445.044C938.261 445.668 938.609 446.538 938.609 447.654V453H936.899V452.028C936.527 452.436 936.083 452.748 935.567 452.964C935.063 453.168 934.445 453.27 933.713 453.27ZM934.163 451.884C934.739 451.884 935.261 451.77 935.729 451.542C936.197 451.314 936.545 450.996 936.773 450.588V449.418C935.993 448.914 935.123 448.662 934.163 448.662C933.467 448.662 932.945 448.8 932.597 449.076C932.261 449.34 932.093 449.748 932.093 450.3C932.093 451.356 932.783 451.884 934.163 451.884ZM940.775 444.36H942.539V445.602C942.947 445.086 943.445 444.708 944.033 444.468C944.633 444.216 945.257 444.09 945.905 444.09C947.057 444.09 947.915 444.396 948.479 445.008C949.043 445.62 949.325 446.442 949.325 447.474V453H947.507V447.654C947.507 446.25 946.835 445.548 945.491 445.548C944.915 445.548 944.375 445.686 943.871 445.962C943.379 446.226 942.953 446.634 942.593 447.186V453H940.775V444.36ZM952.506 456.564C951.858 456.564 951.318 456.498 950.886 456.366V454.944C951.198 455.064 951.582 455.124 952.038 455.124C952.458 455.124 952.788 455.016 953.028 454.8C953.268 454.596 953.484 454.26 953.676 453.792L954.09 452.784L950.31 444.36H952.182L955.062 451.002L957.744 444.36H959.616L955.728 453.972C955.368 454.872 954.936 455.526 954.432 455.934C953.94 456.354 953.298 456.564 952.506 456.564ZM967.716 444.36H969.444V445.602C969.852 445.098 970.314 444.72 970.83 444.468C971.346 444.216 971.88 444.09 972.432 444.09C973.128 444.09 973.68 444.21 974.088 444.45C974.496 444.678 974.796 445.032 974.988 445.512C975.372 445.044 975.84 444.69 976.392 444.45C976.956 444.21 977.52 444.09 978.084 444.09C979.14 444.09 979.902 444.36 980.37 444.9C980.838 445.428 981.072 446.214 981.072 447.258V453H979.308V447.492C979.308 446.784 979.176 446.286 978.912 445.998C978.648 445.698 978.198 445.548 977.562 445.548C976.65 445.548 975.906 445.944 975.33 446.736C975.354 446.916 975.366 447.21 975.366 447.618V453H973.602V447.492C973.602 446.784 973.482 446.286 973.242 445.998C973.002 445.698 972.57 445.548 971.946 445.548C971.034 445.548 970.218 446.064 969.498 447.096V453H967.716V444.36ZM987.526 453.27C986.554 453.27 985.696 453.09 984.952 452.73C984.22 452.358 983.644 451.83 983.224 451.146C982.816 450.45 982.612 449.634 982.612 448.698C982.612 447.774 982.816 446.964 983.224 446.268C983.632 445.572 984.208 445.038 984.952 444.666C985.696 444.282 986.554 444.09 987.526 444.09C988.498 444.09 989.356 444.282 990.1 444.666C990.844 445.038 991.42 445.572 991.828 446.268C992.248 446.964 992.458 447.774 992.458 448.698C992.458 449.634 992.248 450.45 991.828 451.146C991.42 451.83 990.844 452.358 990.1 452.73C989.356 453.09 988.498 453.27 987.526 453.27ZM987.526 451.83C988.462 451.83 989.206 451.542 989.758 450.966C990.31 450.39 990.586 449.634 990.586 448.698C990.586 447.726 990.31 446.958 989.758 446.394C989.206 445.83 988.462 445.548 987.526 445.548C986.59 445.548 985.846 445.83 985.294 446.394C984.742 446.958 984.466 447.726 984.466 448.698C984.466 449.634 984.742 450.39 985.294 450.966C985.846 451.542 986.59 451.83 987.526 451.83ZM994.343 444.36H996.107V445.602C996.515 445.086 997.013 444.708 997.601 444.468C998.201 444.216 998.825 444.09 999.473 444.09C1000.62 444.09 1001.48 444.396 1002.05 445.008C1002.61 445.62 1002.89 446.442 1002.89 447.474V453H1001.07V447.654C1001.07 446.25 1000.4 445.548 999.059 445.548C998.483 445.548 997.943 445.686 997.439 445.962C996.947 446.226 996.521 446.634 996.161 447.186V453H994.343V444.36ZM1008.38 453.27C1007.5 453.27 1006.82 453.018 1006.34 452.514C1005.87 452.01 1005.64 451.296 1005.64 450.372V445.764H1004.33V444.36H1005.64V441.768H1007.48V444.36H1009.6V445.764H1007.48V450.246C1007.48 450.822 1007.58 451.23 1007.8 451.47C1008.03 451.71 1008.44 451.83 1009.02 451.83C1009.37 451.83 1009.72 451.752 1010.07 451.596V453.036C1009.61 453.192 1009.05 453.27 1008.38 453.27ZM1011.69 439.698H1013.51V445.548C1014.33 444.576 1015.44 444.09 1016.82 444.09C1017.97 444.09 1018.83 444.396 1019.39 445.008C1019.96 445.62 1020.24 446.442 1020.24 447.474V453H1018.42V447.654C1018.42 446.25 1017.75 445.548 1016.4 445.548C1015.83 445.548 1015.29 445.686 1014.78 445.962C1014.29 446.226 1013.87 446.634 1013.51 447.186V453H1011.69V439.698ZM1023.49 452.046H1025.4L1023.69 455.664H1022.03L1023.49 452.046ZM1037.2 453.27C1036.32 453.27 1035.64 453.018 1035.16 452.514C1034.69 452.01 1034.46 451.296 1034.46 450.372V445.764H1033.15V444.36H1034.46V441.768H1036.3V444.36H1038.42V445.764H1036.3V450.246C1036.3 450.822 1036.4 451.23 1036.62 451.47C1036.85 451.71 1037.26 451.83 1037.84 451.83C1038.19 451.83 1038.54 451.752 1038.89 451.596V453.036C1038.43 453.192 1037.87 453.27 1037.2 453.27ZM1040.51 439.698H1042.33V445.548C1043.15 444.576 1044.26 444.09 1045.64 444.09C1046.79 444.09 1047.65 444.396 1048.21 445.008C1048.78 445.62 1049.06 446.442 1049.06 447.474V453H1047.24V447.654C1047.24 446.25 1046.57 445.548 1045.22 445.548C1044.65 445.548 1044.11 445.686 1043.6 445.962C1043.11 446.226 1042.69 446.634 1042.33 447.186V453H1040.51V439.698ZM1055.96 453.27C1054.37 453.27 1053.11 452.874 1052.2 452.082C1051.3 451.278 1050.85 450.15 1050.85 448.698C1050.85 447.282 1051.25 446.16 1052.06 445.332C1052.87 444.504 1054.03 444.09 1055.53 444.09C1056.53 444.09 1057.37 444.282 1058.07 444.666C1058.76 445.038 1059.29 445.56 1059.63 446.232C1059.99 446.892 1060.17 447.648 1060.17 448.5V449.4H1052.58C1052.64 450.216 1052.98 450.828 1053.6 451.236C1054.24 451.632 1055.1 451.83 1056.18 451.83C1056.73 451.83 1057.29 451.782 1057.85 451.686C1058.42 451.578 1058.91 451.44 1059.35 451.272V452.73C1058.96 452.886 1058.45 453.012 1057.82 453.108C1057.19 453.216 1056.57 453.27 1055.96 453.27ZM1058.46 448.122C1058.44 447.306 1058.17 446.676 1057.65 446.232C1057.15 445.776 1056.43 445.548 1055.49 445.548C1054.58 445.548 1053.87 445.782 1053.37 446.25C1052.87 446.718 1052.6 447.342 1052.58 448.122H1058.46ZM1062.07 444.36H1063.84V445.602C1064.24 445.086 1064.74 444.708 1065.33 444.468C1065.93 444.216 1066.55 444.09 1067.2 444.09C1068.35 444.09 1069.21 444.396 1069.78 445.008C1070.34 445.62 1070.62 446.442 1070.62 447.474V453H1068.8V447.654C1068.8 446.25 1068.13 445.548 1066.79 445.548C1066.21 445.548 1065.67 445.686 1065.17 445.962C1064.68 446.226 1064.25 446.634 1063.89 447.186V453H1062.07V444.36ZM1078.99 444.36H1080.84L1082.79 450.768L1084.71 444.36H1086.35L1088.28 450.768L1090.22 444.36H1092.09L1089.28 453H1087.54L1085.54 446.556L1083.54 453H1081.78L1078.99 444.36ZM1098.19 453.27C1096.6 453.27 1095.34 452.874 1094.43 452.082C1093.53 451.278 1093.08 450.15 1093.08 448.698C1093.08 447.282 1093.48 446.16 1094.29 445.332C1095.1 444.504 1096.26 444.09 1097.76 444.09C1098.76 444.09 1099.6 444.282 1100.3 444.666C1101 445.038 1101.52 445.56 1101.87 446.232C1102.23 446.892 1102.41 447.648 1102.41 448.5V449.4H1094.81C1094.87 450.216 1095.21 450.828 1095.84 451.236C1096.47 451.632 1097.33 451.83 1098.41 451.83C1098.96 451.83 1099.52 451.782 1100.08 451.686C1100.65 451.578 1101.15 451.44 1101.58 451.272V452.73C1101.19 452.886 1100.68 453.012 1100.05 453.108C1099.42 453.216 1098.81 453.27 1098.19 453.27ZM1100.7 448.122C1100.67 447.306 1100.4 446.676 1099.89 446.232C1099.38 445.776 1098.66 445.548 1097.73 445.548C1096.81 445.548 1096.11 445.782 1095.6 446.25C1095.1 446.718 1094.83 447.342 1094.81 448.122H1100.7ZM1110.52 444.36H1112.37L1114.31 450.768L1116.24 444.36H1117.88L1119.8 450.768L1121.75 444.36H1123.62L1120.81 453H1119.07L1117.07 446.556L1115.07 453H1113.31L1110.52 444.36ZM1126.58 442.668C1126.28 442.668 1126.03 442.566 1125.82 442.362C1125.62 442.158 1125.52 441.906 1125.52 441.606C1125.52 441.306 1125.62 441.054 1125.82 440.85C1126.03 440.646 1126.28 440.544 1126.58 440.544C1126.89 440.544 1127.15 440.646 1127.35 440.85C1127.57 441.054 1127.68 441.306 1127.68 441.606C1127.68 441.906 1127.57 442.158 1127.35 442.362C1127.15 442.566 1126.89 442.668 1126.58 442.668ZM1125.66 444.36H1127.51V453H1125.66V444.36ZM1129.93 439.698H1131.74V453H1129.93V439.698ZM1134 439.698H1135.82V453H1134V439.698ZM1144.65 439.698H1146.47V445.548C1147.3 444.576 1148.4 444.09 1149.78 444.09C1150.93 444.09 1151.79 444.396 1152.35 445.008C1152.92 445.62 1153.2 446.442 1153.2 447.474V453H1151.38V447.654C1151.38 446.25 1150.71 445.548 1149.37 445.548C1148.79 445.548 1148.25 445.686 1147.75 445.962C1147.25 446.226 1146.83 446.634 1146.47 447.186V453H1144.65V439.698ZM1158.19 453.27C1157.14 453.27 1156.3 453.006 1155.67 452.478C1155.04 451.938 1154.73 451.212 1154.73 450.3C1154.73 449.34 1155.03 448.602 1155.63 448.086C1156.24 447.558 1157.11 447.294 1158.22 447.294C1159.41 447.294 1160.42 447.534 1161.25 448.014V447.564C1161.25 446.88 1161.04 446.376 1160.62 446.052C1160.21 445.716 1159.56 445.548 1158.67 445.548C1158.14 445.548 1157.63 445.602 1157.12 445.71C1156.63 445.806 1156.19 445.944 1155.79 446.124V444.648C1156.15 444.48 1156.62 444.348 1157.2 444.252C1157.77 444.144 1158.33 444.09 1158.87 444.09C1160.3 444.09 1161.35 444.408 1162.04 445.044C1162.73 445.668 1163.08 446.538 1163.08 447.654V453H1161.37V452.028C1161 452.436 1160.56 452.748 1160.04 452.964C1159.54 453.168 1158.92 453.27 1158.19 453.27ZM1158.64 451.884C1159.21 451.884 1159.73 451.77 1160.2 451.542C1160.67 451.314 1161.02 450.996 1161.25 450.588V449.418C1160.47 448.914 1159.6 448.662 1158.64 448.662C1157.94 448.662 1157.42 448.8 1157.07 449.076C1156.73 449.34 1156.57 449.748 1156.57 450.3C1156.57 451.356 1157.26 451.884 1158.64 451.884ZM1164.08 444.36H1166.01L1168.54 450.57L1171.08 444.36H1173.01L1169.34 453H1167.75L1164.08 444.36ZM1178.93 453.27C1177.33 453.27 1176.08 452.874 1175.17 452.082C1174.27 451.278 1173.82 450.15 1173.82 448.698C1173.82 447.282 1174.22 446.16 1175.02 445.332C1175.84 444.504 1177 444.09 1178.5 444.09C1179.49 444.09 1180.34 444.282 1181.03 444.666C1181.73 445.038 1182.25 445.56 1182.6 446.232C1182.96 446.892 1183.14 447.648 1183.14 448.5V449.4H1175.54C1175.6 450.216 1175.95 450.828 1176.57 451.236C1177.21 451.632 1178.06 451.83 1179.14 451.83C1179.7 451.83 1180.25 451.782 1180.82 451.686C1181.38 451.578 1181.88 451.44 1182.31 451.272V452.73C1181.93 452.886 1181.42 453.012 1180.78 453.108C1180.16 453.216 1179.54 453.27 1178.93 453.27ZM1181.43 448.122C1181.41 447.306 1181.14 446.676 1180.62 446.232C1180.12 445.776 1179.4 445.548 1178.46 445.548C1177.55 445.548 1176.84 445.782 1176.34 446.25C1175.83 446.718 1175.57 447.342 1175.54 448.122H1181.43ZM1194.94 453.27C1194.06 453.27 1193.38 453.018 1192.9 452.514C1192.44 452.01 1192.2 451.296 1192.2 450.372V445.764H1190.89V444.36H1192.2V441.768H1194.04V444.36H1196.16V445.764H1194.04V450.246C1194.04 450.822 1194.15 451.23 1194.36 451.47C1194.59 451.71 1195 451.83 1195.59 451.83C1195.93 451.83 1196.28 451.752 1196.63 451.596V453.036C1196.17 453.192 1195.61 453.27 1194.94 453.27ZM1202.72 453.27C1201.75 453.27 1200.89 453.09 1200.14 452.73C1199.41 452.358 1198.84 451.83 1198.42 451.146C1198.01 450.45 1197.8 449.634 1197.8 448.698C1197.8 447.774 1198.01 446.964 1198.42 446.268C1198.82 445.572 1199.4 445.038 1200.14 444.666C1200.89 444.282 1201.75 444.09 1202.72 444.09C1203.69 444.09 1204.55 444.282 1205.29 444.666C1206.04 445.038 1206.61 445.572 1207.02 446.268C1207.44 446.964 1207.65 447.774 1207.65 448.698C1207.65 449.634 1207.44 450.45 1207.02 451.146C1206.61 451.83 1206.04 452.358 1205.29 452.73C1204.55 453.09 1203.69 453.27 1202.72 453.27ZM1202.72 451.83C1203.65 451.83 1204.4 451.542 1204.95 450.966C1205.5 450.39 1205.78 449.634 1205.78 448.698C1205.78 447.726 1205.5 446.958 1204.95 446.394C1204.4 445.83 1203.65 445.548 1202.72 445.548C1201.78 445.548 1201.04 445.83 1200.49 446.394C1199.93 446.958 1199.66 447.726 1199.66 448.698C1199.66 449.634 1199.93 450.39 1200.49 450.966C1201.04 451.542 1201.78 451.83 1202.72 451.83ZM822.17 470.36H823.934V471.908C824.294 471.38 824.798 470.99 825.446 470.738C826.106 470.486 826.868 470.36 827.732 470.36V471.782C826.808 471.782 826.016 471.932 825.356 472.232C824.696 472.532 824.24 473.006 823.988 473.654V479H822.17V470.36ZM833.477 479.27C831.881 479.27 830.627 478.874 829.715 478.082C828.815 477.278 828.365 476.15 828.365 474.698C828.365 473.282 828.767 472.16 829.571 471.332C830.387 470.504 831.545 470.09 833.045 470.09C834.041 470.09 834.887 470.282 835.583 470.666C836.279 471.038 836.801 471.56 837.149 472.232C837.509 472.892 837.689 473.648 837.689 474.5V475.4H830.093C830.153 476.216 830.495 476.828 831.119 477.236C831.755 477.632 832.613 477.83 833.693 477.83C834.245 477.83 834.803 477.782 835.367 477.686C835.931 477.578 836.429 477.44 836.861 477.272V478.73C836.477 478.886 835.967 479.012 835.331 479.108C834.707 479.216 834.089 479.27 833.477 479.27ZM835.979 474.122C835.955 473.306 835.685 472.676 835.169 472.232C834.665 471.776 833.945 471.548 833.009 471.548C832.097 471.548 831.389 471.782 830.885 472.25C830.381 472.718 830.117 473.342 830.093 474.122H835.979ZM839.586 470.36H841.314V471.602C841.722 471.098 842.184 470.72 842.7 470.468C843.216 470.216 843.75 470.09 844.302 470.09C844.998 470.09 845.55 470.21 845.958 470.45C846.366 470.678 846.666 471.032 846.858 471.512C847.242 471.044 847.71 470.69 848.262 470.45C848.826 470.21 849.39 470.09 849.954 470.09C851.01 470.09 851.772 470.36 852.24 470.9C852.708 471.428 852.942 472.214 852.942 473.258V479H851.178V473.492C851.178 472.784 851.046 472.286 850.782 471.998C850.518 471.698 850.068 471.548 849.432 471.548C848.52 471.548 847.776 471.944 847.2 472.736C847.224 472.916 847.236 473.21 847.236 473.618V479H845.472V473.492C845.472 472.784 845.352 472.286 845.112 471.998C844.872 471.698 844.44 471.548 843.816 471.548C842.904 471.548 842.088 472.064 841.368 473.096V479H839.586V470.36ZM859.395 479.27C858.423 479.27 857.565 479.09 856.821 478.73C856.089 478.358 855.513 477.83 855.093 477.146C854.685 476.45 854.481 475.634 854.481 474.698C854.481 473.774 854.685 472.964 855.093 472.268C855.501 471.572 856.077 471.038 856.821 470.666C857.565 470.282 858.423 470.09 859.395 470.09C860.367 470.09 861.225 470.282 861.969 470.666C862.713 471.038 863.289 471.572 863.697 472.268C864.117 472.964 864.327 473.774 864.327 474.698C864.327 475.634 864.117 476.45 863.697 477.146C863.289 477.83 862.713 478.358 861.969 478.73C861.225 479.09 860.367 479.27 859.395 479.27ZM859.395 477.83C860.331 477.83 861.075 477.542 861.627 476.966C862.179 476.39 862.455 475.634 862.455 474.698C862.455 473.726 862.179 472.958 861.627 472.394C861.075 471.83 860.331 471.548 859.395 471.548C858.459 471.548 857.715 471.83 857.163 472.394C856.611 472.958 856.335 473.726 856.335 474.698C856.335 475.634 856.611 476.39 857.163 476.966C857.715 477.542 858.459 477.83 859.395 477.83ZM864.675 470.36H866.601L869.139 476.57L871.677 470.36H873.603L869.931 479H868.347L864.675 470.36ZM879.523 479.27C877.927 479.27 876.673 478.874 875.761 478.082C874.861 477.278 874.411 476.15 874.411 474.698C874.411 473.282 874.813 472.16 875.617 471.332C876.433 470.504 877.591 470.09 879.091 470.09C880.087 470.09 880.933 470.282 881.629 470.666C882.325 471.038 882.847 471.56 883.195 472.232C883.555 472.892 883.735 473.648 883.735 474.5V475.4H876.139C876.199 476.216 876.541 476.828 877.165 477.236C877.801 477.632 878.659 477.83 879.739 477.83C880.291 477.83 880.849 477.782 881.413 477.686C881.977 477.578 882.475 477.44 882.907 477.272V478.73C882.523 478.886 882.013 479.012 881.377 479.108C880.753 479.216 880.135 479.27 879.523 479.27ZM882.025 474.122C882.001 473.306 881.731 472.676 881.215 472.232C880.711 471.776 879.991 471.548 879.055 471.548C878.143 471.548 877.435 471.782 876.931 472.25C876.427 472.718 876.163 473.342 876.139 474.122H882.025ZM894.04 482.564C893.392 482.564 892.852 482.498 892.42 482.366V480.944C892.732 481.064 893.116 481.124 893.572 481.124C893.992 481.124 894.322 481.016 894.562 480.8C894.802 480.596 895.018 480.26 895.21 479.792L895.624 478.784L891.844 470.36H893.716L896.596 477.002L899.278 470.36H901.15L897.262 479.972C896.902 480.872 896.47 481.526 895.966 481.934C895.474 482.354 894.832 482.564 894.04 482.564ZM906.055 479.27C905.083 479.27 904.225 479.09 903.481 478.73C902.749 478.358 902.173 477.83 901.753 477.146C901.345 476.45 901.141 475.634 901.141 474.698C901.141 473.774 901.345 472.964 901.753 472.268C902.161 471.572 902.737 471.038 903.481 470.666C904.225 470.282 905.083 470.09 906.055 470.09C907.027 470.09 907.885 470.282 908.629 470.666C909.373 471.038 909.949 471.572 910.357 472.268C910.777 472.964 910.987 473.774 910.987 474.698C910.987 475.634 910.777 476.45 910.357 477.146C909.949 477.83 909.373 478.358 908.629 478.73C907.885 479.09 907.027 479.27 906.055 479.27ZM906.055 477.83C906.991 477.83 907.735 477.542 908.287 476.966C908.839 476.39 909.115 475.634 909.115 474.698C909.115 473.726 908.839 472.958 908.287 472.394C907.735 471.83 906.991 471.548 906.055 471.548C905.119 471.548 904.375 471.83 903.823 472.394C903.271 472.958 902.995 473.726 902.995 474.698C902.995 475.634 903.271 476.39 903.823 476.966C904.375 477.542 905.119 477.83 906.055 477.83ZM916.31 479.27C915.146 479.27 914.264 478.958 913.664 478.334C913.076 477.71 912.782 476.876 912.782 475.832V470.36H914.6V475.76C914.6 477.14 915.29 477.83 916.67 477.83C917.882 477.83 918.83 477.284 919.514 476.192V470.36H921.332V479H919.568V477.776C919.16 478.292 918.674 478.67 918.11 478.91C917.558 479.15 916.958 479.27 916.31 479.27ZM930.741 471.764H929.427V470.36H930.741V468.668C930.741 467.672 931.023 466.916 931.587 466.4C932.151 465.872 932.907 465.608 933.855 465.608C934.347 465.608 934.809 465.68 935.241 465.824V467.336C934.905 467.18 934.557 467.102 934.197 467.102C933.633 467.102 933.219 467.24 932.955 467.516C932.691 467.78 932.559 468.2 932.559 468.776V470.36H934.719V471.764H932.559V479H930.741V471.764ZM936.315 470.36H938.079V471.908C938.439 471.38 938.943 470.99 939.591 470.738C940.251 470.486 941.013 470.36 941.877 470.36V471.782C940.953 471.782 940.161 471.932 939.501 472.232C938.841 472.532 938.385 473.006 938.133 473.654V479H936.315V470.36ZM947.704 479.27C946.732 479.27 945.874 479.09 945.13 478.73C944.398 478.358 943.822 477.83 943.402 477.146C942.994 476.45 942.79 475.634 942.79 474.698C942.79 473.774 942.994 472.964 943.402 472.268C943.81 471.572 944.386 471.038 945.13 470.666C945.874 470.282 946.732 470.09 947.704 470.09C948.676 470.09 949.534 470.282 950.278 470.666C951.022 471.038 951.598 471.572 952.006 472.268C952.426 472.964 952.636 473.774 952.636 474.698C952.636 475.634 952.426 476.45 952.006 477.146C951.598 477.83 951.022 478.358 950.278 478.73C949.534 479.09 948.676 479.27 947.704 479.27ZM947.704 477.83C948.64 477.83 949.384 477.542 949.936 476.966C950.488 476.39 950.764 475.634 950.764 474.698C950.764 473.726 950.488 472.958 949.936 472.394C949.384 471.83 948.64 471.548 947.704 471.548C946.768 471.548 946.024 471.83 945.472 472.394C944.92 472.958 944.644 473.726 944.644 474.698C944.644 475.634 944.92 476.39 945.472 476.966C946.024 477.542 946.768 477.83 947.704 477.83ZM954.521 470.36H956.249V471.602C956.657 471.098 957.119 470.72 957.635 470.468C958.151 470.216 958.685 470.09 959.237 470.09C959.933 470.09 960.485 470.21 960.893 470.45C961.301 470.678 961.601 471.032 961.793 471.512C962.177 471.044 962.645 470.69 963.197 470.45C963.761 470.21 964.325 470.09 964.889 470.09C965.945 470.09 966.707 470.36 967.175 470.9C967.643 471.428 967.877 472.214 967.877 473.258V479H966.113V473.492C966.113 472.784 965.981 472.286 965.717 471.998C965.453 471.698 965.003 471.548 964.367 471.548C963.455 471.548 962.711 471.944 962.135 472.736C962.159 472.916 962.171 473.21 962.171 473.618V479H960.407V473.492C960.407 472.784 960.287 472.286 960.047 471.998C959.807 471.698 959.375 471.548 958.751 471.548C957.839 471.548 957.023 472.064 956.303 473.096V479H954.521V470.36ZM979.709 479.27C978.665 479.27 977.825 479.006 977.189 478.478C976.565 477.938 976.253 477.212 976.253 476.3C976.253 475.34 976.553 474.602 977.153 474.086C977.765 473.558 978.629 473.294 979.745 473.294C980.933 473.294 981.941 473.534 982.769 474.014V473.564C982.769 472.88 982.559 472.376 982.139 472.052C981.731 471.716 981.083 471.548 980.195 471.548C979.667 471.548 979.151 471.602 978.647 471.71C978.155 471.806 977.711 471.944 977.315 472.124V470.648C977.675 470.48 978.143 470.348 978.719 470.252C979.295 470.144 979.853 470.09 980.393 470.09C981.821 470.09 982.877 470.408 983.561 471.044C984.257 471.668 984.605 472.538 984.605 473.654V479H982.895V478.028C982.523 478.436 982.079 478.748 981.563 478.964C981.059 479.168 980.441 479.27 979.709 479.27ZM980.159 477.884C980.735 477.884 981.257 477.77 981.725 477.542C982.193 477.314 982.541 476.996 982.769 476.588V475.418C981.989 474.914 981.119 474.662 980.159 474.662C979.463 474.662 978.941 474.8 978.593 475.076C978.257 475.34 978.089 475.748 978.089 476.3C978.089 477.356 978.779 477.884 980.159 477.884ZM986.771 470.36H988.535V471.602C988.943 471.086 989.441 470.708 990.029 470.468C990.629 470.216 991.253 470.09 991.901 470.09C993.053 470.09 993.911 470.396 994.475 471.008C995.039 471.62 995.321 472.442 995.321 473.474V479H993.503V473.654C993.503 472.25 992.831 471.548 991.487 471.548C990.911 471.548 990.371 471.686 989.867 471.962C989.375 472.226 988.949 472.634 988.589 473.186V479H986.771V470.36ZM998.501 482.564C997.853 482.564 997.313 482.498 996.881 482.366V480.944C997.193 481.064 997.577 481.124 998.033 481.124C998.453 481.124 998.783 481.016 999.023 480.8C999.263 480.596 999.479 480.26 999.671 479.792L1000.09 478.784L996.305 470.36H998.177L1001.06 477.002L1003.74 470.36H1005.61L1001.72 479.972C1001.36 480.872 1000.93 481.526 1000.43 481.934C999.935 482.354 999.293 482.564 998.501 482.564ZM1013.71 470.36H1015.48V471.638C1016.36 470.606 1017.56 470.09 1019.08 470.09C1019.94 470.09 1020.71 470.282 1021.4 470.666C1022.09 471.05 1022.63 471.59 1023.02 472.286C1023.41 472.97 1023.61 473.768 1023.61 474.68C1023.61 475.58 1023.41 476.378 1023.02 477.074C1022.63 477.77 1022.1 478.31 1021.42 478.694C1020.73 479.078 1019.95 479.27 1019.08 479.27C1018.36 479.27 1017.68 479.15 1017.06 478.91C1016.44 478.67 1015.93 478.316 1015.53 477.848V482.942H1013.71V470.36ZM1018.66 477.83C1019.25 477.83 1019.78 477.704 1020.25 477.452C1020.73 477.188 1021.1 476.816 1021.36 476.336C1021.64 475.856 1021.78 475.304 1021.78 474.68C1021.78 474.056 1021.64 473.51 1021.36 473.042C1021.1 472.562 1020.73 472.196 1020.25 471.944C1019.78 471.68 1019.25 471.548 1018.66 471.548C1017.93 471.548 1017.28 471.74 1016.72 472.124C1016.17 472.508 1015.77 473.036 1015.53 473.708V475.652C1015.73 476.312 1016.12 476.84 1016.7 477.236C1017.28 477.632 1017.93 477.83 1018.66 477.83ZM1028.14 479.27C1027.1 479.27 1026.26 479.006 1025.62 478.478C1025 477.938 1024.69 477.212 1024.69 476.3C1024.69 475.34 1024.99 474.602 1025.59 474.086C1026.2 473.558 1027.06 473.294 1028.18 473.294C1029.37 473.294 1030.38 473.534 1031.2 474.014V473.564C1031.2 472.88 1030.99 472.376 1030.57 472.052C1030.17 471.716 1029.52 471.548 1028.63 471.548C1028.1 471.548 1027.59 471.602 1027.08 471.71C1026.59 471.806 1026.15 471.944 1025.75 472.124V470.648C1026.11 470.48 1026.58 470.348 1027.15 470.252C1027.73 470.144 1028.29 470.09 1028.83 470.09C1030.26 470.09 1031.31 470.408 1032 471.044C1032.69 471.668 1033.04 472.538 1033.04 473.654V479H1031.33V478.028C1030.96 478.436 1030.51 478.748 1030 478.964C1029.49 479.168 1028.88 479.27 1028.14 479.27ZM1028.59 477.884C1029.17 477.884 1029.69 477.77 1030.16 477.542C1030.63 477.314 1030.98 476.996 1031.2 476.588V475.418C1030.42 474.914 1029.55 474.662 1028.59 474.662C1027.9 474.662 1027.38 474.8 1027.03 475.076C1026.69 475.34 1026.52 475.748 1026.52 476.3C1026.52 477.356 1027.21 477.884 1028.59 477.884ZM1036.27 468.668C1035.97 468.668 1035.72 468.566 1035.51 468.362C1035.31 468.158 1035.21 467.906 1035.21 467.606C1035.21 467.306 1035.31 467.054 1035.51 466.85C1035.72 466.646 1035.97 466.544 1036.27 466.544C1036.58 466.544 1036.84 466.646 1037.04 466.85C1037.26 467.054 1037.37 467.306 1037.37 467.606C1037.37 467.906 1037.26 468.158 1037.04 468.362C1036.84 468.566 1036.58 468.668 1036.27 468.668ZM1035.35 470.36H1037.2V479H1035.35V470.36ZM1043.79 479.27C1042.93 479.27 1042.15 479.084 1041.45 478.712C1040.77 478.328 1040.23 477.794 1039.83 477.11C1039.45 476.414 1039.26 475.61 1039.26 474.698C1039.26 473.798 1039.45 473 1039.83 472.304C1040.23 471.608 1040.77 471.068 1041.45 470.684C1042.15 470.288 1042.93 470.09 1043.79 470.09C1045.35 470.09 1046.53 470.564 1047.34 471.512V465.698H1049.16V479H1047.39V477.74C1046.91 478.268 1046.38 478.658 1045.81 478.91C1045.24 479.15 1044.57 479.27 1043.79 479.27ZM1044.21 477.83C1044.95 477.83 1045.6 477.638 1046.15 477.254C1046.71 476.858 1047.11 476.33 1047.34 475.67V473.726C1047.13 473.066 1046.74 472.538 1046.17 472.142C1045.6 471.746 1044.95 471.548 1044.21 471.548C1043.62 471.548 1043.08 471.68 1042.6 471.944C1042.14 472.208 1041.76 472.58 1041.49 473.06C1041.22 473.54 1041.09 474.086 1041.09 474.698C1041.09 475.31 1041.22 475.856 1041.49 476.336C1041.76 476.816 1042.14 477.188 1042.6 477.452C1043.08 477.704 1043.62 477.83 1044.21 477.83ZM1062.5 483.14C1061.91 483.14 1061.33 483.092 1060.77 482.996C1060.22 482.9 1059.75 482.762 1059.37 482.582V481.088C1060.27 481.496 1061.31 481.7 1062.5 481.7C1063.61 481.7 1064.42 481.454 1064.93 480.962C1065.44 480.482 1065.7 479.75 1065.7 478.766V477.848C1064.91 478.796 1063.75 479.27 1062.21 479.27C1061.33 479.27 1060.55 479.078 1059.85 478.694C1059.16 478.31 1058.61 477.77 1058.21 477.074C1057.82 476.378 1057.62 475.58 1057.62 474.68C1057.62 473.768 1057.81 472.97 1058.2 472.286C1058.59 471.59 1059.13 471.05 1059.82 470.666C1060.51 470.282 1061.29 470.09 1062.16 470.09C1062.96 470.09 1063.64 470.21 1064.19 470.45C1064.75 470.678 1065.28 471.062 1065.76 471.602V470.36H1067.52V478.568C1067.52 480.044 1067.11 481.172 1066.28 481.952C1065.46 482.744 1064.2 483.14 1062.5 483.14ZM1062.57 477.83C1063.31 477.83 1063.97 477.632 1064.53 477.236C1065.11 476.84 1065.5 476.312 1065.7 475.652V473.708C1065.47 473.036 1065.08 472.508 1064.51 472.124C1063.96 471.74 1063.31 471.548 1062.57 471.548C1061.98 471.548 1061.45 471.68 1060.97 471.944C1060.5 472.196 1060.13 472.562 1059.85 473.042C1059.59 473.522 1059.46 474.068 1059.46 474.68C1059.46 475.304 1059.59 475.856 1059.85 476.336C1060.13 476.804 1060.5 477.17 1060.97 477.434C1061.45 477.698 1061.98 477.83 1062.57 477.83ZM1069.77 470.36H1071.54V471.908C1071.9 471.38 1072.4 470.99 1073.05 470.738C1073.71 470.486 1074.47 470.36 1075.34 470.36V471.782C1074.41 471.782 1073.62 471.932 1072.96 472.232C1072.3 472.532 1071.84 473.006 1071.59 473.654V479H1069.77V470.36ZM1081.16 479.27C1080.19 479.27 1079.33 479.09 1078.59 478.73C1077.86 478.358 1077.28 477.83 1076.86 477.146C1076.45 476.45 1076.25 475.634 1076.25 474.698C1076.25 473.774 1076.45 472.964 1076.86 472.268C1077.27 471.572 1077.85 471.038 1078.59 470.666C1079.33 470.282 1080.19 470.09 1081.16 470.09C1082.14 470.09 1082.99 470.282 1083.74 470.666C1084.48 471.038 1085.06 471.572 1085.47 472.268C1085.89 472.964 1086.1 473.774 1086.1 474.698C1086.1 475.634 1085.89 476.45 1085.47 477.146C1085.06 477.83 1084.48 478.358 1083.74 478.73C1082.99 479.09 1082.14 479.27 1081.16 479.27ZM1081.16 477.83C1082.1 477.83 1082.84 477.542 1083.4 476.966C1083.95 476.39 1084.22 475.634 1084.22 474.698C1084.22 473.726 1083.95 472.958 1083.4 472.394C1082.84 471.83 1082.1 471.548 1081.16 471.548C1080.23 471.548 1079.48 471.83 1078.93 472.394C1078.38 472.958 1078.1 473.726 1078.1 474.698C1078.1 475.634 1078.38 476.39 1078.93 476.966C1079.48 477.542 1080.23 477.83 1081.16 477.83ZM1091.42 479.27C1090.25 479.27 1089.37 478.958 1088.77 478.334C1088.18 477.71 1087.89 476.876 1087.89 475.832V470.36H1089.71V475.76C1089.71 477.14 1090.4 477.83 1091.78 477.83C1092.99 477.83 1093.94 477.284 1094.62 476.192V470.36H1096.44V479H1094.68V477.776C1094.27 478.292 1093.78 478.67 1093.22 478.91C1092.67 479.15 1092.07 479.27 1091.42 479.27ZM1098.68 470.36H1100.45V471.638C1101.34 470.606 1102.54 470.09 1104.05 470.09C1104.91 470.09 1105.69 470.282 1106.37 470.666C1107.07 471.05 1107.61 471.59 1107.99 472.286C1108.39 472.97 1108.58 473.768 1108.58 474.68C1108.58 475.58 1108.39 476.378 1107.99 477.074C1107.61 477.77 1107.07 478.31 1106.39 478.694C1105.7 479.078 1104.92 479.27 1104.05 479.27C1103.33 479.27 1102.66 479.15 1102.03 478.91C1101.41 478.67 1100.9 478.316 1100.5 477.848V482.942H1098.68V470.36ZM1103.63 477.83C1104.22 477.83 1104.75 477.704 1105.22 477.452C1105.7 477.188 1106.07 476.816 1106.33 476.336C1106.61 475.856 1106.75 475.304 1106.75 474.68C1106.75 474.056 1106.61 473.51 1106.33 473.042C1106.07 472.562 1105.7 472.196 1105.22 471.944C1104.75 471.68 1104.22 471.548 1103.63 471.548C1102.9 471.548 1102.25 471.74 1101.69 472.124C1101.14 472.508 1100.74 473.036 1100.5 473.708V475.652C1100.71 476.312 1101.1 476.84 1101.67 477.236C1102.25 477.632 1102.9 477.83 1103.63 477.83ZM1113.4 479.27C1112.8 479.27 1112.16 479.192 1111.49 479.036C1110.82 478.892 1110.29 478.694 1109.91 478.442V476.894C1110.37 477.17 1110.91 477.398 1111.53 477.578C1112.14 477.746 1112.73 477.83 1113.31 477.83C1113.96 477.83 1114.43 477.752 1114.73 477.596C1115.03 477.44 1115.18 477.188 1115.18 476.84C1115.18 476.576 1115.11 476.366 1114.96 476.21C1114.83 476.042 1114.6 475.892 1114.26 475.76C1113.94 475.628 1113.45 475.472 1112.79 475.292C1112.08 475.088 1111.51 474.884 1111.09 474.68C1110.69 474.464 1110.37 474.194 1110.16 473.87C1109.95 473.546 1109.85 473.126 1109.85 472.61C1109.85 471.782 1110.18 471.158 1110.82 470.738C1111.48 470.306 1112.37 470.09 1113.47 470.09C1114.05 470.09 1114.61 470.144 1115.16 470.252C1115.71 470.36 1116.16 470.51 1116.49 470.702V472.214C1116.15 472.01 1115.71 471.848 1115.2 471.728C1114.69 471.608 1114.18 471.548 1113.65 471.548C1113.01 471.548 1112.53 471.626 1112.19 471.782C1111.86 471.938 1111.69 472.214 1111.69 472.61C1111.69 472.862 1111.76 473.066 1111.9 473.222C1112.05 473.378 1112.28 473.516 1112.59 473.636C1112.91 473.744 1113.42 473.888 1114.12 474.068C1115.21 474.368 1115.97 474.722 1116.39 475.13C1116.82 475.538 1117.03 476.102 1117.03 476.822C1117.03 477.566 1116.73 478.16 1116.12 478.604C1115.5 479.048 1114.6 479.27 1113.4 479.27ZM1128.83 479.27C1127.95 479.27 1127.28 479.018 1126.8 478.514C1126.33 478.01 1126.09 477.296 1126.09 476.372V471.764H1124.78V470.36H1126.09V467.768H1127.93V470.36H1130.05V471.764H1127.93V476.246C1127.93 476.822 1128.04 477.23 1128.25 477.47C1128.48 477.71 1128.89 477.83 1129.48 477.83C1129.83 477.83 1130.17 477.752 1130.52 477.596V479.036C1130.07 479.192 1129.5 479.27 1128.83 479.27ZM1132.14 465.698H1133.96V471.548C1134.79 470.576 1135.89 470.09 1137.27 470.09C1138.43 470.09 1139.28 470.396 1139.85 471.008C1140.41 471.62 1140.69 472.442 1140.69 473.474V479H1138.88V473.654C1138.88 472.25 1138.2 471.548 1136.86 471.548C1136.28 471.548 1135.74 471.686 1135.24 471.962C1134.75 472.226 1134.32 472.634 1133.96 473.186V479H1132.14V465.698ZM1145.68 479.27C1144.63 479.27 1143.79 479.006 1143.16 478.478C1142.53 477.938 1142.22 477.212 1142.22 476.3C1142.22 475.34 1142.52 474.602 1143.12 474.086C1143.73 473.558 1144.6 473.294 1145.71 473.294C1146.9 473.294 1147.91 473.534 1148.74 474.014V473.564C1148.74 472.88 1148.53 472.376 1148.11 472.052C1147.7 471.716 1147.05 471.548 1146.16 471.548C1145.64 471.548 1145.12 471.602 1144.62 471.71C1144.12 471.806 1143.68 471.944 1143.28 472.124V470.648C1143.64 470.48 1144.11 470.348 1144.69 470.252C1145.26 470.144 1145.82 470.09 1146.36 470.09C1147.79 470.09 1148.85 470.408 1149.53 471.044C1150.23 471.668 1150.57 472.538 1150.57 473.654V479H1148.86V478.028C1148.49 478.436 1148.05 478.748 1147.53 478.964C1147.03 479.168 1146.41 479.27 1145.68 479.27ZM1146.13 477.884C1146.7 477.884 1147.23 477.77 1147.69 477.542C1148.16 477.314 1148.51 476.996 1148.74 476.588V475.418C1147.96 474.914 1147.09 474.662 1146.13 474.662C1145.43 474.662 1144.91 474.8 1144.56 475.076C1144.23 475.34 1144.06 475.748 1144.06 476.3C1144.06 477.356 1144.75 477.884 1146.13 477.884ZM1155.61 479.27C1154.74 479.27 1154.06 479.018 1153.58 478.514C1153.11 478.01 1152.88 477.296 1152.88 476.372V471.764H1151.56V470.36H1152.88V467.768H1154.71V470.36H1156.84V471.764H1154.71V476.246C1154.71 476.822 1154.82 477.23 1155.04 477.47C1155.27 477.71 1155.67 477.83 1156.26 477.83C1156.61 477.83 1156.96 477.752 1157.31 477.596V479.036C1156.85 479.192 1156.29 479.27 1155.61 479.27ZM1167.33 482.564C1166.69 482.564 1166.15 482.498 1165.71 482.366V480.944C1166.03 481.064 1166.41 481.124 1166.87 481.124C1167.29 481.124 1167.62 481.016 1167.86 480.8C1168.1 480.596 1168.31 480.26 1168.5 479.792L1168.92 478.784L1165.14 470.36H1167.01L1169.89 477.002L1172.57 470.36H1174.44L1170.56 479.972C1170.2 480.872 1169.76 481.526 1169.26 481.934C1168.77 482.354 1168.13 482.564 1167.33 482.564ZM1179.35 479.27C1178.38 479.27 1177.52 479.09 1176.77 478.73C1176.04 478.358 1175.47 477.83 1175.05 477.146C1174.64 476.45 1174.43 475.634 1174.43 474.698C1174.43 473.774 1174.64 472.964 1175.05 472.268C1175.45 471.572 1176.03 471.038 1176.77 470.666C1177.52 470.282 1178.38 470.09 1179.35 470.09C1180.32 470.09 1181.18 470.282 1181.92 470.666C1182.67 471.038 1183.24 471.572 1183.65 472.268C1184.07 472.964 1184.28 473.774 1184.28 474.698C1184.28 475.634 1184.07 476.45 1183.65 477.146C1183.24 477.83 1182.67 478.358 1181.92 478.73C1181.18 479.09 1180.32 479.27 1179.35 479.27ZM1179.35 477.83C1180.28 477.83 1181.03 477.542 1181.58 476.966C1182.13 476.39 1182.41 475.634 1182.41 474.698C1182.41 473.726 1182.13 472.958 1181.58 472.394C1181.03 471.83 1180.28 471.548 1179.35 471.548C1178.41 471.548 1177.67 471.83 1177.12 472.394C1176.56 472.958 1176.29 473.726 1176.29 474.698C1176.29 475.634 1176.56 476.39 1177.12 476.966C1177.67 477.542 1178.41 477.83 1179.35 477.83ZM1189.6 479.27C1188.44 479.27 1187.56 478.958 1186.96 478.334C1186.37 477.71 1186.08 476.876 1186.08 475.832V470.36H1187.89V475.76C1187.89 477.14 1188.58 477.83 1189.96 477.83C1191.18 477.83 1192.12 477.284 1192.81 476.192V470.36H1194.63V479H1192.86V477.776C1192.45 478.292 1191.97 478.67 1191.4 478.91C1190.85 479.15 1190.25 479.27 1189.6 479.27ZM825.266 505.27C824.222 505.27 823.382 505.006 822.746 504.478C822.122 503.938 821.81 503.212 821.81 502.3C821.81 501.34 822.11 500.602 822.71 500.086C823.322 499.558 824.186 499.294 825.302 499.294C826.49 499.294 827.498 499.534 828.326 500.014V499.564C828.326 498.88 828.116 498.376 827.696 498.052C827.288 497.716 826.64 497.548 825.752 497.548C825.224 497.548 824.708 497.602 824.204 497.71C823.712 497.806 823.268 497.944 822.872 498.124V496.648C823.232 496.48 823.7 496.348 824.276 496.252C824.852 496.144 825.41 496.09 825.95 496.09C827.378 496.09 828.434 496.408 829.118 497.044C829.814 497.668 830.162 498.538 830.162 499.654V505H828.452V504.028C828.08 504.436 827.636 504.748 827.12 504.964C826.616 505.168 825.998 505.27 825.266 505.27ZM825.716 503.884C826.292 503.884 826.814 503.77 827.282 503.542C827.75 503.314 828.098 502.996 828.326 502.588V501.418C827.546 500.914 826.676 500.662 825.716 500.662C825.02 500.662 824.498 500.8 824.15 501.076C823.814 501.34 823.646 501.748 823.646 502.3C823.646 503.356 824.336 503.884 825.716 503.884ZM832.328 496.36H834.092V497.908C834.452 497.38 834.956 496.99 835.604 496.738C836.264 496.486 837.026 496.36 837.89 496.36V497.782C836.966 497.782 836.174 497.932 835.514 498.232C834.854 498.532 834.398 499.006 834.146 499.654V505H832.328V496.36ZM843.635 505.27C842.039 505.27 840.785 504.874 839.873 504.082C838.973 503.278 838.523 502.15 838.523 500.698C838.523 499.282 838.925 498.16 839.729 497.332C840.545 496.504 841.703 496.09 843.203 496.09C844.199 496.09 845.045 496.282 845.741 496.666C846.437 497.038 846.959 497.56 847.307 498.232C847.667 498.892 847.847 499.648 847.847 500.5V501.4H840.251C840.311 502.216 840.653 502.828 841.277 503.236C841.913 503.632 842.771 503.83 843.851 503.83C844.403 503.83 844.961 503.782 845.525 503.686C846.089 503.578 846.587 503.44 847.019 503.272V504.73C846.635 504.886 846.125 505.012 845.489 505.108C844.865 505.216 844.247 505.27 843.635 505.27ZM846.137 500.122C846.113 499.306 845.843 498.676 845.327 498.232C844.823 497.776 844.103 497.548 843.167 497.548C842.255 497.548 841.547 497.782 841.043 498.25C840.539 498.718 840.275 499.342 840.251 500.122H846.137ZM859.412 505.27C858.368 505.27 857.528 505.006 856.892 504.478C856.268 503.938 855.956 503.212 855.956 502.3C855.956 501.34 856.256 500.602 856.856 500.086C857.468 499.558 858.332 499.294 859.448 499.294C860.636 499.294 861.644 499.534 862.472 500.014V499.564C862.472 498.88 862.262 498.376 861.842 498.052C861.434 497.716 860.786 497.548 859.898 497.548C859.37 497.548 858.854 497.602 858.35 497.71C857.858 497.806 857.414 497.944 857.018 498.124V496.648C857.378 496.48 857.846 496.348 858.422 496.252C858.998 496.144 859.556 496.09 860.096 496.09C861.524 496.09 862.58 496.408 863.264 497.044C863.96 497.668 864.308 498.538 864.308 499.654V505H862.598V504.028C862.226 504.436 861.782 504.748 861.266 504.964C860.762 505.168 860.144 505.27 859.412 505.27ZM859.862 503.884C860.438 503.884 860.96 503.77 861.428 503.542C861.896 503.314 862.244 502.996 862.472 502.588V501.418C861.692 500.914 860.822 500.662 859.862 500.662C859.166 500.662 858.644 500.8 858.296 501.076C857.96 501.34 857.792 501.748 857.792 502.3C857.792 503.356 858.482 503.884 859.862 503.884ZM873.046 496.36H874.774V497.602C875.182 497.098 875.644 496.72 876.16 496.468C876.676 496.216 877.21 496.09 877.762 496.09C878.458 496.09 879.01 496.21 879.418 496.45C879.826 496.678 880.126 497.032 880.318 497.512C880.702 497.044 881.17 496.69 881.722 496.45C882.286 496.21 882.85 496.09 883.414 496.09C884.47 496.09 885.232 496.36 885.7 496.9C886.168 497.428 886.402 498.214 886.402 499.258V505H884.638V499.492C884.638 498.784 884.506 498.286 884.242 497.998C883.978 497.698 883.528 497.548 882.892 497.548C881.98 497.548 881.236 497.944 880.66 498.736C880.684 498.916 880.696 499.21 880.696 499.618V505H878.932V499.492C878.932 498.784 878.812 498.286 878.572 497.998C878.332 497.698 877.9 497.548 877.276 497.548C876.364 497.548 875.548 498.064 874.828 499.096V505H873.046V496.36ZM893.317 505.27C891.721 505.27 890.467 504.874 889.555 504.082C888.655 503.278 888.205 502.15 888.205 500.698C888.205 499.282 888.607 498.16 889.411 497.332C890.227 496.504 891.385 496.09 892.885 496.09C893.881 496.09 894.727 496.282 895.423 496.666C896.119 497.038 896.641 497.56 896.989 498.232C897.349 498.892 897.529 499.648 897.529 500.5V501.4H889.933C889.993 502.216 890.335 502.828 890.959 503.236C891.595 503.632 892.453 503.83 893.533 503.83C894.085 503.83 894.643 503.782 895.207 503.686C895.771 503.578 896.269 503.44 896.701 503.272V504.73C896.317 504.886 895.807 505.012 895.171 505.108C894.547 505.216 893.929 505.27 893.317 505.27ZM895.819 500.122C895.795 499.306 895.525 498.676 895.009 498.232C894.505 497.776 893.785 497.548 892.849 497.548C891.937 497.548 891.229 497.782 890.725 498.25C890.221 498.718 889.957 499.342 889.933 500.122H895.819ZM899.427 496.36H901.155V497.602C901.563 497.098 902.025 496.72 902.541 496.468C903.057 496.216 903.591 496.09 904.143 496.09C904.839 496.09 905.391 496.21 905.799 496.45C906.207 496.678 906.507 497.032 906.699 497.512C907.083 497.044 907.551 496.69 908.103 496.45C908.667 496.21 909.231 496.09 909.795 496.09C910.851 496.09 911.613 496.36 912.081 496.9C912.549 497.428 912.783 498.214 912.783 499.258V505H911.019V499.492C911.019 498.784 910.887 498.286 910.623 497.998C910.359 497.698 909.909 497.548 909.273 497.548C908.361 497.548 907.617 497.944 907.041 498.736C907.065 498.916 907.077 499.21 907.077 499.618V505H905.313V499.492C905.313 498.784 905.193 498.286 904.953 497.998C904.713 497.698 904.281 497.548 903.657 497.548C902.745 497.548 901.929 498.064 901.209 499.096V505H899.427V496.36ZM920.31 505.27C919.53 505.27 918.852 505.15 918.276 504.91C917.712 504.658 917.19 504.268 916.71 503.74V505H914.946V491.698H916.764V497.512C917.16 497.044 917.67 496.69 918.294 496.45C918.918 496.21 919.59 496.09 920.31 496.09C921.174 496.09 921.948 496.288 922.632 496.684C923.328 497.068 923.868 497.608 924.252 498.304C924.648 499 924.846 499.798 924.846 500.698C924.846 501.61 924.648 502.414 924.252 503.11C923.868 503.794 923.328 504.328 922.632 504.712C921.948 505.084 921.174 505.27 920.31 505.27ZM919.896 503.83C920.484 503.83 921.012 503.704 921.48 503.452C921.96 503.188 922.332 502.816 922.596 502.336C922.872 501.856 923.01 501.31 923.01 500.698C923.01 500.086 922.872 499.54 922.596 499.06C922.332 498.58 921.96 498.208 921.48 497.944C921.012 497.68 920.484 497.548 919.896 497.548C919.164 497.548 918.51 497.746 917.934 498.142C917.358 498.538 916.968 499.066 916.764 499.726V501.67C916.992 502.33 917.382 502.858 917.934 503.254C918.498 503.638 919.152 503.83 919.896 503.83ZM931.491 505.27C929.895 505.27 928.641 504.874 927.729 504.082C926.829 503.278 926.379 502.15 926.379 500.698C926.379 499.282 926.781 498.16 927.585 497.332C928.401 496.504 929.559 496.09 931.059 496.09C932.055 496.09 932.901 496.282 933.597 496.666C934.293 497.038 934.815 497.56 935.163 498.232C935.523 498.892 935.703 499.648 935.703 500.5V501.4H928.107C928.167 502.216 928.509 502.828 929.133 503.236C929.769 503.632 930.627 503.83 931.707 503.83C932.259 503.83 932.817 503.782 933.381 503.686C933.945 503.578 934.443 503.44 934.875 503.272V504.73C934.491 504.886 933.981 505.012 933.345 505.108C932.721 505.216 932.103 505.27 931.491 505.27ZM933.993 500.122C933.969 499.306 933.699 498.676 933.183 498.232C932.679 497.776 931.959 497.548 931.023 497.548C930.111 497.548 929.403 497.782 928.899 498.25C928.395 498.718 928.131 499.342 928.107 500.122H933.993ZM937.6 496.36H939.364V497.908C939.724 497.38 940.228 496.99 940.876 496.738C941.536 496.486 942.298 496.36 943.162 496.36V497.782C942.238 497.782 941.446 497.932 940.786 498.232C940.126 498.532 939.67 499.006 939.418 499.654V505H937.6V496.36ZM955.825 505.27C954.853 505.27 953.995 505.09 953.251 504.73C952.519 504.358 951.943 503.83 951.523 503.146C951.115 502.45 950.911 501.634 950.911 500.698C950.911 499.774 951.115 498.964 951.523 498.268C951.931 497.572 952.507 497.038 953.251 496.666C953.995 496.282 954.853 496.09 955.825 496.09C956.797 496.09 957.655 496.282 958.399 496.666C959.143 497.038 959.719 497.572 960.127 498.268C960.547 498.964 960.757 499.774 960.757 500.698C960.757 501.634 960.547 502.45 960.127 503.146C959.719 503.83 959.143 504.358 958.399 504.73C957.655 505.09 956.797 505.27 955.825 505.27ZM955.825 503.83C956.761 503.83 957.505 503.542 958.057 502.966C958.609 502.39 958.885 501.634 958.885 500.698C958.885 499.726 958.609 498.958 958.057 498.394C957.505 497.83 956.761 497.548 955.825 497.548C954.889 497.548 954.145 497.83 953.593 498.394C953.041 498.958 952.765 499.726 952.765 500.698C952.765 501.634 953.041 502.39 953.593 502.966C954.145 503.542 954.889 503.83 955.825 503.83ZM962.604 497.764H961.29V496.36H962.604V494.668C962.604 493.672 962.886 492.916 963.45 492.4C964.014 491.872 964.77 491.608 965.718 491.608C966.21 491.608 966.672 491.68 967.104 491.824V493.336C966.768 493.18 966.42 493.102 966.06 493.102C965.496 493.102 965.082 493.24 964.818 493.516C964.554 493.78 964.422 494.2 964.422 494.776V496.36H966.582V497.764H964.422V505H962.604V497.764ZM968.751 505C968.511 505 968.307 504.922 968.139 504.766C967.983 504.598 967.905 504.394 967.905 504.154C967.905 503.914 967.983 503.71 968.139 503.542C968.307 503.374 968.511 503.29 968.751 503.29C968.991 503.29 969.195 503.374 969.363 503.542C969.531 503.71 969.615 503.914 969.615 504.154C969.615 504.394 969.531 504.598 969.363 504.766C969.195 504.922 968.991 505 968.751 505Z" fill="white"/>
<path d="M615.5 367.5C607.768 367.5 601.5 361.232 601.5 353.5C601.5 345.768 607.768 339.5 615.5 339.5C623.232 339.5 629.5 345.768 629.5 353.5C629.5 361.232 623.232 367.5 615.5 367.5Z" fill="#171717" stroke="#FF8A37"/>
<circle cx="615.5" cy="439.5" r="9" transform="rotate(90 615.5 439.5)" fill="#171717" stroke="#FF8A37"/>
<path d="M615.5 407.5C610.504 407.5 606.5 403.669 606.5 399C606.5 394.331 610.504 390.5 615.5 390.5C620.496 390.5 624.5 394.331 624.5 399C624.5 403.669 620.496 407.5 615.5 407.5Z" fill="#171717" stroke="#FF8A37"/>
<path d="M615.5 488.5C610.504 488.5 606.5 484.669 606.5 480C606.5 475.331 610.504 471.5 615.5 471.5C620.496 471.5 624.5 475.331 624.5 480C624.5 484.669 620.496 488.5 615.5 488.5Z" fill="#171717" stroke="#FF8A37"/>
</g>
<defs>
<linearGradient id="paint0_linear_1144_910" x1="786.29" y1="641.889" x2="786.29" y2="660.922" gradientUnits="userSpaceOnUse">
<stop stop-color="#FF8A37"/>
<stop offset="0.520833" stop-color="#FF8A37" stop-opacity="0.322917"/>
<stop offset="1" stop-color="#FF8A37" stop-opacity="0"/>
</linearGradient>
<linearGradient id="paint1_linear_1144_910" x1="553.106" y1="678.788" x2="1030.11" y2="678.788" gradientUnits="userSpaceOnUse">
<stop offset="0.0516655" stop-color="#171717"/>
<stop offset="0.505208" stop-color="#171717" stop-opacity="0"/>
<stop offset="0.934152" stop-color="#171717"/>
</linearGradient>
<clipPath id="clip0_1144_910">
<rect width="1440" height="876" fill="white"/>
</clipPath>
</defs>
</svg>
