<svg width="375" height="667" viewBox="0 0 375 667" fill="none" xmlns="http://www.w3.org/2000/svg">
<rect width="375" height="667" fill="#171717"/>
<rect x="52" y="343" width="270" height="15" fill="url(#paint0_linear_1525_802)"/>
<rect x="52" y="343" width="270" height="1" fill="#FF8A37"/>
<rect x="46" y="339" width="283" height="19" fill="url(#paint1_linear_1525_802)"/>
<circle cx="167" cy="374" r="10.5" fill="#FF8A37" stroke="#FF8A37"/>
<circle cx="203" cy="374" r="6.5" fill="#171717" stroke="#FF8A37"/>
<circle cx="127" cy="374" r="6.5" fill="#171717" stroke="#FF8A37"/>
<circle cx="239" cy="374" r="6.5" fill="#171717" stroke="#FF8A37"/>
<path d="M58.3814 496.18C57.9014 496.18 57.4254 496.136 56.9534 496.048C56.4894 495.968 56.1094 495.856 55.8134 495.712V494.608C56.5814 494.968 57.4094 495.148 58.2974 495.148C59.5454 495.148 60.1694 494.728 60.1694 493.888C60.1694 493.6 60.1014 493.368 59.9654 493.192C59.8294 493.016 59.6334 492.864 59.3774 492.736C59.1214 492.6 58.7054 492.416 58.1294 492.184C57.3374 491.864 56.7654 491.512 56.4134 491.128C56.0614 490.744 55.8854 490.26 55.8854 489.676C55.8854 489.236 56.0054 488.848 56.2454 488.512C56.4854 488.168 56.8214 487.904 57.2534 487.72C57.6854 487.528 58.1814 487.432 58.7414 487.432C59.1974 487.432 59.6094 487.468 59.9774 487.54C60.3454 487.612 60.7054 487.728 61.0574 487.888V488.944C60.3614 488.632 59.6574 488.476 58.9454 488.476C58.3694 488.476 57.9294 488.58 57.6254 488.788C57.3214 488.996 57.1694 489.292 57.1694 489.676C57.1694 489.94 57.2334 490.164 57.3614 490.348C57.4974 490.524 57.6934 490.684 57.9494 490.828C58.2134 490.964 58.6014 491.136 59.1134 491.344C59.6814 491.576 60.1294 491.796 60.4574 492.004C60.7854 492.212 61.0334 492.468 61.2014 492.772C61.3774 493.068 61.4654 493.44 61.4654 493.888C61.4654 494.616 61.2054 495.18 60.6854 495.58C60.1654 495.98 59.3974 496.18 58.3814 496.18ZM62.78 487.132H63.992V491.032C64.544 490.384 65.28 490.06 66.2 490.06C66.968 490.06 67.54 490.264 67.916 490.672C68.292 491.08 68.48 491.628 68.48 492.316V496H67.268V492.436C67.268 491.5 66.82 491.032 65.924 491.032C65.54 491.032 65.18 491.124 64.844 491.308C64.516 491.484 64.232 491.756 63.992 492.124V496H62.78V487.132ZM71.8635 496.18C71.1675 496.18 70.6075 496.004 70.1835 495.652C69.7675 495.292 69.5595 494.808 69.5595 494.2C69.5595 493.56 69.7595 493.068 70.1595 492.724C70.5675 492.372 71.1435 492.196 71.8875 492.196C72.6795 492.196 73.3515 492.356 73.9035 492.676V492.376C73.9035 491.92 73.7635 491.584 73.4835 491.368C73.2115 491.144 72.7795 491.032 72.1875 491.032C71.8355 491.032 71.4915 491.068 71.1555 491.14C70.8275 491.204 70.5315 491.296 70.2675 491.416V490.432C70.5075 490.32 70.8195 490.232 71.2035 490.168C71.5875 490.096 71.9595 490.06 72.3195 490.06C73.2715 490.06 73.9755 490.272 74.4315 490.696C74.8955 491.112 75.1275 491.692 75.1275 492.436V496H73.9875V495.352C73.7395 495.624 73.4435 495.832 73.0995 495.976C72.7635 496.112 72.3515 496.18 71.8635 496.18ZM72.1635 495.256C72.5475 495.256 72.8955 495.18 73.2075 495.028C73.5195 494.876 73.7515 494.664 73.9035 494.392V493.612C73.3835 493.276 72.8035 493.108 72.1635 493.108C71.6995 493.108 71.3515 493.2 71.1195 493.384C70.8955 493.56 70.7835 493.832 70.7835 494.2C70.7835 494.904 71.2435 495.256 72.1635 495.256ZM76.6316 490.24H77.8076V491.272C78.0476 490.92 78.3836 490.66 78.8156 490.492C79.2556 490.324 79.7636 490.24 80.3396 490.24V491.188C79.7236 491.188 79.1956 491.288 78.7556 491.488C78.3156 491.688 78.0116 492.004 77.8436 492.436V496H76.6316V490.24ZM82.1325 489.112C81.9325 489.112 81.7645 489.044 81.6285 488.908C81.4925 488.772 81.4245 488.604 81.4245 488.404C81.4245 488.204 81.4925 488.036 81.6285 487.9C81.7645 487.764 81.9325 487.696 82.1325 487.696C82.3405 487.696 82.5125 487.764 82.6485 487.9C82.7925 488.036 82.8645 488.204 82.8645 488.404C82.8645 488.604 82.7925 488.772 82.6485 488.908C82.5125 489.044 82.3405 489.112 82.1325 489.112ZM81.5205 490.24H82.7565V496H81.5205V490.24ZM84.4245 490.24H85.6005V491.068C85.8725 490.724 86.2045 490.472 86.5965 490.312C86.9965 490.144 87.4125 490.06 87.8445 490.06C88.6125 490.06 89.1845 490.264 89.5605 490.672C89.9365 491.08 90.1245 491.628 90.1245 492.316V496H88.9125V492.436C88.9125 491.5 88.4645 491.032 87.5685 491.032C87.1845 491.032 86.8245 491.124 86.4885 491.308C86.1605 491.484 85.8765 491.756 85.6365 492.124V496H84.4245V490.24ZM94.6318 498.76C94.2398 498.76 93.8558 498.728 93.4798 498.664C93.1118 498.6 92.7998 498.508 92.5438 498.388V497.392C93.1438 497.664 93.8398 497.8 94.6318 497.8C95.3758 497.8 95.9158 497.636 96.2518 497.308C96.5958 496.988 96.7678 496.5 96.7678 495.844V495.232C96.2398 495.864 95.4638 496.18 94.4398 496.18C93.8558 496.18 93.3318 496.052 92.8678 495.796C92.4038 495.54 92.0398 495.18 91.7758 494.716C91.5118 494.252 91.3798 493.72 91.3798 493.12C91.3798 492.512 91.5078 491.98 91.7638 491.524C92.0278 491.06 92.3878 490.7 92.8438 490.444C93.3078 490.188 93.8278 490.06 94.4038 490.06C94.9398 490.06 95.3918 490.14 95.7598 490.3C96.1358 490.452 96.4838 490.708 96.8038 491.068V490.24H97.9798V495.712C97.9798 496.696 97.7038 497.448 97.1518 497.968C96.6078 498.496 95.7678 498.76 94.6318 498.76ZM94.6798 495.22C95.1758 495.22 95.6118 495.088 95.9878 494.824C96.3718 494.56 96.6318 494.208 96.7678 493.768V492.472C96.6158 492.024 96.3518 491.672 95.9758 491.416C95.6078 491.16 95.1758 491.032 94.6798 491.032C94.2878 491.032 93.9318 491.12 93.6118 491.296C93.2998 491.464 93.0518 491.708 92.8678 492.028C92.6918 492.348 92.6038 492.712 92.6038 493.12C92.6038 493.536 92.6918 493.904 92.8678 494.224C93.0518 494.536 93.2998 494.78 93.6118 494.956C93.9318 495.132 94.2878 495.22 94.6798 495.22ZM106.047 496.18C105.351 496.18 104.791 496.004 104.367 495.652C103.951 495.292 103.743 494.808 103.743 494.2C103.743 493.56 103.943 493.068 104.343 492.724C104.751 492.372 105.327 492.196 106.071 492.196C106.863 492.196 107.535 492.356 108.087 492.676V492.376C108.087 491.92 107.947 491.584 107.667 491.368C107.395 491.144 106.963 491.032 106.371 491.032C106.019 491.032 105.675 491.068 105.339 491.14C105.011 491.204 104.715 491.296 104.451 491.416V490.432C104.691 490.32 105.003 490.232 105.387 490.168C105.771 490.096 106.143 490.06 106.503 490.06C107.455 490.06 108.159 490.272 108.615 490.696C109.079 491.112 109.311 491.692 109.311 492.436V496H108.171V495.352C107.923 495.624 107.627 495.832 107.283 495.976C106.947 496.112 106.535 496.18 106.047 496.18ZM106.347 495.256C106.731 495.256 107.079 495.18 107.391 495.028C107.703 494.876 107.935 494.664 108.087 494.392V493.612C107.567 493.276 106.987 493.108 106.347 493.108C105.883 493.108 105.535 493.2 105.303 493.384C105.079 493.56 104.967 493.832 104.967 494.2C104.967 494.904 105.427 495.256 106.347 495.256ZM110.815 490.24H111.991V491.068C112.263 490.724 112.595 490.472 112.987 490.312C113.387 490.144 113.803 490.06 114.235 490.06C115.003 490.06 115.575 490.264 115.951 490.672C116.327 491.08 116.515 491.628 116.515 492.316V496H115.303V492.436C115.303 491.5 114.855 491.032 113.959 491.032C113.575 491.032 113.215 491.124 112.879 491.308C112.551 491.484 112.267 491.756 112.027 492.124V496H110.815V490.24ZM120.794 496.18C120.218 496.18 119.698 496.056 119.234 495.808C118.778 495.552 118.418 495.196 118.154 494.74C117.898 494.276 117.77 493.74 117.77 493.132C117.77 492.532 117.898 492 118.154 491.536C118.418 491.072 118.778 490.712 119.234 490.456C119.698 490.192 120.218 490.06 120.794 490.06C121.834 490.06 122.622 490.376 123.158 491.008V487.132H124.37V496H123.194V495.16C122.874 495.512 122.522 495.772 122.138 495.94C121.762 496.1 121.314 496.18 120.794 496.18ZM121.07 495.22C121.566 495.22 121.998 495.092 122.366 494.836C122.742 494.572 123.006 494.22 123.158 493.78V492.484C123.022 492.044 122.762 491.692 122.378 491.428C122.002 491.164 121.566 491.032 121.07 491.032C120.678 491.032 120.322 491.12 120.002 491.296C119.69 491.472 119.442 491.72 119.258 492.04C119.082 492.36 118.994 492.724 118.994 493.132C118.994 493.54 119.082 493.904 119.258 494.224C119.442 494.544 119.69 494.792 120.002 494.968C120.322 495.136 120.678 495.22 121.07 495.22ZM129.112 487.432H130.336L126.916 496H125.692L129.112 487.432ZM134.687 496.18C134.039 496.18 133.467 496.06 132.971 495.82C132.483 495.572 132.099 495.22 131.819 494.764C131.547 494.3 131.411 493.756 131.411 493.132C131.411 492.516 131.547 491.976 131.819 491.512C132.091 491.048 132.475 490.692 132.971 490.444C133.467 490.188 134.039 490.06 134.687 490.06C135.335 490.06 135.907 490.188 136.403 490.444C136.899 490.692 137.283 491.048 137.555 491.512C137.835 491.976 137.975 492.516 137.975 493.132C137.975 493.756 137.835 494.3 137.555 494.764C137.283 495.22 136.899 495.572 136.403 495.82C135.907 496.06 135.335 496.18 134.687 496.18ZM134.687 495.22C135.311 495.22 135.807 495.028 136.175 494.644C136.543 494.26 136.727 493.756 136.727 493.132C136.727 492.484 136.543 491.972 136.175 491.596C135.807 491.22 135.311 491.032 134.687 491.032C134.063 491.032 133.567 491.22 133.199 491.596C132.831 491.972 132.647 492.484 132.647 493.132C132.647 493.756 132.831 494.26 133.199 494.644C133.567 495.028 134.063 495.22 134.687 495.22ZM139.292 490.24H140.468V491.272C140.708 490.92 141.044 490.66 141.476 490.492C141.916 490.324 142.424 490.24 143 490.24V491.188C142.384 491.188 141.856 491.288 141.416 491.488C140.976 491.688 140.672 492.004 140.504 492.436V496H139.292V490.24ZM148.526 490.24H149.702V491.272C149.942 490.92 150.278 490.66 150.71 490.492C151.15 490.324 151.658 490.24 152.234 490.24V491.188C151.618 491.188 151.09 491.288 150.65 491.488C150.21 491.688 149.906 492.004 149.738 492.436V496H148.526V490.24ZM156.124 496.18C155.06 496.18 154.224 495.916 153.616 495.388C153.016 494.852 152.716 494.1 152.716 493.132C152.716 492.188 152.984 491.44 153.52 490.888C154.064 490.336 154.836 490.06 155.836 490.06C156.5 490.06 157.064 490.188 157.528 490.444C157.992 490.692 158.34 491.04 158.572 491.488C158.812 491.928 158.932 492.432 158.932 493V493.6H153.868C153.908 494.144 154.136 494.552 154.552 494.824C154.976 495.088 155.548 495.22 156.268 495.22C156.636 495.22 157.008 495.188 157.384 495.124C157.76 495.052 158.092 494.96 158.38 494.848V495.82C158.124 495.924 157.784 496.008 157.36 496.072C156.944 496.144 156.532 496.18 156.124 496.18ZM157.792 492.748C157.776 492.204 157.596 491.784 157.252 491.488C156.916 491.184 156.436 491.032 155.812 491.032C155.204 491.032 154.732 491.188 154.396 491.5C154.06 491.812 153.884 492.228 153.868 492.748H157.792ZM163.041 496.18C162.465 496.18 161.945 496.056 161.481 495.808C161.025 495.552 160.665 495.196 160.401 494.74C160.145 494.276 160.017 493.74 160.017 493.132C160.017 492.532 160.145 492 160.401 491.536C160.665 491.072 161.025 490.712 161.481 490.456C161.945 490.192 162.465 490.06 163.041 490.06C164.081 490.06 164.869 490.376 165.405 491.008V487.132H166.617V496H165.441V495.16C165.121 495.512 164.769 495.772 164.385 495.94C164.009 496.1 163.561 496.18 163.041 496.18ZM163.317 495.22C163.813 495.22 164.245 495.092 164.613 494.836C164.989 494.572 165.253 494.22 165.405 493.78V492.484C165.269 492.044 165.009 491.692 164.625 491.428C164.249 491.164 163.813 491.032 163.317 491.032C162.925 491.032 162.569 491.12 162.249 491.296C161.937 491.472 161.689 491.72 161.505 492.04C161.329 492.36 161.241 492.724 161.241 493.132C161.241 493.54 161.329 493.904 161.505 494.224C161.689 494.544 161.937 494.792 162.249 494.968C162.569 495.136 162.925 495.22 163.317 495.22ZM168.886 489.112C168.686 489.112 168.518 489.044 168.382 488.908C168.246 488.772 168.178 488.604 168.178 488.404C168.178 488.204 168.246 488.036 168.382 487.9C168.518 487.764 168.686 487.696 168.886 487.696C169.094 487.696 169.266 487.764 169.402 487.9C169.546 488.036 169.618 488.204 169.618 488.404C169.618 488.604 169.546 488.772 169.402 488.908C169.266 489.044 169.094 489.112 168.886 489.112ZM168.274 490.24H169.51V496H168.274V490.24ZM173.302 496.18C172.902 496.18 172.478 496.128 172.03 496.024C171.582 495.928 171.23 495.796 170.974 495.628V494.596C171.286 494.78 171.646 494.932 172.054 495.052C172.462 495.164 172.858 495.22 173.242 495.22C173.674 495.22 173.99 495.168 174.19 495.064C174.39 494.96 174.49 494.792 174.49 494.56C174.49 494.384 174.442 494.244 174.346 494.14C174.258 494.028 174.102 493.928 173.878 493.84C173.662 493.752 173.334 493.648 172.894 493.528C172.422 493.392 172.046 493.256 171.766 493.12C171.494 492.976 171.286 492.796 171.142 492.58C171.006 492.364 170.938 492.084 170.938 491.74C170.938 491.188 171.154 490.772 171.586 490.492C172.026 490.204 172.614 490.06 173.35 490.06C173.734 490.06 174.11 490.096 174.478 490.168C174.846 490.24 175.142 490.34 175.366 490.468V491.476C175.134 491.34 174.846 491.232 174.502 491.152C174.166 491.072 173.822 491.032 173.47 491.032C173.046 491.032 172.722 491.084 172.498 491.188C172.274 491.292 172.162 491.476 172.162 491.74C172.162 491.908 172.21 492.044 172.306 492.148C172.402 492.252 172.554 492.344 172.762 492.424C172.978 492.496 173.318 492.592 173.782 492.712C174.51 492.912 175.014 493.148 175.294 493.42C175.582 493.692 175.726 494.068 175.726 494.548C175.726 495.044 175.522 495.44 175.114 495.736C174.706 496.032 174.102 496.18 173.302 496.18ZM179.094 496.18C178.51 496.18 178.058 496.012 177.738 495.676C177.426 495.34 177.27 494.864 177.27 494.248V491.176H176.394V490.24H177.27V488.512H178.494V490.24H179.91V491.176H178.494V494.164C178.494 494.548 178.566 494.82 178.71 494.98C178.862 495.14 179.134 495.22 179.526 495.22C179.758 495.22 179.99 495.168 180.222 495.064V496.024C179.918 496.128 179.542 496.18 179.094 496.18ZM181.362 490.24H182.538V491.272C182.778 490.92 183.114 490.66 183.546 490.492C183.986 490.324 184.494 490.24 185.07 490.24V491.188C184.454 491.188 183.926 491.288 183.486 491.488C183.046 491.688 182.742 492.004 182.574 492.436V496H181.362V490.24ZM186.863 489.112C186.663 489.112 186.495 489.044 186.359 488.908C186.223 488.772 186.155 488.604 186.155 488.404C186.155 488.204 186.223 488.036 186.359 487.9C186.495 487.764 186.663 487.696 186.863 487.696C187.071 487.696 187.243 487.764 187.379 487.9C187.523 488.036 187.595 488.204 187.595 488.404C187.595 488.604 187.523 488.772 187.379 488.908C187.243 489.044 187.071 489.112 186.863 489.112ZM186.251 490.24H187.487V496H186.251V490.24ZM192.731 496.18C192.211 496.18 191.759 496.1 191.375 495.94C190.999 495.772 190.651 495.512 190.331 495.16V496H189.155V487.132H190.367V491.008C190.631 490.696 190.971 490.46 191.387 490.3C191.803 490.14 192.251 490.06 192.731 490.06C193.307 490.06 193.823 490.192 194.279 490.456C194.743 490.712 195.103 491.072 195.359 491.536C195.623 492 195.755 492.532 195.755 493.132C195.755 493.74 195.623 494.276 195.359 494.74C195.103 495.196 194.743 495.552 194.279 495.808C193.823 496.056 193.307 496.18 192.731 496.18ZM192.455 495.22C192.847 495.22 193.199 495.136 193.511 494.968C193.831 494.792 194.079 494.544 194.255 494.224C194.439 493.904 194.531 493.54 194.531 493.132C194.531 492.724 194.439 492.36 194.255 492.04C194.079 491.72 193.831 491.472 193.511 491.296C193.199 491.12 192.847 491.032 192.455 491.032C191.967 491.032 191.531 491.164 191.147 491.428C190.763 491.692 190.503 492.044 190.367 492.484V493.78C190.519 494.22 190.779 494.572 191.147 494.836C191.523 495.092 191.959 495.22 192.455 495.22ZM199.064 496.18C198.288 496.18 197.7 495.972 197.3 495.556C196.908 495.14 196.712 494.584 196.712 493.888V490.24H197.924V493.84C197.924 494.76 198.384 495.22 199.304 495.22C200.112 495.22 200.744 494.856 201.2 494.128V490.24H202.412V496H201.236V495.184C200.964 495.528 200.64 495.78 200.264 495.94C199.896 496.1 199.496 496.18 199.064 496.18ZM206.188 496.18C205.604 496.18 205.152 496.012 204.832 495.676C204.52 495.34 204.364 494.864 204.364 494.248V491.176H203.488V490.24H204.364V488.512H205.588V490.24H207.004V491.176H205.588V494.164C205.588 494.548 205.66 494.82 205.804 494.98C205.956 495.14 206.228 495.22 206.62 495.22C206.852 495.22 207.084 495.168 207.316 495.064V496.024C207.012 496.128 206.636 496.18 206.188 496.18ZM209.164 489.112C208.964 489.112 208.796 489.044 208.66 488.908C208.524 488.772 208.456 488.604 208.456 488.404C208.456 488.204 208.524 488.036 208.66 487.9C208.796 487.764 208.964 487.696 209.164 487.696C209.372 487.696 209.544 487.764 209.68 487.9C209.824 488.036 209.896 488.204 209.896 488.404C209.896 488.604 209.824 488.772 209.68 488.908C209.544 489.044 209.372 489.112 209.164 489.112ZM208.552 490.24H209.788V496H208.552V490.24ZM211.456 490.24H212.632V491.068C212.904 490.724 213.236 490.472 213.628 490.312C214.028 490.144 214.444 490.06 214.876 490.06C215.644 490.06 216.216 490.264 216.592 490.672C216.968 491.08 217.156 491.628 217.156 492.316V496H215.944V492.436C215.944 491.5 215.496 491.032 214.6 491.032C214.216 491.032 213.856 491.124 213.52 491.308C213.192 491.484 212.908 491.756 212.668 492.124V496H211.456V490.24ZM221.663 498.76C221.271 498.76 220.887 498.728 220.511 498.664C220.143 498.6 219.831 498.508 219.575 498.388V497.392C220.175 497.664 220.871 497.8 221.663 497.8C222.407 497.8 222.947 497.636 223.283 497.308C223.627 496.988 223.799 496.5 223.799 495.844V495.232C223.271 495.864 222.495 496.18 221.471 496.18C220.887 496.18 220.363 496.052 219.899 495.796C219.435 495.54 219.071 495.18 218.807 494.716C218.543 494.252 218.411 493.72 218.411 493.12C218.411 492.512 218.539 491.98 218.795 491.524C219.059 491.06 219.419 490.7 219.875 490.444C220.339 490.188 220.859 490.06 221.435 490.06C221.971 490.06 222.423 490.14 222.791 490.3C223.167 490.452 223.515 490.708 223.835 491.068V490.24H225.011V495.712C225.011 496.696 224.735 497.448 224.183 497.968C223.639 498.496 222.799 498.76 221.663 498.76ZM221.711 495.22C222.207 495.22 222.643 495.088 223.019 494.824C223.403 494.56 223.663 494.208 223.799 493.768V492.472C223.647 492.024 223.383 491.672 223.007 491.416C222.639 491.16 222.207 491.032 221.711 491.032C221.319 491.032 220.963 491.12 220.643 491.296C220.331 491.464 220.083 491.708 219.899 492.028C219.723 492.348 219.635 492.712 219.635 493.12C219.635 493.536 219.723 493.904 219.899 494.224C220.083 494.536 220.331 494.78 220.643 494.956C220.963 495.132 221.319 495.22 221.711 495.22ZM233.078 496.18C232.382 496.18 231.822 496.004 231.398 495.652C230.982 495.292 230.774 494.808 230.774 494.2C230.774 493.56 230.974 493.068 231.374 492.724C231.782 492.372 232.358 492.196 233.102 492.196C233.894 492.196 234.566 492.356 235.118 492.676V492.376C235.118 491.92 234.978 491.584 234.698 491.368C234.426 491.144 233.994 491.032 233.402 491.032C233.05 491.032 232.706 491.068 232.37 491.14C232.042 491.204 231.746 491.296 231.482 491.416V490.432C231.722 490.32 232.034 490.232 232.418 490.168C232.802 490.096 233.174 490.06 233.534 490.06C234.486 490.06 235.19 490.272 235.646 490.696C236.11 491.112 236.342 491.692 236.342 492.436V496H235.202V495.352C234.954 495.624 234.658 495.832 234.314 495.976C233.978 496.112 233.566 496.18 233.078 496.18ZM233.378 495.256C233.762 495.256 234.11 495.18 234.422 495.028C234.734 494.876 234.966 494.664 235.118 494.392V493.612C234.598 493.276 234.018 493.108 233.378 493.108C232.914 493.108 232.566 493.2 232.334 493.384C232.11 493.56 231.998 493.832 231.998 494.2C231.998 494.904 232.458 495.256 233.378 495.256ZM237.846 490.24H239.022V491.068C239.294 490.724 239.626 490.472 240.018 490.312C240.418 490.144 240.834 490.06 241.266 490.06C242.034 490.06 242.606 490.264 242.982 490.672C243.358 491.08 243.546 491.628 243.546 492.316V496H242.334V492.436C242.334 491.5 241.886 491.032 240.99 491.032C240.606 491.032 240.246 491.124 239.91 491.308C239.582 491.484 239.298 491.756 239.058 492.124V496H237.846V490.24ZM245.727 498.376C245.295 498.376 244.935 498.332 244.647 498.244V497.296C244.855 497.376 245.111 497.416 245.415 497.416C245.695 497.416 245.915 497.344 246.075 497.2C246.235 497.064 246.379 496.84 246.507 496.528L246.783 495.856L244.263 490.24H245.511L247.431 494.668L249.219 490.24H250.467L247.875 496.648C247.635 497.248 247.347 497.684 247.011 497.956C246.683 498.236 246.255 498.376 245.727 498.376ZM256.695 489.112C256.495 489.112 256.327 489.044 256.191 488.908C256.055 488.772 255.987 488.604 255.987 488.404C255.987 488.204 256.055 488.036 256.191 487.9C256.327 487.764 256.495 487.696 256.695 487.696C256.903 487.696 257.075 487.764 257.211 487.9C257.355 488.036 257.427 488.204 257.427 488.404C257.427 488.604 257.355 488.772 257.211 488.908C257.075 489.044 256.903 489.112 256.695 489.112ZM256.083 490.24H257.319V496H256.083V490.24ZM258.987 490.24H260.163V491.068C260.435 490.724 260.767 490.472 261.159 490.312C261.559 490.144 261.975 490.06 262.407 490.06C263.175 490.06 263.747 490.264 264.123 490.672C264.499 491.08 264.687 491.628 264.687 492.316V496H263.475V492.436C263.475 491.5 263.027 491.032 262.131 491.032C261.747 491.032 261.387 491.124 261.051 491.308C260.723 491.484 260.439 491.756 260.199 492.124V496H258.987V490.24ZM266.578 491.176H265.702V490.24H266.578V489.112C266.578 488.448 266.766 487.944 267.142 487.6C267.518 487.248 268.022 487.072 268.654 487.072C268.982 487.072 269.29 487.12 269.578 487.216V488.224C269.354 488.12 269.122 488.068 268.882 488.068C268.506 488.068 268.23 488.16 268.054 488.344C267.878 488.52 267.79 488.8 267.79 489.184V490.24H269.23V491.176H267.79V496H266.578V491.176ZM273.027 496.18C272.379 496.18 271.807 496.06 271.311 495.82C270.823 495.572 270.439 495.22 270.159 494.764C269.887 494.3 269.751 493.756 269.751 493.132C269.751 492.516 269.887 491.976 270.159 491.512C270.431 491.048 270.815 490.692 271.311 490.444C271.807 490.188 272.379 490.06 273.027 490.06C273.675 490.06 274.247 490.188 274.743 490.444C275.239 490.692 275.623 491.048 275.895 491.512C276.175 491.976 276.315 492.516 276.315 493.132C276.315 493.756 276.175 494.3 275.895 494.764C275.623 495.22 275.239 495.572 274.743 495.82C274.247 496.06 273.675 496.18 273.027 496.18ZM273.027 495.22C273.651 495.22 274.147 495.028 274.515 494.644C274.883 494.26 275.067 493.756 275.067 493.132C275.067 492.484 274.883 491.972 274.515 491.596C274.147 491.22 273.651 491.032 273.027 491.032C272.403 491.032 271.907 491.22 271.539 491.596C271.171 491.972 270.987 492.484 270.987 493.132C270.987 493.756 271.171 494.26 271.539 494.644C271.907 495.028 272.403 495.22 273.027 495.22ZM277.632 490.24H278.808V491.272C279.048 490.92 279.384 490.66 279.816 490.492C280.256 490.324 280.764 490.24 281.34 490.24V491.188C280.724 491.188 280.196 491.288 279.756 491.488C279.316 491.688 279.012 492.004 278.844 492.436V496H277.632V490.24ZM282.425 490.24H283.577V491.068C283.849 490.732 284.157 490.48 284.501 490.312C284.845 490.144 285.201 490.06 285.569 490.06C286.033 490.06 286.401 490.14 286.673 490.3C286.945 490.452 287.145 490.688 287.273 491.008C287.529 490.696 287.841 490.46 288.209 490.3C288.585 490.14 288.961 490.06 289.337 490.06C290.041 490.06 290.549 490.24 290.861 490.6C291.173 490.952 291.329 491.476 291.329 492.172V496H290.153V492.328C290.153 491.856 290.065 491.524 289.889 491.332C289.713 491.132 289.413 491.032 288.989 491.032C288.381 491.032 287.885 491.296 287.501 491.824C287.517 491.944 287.525 492.14 287.525 492.412V496H286.349V492.328C286.349 491.856 286.269 491.524 286.109 491.332C285.949 491.132 285.661 491.032 285.245 491.032C284.637 491.032 284.093 491.376 283.613 492.064V496H282.425V490.24ZM294.719 496.18C294.023 496.18 293.463 496.004 293.039 495.652C292.623 495.292 292.415 494.808 292.415 494.2C292.415 493.56 292.615 493.068 293.015 492.724C293.423 492.372 293.999 492.196 294.743 492.196C295.535 492.196 296.207 492.356 296.759 492.676V492.376C296.759 491.92 296.619 491.584 296.339 491.368C296.067 491.144 295.635 491.032 295.043 491.032C294.691 491.032 294.347 491.068 294.011 491.14C293.683 491.204 293.387 491.296 293.123 491.416V490.432C293.363 490.32 293.675 490.232 294.059 490.168C294.443 490.096 294.815 490.06 295.175 490.06C296.127 490.06 296.831 490.272 297.287 490.696C297.751 491.112 297.983 491.692 297.983 492.436V496H296.843V495.352C296.595 495.624 296.299 495.832 295.955 495.976C295.619 496.112 295.207 496.18 294.719 496.18ZM295.019 495.256C295.403 495.256 295.751 495.18 296.063 495.028C296.375 494.876 296.607 494.664 296.759 494.392V493.612C296.239 493.276 295.659 493.108 295.019 493.108C294.555 493.108 294.207 493.2 293.975 493.384C293.751 493.56 293.639 493.832 293.639 494.2C293.639 494.904 294.099 495.256 295.019 495.256ZM301.402 496.18C300.818 496.18 300.366 496.012 300.046 495.676C299.734 495.34 299.578 494.864 299.578 494.248V491.176H298.702V490.24H299.578V488.512H300.802V490.24H302.218V491.176H300.802V494.164C300.802 494.548 300.874 494.82 301.018 494.98C301.17 495.14 301.442 495.22 301.834 495.22C302.066 495.22 302.298 495.168 302.53 495.064V496.024C302.226 496.128 301.85 496.18 301.402 496.18ZM304.379 489.112C304.179 489.112 304.011 489.044 303.875 488.908C303.739 488.772 303.671 488.604 303.671 488.404C303.671 488.204 303.739 488.036 303.875 487.9C304.011 487.764 304.179 487.696 304.379 487.696C304.587 487.696 304.759 487.764 304.895 487.9C305.039 488.036 305.111 488.204 305.111 488.404C305.111 488.604 305.039 488.772 304.895 488.908C304.759 489.044 304.587 489.112 304.379 489.112ZM303.767 490.24H305.003V496H303.767V490.24ZM309.707 496.18C309.059 496.18 308.487 496.06 307.991 495.82C307.503 495.572 307.119 495.22 306.839 494.764C306.567 494.3 306.431 493.756 306.431 493.132C306.431 492.516 306.567 491.976 306.839 491.512C307.111 491.048 307.495 490.692 307.991 490.444C308.487 490.188 309.059 490.06 309.707 490.06C310.355 490.06 310.927 490.188 311.423 490.444C311.919 490.692 312.303 491.048 312.575 491.512C312.855 491.976 312.995 492.516 312.995 493.132C312.995 493.756 312.855 494.3 312.575 494.764C312.303 495.22 311.919 495.572 311.423 495.82C310.927 496.06 310.355 496.18 309.707 496.18ZM309.707 495.22C310.331 495.22 310.827 495.028 311.195 494.644C311.563 494.26 311.747 493.756 311.747 493.132C311.747 492.484 311.563 491.972 311.195 491.596C310.827 491.22 310.331 491.032 309.707 491.032C309.083 491.032 308.587 491.22 308.219 491.596C307.851 491.972 307.667 492.484 307.667 493.132C307.667 493.756 307.851 494.26 308.219 494.644C308.587 495.028 309.083 495.22 309.707 495.22ZM314.311 490.24H315.487V491.068C315.759 490.724 316.091 490.472 316.483 490.312C316.883 490.144 317.299 490.06 317.731 490.06C318.499 490.06 319.071 490.264 319.447 490.672C319.823 491.08 320.011 491.628 320.011 492.316V496H318.799V492.436C318.799 491.5 318.351 491.032 317.455 491.032C317.071 491.032 316.711 491.124 316.375 491.308C316.047 491.484 315.763 491.756 315.523 492.124V496H314.311V490.24ZM65.4905 509.176H64.6145V508.24H65.4905V507.112C65.4905 506.448 65.6785 505.944 66.0545 505.6C66.4305 505.248 66.9345 505.072 67.5665 505.072C67.8945 505.072 68.2025 505.12 68.4905 505.216V506.224C68.2665 506.12 68.0345 506.068 67.7945 506.068C67.4185 506.068 67.1425 506.16 66.9665 506.344C66.7905 506.52 66.7025 506.8 66.7025 507.184V508.24H68.1425V509.176H66.7025V514H65.4905V509.176ZM71.939 514.18C71.291 514.18 70.719 514.06 70.223 513.82C69.735 513.572 69.351 513.22 69.071 512.764C68.799 512.3 68.663 511.756 68.663 511.132C68.663 510.516 68.799 509.976 69.071 509.512C69.343 509.048 69.727 508.692 70.223 508.444C70.719 508.188 71.291 508.06 71.939 508.06C72.587 508.06 73.159 508.188 73.655 508.444C74.151 508.692 74.535 509.048 74.807 509.512C75.087 509.976 75.227 510.516 75.227 511.132C75.227 511.756 75.087 512.3 74.807 512.764C74.535 513.22 74.151 513.572 73.655 513.82C73.159 514.06 72.587 514.18 71.939 514.18ZM71.939 513.22C72.563 513.22 73.059 513.028 73.427 512.644C73.795 512.26 73.979 511.756 73.979 511.132C73.979 510.484 73.795 509.972 73.427 509.596C73.059 509.22 72.563 509.032 71.939 509.032C71.315 509.032 70.819 509.22 70.451 509.596C70.083 509.972 69.899 510.484 69.899 511.132C69.899 511.756 70.083 512.26 70.451 512.644C70.819 513.028 71.315 513.22 71.939 513.22ZM76.5437 508.24H77.7197V509.272C77.9597 508.92 78.2957 508.66 78.7277 508.492C79.1677 508.324 79.6757 508.24 80.2517 508.24V509.188C79.6357 509.188 79.1077 509.288 78.6677 509.488C78.2277 509.688 77.9237 510.004 77.7557 510.436V514H76.5437V508.24ZM88.814 514.18C88.166 514.18 87.594 514.06 87.098 513.82C86.61 513.572 86.226 513.22 85.946 512.764C85.674 512.3 85.538 511.756 85.538 511.132C85.538 510.516 85.674 509.976 85.946 509.512C86.218 509.048 86.602 508.692 87.098 508.444C87.594 508.188 88.166 508.06 88.814 508.06C89.462 508.06 90.034 508.188 90.53 508.444C91.026 508.692 91.41 509.048 91.682 509.512C91.962 509.976 92.102 510.516 92.102 511.132C92.102 511.756 91.962 512.3 91.682 512.764C91.41 513.22 91.026 513.572 90.53 513.82C90.034 514.06 89.462 514.18 88.814 514.18ZM88.814 513.22C89.438 513.22 89.934 513.028 90.302 512.644C90.67 512.26 90.854 511.756 90.854 511.132C90.854 510.484 90.67 509.972 90.302 509.596C89.934 509.22 89.438 509.032 88.814 509.032C88.19 509.032 87.694 509.22 87.326 509.596C86.958 509.972 86.774 510.484 86.774 511.132C86.774 511.756 86.958 512.26 87.326 512.644C87.694 513.028 88.19 513.22 88.814 513.22ZM95.7107 514.18C94.9347 514.18 94.3467 513.972 93.9467 513.556C93.5547 513.14 93.3587 512.584 93.3587 511.888V508.24H94.5707V511.84C94.5707 512.76 95.0307 513.22 95.9507 513.22C96.7587 513.22 97.3907 512.856 97.8467 512.128V508.24H99.0587V514H97.8827V513.184C97.6107 513.528 97.2867 513.78 96.9107 513.94C96.5427 514.1 96.1427 514.18 95.7107 514.18ZM100.614 508.24H101.79V509.272C102.03 508.92 102.366 508.66 102.798 508.492C103.238 508.324 103.746 508.24 104.322 508.24V509.188C103.706 509.188 103.178 509.288 102.738 509.488C102.298 509.688 101.994 510.004 101.826 510.436V514H100.614V508.24ZM109.848 508.24H111.024V509.092C111.616 508.404 112.416 508.06 113.424 508.06C114 508.06 114.516 508.188 114.972 508.444C115.436 508.7 115.796 509.06 116.052 509.524C116.316 509.98 116.448 510.512 116.448 511.12C116.448 511.72 116.316 512.252 116.052 512.716C115.796 513.18 115.44 513.54 114.984 513.796C114.528 514.052 114.008 514.18 113.424 514.18C112.944 514.18 112.496 514.1 112.08 513.94C111.664 513.78 111.324 513.544 111.06 513.232V516.628H109.848V508.24ZM113.148 513.22C113.54 513.22 113.892 513.136 114.204 512.968C114.524 512.792 114.772 512.544 114.948 512.224C115.132 511.904 115.224 511.536 115.224 511.12C115.224 510.704 115.132 510.34 114.948 510.028C114.772 509.708 114.524 509.464 114.204 509.296C113.892 509.12 113.54 509.032 113.148 509.032C112.66 509.032 112.228 509.16 111.852 509.416C111.484 509.672 111.22 510.024 111.06 510.472V511.768C111.196 512.208 111.456 512.56 111.84 512.824C112.224 513.088 112.66 513.22 113.148 513.22ZM119.53 514.18C118.834 514.18 118.274 514.004 117.85 513.652C117.434 513.292 117.226 512.808 117.226 512.2C117.226 511.56 117.426 511.068 117.826 510.724C118.234 510.372 118.81 510.196 119.554 510.196C120.346 510.196 121.018 510.356 121.57 510.676V510.376C121.57 509.92 121.43 509.584 121.15 509.368C120.878 509.144 120.446 509.032 119.854 509.032C119.502 509.032 119.158 509.068 118.822 509.14C118.494 509.204 118.198 509.296 117.934 509.416V508.432C118.174 508.32 118.486 508.232 118.87 508.168C119.254 508.096 119.626 508.06 119.986 508.06C120.938 508.06 121.642 508.272 122.098 508.696C122.562 509.112 122.794 509.692 122.794 510.436V514H121.654V513.352C121.406 513.624 121.11 513.832 120.766 513.976C120.43 514.112 120.018 514.18 119.53 514.18ZM119.83 513.256C120.214 513.256 120.562 513.18 120.874 513.028C121.186 512.876 121.418 512.664 121.57 512.392V511.612C121.05 511.276 120.47 511.108 119.83 511.108C119.366 511.108 119.018 511.2 118.786 511.384C118.562 511.56 118.45 511.832 118.45 512.2C118.45 512.904 118.91 513.256 119.83 513.256ZM125.006 507.112C124.806 507.112 124.638 507.044 124.502 506.908C124.366 506.772 124.298 506.604 124.298 506.404C124.298 506.204 124.366 506.036 124.502 505.9C124.638 505.764 124.806 505.696 125.006 505.696C125.214 505.696 125.386 505.764 125.522 505.9C125.666 506.036 125.738 506.204 125.738 506.404C125.738 506.604 125.666 506.772 125.522 506.908C125.386 507.044 125.214 507.112 125.006 507.112ZM124.394 508.24H125.63V514H124.394V508.24ZM130.082 514.18C129.506 514.18 128.986 514.056 128.522 513.808C128.066 513.552 127.706 513.196 127.442 512.74C127.186 512.276 127.058 511.74 127.058 511.132C127.058 510.532 127.186 510 127.442 509.536C127.706 509.072 128.066 508.712 128.522 508.456C128.986 508.192 129.506 508.06 130.082 508.06C131.122 508.06 131.91 508.376 132.446 509.008V505.132H133.658V514H132.482V513.16C132.162 513.512 131.81 513.772 131.426 513.94C131.05 514.1 130.602 514.18 130.082 514.18ZM130.358 513.22C130.854 513.22 131.286 513.092 131.654 512.836C132.03 512.572 132.294 512.22 132.446 511.78V510.484C132.31 510.044 132.05 509.692 131.666 509.428C131.29 509.164 130.854 509.032 130.358 509.032C129.966 509.032 129.61 509.12 129.29 509.296C128.978 509.472 128.73 509.72 128.546 510.04C128.37 510.36 128.282 510.724 128.282 511.132C128.282 511.54 128.37 511.904 128.546 512.224C128.73 512.544 128.978 512.792 129.29 512.968C129.61 513.136 129.966 513.22 130.358 513.22ZM142.697 514.18C142.057 514.18 141.489 514.06 140.993 513.82C140.497 513.58 140.109 513.232 139.829 512.776C139.557 512.312 139.421 511.764 139.421 511.132C139.421 510.5 139.557 509.956 139.829 509.5C140.109 509.036 140.497 508.68 140.993 508.432C141.497 508.184 142.073 508.06 142.721 508.06C143.601 508.06 144.305 508.232 144.833 508.576V509.572C144.313 509.212 143.649 509.032 142.841 509.032C142.185 509.032 141.653 509.212 141.245 509.572C140.845 509.924 140.645 510.444 140.645 511.132C140.645 511.82 140.845 512.34 141.245 512.692C141.645 513.044 142.169 513.22 142.817 513.22C143.625 513.22 144.321 513.028 144.905 512.644V513.628C144.625 513.82 144.305 513.96 143.945 514.048C143.593 514.136 143.177 514.18 142.697 514.18ZM146.223 505.132H147.435V509.032C147.987 508.384 148.723 508.06 149.643 508.06C150.411 508.06 150.983 508.264 151.359 508.672C151.735 509.08 151.923 509.628 151.923 510.316V514H150.711V510.436C150.711 509.5 150.263 509.032 149.367 509.032C148.983 509.032 148.623 509.124 148.287 509.308C147.959 509.484 147.675 509.756 147.435 510.124V514H146.223V505.132ZM155.307 514.18C154.611 514.18 154.051 514.004 153.627 513.652C153.211 513.292 153.003 512.808 153.003 512.2C153.003 511.56 153.203 511.068 153.603 510.724C154.011 510.372 154.587 510.196 155.331 510.196C156.123 510.196 156.795 510.356 157.347 510.676V510.376C157.347 509.92 157.207 509.584 156.927 509.368C156.655 509.144 156.223 509.032 155.631 509.032C155.279 509.032 154.935 509.068 154.599 509.14C154.271 509.204 153.975 509.296 153.711 509.416V508.432C153.951 508.32 154.263 508.232 154.647 508.168C155.031 508.096 155.403 508.06 155.763 508.06C156.715 508.06 157.419 508.272 157.875 508.696C158.339 509.112 158.571 509.692 158.571 510.436V514H157.431V513.352C157.183 513.624 156.887 513.832 156.543 513.976C156.207 514.112 155.795 514.18 155.307 514.18ZM155.607 513.256C155.991 513.256 156.339 513.18 156.651 513.028C156.963 512.876 157.195 512.664 157.347 512.392V511.612C156.827 511.276 156.247 511.108 155.607 511.108C155.143 511.108 154.795 511.2 154.563 511.384C154.339 511.56 154.227 511.832 154.227 512.2C154.227 512.904 154.687 513.256 155.607 513.256ZM160.075 508.24H161.251V509.068C161.523 508.724 161.855 508.472 162.247 508.312C162.647 508.144 163.063 508.06 163.495 508.06C164.263 508.06 164.835 508.264 165.211 508.672C165.587 509.08 165.775 509.628 165.775 510.316V514H164.563V510.436C164.563 509.5 164.115 509.032 163.219 509.032C162.835 509.032 162.475 509.124 162.139 509.308C161.811 509.484 161.527 509.756 161.287 510.124V514H160.075V508.24ZM167.27 508.24H168.446V509.068C168.718 508.724 169.05 508.472 169.442 508.312C169.842 508.144 170.258 508.06 170.69 508.06C171.458 508.06 172.03 508.264 172.406 508.672C172.782 509.08 172.97 509.628 172.97 510.316V514H171.758V510.436C171.758 509.5 171.31 509.032 170.414 509.032C170.03 509.032 169.67 509.124 169.334 509.308C169.006 509.484 168.722 509.756 168.482 510.124V514H167.27V508.24ZM177.634 514.18C176.57 514.18 175.734 513.916 175.126 513.388C174.526 512.852 174.226 512.1 174.226 511.132C174.226 510.188 174.494 509.44 175.03 508.888C175.574 508.336 176.346 508.06 177.346 508.06C178.01 508.06 178.574 508.188 179.038 508.444C179.502 508.692 179.85 509.04 180.082 509.488C180.322 509.928 180.442 510.432 180.442 511V511.6H175.378C175.418 512.144 175.646 512.552 176.062 512.824C176.486 513.088 177.058 513.22 177.778 513.22C178.146 513.22 178.518 513.188 178.894 513.124C179.27 513.052 179.602 512.96 179.89 512.848V513.82C179.634 513.924 179.294 514.008 178.87 514.072C178.454 514.144 178.042 514.18 177.634 514.18ZM179.302 510.748C179.286 510.204 179.106 509.784 178.762 509.488C178.426 509.184 177.946 509.032 177.322 509.032C176.714 509.032 176.242 509.188 175.906 509.5C175.57 509.812 175.394 510.228 175.378 510.748H179.302ZM181.766 505.132H182.978V514H181.766V505.132ZM186.668 514.18C186.268 514.18 185.844 514.128 185.396 514.024C184.948 513.928 184.596 513.796 184.34 513.628V512.596C184.652 512.78 185.012 512.932 185.42 513.052C185.828 513.164 186.224 513.22 186.608 513.22C187.04 513.22 187.356 513.168 187.556 513.064C187.756 512.96 187.856 512.792 187.856 512.56C187.856 512.384 187.808 512.244 187.712 512.14C187.624 512.028 187.468 511.928 187.244 511.84C187.028 511.752 186.7 511.648 186.26 511.528C185.788 511.392 185.412 511.256 185.132 511.12C184.86 510.976 184.652 510.796 184.508 510.58C184.372 510.364 184.304 510.084 184.304 509.74C184.304 509.188 184.52 508.772 184.952 508.492C185.392 508.204 185.98 508.06 186.716 508.06C187.1 508.06 187.476 508.096 187.844 508.168C188.212 508.24 188.508 508.34 188.732 508.468V509.476C188.5 509.34 188.212 509.232 187.868 509.152C187.532 509.072 187.188 509.032 186.836 509.032C186.412 509.032 186.088 509.084 185.864 509.188C185.64 509.292 185.528 509.476 185.528 509.74C185.528 509.908 185.576 510.044 185.672 510.148C185.768 510.252 185.92 510.344 186.128 510.424C186.344 510.496 186.684 510.592 187.148 510.712C187.876 510.912 188.38 511.148 188.66 511.42C188.948 511.692 189.092 512.068 189.092 512.548C189.092 513.044 188.888 513.44 188.48 513.736C188.072 514.032 187.468 514.18 186.668 514.18ZM195.564 507.112C195.364 507.112 195.196 507.044 195.06 506.908C194.924 506.772 194.856 506.604 194.856 506.404C194.856 506.204 194.924 506.036 195.06 505.9C195.196 505.764 195.364 505.696 195.564 505.696C195.772 505.696 195.944 505.764 196.08 505.9C196.224 506.036 196.296 506.204 196.296 506.404C196.296 506.604 196.224 506.772 196.08 506.908C195.944 507.044 195.772 507.112 195.564 507.112ZM194.952 508.24H196.188V514H194.952V508.24ZM199.98 514.18C199.58 514.18 199.156 514.128 198.708 514.024C198.26 513.928 197.908 513.796 197.652 513.628V512.596C197.964 512.78 198.324 512.932 198.732 513.052C199.14 513.164 199.536 513.22 199.92 513.22C200.352 513.22 200.668 513.168 200.868 513.064C201.068 512.96 201.168 512.792 201.168 512.56C201.168 512.384 201.12 512.244 201.024 512.14C200.936 512.028 200.78 511.928 200.556 511.84C200.34 511.752 200.012 511.648 199.572 511.528C199.1 511.392 198.724 511.256 198.444 511.12C198.172 510.976 197.964 510.796 197.82 510.58C197.684 510.364 197.616 510.084 197.616 509.74C197.616 509.188 197.832 508.772 198.264 508.492C198.704 508.204 199.292 508.06 200.028 508.06C200.412 508.06 200.788 508.096 201.156 508.168C201.524 508.24 201.82 508.34 202.044 508.468V509.476C201.812 509.34 201.524 509.232 201.18 509.152C200.844 509.072 200.5 509.032 200.148 509.032C199.724 509.032 199.4 509.084 199.176 509.188C198.952 509.292 198.84 509.476 198.84 509.74C198.84 509.908 198.888 510.044 198.984 510.148C199.08 510.252 199.232 510.344 199.44 510.424C199.656 510.496 199.996 510.592 200.46 510.712C201.188 510.912 201.692 511.148 201.972 511.42C202.26 511.692 202.404 512.068 202.404 512.548C202.404 513.044 202.2 513.44 201.792 513.736C201.384 514.032 200.78 514.18 199.98 514.18ZM210.293 514.18C209.893 514.18 209.469 514.128 209.021 514.024C208.573 513.928 208.221 513.796 207.965 513.628V512.596C208.277 512.78 208.637 512.932 209.045 513.052C209.453 513.164 209.849 513.22 210.233 513.22C210.665 513.22 210.981 513.168 211.181 513.064C211.381 512.96 211.481 512.792 211.481 512.56C211.481 512.384 211.433 512.244 211.337 512.14C211.249 512.028 211.093 511.928 210.869 511.84C210.653 511.752 210.325 511.648 209.885 511.528C209.413 511.392 209.037 511.256 208.757 511.12C208.485 510.976 208.277 510.796 208.133 510.58C207.997 510.364 207.929 510.084 207.929 509.74C207.929 509.188 208.145 508.772 208.577 508.492C209.017 508.204 209.605 508.06 210.341 508.06C210.725 508.06 211.101 508.096 211.469 508.168C211.837 508.24 212.133 508.34 212.357 508.468V509.476C212.125 509.34 211.837 509.232 211.493 509.152C211.157 509.072 210.813 509.032 210.461 509.032C210.037 509.032 209.713 509.084 209.489 509.188C209.265 509.292 209.153 509.476 209.153 509.74C209.153 509.908 209.201 510.044 209.297 510.148C209.393 510.252 209.545 510.344 209.753 510.424C209.969 510.496 210.309 510.592 210.773 510.712C211.501 510.912 212.005 511.148 212.285 511.42C212.573 511.692 212.717 512.068 212.717 512.548C212.717 513.044 212.513 513.44 212.105 513.736C211.697 514.032 211.093 514.18 210.293 514.18ZM216.084 514.18C215.5 514.18 215.048 514.012 214.728 513.676C214.416 513.34 214.26 512.864 214.26 512.248V509.176H213.384V508.24H214.26V506.512H215.484V508.24H216.9V509.176H215.484V512.164C215.484 512.548 215.556 512.82 215.7 512.98C215.852 513.14 216.124 513.22 216.516 513.22C216.748 513.22 216.98 513.168 217.212 513.064V514.024C216.908 514.128 216.532 514.18 216.084 514.18ZM218.352 508.24H219.528V509.272C219.768 508.92 220.104 508.66 220.536 508.492C220.976 508.324 221.484 508.24 222.06 508.24V509.188C221.444 509.188 220.916 509.288 220.476 509.488C220.036 509.688 219.732 510.004 219.564 510.436V514H218.352V508.24ZM223.853 507.112C223.653 507.112 223.485 507.044 223.349 506.908C223.213 506.772 223.145 506.604 223.145 506.404C223.145 506.204 223.213 506.036 223.349 505.9C223.485 505.764 223.653 505.696 223.853 505.696C224.061 505.696 224.233 505.764 224.369 505.9C224.513 506.036 224.585 506.204 224.585 506.404C224.585 506.604 224.513 506.772 224.369 506.908C224.233 507.044 224.061 507.112 223.853 507.112ZM223.241 508.24H224.477V514H223.241V508.24ZM229.181 514.18C228.541 514.18 227.973 514.06 227.477 513.82C226.981 513.58 226.593 513.232 226.313 512.776C226.041 512.312 225.905 511.764 225.905 511.132C225.905 510.5 226.041 509.956 226.313 509.5C226.593 509.036 226.981 508.68 227.477 508.432C227.981 508.184 228.557 508.06 229.205 508.06C230.085 508.06 230.789 508.232 231.317 508.576V509.572C230.797 509.212 230.133 509.032 229.325 509.032C228.669 509.032 228.137 509.212 227.729 509.572C227.329 509.924 227.129 510.444 227.129 511.132C227.129 511.82 227.329 512.34 227.729 512.692C228.129 513.044 228.653 513.22 229.301 513.22C230.109 513.22 230.805 513.028 231.389 512.644V513.628C231.109 513.82 230.789 513.96 230.429 514.048C230.077 514.136 229.661 514.18 229.181 514.18ZM234.928 514.18C234.344 514.18 233.892 514.012 233.572 513.676C233.26 513.34 233.104 512.864 233.104 512.248V509.176H232.228V508.24H233.104V506.512H234.328V508.24H235.744V509.176H234.328V512.164C234.328 512.548 234.4 512.82 234.544 512.98C234.696 513.14 234.968 513.22 235.36 513.22C235.592 513.22 235.824 513.168 236.056 513.064V514.024C235.752 514.128 235.376 514.18 234.928 514.18ZM237.196 505.132H238.408V514H237.196V505.132ZM241.197 516.376C240.765 516.376 240.405 516.332 240.117 516.244V515.296C240.325 515.376 240.581 515.416 240.885 515.416C241.165 515.416 241.385 515.344 241.545 515.2C241.705 515.064 241.849 514.84 241.977 514.528L242.253 513.856L239.733 508.24H240.981L242.901 512.668L244.689 508.24H245.937L243.345 514.648C243.105 515.248 242.817 515.684 242.481 515.956C242.153 516.236 241.725 516.376 241.197 516.376ZM251.458 508.24H252.634V509.092C253.226 508.404 254.026 508.06 255.034 508.06C255.61 508.06 256.126 508.188 256.582 508.444C257.046 508.7 257.406 509.06 257.662 509.524C257.926 509.98 258.058 510.512 258.058 511.12C258.058 511.72 257.926 512.252 257.662 512.716C257.406 513.18 257.05 513.54 256.594 513.796C256.138 514.052 255.618 514.18 255.034 514.18C254.554 514.18 254.106 514.1 253.69 513.94C253.274 513.78 252.934 513.544 252.67 513.232V516.628H251.458V508.24ZM254.758 513.22C255.15 513.22 255.502 513.136 255.814 512.968C256.134 512.792 256.382 512.544 256.558 512.224C256.742 511.904 256.834 511.536 256.834 511.12C256.834 510.704 256.742 510.34 256.558 510.028C256.382 509.708 256.134 509.464 255.814 509.296C255.502 509.12 255.15 509.032 254.758 509.032C254.27 509.032 253.838 509.16 253.462 509.416C253.094 509.672 252.83 510.024 252.67 510.472V511.768C252.806 512.208 253.066 512.56 253.45 512.824C253.834 513.088 254.27 513.22 254.758 513.22ZM259.38 508.24H260.556V509.272C260.796 508.92 261.132 508.66 261.564 508.492C262.004 508.324 262.512 508.24 263.088 508.24V509.188C262.472 509.188 261.944 509.288 261.504 509.488C261.064 509.688 260.76 510.004 260.592 510.436V514H259.38V508.24ZM267.033 514.18C266.385 514.18 265.813 514.06 265.317 513.82C264.829 513.572 264.445 513.22 264.165 512.764C263.893 512.3 263.757 511.756 263.757 511.132C263.757 510.516 263.893 509.976 264.165 509.512C264.437 509.048 264.821 508.692 265.317 508.444C265.813 508.188 266.385 508.06 267.033 508.06C267.681 508.06 268.253 508.188 268.749 508.444C269.245 508.692 269.629 509.048 269.901 509.512C270.181 509.976 270.321 510.516 270.321 511.132C270.321 511.756 270.181 512.3 269.901 512.764C269.629 513.22 269.245 513.572 268.749 513.82C268.253 514.06 267.681 514.18 267.033 514.18ZM267.033 513.22C267.657 513.22 268.153 513.028 268.521 512.644C268.889 512.26 269.073 511.756 269.073 511.132C269.073 510.484 268.889 509.972 268.521 509.596C268.153 509.22 267.657 509.032 267.033 509.032C266.409 509.032 265.913 509.22 265.545 509.596C265.177 509.972 264.993 510.484 264.993 511.132C264.993 511.756 265.177 512.26 265.545 512.644C265.913 513.028 266.409 513.22 267.033 513.22ZM271.637 505.132H272.849V509.032C273.401 508.384 274.137 508.06 275.057 508.06C275.825 508.06 276.397 508.264 276.773 508.672C277.149 509.08 277.337 509.628 277.337 510.316V514H276.125V510.436C276.125 509.5 275.677 509.032 274.781 509.032C274.397 509.032 274.037 509.124 273.701 509.308C273.373 509.484 273.089 509.756 272.849 510.124V514H271.637V505.132ZM279.541 507.112C279.341 507.112 279.173 507.044 279.037 506.908C278.901 506.772 278.833 506.604 278.833 506.404C278.833 506.204 278.901 506.036 279.037 505.9C279.173 505.764 279.341 505.696 279.541 505.696C279.749 505.696 279.921 505.764 280.057 505.9C280.201 506.036 280.273 506.204 280.273 506.404C280.273 506.604 280.201 506.772 280.057 506.908C279.921 507.044 279.749 507.112 279.541 507.112ZM278.929 508.24H280.165V514H278.929V508.24ZM285.409 514.18C284.889 514.18 284.437 514.1 284.053 513.94C283.677 513.772 283.329 513.512 283.009 513.16V514H281.833V505.132H283.045V509.008C283.309 508.696 283.649 508.46 284.065 508.3C284.481 508.14 284.929 508.06 285.409 508.06C285.985 508.06 286.501 508.192 286.957 508.456C287.421 508.712 287.781 509.072 288.037 509.536C288.301 510 288.433 510.532 288.433 511.132C288.433 511.74 288.301 512.276 288.037 512.74C287.781 513.196 287.421 513.552 286.957 513.808C286.501 514.056 285.985 514.18 285.409 514.18ZM285.133 513.22C285.525 513.22 285.877 513.136 286.189 512.968C286.509 512.792 286.757 512.544 286.933 512.224C287.117 511.904 287.209 511.54 287.209 511.132C287.209 510.724 287.117 510.36 286.933 510.04C286.757 509.72 286.509 509.472 286.189 509.296C285.877 509.12 285.525 509.032 285.133 509.032C284.645 509.032 284.209 509.164 283.825 509.428C283.441 509.692 283.181 510.044 283.045 510.484V511.78C283.197 512.22 283.457 512.572 283.825 512.836C284.201 513.092 284.637 513.22 285.133 513.22ZM290.463 507.112C290.263 507.112 290.095 507.044 289.959 506.908C289.823 506.772 289.755 506.604 289.755 506.404C289.755 506.204 289.823 506.036 289.959 505.9C290.095 505.764 290.263 505.696 290.463 505.696C290.671 505.696 290.843 505.764 290.979 505.9C291.123 506.036 291.195 506.204 291.195 506.404C291.195 506.604 291.123 506.772 290.979 506.908C290.843 507.044 290.671 507.112 290.463 507.112ZM289.851 508.24H291.087V514H289.851V508.24ZM294.975 514.18C294.391 514.18 293.939 514.012 293.619 513.676C293.307 513.34 293.151 512.864 293.151 512.248V509.176H292.275V508.24H293.151V506.512H294.375V508.24H295.791V509.176H294.375V512.164C294.375 512.548 294.447 512.82 294.591 512.98C294.743 513.14 295.015 513.22 295.407 513.22C295.639 513.22 295.871 513.168 296.103 513.064V514.024C295.799 514.128 295.423 514.18 294.975 514.18ZM300.411 514.18C299.347 514.18 298.511 513.916 297.903 513.388C297.303 512.852 297.003 512.1 297.003 511.132C297.003 510.188 297.271 509.44 297.807 508.888C298.351 508.336 299.123 508.06 300.123 508.06C300.787 508.06 301.351 508.188 301.815 508.444C302.279 508.692 302.627 509.04 302.859 509.488C303.099 509.928 303.219 510.432 303.219 511V511.6H298.155C298.195 512.144 298.423 512.552 298.839 512.824C299.263 513.088 299.835 513.22 300.555 513.22C300.923 513.22 301.295 513.188 301.671 513.124C302.047 513.052 302.379 512.96 302.667 512.848V513.82C302.411 513.924 302.071 514.008 301.647 514.072C301.231 514.144 300.819 514.18 300.411 514.18ZM302.079 510.748C302.063 510.204 301.883 509.784 301.539 509.488C301.203 509.184 300.723 509.032 300.099 509.032C299.491 509.032 299.019 509.188 298.683 509.5C298.347 509.812 298.171 510.228 298.155 510.748H302.079ZM307.328 514.18C306.752 514.18 306.232 514.056 305.768 513.808C305.312 513.552 304.952 513.196 304.688 512.74C304.432 512.276 304.304 511.74 304.304 511.132C304.304 510.532 304.432 510 304.688 509.536C304.952 509.072 305.312 508.712 305.768 508.456C306.232 508.192 306.752 508.06 307.328 508.06C308.368 508.06 309.156 508.376 309.692 509.008V505.132H310.904V514H309.728V513.16C309.408 513.512 309.056 513.772 308.672 513.94C308.296 514.1 307.848 514.18 307.328 514.18ZM307.604 513.22C308.1 513.22 308.532 513.092 308.9 512.836C309.276 512.572 309.54 512.22 309.692 511.78V510.484C309.556 510.044 309.296 509.692 308.912 509.428C308.536 509.164 308.1 509.032 307.604 509.032C307.212 509.032 306.856 509.12 306.536 509.296C306.224 509.472 305.976 509.72 305.792 510.04C305.616 510.36 305.528 510.724 305.528 511.132C305.528 511.54 305.616 511.904 305.792 512.224C305.976 512.544 306.224 512.792 306.536 512.968C306.856 513.136 307.212 513.22 307.604 513.22ZM62.4592 532.18C61.7632 532.18 61.2032 532.004 60.7792 531.652C60.3632 531.292 60.1552 530.808 60.1552 530.2C60.1552 529.56 60.3552 529.068 60.7552 528.724C61.1632 528.372 61.7392 528.196 62.4832 528.196C63.2752 528.196 63.9472 528.356 64.4992 528.676V528.376C64.4992 527.92 64.3592 527.584 64.0792 527.368C63.8072 527.144 63.3752 527.032 62.7832 527.032C62.4312 527.032 62.0872 527.068 61.7512 527.14C61.4232 527.204 61.1272 527.296 60.8632 527.416V526.432C61.1032 526.32 61.4152 526.232 61.7992 526.168C62.1832 526.096 62.5552 526.06 62.9152 526.06C63.8672 526.06 64.5712 526.272 65.0272 526.696C65.4912 527.112 65.7232 527.692 65.7232 528.436V532H64.5832V531.352C64.3352 531.624 64.0392 531.832 63.6952 531.976C63.3592 532.112 62.9472 532.18 62.4592 532.18ZM62.7592 531.256C63.1432 531.256 63.4912 531.18 63.8032 531.028C64.1152 530.876 64.3472 530.664 64.4992 530.392V529.612C63.9792 529.276 63.3992 529.108 62.7592 529.108C62.2952 529.108 61.9472 529.2 61.7152 529.384C61.4912 529.56 61.3792 529.832 61.3792 530.2C61.3792 530.904 61.8392 531.256 62.7592 531.256ZM67.2273 526.24H68.4033V527.068C68.6753 526.724 69.0073 526.472 69.3993 526.312C69.7993 526.144 70.2153 526.06 70.6473 526.06C71.4153 526.06 71.9873 526.264 72.3633 526.672C72.7393 527.08 72.9273 527.628 72.9273 528.316V532H71.7153V528.436C71.7153 527.5 71.2673 527.032 70.3713 527.032C69.9873 527.032 69.6273 527.124 69.2913 527.308C68.9633 527.484 68.6793 527.756 68.4393 528.124V532H67.2273V526.24ZM77.2066 532.18C76.6306 532.18 76.1106 532.056 75.6466 531.808C75.1906 531.552 74.8306 531.196 74.5666 530.74C74.3106 530.276 74.1826 529.74 74.1826 529.132C74.1826 528.532 74.3106 528 74.5666 527.536C74.8306 527.072 75.1906 526.712 75.6466 526.456C76.1106 526.192 76.6306 526.06 77.2066 526.06C78.2466 526.06 79.0346 526.376 79.5706 527.008V523.132H80.7826V532H79.6066V531.16C79.2866 531.512 78.9346 531.772 78.5506 531.94C78.1746 532.1 77.7266 532.18 77.2066 532.18ZM77.4826 531.22C77.9786 531.22 78.4106 531.092 78.7786 530.836C79.1546 530.572 79.4186 530.22 79.5706 529.78V528.484C79.4346 528.044 79.1746 527.692 78.7906 527.428C78.4146 527.164 77.9786 527.032 77.4826 527.032C77.0906 527.032 76.7346 527.12 76.4146 527.296C76.1026 527.472 75.8546 527.72 75.6706 528.04C75.4946 528.36 75.4066 528.724 75.4066 529.132C75.4066 529.54 75.4946 529.904 75.6706 530.224C75.8546 530.544 76.1026 530.792 76.4146 530.968C76.7346 531.136 77.0906 531.22 77.4826 531.22ZM88.8499 532.18C88.1539 532.18 87.5939 532.004 87.1699 531.652C86.7539 531.292 86.5459 530.808 86.5459 530.2C86.5459 529.56 86.7459 529.068 87.1459 528.724C87.5539 528.372 88.1299 528.196 88.8739 528.196C89.6659 528.196 90.3379 528.356 90.8899 528.676V528.376C90.8899 527.92 90.7499 527.584 90.4699 527.368C90.1979 527.144 89.7659 527.032 89.1739 527.032C88.8219 527.032 88.4779 527.068 88.1419 527.14C87.8139 527.204 87.5179 527.296 87.2539 527.416V526.432C87.4939 526.32 87.8059 526.232 88.1899 526.168C88.5739 526.096 88.9459 526.06 89.3059 526.06C90.2579 526.06 90.9619 526.272 91.4179 526.696C91.8819 527.112 92.1139 527.692 92.1139 528.436V532H90.9739V531.352C90.7259 531.624 90.4299 531.832 90.0859 531.976C89.7499 532.112 89.3379 532.18 88.8499 532.18ZM89.1499 531.256C89.5339 531.256 89.8819 531.18 90.1939 531.028C90.5059 530.876 90.7379 530.664 90.8899 530.392V529.612C90.3699 529.276 89.7899 529.108 89.1499 529.108C88.6859 529.108 88.3379 529.2 88.1059 529.384C87.8819 529.56 87.7699 529.832 87.7699 530.2C87.7699 530.904 88.2299 531.256 89.1499 531.256ZM93.6179 526.24H94.7939V527.068C95.0659 526.724 95.3979 526.472 95.7899 526.312C96.1899 526.144 96.6059 526.06 97.0379 526.06C97.8059 526.06 98.3779 526.264 98.7539 526.672C99.1299 527.08 99.3179 527.628 99.3179 528.316V532H98.1059V528.436C98.1059 527.5 97.6579 527.032 96.7619 527.032C96.3779 527.032 96.0179 527.124 95.6819 527.308C95.3539 527.484 95.0699 527.756 94.8299 528.124V532H93.6179V526.24ZM101.498 534.376C101.066 534.376 100.706 534.332 100.418 534.244V533.296C100.626 533.376 100.882 533.416 101.186 533.416C101.466 533.416 101.686 533.344 101.846 533.2C102.006 533.064 102.15 532.84 102.278 532.528L102.554 531.856L100.034 526.24H101.282L103.202 530.668L104.99 526.24H106.238L103.646 532.648C103.406 533.248 103.118 533.684 102.782 533.956C102.454 534.236 102.026 534.376 101.498 534.376ZM115.335 532.18C114.815 532.18 114.363 532.1 113.979 531.94C113.603 531.772 113.255 531.512 112.935 531.16V532H111.759V523.132H112.971V527.008C113.235 526.696 113.575 526.46 113.991 526.3C114.407 526.14 114.855 526.06 115.335 526.06C115.911 526.06 116.427 526.192 116.883 526.456C117.347 526.712 117.707 527.072 117.963 527.536C118.227 528 118.359 528.532 118.359 529.132C118.359 529.74 118.227 530.276 117.963 530.74C117.707 531.196 117.347 531.552 116.883 531.808C116.427 532.056 115.911 532.18 115.335 532.18ZM115.059 531.22C115.451 531.22 115.803 531.136 116.115 530.968C116.435 530.792 116.683 530.544 116.859 530.224C117.043 529.904 117.135 529.54 117.135 529.132C117.135 528.724 117.043 528.36 116.859 528.04C116.683 527.72 116.435 527.472 116.115 527.296C115.803 527.12 115.451 527.032 115.059 527.032C114.571 527.032 114.135 527.164 113.751 527.428C113.367 527.692 113.107 528.044 112.971 528.484V529.78C113.123 530.22 113.383 530.572 113.751 530.836C114.127 531.092 114.563 531.22 115.059 531.22ZM119.68 526.24H120.856V527.272C121.096 526.92 121.432 526.66 121.864 526.492C122.304 526.324 122.812 526.24 123.388 526.24V527.188C122.772 527.188 122.244 527.288 121.804 527.488C121.364 527.688 121.06 528.004 120.892 528.436V532H119.68V526.24ZM127.278 532.18C126.214 532.18 125.378 531.916 124.77 531.388C124.17 530.852 123.87 530.1 123.87 529.132C123.87 528.188 124.138 527.44 124.674 526.888C125.218 526.336 125.99 526.06 126.99 526.06C127.654 526.06 128.218 526.188 128.682 526.444C129.146 526.692 129.494 527.04 129.726 527.488C129.966 527.928 130.086 528.432 130.086 529V529.6H125.022C125.062 530.144 125.29 530.552 125.706 530.824C126.13 531.088 126.702 531.22 127.422 531.22C127.79 531.22 128.162 531.188 128.538 531.124C128.914 531.052 129.246 530.96 129.534 530.848V531.82C129.278 531.924 128.938 532.008 128.514 532.072C128.098 532.144 127.686 532.18 127.278 532.18ZM128.946 528.748C128.93 528.204 128.75 527.784 128.406 527.488C128.07 527.184 127.59 527.032 126.966 527.032C126.358 527.032 125.886 527.188 125.55 527.5C125.214 527.812 125.038 528.228 125.022 528.748H128.946ZM133.475 532.18C132.779 532.18 132.219 532.004 131.795 531.652C131.379 531.292 131.171 530.808 131.171 530.2C131.171 529.56 131.371 529.068 131.771 528.724C132.179 528.372 132.755 528.196 133.499 528.196C134.291 528.196 134.963 528.356 135.515 528.676V528.376C135.515 527.92 135.375 527.584 135.095 527.368C134.823 527.144 134.391 527.032 133.799 527.032C133.447 527.032 133.103 527.068 132.767 527.14C132.439 527.204 132.143 527.296 131.879 527.416V526.432C132.119 526.32 132.431 526.232 132.815 526.168C133.199 526.096 133.571 526.06 133.931 526.06C134.883 526.06 135.587 526.272 136.043 526.696C136.507 527.112 136.739 527.692 136.739 528.436V532H135.599V531.352C135.351 531.624 135.055 531.832 134.711 531.976C134.375 532.112 133.963 532.18 133.475 532.18ZM133.775 531.256C134.159 531.256 134.507 531.18 134.819 531.028C135.131 530.876 135.363 530.664 135.515 530.392V529.612C134.995 529.276 134.415 529.108 133.775 529.108C133.311 529.108 132.963 529.2 132.731 529.384C132.507 529.56 132.395 529.832 132.395 530.2C132.395 530.904 132.855 531.256 133.775 531.256ZM141.045 532.18C140.405 532.18 139.837 532.06 139.341 531.82C138.845 531.58 138.457 531.232 138.177 530.776C137.905 530.312 137.769 529.764 137.769 529.132C137.769 528.5 137.905 527.956 138.177 527.5C138.457 527.036 138.845 526.68 139.341 526.432C139.845 526.184 140.421 526.06 141.069 526.06C141.949 526.06 142.653 526.232 143.181 526.576V527.572C142.661 527.212 141.997 527.032 141.189 527.032C140.533 527.032 140.001 527.212 139.593 527.572C139.193 527.924 138.993 528.444 138.993 529.132C138.993 529.82 139.193 530.34 139.593 530.692C139.993 531.044 140.517 531.22 141.165 531.22C141.973 531.22 142.669 531.028 143.253 530.644V531.628C142.973 531.82 142.653 531.96 142.293 532.048C141.941 532.136 141.525 532.18 141.045 532.18ZM144.571 523.132H145.783V527.032C146.335 526.384 147.071 526.06 147.991 526.06C148.759 526.06 149.331 526.264 149.707 526.672C150.083 527.08 150.271 527.628 150.271 528.316V532H149.059V528.436C149.059 527.5 148.611 527.032 147.715 527.032C147.331 527.032 146.971 527.124 146.635 527.308C146.307 527.484 146.023 527.756 145.783 528.124V532H144.571V523.132ZM159.244 532.18C158.596 532.18 158.024 532.06 157.528 531.82C157.04 531.572 156.656 531.22 156.376 530.764C156.104 530.3 155.968 529.756 155.968 529.132C155.968 528.516 156.104 527.976 156.376 527.512C156.648 527.048 157.032 526.692 157.528 526.444C158.024 526.188 158.596 526.06 159.244 526.06C159.892 526.06 160.464 526.188 160.96 526.444C161.456 526.692 161.84 527.048 162.112 527.512C162.392 527.976 162.532 528.516 162.532 529.132C162.532 529.756 162.392 530.3 162.112 530.764C161.84 531.22 161.456 531.572 160.96 531.82C160.464 532.06 159.892 532.18 159.244 532.18ZM159.244 531.22C159.868 531.22 160.364 531.028 160.732 530.644C161.1 530.26 161.284 529.756 161.284 529.132C161.284 528.484 161.1 527.972 160.732 527.596C160.364 527.22 159.868 527.032 159.244 527.032C158.62 527.032 158.124 527.22 157.756 527.596C157.388 527.972 157.204 528.484 157.204 529.132C157.204 529.756 157.388 530.26 157.756 530.644C158.124 531.028 158.62 531.22 159.244 531.22ZM163.822 527.176H162.946V526.24H163.822V525.112C163.822 524.448 164.01 523.944 164.386 523.6C164.762 523.248 165.266 523.072 165.898 523.072C166.226 523.072 166.534 523.12 166.822 523.216V524.224C166.598 524.12 166.366 524.068 166.126 524.068C165.75 524.068 165.474 524.16 165.298 524.344C165.122 524.52 165.034 524.8 165.034 525.184V526.24H166.474V527.176H165.034V532H163.822V527.176ZM174.318 532.18C173.734 532.18 173.282 532.012 172.962 531.676C172.65 531.34 172.494 530.864 172.494 530.248V527.176H171.618V526.24H172.494V524.512H173.718V526.24H175.134V527.176H173.718V530.164C173.718 530.548 173.79 530.82 173.934 530.98C174.086 531.14 174.358 531.22 174.75 531.22C174.982 531.22 175.214 531.168 175.446 531.064V532.024C175.142 532.128 174.766 532.18 174.318 532.18ZM176.587 523.132H177.799V527.032C178.351 526.384 179.087 526.06 180.007 526.06C180.775 526.06 181.347 526.264 181.723 526.672C182.099 527.08 182.287 527.628 182.287 528.316V532H181.075V528.436C181.075 527.5 180.627 527.032 179.731 527.032C179.347 527.032 178.987 527.124 178.651 527.308C178.323 527.484 178.039 527.756 177.799 528.124V532H176.587V523.132ZM184.49 525.112C184.29 525.112 184.122 525.044 183.986 524.908C183.85 524.772 183.782 524.604 183.782 524.404C183.782 524.204 183.85 524.036 183.986 523.9C184.122 523.764 184.29 523.696 184.49 523.696C184.698 523.696 184.87 523.764 185.006 523.9C185.15 524.036 185.222 524.204 185.222 524.404C185.222 524.604 185.15 524.772 185.006 524.908C184.87 525.044 184.698 525.112 184.49 525.112ZM183.878 526.24H185.114V532H183.878V526.24ZM188.906 532.18C188.506 532.18 188.082 532.128 187.634 532.024C187.186 531.928 186.834 531.796 186.578 531.628V530.596C186.89 530.78 187.25 530.932 187.658 531.052C188.066 531.164 188.462 531.22 188.846 531.22C189.278 531.22 189.594 531.168 189.794 531.064C189.994 530.96 190.094 530.792 190.094 530.56C190.094 530.384 190.046 530.244 189.95 530.14C189.862 530.028 189.706 529.928 189.482 529.84C189.266 529.752 188.938 529.648 188.498 529.528C188.026 529.392 187.65 529.256 187.37 529.12C187.098 528.976 186.89 528.796 186.746 528.58C186.61 528.364 186.542 528.084 186.542 527.74C186.542 527.188 186.758 526.772 187.19 526.492C187.63 526.204 188.218 526.06 188.954 526.06C189.338 526.06 189.714 526.096 190.082 526.168C190.45 526.24 190.746 526.34 190.97 526.468V527.476C190.738 527.34 190.45 527.232 190.106 527.152C189.77 527.072 189.426 527.032 189.074 527.032C188.65 527.032 188.326 527.084 188.102 527.188C187.878 527.292 187.766 527.476 187.766 527.74C187.766 527.908 187.814 528.044 187.91 528.148C188.006 528.252 188.158 528.344 188.366 528.424C188.582 528.496 188.922 528.592 189.386 528.712C190.114 528.912 190.618 529.148 190.898 529.42C191.186 529.692 191.33 530.068 191.33 530.548C191.33 531.044 191.126 531.44 190.718 531.736C190.31 532.032 189.706 532.18 188.906 532.18ZM197.094 526.24H198.27V527.272C198.51 526.92 198.846 526.66 199.278 526.492C199.718 526.324 200.226 526.24 200.802 526.24V527.188C200.186 527.188 199.658 527.288 199.218 527.488C198.778 527.688 198.474 528.004 198.306 528.436V532H197.094V526.24ZM204.121 532.18C203.345 532.18 202.757 531.972 202.357 531.556C201.965 531.14 201.769 530.584 201.769 529.888V526.24H202.981V529.84C202.981 530.76 203.441 531.22 204.361 531.22C205.169 531.22 205.801 530.856 206.257 530.128V526.24H207.469V532H206.293V531.184C206.021 531.528 205.697 531.78 205.321 531.94C204.953 532.1 204.553 532.18 204.121 532.18ZM209.024 523.132H210.236V532H209.024V523.132ZM214.969 532.18C213.905 532.18 213.069 531.916 212.461 531.388C211.861 530.852 211.561 530.1 211.561 529.132C211.561 528.188 211.829 527.44 212.365 526.888C212.909 526.336 213.681 526.06 214.681 526.06C215.345 526.06 215.909 526.188 216.373 526.444C216.837 526.692 217.185 527.04 217.417 527.488C217.657 527.928 217.777 528.432 217.777 529V529.6H212.713C212.753 530.144 212.981 530.552 213.397 530.824C213.821 531.088 214.393 531.22 215.113 531.22C215.481 531.22 215.853 531.188 216.229 531.124C216.605 531.052 216.937 530.96 217.225 530.848V531.82C216.969 531.924 216.629 532.008 216.205 532.072C215.789 532.144 215.377 532.18 214.969 532.18ZM216.637 528.748C216.621 528.204 216.441 527.784 216.097 527.488C215.761 527.184 215.281 527.032 214.657 527.032C214.049 527.032 213.577 527.188 213.241 527.5C212.905 527.812 212.729 528.228 212.713 528.748H216.637ZM223.304 526.24H224.54L225.836 530.512L227.12 526.24H228.212L229.496 530.512L230.792 526.24H232.04L230.168 532H229.004L227.672 527.704L226.34 532H225.164L223.304 526.24ZM234.072 525.112C233.872 525.112 233.704 525.044 233.568 524.908C233.432 524.772 233.364 524.604 233.364 524.404C233.364 524.204 233.432 524.036 233.568 523.9C233.704 523.764 233.872 523.696 234.072 523.696C234.28 523.696 234.452 523.764 234.588 523.9C234.732 524.036 234.804 524.204 234.804 524.404C234.804 524.604 234.732 524.772 234.588 524.908C234.452 525.044 234.28 525.112 234.072 525.112ZM233.46 526.24H234.696V532H233.46V526.24ZM236.364 523.132H237.576V532H236.364V523.132ZM239.141 523.132H240.353V532H239.141V523.132ZM249.936 532.18C249.416 532.18 248.964 532.1 248.58 531.94C248.204 531.772 247.856 531.512 247.536 531.16V532H246.36V523.132H247.572V527.008C247.836 526.696 248.176 526.46 248.592 526.3C249.008 526.14 249.456 526.06 249.936 526.06C250.512 526.06 251.028 526.192 251.484 526.456C251.948 526.712 252.308 527.072 252.564 527.536C252.828 528 252.96 528.532 252.96 529.132C252.96 529.74 252.828 530.276 252.564 530.74C252.308 531.196 251.948 531.552 251.484 531.808C251.028 532.056 250.512 532.18 249.936 532.18ZM249.66 531.22C250.052 531.22 250.404 531.136 250.716 530.968C251.036 530.792 251.284 530.544 251.46 530.224C251.644 529.904 251.736 529.54 251.736 529.132C251.736 528.724 251.644 528.36 251.46 528.04C251.284 527.72 251.036 527.472 250.716 527.296C250.404 527.12 250.052 527.032 249.66 527.032C249.172 527.032 248.736 527.164 248.352 527.428C247.968 527.692 247.708 528.044 247.572 528.484V529.78C247.724 530.22 247.984 530.572 248.352 530.836C248.728 531.092 249.164 531.22 249.66 531.22ZM257.45 532.18C256.386 532.18 255.55 531.916 254.942 531.388C254.342 530.852 254.042 530.1 254.042 529.132C254.042 528.188 254.31 527.44 254.846 526.888C255.39 526.336 256.162 526.06 257.162 526.06C257.826 526.06 258.39 526.188 258.854 526.444C259.318 526.692 259.666 527.04 259.898 527.488C260.138 527.928 260.258 528.432 260.258 529V529.6H255.194C255.234 530.144 255.462 530.552 255.878 530.824C256.302 531.088 256.874 531.22 257.594 531.22C257.962 531.22 258.334 531.188 258.71 531.124C259.086 531.052 259.418 530.96 259.706 530.848V531.82C259.45 531.924 259.11 532.008 258.686 532.072C258.27 532.144 257.858 532.18 257.45 532.18ZM259.118 528.748C259.102 528.204 258.922 527.784 258.578 527.488C258.242 527.184 257.762 527.032 257.138 527.032C256.53 527.032 256.058 527.188 255.722 527.5C255.386 527.812 255.21 528.228 255.194 528.748H259.118ZM266.024 526.24H267.176V527.068C267.448 526.732 267.756 526.48 268.1 526.312C268.444 526.144 268.8 526.06 269.168 526.06C269.632 526.06 270 526.14 270.272 526.3C270.544 526.452 270.744 526.688 270.872 527.008C271.128 526.696 271.44 526.46 271.808 526.3C272.184 526.14 272.56 526.06 272.936 526.06C273.64 526.06 274.148 526.24 274.46 526.6C274.772 526.952 274.928 527.476 274.928 528.172V532H273.752V528.328C273.752 527.856 273.664 527.524 273.488 527.332C273.312 527.132 273.012 527.032 272.588 527.032C271.98 527.032 271.484 527.296 271.1 527.824C271.116 527.944 271.124 528.14 271.124 528.412V532H269.948V528.328C269.948 527.856 269.868 527.524 269.708 527.332C269.548 527.132 269.26 527.032 268.844 527.032C268.236 527.032 267.692 527.376 267.212 528.064V532H266.024V526.24ZM279.598 532.18C278.534 532.18 277.698 531.916 277.09 531.388C276.49 530.852 276.19 530.1 276.19 529.132C276.19 528.188 276.458 527.44 276.994 526.888C277.538 526.336 278.31 526.06 279.31 526.06C279.974 526.06 280.538 526.188 281.002 526.444C281.466 526.692 281.814 527.04 282.046 527.488C282.286 527.928 282.406 528.432 282.406 529V529.6H277.342C277.382 530.144 277.61 530.552 278.026 530.824C278.45 531.088 279.022 531.22 279.742 531.22C280.11 531.22 280.482 531.188 280.858 531.124C281.234 531.052 281.566 530.96 281.854 530.848V531.82C281.598 531.924 281.258 532.008 280.834 532.072C280.418 532.144 280.006 532.18 279.598 532.18ZM281.266 528.748C281.25 528.204 281.07 527.784 280.726 527.488C280.39 527.184 279.91 527.032 279.286 527.032C278.678 527.032 278.206 527.188 277.87 527.5C277.534 527.812 277.358 528.228 277.342 528.748H281.266ZM285.951 532.18C285.367 532.18 284.915 532.012 284.595 531.676C284.283 531.34 284.127 530.864 284.127 530.248V527.176H283.251V526.24H284.127V524.512H285.351V526.24H286.767V527.176H285.351V530.164C285.351 530.548 285.423 530.82 285.567 530.98C285.719 531.14 285.991 531.22 286.383 531.22C286.615 531.22 286.847 531.168 287.079 531.064V532.024C286.775 532.128 286.399 532.18 285.951 532.18ZM292.421 526.24H293.657L294.953 530.512L296.237 526.24H297.329L298.613 530.512L299.909 526.24H301.157L299.285 532H298.121L296.789 527.704L295.457 532H294.281L292.421 526.24ZM303.189 525.112C302.989 525.112 302.821 525.044 302.685 524.908C302.549 524.772 302.481 524.604 302.481 524.404C302.481 524.204 302.549 524.036 302.685 523.9C302.821 523.764 302.989 523.696 303.189 523.696C303.397 523.696 303.569 523.764 303.705 523.9C303.849 524.036 303.921 524.204 303.921 524.404C303.921 524.604 303.849 524.772 303.705 524.908C303.569 525.044 303.397 525.112 303.189 525.112ZM302.577 526.24H303.813V532H302.577V526.24ZM307.701 532.18C307.117 532.18 306.665 532.012 306.345 531.676C306.033 531.34 305.877 530.864 305.877 530.248V527.176H305.001V526.24H305.877V524.512H307.101V526.24H308.517V527.176H307.101V530.164C307.101 530.548 307.173 530.82 307.317 530.98C307.469 531.14 307.741 531.22 308.133 531.22C308.365 531.22 308.597 531.168 308.829 531.064V532.024C308.525 532.128 308.149 532.18 307.701 532.18ZM309.969 523.132H311.181V527.032C311.733 526.384 312.469 526.06 313.389 526.06C314.157 526.06 314.729 526.264 315.105 526.672C315.481 527.08 315.669 527.628 315.669 528.316V532H314.457V528.436C314.457 527.5 314.009 527.032 313.113 527.032C312.729 527.032 312.369 527.124 312.033 527.308C311.705 527.484 311.421 527.756 311.181 528.124V532H309.969V523.132ZM99.4143 550.18C98.7183 550.18 98.1583 550.004 97.7343 549.652C97.3183 549.292 97.1103 548.808 97.1103 548.2C97.1103 547.56 97.3103 547.068 97.7103 546.724C98.1183 546.372 98.6943 546.196 99.4383 546.196C100.23 546.196 100.902 546.356 101.454 546.676V546.376C101.454 545.92 101.314 545.584 101.034 545.368C100.762 545.144 100.33 545.032 99.7383 545.032C99.3863 545.032 99.0423 545.068 98.7063 545.14C98.3783 545.204 98.0823 545.296 97.8183 545.416V544.432C98.0583 544.32 98.3703 544.232 98.7543 544.168C99.1383 544.096 99.5103 544.06 99.8703 544.06C100.822 544.06 101.526 544.272 101.982 544.696C102.446 545.112 102.678 545.692 102.678 546.436V550H101.538V549.352C101.29 549.624 100.994 549.832 100.65 549.976C100.314 550.112 99.9023 550.18 99.4143 550.18ZM99.7143 549.256C100.098 549.256 100.446 549.18 100.758 549.028C101.07 548.876 101.302 548.664 101.454 548.392V547.612C100.934 547.276 100.354 547.108 99.7143 547.108C99.2503 547.108 98.9023 547.2 98.6703 547.384C98.4463 547.56 98.3343 547.832 98.3343 548.2C98.3343 548.904 98.7943 549.256 99.7143 549.256ZM108.624 541.132H109.836V550H108.624V541.132ZM112.109 543.112C111.909 543.112 111.741 543.044 111.605 542.908C111.469 542.772 111.401 542.604 111.401 542.404C111.401 542.204 111.469 542.036 111.605 541.9C111.741 541.764 111.909 541.696 112.109 541.696C112.317 541.696 112.489 541.764 112.625 541.9C112.769 542.036 112.841 542.204 112.841 542.404C112.841 542.604 112.769 542.772 112.625 542.908C112.489 543.044 112.317 543.112 112.109 543.112ZM111.497 544.24H112.733V550H111.497V544.24ZM114.797 545.176H113.921V544.24H114.797V543.112C114.797 542.448 114.985 541.944 115.361 541.6C115.737 541.248 116.241 541.072 116.873 541.072C117.201 541.072 117.509 541.12 117.797 541.216V542.224C117.573 542.12 117.341 542.068 117.101 542.068C116.725 542.068 116.449 542.16 116.273 542.344C116.097 542.52 116.009 542.8 116.009 543.184V544.24H117.449V545.176H116.009V550H114.797V545.176ZM121.8 550.18C120.736 550.18 119.9 549.916 119.292 549.388C118.692 548.852 118.392 548.1 118.392 547.132C118.392 546.188 118.66 545.44 119.196 544.888C119.74 544.336 120.512 544.06 121.512 544.06C122.176 544.06 122.74 544.188 123.204 544.444C123.668 544.692 124.016 545.04 124.248 545.488C124.488 545.928 124.608 546.432 124.608 547V547.6H119.544C119.584 548.144 119.812 548.552 120.228 548.824C120.652 549.088 121.224 549.22 121.944 549.22C122.312 549.22 122.684 549.188 123.06 549.124C123.436 549.052 123.768 548.96 124.056 548.848V549.82C123.8 549.924 123.46 550.008 123.036 550.072C122.62 550.144 122.208 550.18 121.8 550.18ZM123.468 546.748C123.452 546.204 123.272 545.784 122.928 545.488C122.592 545.184 122.112 545.032 121.488 545.032C120.88 545.032 120.408 545.188 120.072 545.5C119.736 545.812 119.56 546.228 119.544 546.748H123.468ZM128.152 550.18C127.568 550.18 127.116 550.012 126.796 549.676C126.484 549.34 126.328 548.864 126.328 548.248V545.176H125.452V544.24H126.328V542.512H127.552V544.24H128.968V545.176H127.552V548.164C127.552 548.548 127.624 548.82 127.768 548.98C127.92 549.14 128.192 549.22 128.584 549.22C128.816 549.22 129.048 549.168 129.28 549.064V550.024C128.976 550.128 128.6 550.18 128.152 550.18ZM131.129 543.112C130.929 543.112 130.761 543.044 130.625 542.908C130.489 542.772 130.421 542.604 130.421 542.404C130.421 542.204 130.489 542.036 130.625 541.9C130.761 541.764 130.929 541.696 131.129 541.696C131.337 541.696 131.509 541.764 131.645 541.9C131.789 542.036 131.861 542.204 131.861 542.404C131.861 542.604 131.789 542.772 131.645 542.908C131.509 543.044 131.337 543.112 131.129 543.112ZM130.517 544.24H131.753V550H130.517V544.24ZM133.421 544.24H134.573V545.068C134.845 544.732 135.153 544.48 135.497 544.312C135.841 544.144 136.197 544.06 136.565 544.06C137.029 544.06 137.397 544.14 137.669 544.3C137.941 544.452 138.141 544.688 138.269 545.008C138.525 544.696 138.837 544.46 139.205 544.3C139.581 544.14 139.957 544.06 140.333 544.06C141.037 544.06 141.545 544.24 141.857 544.6C142.169 544.952 142.325 545.476 142.325 546.172V550H141.149V546.328C141.149 545.856 141.061 545.524 140.885 545.332C140.709 545.132 140.409 545.032 139.985 545.032C139.377 545.032 138.881 545.296 138.497 545.824C138.513 545.944 138.521 546.14 138.521 546.412V550H137.345V546.328C137.345 545.856 137.265 545.524 137.105 545.332C136.945 545.132 136.657 545.032 136.241 545.032C135.633 545.032 135.089 545.376 134.609 546.064V550H133.421V544.24ZM146.995 550.18C145.931 550.18 145.095 549.916 144.487 549.388C143.887 548.852 143.587 548.1 143.587 547.132C143.587 546.188 143.855 545.44 144.391 544.888C144.935 544.336 145.707 544.06 146.707 544.06C147.371 544.06 147.935 544.188 148.399 544.444C148.863 544.692 149.211 545.04 149.443 545.488C149.683 545.928 149.803 546.432 149.803 547V547.6H144.739C144.779 548.144 145.007 548.552 145.423 548.824C145.847 549.088 146.419 549.22 147.139 549.22C147.507 549.22 147.879 549.188 148.255 549.124C148.631 549.052 148.963 548.96 149.251 548.848V549.82C148.995 549.924 148.655 550.008 148.231 550.072C147.815 550.144 147.403 550.18 146.995 550.18ZM148.663 546.748C148.647 546.204 148.467 545.784 148.123 545.488C147.787 545.184 147.307 545.032 146.683 545.032C146.075 545.032 145.603 545.188 145.267 545.5C144.931 545.812 144.755 546.228 144.739 546.748H148.663ZM159.145 550.18C158.625 550.18 158.173 550.1 157.789 549.94C157.413 549.772 157.065 549.512 156.745 549.16V550H155.569V541.132H156.781V545.008C157.045 544.696 157.385 544.46 157.801 544.3C158.217 544.14 158.665 544.06 159.145 544.06C159.721 544.06 160.237 544.192 160.693 544.456C161.157 544.712 161.517 545.072 161.773 545.536C162.037 546 162.169 546.532 162.169 547.132C162.169 547.74 162.037 548.276 161.773 548.74C161.517 549.196 161.157 549.552 160.693 549.808C160.237 550.056 159.721 550.18 159.145 550.18ZM158.869 549.22C159.261 549.22 159.613 549.136 159.925 548.968C160.245 548.792 160.493 548.544 160.669 548.224C160.853 547.904 160.945 547.54 160.945 547.132C160.945 546.724 160.853 546.36 160.669 546.04C160.493 545.72 160.245 545.472 159.925 545.296C159.613 545.12 159.261 545.032 158.869 545.032C158.381 545.032 157.945 545.164 157.561 545.428C157.177 545.692 156.917 546.044 156.781 546.484V547.78C156.933 548.22 157.193 548.572 157.561 548.836C157.937 549.092 158.373 549.22 158.869 549.22ZM165.25 550.18C164.554 550.18 163.994 550.004 163.57 549.652C163.154 549.292 162.946 548.808 162.946 548.2C162.946 547.56 163.146 547.068 163.546 546.724C163.954 546.372 164.53 546.196 165.274 546.196C166.066 546.196 166.738 546.356 167.29 546.676V546.376C167.29 545.92 167.15 545.584 166.87 545.368C166.598 545.144 166.166 545.032 165.574 545.032C165.222 545.032 164.878 545.068 164.542 545.14C164.214 545.204 163.918 545.296 163.654 545.416V544.432C163.894 544.32 164.206 544.232 164.59 544.168C164.974 544.096 165.346 544.06 165.706 544.06C166.658 544.06 167.362 544.272 167.818 544.696C168.282 545.112 168.514 545.692 168.514 546.436V550H167.374V549.352C167.126 549.624 166.83 549.832 166.486 549.976C166.15 550.112 165.738 550.18 165.25 550.18ZM165.55 549.256C165.934 549.256 166.282 549.18 166.594 549.028C166.906 548.876 167.138 548.664 167.29 548.392V547.612C166.77 547.276 166.19 547.108 165.55 547.108C165.086 547.108 164.738 547.2 164.506 547.384C164.282 547.56 164.17 547.832 164.17 548.2C164.17 548.904 164.63 549.256 165.55 549.256ZM170.018 544.24H171.194V545.068C171.466 544.724 171.798 544.472 172.19 544.312C172.59 544.144 173.006 544.06 173.438 544.06C174.206 544.06 174.778 544.264 175.154 544.672C175.53 545.08 175.718 545.628 175.718 546.316V550H174.506V546.436C174.506 545.5 174.058 545.032 173.162 545.032C172.778 545.032 172.418 545.124 172.082 545.308C171.754 545.484 171.47 545.756 171.23 546.124V550H170.018V544.24ZM182.051 545.176H181.175V544.24H182.051V543.112C182.051 542.448 182.239 541.944 182.615 541.6C182.991 541.248 183.495 541.072 184.127 541.072C184.455 541.072 184.763 541.12 185.051 541.216V542.224C184.827 542.12 184.595 542.068 184.355 542.068C183.979 542.068 183.703 542.16 183.527 542.344C183.351 542.52 183.263 542.8 183.263 543.184V544.24H184.703V545.176H183.263V550H182.051V545.176ZM185.827 544.24H187.003V545.272C187.243 544.92 187.579 544.66 188.011 544.492C188.451 544.324 188.959 544.24 189.535 544.24V545.188C188.919 545.188 188.391 545.288 187.951 545.488C187.511 545.688 187.207 546.004 187.039 546.436V550H185.827V544.24ZM193.48 550.18C192.832 550.18 192.26 550.06 191.764 549.82C191.276 549.572 190.892 549.22 190.612 548.764C190.34 548.3 190.204 547.756 190.204 547.132C190.204 546.516 190.34 545.976 190.612 545.512C190.884 545.048 191.268 544.692 191.764 544.444C192.26 544.188 192.832 544.06 193.48 544.06C194.128 544.06 194.7 544.188 195.196 544.444C195.692 544.692 196.076 545.048 196.348 545.512C196.628 545.976 196.768 546.516 196.768 547.132C196.768 547.756 196.628 548.3 196.348 548.764C196.076 549.22 195.692 549.572 195.196 549.82C194.7 550.06 194.128 550.18 193.48 550.18ZM193.48 549.22C194.104 549.22 194.6 549.028 194.968 548.644C195.336 548.26 195.52 547.756 195.52 547.132C195.52 546.484 195.336 545.972 194.968 545.596C194.6 545.22 194.104 545.032 193.48 545.032C192.856 545.032 192.36 545.22 191.992 545.596C191.624 545.972 191.44 546.484 191.44 547.132C191.44 547.756 191.624 548.26 191.992 548.644C192.36 549.028 192.856 549.22 193.48 549.22ZM198.085 544.24H199.237V545.068C199.509 544.732 199.817 544.48 200.161 544.312C200.505 544.144 200.861 544.06 201.229 544.06C201.693 544.06 202.061 544.14 202.333 544.3C202.605 544.452 202.805 544.688 202.933 545.008C203.189 544.696 203.501 544.46 203.869 544.3C204.245 544.14 204.621 544.06 204.997 544.06C205.701 544.06 206.209 544.24 206.521 544.6C206.833 544.952 206.989 545.476 206.989 546.172V550H205.813V546.328C205.813 545.856 205.725 545.524 205.549 545.332C205.373 545.132 205.073 545.032 204.649 545.032C204.041 545.032 203.545 545.296 203.161 545.824C203.177 545.944 203.185 546.14 203.185 546.412V550H202.009V546.328C202.009 545.856 201.929 545.524 201.769 545.332C201.609 545.132 201.321 545.032 200.905 545.032C200.297 545.032 199.753 545.376 199.273 546.064V550H198.085V544.24ZM215.968 550.18C215.32 550.18 214.748 550.06 214.252 549.82C213.764 549.572 213.38 549.22 213.1 548.764C212.828 548.3 212.692 547.756 212.692 547.132C212.692 546.516 212.828 545.976 213.1 545.512C213.372 545.048 213.756 544.692 214.252 544.444C214.748 544.188 215.32 544.06 215.968 544.06C216.616 544.06 217.188 544.188 217.684 544.444C218.18 544.692 218.564 545.048 218.836 545.512C219.116 545.976 219.256 546.516 219.256 547.132C219.256 547.756 219.116 548.3 218.836 548.764C218.564 549.22 218.18 549.572 217.684 549.82C217.188 550.06 216.616 550.18 215.968 550.18ZM215.968 549.22C216.592 549.22 217.088 549.028 217.456 548.644C217.824 548.26 218.008 547.756 218.008 547.132C218.008 546.484 217.824 545.972 217.456 545.596C217.088 545.22 216.592 545.032 215.968 545.032C215.344 545.032 214.848 545.22 214.48 545.596C214.112 545.972 213.928 546.484 213.928 547.132C213.928 547.756 214.112 548.26 214.48 548.644C214.848 549.028 215.344 549.22 215.968 549.22ZM222.865 550.18C222.089 550.18 221.501 549.972 221.101 549.556C220.709 549.14 220.513 548.584 220.513 547.888V544.24H221.725V547.84C221.725 548.76 222.185 549.22 223.105 549.22C223.913 549.22 224.545 548.856 225.001 548.128V544.24H226.213V550H225.037V549.184C224.765 549.528 224.441 549.78 224.065 549.94C223.697 550.1 223.297 550.18 222.865 550.18ZM227.768 544.24H228.944V545.272C229.184 544.92 229.52 544.66 229.952 544.492C230.392 544.324 230.9 544.24 231.476 544.24V545.188C230.86 545.188 230.332 545.288 229.892 545.488C229.452 545.688 229.148 546.004 228.98 546.436V550H227.768V544.24ZM240.015 552.76C239.623 552.76 239.239 552.728 238.863 552.664C238.495 552.6 238.183 552.508 237.927 552.388V551.392C238.527 551.664 239.223 551.8 240.015 551.8C240.759 551.8 241.299 551.636 241.635 551.308C241.979 550.988 242.151 550.5 242.151 549.844V549.232C241.623 549.864 240.847 550.18 239.823 550.18C239.239 550.18 238.715 550.052 238.251 549.796C237.787 549.54 237.423 549.18 237.159 548.716C236.895 548.252 236.763 547.72 236.763 547.12C236.763 546.512 236.891 545.98 237.147 545.524C237.411 545.06 237.771 544.7 238.227 544.444C238.691 544.188 239.211 544.06 239.787 544.06C240.323 544.06 240.775 544.14 241.143 544.3C241.519 544.452 241.867 544.708 242.187 545.068V544.24H243.363V549.712C243.363 550.696 243.087 551.448 242.535 551.968C241.991 552.496 241.151 552.76 240.015 552.76ZM240.063 549.22C240.559 549.22 240.995 549.088 241.371 548.824C241.755 548.56 242.015 548.208 242.151 547.768V546.472C241.999 546.024 241.735 545.672 241.359 545.416C240.991 545.16 240.559 545.032 240.063 545.032C239.671 545.032 239.315 545.12 238.995 545.296C238.683 545.464 238.435 545.708 238.251 546.028C238.075 546.348 237.987 546.712 237.987 547.12C237.987 547.536 238.075 547.904 238.251 548.224C238.435 548.536 238.683 548.78 238.995 548.956C239.315 549.132 239.671 549.22 240.063 549.22ZM244.925 544.24H246.101V545.272C246.341 544.92 246.677 544.66 247.109 544.492C247.549 544.324 248.057 544.24 248.633 544.24V545.188C248.017 545.188 247.489 545.288 247.049 545.488C246.609 545.688 246.305 546.004 246.137 546.436V550H244.925V544.24ZM252.578 550.18C251.93 550.18 251.358 550.06 250.862 549.82C250.374 549.572 249.99 549.22 249.71 548.764C249.438 548.3 249.302 547.756 249.302 547.132C249.302 546.516 249.438 545.976 249.71 545.512C249.982 545.048 250.366 544.692 250.862 544.444C251.358 544.188 251.93 544.06 252.578 544.06C253.226 544.06 253.798 544.188 254.294 544.444C254.79 544.692 255.174 545.048 255.446 545.512C255.726 545.976 255.866 546.516 255.866 547.132C255.866 547.756 255.726 548.3 255.446 548.764C255.174 549.22 254.79 549.572 254.294 549.82C253.798 550.06 253.226 550.18 252.578 550.18ZM252.578 549.22C253.202 549.22 253.698 549.028 254.066 548.644C254.434 548.26 254.618 547.756 254.618 547.132C254.618 546.484 254.434 545.972 254.066 545.596C253.698 545.22 253.202 545.032 252.578 545.032C251.954 545.032 251.458 545.22 251.09 545.596C250.722 545.972 250.538 546.484 250.538 547.132C250.538 547.756 250.722 548.26 251.09 548.644C251.458 549.028 251.954 549.22 252.578 549.22ZM259.474 550.18C258.698 550.18 258.11 549.972 257.71 549.556C257.318 549.14 257.122 548.584 257.122 547.888V544.24H258.334V547.84C258.334 548.76 258.794 549.22 259.714 549.22C260.522 549.22 261.154 548.856 261.61 548.128V544.24H262.822V550H261.646V549.184C261.374 549.528 261.05 549.78 260.674 549.94C260.306 550.1 259.906 550.18 259.474 550.18ZM264.378 544.24H265.554V545.092C266.146 544.404 266.946 544.06 267.954 544.06C268.53 544.06 269.046 544.188 269.502 544.444C269.966 544.7 270.326 545.06 270.582 545.524C270.846 545.98 270.978 546.512 270.978 547.12C270.978 547.72 270.846 548.252 270.582 548.716C270.326 549.18 269.97 549.54 269.514 549.796C269.058 550.052 268.538 550.18 267.954 550.18C267.474 550.18 267.026 550.1 266.61 549.94C266.194 549.78 265.854 549.544 265.59 549.232V552.628H264.378V544.24ZM267.678 549.22C268.07 549.22 268.422 549.136 268.734 548.968C269.054 548.792 269.302 548.544 269.478 548.224C269.662 547.904 269.754 547.536 269.754 547.12C269.754 546.704 269.662 546.34 269.478 546.028C269.302 545.708 269.054 545.464 268.734 545.296C268.422 545.12 268.07 545.032 267.678 545.032C267.19 545.032 266.758 545.16 266.382 545.416C266.014 545.672 265.75 546.024 265.59 546.472V547.768C265.726 548.208 265.986 548.56 266.37 548.824C266.754 549.088 267.19 549.22 267.678 549.22ZM274.248 550.18C273.848 550.18 273.424 550.128 272.976 550.024C272.528 549.928 272.176 549.796 271.92 549.628V548.596C272.232 548.78 272.592 548.932 273 549.052C273.408 549.164 273.804 549.22 274.188 549.22C274.62 549.22 274.936 549.168 275.136 549.064C275.336 548.96 275.436 548.792 275.436 548.56C275.436 548.384 275.388 548.244 275.292 548.14C275.204 548.028 275.048 547.928 274.824 547.84C274.608 547.752 274.28 547.648 273.84 547.528C273.368 547.392 272.992 547.256 272.712 547.12C272.44 546.976 272.232 546.796 272.088 546.58C271.952 546.364 271.884 546.084 271.884 545.74C271.884 545.188 272.1 544.772 272.532 544.492C272.972 544.204 273.56 544.06 274.296 544.06C274.68 544.06 275.056 544.096 275.424 544.168C275.792 544.24 276.088 544.34 276.312 544.468V545.476C276.08 545.34 275.792 545.232 275.448 545.152C275.112 545.072 274.768 545.032 274.416 545.032C273.992 545.032 273.668 545.084 273.444 545.188C273.22 545.292 273.108 545.476 273.108 545.74C273.108 545.908 273.156 546.044 273.252 546.148C273.348 546.252 273.5 546.344 273.708 546.424C273.924 546.496 274.264 546.592 274.728 546.712C275.456 546.912 275.96 547.148 276.24 547.42C276.528 547.692 276.672 548.068 276.672 548.548C276.672 549.044 276.468 549.44 276.06 549.736C275.652 550.032 275.048 550.18 274.248 550.18ZM278.319 550C278.159 550 278.023 549.948 277.911 549.844C277.807 549.732 277.755 549.596 277.755 549.436C277.755 549.276 277.807 549.14 277.911 549.028C278.023 548.916 278.159 548.86 278.319 548.86C278.479 548.86 278.615 548.916 278.727 549.028C278.839 549.14 278.895 549.276 278.895 549.436C278.895 549.596 278.839 549.732 278.727 549.844C278.615 549.948 278.479 550 278.319 550Z" fill="white"/>
<rect x="166" y="384" width="1" height="33" fill="#FF8A37"/>
<path d="M4.5 443C4.5 428.917 15.9167 417.5 30 417.5H342C356.083 417.5 367.5 428.917 367.5 443C367.5 457.083 356.083 468.5 342 468.5H30C15.9167 468.5 4.5 457.083 4.5 443Z" stroke="#FF8A37"/>
<path d="M24.42 450.26C20.64 450.26 18.62 447.86 18.62 443.5C18.62 439.16 20.68 436.74 24.42 436.74C28.18 436.74 30.22 439.14 30.22 443.5C30.22 447.84 28.14 450.26 24.42 450.26ZM24.42 447.78C26.52 447.78 27.62 446.28 27.62 443.5C27.62 440.7 26.52 439.2 24.42 439.2C22.32 439.2 21.2 440.7 21.2 443.5C21.2 446.3 22.32 447.78 24.42 447.78ZM33.3042 450V448.18C33.3042 446.04 35.1042 444.1 38.3242 442.78C40.2842 441.96 40.8442 441.52 40.8442 440.76C40.8442 439.76 40.0242 439.2 38.4842 439.2C36.9642 439.2 36.1642 440.02 36.1642 441.02H33.5442C33.5442 438.42 35.3042 436.74 38.4842 436.74C41.5242 436.74 43.4242 438.3 43.4242 440.76C43.4242 442.64 42.3442 443.74 39.2442 445C37.4042 445.76 36.1642 446.68 36.1642 447.66H43.6842V450H33.3042ZM48.6184 450.26C47.6384 450.26 47.0184 449.58 47.0184 448.56C47.0184 447.56 47.6384 446.88 48.6184 446.88C49.5784 446.88 50.2184 447.56 50.2184 448.56C50.2184 449.58 49.5784 450.26 48.6184 450.26Z" fill="#FF8A37"/>
<path d="M55.209 450V441.55H59.226C61.631 441.55 63.399 443.318 63.399 445.775C63.399 448.206 61.631 450 59.226 450H55.209ZM56.821 448.479H59.226C60.669 448.479 61.709 447.348 61.709 445.775C61.709 444.215 60.669 443.071 59.226 443.071H56.821V448.479ZM69.186 450.169C66.781 450.169 65.013 448.31 65.013 445.775C65.013 443.24 66.781 441.381 69.186 441.381C71.591 441.381 73.359 443.24 73.359 445.775C73.359 448.31 71.591 450.169 69.186 450.169ZM69.186 448.557C70.629 448.557 71.682 447.374 71.682 445.775C71.682 444.163 70.629 442.98 69.186 442.98C67.743 442.98 66.703 444.163 66.703 445.775C66.703 447.374 67.743 448.557 69.186 448.557ZM79.3809 450V441.55H80.8239L85.8029 447.374V441.55H87.4149V450H85.9589L80.9929 444.163V450H79.3809ZM93.5864 450.169C91.1814 450.169 89.4134 448.31 89.4134 445.775C89.4134 443.24 91.1814 441.381 93.5864 441.381C95.9914 441.381 97.7594 443.24 97.7594 445.775C97.7594 448.31 95.9914 450.169 93.5864 450.169ZM93.5864 448.557C95.0294 448.557 96.0824 447.374 96.0824 445.775C96.0824 444.163 95.0294 442.98 93.5864 442.98C92.1434 442.98 91.1034 444.163 91.1034 445.775C91.1034 447.374 92.1434 448.557 93.5864 448.557ZM101.888 450V443.071H98.677V441.55H106.711V443.071H103.5V450H101.888ZM112.566 450V441.55H118.351C119.794 441.55 120.756 442.564 120.756 444.085C120.756 445.437 119.911 446.386 118.65 446.516C118.754 446.659 118.871 446.802 118.936 446.919L120.756 450H118.936L116.908 446.529H114.178V450H112.566ZM114.178 445.008H118.351C118.832 445.008 119.144 444.67 119.144 444.163V443.916C119.144 443.409 118.832 443.071 118.351 443.071H114.178V445.008ZM122.837 450V441.55H130.702V443.071H124.449V445.008H129.103V446.529H124.449V448.479H130.702V450H122.837ZM136.319 450.169C133.914 450.169 132.146 448.31 132.146 445.775C132.146 443.24 133.914 441.381 136.319 441.381C138.49 441.381 140.115 442.863 140.44 445.008H138.724C138.451 443.799 137.528 442.98 136.319 442.98C134.876 442.98 133.836 444.163 133.836 445.775C133.836 447.374 134.876 448.557 136.319 448.557C137.528 448.557 138.451 447.738 138.724 446.529H140.44C140.115 448.687 138.49 450.169 136.319 450.169ZM142.451 450V441.55H144.063V450H142.451ZM146.463 450V441.55H152.248C153.691 441.55 154.653 442.564 154.653 444.085C154.653 445.437 153.808 446.386 152.547 446.516C152.651 446.659 152.768 446.802 152.833 446.919L154.653 450H152.833L150.805 446.529H148.075V450H146.463ZM148.075 445.008H152.248C152.729 445.008 153.041 444.67 153.041 444.163V443.916C153.041 443.409 152.729 443.071 152.248 443.071H148.075V445.008ZM160.313 450.169C157.908 450.169 156.14 448.31 156.14 445.775C156.14 443.24 157.908 441.381 160.313 441.381C162.484 441.381 164.109 442.863 164.434 445.008H162.718C162.445 443.799 161.522 442.98 160.313 442.98C158.87 442.98 157.83 444.163 157.83 445.775C157.83 447.374 158.87 448.557 160.313 448.557C161.522 448.557 162.445 447.738 162.718 446.529H164.434C164.109 448.687 162.484 450.169 160.313 450.169ZM170.306 450.169C168.083 450.169 166.445 448.375 166.445 445.944V441.55H168.057V445.944C168.057 447.465 168.993 448.557 170.306 448.557C171.593 448.557 172.542 447.465 172.542 445.944V441.55H174.154V445.944C174.154 448.375 172.516 450.169 170.306 450.169ZM176.563 450V441.55H178.175V448.479H182.985V450H176.563ZM184.113 450L187.415 441.55H189.82L193.109 450H191.38L190.548 447.842H186.635L185.816 450H184.113ZM187.181 446.321H190.002L188.572 442.811L187.181 446.321ZM196.392 450V443.071H193.181V441.55H201.215V443.071H198.004V450H196.392ZM203.059 450V441.55H210.924V443.071H204.671V445.008H209.325V446.529H204.671V448.479H210.924V450H203.059ZM216.384 450L219.686 441.55H222.091L225.38 450H223.651L222.819 447.842H218.906L218.087 450H216.384ZM219.465 446.321H222.273L220.843 442.824L219.465 446.321ZM227.065 450V441.55H228.677V450H227.065ZM234.361 450L237.663 441.55H240.068L243.357 450H241.628L240.796 447.842H236.883L236.064 450H234.361ZM237.442 446.321H240.25L238.82 442.824L237.442 446.321ZM245.042 450V441.55H246.654V448.479H251.464V450H245.042ZM253.319 450V441.55H259.104C260.547 441.55 261.509 442.564 261.509 444.085C261.509 445.541 260.547 446.529 259.104 446.529H254.931V450H253.319ZM254.931 445.008H259.104C259.585 445.008 259.897 444.67 259.897 444.163V443.916C259.897 443.409 259.585 443.071 259.104 443.071H254.931V445.008ZM263.526 450V441.55H265.138V445.008H269.948V441.55H271.56V450H269.948V446.529H265.138V450H263.526ZM273.234 450L276.536 441.55H278.941L282.23 450H280.501L279.669 447.842H275.756L274.937 450H273.234ZM276.302 446.321H279.123L277.693 442.811L276.302 446.321ZM291.697 450.169C289.292 450.169 287.524 448.31 287.524 445.775C287.524 443.24 289.292 441.381 291.697 441.381C293.868 441.381 295.493 442.863 295.818 445.008H294.102C293.829 443.799 292.906 442.98 291.697 442.98C290.254 442.98 289.214 444.163 289.214 445.775C289.214 447.374 290.254 448.557 291.697 448.557C292.906 448.557 293.829 447.738 294.102 446.529H295.818C295.493 448.687 293.868 450.169 291.697 450.169ZM301.599 450.169C299.194 450.169 297.426 448.31 297.426 445.775C297.426 443.24 299.194 441.381 301.599 441.381C304.004 441.381 305.772 443.24 305.772 445.775C305.772 448.31 304.004 450.169 301.599 450.169ZM301.599 448.557C303.042 448.557 304.095 447.374 304.095 445.775C304.095 444.163 303.042 442.98 301.599 442.98C300.156 442.98 299.116 444.163 299.116 445.775C299.116 447.374 300.156 448.557 301.599 448.557ZM307.782 450V441.55H309.225L314.204 447.374V441.55H315.816V450H314.36L309.394 444.163V450H307.782ZM320.857 450V443.071H317.646V441.55H325.68V443.071H322.469V450H320.857ZM327.523 450V441.55H335.388V443.071H329.135V445.008H333.789V446.529H329.135V448.479H335.388V450H327.523ZM337.565 450V441.55H339.008L343.987 447.374V441.55H345.599V450H344.143L339.177 444.163V450H337.565ZM350.64 450V443.071H347.429V441.55H355.463V443.071H352.252V450H350.64Z" fill="#FF8A37"/>
<defs>
<linearGradient id="paint0_linear_1525_802" x1="187" y1="343" x2="187" y2="356.5" gradientUnits="userSpaceOnUse">
<stop stop-color="#FF8A37"/>
<stop offset="0.520833" stop-color="#FF8A37" stop-opacity="0.322917"/>
<stop offset="1" stop-color="#FF8A37" stop-opacity="0"/>
</linearGradient>
<linearGradient id="paint1_linear_1525_802" x1="46" y1="358" x2="329" y2="358" gradientUnits="userSpaceOnUse">
<stop offset="0.0516655" stop-color="#171717"/>
<stop offset="0.505208" stop-color="#171717" stop-opacity="0"/>
<stop offset="0.934152" stop-color="#171717"/>
</linearGradient>
</defs>
</svg>
