<?xml version="1.0" standalone="no"?>
<!DOCTYPE svg PUBLIC "-//W3C//DTD SVG 20010904//EN"
 "http://www.w3.org/TR/2001/REC-SVG-20010904/DTD/svg10.dtd">
<svg version="1.0" xmlns="http://www.w3.org/2000/svg"
 width="508.000000pt" height="660.000000pt" viewBox="0 0 508.000000 660.000000"
 preserveAspectRatio="xMidYMid meet">

<g transform="translate(0.000000,660.000000) scale(0.100000,-0.100000)"
fill="#000000" stroke="none">
<path d="M280 6584 c-107 -28 -216 -127 -257 -234 -17 -43 -18 -207 -21 -3024
-2 -3301 -7 -3046 63 -3152 57 -87 137 -142 233 -163 38 -8 663 -11 2245 -11
2427 0 2258 -5 2363 65 87 57 142 137 163 233 8 38 11 862 11 3005 0 3280 6
3019 -68 3127 -42 62 -116 122 -182 147 -42 17 -172 18 -2270 20 -1923 2
-2232 0 -2280 -13z m1148 -3422 c2 -8 -6 -10 -26 -6 -42 8 -72 -10 -72 -45 0
-38 22 -54 65 -49 28 3 35 1 33 -11 -5 -26 -82 -27 -107 -2 -27 27 -28 91 -3
113 31 28 100 28 110 0z m470 0 c2 -8 -6 -10 -26 -6 -42 8 -72 -10 -72 -45 0
-38 22 -54 65 -49 28 3 35 1 33 -11 -5 -26 -82 -27 -107 -2 -27 27 -28 91 -3
113 31 28 100 28 110 0z m852 -12 c30 -56 -6 -120 -66 -120 -67 0 -105 71 -65
122 12 15 31 28 44 30 32 5 76 -11 87 -32z m532 13 c36 -32 25 -110 -17 -127
-62 -23 -115 10 -115 72 0 70 77 102 132 55z m346 -1 c2 -7 -8 -9 -31 -5 -39
6 -67 -15 -67 -51 0 -33 24 -49 65 -44 28 3 35 1 33 -11 -5 -27 -76 -27 -104
0 -27 25 -32 74 -11 102 24 34 104 40 115 9z m-2064 -53 c30 -82 30 -79 12
-79 -8 0 -18 9 -21 20 -4 14 -15 20 -35 20 -19 0 -33 -7 -40 -20 -6 -11 -17
-20 -25 -20 -10 0 -6 19 17 75 40 99 57 100 92 4z m115 24 l31 -48 0 48 c0 35
4 47 15 47 12 0 15 -15 15 -75 0 -90 -12 -96 -55 -27 l-30 47 -3 -47 c-2 -34
-7 -48 -18 -48 -11 0 -14 16 -14 75 0 91 13 97 59 28z m351 37 c0 -5 -18 -10
-40 -10 -33 0 -40 -3 -40 -20 0 -16 7 -20 30 -20 38 0 40 -18 3 -22 -16 -2
-29 -10 -31 -20 -2 -13 5 -17 34 -20 63 -5 54 -28 -10 -28 l-56 0 0 75 0 75
55 0 c30 0 55 -4 55 -10z m50 -49 c0 -60 0 -60 32 -63 55 -5 46 -28 -11 -28
l-51 0 0 75 c0 60 3 75 15 75 12 0 15 -13 15 -59z m110 -1 l0 -60 35 0 c24 0
35 -5 35 -15 0 -11 -12 -15 -50 -15 l-50 0 0 75 c0 60 3 75 15 75 12 0 15 -13
15 -60z m203 -8 c15 -37 27 -71 27 -75 0 -16 -28 -5 -33 13 -4 15 -14 20 -37
20 -23 0 -33 -5 -37 -20 -5 -18 -33 -29 -33 -13 0 4 12 38 27 75 18 47 31 68
43 68 12 0 25 -21 43 -68z m137 58 c0 -5 -9 -10 -20 -10 -18 0 -20 -7 -20 -65
0 -51 -3 -65 -15 -65 -12 0 -15 14 -15 65 0 63 -1 65 -25 65 -14 0 -25 5 -25
10 0 6 27 10 60 10 33 0 60 -4 60 -10z m50 -65 c0 -60 -3 -75 -15 -75 -12 0
-15 15 -15 75 0 60 3 75 15 75 12 0 15 -15 15 -75z m269 28 l31 -48 0 48 c0
35 4 47 15 47 12 0 15 -15 15 -75 0 -91 -13 -97 -59 -27 l-31 47 0 -47 c0 -36
-4 -48 -15 -48 -12 0 -15 15 -15 75 0 91 13 97 59 28z m269 35 c7 -7 12 -24
12 -40 0 -29 -23 -48 -59 -48 -16 0 -21 -6 -21 -25 0 -16 -6 -25 -15 -25 -12
0 -15 15 -15 75 l0 75 43 0 c24 0 48 -5 55 -12z m242 -48 l0 -60 35 0 c24 0
35 -5 35 -15 0 -11 -12 -15 -50 -15 l-50 0 0 75 c0 60 3 75 15 75 12 0 15 -13
15 -60z m120 -15 c0 -60 -3 -75 -15 -75 -12 0 -15 15 -15 75 0 60 3 75 15 75
12 0 15 -15 15 -75z m214 44 l19 -31 19 31 c11 17 26 31 34 31 11 0 9 -11 -11
-43 -14 -24 -25 -58 -25 -75 0 -22 -5 -32 -15 -32 -10 0 -15 10 -15 28 0 15
-11 45 -25 67 -28 46 -30 55 -12 55 7 0 21 -14 31 -31z m-3041 -480 c27 -15
37 -28 37 -53 0 -29 -29 -56 -61 -56 -78 0 -79 100 -1 119 2 1 13 -4 25 -10z
m777 -34 c22 0 25 -5 28 -37 2 -22 -1 -38 -7 -38 -6 0 -11 14 -11 31 0 24 -4
30 -17 27 -11 -2 -19 -14 -21 -31 -6 -48 -22 -29 -22 26 0 57 12 84 20 45 4
-17 12 -23 30 -23z m880 -16 l0 -60 -36 3 c-44 4 -65 29 -48 56 6 9 23 17 38
17 21 -1 26 4 26 22 0 13 5 23 10 23 6 0 10 -27 10 -61z m375 45 c-17 -13 -18
-16 -5 -25 11 -8 12 -12 3 -16 -7 -2 -13 -18 -13 -34 0 -16 -4 -29 -10 -29
-14 0 -12 94 2 108 7 7 19 12 28 12 12 -1 11 -4 -5 -16z m595 -44 c0 -33 -4
-60 -10 -60 -6 0 -10 27 -10 60 0 33 4 60 10 60 6 0 10 -27 10 -60z m140 37
c0 -18 5 -23 28 -22 24 0 27 -4 30 -37 2 -22 -1 -38 -7 -38 -6 0 -11 14 -11
31 0 24 -4 30 -17 27 -11 -2 -19 -14 -21 -31 -6 -51 -22 -27 -22 33 0 33 4 60
10 60 6 0 10 -10 10 -23z m350 13 c0 -5 -4 -10 -10 -10 -5 0 -9 -8 -8 -17 3
-40 -3 -83 -11 -83 -13 0 -20 71 -10 98 8 22 39 32 39 12z m680 -14 c0 -20 4
-23 21 -19 12 4 25 0 30 -8 12 -19 11 -69 -1 -69 -5 0 -10 14 -10 30 0 23 -4
30 -20 30 -16 0 -20 -7 -20 -30 0 -16 -4 -30 -10 -30 -6 0 -10 27 -10 60 0 33
4 60 10 60 6 0 10 -11 10 -24z m-1443 -38 c21 -55 21 -76 -1 -45 -16 21 -52
22 -60 2 -3 -8 -10 -15 -15 -15 -5 0 1 25 12 55 12 30 27 55 33 55 6 0 20 -24
31 -52z m53 -3 c0 -30 -4 -55 -10 -55 -5 0 -10 25 -10 55 0 30 5 55 10 55 6 0
10 -25 10 -55z m163 2 c19 -46 16 -80 -4 -44 -6 9 -19 17 -29 17 -10 0 -23 -8
-29 -17 -5 -10 -12 -15 -15 -12 -10 9 36 110 48 106 5 -2 19 -25 29 -50z
m1107 43 c0 -5 -4 -10 -10 -10 -5 0 -10 5 -10 10 0 6 5 10 10 10 6 0 10 -4 10
-10z m-3552 -62 c2 -22 -1 -38 -7 -38 -6 0 -11 14 -11 31 0 24 -4 30 -17 27
-11 -2 -19 -14 -21 -31 -5 -38 -22 -34 -22 6 0 42 3 44 43 43 30 -1 32 -4 35
-38z m92 32 c0 -5 -12 -10 -26 -10 -21 0 -25 -4 -22 -22 2 -17 9 -23 26 -22
12 0 22 -3 22 -8 0 -5 -15 -8 -32 -6 -26 2 -34 8 -36 26 -2 13 2 30 8 38 14
16 60 19 60 4z m88 -2 c23 -23 13 -38 -25 -38 -40 0 -36 -15 7 -23 21 -4 20
-4 -7 -6 -38 -1 -55 22 -42 57 9 24 47 30 67 10z m113 -15 l11 -28 15 30 c24
45 27 15 4 -38 -14 -31 -26 -47 -38 -47 -15 0 -15 2 -4 9 12 8 13 16 3 49 -13
44 -14 52 -7 52 3 0 10 -12 16 -27z m127 18 c8 -5 12 -21 10 -37 -2 -24 -8
-30 -33 -32 -33 -4 -57 20 -48 46 12 31 44 41 71 23z m52 -32 c0 -44 34 -36
38 9 4 42 22 31 22 -14 0 -35 -1 -35 -37 -32 -36 3 -38 5 -41 42 -2 25 0 36 7
31 6 -3 11 -20 11 -36z m298 -1 c3 -37 3 -38 -32 -38 -32 0 -36 3 -36 25 0 20
5 25 28 26 23 2 24 2 5 6 -33 6 -28 25 5 21 23 -3 27 -8 30 -40z m37 22 c3
-11 10 -20 15 -20 5 0 12 9 15 20 5 17 25 29 25 15 0 -11 -34 -75 -40 -75 -6
0 -40 64 -40 75 0 14 20 2 25 -15z m133 8 c22 -22 13 -38 -20 -38 -33 0 -29
-14 7 -23 11 -3 4 -5 -15 -4 -31 2 -35 6 -38 31 -5 41 37 63 66 34z m142 2 c0
-5 -10 -10 -22 -10 -21 -1 -21 -2 5 -16 36 -20 30 -39 -14 -40 -26 -1 -28 -1
-6 3 27 4 38 23 13 23 -18 0 -39 27 -31 40 8 13 55 13 55 0z m37 -52 c-2 -13
-4 -3 -4 22 0 25 2 35 4 23 2 -13 2 -33 0 -45z m113 12 c0 -26 -5 -51 -12 -58
-15 -15 -58 -16 -58 -2 0 6 11 10 25 10 14 0 25 5 25 10 0 6 -10 10 -23 10
-27 0 -47 17 -47 40 0 26 21 40 57 37 32 -2 33 -3 33 -47z m98 8 c2 -22 -1
-38 -7 -38 -6 0 -11 14 -11 30 0 23 -4 30 -20 30 -16 0 -20 -7 -20 -30 0 -16
-4 -30 -10 -30 -5 0 -10 18 -10 39 0 39 0 39 38 38 35 -2 37 -4 40 -39z m90
30 c23 -23 13 -38 -24 -38 -23 0 -33 -4 -28 -11 3 -6 17 -9 30 -6 13 2 24 0
24 -4 0 -15 -57 -10 -70 6 -31 38 33 88 68 53z m212 -29 c0 -44 34 -36 38 9 4
42 22 31 22 -14 0 -35 -1 -35 -37 -32 -36 3 -38 5 -41 42 -2 25 0 36 7 31 6
-3 11 -20 11 -36z m138 35 c19 -4 23 -10 20 -37 -3 -28 -7 -32 -35 -35 -25 -3
-33 -8 -33 -23 0 -11 -4 -17 -10 -14 -10 6 -14 97 -5 107 7 7 35 8 63 2z m226
-10 c19 -19 20 -25 3 -48 -19 -26 -71 -18 -75 12 -7 46 40 69 72 36z m76 6 c0
-4 -7 -10 -15 -14 -8 -3 -15 -17 -15 -31 0 -14 -4 -25 -10 -25 -5 0 -10 17
-10 39 0 34 3 39 25 39 14 0 25 -4 25 -8z m532 -14 c14 -31 -3 -56 -38 -56
-14 0 -24 -6 -24 -14 0 -8 -4 -18 -10 -21 -6 -4 -10 16 -10 52 l0 59 35 2 c29
2 37 -2 47 -22z m172 18 c10 -4 16 -18 16 -40 0 -32 -2 -34 -34 -34 -53 0 -58
43 -6 53 25 4 25 4 -2 6 -16 0 -28 6 -28 11 0 11 30 13 54 4z m143 -56 c-2
-13 -4 -3 -4 22 0 25 2 35 4 23 2 -13 2 -33 0 -45z m173 26 c0 -24 17 -15 24
11 4 14 11 25 17 25 6 0 9 -6 6 -12 -36 -91 -40 -98 -60 -98 -20 0 -20 1 -3
13 17 12 17 16 2 51 -20 47 -20 52 -1 36 8 -7 15 -19 15 -26z m134 14 c14 -23
-3 -52 -33 -56 -42 -6 -67 38 -39 66 17 17 58 11 72 -10z m56 -43 c8 0 16 11
18 25 6 45 22 46 22 2 0 -41 -1 -42 -35 -42 -29 0 -36 4 -41 25 -3 14 -3 33 2
42 6 14 9 10 13 -17 4 -22 12 -35 21 -35z m144 38 c14 -26 15 -26 16 -6 0 30
20 40 27 14 7 -27 19 -27 28 2 5 17 8 18 11 6 6 -19 -12 -69 -25 -69 -5 0 -12
12 -16 28 l-7 27 -10 -27 c-13 -36 -24 -35 -37 3 -19 55 -11 67 13 22z m126
-13 c0 -22 -4 -40 -10 -40 -5 0 -10 18 -10 40 0 22 5 40 10 40 6 0 10 -18 10
-40z m80 30 c0 -5 -10 -10 -22 -11 l-23 0 23 -11 c34 -17 29 -48 -8 -48 -16 0
-30 4 -30 9 0 5 9 7 20 4 11 -3 20 0 20 6 0 6 -6 11 -14 11 -19 0 -29 17 -22
35 6 17 56 21 56 5z m-810 -81 c-7 -11 -14 -18 -17 -15 -8 8 5 36 17 36 7 0 7
-6 0 -21z m-2380 -149 c0 -33 -4 -60 -10 -60 -6 0 -10 27 -10 60 0 33 4 60 10
60 6 0 10 -27 10 -60z m895 20 c21 0 55 -23 55 -36 0 -25 -25 -44 -55 -44
l-35 0 1 63 c1 34 4 52 6 40 3 -16 11 -23 28 -23z m325 15 c0 -18 4 -23 15
-19 8 4 22 1 30 -6 17 -14 21 -70 5 -70 -5 0 -10 14 -10 30 0 23 -4 30 -20 30
-16 0 -20 -7 -20 -30 0 -16 -4 -30 -10 -30 -6 0 -10 27 -10 60 0 33 4 60 10
60 6 0 10 -11 10 -25z m847 -67 c-2 -18 -4 -4 -4 32 0 36 2 50 4 33 2 -18 2
-48 0 -65z m43 32 c0 -33 -4 -60 -10 -60 -6 0 -10 27 -10 60 0 33 4 60 10 60
6 0 10 -27 10 -60z m460 -1 l0 -60 -42 3 c-36 3 -44 7 -46 26 -5 31 17 55 45
49 19 -3 23 0 23 19 0 13 5 24 10 24 6 0 10 -27 10 -61z m480 52 c0 -5 -8 -12
-17 -15 -15 -6 -15 -8 -3 -17 11 -8 12 -12 3 -16 -7 -2 -14 -19 -14 -36 -1
-30 -2 -30 -9 8 -9 46 3 85 25 85 8 0 15 -4 15 -9z m-1730 -5 c0 -3 -4 -8 -10
-11 -5 -3 -10 -1 -10 4 0 6 5 11 10 11 6 0 10 -2 10 -4z m720 0 c0 -3 -4 -8
-10 -11 -5 -3 -10 -1 -10 4 0 6 5 11 10 11 6 0 10 -2 10 -4z m-2707 -19 c3 -7
3 -26 0 -41 -4 -18 -1 -31 8 -37 11 -7 9 -9 -7 -9 -18 0 -23 7 -26 38 -5 39
-1 62 12 62 4 0 10 -6 13 -13z m3340 0 c3 -7 3 -26 0 -41 -4 -18 -1 -32 8 -38
11 -7 9 -8 -6 -6 -29 5 -44 98 -15 98 4 0 10 -6 13 -13z m-3239 -23 c32 -32 8
-68 -41 -62 -20 2 -29 9 -31 26 -7 46 40 69 72 36z m156 6 c0 -5 -12 -10 -26
-10 -21 0 -25 -4 -22 -22 2 -17 9 -23 26 -22 12 0 22 -3 22 -8 0 -4 -13 -8
-30 -8 -23 0 -31 5 -36 25 -4 15 -1 32 6 40 14 17 60 21 60 5z m88 -32 c3 -38
3 -38 -33 -38 -32 0 -36 3 -33 22 2 14 13 25 28 29 24 7 24 7 3 8 -13 1 -23 6
-23 12 0 6 12 9 28 7 23 -3 27 -8 30 -40z m94 29 c11 -18 10 -67 -2 -67 -5 0
-10 14 -10 30 0 23 -4 30 -20 30 -16 0 -20 -7 -20 -30 0 -16 -4 -30 -10 -30
-5 0 -10 17 -10 38 0 37 2 39 32 40 18 0 36 -5 40 -11z m93 4 c3 -5 -7 -11
-22 -13 -20 -2 -28 -9 -28 -23 0 -15 7 -20 28 -20 15 1 27 -3 27 -7 0 -14 -57
-8 -70 7 -20 24 3 65 34 65 14 0 27 -4 31 -9z m89 -7 c25 -24 19 -34 -21 -34
-40 0 -36 -15 7 -23 22 -4 22 -4 -5 -6 -34 -1 -55 14 -55 39 0 38 46 53 74 24z
m150 -11 l14 -28 11 28 c6 15 15 27 21 27 6 0 3 -18 -7 -42 -20 -53 -31 -68
-50 -68 -12 0 -12 3 1 16 14 14 14 18 1 44 -15 29 -19 50 -10 50 2 0 11 -12
19 -27z m130 11 c19 -19 20 -25 3 -48 -19 -26 -71 -18 -75 12 -7 46 40 69 72
36z m48 -16 c2 -21 8 -33 18 -33 10 0 16 12 18 33 5 46 22 40 22 -9 l0 -40
-37 3 c-36 3 -38 5 -41 41 -2 20 1 37 7 37 5 0 11 -15 13 -32z m128 21 c0 -5
-7 -9 -15 -9 -10 0 -15 -10 -15 -30 0 -16 -4 -30 -10 -30 -5 0 -10 17 -10 38
0 32 3 37 25 38 14 1 25 -2 25 -7z m188 -31 c2 -22 -1 -38 -7 -38 -6 0 -11 14
-11 30 0 20 -5 30 -15 30 -10 0 -15 -10 -15 -30 0 -16 -4 -30 -10 -30 -5 0
-10 14 -10 30 0 20 -5 30 -15 30 -10 0 -15 -10 -15 -30 0 -16 -4 -30 -10 -30
-5 0 -10 17 -10 39 l0 38 58 -1 57 -1 3 -37z m90 30 c22 -22 13 -38 -20 -38
-33 0 -29 -14 7 -23 11 -3 4 -5 -15 -4 -31 2 -35 6 -38 31 -5 41 37 63 66 34z
m150 -30 c2 -22 -1 -38 -7 -38 -6 0 -11 14 -11 30 0 20 -5 30 -15 30 -10 0
-15 -10 -15 -30 0 -16 -4 -30 -10 -30 -5 0 -10 14 -10 30 0 20 -5 30 -15 30
-10 0 -15 -10 -15 -30 0 -16 -4 -30 -10 -30 -5 0 -10 17 -10 38 l0 39 58 -1
57 -1 3 -37z m186 36 c9 -3 16 -15 16 -25 0 -15 -7 -19 -32 -19 -36 0 -28 -15
12 -23 14 -3 7 -4 -15 -4 -34 2 -41 6 -43 25 -6 40 23 61 62 46z m86 -5 c0 -5
-7 -9 -15 -9 -10 0 -15 -10 -15 -30 0 -16 -4 -30 -10 -30 -5 0 -10 17 -10 38
0 32 3 37 25 38 14 1 25 -2 25 -7z m70 1 c0 -5 -10 -10 -22 -11 l-23 0 23 -11
c34 -17 29 -48 -8 -48 -16 0 -30 4 -30 9 0 5 9 7 20 4 11 -3 20 0 20 6 0 6 -6
11 -14 11 -19 0 -29 17 -22 35 6 17 56 21 56 5z m127 -52 c-2 -13 -4 -3 -4 22
0 25 2 35 4 23 2 -13 2 -33 0 -45z m89 56 c48 -9 33 -74 -16 -74 -24 0 -30 -4
-30 -21 0 -11 -4 -17 -10 -14 -10 6 -14 97 -5 107 7 6 35 8 61 2z m175 -21
l11 -28 15 30 c24 45 27 15 4 -38 -14 -31 -26 -47 -38 -47 -15 0 -16 2 -3 10
13 8 13 15 -1 55 -17 48 -6 64 12 18z m127 18 c8 -5 12 -21 10 -37 -2 -24 -8
-30 -33 -32 -33 -4 -57 20 -48 46 12 31 44 41 71 23z m52 -32 c0 -44 34 -36
38 9 4 42 22 31 22 -14 0 -35 -1 -35 -37 -32 -36 3 -38 5 -41 42 -2 25 0 36 7
31 6 -3 11 -20 11 -36z m158 14 l10 -28 7 28 c9 35 23 35 32 0 l6 -28 10 28
c5 15 13 27 19 27 6 0 7 -7 4 -16 -3 -9 -9 -27 -12 -40 -7 -29 -24 -31 -31 -4
-3 11 -9 20 -14 20 -5 0 -9 -9 -9 -20 0 -36 -27 -21 -38 20 -11 45 1 55 16 13z
m132 -19 c0 -19 -4 -34 -10 -34 -5 0 -10 18 -10 41 0 24 4 38 10 34 6 -3 10
-22 10 -41z m216 35 c16 -13 19 -69 4 -69 -5 0 -10 14 -10 30 0 23 -4 30 -20
30 -16 0 -20 -7 -20 -30 0 -16 -4 -30 -10 -30 -5 0 -10 17 -10 38 0 33 3 38
26 40 15 1 33 -3 40 -9z m104 -8 c15 -29 13 -31 -27 -31 -40 0 -36 -15 7 -23
22 -4 22 -4 -5 -6 -34 -1 -55 14 -55 39 0 40 61 55 80 21z m84 13 c9 -3 16
-15 16 -25 0 -15 -7 -19 -32 -19 -36 0 -28 -16 12 -23 18 -3 15 -5 -12 -6 -32
-1 -39 3 -44 24 -10 41 19 65 60 49z m340 -16 c14 -23 -3 -52 -33 -56 -42 -6
-67 38 -39 66 17 17 58 11 72 -10z m93 -40 c-2 -13 -4 -3 -4 22 0 25 2 35 4
23 2 -13 2 -33 0 -45z m101 20 c2 -22 -1 -38 -7 -38 -6 0 -11 14 -11 31 0 24
-4 30 -17 27 -11 -2 -19 -14 -21 -31 -5 -38 -22 -34 -22 6 0 42 3 44 43 43 30
-1 32 -4 35 -38z m146 26 c32 -32 8 -68 -41 -62 -20 2 -29 9 -31 26 -7 46 40
69 72 36z m76 6 c0 -4 -7 -10 -15 -14 -8 -3 -15 -17 -15 -31 0 -14 -4 -25 -10
-25 -10 0 -15 62 -5 71 8 8 45 8 45 -1z m138 -32 c2 -22 -1 -38 -7 -38 -6 0
-11 14 -11 30 0 20 -5 30 -15 30 -10 0 -15 -10 -15 -30 0 -16 -4 -30 -10 -30
-5 0 -10 14 -10 31 0 41 -32 36 -41 -6 -6 -27 -7 -26 -8 11 l-1 41 58 -1 57
-1 3 -37z m-1878 -49 c-7 -11 -14 -18 -17 -15 -8 8 5 36 17 36 7 0 7 -6 0 -21z
m-1212 -131 c24 -3 27 -8 29 -43 1 -35 1 -36 -5 -10 -5 21 -13 30 -27 30 -14
0 -22 -9 -26 -30 -4 -20 -7 -8 -6 35 0 36 2 55 4 43 3 -15 13 -23 31 -25z
m442 22 c0 -13 7 -20 18 -20 10 0 23 -5 30 -12 14 -14 16 -68 2 -68 -5 0 -10
14 -10 30 0 23 -4 30 -20 30 -16 0 -20 -7 -20 -30 0 -16 -4 -30 -10 -30 -6 0
-10 27 -10 60 0 33 4 60 10 60 6 0 10 -9 10 -20z m220 -40 l0 -60 -40 0 c-34
0 -41 4 -46 25 -8 33 13 58 43 52 19 -3 23 0 23 19 0 13 5 24 10 24 6 0 10
-27 10 -60z m385 44 c-17 -13 -18 -16 -5 -25 11 -8 12 -12 3 -16 -7 -2 -13
-18 -13 -34 0 -42 -17 -36 -23 9 -5 42 14 82 41 82 15 -1 15 -2 -3 -16z m895
-7 c0 -18 5 -23 28 -22 24 0 27 -4 30 -37 2 -22 -1 -38 -7 -38 -6 0 -11 14
-11 31 0 24 -4 30 -17 27 -11 -2 -19 -14 -21 -31 -6 -51 -22 -27 -22 33 0 33
4 60 10 60 6 0 10 -10 10 -23z m100 -37 c0 -33 -4 -60 -10 -60 -6 0 -10 27
-10 60 0 33 4 60 10 60 6 0 10 -27 10 -60z m360 34 c0 -15 4 -23 11 -19 5 4
21 4 35 1 21 -6 25 -12 22 -39 -3 -30 -6 -32 -45 -35 l-43 -3 0 60 c0 34 4 61
10 61 6 0 10 -12 10 -26z m-2970 6 c0 -5 -4 -10 -10 -10 -5 0 -10 5 -10 10 0
6 5 10 10 10 6 0 10 -4 10 -10z m820 -45 c0 -30 -4 -55 -10 -55 -5 0 -10 20
-10 45 0 38 -2 43 -17 38 -16 -6 -16 -5 -4 10 27 33 41 20 41 -38z m65 48
c-33 -9 -37 -27 -7 -33 22 -4 27 -10 27 -35 0 -28 -3 -30 -40 -32 -35 -1 -36
-1 -10 5 37 9 44 47 8 46 -19 0 -23 5 -23 28 0 25 3 28 33 27 21 -1 25 -3 12
-6z m2415 -3 c0 -5 -4 -10 -10 -10 -5 0 -10 5 -10 10 0 6 5 10 10 10 6 0 10
-4 10 -10z m200 0 c0 -5 -4 -10 -10 -10 -5 0 -10 5 -10 10 0 6 5 10 10 10 6 0
10 -4 10 -10z m-3222 -17 c12 -12 13 -18 4 -21 -16 -5 -16 -49 1 -56 6 -3 3
-5 -8 -3 -20 2 -38 57 -28 84 7 17 11 16 31 -4z m220 0 c12 -12 13 -18 4 -21
-16 -5 -16 -49 1 -56 6 -3 3 -5 -8 -3 -20 2 -38 57 -28 84 7 17 11 16 31 -4z
m460 0 c12 -12 13 -18 4 -21 -16 -5 -16 -49 1 -56 6 -3 3 -5 -8 -3 -20 2 -38
57 -28 84 7 17 11 16 31 -4z m1505 4 c3 -7 3 -26 0 -41 -4 -18 -1 -31 8 -37
11 -7 9 -9 -7 -9 -18 0 -23 7 -26 38 -5 39 -1 62 12 62 4 0 10 -6 13 -13z
m990 0 c3 -7 3 -26 0 -41 -4 -18 -1 -31 8 -37 11 -7 9 -9 -7 -9 -18 0 -23 7
-26 38 -5 39 -1 62 12 62 4 0 10 -6 13 -13z m-3853 -48 c0 -44 34 -36 38 9 4
42 22 31 22 -14 0 -35 -1 -35 -37 -32 -36 3 -38 5 -41 42 -2 25 0 36 7 31 6
-3 11 -20 11 -36z m130 31 c0 -5 -10 -10 -22 -10 -21 -1 -21 -2 5 -16 16 -8
26 -21 24 -27 -4 -14 -67 -22 -67 -9 0 5 12 7 28 5 26 -4 26 -4 8 11 -10 8
-24 17 -29 19 -6 2 -8 11 -4 20 7 18 57 24 57 7z m160 -5 c7 -8 9 -26 6 -40
-5 -20 -13 -25 -36 -25 -23 0 -30 -4 -30 -20 0 -11 -4 -20 -10 -20 -6 0 -10
26 -10 58 l0 59 34 1 c19 1 39 -5 46 -13z m80 4 c0 -5 -7 -9 -15 -9 -10 0 -15
-10 -15 -30 0 -16 -4 -30 -10 -30 -5 0 -10 17 -10 38 0 32 3 37 25 38 14 1 25
-2 25 -7z m30 -29 c0 -22 -4 -40 -10 -40 -5 0 -10 18 -10 40 0 22 5 40 10 40
6 0 10 -18 10 -40z m94 24 c19 -19 20 -25 3 -48 -19 -26 -71 -18 -75 12 -7 46
40 69 72 36z m76 6 c0 -4 -7 -10 -15 -14 -8 -3 -15 -17 -15 -31 0 -14 -4 -25
-10 -25 -5 0 -10 17 -10 39 0 34 3 39 25 39 14 0 25 -4 25 -8z m210 -5 c7 -8
10 -25 6 -40 -11 -43 -86 -30 -86 15 0 37 55 55 80 25z m304 9 c9 -3 16 -15
16 -25 0 -15 -7 -19 -32 -19 -36 0 -28 -15 12 -23 14 -3 7 -4 -15 -4 -34 2
-41 6 -43 25 -6 40 23 61 62 46z m624 -6 c7 -7 12 -25 12 -41 0 -27 -2 -28
-37 -25 -30 2 -38 7 -38 23 0 14 9 22 30 26 l30 7 -27 1 c-16 0 -28 6 -28 11
0 14 43 13 58 -2z m52 -24 c0 -24 17 -15 24 11 4 14 11 25 17 25 6 0 9 -6 6
-12 -36 -91 -40 -98 -60 -98 -20 0 -20 1 -3 13 17 12 17 16 2 51 -20 47 -20
52 -1 36 8 -7 15 -19 15 -26z m204 14 c14 -23 -3 -52 -33 -56 -42 -6 -67 38
-39 66 17 17 58 11 72 -10z m158 -9 l11 -31 15 33 c8 19 16 29 18 23 8 -21
-34 -104 -53 -104 -15 0 -15 2 -4 9 12 8 13 16 3 49 -13 44 -14 52 -6 52 3 0
10 -14 16 -31z m126 22 c8 -5 12 -21 10 -37 -2 -24 -8 -30 -33 -32 -33 -4 -57
20 -48 46 12 31 44 41 71 23z m52 -27 c0 -28 3 -35 18 -32 11 2 18 14 20 36 4
42 22 31 22 -14 0 -35 -1 -35 -37 -32 -36 3 -38 5 -41 41 -2 21 1 37 7 37 6 0
11 -16 11 -36z m130 26 c0 -4 -9 -10 -19 -13 -12 -3 -21 -16 -24 -33 -3 -23
-4 -21 -5 11 -2 36 0 40 23 41 14 1 25 -2 25 -6z m188 -32 c2 -22 -1 -38 -7
-38 -6 0 -11 14 -11 30 0 20 -5 30 -15 30 -10 0 -15 -10 -15 -30 0 -16 -4 -30
-10 -30 -5 0 -10 14 -10 30 0 20 -5 30 -15 30 -10 0 -15 -10 -15 -30 0 -16 -4
-30 -10 -30 -5 0 -10 17 -10 38 l0 39 58 -1 57 -1 3 -37z m92 28 c6 -8 10 -25
8 -38 -2 -17 -10 -24 -34 -26 -41 -4 -61 19 -46 53 13 28 52 34 72 11z m96 3
c16 -13 19 -69 4 -69 -5 0 -10 14 -10 30 0 23 -4 30 -20 30 -16 0 -20 -7 -20
-30 0 -16 -4 -30 -10 -30 -5 0 -10 17 -10 38 0 33 3 38 26 40 15 1 33 -3 40
-9z m248 -16 l14 -28 12 30 c7 17 14 25 17 18 7 -20 -34 -103 -52 -103 -15 0
-15 1 -1 16 14 14 14 18 1 44 -15 29 -19 50 -10 50 2 0 11 -12 19 -27z m181
18 c3 -5 -5 -12 -17 -14 l-23 -4 23 -8 c12 -4 22 -16 22 -26 0 -14 -7 -19 -30
-19 -16 0 -30 4 -30 9 0 5 9 7 20 4 11 -3 20 0 20 6 0 6 -6 11 -14 11 -19 0
-29 17 -22 35 6 17 42 20 51 6z m45 -32 c0 -45 33 -35 41 11 l6 35 2 -42 c1
-43 1 -43 -34 -43 -34 0 -35 1 -35 41 0 24 4 38 10 34 6 -3 10 -20 10 -36z
m230 31 c0 -5 -10 -10 -22 -10 -21 -1 -21 -2 5 -16 36 -20 30 -39 -14 -40 -26
-1 -28 -1 -6 3 27 4 38 23 13 23 -18 0 -39 27 -31 40 8 13 55 13 55 0z m90 0
c0 -5 -12 -10 -26 -10 -21 0 -25 -4 -22 -22 2 -17 9 -23 26 -22 12 0 22 -3 22
-8 0 -5 -15 -8 -32 -6 -26 2 -34 8 -36 26 -2 13 2 30 8 38 14 16 60 19 60 4z
m70 -1 c0 -5 -7 -9 -15 -9 -10 0 -15 -10 -15 -30 0 -16 -4 -30 -10 -30 -5 0
-10 17 -10 38 0 32 3 37 25 38 14 1 25 -2 25 -7z m30 -29 c0 -22 -4 -40 -10
-40 -11 0 -14 63 -3 73 11 12 13 8 13 -33z m100 25 c6 -8 10 -24 8 -37 -2 -18
-10 -24 -35 -26 -25 -3 -33 -8 -33 -23 0 -11 -4 -17 -10 -14 -5 3 -10 30 -10
59 l0 53 34 1 c19 1 39 -5 46 -13z m100 -25 c0 -22 -4 -40 -10 -40 -11 0 -14
63 -3 73 11 12 13 8 13 -33z m104 18 c16 -26 -4 -52 -42 -56 -26 -3 -32 1 -38
23 -4 15 -1 31 7 41 16 19 59 14 73 -8z m94 -20 c2 -22 -1 -38 -7 -38 -6 0
-11 14 -11 31 0 24 -4 30 -17 27 -11 -2 -19 -14 -21 -31 -5 -38 -22 -34 -22 6
0 42 3 44 43 43 30 -1 32 -4 35 -38z m-3988 -183 c22 0 25 -5 28 -37 2 -22 -1
-38 -7 -38 -6 0 -11 14 -11 31 0 24 -4 30 -17 27 -11 -2 -19 -14 -21 -31 -6
-48 -22 -29 -22 26 0 57 12 84 20 45 4 -17 12 -23 30 -23z m870 -15 c0 -33 -4
-60 -10 -60 -6 0 -10 27 -10 60 0 33 4 60 10 60 6 0 10 -27 10 -60z m810 36
c0 -20 4 -23 21 -19 12 4 25 0 30 -8 12 -19 11 -69 -1 -69 -5 0 -10 14 -10 30
0 23 -4 30 -20 30 -16 0 -20 -7 -20 -30 0 -16 -4 -30 -10 -30 -6 0 -10 27 -10
60 0 33 4 60 10 60 6 0 10 -11 10 -24z m-120 4 c0 -5 -4 -10 -10 -10 -5 0 -10
5 -10 10 0 6 5 10 10 10 6 0 10 -4 10 -10z m840 0 c0 -5 -4 -10 -10 -10 -5 0
-10 5 -10 10 0 6 5 10 10 10 6 0 10 -4 10 -10z m410 -29 c0 -42 18 -65 44 -55
11 4 16 19 16 50 0 24 5 44 10 44 14 0 12 -84 -2 -98 -7 -7 -25 -12 -40 -12
-21 0 -31 6 -38 26 -13 33 -13 84 0 84 6 0 10 -17 10 -39z m820 29 c0 -5 -4
-10 -10 -10 -5 0 -10 5 -10 10 0 6 5 10 10 10 6 0 10 -4 10 -10z m130 0 c0 -5
-4 -10 -10 -10 -5 0 -10 5 -10 10 0 6 5 10 10 10 6 0 10 -4 10 -10z m-3832
-17 c12 -12 13 -18 4 -21 -16 -5 -16 -49 1 -56 6 -3 3 -5 -8 -3 -20 2 -38 57
-28 84 7 17 11 16 31 -4z m240 0 c12 -12 13 -18 4 -21 -16 -5 -16 -49 1 -56 6
-3 3 -5 -8 -3 -20 2 -38 57 -28 84 7 17 11 16 31 -4z m1680 0 c12 -12 13 -18
4 -21 -16 -5 -16 -49 1 -56 6 -3 3 -5 -8 -3 -20 2 -38 57 -28 84 7 17 11 16
31 -4z m500 0 c12 -12 13 -18 4 -21 -16 -5 -16 -34 1 -51 10 -10 8 -12 -8 -9
-20 3 -38 58 -28 85 7 17 11 16 31 -4z m-2230 -45 c3 -37 3 -38 -32 -38 -32 0
-36 3 -36 25 0 20 5 25 28 26 23 2 24 2 5 6 -33 6 -28 25 5 21 23 -3 27 -8 30
-40z m163 15 l11 -28 15 30 c24 45 27 15 4 -38 -14 -31 -26 -47 -38 -47 -15 0
-15 2 -4 9 12 8 13 16 3 49 -13 44 -14 52 -7 52 3 0 10 -12 16 -27z m127 18
c8 -5 12 -21 10 -37 -2 -24 -8 -30 -33 -32 -33 -4 -57 20 -48 46 12 31 44 41
71 23z m52 -32 c0 -44 34 -36 38 9 4 42 22 31 22 -14 0 -35 -1 -35 -37 -32
-36 3 -38 5 -41 42 -2 25 0 36 7 31 6 -3 11 -20 11 -36z m208 -1 c2 -22 -1
-38 -7 -38 -6 0 -11 14 -11 31 0 24 -4 30 -17 27 -11 -2 -19 -14 -21 -31 -5
-38 -22 -34 -22 6 0 42 3 44 43 43 30 -1 32 -4 35 -38z m88 34 c37 -25 15 -76
-31 -70 -25 2 -31 8 -33 32 -5 38 32 60 64 38z m204 -6 c6 -8 10 -25 8 -38 -4
-32 -62 -39 -78 -9 -23 44 38 85 70 47z m96 3 c16 -13 19 -69 4 -69 -5 0 -10
14 -10 30 0 23 -4 30 -20 30 -16 0 -20 -7 -20 -30 0 -16 -4 -30 -10 -30 -5 0
-10 17 -10 38 0 33 3 38 26 40 15 1 33 -3 40 -9z m114 -39 c0 -26 -5 -51 -12
-58 -15 -15 -58 -16 -58 -2 0 6 11 10 25 10 14 0 25 5 25 10 0 6 -10 10 -23
10 -27 0 -47 17 -47 40 0 26 21 40 57 37 32 -2 33 -3 33 -47z m88 38 c22 -22
13 -38 -20 -38 -33 0 -29 -14 7 -23 11 -3 4 -5 -15 -4 -31 2 -35 6 -38 31 -5
41 37 63 66 34z m82 1 c0 -5 -7 -9 -15 -9 -10 0 -15 -10 -15 -30 0 -16 -4 -30
-10 -30 -5 0 -10 17 -10 38 0 32 3 37 25 38 14 1 25 -2 25 -7z m94 -16 c14
-26 15 -26 16 -6 0 31 17 37 31 11 l12 -22 10 24 c14 35 21 3 8 -33 -13 -35
-27 -34 -36 1 l-7 27 -10 -27 c-13 -36 -24 -35 -37 3 -19 55 -11 67 13 22z
m126 -13 c0 -22 -4 -40 -10 -40 -11 0 -14 63 -3 73 11 12 13 8 13 -33z m80 30
c0 -5 -10 -10 -22 -11 l-23 0 23 -11 c34 -17 29 -48 -8 -48 -16 0 -30 4 -30 9
0 5 9 7 20 4 11 -3 20 0 20 6 0 6 -6 11 -14 11 -19 0 -29 17 -22 35 6 17 56
21 56 5z m310 -5 c7 -8 10 -25 6 -40 -11 -43 -86 -30 -86 15 0 37 55 55 80 25z
m155 6 c3 -5 -7 -11 -22 -13 -20 -2 -28 -9 -28 -23 0 -15 7 -20 28 -20 15 1
27 -3 27 -7 0 -13 -55 -9 -68 4 -27 27 -6 68 34 68 13 0 25 -4 29 -9z m89 -7
c19 -19 20 -25 3 -48 -19 -26 -71 -18 -75 12 -7 46 40 69 72 36z m104 -26 c2
-22 -1 -38 -7 -38 -6 0 -11 14 -11 30 0 23 -4 30 -20 30 -16 0 -20 -7 -20 -30
0 -16 -4 -30 -10 -30 -5 0 -10 18 -10 39 0 39 0 39 38 38 35 -2 37 -4 40 -39z
m102 2 c0 -22 -4 -40 -10 -40 -5 0 -10 18 -10 40 0 22 5 40 10 40 6 0 10 -18
10 -40z m86 29 c16 -13 19 -69 4 -69 -5 0 -10 14 -10 30 0 23 -4 30 -20 30
-16 0 -20 -7 -20 -30 0 -16 -4 -30 -10 -30 -5 0 -10 17 -10 38 0 33 3 38 26
40 15 1 33 -3 40 -9z m64 -54 c8 0 16 11 18 25 6 45 22 46 22 2 0 -41 -1 -42
-35 -42 -29 0 -36 4 -41 25 -3 14 -3 33 2 42 6 14 9 10 13 -17 4 -22 12 -35
21 -35z m128 53 c22 -22 13 -38 -20 -38 -33 0 -29 -14 7 -23 11 -3 4 -5 -15
-4 -31 2 -35 6 -38 31 -5 41 37 63 66 34z m316 -10 c15 -25 -3 -52 -38 -56
-14 -2 -26 -10 -26 -17 0 -8 -4 -17 -10 -20 -6 -4 -10 16 -10 53 l0 59 36 -1
c23 -1 41 -7 48 -18z m90 6 c19 -19 20 -25 3 -48 -19 -26 -71 -18 -75 12 -7
46 40 69 72 36z m104 -26 c2 -22 -1 -38 -7 -38 -6 0 -11 14 -11 30 0 23 -4 30
-20 30 -16 0 -20 -7 -20 -30 0 -16 -4 -30 -10 -30 -5 0 -10 18 -10 39 0 39 0
39 38 38 35 -2 37 -4 40 -39z m132 32 c0 -4 -9 -10 -19 -13 -12 -3 -21 -16
-24 -33 -3 -23 -4 -21 -5 11 -2 36 0 40 23 41 14 1 25 -2 25 -6z m78 -2 c23
-23 13 -38 -25 -38 -40 0 -36 -15 7 -23 22 -4 22 -4 -5 -6 -17 0 -36 4 -43 11
-26 26 -6 68 33 68 12 0 26 -5 33 -12z m92 2 c0 -5 -12 -10 -26 -10 -21 0 -25
-4 -22 -22 2 -17 9 -23 26 -22 12 0 22 -3 22 -8 0 -4 -13 -8 -30 -8 -23 0 -31
5 -36 25 -4 15 -1 32 6 40 14 17 60 21 60 5z m88 -2 c22 -22 13 -38 -20 -38
-33 0 -29 -14 7 -23 11 -3 4 -5 -15 -4 -31 2 -35 6 -38 31 -5 41 37 63 66 34z
m52 -34 c0 -19 -4 -34 -10 -34 -5 0 -10 18 -10 41 0 24 4 38 10 34 6 -3 10
-22 10 -41z m50 2 c1 -6 8 3 17 19 9 17 18 25 20 18 5 -14 -24 -73 -35 -73 -8
0 -32 58 -32 76 1 12 30 -27 30 -40z m80 4 c0 -22 -4 -40 -10 -40 -5 0 -10 18
-10 40 0 22 5 40 10 40 6 0 10 -18 10 -40z m98 -2 c2 -22 -1 -38 -7 -38 -6 0
-11 14 -11 30 0 23 -4 30 -20 30 -16 0 -20 -7 -20 -30 0 -16 -4 -30 -10 -30
-5 0 -10 18 -10 39 0 39 0 39 38 38 35 -2 37 -4 40 -39z m102 -8 c0 -25 -5
-51 -12 -58 -15 -15 -58 -16 -58 -2 0 6 11 10 24 10 14 0 28 5 31 10 4 6 -6
10 -24 10 -37 0 -57 29 -41 60 8 16 20 20 46 18 33 -2 34 -3 34 -48z m-3982
-172 c23 -3 27 -8 30 -40 2 -22 -1 -38 -7 -38 -6 0 -11 14 -11 31 0 41 -32 36
-41 -6 -4 -20 -7 -8 -6 35 0 36 2 55 4 43 3 -15 13 -23 31 -25z m1992 -3 c22
0 25 -5 28 -37 2 -22 -1 -38 -7 -38 -6 0 -11 14 -11 31 0 24 -4 30 -17 27 -11
-2 -19 -14 -21 -31 -6 -48 -22 -29 -22 26 0 57 12 84 20 45 4 -17 12 -23 30
-23z m750 -15 c0 -33 -4 -60 -10 -60 -6 0 -10 27 -10 60 0 33 4 60 10 60 6 0
10 -27 10 -60z m30 0 c0 -33 -4 -60 -10 -60 -11 0 -14 103 -3 113 12 12 13 8
13 -53z m-2290 40 c0 -5 -4 -10 -10 -10 -5 0 -10 5 -10 10 0 6 5 10 10 10 6 0
10 -4 10 -10z m290 6 c0 -3 -4 -8 -10 -11 -5 -3 -10 -1 -10 4 0 6 5 11 10 11
6 0 10 -2 10 -4z m250 -6 c0 -5 -4 -10 -10 -10 -5 0 -10 5 -10 10 0 6 5 10 10
10 6 0 10 -4 10 -10z m1680 0 c0 -5 -4 -10 -10 -10 -5 0 -10 5 -10 10 0 6 5
10 10 10 6 0 10 -4 10 -10z m-2772 -17 c12 -12 13 -18 4 -21 -16 -5 -16 -49 1
-56 6 -3 3 -5 -8 -3 -20 2 -38 57 -28 84 7 17 11 16 31 -4z m504 -21 c-18 -6
-15 -39 6 -51 15 -9 15 -10 -4 -11 -18 0 -23 7 -26 38 -7 52 0 66 20 45 12
-12 13 -18 4 -21z m540 0 c-18 -6 -15 -39 6 -51 15 -9 15 -10 -4 -11 -18 0
-23 7 -26 38 -7 52 0 66 20 45 12 -12 13 -18 4 -21z m760 0 c-18 -6 -15 -39 6
-51 15 -9 15 -10 -4 -11 -18 0 -23 7 -26 38 -7 52 0 66 20 45 12 -12 13 -18 4
-21z m400 0 c-18 -6 -15 -39 6 -51 15 -9 15 -10 -4 -11 -18 0 -23 7 -26 38 -7
52 0 66 20 45 12 -12 13 -18 4 -21z m-2018 12 c9 -3 16 -15 16 -25 0 -15 -7
-19 -32 -19 -36 0 -28 -15 12 -23 14 -3 7 -4 -15 -4 -34 2 -41 6 -43 25 -6 40
23 61 62 46z m162 -5 c16 -13 19 -69 4 -69 -5 0 -10 14 -10 30 0 23 -4 30 -20
30 -16 0 -20 -7 -20 -30 0 -16 -4 -30 -10 -30 -5 0 -10 17 -10 38 0 33 3 38
26 40 15 1 33 -3 40 -9z m108 -11 c17 -28 -4 -53 -45 -53 -28 0 -35 4 -37 23
-2 13 2 30 9 38 16 19 59 14 73 -8z m96 -18 c0 -22 -4 -40 -10 -40 -5 0 -10
18 -10 40 0 22 5 40 10 40 6 0 10 -18 10 -40z m90 30 c0 -5 -12 -10 -26 -10
-21 0 -25 -4 -22 -22 2 -17 9 -23 26 -22 12 0 22 -3 22 -8 0 -5 -15 -8 -32 -6
-26 2 -34 8 -36 26 -2 13 2 30 8 38 14 16 60 19 60 4z m88 -2 c21 -21 13 -38
-18 -38 -38 0 -39 -17 -2 -23 20 -4 18 -4 -8 -3 -29 1 -36 5 -38 24 -2 13 -1
30 2 38 7 17 47 19 64 2z m99 -50 c-2 -13 -4 -3 -4 22 0 25 2 35 4 23 2 -13 2
-33 0 -45z m101 20 c2 -22 -1 -38 -7 -38 -6 0 -11 14 -11 31 0 24 -4 30 -17
27 -11 -2 -19 -14 -21 -31 -5 -38 -22 -34 -22 6 0 42 3 44 43 43 30 -1 32 -4
35 -38z m162 2 c0 -22 -4 -40 -10 -40 -5 0 -10 18 -10 40 0 22 5 40 10 40 6 0
10 -18 10 -40z m138 -2 c2 -22 -1 -38 -7 -38 -6 0 -11 14 -11 30 0 20 -5 30
-15 30 -10 0 -15 -10 -15 -30 0 -16 -4 -30 -10 -30 -5 0 -10 14 -10 30 0 20
-5 30 -15 30 -10 0 -15 -10 -15 -30 0 -16 -4 -30 -10 -30 -5 0 -10 17 -10 39
l0 38 58 -1 57 -1 3 -37z m90 30 c21 -21 13 -38 -18 -38 -38 0 -39 -17 -2 -23
20 -4 18 -4 -8 -3 -29 1 -36 5 -38 24 -2 13 -1 30 2 38 7 17 47 19 64 2z m206
-4 c19 -19 20 -25 3 -48 -19 -26 -71 -18 -75 12 -7 46 40 69 72 36z m48 -16
c2 -21 8 -33 18 -33 10 0 16 12 18 33 5 46 22 40 22 -9 l0 -40 -37 3 c-36 3
-38 5 -41 41 -2 20 1 37 7 37 5 0 11 -15 13 -32z m128 21 c0 -5 -7 -9 -15 -9
-10 0 -15 -10 -15 -30 0 -16 -4 -30 -10 -30 -5 0 -10 17 -10 38 0 32 3 37 25
38 14 1 25 -2 25 -7z m194 5 c9 -3 16 -15 16 -25 0 -15 -7 -19 -32 -19 -33 0
-29 -14 7 -23 11 -3 4 -5 -15 -4 -28 2 -36 6 -38 25 -6 40 23 61 62 46z m101
-4 c3 -6 -5 -10 -19 -10 -14 0 -28 -5 -31 -10 -10 -16 16 -42 37 -37 10 3 18
1 18 -4 0 -17 -59 -10 -68 9 -10 19 -5 43 12 54 16 11 44 10 51 -2z m299 4 c9
-3 16 -15 16 -25 0 -15 -7 -19 -32 -19 -33 0 -29 -14 7 -23 11 -3 4 -5 -15 -4
-28 2 -36 6 -38 25 -6 40 23 61 62 46z m104 -36 c3 -37 2 -38 -31 -38 -54 0
-59 43 -7 53 24 4 24 4 -3 6 -17 0 -26 5 -22 12 4 5 19 9 33 7 23 -3 27 -8 30
-40z m140 0 c2 -22 -1 -38 -7 -38 -6 0 -11 14 -11 30 0 20 -5 30 -15 30 -10 0
-15 -10 -15 -30 0 -16 -4 -30 -10 -30 -5 0 -10 14 -10 30 0 20 -5 30 -15 30
-10 0 -15 -10 -15 -30 0 -16 -4 -30 -10 -30 -5 0 -10 17 -10 38 l0 39 58 -1
57 -1 3 -37z m102 14 c0 -13 5 -11 20 8 19 26 19 26 33 -20 3 -10 7 -5 12 13
4 15 11 27 17 27 5 0 7 -8 4 -17 -2 -10 -7 -28 -11 -41 -8 -28 -27 -24 -36 9
l-6 24 -8 -27 c-9 -35 -23 -36 -35 -2 -13 33 -13 57 0 49 6 -3 10 -14 10 -23z
m130 -12 c0 -22 -4 -40 -10 -40 -5 0 -10 18 -10 40 0 22 5 40 10 40 6 0 10
-18 10 -40z m214 34 c9 -3 16 -15 16 -25 0 -15 -7 -19 -32 -19 -36 0 -28 -15
12 -23 14 -3 7 -4 -15 -4 -34 2 -41 6 -43 25 -6 40 23 61 62 46z m102 -5 c16
-13 19 -69 4 -69 -5 0 -10 14 -10 30 0 23 -4 30 -20 30 -16 0 -20 -7 -20 -30
0 -16 -4 -30 -10 -30 -5 0 -10 17 -10 38 0 33 3 38 26 40 15 1 33 -3 40 -9z
m84 1 c0 -5 -10 -10 -22 -10 -21 -1 -21 -2 5 -16 16 -8 26 -21 24 -27 -4 -14
-67 -22 -67 -9 0 5 12 7 28 5 26 -4 26 -4 8 11 -10 8 -24 17 -29 19 -6 2 -8
11 -4 20 7 18 57 24 57 7z m42 -22 c2 -21 8 -33 18 -33 10 0 16 12 18 33 5 46
22 40 22 -9 l0 -40 -37 3 c-36 3 -38 5 -41 41 -2 20 1 37 7 37 5 0 11 -15 13
-32z m128 21 c0 -5 -7 -9 -15 -9 -10 0 -15 -10 -15 -30 0 -16 -4 -30 -10 -30
-5 0 -10 17 -10 38 0 32 3 37 25 38 14 1 25 -2 25 -7z m78 -1 c23 -23 13 -38
-25 -38 -40 0 -36 -15 7 -23 21 -4 20 -4 -7 -6 -38 -1 -55 22 -42 57 9 24 47
30 67 10z m113 -15 l11 -28 15 30 c24 45 27 15 4 -38 -14 -31 -26 -47 -38 -47
-15 0 -16 2 -3 10 13 8 13 15 -1 55 -17 48 -6 64 12 18z m127 18 c8 -5 12 -21
10 -37 -2 -24 -8 -30 -33 -32 -33 -4 -57 20 -48 46 12 31 44 41 71 23z m52
-32 c0 -44 34 -36 38 9 4 42 22 31 22 -14 0 -35 -1 -35 -37 -32 -36 3 -38 5
-41 42 -2 25 0 36 7 31 6 -3 11 -20 11 -36z m198 29 c7 -7 12 -25 12 -41 0
-27 -2 -28 -37 -25 -30 2 -38 7 -38 23 0 14 9 22 30 26 l30 7 -27 1 c-16 0
-28 6 -28 11 0 14 43 13 58 -2z m72 1 c0 -4 -6 -9 -14 -12 -8 -3 -16 -18 -19
-34 -3 -22 -4 -19 -6 12 -1 35 2 41 19 41 11 0 20 -3 20 -7z m90 -8 c15 -29
13 -31 -27 -31 -40 0 -36 -15 7 -23 22 -4 22 -4 -5 -6 -34 -1 -55 14 -55 39 0
40 61 55 80 21z m-2700 -58 c0 -5 -5 -15 -10 -23 -8 -12 -10 -11 -10 8 0 12 5
22 10 22 6 0 10 -3 10 -7z m-970 -126 c0 -18 5 -23 28 -22 24 0 27 -4 30 -37
2 -22 -1 -38 -7 -38 -6 0 -11 14 -11 31 0 24 -4 30 -17 27 -11 -2 -19 -14 -21
-31 -6 -51 -22 -27 -22 33 0 33 4 60 10 60 6 0 10 -10 10 -23z m520 -36 l0
-59 -42 2 c-41 1 -43 3 -46 33 -3 27 1 33 22 39 14 3 30 3 35 -1 7 -4 11 4 11
19 0 14 5 26 10 26 6 0 10 -26 10 -59z m120 49 c0 -5 -4 -10 -10 -10 -5 0 -9
-8 -8 -17 3 -40 -3 -83 -11 -83 -13 0 -20 71 -10 98 8 22 39 32 39 12z m310
-14 c0 -20 4 -23 21 -19 12 4 25 0 30 -8 12 -19 11 -69 -1 -69 -5 0 -10 14
-10 30 0 23 -4 30 -20 30 -16 0 -20 -7 -20 -30 0 -16 -4 -30 -10 -30 -6 0 -10
27 -10 60 0 33 4 60 10 60 6 0 10 -11 10 -24z m280 14 c0 -5 -4 -10 -10 -10
-5 0 -9 -8 -8 -17 3 -40 -3 -83 -11 -83 -13 0 -20 71 -10 98 8 22 39 32 39 12z
m120 -50 c0 -33 -4 -60 -10 -60 -11 0 -14 103 -3 113 12 12 13 8 13 -53z m40
0 c0 -33 -4 -60 -10 -60 -6 0 -10 27 -10 60 0 33 4 60 10 60 6 0 10 -27 10
-60z m978 18 c24 -3 27 -8 29 -43 1 -35 1 -36 -5 -10 -5 21 -13 30 -27 30 -14
0 -22 -9 -26 -30 -4 -20 -7 -8 -6 35 0 36 2 55 4 43 3 -15 13 -23 31 -25z
m222 33 c0 -5 -6 -12 -12 -14 -10 -4 -9 -8 2 -17 11 -9 12 -13 3 -17 -7 -2
-13 -18 -13 -34 0 -16 -4 -29 -9 -29 -13 0 -19 72 -8 98 10 21 37 31 37 13z
m750 0 c0 -5 -6 -12 -12 -14 -10 -4 -9 -8 2 -17 11 -9 12 -13 3 -17 -7 -2 -13
-18 -13 -34 0 -42 -17 -36 -22 9 -6 45 6 82 27 82 8 0 15 -4 15 -9z m-1690
-11 c0 -5 -4 -10 -10 -10 -5 0 -10 5 -10 10 0 6 5 10 10 10 6 0 10 -4 10 -10z
m880 -45 c0 -30 -4 -55 -10 -55 -5 0 -10 25 -10 55 0 30 5 55 10 55 6 0 10
-25 10 -55z m750 45 c0 -5 -4 -10 -10 -10 -5 0 -10 5 -10 10 0 6 5 10 10 10 6
0 10 -4 10 -10z m-3472 -17 c12 -12 13 -18 4 -21 -16 -5 -16 -49 1 -56 6 -3 3
-5 -8 -3 -20 2 -38 57 -28 84 7 17 11 16 31 -4z m1090 0 c12 -12 13 -18 4 -21
-18 -6 -15 -39 6 -51 15 -9 15 -10 -4 -11 -25 0 -34 17 -34 66 0 38 4 41 28
17z m1400 0 c12 -12 13 -18 4 -21 -16 -5 -16 -49 1 -56 6 -3 3 -5 -8 -3 -20 2
-38 57 -28 84 7 17 11 16 31 -4z m930 0 c12 -12 13 -18 4 -21 -16 -5 -16 -49
1 -56 6 -3 3 -5 -8 -3 -20 2 -38 57 -28 84 7 17 11 16 31 -4z m-3570 -45 c2
-22 -1 -38 -7 -38 -6 0 -11 14 -11 31 0 24 -4 30 -17 27 -11 -2 -19 -14 -21
-31 -5 -38 -22 -34 -22 6 0 42 3 44 43 43 30 -1 32 -4 35 -38z m90 33 c8 -5
12 -21 10 -37 -2 -24 -8 -30 -33 -32 -33 -4 -57 20 -48 46 12 31 44 41 71 23z
m217 -1 c3 -6 -5 -10 -19 -10 -46 0 -45 -46 2 -53 25 -4 25 -4 -4 -6 -42 -1
-61 21 -46 54 12 26 55 35 67 15z m183 -32 c3 -37 2 -38 -31 -38 -54 0 -59 43
-7 53 24 4 24 4 -3 6 -17 0 -26 5 -22 12 4 5 19 9 33 7 23 -3 27 -8 30 -40z
m72 31 c0 -5 -7 -9 -15 -9 -10 0 -15 -10 -15 -30 0 -16 -4 -30 -10 -30 -5 0
-10 17 -10 38 0 32 3 37 25 38 14 1 25 -2 25 -7z m90 -39 c0 -25 -5 -51 -12
-58 -15 -15 -58 -16 -58 -2 0 6 11 10 25 10 14 0 25 5 25 10 0 6 -11 10 -24
10 -35 0 -52 25 -38 56 10 20 18 24 47 22 35 -2 35 -3 35 -48z m84 44 c9 -3
16 -15 16 -25 0 -15 -7 -19 -32 -19 -36 0 -28 -15 12 -23 14 -3 7 -4 -15 -4
-34 2 -41 6 -43 25 -6 40 23 61 62 46z m326 -9 c7 -8 10 -25 6 -40 -11 -43
-86 -30 -86 15 0 37 55 55 80 25z m80 4 c0 -5 -7 -9 -15 -9 -8 0 -19 -15 -24
-32 l-9 -33 -1 40 c-1 36 2 40 24 41 14 1 25 -2 25 -7z m298 -1 c23 -23 13
-38 -25 -38 -40 0 -36 -15 7 -23 22 -4 22 -4 -5 -6 -17 0 -36 4 -43 11 -26 26
-6 68 33 68 12 0 26 -5 33 -12z m216 -10 c14 -23 -3 -52 -33 -56 -42 -6 -67
38 -39 66 17 17 58 11 72 -10z m162 14 c37 -25 15 -76 -31 -70 -25 2 -31 8
-33 32 -5 38 32 60 64 38z m48 -19 c14 -26 15 -26 16 -6 0 30 20 40 27 14 7
-27 19 -27 28 2 5 17 8 18 11 6 6 -19 -12 -69 -25 -69 -5 0 -12 12 -16 28 l-7
27 -10 -27 c-13 -36 -24 -35 -37 3 -19 55 -11 67 13 22z m126 -13 c0 -22 -4
-40 -10 -40 -5 0 -10 18 -10 40 0 22 5 40 10 40 6 0 10 -18 10 -40z m98 -2 c2
-22 -1 -38 -7 -38 -6 0 -11 14 -11 30 0 23 -4 30 -20 30 -16 0 -20 -7 -20 -30
0 -16 -4 -30 -10 -30 -5 0 -10 18 -10 39 0 39 0 39 38 38 35 -2 37 -4 40 -39z
m102 -8 c0 -25 -5 -51 -12 -58 -15 -15 -58 -16 -58 -2 0 6 11 10 24 10 14 0
28 5 31 10 4 6 -6 10 -24 10 -37 0 -57 29 -41 60 8 16 20 20 46 18 33 -2 34
-3 34 -48z m198 8 c2 -22 -1 -38 -7 -38 -6 0 -11 14 -11 30 0 20 -5 30 -15 30
-10 0 -15 -10 -15 -30 0 -16 -4 -30 -10 -30 -5 0 -10 14 -10 30 0 20 -5 30
-15 30 -10 0 -15 -10 -15 -30 0 -16 -4 -30 -10 -30 -5 0 -10 17 -10 39 l0 38
58 -1 57 -1 3 -37z m90 33 c8 -5 12 -21 10 -37 -2 -24 -8 -30 -33 -32 -33 -4
-57 20 -48 46 12 31 44 41 71 23z m110 -33 c2 -22 -1 -38 -7 -38 -6 0 -11 14
-11 30 0 23 -4 30 -20 30 -16 0 -20 -7 -20 -30 0 -16 -4 -30 -10 -30 -5 0 -10
18 -10 39 0 39 0 39 38 38 35 -2 37 -4 40 -39z m441 15 l13 -28 16 30 c23 45
26 15 3 -38 -14 -31 -26 -47 -38 -47 -15 0 -16 2 -3 10 13 8 13 15 -2 55 -18
49 -9 63 11 18z m131 13 c6 -8 10 -25 8 -38 -4 -32 -62 -39 -78 -9 -23 44 38
85 70 47z m50 -27 c0 -44 34 -36 38 9 4 42 22 31 22 -14 0 -35 -1 -35 -37 -32
-36 3 -38 5 -41 42 -2 25 0 36 7 31 6 -3 11 -20 11 -36z m208 -1 c2 -22 -1
-38 -7 -38 -6 0 -11 14 -11 31 0 24 -4 30 -17 27 -11 -2 -19 -14 -21 -31 -5
-38 -22 -34 -22 6 0 42 3 44 43 43 30 -1 32 -4 35 -38z m90 33 c8 -5 12 -21
10 -37 -2 -24 -8 -30 -33 -32 -33 -4 -57 20 -48 46 12 31 44 41 71 23z m112
-37 c0 -19 -4 -34 -10 -34 -5 0 -10 18 -10 41 0 24 4 38 10 34 6 -3 10 -22 10
-41z m94 19 l14 -28 12 30 c7 17 14 25 17 18 7 -20 -34 -103 -52 -103 -15 0
-15 1 -1 16 14 14 14 18 1 44 -15 29 -19 50 -10 50 2 0 11 -12 19 -27z m146
-14 c0 -44 34 -36 38 9 4 42 22 31 22 -14 0 -35 -1 -35 -37 -32 -36 3 -38 5
-41 42 -2 25 0 36 7 31 6 -3 11 -20 11 -36z m130 31 c0 -5 -10 -10 -22 -10
-21 -1 -21 -2 5 -16 16 -8 26 -21 24 -27 -4 -14 -67 -22 -67 -9 0 5 11 7 25 4
15 -2 25 0 25 7 0 6 -6 11 -14 11 -18 0 -39 27 -31 40 8 13 55 13 55 0z
m-3785 -186 c-17 -13 -18 -16 -5 -25 11 -8 12 -12 3 -16 -7 -2 -13 -18 -13
-34 0 -42 -17 -36 -23 9 -5 42 14 82 41 82 15 -1 15 -2 -3 -16z m755 -4 c0
-13 7 -20 18 -20 10 0 23 -5 30 -12 14 -14 16 -68 2 -68 -5 0 -10 14 -10 30 0
23 -4 30 -20 30 -16 0 -20 -7 -20 -30 0 -16 -4 -30 -10 -30 -6 0 -10 27 -10
60 0 33 4 60 10 60 6 0 10 -9 10 -20z m830 -40 c0 -33 -4 -60 -10 -60 -6 0
-10 27 -10 60 0 33 4 60 10 60 6 0 10 -27 10 -60z m205 44 c-17 -13 -18 -16
-5 -25 11 -8 12 -12 3 -16 -7 -2 -13 -18 -13 -34 0 -16 -4 -29 -10 -29 -13 0
-13 76 0 101 6 10 18 19 28 19 15 -1 15 -3 -3 -16z m375 -7 c0 -18 5 -23 28
-22 24 0 27 -4 30 -37 2 -22 -1 -38 -7 -38 -6 0 -11 14 -11 30 0 23 -4 30 -20
30 -16 0 -20 -7 -20 -30 0 -16 -4 -30 -10 -30 -6 0 -10 27 -10 60 0 33 4 60
10 60 6 0 10 -10 10 -23z m460 0 c0 -18 5 -23 28 -22 24 0 27 -4 30 -37 2 -22
-1 -38 -7 -38 -6 0 -11 14 -11 30 0 23 -4 30 -20 30 -16 0 -20 -7 -20 -30 0
-16 -4 -30 -10 -30 -6 0 -10 27 -10 60 0 33 4 60 10 60 6 0 10 -10 10 -23z
m220 -37 l0 -60 -35 0 c-40 0 -57 23 -44 58 6 16 16 22 39 22 23 0 30 4 30 20
0 11 2 20 5 20 3 0 5 -27 5 -60z m400 50 c0 -5 -4 -10 -10 -10 -5 0 -9 -8 -8
-17 3 -40 -3 -83 -11 -83 -13 0 -20 71 -10 98 8 22 39 32 39 12z m-2610 -10
c0 -5 -4 -10 -10 -10 -5 0 -10 5 -10 10 0 6 5 10 10 10 6 0 10 -4 10 -10z
m1800 -45 c0 -30 -4 -55 -10 -55 -5 0 -10 21 -10 46 0 27 -4 43 -10 39 -5 -3
-10 -2 -10 4 0 9 15 18 33 20 4 1 7 -24 7 -54z m68 48 c-33 -5 -37 -30 -7 -35
31 -4 46 -32 30 -52 -14 -17 -71 -22 -71 -7 0 4 11 6 25 3 17 -3 27 1 31 13 8
20 -14 37 -38 29 -15 -4 -18 1 -18 25 0 29 2 31 38 30 30 -2 32 -3 10 -6z
m-1585 -16 c3 -7 3 -26 0 -41 -4 -18 -1 -31 8 -37 11 -7 9 -9 -7 -9 -18 0 -23
7 -26 38 -5 39 -1 62 12 62 4 0 10 -6 13 -13z m919 -25 c-18 -6 -15 -39 6 -51
15 -9 15 -10 -4 -11 -18 0 -23 7 -26 38 -7 52 0 66 20 45 12 -12 13 -18 4 -21z
m280 0 c-18 -6 -15 -39 6 -51 15 -9 15 -10 -4 -11 -18 0 -23 7 -26 38 -7 52 0
66 20 45 12 -12 13 -18 4 -21z m461 25 c3 -7 3 -26 0 -41 -4 -18 -1 -31 8 -37
11 -7 9 -9 -7 -9 -18 0 -23 7 -26 38 -5 39 -1 62 12 62 4 0 10 -6 13 -13z
m-2629 -29 c14 -23 -3 -52 -33 -56 -42 -6 -67 38 -39 66 17 17 58 11 72 -10z
m158 -9 l11 -31 15 33 c8 19 16 29 19 22 8 -22 -34 -103 -54 -103 -15 0 -15 2
-4 9 12 8 13 16 3 49 -13 44 -14 52 -6 52 3 0 10 -14 16 -31z m126 22 c8 -5
12 -21 10 -37 -2 -24 -8 -30 -33 -32 -33 -4 -57 20 -48 46 12 31 44 41 71 23z
m52 -27 c0 -28 3 -35 18 -32 11 2 18 14 20 36 4 42 22 31 22 -14 0 -35 -1 -35
-37 -32 -36 3 -38 5 -41 41 -2 21 1 37 7 37 6 0 11 -16 11 -36z m130 26 c0 -4
-9 -10 -19 -13 -12 -3 -21 -16 -24 -33 -3 -23 -4 -21 -5 11 -2 36 0 40 23 41
14 1 25 -2 25 -6z m90 -16 c0 -8 5 -14 10 -14 6 0 10 6 10 14 0 24 21 30 27 7
7 -27 19 -27 26 1 4 12 9 19 13 16 8 -9 -15 -78 -26 -78 -5 0 -12 12 -17 27
l-10 28 -6 -28 c-10 -36 -23 -34 -36 4 -14 40 -14 52 -1 44 6 -3 10 -13 10
-21z m130 -14 c0 -22 -4 -40 -10 -40 -5 0 -10 18 -10 40 0 22 5 40 10 40 6 0
10 -18 10 -40z m75 31 c3 -5 -5 -12 -17 -14 l-23 -4 23 -8 c12 -4 22 -16 22
-26 0 -14 -7 -19 -30 -19 -16 0 -30 4 -30 9 0 5 9 7 20 4 11 -3 20 0 20 6 0 6
-6 11 -14 11 -19 0 -29 17 -22 35 6 17 42 20 51 6z m319 -13 c14 -23 -3 -52
-33 -56 -42 -6 -67 38 -39 66 17 17 58 11 72 -10z m146 12 c0 -5 -12 -10 -26
-10 -20 0 -25 -4 -22 -22 2 -14 13 -25 28 -29 l25 -7 -25 -1 c-29 -1 -50 15
-50 39 0 9 5 21 12 28 15 15 58 16 58 2z m88 -32 c3 -38 3 -38 -33 -38 -32 0
-36 3 -33 22 2 14 13 25 28 29 24 7 24 7 3 8 -13 1 -23 6 -23 12 0 6 12 9 28
7 23 -3 27 -8 30 -40z m100 0 c2 -22 -1 -38 -7 -38 -6 0 -11 14 -11 30 0 23
-4 30 -20 30 -16 0 -20 -7 -20 -30 0 -16 -4 -30 -10 -30 -5 0 -10 18 -10 39 0
39 0 39 38 38 35 -2 37 -4 40 -39z m87 32 c3 -6 -5 -10 -19 -10 -14 0 -28 -5
-31 -10 -10 -16 16 -42 37 -37 10 3 18 1 18 -4 0 -17 -59 -10 -68 9 -10 19 -5
43 12 54 16 11 44 10 51 -2z m95 -9 c15 -29 13 -31 -27 -31 -40 0 -36 -15 7
-23 22 -4 22 -4 -5 -6 -34 -1 -55 14 -55 39 0 40 61 55 80 21z m188 -23 c3
-37 3 -38 -32 -38 -32 0 -36 3 -36 25 0 20 5 25 28 26 23 2 24 2 5 6 -33 6
-28 25 5 21 23 -3 27 -8 30 -40z m196 36 c9 -3 16 -15 16 -25 0 -15 -7 -19
-32 -19 -33 0 -29 -14 7 -23 11 -3 4 -5 -15 -4 -31 2 -35 6 -38 31 -5 38 22
55 62 40z m86 -5 c0 -5 -7 -9 -15 -9 -10 0 -15 -10 -15 -30 0 -16 -4 -30 -10
-30 -5 0 -10 17 -10 38 0 32 3 37 25 38 14 1 25 -2 25 -7z m298 -1 c23 -23 13
-38 -24 -38 -23 0 -33 -4 -28 -11 3 -6 17 -9 30 -6 13 2 24 0 24 -4 0 -15 -57
-10 -70 6 -31 38 33 88 68 53z m620 -31 c3 -38 3 -38 -30 -35 -41 4 -47 38 -8
49 24 7 24 7 3 8 -13 1 -23 6 -23 12 0 6 12 9 28 7 23 -3 27 -8 30 -41z m44
12 l11 -31 15 33 c8 19 16 29 18 23 8 -21 -34 -104 -53 -104 -15 0 -15 2 -4 9
12 8 13 16 3 49 -13 44 -14 52 -6 52 3 0 10 -14 16 -31z m196 22 c8 -5 12 -21
10 -37 -2 -24 -8 -30 -33 -32 -33 -4 -57 20 -48 46 12 31 44 41 71 23z m172
-27 c0 -24 17 -15 24 11 4 14 11 25 17 25 6 0 9 -6 6 -12 -36 -91 -40 -98 -60
-98 -20 0 -20 1 -3 13 17 12 17 16 2 51 -20 47 -20 52 -1 36 8 -7 15 -19 15
-26z m134 14 c14 -23 -3 -52 -33 -56 -42 -6 -67 38 -39 66 17 17 58 11 72 -10z
m56 -43 c8 0 16 11 18 25 6 45 22 46 22 2 0 -41 -1 -42 -35 -42 -29 0 -36 4
-41 25 -3 14 -3 33 2 42 6 14 9 10 13 -17 4 -22 12 -35 21 -35z m110 55 c0 -4
-7 -10 -15 -14 -8 -3 -15 -17 -15 -31 0 -14 -4 -25 -10 -25 -5 0 -10 17 -10
39 0 34 3 39 25 39 14 0 25 -4 25 -8z m-3400 -193 c0 -18 5 -23 28 -22 24 0
27 -4 30 -37 2 -22 -1 -38 -7 -38 -6 0 -11 14 -11 31 0 24 -4 30 -17 27 -11
-2 -19 -14 -21 -31 -6 -51 -22 -27 -22 33 0 33 4 60 10 60 6 0 10 -10 10 -23z
m100 -37 c0 -33 -4 -60 -10 -60 -6 0 -10 27 -10 60 0 33 4 60 10 60 6 0 10
-27 10 -60z m371 16 c6 3 21 3 35 0 21 -6 25 -12 22 -39 -3 -30 -5 -32 -45
-33 l-43 -2 0 52 c0 56 13 85 18 42 2 -15 8 -24 13 -20z m1366 -48 c-2 -18 -4
-4 -4 32 0 36 2 50 4 33 2 -18 2 -48 0 -65z m43 32 c0 -33 -4 -60 -10 -60 -6
0 -10 27 -10 60 0 33 4 60 10 60 6 0 10 -27 10 -60z m100 37 c0 -18 5 -23 26
-22 15 0 32 -8 38 -17 17 -27 -4 -52 -48 -56 l-36 -3 0 60 c0 34 4 61 10 61 6
0 10 -10 10 -23z m350 3 c0 -13 7 -20 18 -20 10 0 23 -5 30 -12 14 -14 16 -68
2 -68 -5 0 -10 14 -10 30 0 23 -4 30 -20 30 -16 0 -20 -7 -20 -30 0 -16 -4
-30 -10 -30 -6 0 -10 27 -10 60 0 33 4 60 10 60 6 0 10 -9 10 -20z m510 -41
l0 -60 -36 3 c-44 4 -65 29 -48 56 6 9 23 17 38 17 21 -1 26 4 26 22 0 13 5
23 10 23 6 0 10 -27 10 -61z m115 45 c-17 -13 -18 -16 -5 -25 11 -8 12 -12 3
-16 -7 -2 -13 -18 -13 -34 0 -42 -17 -36 -23 9 -5 42 14 82 41 82 15 -1 15 -2
-3 -16z m345 -29 c22 0 25 -5 28 -37 2 -22 -1 -38 -7 -38 -6 0 -11 14 -11 31
0 24 -4 30 -17 27 -11 -2 -19 -14 -21 -31 -6 -48 -22 -29 -22 26 0 57 12 84
20 45 4 -17 12 -23 30 -23z m-2510 25 c0 -5 -2 -10 -4 -10 -3 0 -8 5 -11 10
-3 6 -1 10 4 10 6 0 11 -4 11 -10z m200 0 c0 -5 -2 -10 -4 -10 -3 0 -8 5 -11
10 -3 6 -1 10 4 10 6 0 11 -4 11 -10z m820 6 c0 -3 -4 -8 -10 -11 -5 -3 -10
-1 -10 4 0 6 5 11 10 11 6 0 10 -2 10 -4z m-1857 -19 c3 -7 3 -26 0 -41 -4
-18 -1 -32 8 -38 11 -7 9 -8 -6 -6 -29 5 -44 98 -15 98 4 0 10 -6 13 -13z
m990 0 c3 -7 3 -26 0 -41 -4 -18 -1 -31 8 -37 11 -7 9 -9 -7 -9 -18 0 -23 7
-26 38 -5 39 -1 62 12 62 4 0 10 -6 13 -13z m2280 0 c3 -7 3 -26 0 -41 -4 -18
-1 -32 8 -38 11 -7 9 -8 -6 -6 -29 5 -44 98 -15 98 4 0 10 -6 13 -13z m-3515
-49 c2 -22 -1 -38 -7 -38 -6 0 -11 14 -11 30 0 20 -5 30 -15 30 -10 0 -15 -10
-15 -30 0 -16 -4 -30 -10 -30 -5 0 -10 14 -10 30 0 20 -5 30 -15 30 -10 0 -15
-10 -15 -30 0 -16 -4 -30 -10 -30 -5 0 -10 17 -10 38 l0 38 58 -1 57 0 3 -37z
m92 28 c6 -8 10 -25 8 -38 -2 -17 -10 -24 -34 -26 -41 -4 -61 19 -46 53 13 28
52 34 72 11z m96 3 c16 -13 19 -69 4 -69 -5 0 -10 14 -10 30 0 23 -4 30 -20
30 -16 0 -20 -7 -20 -30 0 -16 -4 -30 -10 -30 -5 0 -10 17 -10 38 0 33 3 38
26 40 15 1 33 -3 40 -9z m248 -16 l14 -28 11 28 c6 15 15 27 21 27 6 0 3 -18
-7 -42 -20 -53 -31 -68 -50 -68 -12 0 -12 3 1 16 14 14 14 18 1 44 -15 29 -19
50 -10 50 2 0 11 -12 19 -27z m181 18 c3 -5 -5 -12 -17 -14 l-23 -4 23 -8 c12
-4 22 -16 22 -26 0 -14 -7 -19 -30 -19 -16 0 -30 4 -30 9 0 5 9 7 20 4 11 -3
20 0 20 6 0 6 -6 11 -14 11 -19 0 -29 17 -22 35 6 17 42 20 51 6z m45 -32 c0
-44 34 -36 38 9 4 42 22 31 22 -14 0 -35 -1 -35 -37 -32 -36 3 -38 5 -41 42
-2 25 0 36 7 31 6 -3 11 -20 11 -36z m235 31 c4 -6 -6 -10 -22 -10 l-28 -1 28
-15 c35 -19 30 -38 -9 -41 -20 -1 -22 0 -6 4 23 5 31 23 9 23 -19 0 -36 20
-30 36 6 16 49 19 58 4z m85 0 c0 -5 -12 -10 -26 -10 -21 0 -25 -4 -22 -22 2
-17 9 -23 26 -22 12 0 22 -3 22 -8 0 -4 -13 -8 -30 -8 -23 0 -31 5 -36 25 -4
15 -1 32 6 40 14 17 60 21 60 5z m70 -1 c0 -5 -7 -9 -15 -9 -10 0 -15 -10 -15
-30 0 -16 -4 -30 -10 -30 -5 0 -10 17 -10 38 0 32 3 37 25 38 14 1 25 -2 25
-7z m30 -29 c0 -22 -4 -40 -10 -40 -11 0 -14 63 -3 73 11 12 13 8 13 -33z m88
34 c19 -4 23 -10 20 -37 -3 -28 -7 -32 -35 -35 -25 -3 -33 -8 -33 -23 0 -11
-4 -17 -10 -14 -10 6 -14 97 -5 107 7 7 35 8 63 2z m112 -34 c0 -22 -4 -40
-10 -40 -11 0 -14 63 -3 73 11 12 13 8 13 -33z m104 18 c14 -23 -3 -52 -33
-56 -42 -6 -67 38 -39 66 17 17 58 11 72 -10z m94 -20 c2 -22 -1 -38 -7 -38
-6 0 -11 14 -11 31 0 24 -4 30 -17 27 -11 -2 -19 -14 -21 -31 -5 -38 -22 -34
-22 6 0 42 3 44 43 43 30 -1 32 -4 35 -38z m153 15 l11 -28 15 30 c24 45 27
15 4 -38 -14 -31 -26 -47 -38 -47 -15 0 -15 2 -4 9 12 8 13 16 3 49 -13 44
-14 52 -7 52 3 0 10 -12 16 -27z m127 18 c8 -5 12 -21 10 -37 -2 -24 -8 -30
-33 -32 -33 -4 -57 20 -48 46 12 31 44 41 71 23z m52 -32 c0 -44 34 -36 38 9
4 42 22 31 22 -14 0 -35 -1 -35 -37 -32 -36 3 -38 5 -41 42 -2 25 0 36 7 31 6
-3 11 -20 11 -36z m175 14 c9 35 23 35 32 0 l6 -28 10 28 c5 15 13 27 19 27 6
0 7 -7 4 -16 -3 -9 -9 -27 -12 -40 -8 -30 -22 -31 -34 -1 l-9 22 -7 -22 c-6
-22 -34 -33 -34 -14 0 5 -2 24 -5 42 l-5 34 14 -30 14 -30 7 28z m115 -19 c0
-19 -4 -34 -10 -34 -5 0 -10 18 -10 41 0 24 4 38 10 34 6 -3 10 -22 10 -41z
m330 27 c15 -29 13 -31 -27 -31 -40 0 -36 -15 7 -23 22 -4 22 -4 -5 -6 -34 -1
-55 14 -55 39 0 40 61 55 80 21z m150 9 c0 -5 -12 -10 -26 -10 -21 0 -25 -4
-22 -22 2 -17 9 -23 26 -22 12 0 22 -3 22 -8 0 -5 -15 -8 -32 -6 -26 2 -34 8
-36 26 -2 13 2 30 8 38 14 16 60 19 60 4z m178 -2 c7 -7 12 -25 12 -41 0 -27
-2 -28 -37 -25 -30 2 -38 7 -38 23 0 14 9 22 30 26 l30 7 -27 1 c-16 0 -28 6
-28 11 0 14 43 13 58 -2z m72 1 c0 -4 -7 -9 -15 -13 -8 -3 -15 -17 -15 -31 0
-14 -4 -25 -10 -25 -10 0 -15 62 -5 71 7 7 45 5 45 -2z m100 -35 c0 -25 -6
-49 -16 -58 -17 -18 -50 -21 -59 -6 -3 6 5 10 19 10 38 0 41 18 4 22 -26 2
-34 8 -36 26 -5 33 15 52 54 50 33 -1 34 -2 34 -44z m88 34 c23 -23 13 -38
-24 -38 -23 0 -33 -4 -28 -11 3 -6 17 -9 30 -6 13 2 24 0 24 -4 0 -19 -59 -9
-70 11 -22 42 34 82 68 48z m316 -4 c19 -19 20 -25 3 -48 -19 -26 -71 -18 -75
12 -7 46 40 69 72 36z m76 6 c0 -4 -7 -10 -15 -14 -8 -3 -15 -17 -15 -31 0
-14 -4 -25 -10 -25 -5 0 -10 17 -10 39 0 34 3 39 25 39 14 0 25 -4 25 -8z
m294 4 c9 -3 16 -15 16 -25 0 -15 -7 -19 -32 -19 -33 0 -29 -14 7 -23 11 -3 4
-5 -15 -4 -28 2 -36 6 -38 25 -6 40 23 61 62 46z m-2184 -85 c-7 -11 -14 -18
-17 -15 -8 8 5 36 17 36 7 0 7 -6 0 -21z m-1660 -98 c0 -5 -6 -12 -12 -14 -10
-4 -9 -8 2 -17 11 -9 12 -13 3 -17 -7 -2 -13 -18 -13 -34 0 -42 -17 -36 -22 9
-6 45 6 82 27 82 8 0 15 -4 15 -9z m130 -51 c0 -33 -4 -60 -10 -60 -6 0 -10
27 -10 60 0 33 4 60 10 60 6 0 10 -27 10 -60z m30 0 c0 -33 -4 -60 -10 -60
-11 0 -14 103 -3 113 12 12 13 8 13 -53z m960 40 c0 -13 7 -20 18 -20 10 0 23
-5 30 -12 14 -14 16 -68 2 -68 -5 0 -10 14 -10 30 0 23 -4 30 -20 30 -16 0
-20 -7 -20 -30 0 -16 -4 -30 -10 -30 -6 0 -10 27 -10 60 0 33 4 60 10 60 6 0
10 -9 10 -20z m150 -6 c0 -15 4 -23 11 -19 5 4 21 4 35 1 21 -6 25 -12 22 -39
-3 -30 -6 -32 -45 -35 l-43 -3 0 60 c0 34 4 61 10 61 6 0 10 -12 10 -26z m380
3 c0 -18 5 -23 28 -22 24 0 27 -4 30 -37 2 -22 -1 -38 -7 -38 -6 0 -11 14 -11
30 0 23 -4 30 -20 30 -16 0 -20 -7 -20 -30 0 -16 -4 -30 -10 -30 -6 0 -10 27
-10 60 0 33 4 60 10 60 6 0 10 -10 10 -23z m710 -37 c0 -33 -4 -60 -10 -60 -6
0 -10 27 -10 60 0 33 4 60 10 60 6 0 10 -27 10 -60z m40 0 c0 -33 -4 -60 -10
-60 -6 0 -10 27 -10 60 0 33 4 60 10 60 6 0 10 -27 10 -60z m650 0 c0 -33 -4
-60 -10 -60 -6 0 -10 27 -10 60 0 33 4 60 10 60 6 0 10 -27 10 -60z m40 0 c0
-33 -4 -60 -10 -60 -6 0 -10 27 -10 60 0 33 4 60 10 60 6 0 10 -27 10 -60z
m-2670 40 c0 -5 -2 -10 -4 -10 -3 0 -8 5 -11 10 -3 6 -1 10 4 10 6 0 11 -4 11
-10z m2160 0 c0 -5 -4 -10 -10 -10 -5 0 -10 5 -10 10 0 6 5 10 10 10 6 0 10
-4 10 -10z m430 0 c0 -5 -4 -10 -10 -10 -5 0 -10 5 -10 10 0 6 5 10 10 10 6 0
10 -4 10 -10z m660 6 c0 -3 -4 -8 -10 -11 -5 -3 -10 -1 -10 4 0 6 5 11 10 11
6 0 10 -2 10 -4z m-2602 -23 c12 -12 13 -18 4 -21 -18 -6 -15 -39 6 -52 15 -9
14 -10 -8 -8 -19 2 -26 11 -31 37 -7 32 -3 61 8 61 2 0 12 -8 21 -17z m415 4
c3 -7 3 -26 0 -41 -4 -18 -1 -31 8 -37 11 -7 9 -9 -7 -9 -18 0 -23 7 -26 38
-5 39 -1 62 12 62 4 0 10 -6 13 -13z m119 -25 c-18 -6 -15 -39 6 -51 15 -9 15
-10 -4 -11 -18 0 -23 7 -26 38 -7 52 0 66 20 45 12 -12 13 -18 4 -21z m931 25
c3 -7 3 -26 0 -41 -4 -18 -1 -31 8 -37 11 -7 9 -9 -7 -9 -18 0 -23 7 -26 38
-5 39 -1 62 12 62 4 0 10 -6 13 -13z m1280 0 c3 -7 3 -26 0 -41 -4 -18 -1 -31
8 -37 11 -7 9 -9 -7 -9 -18 0 -23 7 -26 38 -5 39 -1 62 12 62 4 0 10 -6 13
-13z m-3733 -21 c6 -8 10 -25 8 -38 -2 -17 -10 -24 -34 -26 -41 -4 -61 19 -46
53 13 28 52 34 72 11z m184 -8 c17 -28 -4 -53 -45 -53 -28 0 -35 4 -37 23 -2
13 2 30 9 38 16 19 59 14 73 -8z m33 -5 l10 -28 6 28 c9 35 23 35 32 0 l7 -28
10 28 c5 15 14 27 18 27 12 0 -14 -73 -27 -77 -6 -2 -14 6 -17 19 l-7 23 -9
-22 c-12 -30 -26 -29 -34 1 -3 13 -9 31 -12 40 -3 9 -2 16 4 16 6 0 14 -12 19
-27z m123 -13 c0 -22 -4 -40 -10 -40 -11 0 -14 63 -3 73 11 12 13 8 13 -33z
m98 -2 c2 -22 -1 -38 -7 -38 -6 0 -11 14 -11 31 0 24 -4 30 -17 27 -11 -2 -19
-14 -21 -31 -5 -38 -22 -34 -22 6 0 42 3 44 43 43 30 -1 32 -4 35 -38z m110
-5 c2 -27 -2 -46 -13 -57 -18 -18 -51 -21 -60 -6 -3 6 5 10 19 10 38 0 41 18
4 22 -26 2 -34 8 -36 26 -5 34 16 53 52 49 28 -3 31 -7 34 -44z m194 34 c11
-18 10 -67 -2 -67 -5 0 -10 14 -10 31 0 41 -32 36 -41 -6 l-7 -30 -1 33 c-1
26 -5 33 -18 30 -11 -2 -19 -14 -21 -31 -5 -38 -22 -34 -22 6 0 19 2 36 5 38
10 11 110 7 117 -4z m92 -3 c32 -32 8 -68 -41 -62 -20 2 -29 9 -31 26 -7 46
40 69 72 36z m104 -26 c2 -22 -1 -38 -7 -38 -6 0 -11 14 -11 31 0 24 -4 30
-17 27 -11 -2 -19 -14 -21 -31 -5 -38 -22 -34 -22 6 0 42 3 44 43 43 30 -1 32
-4 35 -38z m372 -23 c8 0 16 11 18 25 6 45 22 46 22 2 0 -41 -1 -42 -35 -42
-29 0 -36 4 -41 25 -3 14 -3 33 2 42 6 14 9 10 13 -17 4 -22 12 -35 21 -35z
m408 53 c23 -23 13 -38 -24 -38 -23 0 -33 -4 -28 -11 3 -6 17 -9 30 -6 13 2
24 0 24 -4 0 -15 -57 -10 -70 6 -31 38 33 88 68 53z m152 2 c0 -5 -12 -10 -26
-10 -21 0 -25 -4 -22 -22 2 -17 9 -23 26 -22 12 0 22 -3 22 -8 0 -12 -44 -10
-58 4 -27 27 -6 68 35 68 13 0 23 -4 23 -10z m88 -32 c3 -38 3 -38 -33 -38
-32 0 -36 3 -33 22 2 14 13 25 28 29 24 7 24 7 3 8 -13 1 -23 6 -23 12 0 6 12
9 28 7 23 -3 27 -8 30 -40z m100 0 c2 -22 -1 -38 -7 -38 -6 0 -11 14 -11 30 0
23 -4 30 -20 30 -16 0 -20 -7 -20 -30 0 -16 -4 -30 -10 -30 -5 0 -10 18 -10
39 0 39 0 39 38 38 35 -2 37 -4 40 -39z m87 32 c3 -6 -5 -10 -19 -10 -46 0
-45 -46 2 -53 24 -4 24 -4 -5 -6 -39 -1 -60 27 -43 59 11 21 54 28 65 10z m95
-9 c15 -29 13 -31 -27 -31 -40 0 -36 -15 7 -23 22 -4 22 -4 -5 -6 -34 -1 -55
14 -55 39 0 40 61 55 80 21z m158 7 c7 -7 12 -25 12 -41 0 -27 -2 -28 -37 -25
-30 2 -38 7 -38 23 0 14 9 22 30 26 l30 7 -27 1 c-16 0 -28 6 -28 11 0 14 43
13 58 -2z m102 -28 c0 -22 -4 -40 -10 -40 -11 0 -14 63 -3 73 11 12 13 8 13
-33z m104 18 c16 -26 -4 -52 -42 -56 -26 -3 -32 1 -38 23 -4 15 -1 31 7 41 16
19 59 14 73 -8z m94 -20 c2 -22 -1 -38 -7 -38 -6 0 -11 14 -11 31 0 24 -4 30
-17 27 -11 -2 -19 -14 -21 -31 -5 -38 -22 -34 -22 6 0 42 3 44 43 43 30 -1 32
-4 35 -38z m122 14 c0 26 21 33 27 9 7 -27 19 -27 26 1 4 12 9 19 13 16 8 -9
-15 -78 -26 -78 -5 0 -12 12 -17 27 l-10 28 -6 -28 c-10 -36 -23 -34 -36 4
-16 47 -13 57 9 29 15 -20 20 -21 20 -8z m110 -12 c0 -22 -4 -40 -10 -40 -5 0
-10 18 -10 40 0 22 5 40 10 40 6 0 10 -18 10 -40z m220 30 c0 -5 -12 -10 -26
-10 -20 0 -25 -4 -22 -22 2 -14 13 -25 28 -29 l25 -7 -25 -1 c-29 -1 -50 15
-50 39 0 9 5 21 12 28 15 15 58 16 58 2z m94 -6 c19 -19 20 -25 3 -48 -9 -12
-23 -17 -42 -14 -25 2 -31 8 -33 32 -5 44 40 63 72 30z m144 -26 c2 -22 -1
-38 -7 -38 -6 0 -11 14 -11 30 0 20 -5 30 -15 30 -10 0 -15 -10 -15 -30 0 -16
-4 -30 -10 -30 -5 0 -10 14 -10 30 0 20 -5 30 -15 30 -10 0 -15 -10 -15 -30 0
-16 -4 -30 -10 -30 -5 0 -10 17 -10 39 l0 38 58 -1 57 -1 3 -37z m90 30 c21
-21 13 -38 -18 -38 -38 0 -39 -17 -2 -23 20 -4 18 -4 -8 -3 -31 1 -35 4 -38
30 -5 41 37 63 66 34z m112 -34 c0 -19 -4 -34 -10 -34 -5 0 -10 18 -10 41 0
24 4 38 10 34 6 -3 10 -22 10 -41z m87 1 c1 -35 1 -36 -5 -10 -5 21 -13 30
-27 30 -14 0 -22 -9 -26 -30 -6 -28 -7 -27 -8 11 -1 40 0 41 32 40 30 -1 32
-3 34 -41z m157 29 c32 -32 8 -68 -41 -62 -20 2 -29 9 -31 26 -7 46 40 69 72
36z m-3854 -174 c0 -5 -4 -10 -10 -10 -5 0 -10 -4 -10 -10 0 -19 28 -10 33 10
3 11 12 20 21 20 19 0 21 -16 4 -23 -10 -4 -9 -8 2 -17 11 -9 12 -13 3 -17 -7
-2 -13 -18 -13 -34 0 -16 -4 -29 -10 -29 -5 0 -10 14 -10 30 0 20 -5 30 -15
30 -10 0 -15 -10 -15 -30 0 -16 -4 -30 -9 -30 -13 0 -20 71 -10 98 8 22 39 32
39 12z m450 -10 c0 -13 7 -20 18 -20 10 0 23 -5 30 -12 14 -14 16 -68 2 -68
-5 0 -10 14 -10 30 0 23 -4 30 -20 30 -16 0 -20 -7 -20 -30 0 -16 -4 -30 -10
-30 -6 0 -10 27 -10 60 0 33 4 60 10 60 6 0 10 -9 10 -20z m640 -3 c0 -18 5
-23 28 -22 24 0 27 -4 30 -37 2 -22 -1 -38 -7 -38 -6 0 -11 14 -11 31 0 24 -4
30 -17 27 -11 -2 -19 -14 -21 -31 -6 -51 -22 -27 -22 33 0 33 4 60 10 60 6 0
10 -10 10 -23z m175 7 c-17 -13 -18 -16 -5 -25 11 -8 12 -12 3 -16 -7 -2 -13
-18 -13 -34 0 -42 -17 -36 -23 9 -5 42 14 82 41 82 15 -1 15 -2 -3 -16z m135
-44 c0 -33 -4 -60 -10 -60 -6 0 -10 27 -10 60 0 33 4 60 10 60 6 0 10 -27 10
-60z m40 0 c0 -33 -4 -60 -10 -60 -6 0 -10 27 -10 60 0 33 4 60 10 60 6 0 10
-27 10 -60z m620 40 c0 -13 7 -20 18 -20 10 0 23 -5 30 -12 14 -14 16 -68 2
-68 -5 0 -10 14 -10 30 0 23 -4 30 -20 30 -16 0 -20 -7 -20 -30 0 -16 -4 -30
-10 -30 -6 0 -10 27 -10 60 0 33 4 60 10 60 6 0 10 -9 10 -20z m840 -40 c0
-33 -4 -60 -10 -60 -11 0 -14 103 -3 113 12 12 13 8 13 -53z m40 0 c0 -33 -4
-60 -10 -60 -6 0 -10 27 -10 60 0 33 4 60 10 60 6 0 10 -27 10 -60z m270 0 c0
-33 -4 -60 -10 -60 -6 0 -10 27 -10 60 0 33 4 60 10 60 6 0 10 -27 10 -60z
m40 0 c0 -33 -4 -60 -10 -60 -6 0 -10 27 -10 60 0 33 4 60 10 60 6 0 10 -27
10 -60z m100 40 c0 -15 7 -20 25 -20 17 0 29 -8 37 -25 15 -33 -4 -55 -48 -55
l-34 0 0 60 c0 33 4 60 10 60 6 0 10 -9 10 -20z m350 -4 c0 -19 4 -22 23 -19
30 6 51 -19 43 -52 -5 -21 -12 -25 -46 -25 l-40 0 0 60 c0 33 4 60 10 60 6 0
10 -11 10 -24z m97 -68 c-2 -18 -4 -4 -4 32 0 36 2 50 4 33 2 -18 2 -48 0 -65z
m-2097 72 c0 -5 -4 -10 -10 -10 -5 0 -10 5 -10 10 0 6 5 10 10 10 6 0 10 -4
10 -10z m700 -16 l14 -25 13 25 c8 15 18 26 24 26 6 0 2 -16 -10 -36 -12 -19
-21 -44 -21 -55 0 -10 -4 -19 -10 -19 -5 0 -10 13 -10 28 0 16 -7 37 -15 48
-16 22 -19 34 -7 34 5 0 15 -11 22 -26z m770 16 c0 -5 -2 -10 -4 -10 -3 0 -8
5 -11 10 -3 6 -1 10 4 10 6 0 11 -4 11 -10z m-2892 -17 c12 -12 13 -18 4 -21
-18 -6 -15 -39 6 -52 15 -9 14 -10 -8 -8 -19 2 -26 11 -31 37 -7 32 -3 61 8
61 2 0 12 -8 21 -17z m120 0 c12 -12 13 -18 4 -21 -16 -5 -16 -49 1 -56 6 -3
3 -5 -8 -3 -20 2 -38 57 -28 84 7 17 11 16 31 -4z m645 4 c3 -7 3 -26 0 -41
-4 -18 -1 -31 8 -37 11 -7 9 -9 -7 -9 -18 0 -23 7 -26 38 -5 39 -1 62 12 62 4
0 10 -6 13 -13z m965 -4 c12 -12 13 -18 4 -21 -18 -6 -15 -39 6 -52 15 -9 14
-10 -8 -8 -19 2 -26 11 -31 37 -7 32 -3 61 8 61 2 0 12 -8 21 -17z m240 0 c12
-12 13 -18 4 -21 -18 -6 -15 -39 6 -51 15 -9 15 -10 -4 -11 -25 0 -34 17 -34
66 0 38 4 41 28 17z m875 4 c3 -7 3 -26 0 -41 -4 -18 -1 -31 8 -37 11 -7 9 -9
-7 -9 -18 0 -23 7 -26 38 -5 39 -1 62 12 62 4 0 10 -6 13 -13z m-3195 -19 c23
-23 13 -38 -24 -38 -23 0 -33 -4 -28 -11 3 -6 17 -9 30 -6 13 2 24 0 24 -4 0
-19 -59 -9 -70 11 -22 42 34 82 68 48z m206 -4 c25 -24 19 -34 -21 -34 -40 0
-36 -15 7 -23 22 -4 22 -4 -6 -6 -33 -1 -54 14 -54 39 0 38 46 53 74 24z m96
6 c0 -5 -12 -10 -26 -10 -21 0 -25 -4 -22 -22 2 -17 9 -23 26 -22 12 0 22 -3
22 -8 0 -5 -15 -8 -32 -6 -26 2 -34 8 -36 26 -2 13 2 30 8 38 14 16 60 19 60
4z m354 4 c9 -3 16 -15 16 -25 0 -15 -7 -19 -32 -19 -36 0 -28 -16 12 -23 22
-4 22 -4 -5 -6 -34 -1 -55 14 -55 39 0 32 30 47 64 34z m214 -36 c2 -22 -1
-38 -7 -38 -6 0 -11 14 -11 30 0 20 -5 30 -15 30 -10 0 -15 -10 -15 -30 0 -16
-4 -30 -10 -30 -5 0 -10 14 -10 30 0 20 -5 30 -15 30 -10 0 -15 -10 -15 -30 0
-16 -4 -30 -10 -30 -5 0 -10 17 -10 38 l0 38 58 -1 57 0 3 -37z m92 28 c6 -8
10 -25 8 -38 -2 -17 -10 -24 -34 -26 -41 -4 -61 19 -46 53 13 28 52 34 72 11z
m96 3 c16 -13 19 -69 4 -69 -5 0 -10 14 -10 30 0 23 -4 30 -20 30 -16 0 -20
-7 -20 -30 0 -16 -4 -30 -10 -30 -5 0 -10 17 -10 38 0 33 3 38 26 40 15 1 33
-3 40 -9z m368 -5 c19 -19 20 -25 3 -48 -19 -26 -71 -18 -75 12 -7 46 40 69
72 36z m176 2 c6 -8 10 -25 8 -38 -2 -17 -10 -24 -34 -26 -41 -4 -61 19 -46
53 13 28 52 34 72 11z m40 -12 c0 -22 17 -17 23 7 7 26 27 16 28 -14 1 -20 2
-19 12 6 10 25 27 37 27 18 0 -18 -22 -71 -30 -71 -5 0 -13 12 -18 28 l-10 27
-7 -27 c-9 -35 -23 -36 -35 -2 -13 33 -13 57 0 49 6 -3 10 -13 10 -21z m130
-14 c0 -22 -4 -40 -10 -40 -5 0 -10 18 -10 40 0 22 5 40 10 40 6 0 10 -18 10
-40z m86 29 c16 -13 19 -69 4 -69 -5 0 -10 14 -10 30 0 23 -4 30 -20 30 -16 0
-20 -7 -20 -30 0 -16 -4 -30 -10 -30 -5 0 -10 17 -10 38 0 33 3 38 26 40 15 1
33 -3 40 -9z m114 -40 c0 -25 -5 -50 -12 -57 -15 -15 -58 -16 -58 -2 0 6 11
10 25 10 14 0 25 5 25 10 0 6 -10 10 -23 10 -27 0 -47 17 -47 40 0 26 21 40
57 37 32 -2 33 -3 33 -48z m298 39 c7 -7 12 -25 12 -41 0 -27 -2 -28 -37 -25
-30 2 -38 7 -38 23 0 14 9 22 30 26 l30 7 -27 1 c-16 0 -28 6 -28 11 0 14 43
13 58 -2z m332 -2 c6 -8 10 -25 8 -38 -4 -32 -62 -39 -78 -9 -23 44 38 85 70
47z m50 -27 c0 -44 34 -36 38 9 4 42 22 31 22 -14 0 -35 -1 -35 -37 -32 -36 3
-38 5 -41 42 -2 25 0 36 7 31 6 -3 11 -20 11 -36z m157 14 l10 -28 6 28 c9 35
25 35 34 0 l6 -28 10 28 c5 15 13 27 19 27 6 0 7 -7 4 -16 -3 -9 -9 -27 -12
-40 -7 -29 -34 -32 -34 -4 0 11 -4 20 -9 20 -5 0 -11 -9 -14 -20 -7 -27 -24
-25 -31 4 -3 13 -9 31 -12 40 -3 9 -2 16 4 16 6 0 14 -12 19 -27z m120 -35
c-2 -13 -4 -3 -4 22 0 25 2 35 4 23 2 -13 2 -33 0 -45z m218 52 c4 -6 -6 -10
-22 -10 l-28 -1 28 -15 c37 -20 36 -44 -3 -44 -16 0 -30 4 -30 9 0 5 9 7 20 4
11 -3 20 0 20 6 0 6 -6 11 -14 11 -22 0 -38 24 -24 38 15 15 45 16 53 2z m95
-30 c0 -22 -4 -40 -10 -40 -11 0 -14 63 -3 73 11 12 13 8 13 -33z m324 34 c9
-3 16 -15 16 -25 0 -15 -7 -19 -32 -19 -36 0 -28 -16 12 -23 18 -3 15 -5 -12
-6 -32 -1 -39 3 -44 24 -10 41 19 65 60 49z m164 -36 c3 -38 3 -38 -33 -38
-32 0 -36 3 -33 22 2 14 13 25 28 29 24 7 24 7 3 8 -13 1 -23 6 -23 12 0 6 12
9 28 7 23 -3 27 -8 30 -40z m226 36 c9 -3 16 -15 16 -25 0 -15 -7 -19 -32 -19
-36 0 -28 -16 12 -23 22 -4 22 -4 -5 -6 -34 -1 -55 14 -55 39 0 32 30 47 64
34z m-3124 -234 c0 -33 -4 -60 -10 -60 -6 0 -10 27 -10 60 0 33 4 60 10 60 6
0 10 -27 10 -60z m40 0 c0 -33 -4 -60 -10 -60 -6 0 -10 27 -10 60 0 33 4 60
10 60 6 0 10 -27 10 -60z m220 50 c0 -5 -4 -10 -10 -10 -5 0 -9 -8 -8 -17 3
-40 -3 -83 -11 -83 -13 0 -20 71 -10 98 8 22 39 32 39 12z m420 -50 c0 -33 -4
-60 -10 -60 -6 0 -10 27 -10 60 0 33 4 60 10 60 6 0 10 -27 10 -60z m170 15
c22 0 25 -4 26 -40 1 -34 1 -35 -3 -7 -4 27 -8 33 -26 30 -15 -2 -24 -12 -28
-33 -5 -20 -7 -8 -7 35 0 38 3 55 7 40 4 -18 13 -25 31 -25z m156 19 c-4 -9
-9 -15 -11 -12 -3 3 -3 13 1 22 4 9 9 15 11 12 3 -3 3 -13 -1 -22z m1124 3 c0
-18 5 -23 28 -22 24 0 27 -4 30 -37 2 -22 -1 -38 -7 -38 -6 0 -11 14 -11 31 0
24 -4 30 -17 27 -11 -2 -19 -14 -21 -31 -6 -51 -22 -27 -22 33 0 33 4 60 10
60 6 0 10 -10 10 -23z m-1718 -41 c18 -47 16 -78 -3 -43 -12 21 -48 22 -55 2
-9 -24 -26 -18 -18 7 17 53 36 89 46 86 6 -2 19 -26 30 -52z m58 -1 c0 -30 -4
-55 -10 -55 -5 0 -10 25 -10 55 0 30 5 55 10 55 6 0 10 -25 10 -55z m157 3
c21 -55 21 -76 -1 -45 -16 21 -52 22 -60 2 -3 -8 -10 -15 -15 -15 -5 0 1 25
12 55 12 30 27 55 33 55 6 0 20 -24 31 -52z m893 42 c0 -5 -4 -10 -10 -10 -5
0 -10 5 -10 10 0 6 5 10 10 10 6 0 10 -4 10 -10z m360 0 c0 -5 -4 -10 -10 -10
-5 0 -10 5 -10 10 0 6 5 10 10 10 6 0 10 -4 10 -10z m990 0 c0 -5 -4 -10 -10
-10 -5 0 -10 5 -10 10 0 6 5 10 10 10 6 0 10 -4 10 -10z m-3737 -13 c3 -7 3
-26 0 -41 -4 -18 -1 -31 8 -37 11 -7 9 -9 -7 -9 -18 0 -23 7 -26 38 -5 39 -1
62 12 62 4 0 10 -6 13 -13z m2950 0 c3 -7 3 -26 0 -41 -4 -18 -1 -32 8 -38 11
-7 9 -8 -6 -6 -29 5 -44 98 -15 98 4 0 10 -6 13 -13z m735 -4 c12 -12 13 -18
4 -21 -18 -6 -15 -39 6 -51 15 -9 15 -10 -4 -11 -25 0 -34 17 -34 66 0 38 4
41 28 17z m-3574 -25 c17 -28 -4 -53 -45 -53 -28 0 -35 4 -37 23 -2 13 2 30 9
38 16 19 59 14 73 -8z m144 10 c7 -7 12 -25 12 -41 0 -27 -2 -28 -37 -25 -30
2 -38 7 -38 23 0 14 9 22 30 26 l30 7 -27 1 c-16 0 -28 6 -28 11 0 14 43 13
58 -2z m92 2 c0 -5 -12 -10 -26 -10 -21 0 -25 -4 -22 -22 2 -17 9 -23 26 -22
12 0 22 -3 22 -8 0 -5 -15 -8 -32 -6 -26 2 -34 8 -36 26 -2 13 2 30 8 38 14
16 60 19 60 4z m85 1 c3 -5 -7 -11 -22 -13 -20 -2 -28 -9 -28 -23 0 -15 7 -20
28 -20 15 1 27 -3 27 -7 0 -14 -57 -8 -70 7 -20 24 3 65 34 65 14 0 27 -4 31
-9z m89 -7 c25 -24 19 -34 -21 -34 -40 0 -36 -15 7 -23 22 -4 22 -4 -5 -6 -34
-1 -55 14 -55 39 0 38 46 53 74 24z m86 6 c0 -5 -10 -10 -22 -11 l-23 0 23
-11 c34 -17 29 -48 -8 -48 -16 0 -30 4 -30 9 0 5 9 7 20 4 11 -3 20 0 20 6 0
6 -6 11 -14 11 -19 0 -29 17 -22 35 6 17 56 21 56 5z m70 0 c0 -5 -10 -10 -22
-10 -21 -1 -21 -2 5 -16 16 -8 26 -21 24 -27 -4 -14 -67 -22 -67 -9 0 5 11 7
25 4 15 -2 25 0 25 7 0 6 -6 11 -14 11 -18 0 -39 27 -31 40 8 13 55 13 55 0z
m148 -2 c7 -7 12 -25 12 -41 0 -27 -2 -28 -37 -25 -30 2 -38 7 -38 23 0 14 9
22 30 26 l30 7 -27 1 c-16 0 -28 6 -28 11 0 14 43 13 58 -2z m232 -2 c6 -8 10
-25 8 -38 -4 -32 -62 -39 -78 -9 -23 44 38 85 70 47z m590 -1 c7 -8 9 -26 6
-40 -5 -20 -13 -25 -36 -25 -23 0 -30 -4 -30 -20 0 -11 -4 -20 -10 -20 -6 0
-10 26 -10 58 l0 59 34 1 c19 1 39 -5 46 -13z m188 -27 c3 -38 3 -38 -33 -38
-32 0 -36 3 -33 22 2 14 13 25 28 29 24 7 24 7 3 8 -13 1 -23 6 -23 12 0 6 12
9 28 7 23 -3 27 -8 30 -40z m112 32 c0 -5 -10 -10 -22 -10 -21 -1 -21 -2 5
-16 36 -20 30 -39 -14 -40 -26 -1 -28 -1 -6 3 27 4 38 23 13 23 -18 0 -39 27
-31 40 8 13 55 13 55 0z m140 0 c0 -5 -10 -10 -22 -10 -21 -1 -21 -2 5 -16 16
-8 26 -21 24 -27 -4 -14 -67 -22 -67 -9 0 5 12 7 28 5 26 -4 26 -4 8 11 -10 8
-24 17 -29 19 -6 2 -8 11 -4 20 7 18 57 24 57 7z m84 4 c9 -3 16 -15 16 -25 0
-15 -7 -19 -32 -19 -36 0 -28 -16 12 -23 18 -3 15 -5 -12 -6 -32 -1 -39 3 -44
24 -10 41 19 65 60 49z m86 -5 c0 -5 -7 -9 -15 -9 -10 0 -15 -10 -15 -30 0
-16 -4 -30 -10 -30 -5 0 -10 17 -10 39 0 34 3 39 25 39 14 0 25 -4 25 -9z m35
-9 c3 -11 10 -20 15 -20 5 0 12 9 15 20 5 17 25 29 25 15 0 -11 -34 -75 -40
-75 -6 0 -40 64 -40 75 0 14 20 2 25 -15z m95 -26 c0 -19 -4 -34 -10 -34 -5 0
-10 18 -10 41 0 24 4 38 10 34 6 -3 10 -22 10 -41z m85 36 c3 -6 -5 -10 -19
-10 -46 0 -45 -46 2 -53 24 -4 24 -4 -5 -6 -39 -1 -60 27 -43 59 11 21 54 28
65 10z m95 -9 c15 -29 13 -31 -27 -31 -40 0 -36 -15 7 -23 22 -4 22 -4 -5 -6
-34 -1 -55 14 -55 39 0 40 61 55 80 21z m80 9 c0 -5 -10 -10 -22 -11 l-23 0
23 -11 c34 -17 29 -48 -8 -48 -16 0 -30 4 -30 9 0 5 9 7 20 4 11 -3 20 0 20 6
0 6 -6 11 -14 11 -19 0 -29 17 -22 35 6 17 56 21 56 5z m100 -30 c0 -22 -4
-40 -10 -40 -5 0 -10 18 -10 40 0 22 5 40 10 40 6 0 10 -18 10 -40z m86 29
c16 -13 19 -69 4 -69 -5 0 -10 14 -10 30 0 23 -4 30 -20 30 -16 0 -20 -7 -20
-30 0 -16 -4 -30 -10 -30 -5 0 -10 17 -10 38 0 33 3 38 26 40 15 1 33 -3 40
-9z m312 -1 c22 -22 13 -38 -20 -38 -33 0 -29 -14 7 -23 11 -3 4 -5 -15 -4
-31 2 -35 6 -38 31 -5 41 37 63 66 34z m210 -30 c2 -22 -1 -38 -7 -38 -6 0
-11 14 -11 30 0 20 -5 30 -15 30 -10 0 -15 -10 -15 -30 0 -16 -4 -30 -10 -30
-5 0 -10 14 -10 31 0 41 -32 36 -41 -6 -6 -27 -7 -26 -8 11 l-1 41 58 -1 57
-1 3 -37z m90 30 c23 -23 13 -38 -25 -38 -40 0 -36 -15 7 -23 22 -4 22 -4 -5
-6 -17 0 -36 4 -43 11 -26 26 -6 68 33 68 12 0 26 -5 33 -12z m90 0 c7 -7 12
-25 12 -41 0 -27 -2 -28 -37 -25 -30 2 -38 7 -38 23 0 14 9 22 30 26 l30 7
-27 1 c-16 0 -28 6 -28 11 0 14 43 13 58 -2z m100 -30 c2 -22 -1 -38 -7 -38
-6 0 -11 14 -11 31 0 24 -4 30 -17 27 -11 -2 -19 -14 -21 -31 -5 -38 -22 -34
-22 6 0 42 3 44 43 43 30 -1 32 -4 35 -38z m102 2 c0 -22 -4 -40 -10 -40 -5 0
-10 18 -10 40 0 22 5 40 10 40 6 0 10 -18 10 -40z m138 -2 c2 -22 -1 -38 -7
-38 -6 0 -11 14 -11 30 0 20 -5 30 -15 30 -10 0 -15 -10 -15 -30 0 -16 -4 -30
-10 -30 -5 0 -10 14 -10 30 0 20 -5 30 -15 30 -10 0 -15 -10 -15 -30 0 -16 -4
-30 -10 -30 -5 0 -10 17 -10 38 l0 39 58 -1 57 -1 3 -37z m90 30 c23 -23 13
-38 -25 -38 -40 0 -36 -15 7 -23 21 -4 20 -4 -7 -6 -38 -1 -55 22 -42 57 9 24
47 30 67 10z"/>
<path d="M2650 3140 c-23 -23 -24 -33 -10 -61 12 -22 59 -26 78 -7 19 19 15
66 -7 78 -28 14 -38 13 -61 -10z"/>
<path d="M3198 3149 c-21 -12 -24 -59 -6 -77 7 -7 25 -12 40 -12 50 0 60 76
12 94 -21 8 -26 7 -46 -5z"/>
<path d="M1506 3124 c-10 -26 -7 -34 15 -34 15 0 19 4 15 16 -3 9 -6 20 -6 25
0 15 -17 10 -24 -7z"/>
<path d="M2340 3131 c0 -5 -3 -16 -6 -25 -4 -12 0 -16 16 -16 16 0 20 4 16 16
-3 9 -6 20 -6 25 0 5 -4 9 -10 9 -5 0 -10 -4 -10 -9z"/>
<path d="M3050 3136 c0 -21 5 -26 26 -26 21 0 25 4 22 23 -2 14 -11 23 -25 25
-19 3 -23 -1 -23 -22z"/>
<path d="M602 2648 c-34 -34 6 -90 48 -68 26 14 26 56 1 70 -25 13 -34 13 -49
-2z"/>
<path d="M2243 2604 c-3 -8 -1 -20 5 -26 16 -16 42 -2 42 22 0 24 -38 28 -47
4z"/>
<path d="M2966 2635 c-10 -26 -7 -35 9 -35 17 0 19 18 6 38 -7 11 -10 10 -15
-3z"/>
<path d="M3180 2620 c0 -11 7 -20 15 -20 17 0 18 2 9 24 -9 23 -24 20 -24 -4z"/>
<path d="M918 2613 c6 -2 18 -2 25 0 6 3 1 5 -13 5 -14 0 -19 -2 -12 -5z"/>
<path d="M1144 2609 c-3 -6 1 -18 9 -27 13 -12 19 -13 31 -3 8 7 12 19 9 27
-6 17 -39 19 -49 3z"/>
<path d="M1495 2590 c-3 -6 1 -13 10 -16 19 -8 30 0 20 15 -8 14 -22 14 -30 1z"/>
<path d="M1678 2613 c6 -2 18 -2 25 0 6 3 1 5 -13 5 -14 0 -19 -2 -12 -5z"/>
<path d="M1943 2604 c-3 -8 -1 -20 5 -26 16 -16 42 -2 42 22 0 24 -38 28 -47
4z"/>
<path d="M2153 2613 c9 -2 23 -2 30 0 6 3 -1 5 -18 5 -16 0 -22 -2 -12 -5z"/>
<path d="M2504 2609 c-3 -6 1 -18 10 -27 15 -15 17 -15 32 0 19 19 11 38 -16
38 -10 0 -22 -5 -26 -11z"/>
<path d="M2722 2598 c4 -27 33 -36 42 -13 8 22 -1 35 -25 35 -15 0 -20 -6 -17
-22z"/>
<path d="M3322 2598 c2 -15 10 -23 23 -23 30 0 27 39 -3 43 -20 3 -23 0 -20
-20z"/>
<path d="M3515 2591 c-7 -12 12 -24 25 -16 11 7 4 25 -10 25 -5 0 -11 -4 -15
-9z"/>
<path d="M3942 2598 c2 -15 10 -23 23 -23 13 0 21 8 23 23 3 18 -1 22 -23 22
-22 0 -26 -4 -23 -22z"/>
<path d="M2095 2390 c-8 -13 13 -40 30 -40 15 0 28 27 19 41 -7 12 -41 11 -49
-1z"/>
<path d="M3722 2378 c2 -15 10 -23 23 -23 30 0 27 39 -3 43 -20 3 -23 0 -20
-20z"/>
<path d="M602 2378 c2 -15 10 -23 23 -23 30 0 27 39 -3 43 -20 3 -23 0 -20
-20z"/>
<path d="M845 2370 c-3 -6 1 -13 10 -16 19 -8 30 0 20 15 -8 14 -22 14 -30 1z"/>
<path d="M1128 2393 c6 -2 18 -2 25 0 6 3 1 5 -13 5 -14 0 -19 -2 -12 -5z"/>
<path d="M1402 2378 c4 -27 33 -36 42 -13 8 22 -1 35 -25 35 -15 0 -20 -6 -17
-22z"/>
<path d="M1868 2393 c6 -2 18 -2 25 0 6 3 1 5 -13 5 -14 0 -19 -2 -12 -5z"/>
<path d="M2208 2393 c6 -2 18 -2 25 0 6 3 1 5 -13 5 -14 0 -19 -2 -12 -5z"/>
<path d="M2574 2389 c-3 -6 1 -18 10 -27 15 -15 17 -15 32 0 19 19 11 38 -16
38 -10 0 -22 -5 -26 -11z"/>
<path d="M2864 2389 c-8 -14 21 -43 35 -35 19 12 13 46 -8 46 -11 0 -23 -5
-27 -11z"/>
<path d="M3533 2393 c9 -2 23 -2 30 0 6 3 -1 5 -18 5 -16 0 -22 -2 -12 -5z"/>
<path d="M3628 2393 c6 -2 18 -2 25 0 6 3 1 5 -13 5 -14 0 -19 -2 -12 -5z"/>
<path d="M3942 2378 c2 -15 10 -23 23 -23 13 0 21 8 23 23 3 18 -1 22 -23 22
-22 0 -26 -4 -23 -22z"/>
<path d="M4292 2378 c2 -15 10 -23 23 -23 30 0 27 39 -3 43 -20 3 -23 0 -20
-20z"/>
<path d="M2062 2158 c2 -15 10 -23 23 -23 13 0 21 8 23 23 3 18 -1 22 -23 22
-22 0 -26 -4 -23 -22z"/>
<path d="M3873 2164 c-3 -8 -1 -20 5 -26 16 -16 42 -2 42 22 0 24 -38 28 -47
4z"/>
<path d="M733 2164 c-3 -8 -1 -20 5 -26 16 -16 42 -2 42 22 0 24 -38 28 -47 4z"/>
<path d="M942 2158 c2 -15 10 -23 23 -23 30 0 27 39 -3 43 -20 3 -23 0 -20
-20z"/>
<path d="M1223 2164 c-3 -8 -1 -20 5 -26 16 -16 42 -2 42 22 0 24 -38 28 -47
4z"/>
<path d="M1548 2173 c6 -2 18 -2 25 0 6 3 1 5 -13 5 -14 0 -19 -2 -12 -5z"/>
<path d="M2165 2151 c-7 -12 12 -24 25 -16 11 7 4 25 -10 25 -5 0 -11 -4 -15
-9z"/>
<path d="M2402 2158 c2 -15 10 -23 23 -23 13 0 21 8 23 23 3 18 -1 22 -23 22
-22 0 -26 -4 -23 -22z"/>
<path d="M2694 2169 c-3 -6 1 -18 10 -27 15 -15 17 -15 32 0 19 19 11 38 -16
38 -10 0 -22 -5 -26 -11z"/>
<path d="M3153 2164 c-3 -8 -1 -20 5 -26 16 -16 42 -2 42 22 0 24 -38 28 -47
4z"/>
<path d="M4243 2164 c-3 -8 -1 -20 5 -26 16 -16 42 -2 42 22 0 24 -38 28 -47
4z"/>
<path d="M4442 2158 c2 -15 10 -23 23 -23 13 0 21 8 23 23 3 18 -1 22 -23 22
-22 0 -26 -4 -23 -22z"/>
<path d="M675 1930 c-3 -6 1 -13 10 -16 19 -8 30 0 20 15 -8 14 -22 14 -30 1z"/>
<path d="M964 1949 c-3 -6 1 -18 9 -27 13 -12 19 -13 31 -3 8 7 12 19 9 27 -6
17 -39 19 -49 3z"/>
<path d="M1317 1946 c-3 -8 1 -20 9 -27 12 -10 18 -9 31 3 8 9 12 21 9 27 -10
16 -43 14 -49 -3z"/>
<path d="M1516 1951 c-10 -16 6 -42 23 -39 9 2 17 13 19 26 3 16 -2 22 -17 22
-11 0 -22 -4 -25 -9z"/>
<path d="M1713 1944 c-3 -8 -1 -20 5 -26 16 -16 42 -2 42 22 0 24 -38 28 -47
4z"/>
<path d="M1828 1953 c6 -2 18 -2 25 0 6 3 1 5 -13 5 -14 0 -19 -2 -12 -5z"/>
<path d="M2503 1944 c-3 -8 -1 -20 5 -26 16 -16 42 -2 42 22 0 24 -38 28 -47
4z"/>
<path d="M2752 1938 c4 -27 33 -36 42 -13 8 22 -1 35 -25 35 -15 0 -20 -6 -17
-22z"/>
<path d="M3248 1953 c6 -2 18 -2 25 0 6 3 1 5 -13 5 -14 0 -19 -2 -12 -5z"/>
<path d="M3542 1938 c2 -15 10 -23 23 -23 30 0 27 39 -3 43 -20 3 -23 0 -20
-20z"/>
<path d="M3637 1946 c-3 -8 1 -20 9 -27 12 -10 18 -9 31 3 8 9 12 21 9 27 -10
16 -43 14 -49 -3z"/>
<path d="M3963 1953 c9 -2 23 -2 30 0 6 3 -1 5 -18 5 -16 0 -22 -2 -12 -5z"/>
<path d="M4148 1953 c6 -2 18 -2 25 0 6 3 1 5 -13 5 -14 0 -19 -2 -12 -5z"/>
<path d="M4504 1949 c-3 -6 1 -18 10 -27 15 -15 17 -15 32 0 19 19 11 38 -16
38 -10 0 -22 -5 -26 -11z"/>
<path d="M668 1733 c6 -2 18 -2 25 0 6 3 1 5 -13 5 -14 0 -19 -2 -12 -5z"/>
<path d="M912 1718 c2 -15 10 -23 23 -23 30 0 27 39 -3 43 -20 3 -23 0 -20
-20z"/>
<path d="M1208 1733 c6 -2 18 -2 25 0 6 3 1 5 -13 5 -14 0 -19 -2 -12 -5z"/>
<path d="M1798 1733 c6 -2 18 -2 25 0 6 3 1 5 -13 5 -14 0 -19 -2 -12 -5z"/>
<path d="M1992 1718 c4 -27 33 -36 42 -13 8 22 -1 35 -25 35 -15 0 -20 -6 -17
-22z"/>
<path d="M2378 1733 c6 -2 18 -2 25 0 6 3 1 5 -13 5 -14 0 -19 -2 -12 -5z"/>
<path d="M2778 1733 c6 -2 18 -2 25 0 6 3 1 5 -13 5 -14 0 -19 -2 -12 -5z"/>
<path d="M2865 1710 c-3 -6 1 -13 10 -16 19 -8 30 0 20 15 -8 14 -22 14 -30 1z"/>
<path d="M3468 1733 c6 -2 18 -2 25 0 6 3 1 5 -13 5 -14 0 -19 -2 -12 -5z"/>
<path d="M3898 1733 c6 -2 18 -2 25 0 6 3 1 5 -13 5 -14 0 -19 -2 -12 -5z"/>
<path d="M4124 1729 c-8 -14 21 -43 35 -35 19 12 13 46 -8 46 -11 0 -23 -5
-27 -11z"/>
<path d="M4385 1709 c-10 -15 1 -23 20 -15 9 3 13 10 10 16 -8 13 -22 13 -30
-1z"/>
<path d="M4543 1733 c9 -2 23 -2 30 0 6 3 -1 5 -18 5 -16 0 -22 -2 -12 -5z"/>
<path d="M1367 1506 c-6 -15 11 -36 29 -36 14 0 27 28 18 41 -8 14 -41 11 -47
-5z"/>
<path d="M614 1509 c-3 -6 1 -18 9 -27 13 -12 19 -13 31 -3 8 7 12 19 9 27 -6
17 -39 19 -49 3z"/>
<path d="M1015 1490 c-3 -6 1 -13 10 -16 19 -8 30 0 20 15 -8 14 -22 14 -30 1z"/>
<path d="M1166 1511 c-10 -16 6 -42 23 -39 9 2 17 13 19 26 3 16 -2 22 -17 22
-11 0 -22 -4 -25 -9z"/>
<path d="M1278 1513 c6 -2 18 -2 25 0 6 3 1 5 -13 5 -14 0 -19 -2 -12 -5z"/>
<path d="M1583 1504 c-3 -8 -1 -20 5 -26 16 -16 42 -2 42 22 0 24 -38 28 -47
4z"/>
<path d="M1973 1513 c9 -2 23 -2 30 0 6 3 -1 5 -18 5 -16 0 -22 -2 -12 -5z"/>
<path d="M2172 1498 c2 -15 10 -23 23 -23 13 0 21 8 23 23 3 18 -1 22 -23 22
-22 0 -26 -4 -23 -22z"/>
<path d="M2347 1506 c-3 -8 1 -20 9 -27 12 -10 18 -9 31 3 8 9 12 21 9 27 -10
16 -43 14 -49 -3z"/>
<path d="M2704 1509 c-3 -6 1 -18 10 -27 15 -15 17 -15 32 0 19 19 11 38 -16
38 -10 0 -22 -5 -26 -11z"/>
<path d="M3004 1509 c-3 -6 1 -18 10 -27 15 -15 17 -15 32 0 19 19 11 38 -16
38 -10 0 -22 -5 -26 -11z"/>
<path d="M3686 1511 c-10 -16 6 -42 23 -39 9 2 17 13 19 26 3 16 -2 22 -17 22
-11 0 -22 -4 -25 -9z"/>
<path d="M4034 1509 c-8 -14 21 -43 35 -35 19 12 13 46 -8 46 -11 0 -23 -5
-27 -11z"/>
<path d="M3564 1289 c-3 -6 1 -18 10 -27 15 -15 17 -15 32 0 19 19 11 38 -16
38 -10 0 -22 -5 -26 -11z"/>
<path d="M672 1278 c2 -15 10 -23 23 -23 13 0 21 8 23 23 3 18 -1 22 -23 22
-22 0 -26 -4 -23 -22z"/>
<path d="M964 1289 c-3 -6 1 -18 10 -27 15 -15 17 -15 32 0 19 19 11 38 -16
38 -10 0 -22 -5 -26 -11z"/>
<path d="M1752 1278 c2 -15 10 -23 23 -23 13 0 21 8 23 23 3 18 -1 22 -23 22
-22 0 -26 -4 -23 -22z"/>
<path d="M2000 1265 c0 -8 7 -15 15 -15 8 0 15 7 15 15 0 8 -7 15 -15 15 -8 0
-15 -7 -15 -15z"/>
<path d="M2283 1293 c9 -2 23 -2 30 0 6 3 -1 5 -18 5 -16 0 -22 -2 -12 -5z"/>
<path d="M2465 1270 c-3 -6 1 -13 10 -16 19 -8 30 0 20 15 -8 14 -22 14 -30 1z"/>
<path d="M2678 1293 c6 -2 18 -2 25 0 6 3 1 5 -13 5 -14 0 -19 -2 -12 -5z"/>
<path d="M3053 1293 c9 -2 23 -2 30 0 6 3 -1 5 -18 5 -16 0 -22 -2 -12 -5z"/>
<path d="M3670 1265 c0 -10 7 -15 18 -13 21 4 19 22 -2 26 -10 2 -16 -3 -16
-13z"/>
<path d="M3904 1289 c-3 -6 1 -18 9 -27 13 -12 19 -13 31 -3 8 7 12 19 9 27
-6 17 -39 19 -49 3z"/>
<path d="M4202 1278 c2 -15 10 -23 23 -23 13 0 21 8 23 23 3 18 -1 22 -23 22
-22 0 -26 -4 -23 -22z"/>
<path d="M1494 1069 c-3 -6 1 -18 10 -27 15 -15 17 -15 32 0 19 19 11 38 -16
38 -10 0 -22 -5 -26 -11z"/>
<path d="M3012 1058 c2 -15 10 -23 23 -23 13 0 21 8 23 23 3 18 -1 22 -23 22
-22 0 -26 -4 -23 -22z"/>
<path d="M3803 1064 c-3 -8 -1 -20 5 -26 16 -16 42 -2 42 22 0 24 -38 28 -47
4z"/>
<path d="M776 1071 c-10 -16 6 -42 23 -39 9 2 17 13 19 26 3 16 -2 22 -17 22
-11 0 -22 -4 -25 -9z"/>
<path d="M1863 1064 c-3 -8 -1 -20 5 -26 16 -16 42 -2 42 22 0 24 -38 28 -47
4z"/>
<path d="M2062 1058 c2 -15 10 -23 23 -23 13 0 21 8 23 23 3 18 -1 22 -23 22
-22 0 -26 -4 -23 -22z"/>
<path d="M2444 1069 c-3 -6 1 -18 9 -27 13 -12 19 -13 31 -3 8 7 12 19 9 27
-6 17 -39 19 -49 3z"/>
<path d="M3123 1073 c9 -2 23 -2 30 0 6 3 -1 5 -18 5 -16 0 -22 -2 -12 -5z"/>
<path d="M3450 1045 c0 -10 7 -15 18 -13 21 4 19 22 -2 26 -10 2 -16 -3 -16
-13z"/>
<path d="M3602 1058 c2 -15 10 -23 23 -23 30 0 27 39 -3 43 -20 3 -23 0 -20
-20z"/>
<path d="M3713 1073 c9 -2 23 -2 30 0 6 3 -1 5 -18 5 -16 0 -22 -2 -12 -5z"/>
<path d="M4022 1058 c4 -27 33 -36 42 -13 8 22 -1 35 -25 35 -15 0 -20 -6 -17
-22z"/>
<path d="M4408 1073 c6 -2 18 -2 25 0 6 3 1 5 -13 5 -14 0 -19 -2 -12 -5z"/>
<path d="M1877 853 c-12 -11 -7 -33 8 -39 20 -8 45 13 38 32 -5 14 -34 19 -46
7z"/>
<path d="M623 844 c-3 -8 -1 -20 5 -26 16 -16 42 -2 42 22 0 24 -38 28 -47 4z"/>
<path d="M802 838 c4 -30 43 -33 43 -3 0 13 -8 21 -23 23 -20 3 -23 0 -20 -20z"/>
<path d="M1162 838 c4 -30 43 -33 43 -3 0 13 -8 21 -23 23 -20 3 -23 0 -20
-20z"/>
<path d="M1462 838 c4 -30 43 -33 43 -3 0 13 -8 21 -23 23 -20 3 -23 0 -20
-20z"/>
<path d="M2353 853 c9 -2 23 -2 30 0 6 3 -1 5 -18 5 -16 0 -22 -2 -12 -5z"/>
<path d="M2590 825 c0 -8 7 -15 15 -15 8 0 15 7 15 15 0 8 -7 15 -15 15 -8 0
-15 -7 -15 -15z"/>
<path d="M2873 853 c9 -2 23 -2 30 0 6 3 -1 5 -18 5 -16 0 -22 -2 -12 -5z"/>
<path d="M3035 831 c-7 -12 12 -24 25 -16 11 7 4 25 -10 25 -5 0 -11 -4 -15
-9z"/>
<path d="M3222 838 c2 -15 10 -23 23 -23 13 0 21 8 23 23 3 18 -1 22 -23 22
-22 0 -26 -4 -23 -22z"/>
<path d="M3867 846 c-3 -8 1 -20 9 -27 12 -10 18 -9 31 3 8 9 12 21 9 27 -10
16 -43 14 -49 -3z"/>
<path d="M4118 853 c6 -2 18 -2 25 0 6 3 1 5 -13 5 -14 0 -19 -2 -12 -5z"/>
<path d="M4462 838 c2 -15 10 -23 23 -23 30 0 27 39 -3 43 -20 3 -23 0 -20
-20z"/>
<path d="M4012 618 c2 -15 10 -23 23 -23 30 0 27 39 -3 43 -20 3 -23 0 -20
-20z"/>
<path d="M4362 618 c2 -15 10 -23 23 -23 13 0 21 8 23 23 3 18 -1 22 -23 22
-22 0 -26 -4 -23 -22z"/>
<path d="M548 633 c6 -2 18 -2 25 0 6 3 1 5 -13 5 -14 0 -19 -2 -12 -5z"/>
<path d="M748 633 c6 -2 18 -2 25 0 6 3 1 5 -13 5 -14 0 -19 -2 -12 -5z"/>
<path d="M1208 633 c6 -2 18 -2 25 0 6 3 1 5 -13 5 -14 0 -19 -2 -12 -5z"/>
<path d="M1496 631 c-10 -16 6 -42 23 -39 9 2 17 13 19 26 3 16 -2 22 -17 22
-11 0 -22 -4 -25 -9z"/>
<path d="M1962 618 c4 -27 33 -36 42 -13 8 22 -1 35 -25 35 -15 0 -20 -6 -17
-22z"/>
<path d="M2133 624 c-3 -8 -1 -20 5 -26 16 -16 42 -2 42 22 0 24 -38 28 -47 4z"/>
<path d="M2493 624 c-3 -8 -1 -20 5 -26 16 -16 42 -2 42 22 0 24 -38 28 -47 4z"/>
<path d="M2810 605 c0 -10 7 -15 18 -13 21 4 19 22 -2 26 -10 2 -16 -3 -16
-13z"/>
<path d="M3136 631 c-10 -16 6 -42 23 -39 9 2 17 13 19 26 3 16 -2 22 -17 22
-11 0 -22 -4 -25 -9z"/>
<path d="M4118 633 c6 -2 18 -2 25 0 6 3 1 5 -13 5 -14 0 -19 -2 -12 -5z"/>
<path d="M4267 614 c-9 -10 2 -24 19 -24 8 0 14 7 14 15 0 15 -21 21 -33 9z"/>
<path d="M4508 633 c6 -2 18 -2 25 0 6 3 1 5 -13 5 -14 0 -19 -2 -12 -5z"/>
<path d="M1786 424 c-9 -22 -8 -24 9 -24 8 0 15 9 15 20 0 24 -15 27 -24 4z"/>
<path d="M2006 435 c-10 -26 -7 -35 9 -35 17 0 19 18 6 38 -7 11 -10 10 -15
-3z"/>
<path d="M602 398 c4 -30 43 -33 43 -3 0 13 -8 21 -23 23 -20 3 -23 0 -20 -20z"/>
<path d="M760 385 c0 -10 7 -15 18 -13 21 4 19 22 -2 26 -10 2 -16 -3 -16 -13z"/>
<path d="M1028 413 c6 -2 18 -2 25 0 6 3 1 5 -13 5 -14 0 -19 -2 -12 -5z"/>
<path d="M1330 385 c0 -10 7 -15 18 -13 21 4 19 22 -2 26 -10 2 -16 -3 -16
-13z"/>
<path d="M1556 411 c-10 -16 6 -42 23 -39 9 2 17 13 19 26 3 16 -2 22 -17 22
-11 0 -22 -4 -25 -9z"/>
<path d="M2143 404 c-3 -8 -1 -20 5 -26 16 -16 42 -2 42 22 0 24 -38 28 -47 4z"/>
<path d="M2340 385 c0 -8 7 -15 15 -15 8 0 15 7 15 15 0 8 -7 15 -15 15 -8 0
-15 -7 -15 -15z"/>
<path d="M2688 413 c6 -2 18 -2 25 0 6 3 1 5 -13 5 -14 0 -19 -2 -12 -5z"/>
<path d="M3073 413 c9 -2 23 -2 30 0 6 3 -1 5 -18 5 -16 0 -22 -2 -12 -5z"/>
<path d="M3658 413 c6 -2 18 -2 25 0 6 3 1 5 -13 5 -14 0 -19 -2 -12 -5z"/>
<path d="M3953 413 c9 -2 23 -2 30 0 6 3 -1 5 -18 5 -16 0 -22 -2 -12 -5z"/>
<path d="M4040 385 c0 -10 7 -15 18 -13 21 4 19 22 -2 26 -10 2 -16 -3 -16
-13z"/>
<path d="M4478 413 c6 -2 18 -2 25 0 6 3 1 5 -13 5 -14 0 -19 -2 -12 -5z"/>
</g>
</svg>
