<?xml version="1.0" encoding="utf-8"?>
<svg viewBox="0 0 375 667" fill="none" xmlns="http://www.w3.org/2000/svg">
  <defs>
    <linearGradient id="paint0_linear_1144_335" x1="187" y1="316" x2="187" y2="329.5" gradientUnits="userSpaceOnUse">
      <stop stop-color="#FF8A37"/>
      <stop offset="0.5208" stop-color="#FF8A37" stop-opacity="0.322917"/>
      <stop offset="1" stop-color="#FF8A37" stop-opacity="0"/>
    </linearGradient>
    <linearGradient id="paint1_linear_1144_335" x1="46" y1="331" x2="329" y2="331" gradientUnits="userSpaceOnUse">
      <stop offset="0.0517" stop-color="#171717"/>
      <stop offset="0.5052" stop-color="#171717" stop-opacity="0"/>
      <stop offset="0.9342" stop-color="#171717"/>
    </linearGradient>
  </defs>
  <rect width="375" height="667" fill="#171717"/>
  <rect x="52" y="316" width="270" height="15" fill="url(#paint0_linear_1144_335)"/>
  <rect x="52" y="316" width="270" height="1" fill="#FF8A37"/>
  <rect x="46" y="312" width="283" height="19" fill="url(#paint1_linear_1144_335)"/>
  <circle cx="127" cy="347" r="10.5" fill="#171717" stroke="#FF8A37"/>
  <circle cx="203" cy="347" r="6.5" fill="#171717" stroke="#FF8A37"/>
  <circle cx="167" cy="347" r="6.5" fill="#171717" stroke="#FF8A37"/>
  <circle cx="239" cy="347" r="6.5" fill="#171717" stroke="#FF8A37"/>
  <path d="M113.82 423.3C112.593 423.3 111.527 423.007 110.62 422.42C109.713 421.833 109.013 420.993 108.52 419.9C108.04 418.807 107.8 417.513 107.8 416.02C107.8 414.527 108.04 413.233 108.52 412.14C109 411.033 109.687 410.187 110.58 409.6C111.487 409.013 112.567 408.72 113.82 408.72C115.06 408.72 116.133 409.013 117.04 409.6C117.947 410.187 118.64 411.033 119.12 412.14C119.6 413.233 119.84 414.527 119.84 416.02C119.84 417.513 119.6 418.807 119.12 419.9C118.64 420.993 117.947 421.833 117.04 422.42C116.133 423.007 115.06 423.3 113.82 423.3ZM113.82 421.02C114.927 421.02 115.78 420.58 116.38 419.7C116.993 418.807 117.3 417.587 117.3 416.04C117.3 414.493 117 413.273 116.4 412.38C115.8 411.487 114.947 411.04 113.84 411.04C112.733 411.04 111.873 411.487 111.26 412.38C110.66 413.273 110.36 414.493 110.36 416.04C110.36 417.587 110.66 418.807 111.26 419.7C111.873 420.58 112.727 421.02 113.82 421.02ZM124.393 411.7L121.433 413.84V411.48L124.793 409.02H126.913V423H124.393V411.7ZM129.933 423C129.653 423 129.413 422.907 129.213 422.72C129.013 422.52 128.913 422.28 128.913 422C128.913 421.707 129.013 421.46 129.213 421.26C129.413 421.06 129.653 420.96 129.933 420.96C130.213 420.96 130.453 421.06 130.653 421.26C130.853 421.46 130.953 421.707 130.953 422C130.953 422.28 130.853 422.52 130.653 422.72C130.453 422.907 130.213 423 129.933 423Z" fill="#FF8A37"/>
  <path d="M139.696 413.496H136.32V411.816H145.104V413.496H141.728V423H139.696V413.496ZM147.112 413.976C146.792 413.976 146.52 413.869 146.296 413.656C146.082 413.443 145.976 413.176 145.976 412.856C145.976 412.536 146.082 412.269 146.296 412.056C146.52 411.832 146.792 411.72 147.112 411.72C147.432 411.72 147.704 411.832 147.928 412.056C148.152 412.269 148.264 412.536 148.264 412.856C148.264 413.176 148.152 413.443 147.928 413.656C147.704 413.869 147.432 413.976 147.112 413.976ZM146.088 415.32H148.136V423H146.088V415.32ZM150.179 415.32H152.067V416.328C152.408 415.923 152.808 415.613 153.267 415.4C153.725 415.187 154.189 415.08 154.659 415.08C155.256 415.08 155.736 415.181 156.099 415.384C156.461 415.576 156.733 415.869 156.915 416.264C157.256 415.88 157.667 415.587 158.147 415.384C158.637 415.181 159.123 415.08 159.603 415.08C160.563 415.08 161.251 415.32 161.667 415.8C162.083 416.28 162.291 416.984 162.291 417.912V423H160.355V418.184C160.355 417.64 160.243 417.251 160.019 417.016C159.805 416.781 159.459 416.664 158.979 416.664C158.637 416.664 158.323 416.733 158.035 416.872C157.757 417 157.501 417.224 157.267 417.544C157.288 417.885 157.299 418.163 157.299 418.376V423H155.347V418.152C155.347 417.597 155.256 417.213 155.075 417C154.893 416.776 154.563 416.664 154.083 416.664C153.357 416.664 152.707 417.075 152.131 417.896V423H150.179V415.32ZM168.452 423.24C167.023 423.24 165.892 422.883 165.06 422.168C164.228 421.453 163.812 420.456 163.812 419.176C163.812 417.917 164.18 416.92 164.916 416.184C165.652 415.448 166.703 415.08 168.068 415.08C168.964 415.08 169.727 415.251 170.356 415.592C170.996 415.933 171.476 416.403 171.796 417C172.116 417.587 172.276 418.259 172.276 419.016V419.944H165.732C165.871 421.085 166.863 421.656 168.708 421.656C169.199 421.656 169.7 421.613 170.212 421.528C170.724 421.443 171.172 421.325 171.556 421.176V422.728C171.193 422.877 170.724 423 170.148 423.096C169.583 423.192 169.017 423.24 168.452 423.24ZM170.372 418.568C170.351 417.96 170.132 417.491 169.716 417.16C169.311 416.829 168.751 416.664 168.036 416.664C167.332 416.664 166.777 416.835 166.372 417.176C165.967 417.517 165.753 417.981 165.732 418.568H170.372ZM173.882 411.176H175.898V423H173.882V411.176ZM179.659 426.168C179.382 426.168 179.089 426.147 178.779 426.104C178.481 426.072 178.246 426.024 178.075 425.96V424.424C178.342 424.531 178.673 424.584 179.067 424.584C179.473 424.584 179.777 424.493 179.979 424.312C180.182 424.131 180.358 423.843 180.507 423.448L180.811 422.648L177.499 415.32H179.531L181.899 420.92L184.123 415.32H186.139L182.779 423.688C182.438 424.531 182.022 425.155 181.531 425.56C181.051 425.965 180.427 426.168 179.659 426.168ZM193.179 415.32H195.131V416.248C195.547 415.853 196 415.56 196.491 415.368C196.981 415.176 197.541 415.08 198.171 415.08C198.949 415.08 199.643 415.251 200.251 415.592C200.869 415.923 201.349 416.397 201.691 417.016C202.043 417.624 202.219 418.333 202.219 419.144C202.219 419.944 202.043 420.653 201.691 421.272C201.349 421.891 200.869 422.376 200.251 422.728C199.643 423.069 198.949 423.24 198.171 423.24C197.584 423.24 197.029 423.16 196.507 423C195.995 422.829 195.557 422.579 195.195 422.248V426.504H193.179V415.32ZM197.675 421.656C198.4 421.656 198.997 421.421 199.467 420.952C199.936 420.483 200.171 419.88 200.171 419.144C200.171 418.408 199.936 417.811 199.467 417.352C198.997 416.893 198.4 416.664 197.675 416.664C197.099 416.664 196.587 416.819 196.139 417.128C195.691 417.437 195.376 417.853 195.195 418.376V419.928C195.365 420.451 195.675 420.872 196.123 421.192C196.581 421.501 197.099 421.656 197.675 421.656ZM206.229 423.24C205.312 423.24 204.56 423 203.973 422.52C203.386 422.029 203.093 421.373 203.093 420.552C203.093 419.699 203.37 419.032 203.925 418.552C204.48 418.072 205.258 417.832 206.261 417.832C207.232 417.832 208.069 418.029 208.773 418.424V418.216C208.773 417.672 208.602 417.277 208.261 417.032C207.93 416.787 207.392 416.664 206.645 416.664C206.176 416.664 205.712 416.712 205.253 416.808C204.794 416.893 204.389 417.016 204.037 417.176V415.592C204.357 415.443 204.784 415.32 205.317 415.224C205.861 415.128 206.384 415.08 206.885 415.08C208.218 415.08 209.205 415.368 209.845 415.944C210.485 416.509 210.805 417.299 210.805 418.312V423H208.901V422.248C208.57 422.568 208.192 422.813 207.765 422.984C207.349 423.155 206.837 423.24 206.229 423.24ZM206.725 421.768C207.173 421.768 207.578 421.683 207.941 421.512C208.304 421.331 208.581 421.085 208.773 420.776V419.928C208.186 419.512 207.514 419.304 206.757 419.304C205.68 419.304 205.141 419.72 205.141 420.552C205.141 420.957 205.274 421.261 205.541 421.464C205.818 421.667 206.213 421.768 206.725 421.768ZM213.769 426.168C213.491 426.168 213.198 426.147 212.889 426.104C212.59 426.072 212.355 426.024 212.185 425.96V424.424C212.451 424.531 212.782 424.584 213.177 424.584C213.582 424.584 213.886 424.493 214.089 424.312C214.291 424.131 214.467 423.843 214.617 423.448L214.921 422.648L211.609 415.32H213.641L216.009 420.92L218.233 415.32H220.249L216.889 423.688C216.547 424.531 216.131 425.155 215.641 425.56C215.161 425.965 214.537 426.168 213.769 426.168ZM221.523 415.32H223.411V416.328C223.752 415.923 224.152 415.613 224.611 415.4C225.069 415.187 225.533 415.08 226.003 415.08C226.6 415.08 227.08 415.181 227.443 415.384C227.805 415.576 228.077 415.869 228.259 416.264C228.6 415.88 229.011 415.587 229.491 415.384C229.981 415.181 230.467 415.08 230.947 415.08C231.907 415.08 232.595 415.32 233.011 415.8C233.427 416.28 233.635 416.984 233.635 417.912V423H231.699V418.184C231.699 417.64 231.587 417.251 231.363 417.016C231.149 416.781 230.803 416.664 230.323 416.664C229.981 416.664 229.667 416.733 229.378 416.872C229.101 417 228.845 417.224 228.611 417.544C228.632 417.885 228.642 418.163 228.642 418.376V423H226.691V418.152C226.691 417.597 226.6 417.213 226.419 417C226.237 416.776 225.907 416.664 225.427 416.664C224.701 416.664 224.051 417.075 223.475 417.896V423H221.523V415.32ZM239.796 423.24C238.366 423.24 237.236 422.883 236.404 422.168C235.572 421.453 235.156 420.456 235.156 419.176C235.156 417.917 235.524 416.92 236.26 416.184C236.996 415.448 238.046 415.08 239.412 415.08C240.308 415.08 241.07 415.251 241.7 415.592C242.34 415.933 242.82 416.403 243.14 417C243.46 417.587 243.62 418.259 243.62 419.016V419.944H237.076C237.214 421.085 238.206 421.656 240.052 421.656C240.542 421.656 241.044 421.613 241.556 421.528C242.068 421.443 242.516 421.325 242.9 421.176V422.728C242.537 422.877 242.068 423 241.492 423.096C240.926 423.192 240.361 423.24 239.796 423.24ZM241.716 418.568C241.694 417.96 241.476 417.491 241.06 417.16C240.654 416.829 240.094 416.664 239.38 416.664C238.676 416.664 238.121 416.835 237.716 417.176C237.31 417.517 237.097 417.981 237.076 418.568H241.716ZM245.226 415.32H247.178V416.36C247.54 415.923 247.972 415.603 248.474 415.4C248.975 415.187 249.503 415.08 250.058 415.08C251.092 415.08 251.866 415.363 252.378 415.928C252.89 416.483 253.146 417.224 253.146 418.152V423H251.13V418.344C251.13 417.224 250.607 416.664 249.562 416.664C249.103 416.664 248.671 416.776 248.266 417C247.86 417.213 247.519 417.539 247.242 417.976V423H245.226V415.32ZM258.079 423.24C257.237 423.24 256.597 423.005 256.159 422.536C255.722 422.067 255.503 421.405 255.503 420.552V416.856H254.351V415.32H255.503V413.016H257.519V415.32H259.359V416.856H257.519V420.296C257.519 420.787 257.61 421.139 257.791 421.352C257.973 421.555 258.303 421.656 258.783 421.656C259.114 421.656 259.439 421.581 259.759 421.432V422.968C259.301 423.149 258.741 423.24 258.079 423.24ZM263.874 423.24C263.319 423.24 262.727 423.176 262.098 423.048C261.469 422.92 260.978 422.744 260.626 422.52V420.808C261.042 421.064 261.538 421.272 262.114 421.432C262.69 421.581 263.234 421.656 263.746 421.656C264.258 421.656 264.631 421.613 264.866 421.528C265.101 421.432 265.218 421.261 265.218 421.016C265.218 420.824 265.154 420.669 265.026 420.552C264.909 420.424 264.711 420.312 264.434 420.216C264.167 420.109 263.751 419.981 263.186 419.832C262.546 419.651 262.039 419.464 261.666 419.272C261.303 419.08 261.026 418.84 260.834 418.552C260.653 418.253 260.562 417.869 260.562 417.4C260.562 416.632 260.866 416.056 261.474 415.672C262.082 415.277 262.903 415.08 263.938 415.08C264.471 415.08 264.999 415.133 265.522 415.24C266.055 415.336 266.471 415.475 266.77 415.656V417.304C266.45 417.112 266.061 416.957 265.602 416.84C265.143 416.723 264.674 416.664 264.194 416.664C263.671 416.664 263.277 416.717 263.01 416.824C262.743 416.92 262.61 417.112 262.61 417.4C262.61 417.592 262.679 417.747 262.818 417.864C262.967 417.971 263.159 418.067 263.394 418.152C263.629 418.227 264.055 418.344 264.674 418.504C265.335 418.685 265.853 418.883 266.226 419.096C266.599 419.309 266.866 419.565 267.026 419.864C267.186 420.163 267.266 420.536 267.266 420.984C267.266 421.667 266.973 422.216 266.386 422.632C265.81 423.037 264.973 423.24 263.874 423.24Z" fill="#FF8A37"/>
  <path d="M57.8171 460.612H59.0531V469H57.8171V460.612ZM61.0139 464.176H60.1379V463.24H61.0139V462.112C61.0139 461.448 61.2019 460.944 61.5779 460.6C61.9539 460.248 62.4579 460.072 63.0899 460.072C63.4179 460.072 63.7259 460.12 64.0139 460.216V461.224C63.7899 461.12 63.5579 461.068 63.3179 461.068C62.9419 461.068 62.6659 461.16 62.4899 461.344C62.3139 461.52 62.2259 461.8 62.2259 462.184V463.24H63.6659V464.176H62.2259V469H61.0139V464.176ZM69.2898 463.24H70.4418V464.068C70.7138 463.732 71.0218 463.48 71.3658 463.312C71.7098 463.144 72.0658 463.06 72.4338 463.06C72.8978 463.06 73.2658 463.14 73.5378 463.3C73.8098 463.452 74.0098 463.688 74.1378 464.008C74.3938 463.696 74.7058 463.46 75.0738 463.3C75.4498 463.14 75.8258 463.06 76.2018 463.06C76.9058 463.06 77.4138 463.24 77.7258 463.6C78.0378 463.952 78.1938 464.476 78.1938 465.172V469H77.0178V465.328C77.0178 464.856 76.9298 464.524 76.7538 464.332C76.5778 464.132 76.2778 464.032 75.8538 464.032C75.2458 464.032 74.7498 464.296 74.3658 464.824C74.3818 464.944 74.3898 465.14 74.3898 465.412V469H73.2138V465.328C73.2138 464.856 73.1338 464.524 72.9738 464.332C72.8138 464.132 72.5258 464.032 72.1098 464.032C71.5018 464.032 70.9578 464.376 70.4778 465.064V469H69.2898V463.24ZM82.5562 469.18C81.9082 469.18 81.3362 469.06 80.8402 468.82C80.3522 468.572 79.9682 468.22 79.6882 467.764C79.4162 467.3 79.2802 466.756 79.2802 466.132C79.2802 465.516 79.4162 464.976 79.6882 464.512C79.9602 464.048 80.3442 463.692 80.8402 463.444C81.3362 463.188 81.9082 463.06 82.5562 463.06C83.2042 463.06 83.7762 463.188 84.2722 463.444C84.7682 463.692 85.1522 464.048 85.4242 464.512C85.7042 464.976 85.8442 465.516 85.8442 466.132C85.8442 466.756 85.7042 467.3 85.4242 467.764C85.1522 468.22 84.7682 468.572 84.2722 468.82C83.7762 469.06 83.2042 469.18 82.5562 469.18ZM82.5562 468.22C83.1802 468.22 83.6762 468.028 84.0442 467.644C84.4122 467.26 84.5962 466.756 84.5962 466.132C84.5962 465.484 84.4122 464.972 84.0442 464.596C83.6762 464.22 83.1802 464.032 82.5562 464.032C81.9322 464.032 81.4362 464.22 81.0682 464.596C80.7002 464.972 80.5162 465.484 80.5162 466.132C80.5162 466.756 80.7002 467.26 81.0682 467.644C81.4362 468.028 81.9322 468.22 82.5562 468.22ZM87.1609 463.24H88.3369V464.068C88.6089 463.724 88.9409 463.472 89.3329 463.312C89.7329 463.144 90.1489 463.06 90.5809 463.06C91.3489 463.06 91.9209 463.264 92.2969 463.672C92.6729 464.08 92.8609 464.628 92.8609 465.316V469H91.6489V465.436C91.6489 464.5 91.2009 464.032 90.3049 464.032C89.9209 464.032 89.5609 464.124 89.2249 464.308C88.8969 464.484 88.6129 464.756 88.3729 465.124V469H87.1609V463.24ZM96.5762 469.18C95.9922 469.18 95.5402 469.012 95.2202 468.676C94.9082 468.34 94.7522 467.864 94.7522 467.248V464.176H93.8762V463.24H94.7522V461.512H95.9762V463.24H97.3922V464.176H95.9762V467.164C95.9762 467.548 96.0482 467.82 96.1922 467.98C96.3442 468.14 96.6162 468.22 97.0082 468.22C97.2402 468.22 97.4722 468.168 97.7042 468.064V469.024C97.4002 469.128 97.0242 469.18 96.5762 469.18ZM98.8445 460.132H100.056V464.032C100.608 463.384 101.344 463.06 102.264 463.06C103.032 463.06 103.604 463.264 103.98 463.672C104.356 464.08 104.544 464.628 104.544 465.316V469H103.332V465.436C103.332 464.5 102.884 464.032 101.988 464.032C101.604 464.032 101.244 464.124 100.908 464.308C100.58 464.484 100.296 464.756 100.056 465.124V469H98.8445V460.132ZM106.04 460.132H107.252V469H106.04V460.132ZM110.041 471.376C109.609 471.376 109.249 471.332 108.961 471.244V470.296C109.169 470.376 109.425 470.416 109.729 470.416C110.009 470.416 110.229 470.344 110.389 470.2C110.549 470.064 110.693 469.84 110.821 469.528L111.097 468.856L108.577 463.24H109.825L111.745 467.668L113.533 463.24H114.781L112.189 469.648C111.949 470.248 111.661 470.684 111.325 470.956C110.997 471.236 110.569 471.376 110.041 471.376ZM120.301 463.24H121.477V464.092C122.069 463.404 122.869 463.06 123.877 463.06C124.453 463.06 124.969 463.188 125.425 463.444C125.889 463.7 126.249 464.06 126.505 464.524C126.769 464.98 126.901 465.512 126.901 466.12C126.901 466.72 126.769 467.252 126.505 467.716C126.249 468.18 125.893 468.54 125.437 468.796C124.981 469.052 124.461 469.18 123.877 469.18C123.397 469.18 122.949 469.1 122.533 468.94C122.117 468.78 121.777 468.544 121.513 468.232V471.628H120.301V463.24ZM123.601 468.22C123.993 468.22 124.345 468.136 124.657 467.968C124.977 467.792 125.225 467.544 125.401 467.224C125.585 466.904 125.677 466.536 125.677 466.12C125.677 465.704 125.585 465.34 125.401 465.028C125.225 464.708 124.977 464.464 124.657 464.296C124.345 464.12 123.993 464.032 123.601 464.032C123.113 464.032 122.681 464.16 122.305 464.416C121.937 464.672 121.673 465.024 121.513 465.472V466.768C121.649 467.208 121.909 467.56 122.293 467.824C122.677 468.088 123.113 468.22 123.601 468.22ZM129.983 469.18C129.287 469.18 128.727 469.004 128.303 468.652C127.887 468.292 127.679 467.808 127.679 467.2C127.679 466.56 127.879 466.068 128.279 465.724C128.687 465.372 129.263 465.196 130.007 465.196C130.799 465.196 131.471 465.356 132.023 465.676V465.376C132.023 464.92 131.883 464.584 131.603 464.368C131.331 464.144 130.899 464.032 130.307 464.032C129.955 464.032 129.611 464.068 129.275 464.14C128.947 464.204 128.651 464.296 128.387 464.416V463.432C128.627 463.32 128.939 463.232 129.323 463.168C129.707 463.096 130.079 463.06 130.439 463.06C131.391 463.06 132.095 463.272 132.551 463.696C133.015 464.112 133.247 464.692 133.247 465.436V469H132.107V468.352C131.859 468.624 131.563 468.832 131.219 468.976C130.883 469.112 130.471 469.18 129.983 469.18ZM130.283 468.256C130.667 468.256 131.015 468.18 131.327 468.028C131.639 467.876 131.871 467.664 132.023 467.392V466.612C131.503 466.276 130.923 466.108 130.283 466.108C129.819 466.108 129.471 466.2 129.239 466.384C129.015 466.56 128.903 466.832 128.903 467.2C128.903 467.904 129.363 468.256 130.283 468.256ZM135.436 471.376C135.004 471.376 134.644 471.332 134.356 471.244V470.296C134.564 470.376 134.82 470.416 135.124 470.416C135.404 470.416 135.624 470.344 135.784 470.2C135.944 470.064 136.088 469.84 136.216 469.528L136.492 468.856L133.972 463.24H135.22L137.14 467.668L138.928 463.24H140.176L137.584 469.648C137.344 470.248 137.056 470.684 136.72 470.956C136.392 471.236 135.964 471.376 135.436 471.376ZM141.255 463.24H142.407V464.068C142.679 463.732 142.987 463.48 143.331 463.312C143.675 463.144 144.031 463.06 144.399 463.06C144.863 463.06 145.231 463.14 145.503 463.3C145.775 463.452 145.975 463.688 146.103 464.008C146.359 463.696 146.671 463.46 147.039 463.3C147.415 463.14 147.791 463.06 148.167 463.06C148.871 463.06 149.379 463.24 149.691 463.6C150.003 463.952 150.159 464.476 150.159 465.172V469H148.983V465.328C148.983 464.856 148.895 464.524 148.719 464.332C148.543 464.132 148.243 464.032 147.819 464.032C147.211 464.032 146.715 464.296 146.331 464.824C146.347 464.944 146.355 465.14 146.355 465.412V469H145.179V465.328C145.179 464.856 145.099 464.524 144.939 464.332C144.779 464.132 144.491 464.032 144.075 464.032C143.467 464.032 142.923 464.376 142.443 465.064V469H141.255V463.24ZM154.829 469.18C153.765 469.18 152.929 468.916 152.321 468.388C151.721 467.852 151.421 467.1 151.421 466.132C151.421 465.188 151.689 464.44 152.225 463.888C152.769 463.336 153.541 463.06 154.541 463.06C155.205 463.06 155.769 463.188 156.233 463.444C156.697 463.692 157.045 464.04 157.277 464.488C157.517 464.928 157.637 465.432 157.637 466V466.6H152.573C152.613 467.144 152.841 467.552 153.257 467.824C153.681 468.088 154.253 468.22 154.973 468.22C155.341 468.22 155.713 468.188 156.089 468.124C156.465 468.052 156.797 467.96 157.085 467.848V468.82C156.829 468.924 156.489 469.008 156.065 469.072C155.649 469.144 155.237 469.18 154.829 469.18ZM156.497 465.748C156.481 465.204 156.301 464.784 155.957 464.488C155.621 464.184 155.141 464.032 154.517 464.032C153.909 464.032 153.437 464.188 153.101 464.5C152.765 464.812 152.589 465.228 152.573 465.748H156.497ZM158.962 463.24H160.138V464.068C160.41 463.724 160.742 463.472 161.134 463.312C161.534 463.144 161.95 463.06 162.382 463.06C163.15 463.06 163.722 463.264 164.098 463.672C164.474 464.08 164.662 464.628 164.662 465.316V469H163.45V465.436C163.45 464.5 163.002 464.032 162.106 464.032C161.722 464.032 161.362 464.124 161.026 464.308C160.698 464.484 160.414 464.756 160.174 465.124V469H158.962V463.24ZM168.377 469.18C167.793 469.18 167.341 469.012 167.021 468.676C166.709 468.34 166.553 467.864 166.553 467.248V464.176H165.677V463.24H166.553V461.512H167.777V463.24H169.193V464.176H167.777V467.164C167.777 467.548 167.849 467.82 167.993 467.98C168.145 468.14 168.417 468.22 168.809 468.22C169.041 468.22 169.273 468.168 169.505 468.064V469.024C169.201 469.128 168.825 469.18 168.377 469.18ZM172.535 469.18C172.135 469.18 171.711 469.128 171.263 469.024C170.815 468.928 170.463 468.796 170.207 468.628V467.596C170.519 467.78 170.879 467.932 171.287 468.052C171.695 468.164 172.091 468.22 172.475 468.22C172.907 468.22 173.223 468.168 173.423 468.064C173.623 467.96 173.723 467.792 173.723 467.56C173.723 467.384 173.675 467.244 173.579 467.14C173.491 467.028 173.335 466.928 173.111 466.84C172.895 466.752 172.567 466.648 172.127 466.528C171.655 466.392 171.279 466.256 170.999 466.12C170.727 465.976 170.519 465.796 170.375 465.58C170.239 465.364 170.171 465.084 170.171 464.74C170.171 464.188 170.387 463.772 170.819 463.492C171.259 463.204 171.847 463.06 172.583 463.06C172.967 463.06 173.343 463.096 173.711 463.168C174.079 463.24 174.375 463.34 174.599 463.468V464.476C174.367 464.34 174.079 464.232 173.735 464.152C173.399 464.072 173.055 464.032 172.703 464.032C172.279 464.032 171.955 464.084 171.731 464.188C171.507 464.292 171.395 464.476 171.395 464.74C171.395 464.908 171.443 465.044 171.539 465.148C171.635 465.252 171.787 465.344 171.995 465.424C172.211 465.496 172.551 465.592 173.015 465.712C173.743 465.912 174.247 466.148 174.527 466.42C174.815 466.692 174.959 467.068 174.959 467.548C174.959 468.044 174.755 468.44 174.347 468.736C173.939 469.032 173.335 469.18 172.535 469.18ZM182.787 469.18C182.091 469.18 181.531 469.004 181.107 468.652C180.691 468.292 180.483 467.808 180.483 467.2C180.483 466.56 180.683 466.068 181.083 465.724C181.491 465.372 182.067 465.196 182.811 465.196C183.603 465.196 184.275 465.356 184.827 465.676V465.376C184.827 464.92 184.687 464.584 184.407 464.368C184.135 464.144 183.703 464.032 183.111 464.032C182.759 464.032 182.415 464.068 182.079 464.14C181.751 464.204 181.455 464.296 181.191 464.416V463.432C181.431 463.32 181.743 463.232 182.127 463.168C182.511 463.096 182.883 463.06 183.243 463.06C184.195 463.06 184.899 463.272 185.355 463.696C185.819 464.112 186.051 464.692 186.051 465.436V469H184.911V468.352C184.663 468.624 184.367 468.832 184.023 468.976C183.687 469.112 183.275 469.18 182.787 469.18ZM183.087 468.256C183.471 468.256 183.819 468.18 184.131 468.028C184.443 467.876 184.675 467.664 184.827 467.392V466.612C184.307 466.276 183.727 466.108 183.087 466.108C182.623 466.108 182.275 466.2 182.043 466.384C181.819 466.56 181.707 466.832 181.707 467.2C181.707 467.904 182.167 468.256 183.087 468.256ZM187.555 463.24H188.731V464.272C188.971 463.92 189.307 463.66 189.739 463.492C190.179 463.324 190.687 463.24 191.263 463.24V464.188C190.647 464.188 190.119 464.288 189.679 464.488C189.239 464.688 188.935 465.004 188.767 465.436V469H187.555V463.24ZM195.153 469.18C194.089 469.18 193.253 468.916 192.645 468.388C192.045 467.852 191.745 467.1 191.745 466.132C191.745 465.188 192.013 464.44 192.549 463.888C193.093 463.336 193.865 463.06 194.865 463.06C195.529 463.06 196.093 463.188 196.557 463.444C197.021 463.692 197.369 464.04 197.601 464.488C197.841 464.928 197.961 465.432 197.961 466V466.6H192.897C192.937 467.144 193.165 467.552 193.581 467.824C194.005 468.088 194.577 468.22 195.297 468.22C195.665 468.22 196.037 468.188 196.413 468.124C196.789 468.052 197.121 467.96 197.409 467.848V468.82C197.153 468.924 196.813 469.008 196.389 469.072C195.973 469.144 195.561 469.18 195.153 469.18ZM196.821 465.748C196.805 465.204 196.625 464.784 196.281 464.488C195.945 464.184 195.465 464.032 194.841 464.032C194.233 464.032 193.761 464.188 193.425 464.5C193.089 464.812 192.913 465.228 192.897 465.748H196.821ZM203.727 463.24H204.879V464.068C205.151 463.732 205.459 463.48 205.803 463.312C206.147 463.144 206.503 463.06 206.871 463.06C207.335 463.06 207.703 463.14 207.975 463.3C208.247 463.452 208.447 463.688 208.575 464.008C208.831 463.696 209.143 463.46 209.511 463.3C209.887 463.14 210.263 463.06 210.639 463.06C211.343 463.06 211.851 463.24 212.163 463.6C212.475 463.952 212.631 464.476 212.631 465.172V469H211.455V465.328C211.455 464.856 211.367 464.524 211.191 464.332C211.015 464.132 210.715 464.032 210.291 464.032C209.683 464.032 209.187 464.296 208.803 464.824C208.819 464.944 208.827 465.14 208.827 465.412V469H207.651V465.328C207.651 464.856 207.571 464.524 207.411 464.332C207.251 464.132 206.963 464.032 206.547 464.032C205.939 464.032 205.395 464.376 204.915 465.064V469H203.727V463.24ZM216.022 469.18C215.326 469.18 214.766 469.004 214.342 468.652C213.926 468.292 213.718 467.808 213.718 467.2C213.718 466.56 213.918 466.068 214.318 465.724C214.726 465.372 215.302 465.196 216.046 465.196C216.838 465.196 217.51 465.356 218.062 465.676V465.376C218.062 464.92 217.922 464.584 217.642 464.368C217.37 464.144 216.938 464.032 216.346 464.032C215.994 464.032 215.65 464.068 215.314 464.14C214.986 464.204 214.69 464.296 214.426 464.416V463.432C214.666 463.32 214.978 463.232 215.362 463.168C215.746 463.096 216.118 463.06 216.478 463.06C217.43 463.06 218.134 463.272 218.59 463.696C219.054 464.112 219.286 464.692 219.286 465.436V469H218.146V468.352C217.898 468.624 217.602 468.832 217.258 468.976C216.922 469.112 216.51 469.18 216.022 469.18ZM216.322 468.256C216.706 468.256 217.054 468.18 217.366 468.028C217.678 467.876 217.91 467.664 218.062 467.392V466.612C217.542 466.276 216.962 466.108 216.322 466.108C215.858 466.108 215.51 466.2 215.278 466.384C215.054 466.56 214.942 466.832 214.942 467.2C214.942 467.904 215.402 468.256 216.322 468.256ZM223.574 469.18C222.998 469.18 222.478 469.056 222.014 468.808C221.558 468.552 221.198 468.196 220.934 467.74C220.678 467.276 220.55 466.74 220.55 466.132C220.55 465.532 220.678 465 220.934 464.536C221.198 464.072 221.558 463.712 222.014 463.456C222.478 463.192 222.998 463.06 223.574 463.06C224.614 463.06 225.402 463.376 225.938 464.008V460.132H227.15V469H225.974V468.16C225.654 468.512 225.302 468.772 224.918 468.94C224.542 469.1 224.094 469.18 223.574 469.18ZM223.85 468.22C224.346 468.22 224.778 468.092 225.146 467.836C225.522 467.572 225.786 467.22 225.938 466.78V465.484C225.802 465.044 225.542 464.692 225.158 464.428C224.782 464.164 224.346 464.032 223.85 464.032C223.458 464.032 223.102 464.12 222.782 464.296C222.47 464.472 222.222 464.72 222.038 465.04C221.862 465.36 221.774 465.724 221.774 466.132C221.774 466.54 221.862 466.904 222.038 467.224C222.222 467.544 222.47 467.792 222.782 467.968C223.102 468.136 223.458 468.22 223.85 468.22ZM231.88 469.18C230.816 469.18 229.98 468.916 229.372 468.388C228.772 467.852 228.472 467.1 228.472 466.132C228.472 465.188 228.74 464.44 229.276 463.888C229.82 463.336 230.592 463.06 231.592 463.06C232.256 463.06 232.82 463.188 233.284 463.444C233.748 463.692 234.096 464.04 234.328 464.488C234.568 464.928 234.688 465.432 234.688 466V466.6H229.624C229.664 467.144 229.892 467.552 230.308 467.824C230.732 468.088 231.304 468.22 232.024 468.22C232.392 468.22 232.764 468.188 233.14 468.124C233.516 468.052 233.848 467.96 234.136 467.848V468.82C233.88 468.924 233.54 469.008 233.116 469.072C232.7 469.144 232.288 469.18 231.88 469.18ZM233.548 465.748C233.532 465.204 233.352 464.784 233.008 464.488C232.672 464.184 232.192 464.032 231.568 464.032C230.96 464.032 230.488 464.188 230.152 464.5C229.816 464.812 229.64 465.228 229.624 465.748H233.548ZM240.454 460.132H241.666V469H240.454V460.132ZM245.295 469.18C244.599 469.18 244.039 469.004 243.615 468.652C243.199 468.292 242.991 467.808 242.991 467.2C242.991 466.56 243.191 466.068 243.591 465.724C243.999 465.372 244.575 465.196 245.319 465.196C246.111 465.196 246.783 465.356 247.335 465.676V465.376C247.335 464.92 247.195 464.584 246.915 464.368C246.643 464.144 246.211 464.032 245.619 464.032C245.267 464.032 244.923 464.068 244.587 464.14C244.259 464.204 243.963 464.296 243.699 464.416V463.432C243.939 463.32 244.251 463.232 244.635 463.168C245.019 463.096 245.391 463.06 245.751 463.06C246.703 463.06 247.407 463.272 247.863 463.696C248.327 464.112 248.559 464.692 248.559 465.436V469H247.419V468.352C247.171 468.624 246.875 468.832 246.531 468.976C246.195 469.112 245.783 469.18 245.295 469.18ZM245.595 468.256C245.979 468.256 246.327 468.18 246.639 468.028C246.951 467.876 247.183 467.664 247.335 467.392V466.612C246.815 466.276 246.235 466.108 245.595 466.108C245.131 466.108 244.783 466.2 244.551 466.384C244.327 466.56 244.215 466.832 244.215 467.2C244.215 467.904 244.675 468.256 245.595 468.256ZM251.979 469.18C251.395 469.18 250.943 469.012 250.623 468.676C250.311 468.34 250.155 467.864 250.155 467.248V464.176H249.279V463.24H250.155V461.512H251.379V463.24H252.795V464.176H251.379V467.164C251.379 467.548 251.451 467.82 251.595 467.98C251.747 468.14 252.019 468.22 252.411 468.22C252.643 468.22 252.875 468.168 253.107 468.064V469.024C252.803 469.128 252.427 469.18 251.979 469.18ZM257.415 469.18C256.351 469.18 255.515 468.916 254.907 468.388C254.307 467.852 254.007 467.1 254.007 466.132C254.007 465.188 254.275 464.44 254.811 463.888C255.355 463.336 256.127 463.06 257.127 463.06C257.791 463.06 258.355 463.188 258.819 463.444C259.283 463.692 259.631 464.04 259.863 464.488C260.103 464.928 260.223 465.432 260.223 466V466.6H255.159C255.199 467.144 255.427 467.552 255.843 467.824C256.267 468.088 256.839 468.22 257.559 468.22C257.927 468.22 258.299 468.188 258.675 468.124C259.051 468.052 259.383 467.96 259.671 467.848V468.82C259.415 468.924 259.075 469.008 258.651 469.072C258.235 469.144 257.823 469.18 257.415 469.18ZM259.083 465.748C259.067 465.204 258.887 464.784 258.543 464.488C258.207 464.184 257.727 464.032 257.103 464.032C256.495 464.032 256.023 464.188 255.687 464.5C255.351 464.812 255.175 465.228 255.159 465.748H259.083ZM261.548 463.24H262.724V464.272C262.964 463.92 263.3 463.66 263.732 463.492C264.172 463.324 264.68 463.24 265.256 463.24V464.188C264.64 464.188 264.112 464.288 263.672 464.488C263.232 464.688 262.928 465.004 262.76 465.436V469H261.548V463.24ZM273.002 469.18C272.418 469.18 271.966 469.012 271.646 468.676C271.334 468.34 271.178 467.864 271.178 467.248V464.176H270.302V463.24H271.178V461.512H272.402V463.24H273.818V464.176H272.402V467.164C272.402 467.548 272.474 467.82 272.618 467.98C272.77 468.14 273.042 468.22 273.434 468.22C273.666 468.22 273.898 468.168 274.13 468.064V469.024C273.826 469.128 273.45 469.18 273.002 469.18ZM275.27 460.132H276.482V464.032C277.034 463.384 277.77 463.06 278.69 463.06C279.458 463.06 280.03 463.264 280.406 463.672C280.782 464.08 280.97 464.628 280.97 465.316V469H279.758V465.436C279.758 464.5 279.31 464.032 278.414 464.032C278.03 464.032 277.67 464.124 277.334 464.308C277.006 464.484 276.722 464.756 276.482 465.124V469H275.27V460.132ZM284.354 469.18C283.658 469.18 283.098 469.004 282.674 468.652C282.258 468.292 282.05 467.808 282.05 467.2C282.05 466.56 282.25 466.068 282.65 465.724C283.058 465.372 283.634 465.196 284.378 465.196C285.17 465.196 285.842 465.356 286.394 465.676V465.376C286.394 464.92 286.254 464.584 285.974 464.368C285.702 464.144 285.27 464.032 284.678 464.032C284.326 464.032 283.982 464.068 283.646 464.14C283.318 464.204 283.022 464.296 282.758 464.416V463.432C282.998 463.32 283.31 463.232 283.694 463.168C284.078 463.096 284.45 463.06 284.81 463.06C285.762 463.06 286.466 463.272 286.922 463.696C287.386 464.112 287.618 464.692 287.618 465.436V469H286.478V468.352C286.23 468.624 285.934 468.832 285.59 468.976C285.254 469.112 284.842 469.18 284.354 469.18ZM284.654 468.256C285.038 468.256 285.386 468.18 285.698 468.028C286.01 467.876 286.242 467.664 286.394 467.392V466.612C285.874 466.276 285.294 466.108 284.654 466.108C284.19 466.108 283.842 466.2 283.61 466.384C283.386 466.56 283.274 466.832 283.274 467.2C283.274 467.904 283.734 468.256 284.654 468.256ZM289.122 463.24H290.298V464.068C290.57 463.724 290.902 463.472 291.294 463.312C291.694 463.144 292.11 463.06 292.542 463.06C293.31 463.06 293.882 463.264 294.258 463.672C294.634 464.08 294.822 464.628 294.822 465.316V469H293.61V465.436C293.61 464.5 293.162 464.032 292.266 464.032C291.882 464.032 291.522 464.124 291.186 464.308C290.858 464.484 290.574 464.756 290.334 465.124V469H289.122V463.24ZM302.979 469.18C302.395 469.18 301.943 469.012 301.623 468.676C301.311 468.34 301.155 467.864 301.155 467.248V464.176H300.279V463.24H301.155V461.512H302.379V463.24H303.795V464.176H302.379V467.164C302.379 467.548 302.451 467.82 302.595 467.98C302.747 468.14 303.019 468.22 303.411 468.22C303.643 468.22 303.875 468.168 304.107 468.064V469.024C303.803 469.128 303.427 469.18 302.979 469.18ZM305.247 460.132H306.459V464.032C307.011 463.384 307.747 463.06 308.667 463.06C309.435 463.06 310.007 463.264 310.383 463.672C310.759 464.08 310.947 464.628 310.947 465.316V469H309.735V465.436C309.735 464.5 309.287 464.032 308.391 464.032C308.007 464.032 307.647 464.124 307.311 464.308C306.983 464.484 306.699 464.756 306.459 465.124V469H305.247V460.132ZM315.61 469.18C314.546 469.18 313.71 468.916 313.102 468.388C312.502 467.852 312.202 467.1 312.202 466.132C312.202 465.188 312.47 464.44 313.006 463.888C313.55 463.336 314.322 463.06 315.322 463.06C315.986 463.06 316.55 463.188 317.014 463.444C317.478 463.692 317.826 464.04 318.058 464.488C318.298 464.928 318.418 465.432 318.418 466V466.6H313.354C313.394 467.144 313.622 467.552 314.038 467.824C314.462 468.088 315.034 468.22 315.754 468.22C316.122 468.22 316.494 468.188 316.87 468.124C317.246 468.052 317.578 467.96 317.866 467.848V468.82C317.61 468.924 317.27 469.008 316.846 469.072C316.43 469.144 316.018 469.18 315.61 469.18ZM317.278 465.748C317.262 465.204 317.082 464.784 316.738 464.488C316.402 464.184 315.922 464.032 315.298 464.032C314.69 464.032 314.218 464.188 313.882 464.5C313.546 464.812 313.37 465.228 313.354 465.748H317.278ZM60.5586 487.18C59.9746 487.18 59.5226 487.012 59.2026 486.676C58.8906 486.34 58.7346 485.864 58.7346 485.248V482.176H57.8586V481.24H58.7346V479.512H59.9586V481.24H61.3746V482.176H59.9586V485.164C59.9586 485.548 60.0306 485.82 60.1746 485.98C60.3266 486.14 60.5986 486.22 60.9906 486.22C61.2226 486.22 61.4546 486.168 61.6866 486.064V487.024C61.3826 487.128 61.0066 487.18 60.5586 487.18ZM62.8269 478.132H64.0389V482.032C64.5909 481.384 65.3269 481.06 66.2469 481.06C67.0149 481.06 67.5869 481.264 67.9629 481.672C68.3389 482.08 68.5269 482.628 68.5269 483.316V487H67.3149V483.436C67.3149 482.5 66.8669 482.032 65.9709 482.032C65.5869 482.032 65.2269 482.124 64.8909 482.308C64.5629 482.484 64.2789 482.756 64.0389 483.124V487H62.8269V478.132ZM70.7302 480.112C70.5302 480.112 70.3622 480.044 70.2262 479.908C70.0902 479.772 70.0222 479.604 70.0222 479.404C70.0222 479.204 70.0902 479.036 70.2262 478.9C70.3622 478.764 70.5302 478.696 70.7302 478.696C70.9382 478.696 71.1102 478.764 71.2462 478.9C71.3902 479.036 71.4622 479.204 71.4622 479.404C71.4622 479.604 71.3902 479.772 71.2462 479.908C71.1102 480.044 70.9382 480.112 70.7302 480.112ZM70.1182 481.24H71.3542V487H70.1182V481.24ZM73.0222 481.24H74.1982V482.272C74.4382 481.92 74.7742 481.66 75.2062 481.492C75.6462 481.324 76.1542 481.24 76.7302 481.24V482.188C76.1142 482.188 75.5862 482.288 75.1462 482.488C74.7062 482.688 74.4022 483.004 74.2342 483.436V487H73.0222V481.24ZM80.4234 487.18C79.8474 487.18 79.3274 487.056 78.8634 486.808C78.4074 486.552 78.0474 486.196 77.7834 485.74C77.5274 485.276 77.3994 484.74 77.3994 484.132C77.3994 483.532 77.5274 483 77.7834 482.536C78.0474 482.072 78.4074 481.712 78.8634 481.456C79.3274 481.192 79.8474 481.06 80.4234 481.06C81.4634 481.06 82.2514 481.376 82.7874 482.008V478.132H83.9994V487H82.8234V486.16C82.5034 486.512 82.1514 486.772 81.7674 486.94C81.3914 487.1 80.9434 487.18 80.4234 487.18ZM80.6994 486.22C81.1954 486.22 81.6274 486.092 81.9954 485.836C82.3714 485.572 82.6354 485.22 82.7874 484.78V483.484C82.6514 483.044 82.3914 482.692 82.0074 482.428C81.6314 482.164 81.1954 482.032 80.6994 482.032C80.3074 482.032 79.9514 482.12 79.6314 482.296C79.3194 482.472 79.0714 482.72 78.8874 483.04C78.7114 483.36 78.6234 483.724 78.6234 484.132C78.6234 484.54 78.7114 484.904 78.8874 485.224C79.0714 485.544 79.3194 485.792 79.6314 485.968C79.9514 486.136 80.3074 486.22 80.6994 486.22ZM92.7867 487.18C92.2107 487.18 91.6907 487.056 91.2267 486.808C90.7707 486.552 90.4107 486.196 90.1467 485.74C89.8907 485.276 89.7627 484.74 89.7627 484.132C89.7627 483.532 89.8907 483 90.1467 482.536C90.4107 482.072 90.7707 481.712 91.2267 481.456C91.6907 481.192 92.2107 481.06 92.7867 481.06C93.8267 481.06 94.6147 481.376 95.1507 482.008V478.132H96.3627V487H95.1867V486.16C94.8667 486.512 94.5147 486.772 94.1307 486.94C93.7547 487.1 93.3067 487.18 92.7867 487.18ZM93.0627 486.22C93.5587 486.22 93.9907 486.092 94.3587 485.836C94.7347 485.572 94.9987 485.22 95.1507 484.78V483.484C95.0147 483.044 94.7547 482.692 94.3707 482.428C93.9947 482.164 93.5587 482.032 93.0627 482.032C92.6707 482.032 92.3147 482.12 91.9947 482.296C91.6827 482.472 91.4347 482.72 91.2507 483.04C91.0747 483.36 90.9867 483.724 90.9867 484.132C90.9867 484.54 91.0747 484.904 91.2507 485.224C91.4347 485.544 91.6827 485.792 91.9947 485.968C92.3147 486.136 92.6707 486.22 93.0627 486.22ZM99.8128 487.18C99.1168 487.18 98.5568 487.004 98.1328 486.652C97.7168 486.292 97.5088 485.808 97.5088 485.2C97.5088 484.56 97.7088 484.068 98.1088 483.724C98.5168 483.372 99.0928 483.196 99.8368 483.196C100.629 483.196 101.301 483.356 101.853 483.676V483.376C101.853 482.92 101.713 482.584 101.433 482.368C101.161 482.144 100.729 482.032 100.137 482.032C99.7848 482.032 99.4408 482.068 99.1048 482.14C98.7768 482.204 98.4808 482.296 98.2168 482.416V481.432C98.4568 481.32 98.7688 481.232 99.1528 481.168C99.5368 481.096 99.9088 481.06 100.269 481.06C101.221 481.06 101.925 481.272 102.381 481.696C102.845 482.112 103.077 482.692 103.077 483.436V487H101.937V486.352C101.689 486.624 101.393 486.832 101.049 486.976C100.713 487.112 100.301 487.18 99.8128 487.18ZM100.113 486.256C100.497 486.256 100.845 486.18 101.157 486.028C101.469 485.876 101.701 485.664 101.853 485.392V484.612C101.333 484.276 100.753 484.108 100.113 484.108C99.6488 484.108 99.3008 484.2 99.0688 484.384C98.8448 484.56 98.7327 484.832 98.7327 485.2C98.7327 485.904 99.1928 486.256 100.113 486.256ZM105.266 489.376C104.834 489.376 104.474 489.332 104.186 489.244V488.296C104.394 488.376 104.65 488.416 104.954 488.416C105.234 488.416 105.454 488.344 105.614 488.2C105.774 488.064 105.918 487.84 106.046 487.528L106.322 486.856L103.802 481.24H105.05L106.97 485.668L108.758 481.24H110.006L107.414 487.648C107.174 488.248 106.886 488.684 106.55 488.956C106.222 489.236 105.794 489.376 105.266 489.376ZM118.562 487.18C117.914 487.18 117.342 487.06 116.846 486.82C116.358 486.572 115.974 486.22 115.694 485.764C115.422 485.3 115.286 484.756 115.286 484.132C115.286 483.516 115.422 482.976 115.694 482.512C115.966 482.048 116.35 481.692 116.846 481.444C117.342 481.188 117.914 481.06 118.562 481.06C119.21 481.06 119.782 481.188 120.278 481.444C120.774 481.692 121.158 482.048 121.43 482.512C121.71 482.976 121.85 483.516 121.85 484.132C121.85 484.756 121.71 485.3 121.43 485.764C121.158 486.22 120.774 486.572 120.278 486.82C119.782 487.06 119.21 487.18 118.562 487.18ZM118.562 486.22C119.186 486.22 119.682 486.028 120.05 485.644C120.418 485.26 120.602 484.756 120.602 484.132C120.602 483.484 120.418 482.972 120.05 482.596C119.682 482.22 119.186 482.032 118.562 482.032C117.938 482.032 117.442 482.22 117.074 482.596C116.706 482.972 116.522 483.484 116.522 484.132C116.522 484.756 116.706 485.26 117.074 485.644C117.442 486.028 117.938 486.22 118.562 486.22ZM123.141 482.176H122.265V481.24H123.141V480.112C123.141 479.448 123.329 478.944 123.705 478.6C124.081 478.248 124.585 478.072 125.217 478.072C125.545 478.072 125.853 478.12 126.141 478.216V479.224C125.917 479.12 125.685 479.068 125.445 479.068C125.069 479.068 124.793 479.16 124.617 479.344C124.441 479.52 124.353 479.8 124.353 480.184V481.24H125.793V482.176H124.353V487H123.141V482.176ZM133.481 487.18C132.785 487.18 132.225 487.004 131.801 486.652C131.385 486.292 131.177 485.808 131.177 485.2C131.177 484.56 131.377 484.068 131.777 483.724C132.185 483.372 132.761 483.196 133.505 483.196C134.297 483.196 134.969 483.356 135.521 483.676V483.376C135.521 482.92 135.381 482.584 135.101 482.368C134.829 482.144 134.397 482.032 133.805 482.032C133.453 482.032 133.109 482.068 132.773 482.14C132.445 482.204 132.149 482.296 131.885 482.416V481.432C132.125 481.32 132.437 481.232 132.821 481.168C133.205 481.096 133.577 481.06 133.937 481.06C134.889 481.06 135.593 481.272 136.049 481.696C136.513 482.112 136.745 482.692 136.745 483.436V487H135.605V486.352C135.357 486.624 135.061 486.832 134.717 486.976C134.381 487.112 133.969 487.18 133.481 487.18ZM133.781 486.256C134.165 486.256 134.513 486.18 134.825 486.028C135.137 485.876 135.369 485.664 135.521 485.392V484.612C135.001 484.276 134.421 484.108 133.781 484.108C133.317 484.108 132.969 484.2 132.737 484.384C132.513 484.56 132.401 484.832 132.401 485.2C132.401 485.904 132.861 486.256 133.781 486.256ZM138.249 481.24H139.425V482.068C139.697 481.724 140.029 481.472 140.421 481.312C140.821 481.144 141.237 481.06 141.669 481.06C142.437 481.06 143.009 481.264 143.385 481.672C143.761 482.08 143.949 482.628 143.949 483.316V487H142.737V483.436C142.737 482.5 142.289 482.032 141.393 482.032C141.009 482.032 140.649 482.124 140.313 482.308C139.985 482.484 139.701 482.756 139.461 483.124V487H138.249V481.24ZM146.129 489.376C145.697 489.376 145.337 489.332 145.049 489.244V488.296C145.257 488.376 145.513 488.416 145.817 488.416C146.097 488.416 146.317 488.344 146.477 488.2C146.637 488.064 146.781 487.84 146.909 487.528L147.185 486.856L144.665 481.24H145.913L147.833 485.668L149.621 481.24H150.869L148.277 487.648C148.037 488.248 147.749 488.684 147.413 488.956C147.085 489.236 146.657 489.376 146.129 489.376ZM156.389 481.24H157.541V482.068C157.813 481.732 158.121 481.48 158.465 481.312C158.809 481.144 159.165 481.06 159.533 481.06C159.997 481.06 160.365 481.14 160.637 481.3C160.909 481.452 161.109 481.688 161.237 482.008C161.493 481.696 161.805 481.46 162.173 481.3C162.549 481.14 162.925 481.06 163.301 481.06C164.005 481.06 164.513 481.24 164.825 481.6C165.137 481.952 165.293 482.476 165.293 483.172V487H164.117V483.328C164.117 482.856 164.029 482.524 163.853 482.332C163.677 482.132 163.377 482.032 162.953 482.032C162.345 482.032 161.849 482.296 161.465 482.824C161.481 482.944 161.489 483.14 161.489 483.412V487H160.313V483.328C160.313 482.856 160.233 482.524 160.073 482.332C159.913 482.132 159.625 482.032 159.209 482.032C158.601 482.032 158.057 482.376 157.577 483.064V487H156.389V481.24ZM169.656 487.18C169.008 487.18 168.436 487.06 167.94 486.82C167.452 486.572 167.068 486.22 166.788 485.764C166.516 485.3 166.38 484.756 166.38 484.132C166.38 483.516 166.516 482.976 166.788 482.512C167.06 482.048 167.444 481.692 167.94 481.444C168.436 481.188 169.008 481.06 169.656 481.06C170.304 481.06 170.876 481.188 171.372 481.444C171.868 481.692 172.252 482.048 172.524 482.512C172.804 482.976 172.944 483.516 172.944 484.132C172.944 484.756 172.804 485.3 172.524 485.764C172.252 486.22 171.868 486.572 171.372 486.82C170.876 487.06 170.304 487.18 169.656 487.18ZM169.656 486.22C170.28 486.22 170.776 486.028 171.144 485.644C171.512 485.26 171.696 484.756 171.696 484.132C171.696 483.484 171.512 482.972 171.144 482.596C170.776 482.22 170.28 482.032 169.656 482.032C169.032 482.032 168.536 482.22 168.168 482.596C167.8 482.972 167.616 483.484 167.616 484.132C167.616 484.756 167.8 485.26 168.168 485.644C168.536 486.028 169.032 486.22 169.656 486.22ZM174.26 481.24H175.436V482.068C175.708 481.724 176.04 481.472 176.432 481.312C176.832 481.144 177.248 481.06 177.68 481.06C178.448 481.06 179.02 481.264 179.396 481.672C179.772 482.08 179.96 482.628 179.96 483.316V487H178.748V483.436C178.748 482.5 178.3 482.032 177.404 482.032C177.02 482.032 176.66 482.124 176.324 482.308C175.996 482.484 175.712 482.756 175.472 483.124V487H174.26V481.24ZM183.676 487.18C183.092 487.18 182.64 487.012 182.32 486.676C182.008 486.34 181.852 485.864 181.852 485.248V482.176H180.976V481.24H181.852V479.512H183.076V481.24H184.492V482.176H183.076V485.164C183.076 485.548 183.148 485.82 183.292 485.98C183.444 486.14 183.716 486.22 184.108 486.22C184.34 486.22 184.572 486.168 184.804 486.064V487.024C184.5 487.128 184.124 487.18 183.676 487.18ZM185.944 478.132H187.156V482.032C187.708 481.384 188.444 481.06 189.364 481.06C190.132 481.06 190.704 481.264 191.08 481.672C191.456 482.08 191.644 482.628 191.644 483.316V487H190.432V483.436C190.432 482.5 189.984 482.032 189.088 482.032C188.704 482.032 188.344 482.124 188.008 482.308C187.68 482.484 187.396 482.756 187.156 483.124V487H185.944V478.132ZM193.871 486.364H195.143L194.003 488.776H192.899L193.871 486.364ZM203.129 487.18C202.545 487.18 202.093 487.012 201.773 486.676C201.461 486.34 201.305 485.864 201.305 485.248V482.176H200.429V481.24H201.305V479.512H202.529V481.24H203.945V482.176H202.529V485.164C202.529 485.548 202.601 485.82 202.745 485.98C202.897 486.14 203.169 486.22 203.561 486.22C203.793 486.22 204.025 486.168 204.257 486.064V487.024C203.953 487.128 203.577 487.18 203.129 487.18ZM205.397 478.132H206.609V482.032C207.161 481.384 207.897 481.06 208.817 481.06C209.585 481.06 210.157 481.264 210.533 481.672C210.909 482.08 211.097 482.628 211.097 483.316V487H209.885V483.436C209.885 482.5 209.437 482.032 208.541 482.032C208.157 482.032 207.797 482.124 207.461 482.308C207.133 482.484 206.849 482.756 206.609 483.124V487H205.397V478.132ZM215.761 487.18C214.697 487.18 213.861 486.916 213.253 486.388C212.653 485.852 212.353 485.1 212.353 484.132C212.353 483.188 212.621 482.44 213.157 481.888C213.701 481.336 214.473 481.06 215.473 481.06C216.137 481.06 216.701 481.188 217.165 481.444C217.629 481.692 217.977 482.04 218.209 482.488C218.449 482.928 218.569 483.432 218.569 484V484.6H213.505C213.545 485.144 213.773 485.552 214.189 485.824C214.613 486.088 215.185 486.22 215.905 486.22C216.273 486.22 216.645 486.188 217.021 486.124C217.397 486.052 217.729 485.96 218.017 485.848V486.82C217.761 486.924 217.421 487.008 216.997 487.072C216.581 487.144 216.169 487.18 215.761 487.18ZM217.429 483.748C217.413 483.204 217.233 482.784 216.889 482.488C216.553 482.184 216.073 482.032 215.449 482.032C214.841 482.032 214.369 482.188 214.033 482.5C213.697 482.812 213.521 483.228 213.505 483.748H217.429ZM219.893 481.24H221.069V482.068C221.341 481.724 221.673 481.472 222.065 481.312C222.465 481.144 222.881 481.06 223.313 481.06C224.081 481.06 224.653 481.264 225.029 481.672C225.405 482.08 225.593 482.628 225.593 483.316V487H224.381V483.436C224.381 482.5 223.933 482.032 223.037 482.032C222.653 482.032 222.293 482.124 221.957 482.308C221.629 482.484 221.345 482.756 221.105 483.124V487H219.893V481.24ZM231.29 481.24H232.526L233.822 485.512L235.106 481.24H236.198L237.482 485.512L238.778 481.24H240.026L238.154 487H236.99L235.658 482.704L234.326 487H233.15L231.29 481.24ZM244.155 487.18C243.091 487.18 242.255 486.916 241.647 486.388C241.047 485.852 240.747 485.1 240.747 484.132C240.747 483.188 241.015 482.44 241.551 481.888C242.095 481.336 242.867 481.06 243.867 481.06C244.531 481.06 245.095 481.188 245.559 481.444C246.023 481.692 246.371 482.04 246.603 482.488C246.843 482.928 246.963 483.432 246.963 484V484.6H241.899C241.939 485.144 242.167 485.552 242.583 485.824C243.007 486.088 243.579 486.22 244.299 486.22C244.667 486.22 245.039 486.188 245.415 486.124C245.791 486.052 246.123 485.96 246.411 485.848V486.82C246.155 486.924 245.815 487.008 245.391 487.072C244.975 487.144 244.563 487.18 244.155 487.18ZM245.823 483.748C245.807 483.204 245.627 482.784 245.283 482.488C244.947 482.184 244.467 482.032 243.843 482.032C243.235 482.032 242.763 482.188 242.427 482.5C242.091 482.812 241.915 483.228 241.899 483.748H245.823ZM252.489 481.24H253.725L255.021 485.512L256.305 481.24H257.397L258.681 485.512L259.977 481.24H261.225L259.353 487H258.189L256.857 482.704L255.525 487H254.349L252.489 481.24ZM263.258 480.112C263.058 480.112 262.89 480.044 262.754 479.908C262.618 479.772 262.55 479.604 262.55 479.404C262.55 479.204 262.618 479.036 262.754 478.9C262.89 478.764 263.058 478.696 263.258 478.696C263.466 478.696 263.638 478.764 263.774 478.9C263.918 479.036 263.99 479.204 263.99 479.404C263.99 479.604 263.918 479.772 263.774 479.908C263.638 480.044 263.466 480.112 263.258 480.112ZM262.646 481.24H263.882V487H262.646V481.24ZM265.55 478.132H266.762V487H265.55V478.132ZM268.327 478.132H269.539V487H268.327V478.132ZM275.546 478.132H276.758V482.032C277.31 481.384 278.046 481.06 278.966 481.06C279.734 481.06 280.306 481.264 280.682 481.672C281.058 482.08 281.246 482.628 281.246 483.316V487H280.034V483.436C280.034 482.5 279.586 482.032 278.69 482.032C278.306 482.032 277.946 482.124 277.61 482.308C277.282 482.484 276.998 482.756 276.758 483.124V487H275.546V478.132ZM284.629 487.18C283.933 487.18 283.373 487.004 282.949 486.652C282.533 486.292 282.325 485.808 282.325 485.2C282.325 484.56 282.525 484.068 282.925 483.724C283.333 483.372 283.909 483.196 284.653 483.196C285.445 483.196 286.117 483.356 286.669 483.676V483.376C286.669 482.92 286.529 482.584 286.249 482.368C285.977 482.144 285.545 482.032 284.953 482.032C284.601 482.032 284.257 482.068 283.921 482.14C283.593 482.204 283.297 482.296 283.033 482.416V481.432C283.273 481.32 283.585 481.232 283.969 481.168C284.353 481.096 284.725 481.06 285.085 481.06C286.037 481.06 286.741 481.272 287.197 481.696C287.661 482.112 287.893 482.692 287.893 483.436V487H286.753V486.352C286.505 486.624 286.209 486.832 285.865 486.976C285.529 487.112 285.117 487.18 284.629 487.18ZM284.929 486.256C285.313 486.256 285.661 486.18 285.973 486.028C286.285 485.876 286.517 485.664 286.669 485.392V484.612C286.149 484.276 285.569 484.108 284.929 484.108C284.465 484.108 284.117 484.2 283.885 484.384C283.661 484.56 283.549 484.832 283.549 485.2C283.549 485.904 284.009 486.256 284.929 486.256ZM288.618 481.24H289.902L291.594 485.38L293.286 481.24H294.57L292.122 487H291.066L288.618 481.24ZM298.577 487.18C297.513 487.18 296.677 486.916 296.069 486.388C295.469 485.852 295.169 485.1 295.169 484.132C295.169 483.188 295.437 482.44 295.973 481.888C296.517 481.336 297.289 481.06 298.289 481.06C298.953 481.06 299.517 481.188 299.981 481.444C300.445 481.692 300.793 482.04 301.025 482.488C301.265 482.928 301.385 483.432 301.385 484V484.6H296.321C296.361 485.144 296.589 485.552 297.005 485.824C297.429 486.088 298.001 486.22 298.721 486.22C299.089 486.22 299.461 486.188 299.837 486.124C300.213 486.052 300.545 485.96 300.833 485.848V486.82C300.577 486.924 300.237 487.008 299.813 487.072C299.397 487.144 298.985 487.18 298.577 487.18ZM300.245 483.748C300.229 483.204 300.049 482.784 299.705 482.488C299.369 482.184 298.889 482.032 298.265 482.032C297.657 482.032 297.185 482.188 296.849 482.5C296.513 482.812 296.337 483.228 296.321 483.748H300.245ZM309.371 487.18C308.787 487.18 308.335 487.012 308.015 486.676C307.703 486.34 307.547 485.864 307.547 485.248V482.176H306.671V481.24H307.547V479.512H308.771V481.24H310.187V482.176H308.771V485.164C308.771 485.548 308.843 485.82 308.987 485.98C309.139 486.14 309.411 486.22 309.803 486.22C310.035 486.22 310.267 486.168 310.499 486.064V487.024C310.195 487.128 309.819 487.18 309.371 487.18ZM314.617 487.18C313.969 487.18 313.397 487.06 312.901 486.82C312.413 486.572 312.029 486.22 311.749 485.764C311.477 485.3 311.341 484.756 311.341 484.132C311.341 483.516 311.477 482.976 311.749 482.512C312.021 482.048 312.405 481.692 312.901 481.444C313.397 481.188 313.969 481.06 314.617 481.06C315.265 481.06 315.837 481.188 316.333 481.444C316.829 481.692 317.213 482.048 317.485 482.512C317.765 482.976 317.905 483.516 317.905 484.132C317.905 484.756 317.765 485.3 317.485 485.764C317.213 486.22 316.829 486.572 316.333 486.82C315.837 487.06 315.265 487.18 314.617 487.18ZM314.617 486.22C315.241 486.22 315.737 486.028 316.105 485.644C316.473 485.26 316.657 484.756 316.657 484.132C316.657 483.484 316.473 482.972 316.105 482.596C315.737 482.22 315.241 482.032 314.617 482.032C313.993 482.032 313.497 482.22 313.129 482.596C312.761 482.972 312.577 483.484 312.577 484.132C312.577 484.756 312.761 485.26 313.129 485.644C313.497 486.028 313.993 486.22 314.617 486.22ZM62.6804 499.24H63.8564V500.272C64.0964 499.92 64.4324 499.66 64.8644 499.492C65.3044 499.324 65.8124 499.24 66.3884 499.24V500.188C65.7724 500.188 65.2444 500.288 64.8044 500.488C64.3644 500.688 64.0604 501.004 63.8924 501.436V505H62.6804V499.24ZM70.2781 505.18C69.2141 505.18 68.3781 504.916 67.7701 504.388C67.1701 503.852 66.8701 503.1 66.8701 502.132C66.8701 501.188 67.1381 500.44 67.6741 499.888C68.2181 499.336 68.9901 499.06 69.9901 499.06C70.6541 499.06 71.2181 499.188 71.6821 499.444C72.1461 499.692 72.4941 500.04 72.7261 500.488C72.9661 500.928 73.0861 501.432 73.0861 502V502.6H68.0221C68.0621 503.144 68.2901 503.552 68.7061 503.824C69.1301 504.088 69.7021 504.22 70.4221 504.22C70.7901 504.22 71.1621 504.188 71.5381 504.124C71.9141 504.052 72.2461 503.96 72.5341 503.848V504.82C72.2781 504.924 71.9381 505.008 71.5141 505.072C71.0981 505.144 70.6861 505.18 70.2781 505.18ZM71.9461 501.748C71.9301 501.204 71.7501 500.784 71.4061 500.488C71.0701 500.184 70.5901 500.032 69.9661 500.032C69.3581 500.032 68.8861 500.188 68.5501 500.5C68.2141 500.812 68.0381 501.228 68.0221 501.748H71.9461ZM74.4109 499.24H75.5629V500.068C75.8349 499.732 76.1429 499.48 76.4869 499.312C76.8309 499.144 77.1869 499.06 77.5549 499.06C78.0189 499.06 78.3869 499.14 78.6589 499.3C78.9309 499.452 79.1309 499.688 79.2589 500.008C79.5149 499.696 79.8269 499.46 80.1949 499.3C80.5709 499.14 80.9469 499.06 81.3229 499.06C82.0269 499.06 82.5349 499.24 82.8469 499.6C83.1589 499.952 83.3149 500.476 83.3149 501.172V505H82.1389V501.328C82.1389 500.856 82.0509 500.524 81.8749 500.332C81.6989 500.132 81.3989 500.032 80.9749 500.032C80.3669 500.032 79.8709 500.296 79.4869 500.824C79.5029 500.944 79.5109 501.14 79.5109 501.412V505H78.3349V501.328C78.3349 500.856 78.2549 500.524 78.0949 500.332C77.9349 500.132 77.6469 500.032 77.2309 500.032C76.6229 500.032 76.0789 500.376 75.5989 501.064V505H74.4109V499.24ZM87.6773 505.18C87.0293 505.18 86.4573 505.06 85.9613 504.82C85.4733 504.572 85.0893 504.22 84.8093 503.764C84.5373 503.3 84.4013 502.756 84.4013 502.132C84.4013 501.516 84.5373 500.976 84.8093 500.512C85.0813 500.048 85.4653 499.692 85.9613 499.444C86.4573 499.188 87.0293 499.06 87.6773 499.06C88.3253 499.06 88.8973 499.188 89.3933 499.444C89.8893 499.692 90.2733 500.048 90.5453 500.512C90.8253 500.976 90.9653 501.516 90.9653 502.132C90.9653 502.756 90.8253 503.3 90.5453 503.764C90.2733 504.22 89.8893 504.572 89.3933 504.82C88.8973 505.06 88.3253 505.18 87.6773 505.18ZM87.6773 504.22C88.3013 504.22 88.7973 504.028 89.1653 503.644C89.5333 503.26 89.7173 502.756 89.7173 502.132C89.7173 501.484 89.5333 500.972 89.1653 500.596C88.7973 500.22 88.3013 500.032 87.6773 500.032C87.0533 500.032 86.5573 500.22 86.1893 500.596C85.8213 500.972 85.6373 501.484 85.6373 502.132C85.6373 502.756 85.8213 503.26 86.1893 503.644C86.5573 504.028 87.0533 504.22 87.6773 504.22ZM91.2568 499.24H92.5408L94.2328 503.38L95.9248 499.24H97.2088L94.7608 505H93.7048L91.2568 499.24ZM101.216 505.18C100.152 505.18 99.3156 504.916 98.7076 504.388C98.1076 503.852 97.8076 503.1 97.8076 502.132C97.8076 501.188 98.0756 500.44 98.6116 499.888C99.1556 499.336 99.9276 499.06 100.928 499.06C101.592 499.06 102.156 499.188 102.62 499.444C103.084 499.692 103.432 500.04 103.664 500.488C103.904 500.928 104.024 501.432 104.024 502V502.6H98.9596C98.9996 503.144 99.2276 503.552 99.6436 503.824C100.068 504.088 100.64 504.22 101.36 504.22C101.728 504.22 102.1 504.188 102.476 504.124C102.852 504.052 103.184 503.96 103.472 503.848V504.82C103.216 504.924 102.876 505.008 102.452 505.072C102.036 505.144 101.624 505.18 101.216 505.18ZM102.884 501.748C102.868 501.204 102.688 500.784 102.344 500.488C102.008 500.184 101.528 500.032 100.904 500.032C100.296 500.032 99.8236 500.188 99.4876 500.5C99.1516 500.812 98.9756 501.228 98.9596 501.748H102.884ZM111.014 507.376C110.582 507.376 110.222 507.332 109.934 507.244V506.296C110.142 506.376 110.398 506.416 110.702 506.416C110.982 506.416 111.202 506.344 111.362 506.2C111.522 506.064 111.666 505.84 111.794 505.528L112.07 504.856L109.55 499.24H110.798L112.718 503.668L114.506 499.24H115.754L113.162 505.648C112.922 506.248 112.634 506.684 112.298 506.956C111.97 507.236 111.542 507.376 111.014 507.376ZM119.084 505.18C118.436 505.18 117.864 505.06 117.368 504.82C116.88 504.572 116.496 504.22 116.216 503.764C115.944 503.3 115.808 502.756 115.808 502.132C115.808 501.516 115.944 500.976 116.216 500.512C116.488 500.048 116.872 499.692 117.368 499.444C117.864 499.188 118.436 499.06 119.084 499.06C119.732 499.06 120.304 499.188 120.8 499.444C121.296 499.692 121.68 500.048 121.952 500.512C122.232 500.976 122.372 501.516 122.372 502.132C122.372 502.756 122.232 503.3 121.952 503.764C121.68 504.22 121.296 504.572 120.8 504.82C120.304 505.06 119.732 505.18 119.084 505.18ZM119.084 504.22C119.708 504.22 120.204 504.028 120.572 503.644C120.94 503.26 121.124 502.756 121.124 502.132C121.124 501.484 120.94 500.972 120.572 500.596C120.204 500.22 119.708 500.032 119.084 500.032C118.46 500.032 117.964 500.22 117.596 500.596C117.228 500.972 117.044 501.484 117.044 502.132C117.044 502.756 117.228 503.26 117.596 503.644C117.964 504.028 118.46 504.22 119.084 504.22ZM125.98 505.18C125.204 505.18 124.616 504.972 124.216 504.556C123.824 504.14 123.628 503.584 123.628 502.888V499.24H124.84V502.84C124.84 503.76 125.3 504.22 126.22 504.22C127.028 504.22 127.66 503.856 128.116 503.128V499.24H129.328V505H128.152V504.184C127.88 504.528 127.556 504.78 127.18 504.94C126.812 505.1 126.412 505.18 125.98 505.18ZM135.721 500.176H134.845V499.24H135.721V498.112C135.721 497.448 135.909 496.944 136.285 496.6C136.661 496.248 137.165 496.072 137.797 496.072C138.125 496.072 138.433 496.12 138.721 496.216V497.224C138.497 497.12 138.265 497.068 138.025 497.068C137.649 497.068 137.373 497.16 137.197 497.344C137.021 497.52 136.933 497.8 136.933 498.184V499.24H138.373V500.176H136.933V505H135.721V500.176ZM139.497 499.24H140.673V500.272C140.913 499.92 141.249 499.66 141.681 499.492C142.121 499.324 142.629 499.24 143.205 499.24V500.188C142.589 500.188 142.061 500.288 141.621 500.488C141.181 500.688 140.877 501.004 140.709 501.436V505H139.497V499.24ZM147.15 505.18C146.502 505.18 145.93 505.06 145.434 504.82C144.946 504.572 144.562 504.22 144.282 503.764C144.01 503.3 143.874 502.756 143.874 502.132C143.874 501.516 144.01 500.976 144.282 500.512C144.554 500.048 144.938 499.692 145.434 499.444C145.93 499.188 146.502 499.06 147.15 499.06C147.798 499.06 148.37 499.188 148.866 499.444C149.362 499.692 149.746 500.048 150.018 500.512C150.298 500.976 150.438 501.516 150.438 502.132C150.438 502.756 150.298 503.3 150.018 503.764C149.746 504.22 149.362 504.572 148.866 504.82C148.37 505.06 147.798 505.18 147.15 505.18ZM147.15 504.22C147.774 504.22 148.27 504.028 148.638 503.644C149.006 503.26 149.19 502.756 149.19 502.132C149.19 501.484 149.006 500.972 148.638 500.596C148.27 500.22 147.774 500.032 147.15 500.032C146.526 500.032 146.03 500.22 145.662 500.596C145.294 500.972 145.11 501.484 145.11 502.132C145.11 502.756 145.294 503.26 145.662 503.644C146.03 504.028 146.526 504.22 147.15 504.22ZM151.755 499.24H152.907V500.068C153.179 499.732 153.487 499.48 153.831 499.312C154.175 499.144 154.531 499.06 154.899 499.06C155.363 499.06 155.731 499.14 156.003 499.3C156.275 499.452 156.475 499.688 156.603 500.008C156.859 499.696 157.171 499.46 157.539 499.3C157.915 499.14 158.291 499.06 158.667 499.06C159.371 499.06 159.879 499.24 160.191 499.6C160.503 499.952 160.659 500.476 160.659 501.172V505H159.483V501.328C159.483 500.856 159.395 500.524 159.219 500.332C159.043 500.132 158.743 500.032 158.319 500.032C157.711 500.032 157.215 500.296 156.831 500.824C156.847 500.944 156.855 501.14 156.855 501.412V505H155.679V501.328C155.679 500.856 155.599 500.524 155.439 500.332C155.279 500.132 154.991 500.032 154.575 500.032C153.967 500.032 153.423 500.376 152.943 501.064V505H151.755V499.24ZM168.666 505.18C167.97 505.18 167.41 505.004 166.986 504.652C166.57 504.292 166.362 503.808 166.362 503.2C166.362 502.56 166.562 502.068 166.962 501.724C167.37 501.372 167.946 501.196 168.69 501.196C169.482 501.196 170.154 501.356 170.706 501.676V501.376C170.706 500.92 170.566 500.584 170.286 500.368C170.014 500.144 169.582 500.032 168.99 500.032C168.638 500.032 168.294 500.068 167.958 500.14C167.63 500.204 167.334 500.296 167.07 500.416V499.432C167.31 499.32 167.622 499.232 168.006 499.168C168.39 499.096 168.762 499.06 169.122 499.06C170.074 499.06 170.778 499.272 171.234 499.696C171.698 500.112 171.93 500.692 171.93 501.436V505H170.79V504.352C170.542 504.624 170.246 504.832 169.902 504.976C169.566 505.112 169.154 505.18 168.666 505.18ZM168.966 504.256C169.35 504.256 169.698 504.18 170.01 504.028C170.322 503.876 170.554 503.664 170.706 503.392V502.612C170.186 502.276 169.606 502.108 168.966 502.108C168.502 502.108 168.154 502.2 167.922 502.384C167.698 502.56 167.586 502.832 167.586 503.2C167.586 503.904 168.046 504.256 168.966 504.256ZM173.434 499.24H174.61V500.068C174.882 499.724 175.214 499.472 175.606 499.312C176.006 499.144 176.422 499.06 176.854 499.06C177.622 499.06 178.194 499.264 178.57 499.672C178.946 500.08 179.134 500.628 179.134 501.316V505H177.922V501.436C177.922 500.5 177.474 500.032 176.578 500.032C176.194 500.032 175.834 500.124 175.498 500.308C175.17 500.484 174.886 500.756 174.646 501.124V505H173.434V499.24ZM181.315 507.376C180.883 507.376 180.523 507.332 180.235 507.244V506.296C180.443 506.376 180.699 506.416 181.003 506.416C181.283 506.416 181.503 506.344 181.663 506.2C181.823 506.064 181.967 505.84 182.095 505.528L182.371 504.856L179.851 499.24H181.099L183.019 503.668L184.807 499.24H186.055L183.463 505.648C183.223 506.248 182.935 506.684 182.599 506.956C182.271 507.236 181.843 507.376 181.315 507.376ZM191.575 499.24H192.751V500.092C193.343 499.404 194.143 499.06 195.151 499.06C195.727 499.06 196.243 499.188 196.699 499.444C197.163 499.7 197.523 500.06 197.779 500.524C198.043 500.98 198.175 501.512 198.175 502.12C198.175 502.72 198.043 503.252 197.779 503.716C197.523 504.18 197.167 504.54 196.711 504.796C196.255 505.052 195.735 505.18 195.151 505.18C194.671 505.18 194.223 505.1 193.807 504.94C193.391 504.78 193.051 504.544 192.787 504.232V507.628H191.575V499.24ZM194.875 504.22C195.267 504.22 195.619 504.136 195.931 503.968C196.251 503.792 196.499 503.544 196.675 503.224C196.859 502.904 196.951 502.536 196.951 502.12C196.951 501.704 196.859 501.34 196.675 501.028C196.499 500.708 196.251 500.464 195.931 500.296C195.619 500.12 195.267 500.032 194.875 500.032C194.387 500.032 193.955 500.16 193.579 500.416C193.211 500.672 192.947 501.024 192.787 501.472V502.768C192.923 503.208 193.183 503.56 193.567 503.824C193.951 504.088 194.387 504.22 194.875 504.22ZM201.256 505.18C200.56 505.18 200 505.004 199.576 504.652C199.16 504.292 198.952 503.808 198.952 503.2C198.952 502.56 199.152 502.068 199.552 501.724C199.96 501.372 200.536 501.196 201.28 501.196C202.072 501.196 202.744 501.356 203.296 501.676V501.376C203.296 500.92 203.156 500.584 202.876 500.368C202.604 500.144 202.172 500.032 201.58 500.032C201.228 500.032 200.884 500.068 200.548 500.14C200.22 500.204 199.924 500.296 199.66 500.416V499.432C199.9 499.32 200.212 499.232 200.596 499.168C200.98 499.096 201.352 499.06 201.712 499.06C202.664 499.06 203.368 499.272 203.824 499.696C204.288 500.112 204.52 500.692 204.52 501.436V505H203.38V504.352C203.132 504.624 202.836 504.832 202.492 504.976C202.156 505.112 201.744 505.18 201.256 505.18ZM201.556 504.256C201.94 504.256 202.288 504.18 202.6 504.028C202.912 503.876 203.144 503.664 203.296 503.392V502.612C202.776 502.276 202.196 502.108 201.556 502.108C201.092 502.108 200.744 502.2 200.512 502.384C200.288 502.56 200.176 502.832 200.176 503.2C200.176 503.904 200.636 504.256 201.556 504.256ZM206.732 498.112C206.532 498.112 206.364 498.044 206.228 497.908C206.092 497.772 206.024 497.604 206.024 497.404C206.024 497.204 206.092 497.036 206.228 496.9C206.364 496.764 206.532 496.696 206.732 496.696C206.94 496.696 207.112 496.764 207.248 496.9C207.392 497.036 207.464 497.204 207.464 497.404C207.464 497.604 207.392 497.772 207.248 497.908C207.112 498.044 206.94 498.112 206.732 498.112ZM206.12 499.24H207.356V505H206.12V499.24ZM211.808 505.18C211.232 505.18 210.712 505.056 210.248 504.808C209.792 504.552 209.432 504.196 209.168 503.74C208.912 503.276 208.784 502.74 208.784 502.132C208.784 501.532 208.912 501 209.168 500.536C209.432 500.072 209.792 499.712 210.248 499.456C210.712 499.192 211.232 499.06 211.808 499.06C212.848 499.06 213.636 499.376 214.172 500.008V496.132H215.384V505H214.208V504.16C213.888 504.512 213.536 504.772 213.152 504.94C212.776 505.1 212.328 505.18 211.808 505.18ZM212.084 504.22C212.58 504.22 213.012 504.092 213.38 503.836C213.756 503.572 214.02 503.22 214.172 502.78V501.484C214.036 501.044 213.776 500.692 213.392 500.428C213.016 500.164 212.58 500.032 212.084 500.032C211.692 500.032 211.336 500.12 211.016 500.296C210.704 500.472 210.456 500.72 210.272 501.04C210.096 501.36 210.008 501.724 210.008 502.132C210.008 502.54 210.096 502.904 210.272 503.224C210.456 503.544 210.704 503.792 211.016 503.968C211.336 504.136 211.692 504.22 212.084 504.22ZM224.399 507.76C224.007 507.76 223.623 507.728 223.247 507.664C222.879 507.6 222.567 507.508 222.311 507.388V506.392C222.911 506.664 223.607 506.8 224.399 506.8C225.143 506.8 225.683 506.636 226.019 506.308C226.363 505.988 226.535 505.5 226.535 504.844V504.232C226.007 504.864 225.231 505.18 224.207 505.18C223.623 505.18 223.099 505.052 222.635 504.796C222.171 504.54 221.807 504.18 221.543 503.716C221.279 503.252 221.147 502.72 221.147 502.12C221.147 501.512 221.275 500.98 221.531 500.524C221.795 500.06 222.155 499.7 222.611 499.444C223.075 499.188 223.595 499.06 224.171 499.06C224.707 499.06 225.159 499.14 225.527 499.3C225.903 499.452 226.251 499.708 226.571 500.068V499.24H227.747V504.712C227.747 505.696 227.471 506.448 226.919 506.968C226.375 507.496 225.535 507.76 224.399 507.76ZM224.447 504.22C224.943 504.22 225.379 504.088 225.755 503.824C226.139 503.56 226.399 503.208 226.535 502.768V501.472C226.383 501.024 226.119 500.672 225.743 500.416C225.375 500.16 224.943 500.032 224.447 500.032C224.055 500.032 223.699 500.12 223.379 500.296C223.067 500.464 222.819 500.708 222.635 501.028C222.459 501.348 222.371 501.712 222.371 502.12C222.371 502.536 222.459 502.904 222.635 503.224C222.819 503.536 223.067 503.78 223.379 503.956C223.699 504.132 224.055 504.22 224.447 504.22ZM229.309 499.24H230.485V500.272C230.725 499.92 231.061 499.66 231.493 499.492C231.933 499.324 232.441 499.24 233.017 499.24V500.188C232.401 500.188 231.873 500.288 231.433 500.488C230.993 500.688 230.689 501.004 230.521 501.436V505H229.309V499.24ZM236.962 505.18C236.314 505.18 235.742 505.06 235.246 504.82C234.758 504.572 234.374 504.22 234.094 503.764C233.822 503.3 233.686 502.756 233.686 502.132C233.686 501.516 233.822 500.976 234.094 500.512C234.366 500.048 234.75 499.692 235.246 499.444C235.742 499.188 236.314 499.06 236.962 499.06C237.61 499.06 238.182 499.188 238.678 499.444C239.174 499.692 239.558 500.048 239.83 500.512C240.11 500.976 240.25 501.516 240.25 502.132C240.25 502.756 240.11 503.3 239.83 503.764C239.558 504.22 239.174 504.572 238.678 504.82C238.182 505.06 237.61 505.18 236.962 505.18ZM236.962 504.22C237.586 504.22 238.082 504.028 238.45 503.644C238.818 503.26 239.002 502.756 239.002 502.132C239.002 501.484 238.818 500.972 238.45 500.596C238.082 500.22 237.586 500.032 236.962 500.032C236.338 500.032 235.842 500.22 235.474 500.596C235.106 500.972 234.922 501.484 234.922 502.132C234.922 502.756 235.106 503.26 235.474 503.644C235.842 504.028 236.338 504.22 236.962 504.22ZM243.859 505.18C243.083 505.18 242.495 504.972 242.095 504.556C241.703 504.14 241.507 503.584 241.507 502.888V499.24H242.719V502.84C242.719 503.76 243.179 504.22 244.099 504.22C244.907 504.22 245.539 503.856 245.995 503.128V499.24H247.207V505H246.031V504.184C245.759 504.528 245.435 504.78 245.059 504.94C244.691 505.1 244.291 505.18 243.859 505.18ZM248.762 499.24H249.938V500.092C250.53 499.404 251.33 499.06 252.338 499.06C252.914 499.06 253.43 499.188 253.886 499.444C254.35 499.7 254.71 500.06 254.966 500.524C255.23 500.98 255.362 501.512 255.362 502.12C255.362 502.72 255.23 503.252 254.966 503.716C254.71 504.18 254.354 504.54 253.898 504.796C253.442 505.052 252.922 505.18 252.338 505.18C251.858 505.18 251.41 505.1 250.994 504.94C250.578 504.78 250.238 504.544 249.974 504.232V507.628H248.762V499.24ZM252.062 504.22C252.454 504.22 252.806 504.136 253.118 503.968C253.438 503.792 253.686 503.544 253.862 503.224C254.046 502.904 254.138 502.536 254.138 502.12C254.138 501.704 254.046 501.34 253.862 501.028C253.686 500.708 253.438 500.464 253.118 500.296C252.806 500.12 252.454 500.032 252.062 500.032C251.574 500.032 251.142 500.16 250.766 500.416C250.398 500.672 250.134 501.024 249.974 501.472V502.768C250.11 503.208 250.37 503.56 250.754 503.824C251.138 504.088 251.574 504.22 252.062 504.22ZM258.633 505.18C258.233 505.18 257.809 505.128 257.361 505.024C256.913 504.928 256.561 504.796 256.305 504.628V503.596C256.617 503.78 256.977 503.932 257.385 504.052C257.793 504.164 258.189 504.22 258.573 504.22C259.005 504.22 259.321 504.168 259.521 504.064C259.721 503.96 259.821 503.792 259.821 503.56C259.821 503.384 259.773 503.244 259.677 503.14C259.589 503.028 259.433 502.928 259.209 502.84C258.993 502.752 258.665 502.648 258.225 502.528C257.753 502.392 257.377 502.256 257.097 502.12C256.825 501.976 256.617 501.796 256.473 501.58C256.337 501.364 256.269 501.084 256.269 500.74C256.269 500.188 256.485 499.772 256.917 499.492C257.357 499.204 257.945 499.06 258.681 499.06C259.065 499.06 259.441 499.096 259.809 499.168C260.177 499.24 260.473 499.34 260.697 499.468V500.476C260.465 500.34 260.177 500.232 259.833 500.152C259.497 500.072 259.153 500.032 258.801 500.032C258.377 500.032 258.053 500.084 257.829 500.188C257.605 500.292 257.493 500.476 257.493 500.74C257.493 500.908 257.541 501.044 257.637 501.148C257.733 501.252 257.885 501.344 258.093 501.424C258.309 501.496 258.649 501.592 259.113 501.712C259.841 501.912 260.345 502.148 260.625 502.42C260.913 502.692 261.057 503.068 261.057 503.548C261.057 504.044 260.853 504.44 260.445 504.736C260.037 505.032 259.433 505.18 258.633 505.18ZM269.041 505.18C268.457 505.18 268.005 505.012 267.685 504.676C267.373 504.34 267.217 503.864 267.217 503.248V500.176H266.341V499.24H267.217V497.512H268.441V499.24H269.857V500.176H268.441V503.164C268.441 503.548 268.513 503.82 268.657 503.98C268.809 504.14 269.081 504.22 269.473 504.22C269.705 504.22 269.937 504.168 270.169 504.064V505.024C269.865 505.128 269.489 505.18 269.041 505.18ZM271.309 496.132H272.521V500.032C273.073 499.384 273.809 499.06 274.729 499.06C275.497 499.06 276.069 499.264 276.445 499.672C276.821 500.08 277.009 500.628 277.009 501.316V505H275.797V501.436C275.797 500.5 275.349 500.032 274.453 500.032C274.069 500.032 273.709 500.124 273.373 500.308C273.045 500.484 272.761 500.756 272.521 501.124V505H271.309V496.132ZM280.393 505.18C279.697 505.18 279.137 505.004 278.713 504.652C278.297 504.292 278.089 503.808 278.089 503.2C278.089 502.56 278.289 502.068 278.689 501.724C279.097 501.372 279.673 501.196 280.417 501.196C281.209 501.196 281.881 501.356 282.433 501.676V501.376C282.433 500.92 282.293 500.584 282.013 500.368C281.741 500.144 281.309 500.032 280.717 500.032C280.365 500.032 280.021 500.068 279.685 500.14C279.357 500.204 279.061 500.296 278.797 500.416V499.432C279.037 499.32 279.349 499.232 279.733 499.168C280.117 499.096 280.489 499.06 280.849 499.06C281.801 499.06 282.505 499.272 282.961 499.696C283.425 500.112 283.657 500.692 283.657 501.436V505H282.517V504.352C282.269 504.624 281.973 504.832 281.629 504.976C281.293 505.112 280.881 505.18 280.393 505.18ZM280.693 504.256C281.077 504.256 281.425 504.18 281.737 504.028C282.049 503.876 282.281 503.664 282.433 503.392V502.612C281.913 502.276 281.333 502.108 280.693 502.108C280.229 502.108 279.881 502.2 279.649 502.384C279.425 502.56 279.313 502.832 279.313 503.2C279.313 503.904 279.773 504.256 280.693 504.256ZM287.076 505.18C286.492 505.18 286.04 505.012 285.72 504.676C285.408 504.34 285.252 503.864 285.252 503.248V500.176H284.376V499.24H285.252V497.512H286.476V499.24H287.892V500.176H286.476V503.164C286.476 503.548 286.548 503.82 286.692 503.98C286.844 504.14 287.116 504.22 287.508 504.22C287.74 504.22 287.972 504.168 288.204 504.064V505.024C287.9 505.128 287.524 505.18 287.076 505.18ZM295.01 507.376C294.578 507.376 294.218 507.332 293.93 507.244V506.296C294.138 506.376 294.394 506.416 294.698 506.416C294.978 506.416 295.198 506.344 295.358 506.2C295.518 506.064 295.662 505.84 295.79 505.528L296.066 504.856L293.546 499.24H294.794L296.714 503.668L298.502 499.24H299.75L297.158 505.648C296.918 506.248 296.63 506.684 296.294 506.956C295.966 507.236 295.538 507.376 295.01 507.376ZM303.08 505.18C302.432 505.18 301.86 505.06 301.364 504.82C300.876 504.572 300.492 504.22 300.212 503.764C299.94 503.3 299.804 502.756 299.804 502.132C299.804 501.516 299.94 500.976 300.212 500.512C300.484 500.048 300.868 499.692 301.364 499.444C301.86 499.188 302.432 499.06 303.08 499.06C303.728 499.06 304.3 499.188 304.796 499.444C305.292 499.692 305.676 500.048 305.948 500.512C306.228 500.976 306.368 501.516 306.368 502.132C306.368 502.756 306.228 503.3 305.948 503.764C305.676 504.22 305.292 504.572 304.796 504.82C304.3 505.06 303.728 505.18 303.08 505.18ZM303.08 504.22C303.704 504.22 304.2 504.028 304.568 503.644C304.936 503.26 305.12 502.756 305.12 502.132C305.12 501.484 304.936 500.972 304.568 500.596C304.2 500.22 303.704 500.032 303.08 500.032C302.456 500.032 301.96 500.22 301.592 500.596C301.224 500.972 301.04 501.484 301.04 502.132C301.04 502.756 301.224 503.26 301.592 503.644C301.96 504.028 302.456 504.22 303.08 504.22ZM309.976 505.18C309.2 505.18 308.612 504.972 308.212 504.556C307.82 504.14 307.624 503.584 307.624 502.888V499.24H308.836V502.84C308.836 503.76 309.296 504.22 310.216 504.22C311.024 504.22 311.656 503.856 312.112 503.128V499.24H313.324V505H312.148V504.184C311.876 504.528 311.552 504.78 311.176 504.94C310.808 505.1 310.408 505.18 309.976 505.18ZM140.588 523.18C139.892 523.18 139.332 523.004 138.908 522.652C138.492 522.292 138.284 521.808 138.284 521.2C138.284 520.56 138.484 520.068 138.884 519.724C139.292 519.372 139.868 519.196 140.612 519.196C141.404 519.196 142.076 519.356 142.628 519.676V519.376C142.628 518.92 142.488 518.584 142.208 518.368C141.936 518.144 141.504 518.032 140.912 518.032C140.56 518.032 140.216 518.068 139.88 518.14C139.552 518.204 139.256 518.296 138.992 518.416V517.432C139.232 517.32 139.544 517.232 139.928 517.168C140.312 517.096 140.684 517.06 141.044 517.06C141.996 517.06 142.7 517.272 143.156 517.696C143.62 518.112 143.852 518.692 143.852 519.436V523H142.712V522.352C142.464 522.624 142.168 522.832 141.824 522.976C141.488 523.112 141.076 523.18 140.588 523.18ZM140.888 522.256C141.272 522.256 141.62 522.18 141.932 522.028C142.244 521.876 142.476 521.664 142.628 521.392V520.612C142.108 520.276 141.528 520.108 140.888 520.108C140.424 520.108 140.076 520.2 139.844 520.384C139.62 520.56 139.508 520.832 139.508 521.2C139.508 521.904 139.968 522.256 140.888 522.256ZM145.356 517.24H146.532V518.272C146.772 517.92 147.108 517.66 147.54 517.492C147.98 517.324 148.488 517.24 149.064 517.24V518.188C148.448 518.188 147.92 518.288 147.48 518.488C147.04 518.688 146.736 519.004 146.568 519.436V523H145.356V517.24ZM152.954 523.18C151.89 523.18 151.054 522.916 150.446 522.388C149.846 521.852 149.546 521.1 149.546 520.132C149.546 519.188 149.814 518.44 150.35 517.888C150.894 517.336 151.666 517.06 152.666 517.06C153.33 517.06 153.894 517.188 154.358 517.444C154.822 517.692 155.17 518.04 155.402 518.488C155.642 518.928 155.762 519.432 155.762 520V520.6H150.698C150.738 521.144 150.966 521.552 151.382 521.824C151.806 522.088 152.378 522.22 153.098 522.22C153.466 522.22 153.838 522.188 154.214 522.124C154.59 522.052 154.922 521.96 155.21 521.848V522.82C154.954 522.924 154.614 523.008 154.19 523.072C153.774 523.144 153.362 523.18 152.954 523.18ZM154.622 519.748C154.606 519.204 154.426 518.784 154.082 518.488C153.746 518.184 153.266 518.032 152.642 518.032C152.034 518.032 151.562 518.188 151.226 518.5C150.89 518.812 150.714 519.228 150.698 519.748H154.622ZM163.592 523.18C162.896 523.18 162.336 523.004 161.912 522.652C161.496 522.292 161.288 521.808 161.288 521.2C161.288 520.56 161.488 520.068 161.888 519.724C162.296 519.372 162.872 519.196 163.616 519.196C164.408 519.196 165.08 519.356 165.632 519.676V519.376C165.632 518.92 165.492 518.584 165.212 518.368C164.94 518.144 164.508 518.032 163.916 518.032C163.564 518.032 163.22 518.068 162.884 518.14C162.556 518.204 162.26 518.296 161.996 518.416V517.432C162.236 517.32 162.548 517.232 162.932 517.168C163.316 517.096 163.688 517.06 164.048 517.06C165 517.06 165.704 517.272 166.16 517.696C166.624 518.112 166.856 518.692 166.856 519.436V523H165.716V522.352C165.468 522.624 165.172 522.832 164.828 522.976C164.492 523.112 164.08 523.18 163.592 523.18ZM163.892 522.256C164.276 522.256 164.624 522.18 164.936 522.028C165.248 521.876 165.48 521.664 165.632 521.392V520.612C165.112 520.276 164.532 520.108 163.892 520.108C163.428 520.108 163.08 520.2 162.848 520.384C162.624 520.56 162.512 520.832 162.512 521.2C162.512 521.904 162.972 522.256 163.892 522.256ZM172.801 517.24H173.953V518.068C174.225 517.732 174.533 517.48 174.877 517.312C175.221 517.144 175.577 517.06 175.945 517.06C176.409 517.06 176.777 517.14 177.049 517.3C177.321 517.452 177.521 517.688 177.649 518.008C177.905 517.696 178.217 517.46 178.585 517.3C178.961 517.14 179.337 517.06 179.713 517.06C180.417 517.06 180.925 517.24 181.237 517.6C181.549 517.952 181.705 518.476 181.705 519.172V523H180.529V519.328C180.529 518.856 180.441 518.524 180.265 518.332C180.089 518.132 179.789 518.032 179.365 518.032C178.757 518.032 178.261 518.296 177.877 518.824C177.893 518.944 177.901 519.14 177.901 519.412V523H176.725V519.328C176.725 518.856 176.645 518.524 176.485 518.332C176.325 518.132 176.037 518.032 175.621 518.032C175.013 518.032 174.469 518.376 173.989 519.064V523H172.801V517.24ZM186.376 523.18C185.312 523.18 184.476 522.916 183.868 522.388C183.268 521.852 182.968 521.1 182.968 520.132C182.968 519.188 183.236 518.44 183.772 517.888C184.316 517.336 185.088 517.06 186.088 517.06C186.752 517.06 187.316 517.188 187.78 517.444C188.244 517.692 188.592 518.04 188.824 518.488C189.064 518.928 189.184 519.432 189.184 520V520.6H184.12C184.16 521.144 184.388 521.552 184.804 521.824C185.228 522.088 185.8 522.22 186.52 522.22C186.888 522.22 187.26 522.188 187.636 522.124C188.012 522.052 188.344 521.96 188.632 521.848V522.82C188.376 522.924 188.036 523.008 187.612 523.072C187.196 523.144 186.784 523.18 186.376 523.18ZM188.044 519.748C188.028 519.204 187.848 518.784 187.504 518.488C187.168 518.184 186.688 518.032 186.064 518.032C185.456 518.032 184.984 518.188 184.648 518.5C184.312 518.812 184.136 519.228 184.12 519.748H188.044ZM190.509 517.24H191.661V518.068C191.933 517.732 192.241 517.48 192.585 517.312C192.929 517.144 193.285 517.06 193.653 517.06C194.117 517.06 194.485 517.14 194.757 517.3C195.029 517.452 195.229 517.688 195.357 518.008C195.613 517.696 195.925 517.46 196.293 517.3C196.669 517.14 197.045 517.06 197.421 517.06C198.125 517.06 198.633 517.24 198.945 517.6C199.257 517.952 199.413 518.476 199.413 519.172V523H198.237V519.328C198.237 518.856 198.149 518.524 197.973 518.332C197.797 518.132 197.497 518.032 197.073 518.032C196.465 518.032 195.969 518.296 195.585 518.824C195.601 518.944 195.609 519.14 195.609 519.412V523H194.433V519.328C194.433 518.856 194.353 518.524 194.193 518.332C194.033 518.132 193.745 518.032 193.329 518.032C192.721 518.032 192.177 518.376 191.697 519.064V523H190.509V517.24ZM204.491 523.18C203.971 523.18 203.519 523.1 203.135 522.94C202.759 522.772 202.411 522.512 202.091 522.16V523H200.915V514.132H202.127V518.008C202.391 517.696 202.731 517.46 203.147 517.3C203.563 517.14 204.011 517.06 204.491 517.06C205.067 517.06 205.583 517.192 206.039 517.456C206.503 517.712 206.863 518.072 207.119 518.536C207.383 519 207.515 519.532 207.515 520.132C207.515 520.74 207.383 521.276 207.119 521.74C206.863 522.196 206.503 522.552 206.039 522.808C205.583 523.056 205.067 523.18 204.491 523.18ZM204.215 522.22C204.607 522.22 204.959 522.136 205.271 521.968C205.591 521.792 205.839 521.544 206.015 521.224C206.199 520.904 206.291 520.54 206.291 520.132C206.291 519.724 206.199 519.36 206.015 519.04C205.839 518.72 205.591 518.472 205.271 518.296C204.959 518.12 204.607 518.032 204.215 518.032C203.727 518.032 203.291 518.164 202.907 518.428C202.523 518.692 202.263 519.044 202.127 519.484V520.78C202.279 521.22 202.539 521.572 202.907 521.836C203.283 522.092 203.719 522.22 204.215 522.22ZM212.005 523.18C210.941 523.18 210.105 522.916 209.497 522.388C208.897 521.852 208.597 521.1 208.597 520.132C208.597 519.188 208.865 518.44 209.401 517.888C209.945 517.336 210.717 517.06 211.717 517.06C212.381 517.06 212.945 517.188 213.409 517.444C213.873 517.692 214.221 518.04 214.453 518.488C214.693 518.928 214.813 519.432 214.813 520V520.6H209.749C209.789 521.144 210.017 521.552 210.433 521.824C210.857 522.088 211.429 522.22 212.149 522.22C212.517 522.22 212.889 522.188 213.265 522.124C213.641 522.052 213.973 521.96 214.261 521.848V522.82C214.005 522.924 213.665 523.008 213.241 523.072C212.825 523.144 212.413 523.18 212.005 523.18ZM213.673 519.748C213.657 519.204 213.477 518.784 213.133 518.488C212.797 518.184 212.317 518.032 211.693 518.032C211.085 518.032 210.613 518.188 210.277 518.5C209.941 518.812 209.765 519.228 209.749 519.748H213.673ZM216.137 517.24H217.313V518.272C217.553 517.92 217.889 517.66 218.321 517.492C218.761 517.324 219.269 517.24 219.845 517.24V518.188C219.229 518.188 218.701 518.288 218.261 518.488C217.821 518.688 217.517 519.004 217.349 519.436V523H216.137V517.24ZM228.408 523.18C227.76 523.18 227.188 523.06 226.692 522.82C226.204 522.572 225.82 522.22 225.54 521.764C225.268 521.3 225.132 520.756 225.132 520.132C225.132 519.516 225.268 518.976 225.54 518.512C225.812 518.048 226.196 517.692 226.692 517.444C227.188 517.188 227.76 517.06 228.408 517.06C229.056 517.06 229.628 517.188 230.124 517.444C230.62 517.692 231.004 518.048 231.276 518.512C231.556 518.976 231.696 519.516 231.696 520.132C231.696 520.756 231.556 521.3 231.276 521.764C231.004 522.22 230.62 522.572 230.124 522.82C229.628 523.06 229.056 523.18 228.408 523.18ZM228.408 522.22C229.032 522.22 229.528 522.028 229.896 521.644C230.264 521.26 230.448 520.756 230.448 520.132C230.448 519.484 230.264 518.972 229.896 518.596C229.528 518.22 229.032 518.032 228.408 518.032C227.784 518.032 227.288 518.22 226.92 518.596C226.552 518.972 226.368 519.484 226.368 520.132C226.368 520.756 226.552 521.26 226.92 521.644C227.288 522.028 227.784 522.22 228.408 522.22ZM232.987 518.176H232.111V517.24H232.987V516.112C232.987 515.448 233.175 514.944 233.551 514.6C233.927 514.248 234.431 514.072 235.063 514.072C235.391 514.072 235.699 514.12 235.987 514.216V515.224C235.763 515.12 235.531 515.068 235.291 515.068C234.915 515.068 234.639 515.16 234.463 515.344C234.287 515.52 234.199 515.8 234.199 516.184V517.24H235.639V518.176H234.199V523H232.987V518.176ZM237.145 523C236.985 523 236.849 522.948 236.737 522.844C236.633 522.732 236.581 522.596 236.581 522.436C236.581 522.276 236.633 522.14 236.737 522.028C236.849 521.916 236.985 521.86 237.145 521.86C237.305 521.86 237.441 521.916 237.553 522.028C237.665 522.14 237.721 522.276 237.721 522.436C237.721 522.596 237.665 522.732 237.553 522.844C237.441 522.948 237.305 523 237.145 523Z" fill="white"/>
  <rect x="127" y="357" width="1" height="33" fill="#FF8A37"/>
  <rect x="21.5" y="390.5" width="332" height="51" rx="25.5" stroke="#FF8A37"/>
</svg>