<svg width="508" height="521" viewBox="0 0 508 521" fill="none" xmlns="http://www.w3.org/2000/svg">
<rect x="1.5" y="1.5" width="505" height="518" rx="36.5" stroke="#333333" stroke-width="3"/>
<path d="M0 302H508V483C508 503.987 490.987 521 470 521H38C17.0132 521 0 503.987 0 483V302Z" fill="#333333"/>
<path d="M127.816 404.24C127.176 404.24 126.541 404.181 125.912 404.064C125.293 403.957 124.787 403.808 124.392 403.616V402.144C125.416 402.624 126.52 402.864 127.704 402.864C129.368 402.864 130.2 402.304 130.2 401.184C130.2 400.8 130.109 400.491 129.928 400.256C129.747 400.021 129.485 399.819 129.144 399.648C128.803 399.467 128.248 399.221 127.48 398.912C126.424 398.485 125.661 398.016 125.192 397.504C124.723 396.992 124.488 396.347 124.488 395.568C124.488 394.981 124.648 394.464 124.968 394.016C125.288 393.557 125.736 393.205 126.312 392.96C126.888 392.704 127.549 392.576 128.296 392.576C128.904 392.576 129.453 392.624 129.944 392.72C130.435 392.816 130.915 392.971 131.384 393.184V394.592C130.456 394.176 129.517 393.968 128.568 393.968C127.8 393.968 127.213 394.107 126.808 394.384C126.403 394.661 126.2 395.056 126.2 395.568C126.2 395.92 126.285 396.219 126.456 396.464C126.637 396.699 126.899 396.912 127.24 397.104C127.592 397.285 128.109 397.515 128.792 397.792C129.549 398.101 130.147 398.395 130.584 398.672C131.021 398.949 131.352 399.291 131.576 399.696C131.811 400.091 131.928 400.587 131.928 401.184C131.928 402.155 131.581 402.907 130.888 403.44C130.195 403.973 129.171 404.24 127.816 404.24ZM133.681 392.176H135.297V397.376C136.033 396.512 137.014 396.08 138.241 396.08C139.265 396.08 140.027 396.352 140.529 396.896C141.03 397.44 141.281 398.171 141.281 399.088V404H139.665V399.248C139.665 398 139.067 397.376 137.873 397.376C137.361 397.376 136.881 397.499 136.433 397.744C135.995 397.979 135.617 398.341 135.297 398.832V404H133.681V392.176ZM145.792 404.24C144.864 404.24 144.117 404.005 143.552 403.536C142.997 403.056 142.72 402.411 142.72 401.6C142.72 400.747 142.987 400.091 143.52 399.632C144.064 399.163 144.832 398.928 145.824 398.928C146.88 398.928 147.776 399.141 148.512 399.568V399.168C148.512 398.56 148.325 398.112 147.952 397.824C147.589 397.525 147.013 397.376 146.224 397.376C145.755 397.376 145.296 397.424 144.848 397.52C144.411 397.605 144.016 397.728 143.664 397.888V396.576C143.984 396.427 144.4 396.309 144.912 396.224C145.424 396.128 145.92 396.08 146.4 396.08C147.669 396.08 148.608 396.363 149.216 396.928C149.835 397.483 150.144 398.256 150.144 399.248V404H148.624V403.136C148.293 403.499 147.899 403.776 147.44 403.968C146.992 404.149 146.443 404.24 145.792 404.24ZM146.192 403.008C146.704 403.008 147.168 402.907 147.584 402.704C148 402.501 148.309 402.219 148.512 401.856V400.816C147.819 400.368 147.045 400.144 146.192 400.144C145.573 400.144 145.109 400.267 144.8 400.512C144.501 400.747 144.352 401.109 144.352 401.6C144.352 402.539 144.965 403.008 146.192 403.008ZM152.149 396.32H153.717V397.696C154.037 397.227 154.485 396.88 155.061 396.656C155.648 396.432 156.325 396.32 157.093 396.32V397.584C156.272 397.584 155.568 397.717 154.981 397.984C154.395 398.251 153.989 398.672 153.765 399.248V404H152.149V396.32ZM159.484 394.816C159.217 394.816 158.993 394.725 158.812 394.544C158.631 394.363 158.54 394.139 158.54 393.872C158.54 393.605 158.631 393.381 158.812 393.2C158.993 393.019 159.217 392.928 159.484 392.928C159.761 392.928 159.991 393.019 160.172 393.2C160.364 393.381 160.46 393.605 160.46 393.872C160.46 394.139 160.364 394.363 160.172 394.544C159.991 394.725 159.761 394.816 159.484 394.816ZM158.668 396.32H160.316V404H158.668V396.32ZM162.54 396.32H164.108V397.424C164.471 396.965 164.913 396.629 165.436 396.416C165.969 396.192 166.524 396.08 167.1 396.08C168.124 396.08 168.887 396.352 169.388 396.896C169.889 397.44 170.14 398.171 170.14 399.088V404H168.524V399.248C168.524 398 167.927 397.376 166.732 397.376C166.22 397.376 165.74 397.499 165.292 397.744C164.855 397.979 164.476 398.341 164.156 398.832V404H162.54V396.32ZM176.15 407.68C175.627 407.68 175.115 407.637 174.614 407.552C174.123 407.467 173.707 407.344 173.366 407.184V405.856C174.166 406.219 175.094 406.4 176.15 406.4C177.142 406.4 177.862 406.181 178.31 405.744C178.768 405.317 178.998 404.667 178.998 403.792V402.976C178.294 403.819 177.259 404.24 175.894 404.24C175.115 404.24 174.416 404.069 173.798 403.728C173.179 403.387 172.694 402.907 172.342 402.288C171.99 401.669 171.814 400.96 171.814 400.16C171.814 399.349 171.984 398.64 172.326 398.032C172.678 397.413 173.158 396.933 173.766 396.592C174.384 396.251 175.078 396.08 175.846 396.08C176.56 396.08 177.163 396.187 177.654 396.4C178.155 396.603 178.619 396.944 179.046 397.424V396.32H180.614V403.616C180.614 404.928 180.246 405.931 179.51 406.624C178.784 407.328 177.664 407.68 176.15 407.68ZM176.214 402.96C176.875 402.96 177.456 402.784 177.958 402.432C178.47 402.08 178.816 401.611 178.998 401.024V399.296C178.795 398.699 178.443 398.229 177.942 397.888C177.451 397.547 176.875 397.376 176.214 397.376C175.691 397.376 175.216 397.493 174.79 397.728C174.374 397.952 174.043 398.277 173.798 398.704C173.563 399.131 173.446 399.616 173.446 400.16C173.446 400.715 173.563 401.205 173.798 401.632C174.043 402.048 174.374 402.373 174.79 402.608C175.216 402.843 175.691 402.96 176.214 402.96ZM191.37 404.24C190.442 404.24 189.695 404.005 189.13 403.536C188.575 403.056 188.298 402.411 188.298 401.6C188.298 400.747 188.565 400.091 189.098 399.632C189.642 399.163 190.41 398.928 191.402 398.928C192.458 398.928 193.354 399.141 194.09 399.568V399.168C194.09 398.56 193.903 398.112 193.53 397.824C193.167 397.525 192.591 397.376 191.802 397.376C191.333 397.376 190.874 397.424 190.426 397.52C189.989 397.605 189.594 397.728 189.242 397.888V396.576C189.562 396.427 189.978 396.309 190.49 396.224C191.002 396.128 191.498 396.08 191.978 396.08C193.247 396.08 194.186 396.363 194.794 396.928C195.413 397.483 195.722 398.256 195.722 399.248V404H194.202V403.136C193.871 403.499 193.477 403.776 193.018 403.968C192.57 404.149 192.021 404.24 191.37 404.24ZM191.77 403.008C192.282 403.008 192.746 402.907 193.162 402.704C193.578 402.501 193.887 402.219 194.09 401.856V400.816C193.397 400.368 192.623 400.144 191.77 400.144C191.151 400.144 190.687 400.267 190.378 400.512C190.079 400.747 189.93 401.109 189.93 401.6C189.93 402.539 190.543 403.008 191.77 403.008ZM197.728 396.32H199.296V397.424C199.658 396.965 200.101 396.629 200.624 396.416C201.157 396.192 201.712 396.08 202.288 396.08C203.312 396.08 204.074 396.352 204.576 396.896C205.077 397.44 205.328 398.171 205.328 399.088V404H203.712V399.248C203.712 398 203.114 397.376 201.92 397.376C201.408 397.376 200.928 397.499 200.48 397.744C200.042 397.979 199.664 398.341 199.344 398.832V404H197.728V396.32ZM211.033 404.24C210.265 404.24 209.572 404.075 208.953 403.744C208.345 403.403 207.865 402.928 207.513 402.32C207.172 401.701 207.001 400.987 207.001 400.176C207.001 399.376 207.172 398.667 207.513 398.048C207.865 397.429 208.345 396.949 208.953 396.608C209.572 396.256 210.265 396.08 211.033 396.08C212.42 396.08 213.471 396.501 214.185 397.344V392.176H215.801V404H214.233V402.88C213.807 403.349 213.337 403.696 212.825 403.92C212.324 404.133 211.727 404.24 211.033 404.24ZM211.401 402.96C212.063 402.96 212.639 402.789 213.129 402.448C213.631 402.096 213.983 401.627 214.185 401.04V399.312C214.004 398.725 213.657 398.256 213.145 397.904C212.644 397.552 212.063 397.376 211.401 397.376C210.879 397.376 210.404 397.493 209.977 397.728C209.561 397.963 209.231 398.293 208.985 398.72C208.751 399.147 208.633 399.632 208.633 400.176C208.633 400.72 208.751 401.205 208.985 401.632C209.231 402.059 209.561 402.389 209.977 402.624C210.404 402.848 210.879 402.96 211.401 402.96ZM222.124 392.576H223.756L219.196 404H217.564L222.124 392.576ZM229.557 404.24C228.693 404.24 227.93 404.08 227.269 403.76C226.618 403.429 226.106 402.96 225.733 402.352C225.37 401.733 225.189 401.008 225.189 400.176C225.189 399.355 225.37 398.635 225.733 398.016C226.095 397.397 226.607 396.923 227.269 396.592C227.93 396.251 228.693 396.08 229.557 396.08C230.421 396.08 231.183 396.251 231.845 396.592C232.506 396.923 233.018 397.397 233.381 398.016C233.754 398.635 233.941 399.355 233.941 400.176C233.941 401.008 233.754 401.733 233.381 402.352C233.018 402.96 232.506 403.429 231.845 403.76C231.183 404.08 230.421 404.24 229.557 404.24ZM229.557 402.96C230.389 402.96 231.05 402.704 231.541 402.192C232.031 401.68 232.277 401.008 232.277 400.176C232.277 399.312 232.031 398.629 231.541 398.128C231.05 397.627 230.389 397.376 229.557 397.376C228.725 397.376 228.063 397.627 227.573 398.128C227.082 398.629 226.837 399.312 226.837 400.176C226.837 401.008 227.082 401.68 227.573 402.192C228.063 402.704 228.725 402.96 229.557 402.96ZM235.696 396.32H237.264V397.696C237.584 397.227 238.032 396.88 238.608 396.656C239.195 396.432 239.872 396.32 240.64 396.32V397.584C239.819 397.584 239.115 397.717 238.528 397.984C237.942 398.251 237.536 398.672 237.312 399.248V404H235.696V396.32ZM248.009 396.32H249.577V397.696C249.897 397.227 250.345 396.88 250.921 396.656C251.507 396.432 252.185 396.32 252.953 396.32V397.584C252.131 397.584 251.427 397.717 250.841 397.984C250.254 398.251 249.849 398.672 249.625 399.248V404H248.009V396.32ZM258.139 404.24C256.72 404.24 255.606 403.888 254.795 403.184C253.995 402.469 253.595 401.467 253.595 400.176C253.595 398.917 253.952 397.92 254.667 397.184C255.392 396.448 256.422 396.08 257.755 396.08C258.64 396.08 259.392 396.251 260.011 396.592C260.63 396.923 261.094 397.387 261.403 397.984C261.723 398.571 261.883 399.243 261.883 400V400.8H255.131C255.184 401.525 255.488 402.069 256.043 402.432C256.608 402.784 257.371 402.96 258.331 402.96C258.822 402.96 259.318 402.917 259.819 402.832C260.32 402.736 260.763 402.613 261.147 402.464V403.76C260.806 403.899 260.352 404.011 259.787 404.096C259.232 404.192 258.683 404.24 258.139 404.24ZM260.363 399.664C260.342 398.939 260.102 398.379 259.643 397.984C259.195 397.579 258.555 397.376 257.723 397.376C256.912 397.376 256.283 397.584 255.835 398C255.387 398.416 255.152 398.971 255.131 399.664H260.363ZM267.361 404.24C266.593 404.24 265.9 404.075 265.281 403.744C264.673 403.403 264.193 402.928 263.841 402.32C263.5 401.701 263.329 400.987 263.329 400.176C263.329 399.376 263.5 398.667 263.841 398.048C264.193 397.429 264.673 396.949 265.281 396.608C265.9 396.256 266.593 396.08 267.361 396.08C268.748 396.08 269.799 396.501 270.513 397.344V392.176H272.129V404H270.561V402.88C270.135 403.349 269.665 403.696 269.153 403.92C268.652 404.133 268.055 404.24 267.361 404.24ZM267.729 402.96C268.391 402.96 268.967 402.789 269.457 402.448C269.959 402.096 270.311 401.627 270.513 401.04V399.312C270.332 398.725 269.985 398.256 269.473 397.904C268.972 397.552 268.391 397.376 267.729 397.376C267.207 397.376 266.732 397.493 266.305 397.728C265.889 397.963 265.559 398.293 265.313 398.72C265.079 399.147 264.961 399.632 264.961 400.176C264.961 400.72 265.079 401.205 265.313 401.632C265.559 402.059 265.889 402.389 266.305 402.624C266.732 402.848 267.207 402.96 267.729 402.96ZM275.156 394.816C274.889 394.816 274.665 394.725 274.484 394.544C274.303 394.363 274.212 394.139 274.212 393.872C274.212 393.605 274.303 393.381 274.484 393.2C274.665 393.019 274.889 392.928 275.156 392.928C275.433 392.928 275.663 393.019 275.844 393.2C276.036 393.381 276.132 393.605 276.132 393.872C276.132 394.139 276.036 394.363 275.844 394.544C275.663 394.725 275.433 394.816 275.156 394.816ZM274.34 396.32H275.988V404H274.34V396.32ZM281.044 404.24C280.511 404.24 279.945 404.171 279.348 404.032C278.751 403.904 278.281 403.728 277.94 403.504V402.128C278.356 402.373 278.836 402.576 279.38 402.736C279.924 402.885 280.452 402.96 280.964 402.96C281.54 402.96 281.961 402.891 282.228 402.752C282.495 402.613 282.628 402.389 282.628 402.08C282.628 401.845 282.564 401.659 282.436 401.52C282.319 401.371 282.111 401.237 281.812 401.12C281.524 401.003 281.087 400.864 280.5 400.704C279.871 400.523 279.369 400.341 278.996 400.16C278.633 399.968 278.356 399.728 278.164 399.44C277.983 399.152 277.892 398.779 277.892 398.32C277.892 397.584 278.18 397.029 278.756 396.656C279.343 396.272 280.127 396.08 281.108 396.08C281.62 396.08 282.121 396.128 282.612 396.224C283.103 396.32 283.497 396.453 283.796 396.624V397.968C283.487 397.787 283.103 397.643 282.644 397.536C282.196 397.429 281.737 397.376 281.268 397.376C280.703 397.376 280.271 397.445 279.972 397.584C279.673 397.723 279.524 397.968 279.524 398.32C279.524 398.544 279.588 398.725 279.716 398.864C279.844 399.003 280.047 399.125 280.324 399.232C280.612 399.328 281.065 399.456 281.684 399.616C282.655 399.883 283.327 400.197 283.7 400.56C284.084 400.923 284.276 401.424 284.276 402.064C284.276 402.725 284.004 403.253 283.46 403.648C282.916 404.043 282.111 404.24 281.044 404.24ZM288.766 404.24C287.987 404.24 287.384 404.016 286.958 403.568C286.542 403.12 286.334 402.485 286.334 401.664V397.568H285.166V396.32H286.334V394.016H287.966V396.32H289.854V397.568H287.966V401.552C287.966 402.064 288.062 402.427 288.254 402.64C288.456 402.853 288.819 402.96 289.342 402.96C289.651 402.96 289.96 402.891 290.27 402.752V404.032C289.864 404.171 289.363 404.24 288.766 404.24ZM291.79 396.32H293.358V397.696C293.678 397.227 294.126 396.88 294.702 396.656C295.289 396.432 295.966 396.32 296.734 396.32V397.584C295.913 397.584 295.209 397.717 294.622 397.984C294.035 398.251 293.63 398.672 293.406 399.248V404H291.79V396.32ZM299.125 394.816C298.858 394.816 298.634 394.725 298.453 394.544C298.271 394.363 298.181 394.139 298.181 393.872C298.181 393.605 298.271 393.381 298.453 393.2C298.634 393.019 298.858 392.928 299.125 392.928C299.402 392.928 299.631 393.019 299.813 393.2C300.005 393.381 300.101 393.605 300.101 393.872C300.101 394.139 300.005 394.363 299.813 394.544C299.631 394.725 299.402 394.816 299.125 394.816ZM298.309 396.32H299.957V404H298.309V396.32ZM306.949 404.24C306.255 404.24 305.653 404.133 305.141 403.92C304.639 403.696 304.175 403.349 303.749 402.88V404H302.181V392.176H303.797V397.344C304.149 396.928 304.602 396.613 305.157 396.4C305.711 396.187 306.309 396.08 306.949 396.08C307.717 396.08 308.405 396.256 309.013 396.608C309.631 396.949 310.111 397.429 310.453 398.048C310.805 398.667 310.981 399.376 310.981 400.176C310.981 400.987 310.805 401.701 310.453 402.32C310.111 402.928 309.631 403.403 309.013 403.744C308.405 404.075 307.717 404.24 306.949 404.24ZM306.581 402.96C307.103 402.96 307.573 402.848 307.989 402.624C308.415 402.389 308.746 402.059 308.981 401.632C309.226 401.205 309.349 400.72 309.349 400.176C309.349 399.632 309.226 399.147 308.981 398.72C308.746 398.293 308.415 397.963 307.989 397.728C307.573 397.493 307.103 397.376 306.581 397.376C305.93 397.376 305.349 397.552 304.837 397.904C304.325 398.256 303.978 398.725 303.797 399.312V401.04C303.999 401.627 304.346 402.096 304.837 402.448C305.338 402.789 305.919 402.96 306.581 402.96ZM315.393 404.24C314.358 404.24 313.574 403.963 313.041 403.408C312.518 402.853 312.257 402.112 312.257 401.184V396.32H313.873V401.12C313.873 402.347 314.486 402.96 315.713 402.96C316.79 402.96 317.633 402.475 318.241 401.504V396.32H319.857V404H318.289V402.912C317.926 403.371 317.494 403.707 316.993 403.92C316.502 404.133 315.969 404.24 315.393 404.24ZM324.891 404.24C324.112 404.24 323.509 404.016 323.083 403.568C322.667 403.12 322.459 402.485 322.459 401.664V397.568H321.291V396.32H322.459V394.016H324.091V396.32H325.979V397.568H324.091V401.552C324.091 402.064 324.187 402.427 324.379 402.64C324.581 402.853 324.944 402.96 325.467 402.96C325.776 402.96 326.085 402.891 326.395 402.752V404.032C325.989 404.171 325.488 404.24 324.891 404.24ZM328.859 394.816C328.592 394.816 328.368 394.725 328.187 394.544C328.006 394.363 327.915 394.139 327.915 393.872C327.915 393.605 328.006 393.381 328.187 393.2C328.368 393.019 328.592 392.928 328.859 392.928C329.136 392.928 329.366 393.019 329.547 393.2C329.739 393.381 329.835 393.605 329.835 393.872C329.835 394.139 329.739 394.363 329.547 394.544C329.366 394.725 329.136 394.816 328.859 394.816ZM328.043 396.32H329.691V404H328.043V396.32ZM331.915 396.32H333.483V397.424C333.846 396.965 334.288 396.629 334.811 396.416C335.344 396.192 335.899 396.08 336.475 396.08C337.499 396.08 338.262 396.352 338.763 396.896C339.264 397.44 339.515 398.171 339.515 399.088V404H337.899V399.248C337.899 398 337.302 397.376 336.107 397.376C335.595 397.376 335.115 397.499 334.667 397.744C334.23 397.979 333.851 398.341 333.531 398.832V404H331.915V396.32ZM345.525 407.68C345.002 407.68 344.49 407.637 343.989 407.552C343.498 407.467 343.082 407.344 342.741 407.184V405.856C343.541 406.219 344.469 406.4 345.525 406.4C346.517 406.4 347.237 406.181 347.685 405.744C348.143 405.317 348.373 404.667 348.373 403.792V402.976C347.669 403.819 346.634 404.24 345.269 404.24C344.49 404.24 343.791 404.069 343.173 403.728C342.554 403.387 342.069 402.907 341.717 402.288C341.365 401.669 341.189 400.96 341.189 400.16C341.189 399.349 341.359 398.64 341.701 398.032C342.053 397.413 342.533 396.933 343.141 396.592C343.759 396.251 344.453 396.08 345.221 396.08C345.935 396.08 346.538 396.187 347.029 396.4C347.53 396.603 347.994 396.944 348.421 397.424V396.32H349.989V403.616C349.989 404.928 349.621 405.931 348.885 406.624C348.159 407.328 347.039 407.68 345.525 407.68ZM345.589 402.96C346.25 402.96 346.831 402.784 347.333 402.432C347.845 402.08 348.191 401.611 348.373 401.024V399.296C348.17 398.699 347.818 398.229 347.317 397.888C346.826 397.547 346.25 397.376 345.589 397.376C345.066 397.376 344.591 397.493 344.165 397.728C343.749 397.952 343.418 398.277 343.173 398.704C342.938 399.131 342.821 399.616 342.821 400.16C342.821 400.715 342.938 401.205 343.173 401.632C343.418 402.048 343.749 402.373 344.165 402.608C344.591 402.843 345.066 402.96 345.589 402.96ZM360.745 404.24C359.817 404.24 359.07 404.005 358.505 403.536C357.95 403.056 357.673 402.411 357.673 401.6C357.673 400.747 357.94 400.091 358.473 399.632C359.017 399.163 359.785 398.928 360.777 398.928C361.833 398.928 362.729 399.141 363.465 399.568V399.168C363.465 398.56 363.278 398.112 362.905 397.824C362.542 397.525 361.966 397.376 361.177 397.376C360.708 397.376 360.249 397.424 359.801 397.52C359.364 397.605 358.969 397.728 358.617 397.888V396.576C358.937 396.427 359.353 396.309 359.865 396.224C360.377 396.128 360.873 396.08 361.353 396.08C362.622 396.08 363.561 396.363 364.169 396.928C364.788 397.483 365.097 398.256 365.097 399.248V404H363.577V403.136C363.246 403.499 362.852 403.776 362.393 403.968C361.945 404.149 361.396 404.24 360.745 404.24ZM361.145 403.008C361.657 403.008 362.121 402.907 362.537 402.704C362.953 402.501 363.262 402.219 363.465 401.856V400.816C362.772 400.368 361.998 400.144 361.145 400.144C360.526 400.144 360.062 400.267 359.753 400.512C359.454 400.747 359.305 401.109 359.305 401.6C359.305 402.539 359.918 403.008 361.145 403.008ZM367.103 396.32H368.671V397.424C369.033 396.965 369.476 396.629 369.999 396.416C370.532 396.192 371.087 396.08 371.663 396.08C372.687 396.08 373.449 396.352 373.951 396.896C374.452 397.44 374.703 398.171 374.703 399.088V404H373.087V399.248C373.087 398 372.489 397.376 371.295 397.376C370.783 397.376 370.303 397.499 369.855 397.744C369.417 397.979 369.039 398.341 368.719 398.832V404H367.103V396.32ZM377.61 407.168C377.034 407.168 376.554 407.109 376.17 406.992V405.728C376.447 405.835 376.788 405.888 377.194 405.888C377.567 405.888 377.86 405.792 378.074 405.6C378.287 405.419 378.479 405.12 378.65 404.704L379.018 403.808L375.658 396.32H377.322L379.882 402.224L382.266 396.32H383.93L380.474 404.864C380.154 405.664 379.77 406.245 379.322 406.608C378.884 406.981 378.314 407.168 377.61 407.168ZM88.0621 416.816C87.7955 416.816 87.5715 416.725 87.3901 416.544C87.2088 416.363 87.1181 416.139 87.1181 415.872C87.1181 415.605 87.2088 415.381 87.3901 415.2C87.5715 415.019 87.7955 414.928 88.0621 414.928C88.3395 414.928 88.5688 415.019 88.7501 415.2C88.9421 415.381 89.0381 415.605 89.0381 415.872C89.0381 416.139 88.9421 416.363 88.7501 416.544C88.5688 416.725 88.3395 416.816 88.0621 416.816ZM87.2461 418.32H88.8941V426H87.2461V418.32ZM91.1181 418.32H92.6861V419.424C93.0488 418.965 93.4915 418.629 94.0141 418.416C94.5475 418.192 95.1021 418.08 95.6781 418.08C96.7021 418.08 97.4648 418.352 97.9661 418.896C98.4675 419.44 98.7181 420.171 98.7181 421.088V426H97.1021V421.248C97.1021 420 96.5048 419.376 95.3101 419.376C94.7981 419.376 94.3181 419.499 93.8701 419.744C93.4328 419.979 93.0541 420.341 92.7341 420.832V426H91.1181V418.32ZM101.24 419.568H100.072V418.32H101.24V416.816C101.24 415.931 101.491 415.259 101.992 414.8C102.493 414.331 103.165 414.096 104.008 414.096C104.445 414.096 104.856 414.16 105.24 414.288V415.632C104.941 415.493 104.632 415.424 104.312 415.424C103.811 415.424 103.443 415.547 103.208 415.792C102.973 416.027 102.856 416.4 102.856 416.912V418.32H104.776V419.568H102.856V426H101.24V419.568ZM109.838 426.24C108.974 426.24 108.211 426.08 107.55 425.76C106.899 425.429 106.387 424.96 106.014 424.352C105.651 423.733 105.47 423.008 105.47 422.176C105.47 421.355 105.651 420.635 106.014 420.016C106.377 419.397 106.889 418.923 107.55 418.592C108.211 418.251 108.974 418.08 109.838 418.08C110.702 418.08 111.465 418.251 112.126 418.592C112.787 418.923 113.299 419.397 113.662 420.016C114.035 420.635 114.222 421.355 114.222 422.176C114.222 423.008 114.035 423.733 113.662 424.352C113.299 424.96 112.787 425.429 112.126 425.76C111.465 426.08 110.702 426.24 109.838 426.24ZM109.838 424.96C110.67 424.96 111.331 424.704 111.822 424.192C112.313 423.68 112.558 423.008 112.558 422.176C112.558 421.312 112.313 420.629 111.822 420.128C111.331 419.627 110.67 419.376 109.838 419.376C109.006 419.376 108.345 419.627 107.854 420.128C107.363 420.629 107.118 421.312 107.118 422.176C107.118 423.008 107.363 423.68 107.854 424.192C108.345 424.704 109.006 424.96 109.838 424.96ZM115.978 418.32H117.546V419.696C117.866 419.227 118.314 418.88 118.89 418.656C119.476 418.432 120.154 418.32 120.922 418.32V419.584C120.1 419.584 119.396 419.717 118.81 419.984C118.223 420.251 117.818 420.672 117.594 421.248V426H115.978V418.32ZM122.368 418.32H123.904V419.424C124.267 418.976 124.677 418.64 125.136 418.416C125.595 418.192 126.069 418.08 126.56 418.08C127.179 418.08 127.669 418.187 128.032 418.4C128.395 418.603 128.661 418.917 128.832 419.344C129.173 418.928 129.589 418.613 130.08 418.4C130.581 418.187 131.083 418.08 131.584 418.08C132.523 418.08 133.2 418.32 133.616 418.8C134.032 419.269 134.24 419.968 134.24 420.896V426H132.672V421.104C132.672 420.475 132.555 420.032 132.32 419.776C132.085 419.509 131.685 419.376 131.12 419.376C130.309 419.376 129.648 419.728 129.136 420.432C129.157 420.592 129.168 420.853 129.168 421.216V426H127.6V421.104C127.6 420.475 127.493 420.032 127.28 419.776C127.067 419.509 126.683 419.376 126.128 419.376C125.317 419.376 124.592 419.835 123.952 420.752V426H122.368V418.32ZM138.761 426.24C137.833 426.24 137.086 426.005 136.521 425.536C135.966 425.056 135.689 424.411 135.689 423.6C135.689 422.747 135.955 422.091 136.489 421.632C137.033 421.163 137.801 420.928 138.793 420.928C139.849 420.928 140.745 421.141 141.481 421.568V421.168C141.481 420.56 141.294 420.112 140.921 419.824C140.558 419.525 139.982 419.376 139.193 419.376C138.723 419.376 138.265 419.424 137.817 419.52C137.379 419.605 136.985 419.728 136.633 419.888V418.576C136.953 418.427 137.369 418.309 137.881 418.224C138.393 418.128 138.889 418.08 139.369 418.08C140.638 418.08 141.577 418.363 142.185 418.928C142.803 419.483 143.113 420.256 143.113 421.248V426H141.593V425.136C141.262 425.499 140.867 425.776 140.409 425.968C139.961 426.149 139.411 426.24 138.761 426.24ZM139.161 425.008C139.673 425.008 140.137 424.907 140.553 424.704C140.969 424.501 141.278 424.219 141.481 423.856V422.816C140.787 422.368 140.014 422.144 139.161 422.144C138.542 422.144 138.078 422.267 137.769 422.512C137.47 422.747 137.321 423.109 137.321 423.6C137.321 424.539 137.934 425.008 139.161 425.008ZM147.672 426.24C146.893 426.24 146.291 426.016 145.864 425.568C145.448 425.12 145.24 424.485 145.24 423.664V419.568H144.072V418.32H145.24V416.016H146.872V418.32H148.76V419.568H146.872V423.552C146.872 424.064 146.968 424.427 147.16 424.64C147.363 424.853 147.725 424.96 148.248 424.96C148.557 424.96 148.867 424.891 149.176 424.752V426.032C148.771 426.171 148.269 426.24 147.672 426.24ZM151.64 416.816C151.374 416.816 151.15 416.725 150.968 416.544C150.787 416.363 150.696 416.139 150.696 415.872C150.696 415.605 150.787 415.381 150.968 415.2C151.15 415.019 151.374 414.928 151.64 414.928C151.918 414.928 152.147 415.019 152.328 415.2C152.52 415.381 152.616 415.605 152.616 415.872C152.616 416.139 152.52 416.363 152.328 416.544C152.147 416.725 151.918 416.816 151.64 416.816ZM150.824 418.32H152.472V426H150.824V418.32ZM158.744 426.24C157.88 426.24 157.118 426.08 156.456 425.76C155.806 425.429 155.294 424.96 154.92 424.352C154.558 423.733 154.376 423.008 154.376 422.176C154.376 421.355 154.558 420.635 154.92 420.016C155.283 419.397 155.795 418.923 156.456 418.592C157.118 418.251 157.88 418.08 158.744 418.08C159.608 418.08 160.371 418.251 161.032 418.592C161.694 418.923 162.206 419.397 162.568 420.016C162.942 420.635 163.128 421.355 163.128 422.176C163.128 423.008 162.942 423.733 162.568 424.352C162.206 424.96 161.694 425.429 161.032 425.76C160.371 426.08 159.608 426.24 158.744 426.24ZM158.744 424.96C159.576 424.96 160.238 424.704 160.728 424.192C161.219 423.68 161.464 423.008 161.464 422.176C161.464 421.312 161.219 420.629 160.728 420.128C160.238 419.627 159.576 419.376 158.744 419.376C157.912 419.376 157.251 419.627 156.76 420.128C156.27 420.629 156.024 421.312 156.024 422.176C156.024 423.008 156.27 423.68 156.76 424.192C157.251 424.704 157.912 424.96 158.744 424.96ZM164.884 418.32H166.452V419.424C166.814 418.965 167.257 418.629 167.78 418.416C168.313 418.192 168.868 418.08 169.444 418.08C170.468 418.08 171.23 418.352 171.732 418.896C172.233 419.44 172.484 420.171 172.484 421.088V426H170.868V421.248C170.868 420 170.27 419.376 169.076 419.376C168.564 419.376 168.084 419.499 167.636 419.744C167.198 419.979 166.82 420.341 166.5 420.832V426H164.884V418.32ZM180.927 419.568H179.759V418.32H180.927V416.816C180.927 415.931 181.178 415.259 181.679 414.8C182.181 414.331 182.853 414.096 183.695 414.096C184.133 414.096 184.543 414.16 184.927 414.288V415.632C184.629 415.493 184.319 415.424 183.999 415.424C183.498 415.424 183.13 415.547 182.895 415.792C182.661 416.027 182.543 416.4 182.543 416.912V418.32H184.463V419.568H182.543V426H180.927V419.568ZM189.526 426.24C188.662 426.24 187.899 426.08 187.238 425.76C186.587 425.429 186.075 424.96 185.702 424.352C185.339 423.733 185.158 423.008 185.158 422.176C185.158 421.355 185.339 420.635 185.702 420.016C186.064 419.397 186.576 418.923 187.238 418.592C187.899 418.251 188.662 418.08 189.526 418.08C190.39 418.08 191.152 418.251 191.814 418.592C192.475 418.923 192.987 419.397 193.35 420.016C193.723 420.635 193.91 421.355 193.91 422.176C193.91 423.008 193.723 423.733 193.35 424.352C192.987 424.96 192.475 425.429 191.814 425.76C191.152 426.08 190.39 426.24 189.526 426.24ZM189.526 424.96C190.358 424.96 191.019 424.704 191.51 424.192C192 423.68 192.246 423.008 192.246 422.176C192.246 421.312 192 420.629 191.51 420.128C191.019 419.627 190.358 419.376 189.526 419.376C188.694 419.376 188.032 419.627 187.542 420.128C187.051 420.629 186.806 421.312 186.806 422.176C186.806 423.008 187.051 423.68 187.542 424.192C188.032 424.704 188.694 424.96 189.526 424.96ZM195.665 418.32H197.233V419.696C197.553 419.227 198.001 418.88 198.577 418.656C199.164 418.432 199.841 418.32 200.609 418.32V419.584C199.788 419.584 199.084 419.717 198.497 419.984C197.91 420.251 197.505 420.672 197.281 421.248V426H195.665V418.32ZM212.026 426.24C211.162 426.24 210.399 426.08 209.738 425.76C209.087 425.429 208.575 424.96 208.202 424.352C207.839 423.733 207.658 423.008 207.658 422.176C207.658 421.355 207.839 420.635 208.202 420.016C208.564 419.397 209.076 418.923 209.738 418.592C210.399 418.251 211.162 418.08 212.026 418.08C212.89 418.08 213.652 418.251 214.314 418.592C214.975 418.923 215.487 419.397 215.85 420.016C216.223 420.635 216.41 421.355 216.41 422.176C216.41 423.008 216.223 423.733 215.85 424.352C215.487 424.96 214.975 425.429 214.314 425.76C213.652 426.08 212.89 426.24 212.026 426.24ZM212.026 424.96C212.858 424.96 213.519 424.704 214.01 424.192C214.5 423.68 214.746 423.008 214.746 422.176C214.746 421.312 214.5 420.629 214.01 420.128C213.519 419.627 212.858 419.376 212.026 419.376C211.194 419.376 210.532 419.627 210.042 420.128C209.551 420.629 209.306 421.312 209.306 422.176C209.306 423.008 209.551 423.68 210.042 424.192C210.532 424.704 211.194 424.96 212.026 424.96ZM221.221 426.24C220.186 426.24 219.402 425.963 218.869 425.408C218.346 424.853 218.085 424.112 218.085 423.184V418.32H219.701V423.12C219.701 424.347 220.314 424.96 221.541 424.96C222.618 424.96 223.461 424.475 224.069 423.504V418.32H225.685V426H224.117V424.912C223.754 425.371 223.322 425.707 222.821 425.92C222.33 426.133 221.797 426.24 221.221 426.24ZM227.759 418.32H229.327V419.696C229.647 419.227 230.095 418.88 230.671 418.656C231.257 418.432 231.935 418.32 232.703 418.32V419.584C231.881 419.584 231.177 419.717 230.591 419.984C230.004 420.251 229.599 420.672 229.375 421.248V426H227.759V418.32ZM240.071 418.32H241.639V419.456C242.429 418.539 243.495 418.08 244.839 418.08C245.607 418.08 246.295 418.251 246.903 418.592C247.522 418.933 248.002 419.413 248.343 420.032C248.695 420.64 248.871 421.349 248.871 422.16C248.871 422.96 248.695 423.669 248.343 424.288C248.002 424.907 247.527 425.387 246.919 425.728C246.311 426.069 245.618 426.24 244.839 426.24C244.199 426.24 243.602 426.133 243.047 425.92C242.493 425.707 242.039 425.392 241.687 424.976V429.504H240.071V418.32ZM244.471 424.96C244.994 424.96 245.463 424.848 245.879 424.624C246.306 424.389 246.637 424.059 246.871 423.632C247.117 423.205 247.239 422.715 247.239 422.16C247.239 421.605 247.117 421.12 246.871 420.704C246.637 420.277 246.306 419.952 245.879 419.728C245.463 419.493 244.994 419.376 244.471 419.376C243.821 419.376 243.245 419.547 242.743 419.888C242.253 420.229 241.901 420.699 241.687 421.296V423.024C241.869 423.611 242.215 424.08 242.727 424.432C243.239 424.784 243.821 424.96 244.471 424.96ZM252.98 426.24C252.052 426.24 251.305 426.005 250.74 425.536C250.185 425.056 249.908 424.411 249.908 423.6C249.908 422.747 250.174 422.091 250.708 421.632C251.252 421.163 252.02 420.928 253.012 420.928C254.068 420.928 254.964 421.141 255.7 421.568V421.168C255.7 420.56 255.513 420.112 255.14 419.824C254.777 419.525 254.201 419.376 253.411 419.376C252.942 419.376 252.484 419.424 252.036 419.52C251.598 419.605 251.204 419.728 250.852 419.888V418.576C251.172 418.427 251.588 418.309 252.1 418.224C252.612 418.128 253.108 418.08 253.588 418.08C254.857 418.08 255.796 418.363 256.404 418.928C257.022 419.483 257.332 420.256 257.332 421.248V426H255.812V425.136C255.481 425.499 255.086 425.776 254.628 425.968C254.18 426.149 253.63 426.24 252.98 426.24ZM253.38 425.008C253.892 425.008 254.356 424.907 254.772 424.704C255.188 424.501 255.497 424.219 255.7 423.856V422.816C255.006 422.368 254.233 422.144 253.38 422.144C252.761 422.144 252.297 422.267 251.988 422.512C251.689 422.747 251.539 423.109 251.539 423.6C251.539 424.539 252.153 425.008 253.38 425.008ZM260.281 416.816C260.014 416.816 259.79 416.725 259.609 416.544C259.428 416.363 259.337 416.139 259.337 415.872C259.337 415.605 259.428 415.381 259.609 415.2C259.79 415.019 260.014 414.928 260.281 414.928C260.558 414.928 260.788 415.019 260.969 415.2C261.161 415.381 261.257 415.605 261.257 415.872C261.257 416.139 261.161 416.363 260.969 416.544C260.788 416.725 260.558 416.816 260.281 416.816ZM259.465 418.32H261.113V426H259.465V418.32ZM267.049 426.24C266.281 426.24 265.588 426.075 264.969 425.744C264.361 425.403 263.881 424.928 263.529 424.32C263.188 423.701 263.017 422.987 263.017 422.176C263.017 421.376 263.188 420.667 263.529 420.048C263.881 419.429 264.361 418.949 264.969 418.608C265.588 418.256 266.281 418.08 267.049 418.08C268.436 418.08 269.486 418.501 270.201 419.344V414.176H271.817V426H270.249V424.88C269.822 425.349 269.353 425.696 268.841 425.92C268.34 426.133 267.742 426.24 267.049 426.24ZM267.417 424.96C268.078 424.96 268.654 424.789 269.145 424.448C269.646 424.096 269.998 423.627 270.201 423.04V421.312C270.02 420.725 269.673 420.256 269.161 419.904C268.66 419.552 268.078 419.376 267.417 419.376C266.894 419.376 266.42 419.493 265.993 419.728C265.577 419.963 265.246 420.293 265.001 420.72C264.766 421.147 264.649 421.632 264.649 422.176C264.649 422.72 264.766 423.205 265.001 423.632C265.246 424.059 265.577 424.389 265.993 424.624C266.42 424.848 266.894 424.96 267.417 424.96ZM283.869 426.24C283.016 426.24 282.259 426.08 281.597 425.76C280.936 425.44 280.419 424.976 280.045 424.368C279.683 423.749 279.501 423.019 279.501 422.176C279.501 421.333 279.683 420.608 280.045 420C280.419 419.381 280.936 418.907 281.597 418.576C282.269 418.245 283.037 418.08 283.901 418.08C285.075 418.08 286.013 418.309 286.717 418.768V420.096C286.024 419.616 285.139 419.376 284.061 419.376C283.187 419.376 282.477 419.616 281.933 420.096C281.4 420.565 281.133 421.259 281.133 422.176C281.133 423.093 281.4 423.787 281.933 424.256C282.467 424.725 283.165 424.96 284.029 424.96C285.107 424.96 286.035 424.704 286.813 424.192V425.504C286.44 425.76 286.013 425.947 285.533 426.064C285.064 426.181 284.509 426.24 283.869 426.24ZM288.571 414.176H290.187V419.376C290.923 418.512 291.905 418.08 293.131 418.08C294.155 418.08 294.918 418.352 295.419 418.896C295.921 419.44 296.171 420.171 296.171 421.088V426H294.555V421.248C294.555 420 293.958 419.376 292.763 419.376C292.251 419.376 291.771 419.499 291.323 419.744C290.886 419.979 290.507 420.341 290.187 420.832V426H288.571V414.176ZM300.683 426.24C299.755 426.24 299.008 426.005 298.443 425.536C297.888 425.056 297.611 424.411 297.611 423.6C297.611 422.747 297.877 422.091 298.411 421.632C298.955 421.163 299.723 420.928 300.715 420.928C301.771 420.928 302.667 421.141 303.403 421.568V421.168C303.403 420.56 303.216 420.112 302.843 419.824C302.48 419.525 301.904 419.376 301.115 419.376C300.645 419.376 300.187 419.424 299.739 419.52C299.301 419.605 298.907 419.728 298.555 419.888V418.576C298.875 418.427 299.291 418.309 299.803 418.224C300.315 418.128 300.811 418.08 301.291 418.08C302.56 418.08 303.499 418.363 304.107 418.928C304.725 419.483 305.035 420.256 305.035 421.248V426H303.515V425.136C303.184 425.499 302.789 425.776 302.331 425.968C301.883 426.149 301.333 426.24 300.683 426.24ZM301.083 425.008C301.595 425.008 302.059 424.907 302.475 424.704C302.891 424.501 303.2 424.219 303.403 423.856V422.816C302.709 422.368 301.936 422.144 301.083 422.144C300.464 422.144 300 422.267 299.691 422.512C299.392 422.747 299.243 423.109 299.243 423.6C299.243 424.539 299.856 425.008 301.083 425.008ZM307.04 418.32H308.608V419.424C308.971 418.965 309.413 418.629 309.936 418.416C310.469 418.192 311.024 418.08 311.6 418.08C312.624 418.08 313.387 418.352 313.888 418.896C314.389 419.44 314.64 420.171 314.64 421.088V426H313.024V421.248C313.024 420 312.427 419.376 311.232 419.376C310.72 419.376 310.24 419.499 309.792 419.744C309.355 419.979 308.976 420.341 308.656 420.832V426H307.04V418.32ZM316.634 418.32H318.202V419.424C318.564 418.965 319.007 418.629 319.53 418.416C320.063 418.192 320.618 418.08 321.194 418.08C322.218 418.08 322.98 418.352 323.482 418.896C323.983 419.44 324.234 420.171 324.234 421.088V426H322.618V421.248C322.618 420 322.02 419.376 320.826 419.376C320.314 419.376 319.834 419.499 319.386 419.744C318.948 419.979 318.57 420.341 318.25 420.832V426H316.634V418.32ZM330.452 426.24C329.033 426.24 327.918 425.888 327.108 425.184C326.308 424.469 325.908 423.467 325.908 422.176C325.908 420.917 326.265 419.92 326.98 419.184C327.705 418.448 328.734 418.08 330.068 418.08C330.953 418.08 331.705 418.251 332.324 418.592C332.942 418.923 333.406 419.387 333.716 419.984C334.036 420.571 334.196 421.243 334.196 422V422.8H327.444C327.497 423.525 327.801 424.069 328.356 424.432C328.921 424.784 329.684 424.96 330.644 424.96C331.134 424.96 331.63 424.917 332.132 424.832C332.633 424.736 333.076 424.613 333.46 424.464V425.76C333.118 425.899 332.665 426.011 332.1 426.096C331.545 426.192 330.996 426.24 330.452 426.24ZM332.676 421.664C332.654 420.939 332.414 420.379 331.956 419.984C331.508 419.579 330.868 419.376 330.036 419.376C329.225 419.376 328.596 419.584 328.148 420C327.7 420.416 327.465 420.971 327.444 421.664H332.676ZM335.962 414.176H337.578V426H335.962V414.176ZM342.497 426.24C341.964 426.24 341.398 426.171 340.801 426.032C340.204 425.904 339.734 425.728 339.393 425.504V424.128C339.809 424.373 340.289 424.576 340.833 424.736C341.377 424.885 341.905 424.96 342.417 424.96C342.993 424.96 343.414 424.891 343.681 424.752C343.948 424.613 344.081 424.389 344.081 424.08C344.081 423.845 344.017 423.659 343.889 423.52C343.772 423.371 343.564 423.237 343.265 423.12C342.977 423.003 342.54 422.864 341.953 422.704C341.324 422.523 340.822 422.341 340.449 422.16C340.086 421.968 339.809 421.728 339.617 421.44C339.436 421.152 339.345 420.779 339.345 420.32C339.345 419.584 339.633 419.029 340.209 418.656C340.796 418.272 341.58 418.08 342.561 418.08C343.073 418.08 343.574 418.128 344.065 418.224C344.556 418.32 344.95 418.453 345.249 418.624V419.968C344.94 419.787 344.556 419.643 344.097 419.536C343.649 419.429 343.19 419.376 342.721 419.376C342.156 419.376 341.724 419.445 341.425 419.584C341.126 419.723 340.977 419.968 340.977 420.32C340.977 420.544 341.041 420.725 341.169 420.864C341.297 421.003 341.5 421.125 341.777 421.232C342.065 421.328 342.518 421.456 343.137 421.616C344.108 421.883 344.78 422.197 345.153 422.56C345.537 422.923 345.729 423.424 345.729 424.064C345.729 424.725 345.457 425.253 344.913 425.648C344.369 426.043 343.564 426.24 342.497 426.24ZM354.359 416.816C354.092 416.816 353.868 416.725 353.687 416.544C353.506 416.363 353.415 416.139 353.415 415.872C353.415 415.605 353.506 415.381 353.687 415.2C353.868 415.019 354.092 414.928 354.359 414.928C354.636 414.928 354.866 415.019 355.047 415.2C355.239 415.381 355.335 415.605 355.335 415.872C355.335 416.139 355.239 416.363 355.047 416.544C354.866 416.725 354.636 416.816 354.359 416.816ZM353.543 418.32H355.191V426H353.543V418.32ZM360.247 426.24C359.714 426.24 359.148 426.171 358.551 426.032C357.954 425.904 357.484 425.728 357.143 425.504V424.128C357.559 424.373 358.039 424.576 358.583 424.736C359.127 424.885 359.655 424.96 360.167 424.96C360.743 424.96 361.164 424.891 361.431 424.752C361.698 424.613 361.831 424.389 361.831 424.08C361.831 423.845 361.767 423.659 361.639 423.52C361.522 423.371 361.314 423.237 361.015 423.12C360.727 423.003 360.29 422.864 359.703 422.704C359.074 422.523 358.572 422.341 358.199 422.16C357.836 421.968 357.559 421.728 357.367 421.44C357.186 421.152 357.095 420.779 357.095 420.32C357.095 419.584 357.383 419.029 357.959 418.656C358.546 418.272 359.33 418.08 360.311 418.08C360.823 418.08 361.324 418.128 361.815 418.224C362.306 418.32 362.7 418.453 362.999 418.624V419.968C362.69 419.787 362.306 419.643 361.847 419.536C361.399 419.429 360.94 419.376 360.471 419.376C359.906 419.376 359.474 419.445 359.175 419.584C358.876 419.723 358.727 419.968 358.727 420.32C358.727 420.544 358.791 420.725 358.919 420.864C359.047 421.003 359.25 421.125 359.527 421.232C359.815 421.328 360.268 421.456 360.887 421.616C361.858 421.883 362.53 422.197 362.903 422.56C363.287 422.923 363.479 423.424 363.479 424.064C363.479 424.725 363.207 425.253 362.663 425.648C362.119 426.043 361.314 426.24 360.247 426.24ZM373.997 426.24C373.464 426.24 372.898 426.171 372.301 426.032C371.704 425.904 371.234 425.728 370.893 425.504V424.128C371.309 424.373 371.789 424.576 372.333 424.736C372.877 424.885 373.405 424.96 373.917 424.96C374.493 424.96 374.914 424.891 375.181 424.752C375.448 424.613 375.581 424.389 375.581 424.08C375.581 423.845 375.517 423.659 375.389 423.52C375.272 423.371 375.064 423.237 374.765 423.12C374.477 423.003 374.04 422.864 373.453 422.704C372.824 422.523 372.322 422.341 371.949 422.16C371.586 421.968 371.309 421.728 371.117 421.44C370.936 421.152 370.845 420.779 370.845 420.32C370.845 419.584 371.133 419.029 371.709 418.656C372.296 418.272 373.08 418.08 374.061 418.08C374.573 418.08 375.074 418.128 375.565 418.224C376.056 418.32 376.45 418.453 376.749 418.624V419.968C376.44 419.787 376.056 419.643 375.597 419.536C375.149 419.429 374.69 419.376 374.221 419.376C373.656 419.376 373.224 419.445 372.925 419.584C372.626 419.723 372.477 419.968 372.477 420.32C372.477 420.544 372.541 420.725 372.669 420.864C372.797 421.003 373 421.125 373.277 421.232C373.565 421.328 374.018 421.456 374.637 421.616C375.608 421.883 376.28 422.197 376.653 422.56C377.037 422.923 377.229 423.424 377.229 424.064C377.229 424.725 376.957 425.253 376.413 425.648C375.869 426.043 375.064 426.24 373.997 426.24ZM381.719 426.24C380.94 426.24 380.337 426.016 379.911 425.568C379.495 425.12 379.287 424.485 379.287 423.664V419.568H378.119V418.32H379.287V416.016H380.919V418.32H382.807V419.568H380.919V423.552C380.919 424.064 381.015 424.427 381.207 424.64C381.409 424.853 381.772 424.96 382.295 424.96C382.604 424.96 382.913 424.891 383.223 424.752V426.032C382.817 426.171 382.316 426.24 381.719 426.24ZM384.743 418.32H386.311V419.696C386.631 419.227 387.079 418.88 387.655 418.656C388.242 418.432 388.919 418.32 389.687 418.32V419.584C388.866 419.584 388.162 419.717 387.575 419.984C386.988 420.251 386.583 420.672 386.359 421.248V426H384.743V418.32ZM392.078 416.816C391.811 416.816 391.587 416.725 391.406 416.544C391.224 416.363 391.134 416.139 391.134 415.872C391.134 415.605 391.224 415.381 391.406 415.2C391.587 415.019 391.811 414.928 392.078 414.928C392.355 414.928 392.584 415.019 392.766 415.2C392.958 415.381 393.054 415.605 393.054 415.872C393.054 416.139 392.958 416.363 392.766 416.544C392.584 416.725 392.355 416.816 392.078 416.816ZM391.262 418.32H392.91V426H391.262V418.32ZM399.182 426.24C398.328 426.24 397.571 426.08 396.91 425.76C396.248 425.44 395.731 424.976 395.358 424.368C394.995 423.749 394.814 423.019 394.814 422.176C394.814 421.333 394.995 420.608 395.358 420C395.731 419.381 396.248 418.907 396.91 418.576C397.582 418.245 398.35 418.08 399.214 418.08C400.387 418.08 401.326 418.309 402.03 418.768V420.096C401.336 419.616 400.451 419.376 399.374 419.376C398.499 419.376 397.79 419.616 397.246 420.096C396.712 420.565 396.446 421.259 396.446 422.176C396.446 423.093 396.712 423.787 397.246 424.256C397.779 424.725 398.478 424.96 399.342 424.96C400.419 424.96 401.347 424.704 402.126 424.192V425.504C401.752 425.76 401.326 425.947 400.846 426.064C400.376 426.181 399.822 426.24 399.182 426.24ZM406.844 426.24C406.065 426.24 405.462 426.016 405.036 425.568C404.62 425.12 404.412 424.485 404.412 423.664V419.568H403.244V418.32H404.412V416.016H406.044V418.32H407.932V419.568H406.044V423.552C406.044 424.064 406.14 424.427 406.332 424.64C406.534 424.853 406.897 424.96 407.42 424.96C407.729 424.96 408.038 424.891 408.348 424.752V426.032C407.942 426.171 407.441 426.24 406.844 426.24ZM409.868 414.176H411.484V426H409.868V414.176ZM415.203 429.168C414.627 429.168 414.147 429.109 413.763 428.992V427.728C414.041 427.835 414.382 427.888 414.787 427.888C415.161 427.888 415.454 427.792 415.667 427.6C415.881 427.419 416.073 427.12 416.243 426.704L416.611 425.808L413.251 418.32H414.915L417.475 424.224L419.859 418.32H421.523L418.067 426.864C417.747 427.664 417.363 428.245 416.915 428.608C416.478 428.981 415.907 429.168 415.203 429.168ZM90.3916 440.32H91.9596V441.456C92.7489 440.539 93.8156 440.08 95.1596 440.08C95.9276 440.08 96.6156 440.251 97.2236 440.592C97.8422 440.933 98.3222 441.413 98.6636 442.032C99.0156 442.64 99.1916 443.349 99.1916 444.16C99.1916 444.96 99.0156 445.669 98.6636 446.288C98.3222 446.907 97.8476 447.387 97.2396 447.728C96.6316 448.069 95.9382 448.24 95.1596 448.24C94.5196 448.24 93.9222 448.133 93.3676 447.92C92.8129 447.707 92.3596 447.392 92.0076 446.976V451.504H90.3916V440.32ZM94.7916 446.96C95.3142 446.96 95.7836 446.848 96.1996 446.624C96.6262 446.389 96.9569 446.059 97.1916 445.632C97.4369 445.205 97.5596 444.715 97.5596 444.16C97.5596 443.605 97.4369 443.12 97.1916 442.704C96.9569 442.277 96.6262 441.952 96.1996 441.728C95.7836 441.493 95.3142 441.376 94.7916 441.376C94.1409 441.376 93.5649 441.547 93.0636 441.888C92.5729 442.229 92.2209 442.699 92.0076 443.296V445.024C92.1889 445.611 92.5356 446.08 93.0476 446.432C93.5596 446.784 94.1409 446.96 94.7916 446.96ZM100.954 440.32H102.522V441.696C102.842 441.227 103.29 440.88 103.866 440.656C104.453 440.432 105.13 440.32 105.898 440.32V441.584C105.077 441.584 104.373 441.717 103.786 441.984C103.199 442.251 102.794 442.672 102.57 443.248V448H100.954V440.32ZM111.158 448.24C110.294 448.24 109.532 448.08 108.87 447.76C108.22 447.429 107.708 446.96 107.334 446.352C106.972 445.733 106.79 445.008 106.79 444.176C106.79 443.355 106.972 442.635 107.334 442.016C107.697 441.397 108.209 440.923 108.87 440.592C109.532 440.251 110.294 440.08 111.158 440.08C112.022 440.08 112.785 440.251 113.446 440.592C114.108 440.923 114.62 441.397 114.982 442.016C115.356 442.635 115.542 443.355 115.542 444.176C115.542 445.008 115.356 445.733 114.982 446.352C114.62 446.96 114.108 447.429 113.446 447.76C112.785 448.08 112.022 448.24 111.158 448.24ZM111.158 446.96C111.99 446.96 112.652 446.704 113.142 446.192C113.633 445.68 113.878 445.008 113.878 444.176C113.878 443.312 113.633 442.629 113.142 442.128C112.652 441.627 111.99 441.376 111.158 441.376C110.326 441.376 109.665 441.627 109.174 442.128C108.684 442.629 108.438 443.312 108.438 444.176C108.438 445.008 108.684 445.68 109.174 446.192C109.665 446.704 110.326 446.96 111.158 446.96ZM117.298 436.176H118.914V441.376C119.65 440.512 120.631 440.08 121.858 440.08C122.882 440.08 123.644 440.352 124.146 440.896C124.647 441.44 124.898 442.171 124.898 443.088V448H123.282V443.248C123.282 442 122.684 441.376 121.49 441.376C120.978 441.376 120.498 441.499 120.05 441.744C119.612 441.979 119.234 442.341 118.914 442.832V448H117.298V436.176ZM127.836 438.816C127.569 438.816 127.345 438.725 127.164 438.544C126.982 438.363 126.892 438.139 126.892 437.872C126.892 437.605 126.982 437.381 127.164 437.2C127.345 437.019 127.569 436.928 127.836 436.928C128.113 436.928 128.342 437.019 128.524 437.2C128.716 437.381 128.812 437.605 128.812 437.872C128.812 438.139 128.716 438.363 128.524 438.544C128.342 438.725 128.113 438.816 127.836 438.816ZM127.02 440.32H128.668V448H127.02V440.32ZM135.66 448.24C134.966 448.24 134.364 448.133 133.852 447.92C133.35 447.696 132.886 447.349 132.46 446.88V448H130.892V436.176H132.508V441.344C132.86 440.928 133.313 440.613 133.868 440.4C134.422 440.187 135.02 440.08 135.66 440.08C136.428 440.08 137.116 440.256 137.724 440.608C138.342 440.949 138.822 441.429 139.164 442.048C139.516 442.667 139.692 443.376 139.692 444.176C139.692 444.987 139.516 445.701 139.164 446.32C138.822 446.928 138.342 447.403 137.724 447.744C137.116 448.075 136.428 448.24 135.66 448.24ZM135.292 446.96C135.814 446.96 136.284 446.848 136.7 446.624C137.126 446.389 137.457 446.059 137.692 445.632C137.937 445.205 138.06 444.72 138.06 444.176C138.06 443.632 137.937 443.147 137.692 442.72C137.457 442.293 137.126 441.963 136.7 441.728C136.284 441.493 135.814 441.376 135.292 441.376C134.641 441.376 134.06 441.552 133.548 441.904C133.036 442.256 132.689 442.725 132.508 443.312V445.04C132.71 445.627 133.057 446.096 133.548 446.448C134.049 446.789 134.63 446.96 135.292 446.96ZM142.398 438.816C142.131 438.816 141.907 438.725 141.726 438.544C141.545 438.363 141.454 438.139 141.454 437.872C141.454 437.605 141.545 437.381 141.726 437.2C141.907 437.019 142.131 436.928 142.398 436.928C142.675 436.928 142.905 437.019 143.086 437.2C143.278 437.381 143.374 437.605 143.374 437.872C143.374 438.139 143.278 438.363 143.086 438.544C142.905 438.725 142.675 438.816 142.398 438.816ZM141.582 440.32H143.23V448H141.582V440.32ZM148.414 448.24C147.635 448.24 147.033 448.016 146.606 447.568C146.19 447.12 145.982 446.485 145.982 445.664V441.568H144.814V440.32H145.982V438.016H147.614V440.32H149.502V441.568H147.614V445.552C147.614 446.064 147.71 446.427 147.902 446.64C148.105 446.853 148.467 446.96 148.99 446.96C149.299 446.96 149.609 446.891 149.918 446.752V448.032C149.513 448.171 149.011 448.24 148.414 448.24ZM155.662 448.24C154.244 448.24 153.129 447.888 152.318 447.184C151.518 446.469 151.118 445.467 151.118 444.176C151.118 442.917 151.476 441.92 152.19 441.184C152.916 440.448 153.945 440.08 155.278 440.08C156.164 440.08 156.916 440.251 157.534 440.592C158.153 440.923 158.617 441.387 158.926 441.984C159.246 442.571 159.406 443.243 159.406 444V444.8H152.654C152.708 445.525 153.012 446.069 153.566 446.432C154.132 446.784 154.894 446.96 155.854 446.96C156.345 446.96 156.841 446.917 157.342 446.832C157.844 446.736 158.286 446.613 158.67 446.464V447.76C158.329 447.899 157.876 448.011 157.31 448.096C156.756 448.192 156.206 448.24 155.662 448.24ZM157.886 443.664C157.865 442.939 157.625 442.379 157.166 441.984C156.718 441.579 156.078 441.376 155.246 441.376C154.436 441.376 153.806 441.584 153.358 442C152.91 442.416 152.676 442.971 152.654 443.664H157.886ZM164.885 448.24C164.117 448.24 163.423 448.075 162.805 447.744C162.197 447.403 161.717 446.928 161.365 446.32C161.023 445.701 160.853 444.987 160.853 444.176C160.853 443.376 161.023 442.667 161.365 442.048C161.717 441.429 162.197 440.949 162.805 440.608C163.423 440.256 164.117 440.08 164.885 440.08C166.271 440.08 167.322 440.501 168.037 441.344V436.176H169.653V448H168.085V446.88C167.658 447.349 167.189 447.696 166.677 447.92C166.175 448.133 165.578 448.24 164.885 448.24ZM165.253 446.96C165.914 446.96 166.49 446.789 166.981 446.448C167.482 446.096 167.834 445.627 168.037 445.04V443.312C167.855 442.725 167.509 442.256 166.997 441.904C166.495 441.552 165.914 441.376 165.253 441.376C164.73 441.376 164.255 441.493 163.829 441.728C163.413 441.963 163.082 442.293 162.837 442.72C162.602 443.147 162.485 443.632 162.485 444.176C162.485 444.72 162.602 445.205 162.837 445.632C163.082 446.059 163.413 446.389 163.829 446.624C164.255 446.848 164.73 446.96 165.253 446.96ZM180.409 448.24C179.481 448.24 178.735 448.005 178.169 447.536C177.615 447.056 177.337 446.411 177.337 445.6C177.337 444.747 177.604 444.091 178.137 443.632C178.681 443.163 179.449 442.928 180.441 442.928C181.497 442.928 182.393 443.141 183.129 443.568V443.168C183.129 442.56 182.943 442.112 182.569 441.824C182.207 441.525 181.631 441.376 180.841 441.376C180.372 441.376 179.913 441.424 179.465 441.52C179.028 441.605 178.633 441.728 178.281 441.888V440.576C178.601 440.427 179.017 440.309 179.529 440.224C180.041 440.128 180.537 440.08 181.017 440.08C182.287 440.08 183.225 440.363 183.833 440.928C184.452 441.483 184.761 442.256 184.761 443.248V448H183.241V447.136C182.911 447.499 182.516 447.776 182.057 447.968C181.609 448.149 181.06 448.24 180.409 448.24ZM180.809 447.008C181.321 447.008 181.785 446.907 182.201 446.704C182.617 446.501 182.927 446.219 183.129 445.856V444.816C182.436 444.368 181.663 444.144 180.809 444.144C180.191 444.144 179.727 444.267 179.417 444.512C179.119 444.747 178.969 445.109 178.969 445.6C178.969 446.539 179.583 447.008 180.809 447.008ZM186.767 440.32H188.335V441.424C188.697 440.965 189.14 440.629 189.663 440.416C190.196 440.192 190.751 440.08 191.327 440.08C192.351 440.08 193.113 440.352 193.615 440.896C194.116 441.44 194.367 442.171 194.367 443.088V448H192.751V443.248C192.751 442 192.153 441.376 190.959 441.376C190.447 441.376 189.967 441.499 189.519 441.744C189.081 441.979 188.703 442.341 188.383 442.832V448H186.767V440.32ZM200.072 448.24C199.304 448.24 198.611 448.075 197.992 447.744C197.384 447.403 196.904 446.928 196.552 446.32C196.211 445.701 196.04 444.987 196.04 444.176C196.04 443.376 196.211 442.667 196.552 442.048C196.904 441.429 197.384 440.949 197.992 440.608C198.611 440.256 199.304 440.08 200.072 440.08C201.459 440.08 202.51 440.501 203.224 441.344V436.176H204.84V448H203.272V446.88C202.846 447.349 202.376 447.696 201.864 447.92C201.363 448.133 200.766 448.24 200.072 448.24ZM200.44 446.96C201.102 446.96 201.678 446.789 202.168 446.448C202.67 446.096 203.022 445.627 203.224 445.04V443.312C203.043 442.725 202.696 442.256 202.184 441.904C201.683 441.552 201.102 441.376 200.44 441.376C199.918 441.376 199.443 441.493 199.016 441.728C198.6 441.963 198.27 442.293 198.024 442.72C197.79 443.147 197.672 443.632 197.672 444.176C197.672 444.72 197.79 445.205 198.024 445.632C198.27 446.059 198.6 446.389 199.016 446.624C199.443 446.848 199.918 446.96 200.44 446.96ZM215.597 448.24C214.669 448.24 213.922 448.005 213.357 447.536C212.802 447.056 212.525 446.411 212.525 445.6C212.525 444.747 212.791 444.091 213.325 443.632C213.869 443.163 214.637 442.928 215.629 442.928C216.685 442.928 217.581 443.141 218.317 443.568V443.168C218.317 442.56 218.13 442.112 217.757 441.824C217.394 441.525 216.818 441.376 216.029 441.376C215.559 441.376 215.101 441.424 214.653 441.52C214.215 441.605 213.821 441.728 213.469 441.888V440.576C213.789 440.427 214.205 440.309 214.717 440.224C215.229 440.128 215.725 440.08 216.205 440.08C217.474 440.08 218.413 440.363 219.021 440.928C219.639 441.483 219.949 442.256 219.949 443.248V448H218.429V447.136C218.098 447.499 217.703 447.776 217.245 447.968C216.797 448.149 216.247 448.24 215.597 448.24ZM215.997 447.008C216.509 447.008 216.973 446.907 217.389 446.704C217.805 446.501 218.114 446.219 218.317 445.856V444.816C217.623 444.368 216.85 444.144 215.997 444.144C215.378 444.144 214.914 444.267 214.605 444.512C214.306 444.747 214.157 445.109 214.157 445.6C214.157 446.539 214.77 447.008 215.997 447.008ZM221.954 440.32H223.522V441.424C223.885 440.965 224.327 440.629 224.85 440.416C225.383 440.192 225.938 440.08 226.514 440.08C227.538 440.08 228.301 440.352 228.802 440.896C229.303 441.44 229.554 442.171 229.554 443.088V448H227.938V443.248C227.938 442 227.341 441.376 226.146 441.376C225.634 441.376 225.154 441.499 224.706 441.744C224.269 441.979 223.89 442.341 223.57 442.832V448H221.954V440.32ZM232.461 451.168C231.885 451.168 231.405 451.109 231.021 450.992V449.728C231.298 449.835 231.64 449.888 232.045 449.888C232.418 449.888 232.712 449.792 232.925 449.6C233.138 449.419 233.33 449.12 233.501 448.704L233.869 447.808L230.509 440.32H232.173L234.733 446.224L237.117 440.32H238.781L235.325 448.864C235.005 449.664 234.621 450.245 234.173 450.608C233.736 450.981 233.165 451.168 232.461 451.168ZM250.91 448.24C250.216 448.24 249.614 448.133 249.102 447.92C248.6 447.696 248.136 447.349 247.71 446.88V448H246.142V436.176H247.758V441.344C248.11 440.928 248.563 440.613 249.118 440.4C249.672 440.187 250.27 440.08 250.91 440.08C251.678 440.08 252.366 440.256 252.974 440.608C253.592 440.949 254.072 441.429 254.414 442.048C254.766 442.667 254.942 443.376 254.942 444.176C254.942 444.987 254.766 445.701 254.414 446.32C254.072 446.928 253.592 447.403 252.974 447.744C252.366 448.075 251.678 448.24 250.91 448.24ZM250.542 446.96C251.064 446.96 251.534 446.848 251.95 446.624C252.376 446.389 252.707 446.059 252.942 445.632C253.187 445.205 253.31 444.72 253.31 444.176C253.31 443.632 253.187 443.147 252.942 442.72C252.707 442.293 252.376 441.963 251.95 441.728C251.534 441.493 251.064 441.376 250.542 441.376C249.891 441.376 249.31 441.552 248.798 441.904C248.286 442.256 247.939 442.725 247.758 443.312V445.04C247.96 445.627 248.307 446.096 248.798 446.448C249.299 446.789 249.88 446.96 250.542 446.96ZM256.704 440.32H258.272V441.696C258.592 441.227 259.04 440.88 259.616 440.656C260.203 440.432 260.88 440.32 261.648 440.32V441.584C260.827 441.584 260.123 441.717 259.536 441.984C258.949 442.251 258.544 442.672 258.32 443.248V448H256.704V440.32ZM266.834 448.24C265.416 448.24 264.301 447.888 263.49 447.184C262.69 446.469 262.29 445.467 262.29 444.176C262.29 442.917 262.648 441.92 263.362 441.184C264.088 440.448 265.117 440.08 266.45 440.08C267.336 440.08 268.088 440.251 268.706 440.592C269.325 440.923 269.789 441.387 270.098 441.984C270.418 442.571 270.578 443.243 270.578 444V444.8H263.826C263.88 445.525 264.184 446.069 264.738 446.432C265.304 446.784 266.066 446.96 267.026 446.96C267.517 446.96 268.013 446.917 268.514 446.832C269.016 446.736 269.458 446.613 269.842 446.464V447.76C269.501 447.899 269.048 448.011 268.482 448.096C267.928 448.192 267.378 448.24 266.834 448.24ZM269.058 443.664C269.037 442.939 268.797 442.379 268.338 441.984C267.89 441.579 267.25 441.376 266.418 441.376C265.608 441.376 264.978 441.584 264.53 442C264.082 442.416 263.848 442.971 263.826 443.664H269.058ZM275.097 448.24C274.169 448.24 273.422 448.005 272.857 447.536C272.302 447.056 272.025 446.411 272.025 445.6C272.025 444.747 272.291 444.091 272.825 443.632C273.369 443.163 274.137 442.928 275.129 442.928C276.185 442.928 277.081 443.141 277.817 443.568V443.168C277.817 442.56 277.63 442.112 277.257 441.824C276.894 441.525 276.318 441.376 275.529 441.376C275.059 441.376 274.601 441.424 274.153 441.52C273.715 441.605 273.321 441.728 272.969 441.888V440.576C273.289 440.427 273.705 440.309 274.217 440.224C274.729 440.128 275.225 440.08 275.705 440.08C276.974 440.08 277.913 440.363 278.521 440.928C279.139 441.483 279.449 442.256 279.449 443.248V448H277.929V447.136C277.598 447.499 277.203 447.776 276.745 447.968C276.297 448.149 275.747 448.24 275.097 448.24ZM275.497 447.008C276.009 447.008 276.473 446.907 276.889 446.704C277.305 446.501 277.614 446.219 277.817 445.856V444.816C277.123 444.368 276.35 444.144 275.497 444.144C274.878 444.144 274.414 444.267 274.105 444.512C273.806 444.747 273.657 445.109 273.657 445.6C273.657 446.539 274.27 447.008 275.497 447.008ZM285.19 448.24C284.336 448.24 283.579 448.08 282.918 447.76C282.256 447.44 281.739 446.976 281.366 446.368C281.003 445.749 280.822 445.019 280.822 444.176C280.822 443.333 281.003 442.608 281.366 442C281.739 441.381 282.256 440.907 282.918 440.576C283.59 440.245 284.358 440.08 285.222 440.08C286.395 440.08 287.334 440.309 288.038 440.768V442.096C287.344 441.616 286.459 441.376 285.382 441.376C284.507 441.376 283.798 441.616 283.254 442.096C282.72 442.565 282.454 443.259 282.454 444.176C282.454 445.093 282.72 445.787 283.254 446.256C283.787 446.725 284.486 446.96 285.35 446.96C286.427 446.96 287.355 446.704 288.134 446.192V447.504C287.76 447.76 287.334 447.947 286.854 448.064C286.384 448.181 285.83 448.24 285.19 448.24ZM289.892 436.176H291.508V441.376C292.244 440.512 293.225 440.08 294.452 440.08C295.476 440.08 296.238 440.352 296.74 440.896C297.241 441.44 297.492 442.171 297.492 443.088V448H295.876V443.248C295.876 442 295.278 441.376 294.084 441.376C293.572 441.376 293.092 441.499 292.644 441.744C292.206 441.979 291.828 442.341 291.508 442.832V448H289.892V436.176ZM309.455 448.24C308.591 448.24 307.829 448.08 307.167 447.76C306.517 447.429 306.005 446.96 305.631 446.352C305.269 445.733 305.087 445.008 305.087 444.176C305.087 443.355 305.269 442.635 305.631 442.016C305.994 441.397 306.506 440.923 307.167 440.592C307.829 440.251 308.591 440.08 309.455 440.08C310.319 440.08 311.082 440.251 311.743 440.592C312.405 440.923 312.917 441.397 313.279 442.016C313.653 442.635 313.839 443.355 313.839 444.176C313.839 445.008 313.653 445.733 313.279 446.352C312.917 446.96 312.405 447.429 311.743 447.76C311.082 448.08 310.319 448.24 309.455 448.24ZM309.455 446.96C310.287 446.96 310.949 446.704 311.439 446.192C311.93 445.68 312.175 445.008 312.175 444.176C312.175 443.312 311.93 442.629 311.439 442.128C310.949 441.627 310.287 441.376 309.455 441.376C308.623 441.376 307.962 441.627 307.471 442.128C306.981 442.629 306.735 443.312 306.735 444.176C306.735 445.008 306.981 445.68 307.471 446.192C307.962 446.704 308.623 446.96 309.455 446.96ZM315.56 441.568H314.392V440.32H315.56V438.816C315.56 437.931 315.811 437.259 316.312 436.8C316.814 436.331 317.486 436.096 318.328 436.096C318.766 436.096 319.176 436.16 319.56 436.288V437.632C319.262 437.493 318.952 437.424 318.632 437.424C318.131 437.424 317.763 437.547 317.528 437.792C317.294 438.027 317.176 438.4 317.176 438.912V440.32H319.096V441.568H317.176V448H315.56V441.568ZM329.555 448.24C328.776 448.24 328.173 448.016 327.747 447.568C327.331 447.12 327.123 446.485 327.123 445.664V441.568H325.955V440.32H327.123V438.016H328.755V440.32H330.643V441.568H328.755V445.552C328.755 446.064 328.851 446.427 329.043 446.64C329.245 446.853 329.608 446.96 330.131 446.96C330.44 446.96 330.749 446.891 331.059 446.752V448.032C330.653 448.171 330.152 448.24 329.555 448.24ZM332.579 436.176H334.195V441.376C334.931 440.512 335.912 440.08 337.139 440.08C338.163 440.08 338.926 440.352 339.427 440.896C339.928 441.44 340.179 442.171 340.179 443.088V448H338.563V443.248C338.563 442 337.966 441.376 336.771 441.376C336.259 441.376 335.779 441.499 335.331 441.744C334.894 441.979 334.515 442.341 334.195 442.832V448H332.579V436.176ZM343.117 438.816C342.85 438.816 342.626 438.725 342.445 438.544C342.263 438.363 342.173 438.139 342.173 437.872C342.173 437.605 342.263 437.381 342.445 437.2C342.626 437.019 342.85 436.928 343.117 436.928C343.394 436.928 343.623 437.019 343.805 437.2C343.997 437.381 344.093 437.605 344.093 437.872C344.093 438.139 343.997 438.363 343.805 438.544C343.623 438.725 343.394 438.816 343.117 438.816ZM342.301 440.32H343.949V448H342.301V440.32ZM349.005 448.24C348.471 448.24 347.906 448.171 347.309 448.032C346.711 447.904 346.242 447.728 345.901 447.504V446.128C346.317 446.373 346.797 446.576 347.341 446.736C347.885 446.885 348.413 446.96 348.925 446.96C349.501 446.96 349.922 446.891 350.189 446.752C350.455 446.613 350.589 446.389 350.589 446.08C350.589 445.845 350.525 445.659 350.397 445.52C350.279 445.371 350.071 445.237 349.773 445.12C349.485 445.003 349.047 444.864 348.461 444.704C347.831 444.523 347.33 444.341 346.957 444.16C346.594 443.968 346.317 443.728 346.125 443.44C345.943 443.152 345.853 442.779 345.853 442.32C345.853 441.584 346.141 441.029 346.717 440.656C347.303 440.272 348.087 440.08 349.069 440.08C349.581 440.08 350.082 440.128 350.573 440.224C351.063 440.32 351.458 440.453 351.757 440.624V441.968C351.447 441.787 351.063 441.643 350.605 441.536C350.157 441.429 349.698 441.376 349.229 441.376C348.663 441.376 348.231 441.445 347.933 441.584C347.634 441.723 347.485 441.968 347.485 442.32C347.485 442.544 347.549 442.725 347.677 442.864C347.805 443.003 348.007 443.125 348.285 443.232C348.573 443.328 349.026 443.456 349.645 443.616C350.615 443.883 351.287 444.197 351.661 444.56C352.045 444.923 352.237 445.424 352.237 446.064C352.237 446.725 351.965 447.253 351.421 447.648C350.877 448.043 350.071 448.24 349.005 448.24ZM359.923 440.32H361.491V441.696C361.811 441.227 362.259 440.88 362.835 440.656C363.421 440.432 364.099 440.32 364.867 440.32V441.584C364.045 441.584 363.341 441.717 362.755 441.984C362.168 442.251 361.763 442.672 361.539 443.248V448H359.923V440.32ZM369.291 448.24C368.257 448.24 367.473 447.963 366.939 447.408C366.417 446.853 366.155 446.112 366.155 445.184V440.32H367.771V445.12C367.771 446.347 368.385 446.96 369.611 446.96C370.689 446.96 371.531 446.475 372.139 445.504V440.32H373.755V448H372.187V446.912C371.825 447.371 371.393 447.707 370.891 447.92C370.401 448.133 369.867 448.24 369.291 448.24ZM375.829 436.176H377.445V448H375.829V436.176ZM383.756 448.24C382.338 448.24 381.223 447.888 380.412 447.184C379.612 446.469 379.212 445.467 379.212 444.176C379.212 442.917 379.57 441.92 380.284 441.184C381.01 440.448 382.039 440.08 383.372 440.08C384.258 440.08 385.01 440.251 385.628 440.592C386.247 440.923 386.711 441.387 387.02 441.984C387.34 442.571 387.5 443.243 387.5 444V444.8H380.748C380.802 445.525 381.106 446.069 381.66 446.432C382.226 446.784 382.988 446.96 383.948 446.96C384.439 446.96 384.935 446.917 385.436 446.832C385.938 446.736 386.38 446.613 386.764 446.464V447.76C386.423 447.899 385.97 448.011 385.404 448.096C384.85 448.192 384.3 448.24 383.756 448.24ZM385.98 443.664C385.959 442.939 385.719 442.379 385.26 441.984C384.812 441.579 384.172 441.376 383.34 441.376C382.53 441.376 381.9 441.584 381.452 442C381.004 442.416 380.77 442.971 380.748 443.664H385.98ZM394.868 440.32H396.516L398.244 446.016L399.956 440.32H401.412L403.124 446.016L404.852 440.32H406.516L404.02 448H402.468L400.692 442.272L398.916 448H397.348L394.868 440.32ZM409.226 438.816C408.96 438.816 408.736 438.725 408.554 438.544C408.373 438.363 408.282 438.139 408.282 437.872C408.282 437.605 408.373 437.381 408.554 437.2C408.736 437.019 408.96 436.928 409.226 436.928C409.504 436.928 409.733 437.019 409.914 437.2C410.106 437.381 410.202 437.605 410.202 437.872C410.202 438.139 410.106 438.363 409.914 438.544C409.733 438.725 409.504 438.816 409.226 438.816ZM408.41 440.32H410.058V448H408.41V440.32ZM412.282 436.176H413.898V448H412.282V436.176ZM415.985 436.176H417.601V448H415.985V436.176ZM87.7377 470.24C87.0444 470.24 86.4417 470.133 85.9297 469.92C85.4284 469.696 84.9644 469.349 84.5377 468.88V470H82.9697V458.176H84.5857V463.344C84.9377 462.928 85.391 462.613 85.9457 462.4C86.5004 462.187 87.0977 462.08 87.7377 462.08C88.5057 462.08 89.1937 462.256 89.8017 462.608C90.4204 462.949 90.9004 463.429 91.2417 464.048C91.5937 464.667 91.7697 465.376 91.7697 466.176C91.7697 466.987 91.5937 467.701 91.2417 468.32C90.9004 468.928 90.4204 469.403 89.8017 469.744C89.1937 470.075 88.5057 470.24 87.7377 470.24ZM87.3697 468.96C87.8924 468.96 88.3617 468.848 88.7777 468.624C89.2044 468.389 89.535 468.059 89.7697 467.632C90.015 467.205 90.1377 466.72 90.1377 466.176C90.1377 465.632 90.015 465.147 89.7697 464.72C89.535 464.293 89.2044 463.963 88.7777 463.728C88.3617 463.493 87.8924 463.376 87.3697 463.376C86.719 463.376 86.1377 463.552 85.6257 463.904C85.1137 464.256 84.767 464.725 84.5857 465.312V467.04C84.7884 467.627 85.135 468.096 85.6257 468.448C86.127 468.789 86.7084 468.96 87.3697 468.96ZM97.7562 470.24C96.3375 470.24 95.2229 469.888 94.4122 469.184C93.6122 468.469 93.2122 467.467 93.2122 466.176C93.2122 464.917 93.5695 463.92 94.2842 463.184C95.0095 462.448 96.0389 462.08 97.3722 462.08C98.2575 462.08 99.0095 462.251 99.6282 462.592C100.247 462.923 100.711 463.387 101.02 463.984C101.34 464.571 101.5 465.243 101.5 466V466.8H94.7482C94.8015 467.525 95.1055 468.069 95.6602 468.432C96.2255 468.784 96.9882 468.96 97.9482 468.96C98.4389 468.96 98.9349 468.917 99.4362 468.832C99.9375 468.736 100.38 468.613 100.764 468.464V469.76C100.423 469.899 99.9695 470.011 99.4042 470.096C98.8495 470.192 98.3002 470.24 97.7562 470.24ZM99.9802 465.664C99.9589 464.939 99.7189 464.379 99.2602 463.984C98.8122 463.579 98.1722 463.376 97.3402 463.376C96.5295 463.376 95.9002 463.584 95.4522 464C95.0042 464.416 94.7695 464.971 94.7482 465.664H99.9802ZM109.188 462.32H110.724V463.424C111.087 462.976 111.498 462.64 111.956 462.416C112.415 462.192 112.89 462.08 113.38 462.08C113.999 462.08 114.49 462.187 114.852 462.4C115.215 462.603 115.482 462.917 115.652 463.344C115.994 462.928 116.41 462.613 116.9 462.4C117.402 462.187 117.903 462.08 118.404 462.08C119.343 462.08 120.02 462.32 120.436 462.8C120.852 463.269 121.06 463.968 121.06 464.896V470H119.492V465.104C119.492 464.475 119.375 464.032 119.14 463.776C118.906 463.509 118.506 463.376 117.94 463.376C117.13 463.376 116.468 463.728 115.956 464.432C115.978 464.592 115.988 464.853 115.988 465.216V470H114.42V465.104C114.42 464.475 114.314 464.032 114.1 463.776C113.887 463.509 113.503 463.376 112.948 463.376C112.138 463.376 111.412 463.835 110.772 464.752V470H109.188V462.32ZM127.287 470.24C125.869 470.24 124.754 469.888 123.943 469.184C123.143 468.469 122.743 467.467 122.743 466.176C122.743 464.917 123.101 463.92 123.815 463.184C124.541 462.448 125.57 462.08 126.903 462.08C127.789 462.08 128.541 462.251 129.159 462.592C129.778 462.923 130.242 463.387 130.551 463.984C130.871 464.571 131.031 465.243 131.031 466V466.8H124.279C124.333 467.525 124.637 468.069 125.191 468.432C125.757 468.784 126.519 468.96 127.479 468.96C127.97 468.96 128.466 468.917 128.967 468.832C129.469 468.736 129.911 468.613 130.295 468.464V469.76C129.954 469.899 129.501 470.011 128.935 470.096C128.381 470.192 127.831 470.24 127.287 470.24ZM129.511 465.664C129.49 464.939 129.25 464.379 128.791 463.984C128.343 463.579 127.703 463.376 126.871 463.376C126.061 463.376 125.431 463.584 124.983 464C124.535 464.416 124.301 464.971 124.279 465.664H129.511ZM135.758 470.24C134.979 470.24 134.376 470.016 133.95 469.568C133.534 469.12 133.326 468.485 133.326 467.664V463.568H132.158V462.32H133.326V460.016H134.958V462.32H136.846V463.568H134.958V467.552C134.958 468.064 135.054 468.427 135.246 468.64C135.448 468.853 135.811 468.96 136.334 468.96C136.643 468.96 136.952 468.891 137.262 468.752V470.032C136.856 470.171 136.355 470.24 135.758 470.24ZM144.384 462.32H146.032L147.76 468.016L149.472 462.32H150.928L152.64 468.016L154.368 462.32H156.032L153.536 470H151.984L150.208 464.272L148.432 470H146.864L144.384 462.32ZM158.742 460.816C158.475 460.816 158.251 460.725 158.07 460.544C157.888 460.363 157.798 460.139 157.798 459.872C157.798 459.605 157.888 459.381 158.07 459.2C158.251 459.019 158.475 458.928 158.742 458.928C159.019 458.928 159.248 459.019 159.43 459.2C159.622 459.381 159.718 459.605 159.718 459.872C159.718 460.139 159.622 460.363 159.43 460.544C159.248 460.725 159.019 460.816 158.742 460.816ZM157.926 462.32H159.574V470H157.926V462.32ZM164.758 470.24C163.979 470.24 163.376 470.016 162.95 469.568C162.534 469.12 162.326 468.485 162.326 467.664V463.568H161.158V462.32H162.326V460.016H163.958V462.32H165.846V463.568H163.958V467.552C163.958 468.064 164.054 468.427 164.246 468.64C164.448 468.853 164.811 468.96 165.334 468.96C165.643 468.96 165.952 468.891 166.262 468.752V470.032C165.856 470.171 165.355 470.24 164.758 470.24ZM167.782 458.176H169.398V463.376C170.134 462.512 171.116 462.08 172.342 462.08C173.366 462.08 174.129 462.352 174.63 462.896C175.132 463.44 175.382 464.171 175.382 465.088V470H173.766V465.248C173.766 464 173.169 463.376 171.974 463.376C171.462 463.376 170.982 463.499 170.534 463.744C170.097 463.979 169.718 464.341 169.398 464.832V470H167.782V458.176ZM186.05 470.24C185.122 470.24 184.375 470.005 183.81 469.536C183.255 469.056 182.978 468.411 182.978 467.6C182.978 466.747 183.244 466.091 183.778 465.632C184.322 465.163 185.09 464.928 186.082 464.928C187.138 464.928 188.034 465.141 188.77 465.568V465.168C188.77 464.56 188.583 464.112 188.21 463.824C187.847 463.525 187.271 463.376 186.482 463.376C186.012 463.376 185.554 463.424 185.106 463.52C184.668 463.605 184.274 463.728 183.922 463.888V462.576C184.242 462.427 184.658 462.309 185.17 462.224C185.682 462.128 186.178 462.08 186.658 462.08C187.927 462.08 188.866 462.363 189.474 462.928C190.092 463.483 190.402 464.256 190.402 465.248V470H188.882V469.136C188.551 469.499 188.156 469.776 187.698 469.968C187.25 470.149 186.7 470.24 186.05 470.24ZM186.45 469.008C186.962 469.008 187.426 468.907 187.842 468.704C188.258 468.501 188.567 468.219 188.77 467.856V466.816C188.076 466.368 187.303 466.144 186.45 466.144C185.831 466.144 185.367 466.267 185.058 466.512C184.759 466.747 184.61 467.109 184.61 467.6C184.61 468.539 185.223 469.008 186.45 469.008ZM296.232 463.568H295.064V462.32H296.232V460.816C296.232 459.931 296.483 459.259 296.984 458.8C297.485 458.331 298.157 458.096 299 458.096C299.437 458.096 299.848 458.16 300.232 458.288V459.632C299.933 459.493 299.624 459.424 299.304 459.424C298.803 459.424 298.435 459.547 298.2 459.792C297.965 460.027 297.848 460.4 297.848 460.912V462.32H299.768V463.568H297.848V470H296.232V463.568ZM301.267 462.32H302.835V463.696C303.155 463.227 303.603 462.88 304.179 462.656C304.765 462.432 305.443 462.32 306.211 462.32V463.584C305.389 463.584 304.685 463.717 304.099 463.984C303.512 464.251 303.107 464.672 302.883 465.248V470H301.267V462.32ZM311.471 470.24C310.607 470.24 309.844 470.08 309.183 469.76C308.532 469.429 308.02 468.96 307.647 468.352C307.284 467.733 307.103 467.008 307.103 466.176C307.103 465.355 307.284 464.635 307.647 464.016C308.009 463.397 308.521 462.923 309.183 462.592C309.844 462.251 310.607 462.08 311.471 462.08C312.335 462.08 313.097 462.251 313.759 462.592C314.42 462.923 314.932 463.397 315.295 464.016C315.668 464.635 315.855 465.355 315.855 466.176C315.855 467.008 315.668 467.733 315.295 468.352C314.932 468.96 314.42 469.429 313.759 469.76C313.097 470.08 312.335 470.24 311.471 470.24ZM311.471 468.96C312.303 468.96 312.964 468.704 313.455 468.192C313.945 467.68 314.191 467.008 314.191 466.176C314.191 465.312 313.945 464.629 313.455 464.128C312.964 463.627 312.303 463.376 311.471 463.376C310.639 463.376 309.977 463.627 309.487 464.128C308.996 464.629 308.751 465.312 308.751 466.176C308.751 467.008 308.996 467.68 309.487 468.192C309.977 468.704 310.639 468.96 311.471 468.96ZM317.61 462.32H319.146V463.424C319.509 462.976 319.92 462.64 320.378 462.416C320.837 462.192 321.312 462.08 321.802 462.08C322.421 462.08 322.912 462.187 323.274 462.4C323.637 462.603 323.904 462.917 324.074 463.344C324.416 462.928 324.832 462.613 325.322 462.4C325.824 462.187 326.325 462.08 326.826 462.08C327.765 462.08 328.442 462.32 328.858 462.8C329.274 463.269 329.482 463.968 329.482 464.896V470H327.914V465.104C327.914 464.475 327.797 464.032 327.562 463.776C327.328 463.509 326.928 463.376 326.362 463.376C325.552 463.376 324.89 463.728 324.378 464.432C324.4 464.592 324.41 464.853 324.41 465.216V470H322.842V465.104C322.842 464.475 322.736 464.032 322.522 463.776C322.309 463.509 321.925 463.376 321.37 463.376C320.56 463.376 319.834 463.835 319.194 464.752V470H317.61V462.32ZM341.455 470.24C340.591 470.24 339.829 470.08 339.167 469.76C338.517 469.429 338.005 468.96 337.631 468.352C337.269 467.733 337.087 467.008 337.087 466.176C337.087 465.355 337.269 464.635 337.631 464.016C337.994 463.397 338.506 462.923 339.167 462.592C339.829 462.251 340.591 462.08 341.455 462.08C342.319 462.08 343.082 462.251 343.743 462.592C344.405 462.923 344.917 463.397 345.279 464.016C345.653 464.635 345.839 465.355 345.839 466.176C345.839 467.008 345.653 467.733 345.279 468.352C344.917 468.96 344.405 469.429 343.743 469.76C343.082 470.08 342.319 470.24 341.455 470.24ZM341.455 468.96C342.287 468.96 342.949 468.704 343.439 468.192C343.93 467.68 344.175 467.008 344.175 466.176C344.175 465.312 343.93 464.629 343.439 464.128C342.949 463.627 342.287 463.376 341.455 463.376C340.623 463.376 339.962 463.627 339.471 464.128C338.981 464.629 338.735 465.312 338.735 466.176C338.735 467.008 338.981 467.68 339.471 468.192C339.962 468.704 340.623 468.96 341.455 468.96ZM350.651 470.24C349.616 470.24 348.832 469.963 348.299 469.408C347.776 468.853 347.515 468.112 347.515 467.184V462.32H349.131V467.12C349.131 468.347 349.744 468.96 350.971 468.96C352.048 468.96 352.891 468.475 353.499 467.504V462.32H355.115V470H353.547V468.912C353.184 469.371 352.752 469.707 352.251 469.92C351.76 470.133 351.227 470.24 350.651 470.24ZM357.188 462.32H358.756V463.696C359.076 463.227 359.524 462.88 360.1 462.656C360.687 462.432 361.364 462.32 362.132 462.32V463.584C361.311 463.584 360.607 463.717 360.02 463.984C359.434 464.251 359.028 464.672 358.804 465.248V470H357.188V462.32ZM373.517 473.68C372.994 473.68 372.482 473.637 371.981 473.552C371.49 473.467 371.074 473.344 370.733 473.184V471.856C371.533 472.219 372.461 472.4 373.517 472.4C374.509 472.4 375.229 472.181 375.677 471.744C376.136 471.317 376.365 470.667 376.365 469.792V468.976C375.661 469.819 374.626 470.24 373.261 470.24C372.482 470.24 371.784 470.069 371.165 469.728C370.546 469.387 370.061 468.907 369.709 468.288C369.357 467.669 369.181 466.96 369.181 466.16C369.181 465.349 369.352 464.64 369.693 464.032C370.045 463.413 370.525 462.933 371.133 462.592C371.752 462.251 372.445 462.08 373.213 462.08C373.928 462.08 374.53 462.187 375.021 462.4C375.522 462.603 375.986 462.944 376.413 463.424V462.32H377.981V469.616C377.981 470.928 377.613 471.931 376.877 472.624C376.152 473.328 375.032 473.68 373.517 473.68ZM373.581 468.96C374.242 468.96 374.824 468.784 375.325 468.432C375.837 468.08 376.184 467.611 376.365 467.024V465.296C376.162 464.699 375.81 464.229 375.309 463.888C374.818 463.547 374.242 463.376 373.581 463.376C373.058 463.376 372.584 463.493 372.157 463.728C371.741 463.952 371.41 464.277 371.165 464.704C370.93 465.131 370.813 465.616 370.813 466.16C370.813 466.715 370.93 467.205 371.165 467.632C371.41 468.048 371.741 468.373 372.157 468.608C372.584 468.843 373.058 468.96 373.581 468.96ZM380.063 462.32H381.631V463.696C381.951 463.227 382.399 462.88 382.975 462.656C383.562 462.432 384.239 462.32 385.007 462.32V463.584C384.186 463.584 383.482 463.717 382.895 463.984C382.309 464.251 381.903 464.672 381.679 465.248V470H380.063V462.32ZM390.268 470.24C389.404 470.24 388.641 470.08 387.98 469.76C387.329 469.429 386.817 468.96 386.444 468.352C386.081 467.733 385.9 467.008 385.9 466.176C385.9 465.355 386.081 464.635 386.444 464.016C386.806 463.397 387.318 462.923 387.98 462.592C388.641 462.251 389.404 462.08 390.268 462.08C391.132 462.08 391.894 462.251 392.556 462.592C393.217 462.923 393.729 463.397 394.092 464.016C394.465 464.635 394.652 465.355 394.652 466.176C394.652 467.008 394.465 467.733 394.092 468.352C393.729 468.96 393.217 469.429 392.556 469.76C391.894 470.08 391.132 470.24 390.268 470.24ZM390.268 468.96C391.1 468.96 391.761 468.704 392.252 468.192C392.742 467.68 392.988 467.008 392.988 466.176C392.988 465.312 392.742 464.629 392.252 464.128C391.761 463.627 391.1 463.376 390.268 463.376C389.436 463.376 388.774 463.627 388.284 464.128C387.793 464.629 387.548 465.312 387.548 466.176C387.548 467.008 387.793 467.68 388.284 468.192C388.774 468.704 389.436 468.96 390.268 468.96ZM399.463 470.24C398.429 470.24 397.645 469.963 397.111 469.408C396.589 468.853 396.327 468.112 396.327 467.184V462.32H397.943V467.12C397.943 468.347 398.557 468.96 399.783 468.96C400.861 468.96 401.703 468.475 402.311 467.504V462.32H403.927V470H402.359V468.912C401.997 469.371 401.565 469.707 401.063 469.92C400.573 470.133 400.039 470.24 399.463 470.24ZM406.001 462.32H407.569V463.456C408.358 462.539 409.425 462.08 410.769 462.08C411.537 462.08 412.225 462.251 412.833 462.592C413.452 462.933 413.932 463.413 414.273 464.032C414.625 464.64 414.801 465.349 414.801 466.16C414.801 466.96 414.625 467.669 414.273 468.288C413.932 468.907 413.457 469.387 412.849 469.728C412.241 470.069 411.548 470.24 410.769 470.24C410.129 470.24 409.532 470.133 408.977 469.92C408.422 469.707 407.969 469.392 407.617 468.976V473.504H406.001V462.32ZM410.401 468.96C410.924 468.96 411.393 468.848 411.809 468.624C412.236 468.389 412.566 468.059 412.801 467.632C413.046 467.205 413.169 466.715 413.169 466.16C413.169 465.605 413.046 465.12 412.801 464.704C412.566 464.277 412.236 463.952 411.809 463.728C411.393 463.493 410.924 463.376 410.401 463.376C409.75 463.376 409.174 463.547 408.673 463.888C408.182 464.229 407.83 464.699 407.617 465.296V467.024C407.798 467.611 408.145 468.08 408.657 468.432C409.169 468.784 409.75 468.96 410.401 468.96ZM419.161 470.24C418.628 470.24 418.062 470.171 417.465 470.032C416.868 469.904 416.398 469.728 416.057 469.504V468.128C416.473 468.373 416.953 468.576 417.497 468.736C418.041 468.885 418.569 468.96 419.081 468.96C419.657 468.96 420.078 468.891 420.345 468.752C420.612 468.613 420.745 468.389 420.745 468.08C420.745 467.845 420.681 467.659 420.553 467.52C420.436 467.371 420.228 467.237 419.929 467.12C419.641 467.003 419.204 466.864 418.617 466.704C417.988 466.523 417.486 466.341 417.113 466.16C416.75 465.968 416.473 465.728 416.281 465.44C416.1 465.152 416.009 464.779 416.009 464.32C416.009 463.584 416.297 463.029 416.873 462.656C417.46 462.272 418.244 462.08 419.225 462.08C419.737 462.08 420.238 462.128 420.729 462.224C421.22 462.32 421.614 462.453 421.913 462.624V463.968C421.604 463.787 421.22 463.643 420.761 463.536C420.313 463.429 419.854 463.376 419.385 463.376C418.82 463.376 418.388 463.445 418.089 463.584C417.79 463.723 417.641 463.968 417.641 464.32C417.641 464.544 417.705 464.725 417.833 464.864C417.961 465.003 418.164 465.125 418.441 465.232C418.729 465.328 419.182 465.456 419.801 465.616C420.772 465.883 421.444 466.197 421.817 466.56C422.201 466.923 422.393 467.424 422.393 468.064C422.393 468.725 422.121 469.253 421.577 469.648C421.033 470.043 420.228 470.24 419.161 470.24ZM424.589 470C424.376 470 424.195 469.931 424.045 469.792C423.907 469.643 423.837 469.461 423.837 469.248C423.837 469.035 423.907 468.853 424.045 468.704C424.195 468.555 424.376 468.48 424.589 468.48C424.803 468.48 424.984 468.555 425.133 468.704C425.283 468.853 425.357 469.035 425.357 469.248C425.357 469.461 425.283 469.643 425.133 469.792C424.984 469.931 424.803 470 424.589 470Z" fill="white"/>
<path d="M198.329 458.176H199.945V470H198.329V458.176ZM202.976 460.816C202.71 460.816 202.486 460.725 202.304 460.544C202.123 460.363 202.032 460.139 202.032 459.872C202.032 459.605 202.123 459.381 202.304 459.2C202.486 459.019 202.71 458.928 202.976 458.928C203.254 458.928 203.483 459.019 203.664 459.2C203.856 459.381 203.952 459.605 203.952 459.872C203.952 460.139 203.856 460.363 203.664 460.544C203.483 460.725 203.254 460.816 202.976 460.816ZM202.16 462.32H203.808V470H202.16V462.32ZM206.56 463.568H205.392V462.32H206.56V460.816C206.56 459.931 206.811 459.259 207.312 458.8C207.814 458.331 208.486 458.096 209.328 458.096C209.766 458.096 210.176 458.16 210.56 458.288V459.632C210.262 459.493 209.952 459.424 209.632 459.424C209.131 459.424 208.763 459.547 208.528 459.792C208.294 460.027 208.176 460.4 208.176 460.912V462.32H210.096V463.568H208.176V470H206.56V463.568ZM215.897 470.24C214.478 470.24 213.363 469.888 212.553 469.184C211.753 468.469 211.353 467.467 211.353 466.176C211.353 464.917 211.71 463.92 212.425 463.184C213.15 462.448 214.179 462.08 215.513 462.08C216.398 462.08 217.15 462.251 217.769 462.592C218.387 462.923 218.851 463.387 219.161 463.984C219.481 464.571 219.641 465.243 219.641 466V466.8H212.889C212.942 467.525 213.246 468.069 213.801 468.432C214.366 468.784 215.129 468.96 216.089 468.96C216.579 468.96 217.075 468.917 217.577 468.832C218.078 468.736 218.521 468.613 218.905 468.464V469.76C218.563 469.899 218.11 470.011 217.545 470.096C216.99 470.192 216.441 470.24 215.897 470.24ZM218.121 465.664C218.099 464.939 217.859 464.379 217.401 463.984C216.953 463.579 216.313 463.376 215.481 463.376C214.67 463.376 214.041 463.584 213.593 464C213.145 464.416 212.91 464.971 212.889 465.664H218.121ZM224.367 470.24C223.589 470.24 222.986 470.016 222.559 469.568C222.143 469.12 221.935 468.485 221.935 467.664V463.568H220.767V462.32H221.935V460.016H223.567V462.32H225.455V463.568H223.567V467.552C223.567 468.064 223.663 468.427 223.855 468.64C224.058 468.853 224.421 468.96 224.943 468.96C225.253 468.96 225.562 468.891 225.871 468.752V470.032C225.466 470.171 224.965 470.24 224.367 470.24ZM228.336 460.816C228.069 460.816 227.845 460.725 227.664 460.544C227.482 460.363 227.392 460.139 227.392 459.872C227.392 459.605 227.482 459.381 227.664 459.2C227.845 459.019 228.069 458.928 228.336 458.928C228.613 458.928 228.842 459.019 229.024 459.2C229.216 459.381 229.312 459.605 229.312 459.872C229.312 460.139 229.216 460.363 229.024 460.544C228.842 460.725 228.613 460.816 228.336 460.816ZM227.52 462.32H229.168V470H227.52V462.32ZM231.392 462.32H232.928V463.424C233.29 462.976 233.701 462.64 234.16 462.416C234.618 462.192 235.093 462.08 235.584 462.08C236.202 462.08 236.693 462.187 237.056 462.4C237.418 462.603 237.685 462.917 237.856 463.344C238.197 462.928 238.613 462.613 239.104 462.4C239.605 462.187 240.106 462.08 240.608 462.08C241.546 462.08 242.224 462.32 242.64 462.8C243.056 463.269 243.264 463.968 243.264 464.896V470H241.696V465.104C241.696 464.475 241.578 464.032 241.344 463.776C241.109 463.509 240.709 463.376 240.144 463.376C239.333 463.376 238.672 463.728 238.16 464.432C238.181 464.592 238.192 464.853 238.192 465.216V470H236.624V465.104C236.624 464.475 236.517 464.032 236.304 463.776C236.09 463.509 235.706 463.376 235.152 463.376C234.341 463.376 233.616 463.835 232.976 464.752V470H231.392V462.32ZM249.491 470.24C248.072 470.24 246.957 469.888 246.147 469.184C245.347 468.469 244.947 467.467 244.947 466.176C244.947 464.917 245.304 463.92 246.019 463.184C246.744 462.448 247.773 462.08 249.107 462.08C249.992 462.08 250.744 462.251 251.363 462.592C251.981 462.923 252.445 463.387 252.755 463.984C253.075 464.571 253.235 465.243 253.235 466V466.8H246.483C246.536 467.525 246.84 468.069 247.395 468.432C247.96 468.784 248.723 468.96 249.683 468.96C250.173 468.96 250.669 468.917 251.171 468.832C251.672 468.736 252.115 468.613 252.499 468.464V469.76C252.157 469.899 251.704 470.011 251.139 470.096C250.584 470.192 250.035 470.24 249.491 470.24ZM251.715 465.664C251.693 464.939 251.453 464.379 250.995 463.984C250.547 463.579 249.907 463.376 249.075 463.376C248.264 463.376 247.635 463.584 247.187 464C246.739 464.416 246.504 464.971 246.483 465.664H251.715ZM265.691 470.24C264.997 470.24 264.395 470.133 263.883 469.92C263.381 469.696 262.917 469.349 262.491 468.88V470H260.923V458.176H262.539V463.344C262.891 462.928 263.344 462.613 263.899 462.4C264.453 462.187 265.051 462.08 265.691 462.08C266.459 462.08 267.147 462.256 267.755 462.608C268.373 462.949 268.853 463.429 269.195 464.048C269.547 464.667 269.723 465.376 269.723 466.176C269.723 466.987 269.547 467.701 269.195 468.32C268.853 468.928 268.373 469.403 267.755 469.744C267.147 470.075 266.459 470.24 265.691 470.24ZM265.323 468.96C265.845 468.96 266.315 468.848 266.731 468.624C267.157 468.389 267.488 468.059 267.723 467.632C267.968 467.205 268.091 466.72 268.091 466.176C268.091 465.632 267.968 465.147 267.723 464.72C267.488 464.293 267.157 463.963 266.731 463.728C266.315 463.493 265.845 463.376 265.323 463.376C264.672 463.376 264.091 463.552 263.579 463.904C263.067 464.256 262.72 464.725 262.539 465.312V467.04C262.741 467.627 263.088 468.096 263.579 468.448C264.08 468.789 264.661 468.96 265.323 468.96ZM273.831 470.24C272.903 470.24 272.156 470.005 271.591 469.536C271.036 469.056 270.759 468.411 270.759 467.6C270.759 466.747 271.026 466.091 271.559 465.632C272.103 465.163 272.871 464.928 273.863 464.928C274.919 464.928 275.815 465.141 276.551 465.568V465.168C276.551 464.56 276.364 464.112 275.991 463.824C275.628 463.525 275.052 463.376 274.263 463.376C273.794 463.376 273.335 463.424 272.887 463.52C272.45 463.605 272.055 463.728 271.703 463.888V462.576C272.023 462.427 272.439 462.309 272.951 462.224C273.463 462.128 273.959 462.08 274.439 462.08C275.708 462.08 276.647 462.363 277.255 462.928C277.874 463.483 278.183 464.256 278.183 465.248V470H276.663V469.136C276.332 469.499 275.938 469.776 275.479 469.968C275.031 470.149 274.482 470.24 273.831 470.24ZM274.231 469.008C274.743 469.008 275.207 468.907 275.623 468.704C276.039 468.501 276.348 468.219 276.551 467.856V466.816C275.858 466.368 275.084 466.144 274.231 466.144C273.612 466.144 273.148 466.267 272.839 466.512C272.54 466.747 272.391 467.109 272.391 467.6C272.391 468.539 273.004 469.008 274.231 469.008ZM280.188 462.32H281.756V463.424C282.119 462.965 282.562 462.629 283.084 462.416C283.618 462.192 284.172 462.08 284.748 462.08C285.772 462.08 286.535 462.352 287.036 462.896C287.538 463.44 287.788 464.171 287.788 465.088V470H286.172V465.248C286.172 464 285.575 463.376 284.38 463.376C283.868 463.376 283.388 463.499 282.94 463.744C282.503 463.979 282.124 464.341 281.804 464.832V470H280.188V462.32Z" fill="#FF8A37"/>
<path d="M25.895 341.622H31.241C32.913 341.622 34.3723 341.93 35.619 342.546C36.8656 343.162 37.8263 344.042 38.501 345.186C39.1756 346.33 39.513 347.679 39.513 349.234C39.513 351.786 38.765 353.722 37.269 355.042C35.7876 356.347 33.7196 357 31.065 357H25.895V341.622ZM31.241 354.206C32.8103 354.206 34.013 353.766 34.849 352.886C35.685 352.006 36.103 350.789 36.103 349.234C36.103 348.31 35.9196 347.481 35.553 346.748C35.1863 346.015 34.651 345.443 33.947 345.032C33.243 344.621 32.4143 344.416 31.461 344.416H29.239V354.206H31.241ZM49.1517 357.33C47.6117 357.33 46.2111 356.993 44.9497 356.318C43.7031 355.643 42.7204 354.705 42.0017 353.502C41.2831 352.285 40.9237 350.891 40.9237 349.322C40.9237 347.753 41.2831 346.359 42.0017 345.142C42.7204 343.925 43.7031 342.979 44.9497 342.304C46.2111 341.629 47.6117 341.292 49.1517 341.292C50.6917 341.292 52.0777 341.629 53.3097 342.304C54.5564 342.979 55.5391 343.925 56.2577 345.142C56.9764 346.359 57.3357 347.753 57.3357 349.322C57.3357 350.891 56.9764 352.285 56.2577 353.502C55.5391 354.705 54.5564 355.643 53.3097 356.318C52.0777 356.993 50.6917 357.33 49.1517 357.33ZM49.1517 354.25C50.0317 354.25 50.8311 354.052 51.5497 353.656C52.2831 353.245 52.8624 352.673 53.2877 351.94C53.7131 351.192 53.9257 350.319 53.9257 349.322C53.9257 348.339 53.7131 347.481 53.2877 346.748C52.8771 346 52.3051 345.428 51.5717 345.032C50.8531 344.621 50.0464 344.416 49.1517 344.416C48.2424 344.416 47.4211 344.621 46.6877 345.032C45.9691 345.428 45.3971 346 44.9717 346.748C44.5464 347.481 44.3337 348.339 44.3337 349.322C44.3337 350.319 44.5464 351.192 44.9717 351.94C45.3971 352.673 45.9764 353.245 46.7097 353.656C47.4431 354.052 48.2571 354.25 49.1517 354.25ZM66.8657 341.622H70.1217L76.5457 351.566V341.622H79.8897V357H76.6557L70.2097 347.056V357H66.8657V341.622ZM89.972 357.33C88.432 357.33 87.0314 356.993 85.77 356.318C84.5234 355.643 83.5407 354.705 82.822 353.502C82.1034 352.285 81.744 350.891 81.744 349.322C81.744 347.753 82.1034 346.359 82.822 345.142C83.5407 343.925 84.5234 342.979 85.77 342.304C87.0314 341.629 88.432 341.292 89.972 341.292C91.512 341.292 92.898 341.629 94.13 342.304C95.3767 342.979 96.3594 343.925 97.078 345.142C97.7967 346.359 98.156 347.753 98.156 349.322C98.156 350.891 97.7967 352.285 97.078 353.502C96.3594 354.705 95.3767 355.643 94.13 356.318C92.898 356.993 91.512 357.33 89.972 357.33ZM89.972 354.25C90.852 354.25 91.6514 354.052 92.37 353.656C93.1034 353.245 93.6827 352.673 94.108 351.94C94.5334 351.192 94.746 350.319 94.746 349.322C94.746 348.339 94.5334 347.481 94.108 346.748C93.6974 346 93.1254 345.428 92.392 345.032C91.6734 344.621 90.8667 344.416 89.972 344.416C89.0627 344.416 88.2414 344.621 87.508 345.032C86.7894 345.428 86.2174 346 85.792 346.748C85.3667 347.481 85.154 348.339 85.154 349.322C85.154 350.319 85.3667 351.192 85.792 351.94C86.2174 352.673 86.7967 353.245 87.53 353.656C88.2634 354.052 89.0774 354.25 89.972 354.25ZM102.465 344.416H97.9775V341.622H110.297V344.416H105.809V357H102.465V344.416ZM119.459 341.622H126.125C127.871 341.622 129.227 342.062 130.195 342.942C131.178 343.807 131.669 345.061 131.669 346.704C131.669 347.848 131.405 348.823 130.877 349.63C130.349 350.422 129.601 351.001 128.633 351.368L131.559 357H128.127L125.421 351.786H122.803V357H119.459V341.622ZM125.531 348.992C126.382 348.992 127.049 348.809 127.533 348.442C128.032 348.075 128.281 347.496 128.281 346.704C128.281 345.868 128.039 345.281 127.555 344.944C127.071 344.592 126.397 344.416 125.531 344.416H122.803V348.992H125.531ZM133.532 341.622H144.202V344.416H136.876V347.98H142.266V350.664H136.876V354.206H144.202V357H133.532V341.622ZM153.374 357.33C151.732 357.33 150.28 357.007 149.018 356.362C147.757 355.702 146.782 354.771 146.092 353.568C145.403 352.365 145.058 350.95 145.058 349.322C145.058 347.694 145.403 346.279 146.092 345.076C146.782 343.859 147.757 342.927 149.018 342.282C150.28 341.622 151.732 341.292 153.374 341.292C155.501 341.292 157.276 341.776 158.698 342.744V345.912C158.053 345.369 157.312 344.981 156.476 344.746C155.655 344.497 154.716 344.372 153.66 344.372C152.062 344.372 150.793 344.819 149.854 345.714C148.93 346.594 148.468 347.797 148.468 349.322C148.468 350.862 148.938 352.079 149.876 352.974C150.815 353.854 152.076 354.294 153.66 354.294C154.746 354.294 155.706 354.169 156.542 353.92C157.378 353.656 158.156 353.238 158.874 352.666V355.834C157.525 356.831 155.692 357.33 153.374 357.33ZM160.752 341.622H164.096V357H160.752V341.622ZM166.403 341.622H173.069C174.814 341.622 176.171 342.062 177.139 342.942C178.121 343.807 178.613 345.061 178.613 346.704C178.613 347.848 178.349 348.823 177.821 349.63C177.293 350.422 176.545 351.001 175.577 351.368L178.503 357H175.071L172.365 351.786H169.747V357H166.403V341.622ZM172.475 348.992C173.325 348.992 173.993 348.809 174.477 348.442C174.975 348.075 175.225 347.496 175.225 346.704C175.225 345.868 174.983 345.281 174.499 344.944C174.015 344.592 173.34 344.416 172.475 344.416H169.747V348.992H172.475ZM188.029 357.33C186.386 357.33 184.934 357.007 183.673 356.362C182.411 355.702 181.436 354.771 180.747 353.568C180.057 352.365 179.713 350.95 179.713 349.322C179.713 347.694 180.057 346.279 180.747 345.076C181.436 343.859 182.411 342.927 183.673 342.282C184.934 341.622 186.386 341.292 188.029 341.292C190.155 341.292 191.93 341.776 193.353 342.744V345.912C192.707 345.369 191.967 344.981 191.131 344.746C190.309 344.497 189.371 344.372 188.315 344.372C186.716 344.372 185.447 344.819 184.509 345.714C183.585 346.594 183.123 347.797 183.123 349.322C183.123 350.862 183.592 352.079 184.531 352.974C185.469 353.854 186.731 354.294 188.315 354.294C189.4 354.294 190.361 354.169 191.197 353.92C192.033 353.656 192.81 353.238 193.529 352.666V355.834C192.179 356.831 190.346 357.33 188.029 357.33ZM202.095 357.33C199.851 357.33 198.157 356.743 197.013 355.57C195.869 354.382 195.297 352.791 195.297 350.796V341.622H198.641V350.84C198.641 351.955 198.949 352.805 199.565 353.392C200.181 353.979 201.024 354.272 202.095 354.272C203.151 354.272 203.979 353.979 204.581 353.392C205.197 352.805 205.505 351.955 205.505 350.84V341.622H208.849V350.796C208.849 352.791 208.284 354.382 207.155 355.57C206.025 356.743 204.339 357.33 202.095 357.33ZM211.047 341.622H214.391V354.206H221.431V357H211.047V341.622ZM228.261 341.622H231.539L237.677 357H234.267L232.947 353.656H226.853L225.533 357H222.101L228.261 341.622ZM232.067 350.994L229.889 345.142L227.711 350.994H232.067ZM240.46 344.416H235.972V341.622H248.292V344.416H243.804V357H240.46V344.416ZM249.762 341.622H260.432V344.416H253.106V347.98H258.496V350.664H253.106V354.206H260.432V357H249.762V341.622ZM275.463 341.622H278.741L284.879 357H281.469L280.149 353.656H274.055L272.735 357H269.303L275.463 341.622ZM279.269 350.994L277.091 345.142L274.913 350.994H279.269ZM286.737 341.622H290.081V357H286.737V341.622ZM305.799 341.622H309.077L315.215 357H311.805L310.485 353.656H304.391L303.071 357H299.639L305.799 341.622ZM309.605 350.994L307.427 345.142L305.249 350.994H309.605ZM317.073 341.622H320.417V354.206H327.457V357H317.073V341.622ZM328.889 341.622H335.357C337.102 341.622 338.496 342.084 339.537 343.008C340.578 343.917 341.099 345.186 341.099 346.814C341.099 348.486 340.578 349.769 339.537 350.664C338.51 351.559 337.117 352.006 335.357 352.006H332.233V357H328.889V341.622ZM334.873 349.212C336.765 349.212 337.711 348.413 337.711 346.814C337.711 345.919 337.454 345.296 336.941 344.944C336.442 344.592 335.753 344.416 334.873 344.416H332.233V349.212H334.873ZM342.639 341.622H345.983V347.782H352.693V341.622H356.037V357H352.693V350.554H345.983V357H342.639V341.622ZM364.043 341.622H367.321L373.459 357H370.049L368.729 353.656H362.635L361.315 357H357.883L364.043 341.622ZM367.849 350.994L365.671 345.142L363.493 350.994H367.849ZM390.884 357.33C389.242 357.33 387.79 357.007 386.528 356.362C385.267 355.702 384.292 354.771 383.602 353.568C382.913 352.365 382.568 350.95 382.568 349.322C382.568 347.694 382.913 346.279 383.602 345.076C384.292 343.859 385.267 342.927 386.528 342.282C387.79 341.622 389.242 341.292 390.884 341.292C393.011 341.292 394.786 341.776 396.208 342.744V345.912C395.563 345.369 394.822 344.981 393.986 344.746C393.165 344.497 392.226 344.372 391.17 344.372C389.572 344.372 388.303 344.819 387.364 345.714C386.44 346.594 385.978 347.797 385.978 349.322C385.978 350.862 386.448 352.079 387.386 352.974C388.325 353.854 389.586 354.294 391.17 354.294C392.256 354.294 393.216 354.169 394.052 353.92C394.888 353.656 395.666 353.238 396.384 352.666V355.834C395.035 356.831 393.202 357.33 390.884 357.33ZM405.492 357.33C403.952 357.33 402.551 356.993 401.29 356.318C400.043 355.643 399.06 354.705 398.342 353.502C397.623 352.285 397.264 350.891 397.264 349.322C397.264 347.753 397.623 346.359 398.342 345.142C399.06 343.925 400.043 342.979 401.29 342.304C402.551 341.629 403.952 341.292 405.492 341.292C407.032 341.292 408.418 341.629 409.65 342.304C410.896 342.979 411.879 343.925 412.598 345.142C413.316 346.359 413.676 347.753 413.676 349.322C413.676 350.891 413.316 352.285 412.598 353.502C411.879 354.705 410.896 355.643 409.65 356.318C408.418 356.993 407.032 357.33 405.492 357.33ZM405.492 354.25C406.372 354.25 407.171 354.052 407.89 353.656C408.623 353.245 409.202 352.673 409.628 351.94C410.053 351.192 410.266 350.319 410.266 349.322C410.266 348.339 410.053 347.481 409.628 346.748C409.217 346 408.645 345.428 407.912 345.032C407.193 344.621 406.386 344.416 405.492 344.416C404.582 344.416 403.761 344.621 403.028 345.032C402.309 345.428 401.737 346 401.312 346.748C400.886 347.481 400.674 348.339 400.674 349.322C400.674 350.319 400.886 351.192 401.312 351.94C401.737 352.673 402.316 353.245 403.05 353.656C403.783 354.052 404.597 354.25 405.492 354.25ZM415.514 341.622H418.77L425.194 351.566V341.622H428.538V357H425.304L418.858 347.056V357H415.514V341.622ZM434.506 344.416H430.018V341.622H442.338V344.416H437.85V357H434.506V344.416ZM443.809 341.622H454.479V344.416H447.153V347.98H452.543V350.664H447.153V354.206H454.479V357H443.809V341.622ZM456.098 341.622H459.354L465.778 351.566V341.622H469.122V357H465.888L459.442 347.056V357H456.098V341.622ZM475.09 344.416H470.602V341.622H482.922V344.416H478.434V357H475.09V344.416Z" fill="#FF8A37"/>
</svg>
