<svg width="1440" height="876" viewBox="0 0 1440 876" fill="none" xmlns="http://www.w3.org/2000/svg">
<g clip-path="url(#clip0_1144_910)">
<rect width="1440" height="876" fill="#171717"/>
<rect x="558.745" y="641.889" width="455.088" height="21.1484" transform="rotate(-90 558.745 641.889)" fill="url(#paint0_linear_1144_910)"/>
<rect x="558.745" y="641.889" width="455.088" height="1.40989" transform="rotate(-90 558.745 641.889)" fill="#FF8A37"/>
<rect x="553.106" y="652" width="477" height="26.788" transform="rotate(-90 553.106 652)" fill="url(#paint1_linear_1144_910)"/>
<path d="M759.356 361.468C752.552 361.468 748.916 357.148 748.916 349.3C748.916 341.488 752.624 337.132 759.356 337.132C766.124 337.132 769.796 341.452 769.796 349.3C769.796 357.112 766.052 361.468 759.356 361.468ZM759.356 357.004C763.136 357.004 765.116 354.304 765.116 349.3C765.116 344.26 763.136 341.56 759.356 341.56C755.576 341.56 753.56 344.26 753.56 349.3C753.56 354.34 755.576 357.004 759.356 357.004ZM776.032 361V337.6H780.496V361H776.032ZM789.589 361.468C787.825 361.468 786.709 360.244 786.709 358.408C786.709 356.608 787.825 355.384 789.589 355.384C791.317 355.384 792.469 356.608 792.469 358.408C792.469 360.244 791.317 361.468 789.589 361.468Z" fill="#FF8A37"/>
<path d="M821.232 360V344.4H824.208V351.96L832.152 344.4H836.376L829.464 350.928L836.376 360H832.752L827.376 352.92L824.208 355.92V360H821.232ZM839.607 360V344.4H854.127V347.208H842.583V350.784H851.175V353.592H842.583V357.192H854.127V360H839.607ZM858.146 360V344.4H872.666V347.208H861.122V350.784H869.714V353.592H861.122V357.192H872.666V360H858.146ZM876.685 360V344.4H887.365C890.029 344.4 891.805 346.272 891.805 349.08C891.805 351.768 890.029 353.592 887.365 353.592H879.661V360H876.685ZM879.661 350.784H887.365C888.253 350.784 888.829 350.16 888.829 349.224V348.768C888.829 347.832 888.253 347.208 887.365 347.208H879.661V350.784ZM902.935 360V344.4H913.615C916.279 344.4 918.055 346.272 918.055 349.08C918.055 351.768 916.279 353.592 913.615 353.592H905.911V360H902.935ZM905.911 350.784H913.615C914.503 350.784 915.079 350.16 915.079 349.224V348.768C915.079 347.832 914.503 347.208 913.615 347.208H905.911V350.784ZM918.349 360L924.445 344.4H928.885L934.957 360H931.765L930.229 356.016H923.005L921.493 360H918.349ZM924.013 353.208H929.221L926.581 346.728L924.013 353.208ZM941.135 360V354.528L934.919 344.4H938.351L941.231 349.08C942.191 350.64 942.599 351.888 942.599 351.888H942.647C942.647 351.888 943.079 350.64 944.015 349.08L946.895 344.4H950.327L944.111 354.528V360H941.135ZM953.443 360V344.4H956.107L960.763 350.952H960.979L965.587 344.4H968.275V360H965.299V349.08H965.227C965.227 349.08 964.939 350.088 964.411 350.832L962.347 353.76H959.371L957.307 350.832C956.755 350.088 956.467 349.08 956.467 349.08H956.419V360H953.443ZM972.709 360V344.4H987.229V347.208H975.685V350.784H984.277V353.592H975.685V357.192H987.229V360H972.709ZM991.248 360V344.4H993.912L1003.1 355.152V344.4H1006.08V360H1003.39L994.224 349.224V360H991.248ZM1015.39 360V347.208H1009.46V344.4H1024.29V347.208H1018.36V360H1015.39ZM1035.1 360V344.4H1042.52C1046.96 344.4 1050.22 347.664 1050.22 352.2C1050.22 356.688 1046.96 360 1042.52 360H1035.1ZM1038.08 357.192H1042.52C1045.18 357.192 1047.1 355.104 1047.1 352.2C1047.1 349.32 1045.18 347.208 1042.52 347.208H1038.08V357.192ZM1053.94 360V344.4H1068.46V347.208H1056.92V350.784H1065.51V353.592H1056.92V357.192H1068.46V360H1053.94ZM1077.35 360V347.208H1071.43V344.4H1086.26V347.208H1080.33V360H1077.35ZM1086.4 360L1092.49 344.4H1096.93L1103 360H1099.81L1098.28 356.016H1091.05L1089.54 360H1086.4ZM1092.06 353.208H1097.27L1094.63 346.728L1092.06 353.208ZM1106.11 360V344.4H1109.09V360H1106.11ZM1113.52 360V344.4H1116.5V357.192H1125.38V360H1113.52ZM1135.16 360.312C1130.91 360.312 1128.06 358.32 1128.06 355.32H1131.01C1131.01 356.64 1132.69 357.504 1135.16 357.504C1137.85 357.504 1139.31 356.688 1139.31 355.224C1139.31 353.976 1138.02 353.448 1135.04 353.448C1130.36 353.448 1128.35 352.128 1128.35 348.984C1128.35 345.792 1130.72 344.088 1135.16 344.088C1139.24 344.088 1141.98 346.08 1141.98 349.08H1139.03C1139.03 347.76 1137.47 346.896 1135.16 346.896C1132.67 346.896 1131.32 347.616 1131.32 348.984C1131.32 350.16 1132.5 350.64 1135.33 350.64C1140.2 350.64 1142.29 352.032 1142.29 355.224C1142.29 358.536 1139.79 360.312 1135.16 360.312ZM1160.52 360.312C1156.41 360.312 1153.39 357 1153.39 352.512V344.4H1156.36V352.512C1156.36 355.32 1158.09 357.336 1160.52 357.336C1162.89 357.336 1164.64 355.32 1164.64 352.512V344.4H1167.62V352.512C1167.62 357 1164.6 360.312 1160.52 360.312ZM1172.07 360V344.4H1182.75C1185.41 344.4 1187.19 346.272 1187.19 349.08C1187.19 351.768 1185.41 353.592 1182.75 353.592H1175.04V360H1172.07ZM1175.04 350.784H1182.75C1183.64 350.784 1184.21 350.16 1184.21 349.224V348.768C1184.21 347.832 1183.64 347.208 1182.75 347.208H1175.04V350.784ZM1203.19 360V347.208H1197.26V344.4H1212.09V347.208H1206.17V360H1203.19ZM1221.5 360.312C1217.06 360.312 1213.79 356.88 1213.79 352.2C1213.79 347.52 1217.06 344.088 1221.5 344.088C1225.94 344.088 1229.2 347.52 1229.2 352.2C1229.2 356.88 1225.94 360.312 1221.5 360.312ZM1221.5 357.336C1224.16 357.336 1226.1 355.152 1226.1 352.2C1226.1 349.224 1224.16 347.04 1221.5 347.04C1218.83 347.04 1216.91 349.224 1216.91 352.2C1216.91 355.152 1218.83 357.336 1221.5 357.336ZM1240.32 360V344.4H1247.73C1252.17 344.4 1255.44 347.664 1255.44 352.2C1255.44 356.688 1252.17 360 1247.73 360H1240.32ZM1243.29 357.192H1247.73C1250.4 357.192 1252.32 355.104 1252.32 352.2C1252.32 349.32 1250.4 347.208 1247.73 347.208H1243.29V357.192ZM1256.97 360L1263.07 344.4H1267.51L1273.58 360H1270.39L1268.85 356.016H1261.63L1260.12 360H1256.97ZM1262.64 353.208H1267.85L1265.21 346.728L1262.64 353.208ZM1279.64 360V347.208H1273.72V344.4H1288.55V347.208H1282.62V360H1279.64ZM1291.95 360V344.4H1306.47V347.208H1294.93V350.784H1303.52V353.592H1294.93V357.192H1306.47V360H1291.95Z" fill="#FF8A37"/>
<path d="M720.5 352.5C720.5 330.961 737.961 313.5 759.5 313.5H1295.5C1317.04 313.5 1334.5 330.961 1334.5 352.5C1334.5 374.039 1317.04 391.5 1295.5 391.5H759.5C737.961 391.5 720.5 374.039 720.5 352.5Z" stroke="#FF8A37"/>
<rect x="630" y="354" width="0.999996" height="91" transform="rotate(-90 630 354)" fill="#FF8A37"/>
<path d="M824.832 414.418H826.596L831.618 427H829.746L828.486 423.868H822.924L821.7 427H819.81L824.832 414.418ZM827.982 422.338L825.714 416.452L823.446 422.338H827.982ZM835.662 427.27C834.786 427.27 834.108 427.018 833.628 426.514C833.16 426.01 832.926 425.296 832.926 424.372V419.764H831.612V418.36H832.926V415.768H834.762V418.36H836.886V419.764H834.762V424.246C834.762 424.822 834.87 425.23 835.086 425.47C835.314 425.71 835.722 425.83 836.31 425.83C836.658 425.83 837.006 425.752 837.354 425.596V427.036C836.898 427.192 836.334 427.27 835.662 427.27ZM848.876 427.27C848 427.27 847.322 427.018 846.842 426.514C846.374 426.01 846.14 425.296 846.14 424.372V419.764H844.826V418.36H846.14V415.768H847.976V418.36H850.1V419.764H847.976V424.246C847.976 424.822 848.084 425.23 848.3 425.47C848.528 425.71 848.936 425.83 849.524 425.83C849.872 425.83 850.22 425.752 850.568 425.596V427.036C850.112 427.192 849.548 427.27 848.876 427.27ZM852.189 413.698H854.007V419.548C854.835 418.576 855.939 418.09 857.319 418.09C858.471 418.09 859.329 418.396 859.893 419.008C860.457 419.62 860.739 420.442 860.739 421.474V427H858.921V421.654C858.921 420.25 858.249 419.548 856.905 419.548C856.329 419.548 855.789 419.686 855.285 419.962C854.793 420.226 854.367 420.634 854.007 421.186V427H852.189V413.698ZM867.644 427.27C866.048 427.27 864.794 426.874 863.882 426.082C862.982 425.278 862.532 424.15 862.532 422.698C862.532 421.282 862.934 420.16 863.738 419.332C864.554 418.504 865.712 418.09 867.212 418.09C868.208 418.09 869.054 418.282 869.75 418.666C870.446 419.038 870.968 419.56 871.316 420.232C871.676 420.892 871.856 421.648 871.856 422.5V423.4H864.26C864.32 424.216 864.662 424.828 865.286 425.236C865.922 425.632 866.78 425.83 867.86 425.83C868.412 425.83 868.97 425.782 869.534 425.686C870.098 425.578 870.596 425.44 871.028 425.272V426.73C870.644 426.886 870.134 427.012 869.498 427.108C868.874 427.216 868.256 427.27 867.644 427.27ZM870.146 422.122C870.122 421.306 869.852 420.676 869.336 420.232C868.832 419.776 868.112 419.548 867.176 419.548C866.264 419.548 865.556 419.782 865.052 420.25C864.548 420.718 864.284 421.342 864.26 422.122H870.146ZM883.511 427.27C882.911 427.27 882.275 427.192 881.603 427.036C880.931 426.892 880.403 426.694 880.019 426.442V424.894C880.487 425.17 881.027 425.398 881.639 425.578C882.251 425.746 882.845 425.83 883.421 425.83C884.069 425.83 884.543 425.752 884.843 425.596C885.143 425.44 885.293 425.188 885.293 424.84C885.293 424.576 885.221 424.366 885.077 424.21C884.945 424.042 884.711 423.892 884.375 423.76C884.051 423.628 883.559 423.472 882.899 423.292C882.191 423.088 881.627 422.884 881.207 422.68C880.799 422.464 880.487 422.194 880.271 421.87C880.067 421.546 879.965 421.126 879.965 420.61C879.965 419.782 880.289 419.158 880.937 418.738C881.597 418.306 882.479 418.09 883.583 418.09C884.159 418.09 884.723 418.144 885.275 418.252C885.827 418.36 886.271 418.51 886.607 418.702V420.214C886.259 420.01 885.827 419.848 885.311 419.728C884.807 419.608 884.291 419.548 883.763 419.548C883.127 419.548 882.641 419.626 882.305 419.782C881.969 419.938 881.801 420.214 881.801 420.61C881.801 420.862 881.873 421.066 882.017 421.222C882.161 421.378 882.389 421.516 882.701 421.636C883.025 421.744 883.535 421.888 884.231 422.068C885.323 422.368 886.079 422.722 886.499 423.13C886.931 423.538 887.147 424.102 887.147 424.822C887.147 425.566 886.841 426.16 886.229 426.604C885.617 427.048 884.711 427.27 883.511 427.27ZM892.108 427.27C891.232 427.27 890.554 427.018 890.074 426.514C889.606 426.01 889.372 425.296 889.372 424.372V419.764H888.058V418.36H889.372V415.768H891.208V418.36H893.332V419.764H891.208V424.246C891.208 424.822 891.316 425.23 891.532 425.47C891.76 425.71 892.168 425.83 892.756 425.83C893.104 425.83 893.452 425.752 893.8 425.596V427.036C893.344 427.192 892.78 427.27 892.108 427.27ZM898.253 427.27C897.209 427.27 896.369 427.006 895.733 426.478C895.109 425.938 894.797 425.212 894.797 424.3C894.797 423.34 895.097 422.602 895.697 422.086C896.309 421.558 897.173 421.294 898.289 421.294C899.477 421.294 900.485 421.534 901.313 422.014V421.564C901.313 420.88 901.103 420.376 900.683 420.052C900.275 419.716 899.627 419.548 898.739 419.548C898.211 419.548 897.695 419.602 897.191 419.71C896.699 419.806 896.255 419.944 895.859 420.124V418.648C896.219 418.48 896.687 418.348 897.263 418.252C897.839 418.144 898.397 418.09 898.937 418.09C900.365 418.09 901.421 418.408 902.105 419.044C902.801 419.668 903.149 420.538 903.149 421.654V427H901.439V426.028C901.067 426.436 900.623 426.748 900.107 426.964C899.603 427.168 898.985 427.27 898.253 427.27ZM898.703 425.884C899.279 425.884 899.801 425.77 900.269 425.542C900.737 425.314 901.085 424.996 901.313 424.588V423.418C900.533 422.914 899.663 422.662 898.703 422.662C898.007 422.662 897.485 422.8 897.137 423.076C896.801 423.34 896.633 423.748 896.633 424.3C896.633 425.356 897.323 425.884 898.703 425.884ZM905.315 418.36H907.079V419.908C907.439 419.38 907.943 418.99 908.591 418.738C909.251 418.486 910.013 418.36 910.877 418.36V419.782C909.953 419.782 909.161 419.932 908.501 420.232C907.841 420.532 907.385 421.006 907.133 421.654V427H905.315V418.36ZM915.744 427.27C914.868 427.27 914.19 427.018 913.71 426.514C913.242 426.01 913.008 425.296 913.008 424.372V419.764H911.694V418.36H913.008V415.768H914.844V418.36H916.968V419.764H914.844V424.246C914.844 424.822 914.952 425.23 915.168 425.47C915.396 425.71 915.804 425.83 916.392 425.83C916.74 425.83 917.088 425.752 917.436 425.596V427.036C916.98 427.192 916.416 427.27 915.744 427.27ZM930.183 427.27C929.211 427.27 928.353 427.09 927.609 426.73C926.877 426.358 926.301 425.83 925.881 425.146C925.473 424.45 925.269 423.634 925.269 422.698C925.269 421.774 925.473 420.964 925.881 420.268C926.289 419.572 926.865 419.038 927.609 418.666C928.353 418.282 929.211 418.09 930.183 418.09C931.155 418.09 932.013 418.282 932.757 418.666C933.501 419.038 934.077 419.572 934.485 420.268C934.905 420.964 935.115 421.774 935.115 422.698C935.115 423.634 934.905 424.45 934.485 425.146C934.077 425.83 933.501 426.358 932.757 426.73C932.013 427.09 931.155 427.27 930.183 427.27ZM930.183 425.83C931.119 425.83 931.863 425.542 932.415 424.966C932.967 424.39 933.243 423.634 933.243 422.698C933.243 421.726 932.967 420.958 932.415 420.394C931.863 419.83 931.119 419.548 930.183 419.548C929.247 419.548 928.503 419.83 927.951 420.394C927.399 420.958 927.123 421.726 927.123 422.698C927.123 423.634 927.399 424.39 927.951 424.966C928.503 425.542 929.247 425.83 930.183 425.83ZM936.961 419.764H935.647V418.36H936.961V416.668C936.961 415.672 937.243 414.916 937.807 414.4C938.371 413.872 939.127 413.608 940.075 413.608C940.567 413.608 941.029 413.68 941.461 413.824V415.336C941.125 415.18 940.777 415.102 940.417 415.102C939.853 415.102 939.439 415.24 939.175 415.516C938.911 415.78 938.779 416.2 938.779 416.776V418.36H940.939V419.764H938.779V427H936.961V419.764ZM953.947 427.27C952.351 427.27 951.097 426.874 950.185 426.082C949.285 425.278 948.835 424.15 948.835 422.698C948.835 421.282 949.237 420.16 950.041 419.332C950.857 418.504 952.015 418.09 953.515 418.09C954.511 418.09 955.357 418.282 956.053 418.666C956.749 419.038 957.271 419.56 957.619 420.232C957.979 420.892 958.159 421.648 958.159 422.5V423.4H950.563C950.623 424.216 950.965 424.828 951.589 425.236C952.225 425.632 953.083 425.83 954.163 425.83C954.715 425.83 955.273 425.782 955.837 425.686C956.401 425.578 956.899 425.44 957.331 425.272V426.73C956.947 426.886 956.437 427.012 955.801 427.108C955.177 427.216 954.559 427.27 953.947 427.27ZM956.449 422.122C956.425 421.306 956.155 420.676 955.639 420.232C955.135 419.776 954.415 419.548 953.479 419.548C952.567 419.548 951.859 419.782 951.355 420.25C950.851 420.718 950.587 421.342 950.563 422.122H956.449ZM963.152 427.27C962.108 427.27 961.268 427.006 960.632 426.478C960.008 425.938 959.696 425.212 959.696 424.3C959.696 423.34 959.996 422.602 960.596 422.086C961.208 421.558 962.072 421.294 963.188 421.294C964.376 421.294 965.384 421.534 966.212 422.014V421.564C966.212 420.88 966.002 420.376 965.582 420.052C965.174 419.716 964.526 419.548 963.638 419.548C963.11 419.548 962.594 419.602 962.09 419.71C961.598 419.806 961.154 419.944 960.758 420.124V418.648C961.118 418.48 961.586 418.348 962.162 418.252C962.738 418.144 963.296 418.09 963.836 418.09C965.264 418.09 966.32 418.408 967.004 419.044C967.7 419.668 968.048 420.538 968.048 421.654V427H966.338V426.028C965.966 426.436 965.522 426.748 965.006 426.964C964.502 427.168 963.884 427.27 963.152 427.27ZM963.602 425.884C964.178 425.884 964.7 425.77 965.168 425.542C965.636 425.314 965.984 424.996 966.212 424.588V423.418C965.432 422.914 964.562 422.662 963.602 422.662C962.906 422.662 962.384 422.8 962.036 423.076C961.7 423.34 961.532 423.748 961.532 424.3C961.532 425.356 962.222 425.884 963.602 425.884ZM974.417 427.27C973.457 427.27 972.605 427.09 971.861 426.73C971.117 426.37 970.535 425.848 970.115 425.164C969.707 424.468 969.503 423.646 969.503 422.698C969.503 421.75 969.707 420.934 970.115 420.25C970.535 419.554 971.117 419.02 971.861 418.648C972.617 418.276 973.481 418.09 974.453 418.09C975.773 418.09 976.829 418.348 977.621 418.864V420.358C976.841 419.818 975.845 419.548 974.633 419.548C973.649 419.548 972.851 419.818 972.239 420.358C971.639 420.886 971.339 421.666 971.339 422.698C971.339 423.73 971.639 424.51 972.239 425.038C972.839 425.566 973.625 425.83 974.597 425.83C975.809 425.83 976.853 425.542 977.729 424.966V426.442C977.309 426.73 976.829 426.94 976.289 427.072C975.761 427.204 975.137 427.27 974.417 427.27ZM979.616 413.698H981.434V419.548C982.262 418.576 983.366 418.09 984.746 418.09C985.898 418.09 986.756 418.396 987.32 419.008C987.884 419.62 988.166 420.442 988.166 421.474V427H986.348V421.654C986.348 420.25 985.676 419.548 984.332 419.548C983.756 419.548 983.216 419.686 982.712 419.962C982.22 420.226 981.794 420.634 981.434 421.186V427H979.616V413.698ZM1002.26 427.27C1001.48 427.27 1000.8 427.15 1000.22 426.91C999.657 426.658 999.135 426.268 998.655 425.74V427H996.891V413.698H998.709V419.512C999.105 419.044 999.615 418.69 1000.24 418.45C1000.86 418.21 1001.54 418.09 1002.26 418.09C1003.12 418.09 1003.89 418.288 1004.58 418.684C1005.27 419.068 1005.81 419.608 1006.2 420.304C1006.59 421 1006.79 421.798 1006.79 422.698C1006.79 423.61 1006.59 424.414 1006.2 425.11C1005.81 425.794 1005.27 426.328 1004.58 426.712C1003.89 427.084 1003.12 427.27 1002.26 427.27ZM1001.84 425.83C1002.43 425.83 1002.96 425.704 1003.43 425.452C1003.91 425.188 1004.28 424.816 1004.54 424.336C1004.82 423.856 1004.96 423.31 1004.96 422.698C1004.96 422.086 1004.82 421.54 1004.54 421.06C1004.28 420.58 1003.91 420.208 1003.43 419.944C1002.96 419.68 1002.43 419.548 1001.84 419.548C1001.11 419.548 1000.46 419.746 999.879 420.142C999.303 420.538 998.913 421.066 998.709 421.726V423.67C998.937 424.33 999.327 424.858 999.879 425.254C1000.44 425.638 1001.1 425.83 1001.84 425.83ZM1009.75 416.668C1009.45 416.668 1009.19 416.566 1008.99 416.362C1008.79 416.158 1008.68 415.906 1008.68 415.606C1008.68 415.306 1008.79 415.054 1008.99 414.85C1009.19 414.646 1009.45 414.544 1009.75 414.544C1010.06 414.544 1010.32 414.646 1010.52 414.85C1010.74 415.054 1010.84 415.306 1010.84 415.606C1010.84 415.906 1010.74 416.158 1010.52 416.362C1010.32 416.566 1010.06 416.668 1009.75 416.668ZM1008.83 418.36H1010.68V427H1008.83V418.36ZM1013.09 413.698H1014.91V427H1013.09V413.698ZM1017.17 413.698H1018.99V427H1017.17V413.698ZM1022.31 416.668C1022.01 416.668 1021.76 416.566 1021.55 416.362C1021.35 416.158 1021.25 415.906 1021.25 415.606C1021.25 415.306 1021.35 415.054 1021.55 414.85C1021.76 414.646 1022.01 414.544 1022.31 414.544C1022.62 414.544 1022.88 414.646 1023.08 414.85C1023.3 415.054 1023.41 415.306 1023.41 415.606C1023.41 415.906 1023.3 416.158 1023.08 416.362C1022.88 416.566 1022.62 416.668 1022.31 416.668ZM1021.39 418.36H1023.24V427H1021.39V418.36ZM1025.66 418.36H1027.42V419.602C1027.83 419.086 1028.33 418.708 1028.91 418.468C1029.51 418.216 1030.14 418.09 1030.79 418.09C1031.94 418.09 1032.8 418.396 1033.36 419.008C1033.92 419.62 1034.21 420.442 1034.21 421.474V427H1032.39V421.654C1032.39 420.25 1031.72 419.548 1030.37 419.548C1029.8 419.548 1029.26 419.686 1028.75 419.962C1028.26 420.226 1027.83 420.634 1027.47 421.186V427H1025.66V418.36ZM1040.88 431.14C1040.29 431.14 1039.71 431.092 1039.15 430.996C1038.6 430.9 1038.13 430.762 1037.75 430.582V429.088C1038.65 429.496 1039.69 429.7 1040.88 429.7C1041.99 429.7 1042.8 429.454 1043.31 428.962C1043.82 428.482 1044.08 427.75 1044.08 426.766V425.848C1043.29 426.796 1042.13 427.27 1040.59 427.27C1039.71 427.27 1038.93 427.078 1038.23 426.694C1037.54 426.31 1036.99 425.77 1036.59 425.074C1036.2 424.378 1036 423.58 1036 422.68C1036 421.768 1036.19 420.97 1036.58 420.286C1036.97 419.59 1037.51 419.05 1038.2 418.666C1038.89 418.282 1039.67 418.09 1040.54 418.09C1041.34 418.09 1042.02 418.21 1042.57 418.45C1043.13 418.678 1043.66 419.062 1044.14 419.602V418.36H1045.9V426.568C1045.9 428.044 1045.49 429.172 1044.66 429.952C1043.84 430.744 1042.58 431.14 1040.88 431.14ZM1040.95 425.83C1041.69 425.83 1042.35 425.632 1042.91 425.236C1043.49 424.84 1043.88 424.312 1044.08 423.652V421.708C1043.85 421.036 1043.46 420.508 1042.89 420.124C1042.34 419.74 1041.69 419.548 1040.95 419.548C1040.36 419.548 1039.83 419.68 1039.35 419.944C1038.88 420.196 1038.51 420.562 1038.23 421.042C1037.97 421.522 1037.84 422.068 1037.84 422.68C1037.84 423.304 1037.97 423.856 1038.23 424.336C1038.51 424.804 1038.88 425.17 1039.35 425.434C1039.83 425.698 1040.36 425.83 1040.95 425.83ZM1059.28 427.27C1058.32 427.27 1057.47 427.09 1056.72 426.73C1055.98 426.37 1055.4 425.848 1054.98 425.164C1054.57 424.468 1054.36 423.646 1054.36 422.698C1054.36 421.75 1054.57 420.934 1054.98 420.25C1055.4 419.554 1055.98 419.02 1056.72 418.648C1057.48 418.276 1058.34 418.09 1059.31 418.09C1060.63 418.09 1061.69 418.348 1062.48 418.864V420.358C1061.7 419.818 1060.71 419.548 1059.49 419.548C1058.51 419.548 1057.71 419.818 1057.1 420.358C1056.5 420.886 1056.2 421.666 1056.2 422.698C1056.2 423.73 1056.5 424.51 1057.1 425.038C1057.7 425.566 1058.49 425.83 1059.46 425.83C1060.67 425.83 1061.71 425.542 1062.59 424.966V426.442C1062.17 426.73 1061.69 426.94 1061.15 427.072C1060.62 427.204 1060 427.27 1059.28 427.27ZM1065.86 430.564C1065.21 430.564 1064.67 430.498 1064.24 430.366V428.944C1064.55 429.064 1064.93 429.124 1065.39 429.124C1065.81 429.124 1066.14 429.016 1066.38 428.8C1066.62 428.596 1066.83 428.26 1067.03 427.792L1067.44 426.784L1063.66 418.36H1065.53L1068.41 425.002L1071.09 418.36H1072.97L1069.08 427.972C1068.72 428.872 1068.29 429.526 1067.78 429.934C1067.29 430.354 1066.65 430.564 1065.86 430.564ZM1078.24 427.27C1077.28 427.27 1076.43 427.09 1075.68 426.73C1074.94 426.37 1074.36 425.848 1073.94 425.164C1073.53 424.468 1073.33 423.646 1073.33 422.698C1073.33 421.75 1073.53 420.934 1073.94 420.25C1074.36 419.554 1074.94 419.02 1075.68 418.648C1076.44 418.276 1077.3 418.09 1078.28 418.09C1079.6 418.09 1080.65 418.348 1081.44 418.864V420.358C1080.66 419.818 1079.67 419.548 1078.46 419.548C1077.47 419.548 1076.67 419.818 1076.06 420.358C1075.46 420.886 1075.16 421.666 1075.16 422.698C1075.16 423.73 1075.46 424.51 1076.06 425.038C1076.66 425.566 1077.45 425.83 1078.42 425.83C1079.63 425.83 1080.68 425.542 1081.55 424.966V426.442C1081.13 426.73 1080.65 426.94 1080.11 427.072C1079.58 427.204 1078.96 427.27 1078.24 427.27ZM1083.44 413.698H1085.26V427H1083.44V413.698ZM1092.27 427.27C1090.67 427.27 1089.42 426.874 1088.51 426.082C1087.61 425.278 1087.16 424.15 1087.16 422.698C1087.16 421.282 1087.56 420.16 1088.36 419.332C1089.18 418.504 1090.34 418.09 1091.84 418.09C1092.83 418.09 1093.68 418.282 1094.37 418.666C1095.07 419.038 1095.59 419.56 1095.94 420.232C1096.3 420.892 1096.48 421.648 1096.48 422.5V423.4H1088.88C1088.94 424.216 1089.29 424.828 1089.91 425.236C1090.55 425.632 1091.4 425.83 1092.48 425.83C1093.04 425.83 1093.59 425.782 1094.16 425.686C1094.72 425.578 1095.22 425.44 1095.65 425.272V426.73C1095.27 426.886 1094.76 427.012 1094.12 427.108C1093.5 427.216 1092.88 427.27 1092.27 427.27ZM1094.77 422.122C1094.75 421.306 1094.48 420.676 1093.96 420.232C1093.46 419.776 1092.74 419.548 1091.8 419.548C1090.89 419.548 1090.18 419.782 1089.68 420.25C1089.17 420.718 1088.91 421.342 1088.88 422.122H1094.77ZM1099.48 426.046H1101.38L1099.67 429.664H1098.02L1099.48 426.046ZM1110.91 416.668C1110.61 416.668 1110.36 416.566 1110.16 416.362C1109.95 416.158 1109.85 415.906 1109.85 415.606C1109.85 415.306 1109.95 415.054 1110.16 414.85C1110.36 414.646 1110.61 414.544 1110.91 414.544C1111.23 414.544 1111.48 414.646 1111.69 414.85C1111.9 415.054 1112.01 415.306 1112.01 415.606C1112.01 415.906 1111.9 416.158 1111.69 416.362C1111.48 416.566 1111.23 416.668 1110.91 416.668ZM1110 418.36H1111.85V427H1110V418.36ZM1114.86 419.764H1113.54V418.36H1114.86V416.668C1114.86 415.672 1115.14 414.916 1115.7 414.4C1116.27 413.872 1117.02 413.608 1117.97 413.608C1118.46 413.608 1118.92 413.68 1119.36 413.824V415.336C1119.02 415.18 1118.67 415.102 1118.31 415.102C1117.75 415.102 1117.33 415.24 1117.07 415.516C1116.81 415.78 1116.67 416.2 1116.67 416.776V418.36H1118.83V419.764H1116.67V427H1114.86V419.764ZM1130.42 427.27C1129.54 427.27 1128.87 427.018 1128.39 426.514C1127.92 426.01 1127.68 425.296 1127.68 424.372V419.764H1126.37V418.36H1127.68V415.768H1129.52V418.36H1131.64V419.764H1129.52V424.246C1129.52 424.822 1129.63 425.23 1129.84 425.47C1130.07 425.71 1130.48 425.83 1131.07 425.83C1131.42 425.83 1131.76 425.752 1132.11 425.596V427.036C1131.66 427.192 1131.09 427.27 1130.42 427.27ZM1133.73 413.698H1135.55V419.548C1136.38 418.576 1137.48 418.09 1138.86 418.09C1140.01 418.09 1140.87 418.396 1141.44 419.008C1142 419.62 1142.28 420.442 1142.28 421.474V427H1140.46V421.654C1140.46 420.25 1139.79 419.548 1138.45 419.548C1137.87 419.548 1137.33 419.686 1136.83 419.962C1136.34 420.226 1135.91 420.634 1135.55 421.186V427H1133.73V413.698ZM1149.19 427.27C1147.59 427.27 1146.34 426.874 1145.43 426.082C1144.53 425.278 1144.08 424.15 1144.08 422.698C1144.08 421.282 1144.48 420.16 1145.28 419.332C1146.1 418.504 1147.26 418.09 1148.76 418.09C1149.75 418.09 1150.6 418.282 1151.29 418.666C1151.99 419.038 1152.51 419.56 1152.86 420.232C1153.22 420.892 1153.4 421.648 1153.4 422.5V423.4H1145.8C1145.86 424.216 1146.21 424.828 1146.83 425.236C1147.47 425.632 1148.32 425.83 1149.4 425.83C1149.96 425.83 1150.51 425.782 1151.08 425.686C1151.64 425.578 1152.14 425.44 1152.57 425.272V426.73C1152.19 426.886 1151.68 427.012 1151.04 427.108C1150.42 427.216 1149.8 427.27 1149.19 427.27ZM1151.69 422.122C1151.67 421.306 1151.4 420.676 1150.88 420.232C1150.38 419.776 1149.66 419.548 1148.72 419.548C1147.81 419.548 1147.1 419.782 1146.6 420.25C1146.09 420.718 1145.83 421.342 1145.8 422.122H1151.69ZM820.17 444.36H821.934V445.638C822.822 444.606 824.022 444.09 825.534 444.09C826.398 444.09 827.172 444.282 827.856 444.666C828.552 445.05 829.092 445.59 829.476 446.286C829.872 446.97 830.07 447.768 830.07 448.68C830.07 449.58 829.872 450.378 829.476 451.074C829.092 451.77 828.558 452.31 827.874 452.694C827.19 453.078 826.41 453.27 825.534 453.27C824.814 453.27 824.142 453.15 823.518 452.91C822.894 452.67 822.384 452.316 821.988 451.848V456.942H820.17V444.36ZM825.12 451.83C825.708 451.83 826.236 451.704 826.704 451.452C827.184 451.188 827.556 450.816 827.82 450.336C828.096 449.856 828.234 449.304 828.234 448.68C828.234 448.056 828.096 447.51 827.82 447.042C827.556 446.562 827.184 446.196 826.704 445.944C826.236 445.68 825.708 445.548 825.12 445.548C824.388 445.548 823.74 445.74 823.176 446.124C822.624 446.508 822.228 447.036 821.988 447.708V449.652C822.192 450.312 822.582 450.84 823.158 451.236C823.734 451.632 824.388 451.83 825.12 451.83ZM834.602 453.27C833.558 453.27 832.718 453.006 832.082 452.478C831.458 451.938 831.146 451.212 831.146 450.3C831.146 449.34 831.446 448.602 832.046 448.086C832.658 447.558 833.522 447.294 834.638 447.294C835.826 447.294 836.834 447.534 837.662 448.014V447.564C837.662 446.88 837.452 446.376 837.032 446.052C836.624 445.716 835.976 445.548 835.088 445.548C834.56 445.548 834.044 445.602 833.54 445.71C833.048 445.806 832.604 445.944 832.208 446.124V444.648C832.568 444.48 833.036 444.348 833.612 444.252C834.188 444.144 834.746 444.09 835.286 444.09C836.714 444.09 837.77 444.408 838.454 445.044C839.15 445.668 839.498 446.538 839.498 447.654V453H837.788V452.028C837.416 452.436 836.972 452.748 836.456 452.964C835.952 453.168 835.334 453.27 834.602 453.27ZM835.052 451.884C835.628 451.884 836.15 451.77 836.618 451.542C837.086 451.314 837.434 450.996 837.662 450.588V449.418C836.882 448.914 836.012 448.662 835.052 448.662C834.356 448.662 833.834 448.8 833.486 449.076C833.15 449.34 832.982 449.748 832.982 450.3C832.982 451.356 833.672 451.884 835.052 451.884ZM842.691 456.564C842.043 456.564 841.503 456.498 841.071 456.366V454.944C841.383 455.064 841.767 455.124 842.223 455.124C842.643 455.124 842.973 455.016 843.213 454.8C843.453 454.596 843.669 454.26 843.861 453.792L844.275 452.784L840.495 444.36H842.367L845.247 451.002L847.929 444.36H849.801L845.913 453.972C845.553 454.872 845.121 455.526 844.617 455.934C844.125 456.354 843.483 456.564 842.691 456.564ZM851.33 444.36H853.058V445.602C853.466 445.098 853.928 444.72 854.444 444.468C854.96 444.216 855.494 444.09 856.046 444.09C856.742 444.09 857.294 444.21 857.702 444.45C858.11 444.678 858.41 445.032 858.602 445.512C858.986 445.044 859.454 444.69 860.006 444.45C860.57 444.21 861.134 444.09 861.698 444.09C862.754 444.09 863.516 444.36 863.984 444.9C864.452 445.428 864.686 446.214 864.686 447.258V453H862.922V447.492C862.922 446.784 862.79 446.286 862.526 445.998C862.262 445.698 861.812 445.548 861.176 445.548C860.264 445.548 859.52 445.944 858.944 446.736C858.968 446.916 858.98 447.21 858.98 447.618V453H857.216V447.492C857.216 446.784 857.096 446.286 856.856 445.998C856.616 445.698 856.184 445.548 855.56 445.548C854.648 445.548 853.832 446.064 853.112 447.096V453H851.33V444.36ZM871.601 453.27C870.005 453.27 868.751 452.874 867.839 452.082C866.939 451.278 866.489 450.15 866.489 448.698C866.489 447.282 866.891 446.16 867.695 445.332C868.511 444.504 869.669 444.09 871.169 444.09C872.165 444.09 873.011 444.282 873.707 444.666C874.403 445.038 874.925 445.56 875.273 446.232C875.633 446.892 875.813 447.648 875.813 448.5V449.4H868.217C868.277 450.216 868.619 450.828 869.243 451.236C869.879 451.632 870.737 451.83 871.817 451.83C872.369 451.83 872.927 451.782 873.491 451.686C874.055 451.578 874.553 451.44 874.985 451.272V452.73C874.601 452.886 874.091 453.012 873.455 453.108C872.831 453.216 872.213 453.27 871.601 453.27ZM874.103 448.122C874.079 447.306 873.809 446.676 873.293 446.232C872.789 445.776 872.069 445.548 871.133 445.548C870.221 445.548 869.513 445.782 869.009 446.25C868.505 446.718 868.241 447.342 868.217 448.122H874.103ZM877.71 444.36H879.474V445.602C879.882 445.086 880.38 444.708 880.968 444.468C881.568 444.216 882.192 444.09 882.84 444.09C883.992 444.09 884.85 444.396 885.414 445.008C885.978 445.62 886.26 446.442 886.26 447.474V453H884.442V447.654C884.442 446.25 883.77 445.548 882.426 445.548C881.85 445.548 881.31 445.686 880.806 445.962C880.314 446.226 879.888 446.634 879.528 447.186V453H877.71V444.36ZM891.743 453.27C890.867 453.27 890.189 453.018 889.709 452.514C889.241 452.01 889.007 451.296 889.007 450.372V445.764H887.693V444.36H889.007V441.768H890.843V444.36H892.967V445.764H890.843V450.246C890.843 450.822 890.951 451.23 891.167 451.47C891.395 451.71 891.803 451.83 892.391 451.83C892.739 451.83 893.087 451.752 893.435 451.596V453.036C892.979 453.192 892.415 453.27 891.743 453.27ZM905.804 453.27C904.94 453.27 904.16 453.084 903.464 452.712C902.78 452.328 902.24 451.794 901.844 451.11C901.46 450.414 901.268 449.61 901.268 448.698C901.268 447.798 901.46 447 901.844 446.304C902.24 445.608 902.78 445.068 903.464 444.684C904.16 444.288 904.94 444.09 905.804 444.09C907.364 444.09 908.546 444.564 909.35 445.512V439.698H911.168V453H909.404V451.74C908.924 452.268 908.396 452.658 907.82 452.91C907.256 453.15 906.584 453.27 905.804 453.27ZM906.218 451.83C906.962 451.83 907.61 451.638 908.162 451.254C908.726 450.858 909.122 450.33 909.35 449.67V447.726C909.146 447.066 908.756 446.538 908.18 446.142C907.616 445.746 906.962 445.548 906.218 445.548C905.63 445.548 905.096 445.68 904.616 445.944C904.148 446.208 903.776 446.58 903.5 447.06C903.236 447.54 903.104 448.086 903.104 448.698C903.104 449.31 903.236 449.856 903.5 450.336C903.776 450.816 904.148 451.188 904.616 451.452C905.096 451.704 905.63 451.83 906.218 451.83ZM918.173 453.27C916.577 453.27 915.323 452.874 914.411 452.082C913.511 451.278 913.061 450.15 913.061 448.698C913.061 447.282 913.463 446.16 914.267 445.332C915.083 444.504 916.241 444.09 917.741 444.09C918.737 444.09 919.583 444.282 920.279 444.666C920.975 445.038 921.497 445.56 921.845 446.232C922.205 446.892 922.385 447.648 922.385 448.5V449.4H914.789C914.849 450.216 915.191 450.828 915.815 451.236C916.451 451.632 917.309 451.83 918.389 451.83C918.941 451.83 919.499 451.782 920.063 451.686C920.627 451.578 921.125 451.44 921.557 451.272V452.73C921.173 452.886 920.663 453.012 920.027 453.108C919.403 453.216 918.785 453.27 918.173 453.27ZM920.675 448.122C920.651 447.306 920.381 446.676 919.865 446.232C919.361 445.776 918.641 445.548 917.705 445.548C916.793 445.548 916.085 445.782 915.581 446.25C915.077 446.718 914.813 447.342 914.789 448.122H920.675ZM927.612 453.27C926.736 453.27 926.058 453.018 925.578 452.514C925.11 452.01 924.876 451.296 924.876 450.372V445.764H923.562V444.36H924.876V441.768H926.712V444.36H928.836V445.764H926.712V450.246C926.712 450.822 926.82 451.23 927.036 451.47C927.264 451.71 927.672 451.83 928.26 451.83C928.608 451.83 928.956 451.752 929.304 451.596V453.036C928.848 453.192 928.284 453.27 927.612 453.27ZM933.756 453.27C932.712 453.27 931.872 453.006 931.236 452.478C930.612 451.938 930.3 451.212 930.3 450.3C930.3 449.34 930.6 448.602 931.2 448.086C931.812 447.558 932.676 447.294 933.792 447.294C934.98 447.294 935.988 447.534 936.816 448.014V447.564C936.816 446.88 936.606 446.376 936.186 446.052C935.778 445.716 935.13 445.548 934.242 445.548C933.714 445.548 933.198 445.602 932.694 445.71C932.202 445.806 931.758 445.944 931.362 446.124V444.648C931.722 444.48 932.19 444.348 932.766 444.252C933.342 444.144 933.9 444.09 934.44 444.09C935.868 444.09 936.924 444.408 937.608 445.044C938.304 445.668 938.652 446.538 938.652 447.654V453H936.942V452.028C936.57 452.436 936.126 452.748 935.61 452.964C935.106 453.168 934.488 453.27 933.756 453.27ZM934.206 451.884C934.782 451.884 935.304 451.77 935.772 451.542C936.24 451.314 936.588 450.996 936.816 450.588V449.418C936.036 448.914 935.166 448.662 934.206 448.662C933.51 448.662 932.988 448.8 932.64 449.076C932.304 449.34 932.136 449.748 932.136 450.3C932.136 451.356 932.826 451.884 934.206 451.884ZM941.881 442.668C941.581 442.668 941.329 442.566 941.125 442.362C940.921 442.158 940.819 441.906 940.819 441.606C940.819 441.306 940.921 441.054 941.125 440.85C941.329 440.646 941.581 440.544 941.881 440.544C942.193 440.544 942.451 440.646 942.655 440.85C942.871 441.054 942.979 441.306 942.979 441.606C942.979 441.906 942.871 442.158 942.655 442.362C942.451 442.566 942.193 442.668 941.881 442.668ZM940.963 444.36H942.817V453H940.963V444.36ZM945.229 439.698H947.047V453H945.229V439.698ZM952.491 453.27C951.891 453.27 951.255 453.192 950.583 453.036C949.911 452.892 949.383 452.694 948.999 452.442V450.894C949.467 451.17 950.007 451.398 950.619 451.578C951.231 451.746 951.825 451.83 952.401 451.83C953.049 451.83 953.523 451.752 953.823 451.596C954.123 451.44 954.273 451.188 954.273 450.84C954.273 450.576 954.201 450.366 954.057 450.21C953.925 450.042 953.691 449.892 953.355 449.76C953.031 449.628 952.539 449.472 951.879 449.292C951.171 449.088 950.607 448.884 950.187 448.68C949.779 448.464 949.467 448.194 949.251 447.87C949.047 447.546 948.945 447.126 948.945 446.61C948.945 445.782 949.269 445.158 949.917 444.738C950.577 444.306 951.459 444.09 952.563 444.09C953.139 444.09 953.703 444.144 954.255 444.252C954.807 444.36 955.251 444.51 955.587 444.702V446.214C955.239 446.01 954.807 445.848 954.291 445.728C953.787 445.608 953.271 445.548 952.743 445.548C952.107 445.548 951.621 445.626 951.285 445.782C950.949 445.938 950.781 446.214 950.781 446.61C950.781 446.862 950.853 447.066 950.997 447.222C951.141 447.378 951.369 447.516 951.681 447.636C952.005 447.744 952.515 447.888 953.211 448.068C954.303 448.368 955.059 448.722 955.479 449.13C955.911 449.538 956.127 450.102 956.127 450.822C956.127 451.566 955.821 452.16 955.209 452.604C954.597 453.048 953.691 453.27 952.491 453.27ZM967.689 453.27C966.645 453.27 965.805 453.006 965.169 452.478C964.545 451.938 964.233 451.212 964.233 450.3C964.233 449.34 964.533 448.602 965.133 448.086C965.745 447.558 966.609 447.294 967.725 447.294C968.913 447.294 969.921 447.534 970.749 448.014V447.564C970.749 446.88 970.539 446.376 970.119 446.052C969.711 445.716 969.063 445.548 968.175 445.548C967.647 445.548 967.131 445.602 966.627 445.71C966.135 445.806 965.691 445.944 965.295 446.124V444.648C965.655 444.48 966.123 444.348 966.699 444.252C967.275 444.144 967.833 444.09 968.373 444.09C969.801 444.09 970.857 444.408 971.541 445.044C972.237 445.668 972.585 446.538 972.585 447.654V453H970.875V452.028C970.503 452.436 970.059 452.748 969.543 452.964C969.039 453.168 968.421 453.27 967.689 453.27ZM968.139 451.884C968.715 451.884 969.237 451.77 969.705 451.542C970.173 451.314 970.521 450.996 970.749 450.588V449.418C969.969 448.914 969.099 448.662 968.139 448.662C967.443 448.662 966.921 448.8 966.573 449.076C966.237 449.34 966.069 449.748 966.069 450.3C966.069 451.356 966.759 451.884 968.139 451.884ZM974.751 444.36H976.515V445.908C976.875 445.38 977.379 444.99 978.027 444.738C978.687 444.486 979.449 444.36 980.313 444.36V445.782C979.389 445.782 978.597 445.932 977.937 446.232C977.277 446.532 976.821 447.006 976.569 447.654V453H974.751V444.36ZM986.058 453.27C984.462 453.27 983.208 452.874 982.296 452.082C981.396 451.278 980.946 450.15 980.946 448.698C980.946 447.282 981.348 446.16 982.152 445.332C982.968 444.504 984.126 444.09 985.626 444.09C986.622 444.09 987.468 444.282 988.164 444.666C988.86 445.038 989.382 445.56 989.73 446.232C990.09 446.892 990.27 447.648 990.27 448.5V449.4H982.674C982.734 450.216 983.076 450.828 983.7 451.236C984.336 451.632 985.194 451.83 986.274 451.83C986.826 451.83 987.384 451.782 987.948 451.686C988.512 451.578 989.01 451.44 989.442 451.272V452.73C989.058 452.886 988.548 453.012 987.912 453.108C987.288 453.216 986.67 453.27 986.058 453.27ZM988.56 448.122C988.536 447.306 988.266 446.676 987.75 446.232C987.246 445.776 986.526 445.548 985.59 445.548C984.678 445.548 983.97 445.782 983.466 446.25C982.962 446.718 982.698 447.342 982.674 448.122H988.56ZM1003.29 453.27C1002.32 453.27 1001.46 453.09 1000.72 452.73C999.987 452.358 999.411 451.83 998.991 451.146C998.583 450.45 998.379 449.634 998.379 448.698C998.379 447.774 998.583 446.964 998.991 446.268C999.399 445.572 999.975 445.038 1000.72 444.666C1001.46 444.282 1002.32 444.09 1003.29 444.09C1004.27 444.09 1005.12 444.282 1005.87 444.666C1006.61 445.038 1007.19 445.572 1007.6 446.268C1008.02 446.964 1008.23 447.774 1008.23 448.698C1008.23 449.634 1008.02 450.45 1007.6 451.146C1007.19 451.83 1006.61 452.358 1005.87 452.73C1005.12 453.09 1004.27 453.27 1003.29 453.27ZM1003.29 451.83C1004.23 451.83 1004.97 451.542 1005.53 450.966C1006.08 450.39 1006.35 449.634 1006.35 448.698C1006.35 447.726 1006.08 446.958 1005.53 446.394C1004.97 445.83 1004.23 445.548 1003.29 445.548C1002.36 445.548 1001.61 445.83 1001.06 446.394C1000.51 446.958 1000.23 447.726 1000.23 448.698C1000.23 449.634 1000.51 450.39 1001.06 450.966C1001.61 451.542 1002.36 451.83 1003.29 451.83ZM1013.55 453.27C1012.38 453.27 1011.5 452.958 1010.9 452.334C1010.31 451.71 1010.02 450.876 1010.02 449.832V444.36H1011.84V449.76C1011.84 451.14 1012.53 451.83 1013.91 451.83C1015.12 451.83 1016.07 451.284 1016.75 450.192V444.36H1018.57V453H1016.81V451.776C1016.4 452.292 1015.91 452.67 1015.35 452.91C1014.8 453.15 1014.2 453.27 1013.55 453.27ZM1024.14 453.27C1023.27 453.27 1022.59 453.018 1022.11 452.514C1021.64 452.01 1021.41 451.296 1021.41 450.372V445.764H1020.09V444.36H1021.41V441.768H1023.24V444.36H1025.37V445.764H1023.24V450.246C1023.24 450.822 1023.35 451.23 1023.57 451.47C1023.8 451.71 1024.2 451.83 1024.79 451.83C1025.14 451.83 1025.49 451.752 1025.84 451.596V453.036C1025.38 453.192 1024.82 453.27 1024.14 453.27ZM1038.58 453.27C1037.61 453.27 1036.75 453.09 1036.01 452.73C1035.28 452.358 1034.7 451.83 1034.28 451.146C1033.87 450.45 1033.67 449.634 1033.67 448.698C1033.67 447.774 1033.87 446.964 1034.28 446.268C1034.69 445.572 1035.26 445.038 1036.01 444.666C1036.75 444.282 1037.61 444.09 1038.58 444.09C1039.55 444.09 1040.41 444.282 1041.16 444.666C1041.9 445.038 1042.48 445.572 1042.88 446.268C1043.3 446.964 1043.51 447.774 1043.51 448.698C1043.51 449.634 1043.3 450.45 1042.88 451.146C1042.48 451.83 1041.9 452.358 1041.16 452.73C1040.41 453.09 1039.55 453.27 1038.58 453.27ZM1038.58 451.83C1039.52 451.83 1040.26 451.542 1040.81 450.966C1041.37 450.39 1041.64 449.634 1041.64 448.698C1041.64 447.726 1041.37 446.958 1040.81 446.394C1040.26 445.83 1039.52 445.548 1038.58 445.548C1037.65 445.548 1036.9 445.83 1036.35 446.394C1035.8 446.958 1035.52 447.726 1035.52 448.698C1035.52 449.634 1035.8 450.39 1036.35 450.966C1036.9 451.542 1037.65 451.83 1038.58 451.83ZM1045.36 445.764H1044.05V444.36H1045.36V442.668C1045.36 441.672 1045.64 440.916 1046.21 440.4C1046.77 439.872 1047.53 439.608 1048.47 439.608C1048.97 439.608 1049.43 439.68 1049.86 439.824V441.336C1049.52 441.18 1049.18 441.102 1048.82 441.102C1048.25 441.102 1047.84 441.24 1047.57 441.516C1047.31 441.78 1047.18 442.2 1047.18 442.776V444.36H1049.34V445.764H1047.18V453H1045.36V445.764ZM1061.77 453.27C1060.91 453.27 1060.13 453.084 1059.43 452.712C1058.75 452.328 1058.21 451.794 1057.81 451.11C1057.43 450.414 1057.23 449.61 1057.23 448.698C1057.23 447.798 1057.43 447 1057.81 446.304C1058.21 445.608 1058.75 445.068 1059.43 444.684C1060.13 444.288 1060.91 444.09 1061.77 444.09C1063.33 444.09 1064.51 444.564 1065.32 445.512V439.698H1067.13V453H1065.37V451.74C1064.89 452.268 1064.36 452.658 1063.79 452.91C1063.22 453.15 1062.55 453.27 1061.77 453.27ZM1062.18 451.83C1062.93 451.83 1063.58 451.638 1064.13 451.254C1064.69 450.858 1065.09 450.33 1065.32 449.67V447.726C1065.11 447.066 1064.72 446.538 1064.15 446.142C1063.58 445.746 1062.93 445.548 1062.18 445.548C1061.6 445.548 1061.06 445.68 1060.58 445.944C1060.11 446.208 1059.74 446.58 1059.47 447.06C1059.2 447.54 1059.07 448.086 1059.07 448.698C1059.07 449.31 1059.2 449.856 1059.47 450.336C1059.74 450.816 1060.11 451.188 1060.58 451.452C1061.06 451.704 1061.6 451.83 1062.18 451.83ZM1072.22 453.27C1071.17 453.27 1070.33 453.006 1069.7 452.478C1069.07 451.938 1068.76 451.212 1068.76 450.3C1068.76 449.34 1069.06 448.602 1069.66 448.086C1070.27 447.558 1071.14 447.294 1072.25 447.294C1073.44 447.294 1074.45 447.534 1075.28 448.014V447.564C1075.28 446.88 1075.07 446.376 1074.65 446.052C1074.24 445.716 1073.59 445.548 1072.7 445.548C1072.18 445.548 1071.66 445.602 1071.16 445.71C1070.66 445.806 1070.22 445.944 1069.82 446.124V444.648C1070.18 444.48 1070.65 444.348 1071.23 444.252C1071.8 444.144 1072.36 444.09 1072.9 444.09C1074.33 444.09 1075.39 444.408 1076.07 445.044C1076.77 445.668 1077.11 446.538 1077.11 447.654V453H1075.4V452.028C1075.03 452.436 1074.59 452.748 1074.07 452.964C1073.57 453.168 1072.95 453.27 1072.22 453.27ZM1072.67 451.884C1073.24 451.884 1073.77 451.77 1074.23 451.542C1074.7 451.314 1075.05 450.996 1075.28 450.588V449.418C1074.5 448.914 1073.63 448.662 1072.67 448.662C1071.97 448.662 1071.45 448.8 1071.1 449.076C1070.77 449.34 1070.6 449.748 1070.6 450.3C1070.6 451.356 1071.29 451.884 1072.67 451.884ZM1082.15 453.27C1081.28 453.27 1080.6 453.018 1080.12 452.514C1079.65 452.01 1079.42 451.296 1079.42 450.372V445.764H1078.1V444.36H1079.42V441.768H1081.25V444.36H1083.38V445.764H1081.25V450.246C1081.25 450.822 1081.36 451.23 1081.58 451.47C1081.81 451.71 1082.21 451.83 1082.8 451.83C1083.15 451.83 1083.5 451.752 1083.85 451.596V453.036C1083.39 453.192 1082.83 453.27 1082.15 453.27ZM1090.22 453.27C1088.62 453.27 1087.37 452.874 1086.46 452.082C1085.56 451.278 1085.11 450.15 1085.11 448.698C1085.11 447.282 1085.51 446.16 1086.31 445.332C1087.13 444.504 1088.29 444.09 1089.79 444.09C1090.78 444.09 1091.63 444.282 1092.32 444.666C1093.02 445.038 1093.54 445.56 1093.89 446.232C1094.25 446.892 1094.43 447.648 1094.43 448.5V449.4H1086.83C1086.89 450.216 1087.24 450.828 1087.86 451.236C1088.5 451.632 1089.35 451.83 1090.43 451.83C1090.99 451.83 1091.54 451.782 1092.11 451.686C1092.67 451.578 1093.17 451.44 1093.6 451.272V452.73C1093.22 452.886 1092.71 453.012 1092.07 453.108C1091.45 453.216 1090.83 453.27 1090.22 453.27ZM1092.72 448.122C1092.7 447.306 1092.43 446.676 1091.91 446.232C1091.41 445.776 1090.69 445.548 1089.75 445.548C1088.84 445.548 1088.13 445.782 1087.63 446.25C1087.12 446.718 1086.86 447.342 1086.83 448.122H1092.72ZM1097.43 452.046H1099.33L1097.62 455.664H1095.97L1097.43 452.046ZM1109.64 456.564C1108.99 456.564 1108.45 456.498 1108.02 456.366V454.944C1108.33 455.064 1108.71 455.124 1109.17 455.124C1109.59 455.124 1109.92 455.016 1110.16 454.8C1110.4 454.596 1110.62 454.26 1110.81 453.792L1111.22 452.784L1107.44 444.36H1109.31L1112.19 451.002L1114.88 444.36H1116.75L1112.86 453.972C1112.5 454.872 1112.07 455.526 1111.56 455.934C1111.07 456.354 1110.43 456.564 1109.64 456.564ZM1121.65 453.27C1120.68 453.27 1119.82 453.09 1119.08 452.73C1118.35 452.358 1117.77 451.83 1117.35 451.146C1116.94 450.45 1116.74 449.634 1116.74 448.698C1116.74 447.774 1116.94 446.964 1117.35 446.268C1117.76 445.572 1118.33 445.038 1119.08 444.666C1119.82 444.282 1120.68 444.09 1121.65 444.09C1122.62 444.09 1123.48 444.282 1124.23 444.666C1124.97 445.038 1125.55 445.572 1125.95 446.268C1126.37 446.964 1126.58 447.774 1126.58 448.698C1126.58 449.634 1126.37 450.45 1125.95 451.146C1125.55 451.83 1124.97 452.358 1124.23 452.73C1123.48 453.09 1122.62 453.27 1121.65 453.27ZM1121.65 451.83C1122.59 451.83 1123.33 451.542 1123.88 450.966C1124.44 450.39 1124.71 449.634 1124.71 448.698C1124.71 447.726 1124.44 446.958 1123.88 446.394C1123.33 445.83 1122.59 445.548 1121.65 445.548C1120.72 445.548 1119.97 445.83 1119.42 446.394C1118.87 446.958 1118.59 447.726 1118.59 448.698C1118.59 449.634 1118.87 450.39 1119.42 450.966C1119.97 451.542 1120.72 451.83 1121.65 451.83ZM1131.91 453.27C1130.74 453.27 1129.86 452.958 1129.26 452.334C1128.67 451.71 1128.38 450.876 1128.38 449.832V444.36H1130.2V449.76C1130.2 451.14 1130.89 451.83 1132.27 451.83C1133.48 451.83 1134.43 451.284 1135.11 450.192V444.36H1136.93V453H1135.17V451.776C1134.76 452.292 1134.27 452.67 1133.71 452.91C1133.16 453.15 1132.56 453.27 1131.91 453.27ZM1145.38 444.36H1147.24L1149.18 450.768L1151.11 444.36H1152.75L1154.67 450.768L1156.62 444.36H1158.49L1155.68 453H1153.93L1151.94 446.556L1149.94 453H1148.17L1145.38 444.36ZM1161.45 442.668C1161.15 442.668 1160.89 442.566 1160.69 442.362C1160.49 442.158 1160.38 441.906 1160.38 441.606C1160.38 441.306 1160.49 441.054 1160.69 440.85C1160.89 440.646 1161.15 440.544 1161.45 440.544C1161.76 440.544 1162.02 440.646 1162.22 440.85C1162.44 441.054 1162.54 441.306 1162.54 441.606C1162.54 441.906 1162.44 442.158 1162.22 442.362C1162.02 442.566 1161.76 442.668 1161.45 442.668ZM1160.53 444.36H1162.38V453H1160.53V444.36ZM1164.79 439.698H1166.61V453H1164.79V439.698ZM1168.87 439.698H1170.69V453H1168.87V439.698ZM1184.88 453.27C1184.1 453.27 1183.42 453.15 1182.85 452.91C1182.28 452.658 1181.76 452.268 1181.28 451.74V453H1179.52V439.698H1181.34V445.512C1181.73 445.044 1182.24 444.69 1182.87 444.45C1183.49 444.21 1184.16 444.09 1184.88 444.09C1185.75 444.09 1186.52 444.288 1187.2 444.684C1187.9 445.068 1188.44 445.608 1188.82 446.304C1189.22 447 1189.42 447.798 1189.42 448.698C1189.42 449.61 1189.22 450.414 1188.82 451.11C1188.44 451.794 1187.9 452.328 1187.2 452.712C1186.52 453.084 1185.75 453.27 1184.88 453.27ZM1184.47 451.83C1185.06 451.83 1185.58 451.704 1186.05 451.452C1186.53 451.188 1186.9 450.816 1187.17 450.336C1187.44 449.856 1187.58 449.31 1187.58 448.698C1187.58 448.086 1187.44 447.54 1187.17 447.06C1186.9 446.58 1186.53 446.208 1186.05 445.944C1185.58 445.68 1185.06 445.548 1184.47 445.548C1183.74 445.548 1183.08 445.746 1182.51 446.142C1181.93 446.538 1181.54 447.066 1181.34 447.726V449.67C1181.56 450.33 1181.95 450.858 1182.51 451.254C1183.07 451.638 1183.72 451.83 1184.47 451.83ZM1196.06 453.27C1194.47 453.27 1193.21 452.874 1192.3 452.082C1191.4 451.278 1190.95 450.15 1190.95 448.698C1190.95 447.282 1191.35 446.16 1192.16 445.332C1192.97 444.504 1194.13 444.09 1195.63 444.09C1196.63 444.09 1197.47 444.282 1198.17 444.666C1198.87 445.038 1199.39 445.56 1199.74 446.232C1200.1 446.892 1200.28 447.648 1200.28 448.5V449.4H1192.68C1192.74 450.216 1193.08 450.828 1193.71 451.236C1194.34 451.632 1195.2 451.83 1196.28 451.83C1196.83 451.83 1197.39 451.782 1197.95 451.686C1198.52 451.578 1199.02 451.44 1199.45 451.272V452.73C1199.06 452.886 1198.55 453.012 1197.92 453.108C1197.29 453.216 1196.68 453.27 1196.06 453.27ZM1198.57 448.122C1198.54 447.306 1198.27 446.676 1197.76 446.232C1197.25 445.776 1196.53 445.548 1195.6 445.548C1194.68 445.548 1193.98 445.782 1193.47 446.25C1192.97 446.718 1192.7 447.342 1192.68 448.122H1198.57ZM820.17 470.36H821.934V471.908C822.294 471.38 822.798 470.99 823.446 470.738C824.106 470.486 824.868 470.36 825.732 470.36V471.782C824.808 471.782 824.016 471.932 823.356 472.232C822.696 472.532 822.24 473.006 821.988 473.654V479H820.17V470.36ZM831.477 479.27C829.881 479.27 828.627 478.874 827.715 478.082C826.815 477.278 826.365 476.15 826.365 474.698C826.365 473.282 826.767 472.16 827.571 471.332C828.387 470.504 829.545 470.09 831.045 470.09C832.041 470.09 832.887 470.282 833.583 470.666C834.279 471.038 834.801 471.56 835.149 472.232C835.509 472.892 835.689 473.648 835.689 474.5V475.4H828.093C828.153 476.216 828.495 476.828 829.119 477.236C829.755 477.632 830.613 477.83 831.693 477.83C832.245 477.83 832.803 477.782 833.367 477.686C833.931 477.578 834.429 477.44 834.861 477.272V478.73C834.477 478.886 833.967 479.012 833.331 479.108C832.707 479.216 832.089 479.27 831.477 479.27ZM833.979 474.122C833.955 473.306 833.685 472.676 833.169 472.232C832.665 471.776 831.945 471.548 831.009 471.548C830.097 471.548 829.389 471.782 828.885 472.25C828.381 472.718 828.117 473.342 828.093 474.122H833.979ZM837.586 470.36H839.314V471.602C839.722 471.098 840.184 470.72 840.7 470.468C841.216 470.216 841.75 470.09 842.302 470.09C842.998 470.09 843.55 470.21 843.958 470.45C844.366 470.678 844.666 471.032 844.858 471.512C845.242 471.044 845.71 470.69 846.262 470.45C846.826 470.21 847.39 470.09 847.954 470.09C849.01 470.09 849.772 470.36 850.24 470.9C850.708 471.428 850.942 472.214 850.942 473.258V479H849.178V473.492C849.178 472.784 849.046 472.286 848.782 471.998C848.518 471.698 848.068 471.548 847.432 471.548C846.52 471.548 845.776 471.944 845.2 472.736C845.224 472.916 845.236 473.21 845.236 473.618V479H843.472V473.492C843.472 472.784 843.352 472.286 843.112 471.998C842.872 471.698 842.44 471.548 841.816 471.548C840.904 471.548 840.088 472.064 839.368 473.096V479H837.586V470.36ZM857.395 479.27C856.423 479.27 855.565 479.09 854.821 478.73C854.089 478.358 853.513 477.83 853.093 477.146C852.685 476.45 852.481 475.634 852.481 474.698C852.481 473.774 852.685 472.964 853.093 472.268C853.501 471.572 854.077 471.038 854.821 470.666C855.565 470.282 856.423 470.09 857.395 470.09C858.367 470.09 859.225 470.282 859.969 470.666C860.713 471.038 861.289 471.572 861.697 472.268C862.117 472.964 862.327 473.774 862.327 474.698C862.327 475.634 862.117 476.45 861.697 477.146C861.289 477.83 860.713 478.358 859.969 478.73C859.225 479.09 858.367 479.27 857.395 479.27ZM857.395 477.83C858.331 477.83 859.075 477.542 859.627 476.966C860.179 476.39 860.455 475.634 860.455 474.698C860.455 473.726 860.179 472.958 859.627 472.394C859.075 471.83 858.331 471.548 857.395 471.548C856.459 471.548 855.715 471.83 855.163 472.394C854.611 472.958 854.335 473.726 854.335 474.698C854.335 475.634 854.611 476.39 855.163 476.966C855.715 477.542 856.459 477.83 857.395 477.83ZM862.675 470.36H864.601L867.139 476.57L869.677 470.36H871.603L867.931 479H866.347L862.675 470.36ZM877.523 479.27C875.927 479.27 874.673 478.874 873.761 478.082C872.861 477.278 872.411 476.15 872.411 474.698C872.411 473.282 872.813 472.16 873.617 471.332C874.433 470.504 875.591 470.09 877.091 470.09C878.087 470.09 878.933 470.282 879.629 470.666C880.325 471.038 880.847 471.56 881.195 472.232C881.555 472.892 881.735 473.648 881.735 474.5V475.4H874.139C874.199 476.216 874.541 476.828 875.165 477.236C875.801 477.632 876.659 477.83 877.739 477.83C878.291 477.83 878.849 477.782 879.413 477.686C879.977 477.578 880.475 477.44 880.907 477.272V478.73C880.523 478.886 880.013 479.012 879.377 479.108C878.753 479.216 878.135 479.27 877.523 479.27ZM880.025 474.122C880.001 473.306 879.731 472.676 879.215 472.232C878.711 471.776 877.991 471.548 877.055 471.548C876.143 471.548 875.435 471.782 874.931 472.25C874.427 472.718 874.163 473.342 874.139 474.122H880.025ZM887.808 479.27C886.944 479.27 886.164 479.084 885.468 478.712C884.784 478.328 884.244 477.794 883.848 477.11C883.464 476.414 883.272 475.61 883.272 474.698C883.272 473.798 883.464 473 883.848 472.304C884.244 471.608 884.784 471.068 885.468 470.684C886.164 470.288 886.944 470.09 887.808 470.09C889.368 470.09 890.55 470.564 891.354 471.512V465.698H893.172V479H891.408V477.74C890.928 478.268 890.4 478.658 889.824 478.91C889.26 479.15 888.588 479.27 887.808 479.27ZM888.222 477.83C888.966 477.83 889.614 477.638 890.166 477.254C890.73 476.858 891.126 476.33 891.354 475.67V473.726C891.15 473.066 890.76 472.538 890.184 472.142C889.62 471.746 888.966 471.548 888.222 471.548C887.634 471.548 887.1 471.68 886.62 471.944C886.152 472.208 885.78 472.58 885.504 473.06C885.24 473.54 885.108 474.086 885.108 474.698C885.108 475.31 885.24 475.856 885.504 476.336C885.78 476.816 886.152 477.188 886.62 477.452C887.1 477.704 887.634 477.83 888.222 477.83ZM902.591 471.764H901.277V470.36H902.591V468.668C902.591 467.672 902.873 466.916 903.437 466.4C904.001 465.872 904.757 465.608 905.705 465.608C906.197 465.608 906.659 465.68 907.091 465.824V467.336C906.755 467.18 906.407 467.102 906.047 467.102C905.483 467.102 905.069 467.24 904.805 467.516C904.541 467.78 904.409 468.2 904.409 468.776V470.36H906.569V471.764H904.409V479H902.591V471.764ZM908.165 470.36H909.929V471.908C910.289 471.38 910.793 470.99 911.441 470.738C912.101 470.486 912.863 470.36 913.727 470.36V471.782C912.803 471.782 912.011 471.932 911.351 472.232C910.691 472.532 910.235 473.006 909.983 473.654V479H908.165V470.36ZM919.554 479.27C918.582 479.27 917.724 479.09 916.98 478.73C916.248 478.358 915.672 477.83 915.252 477.146C914.844 476.45 914.64 475.634 914.64 474.698C914.64 473.774 914.844 472.964 915.252 472.268C915.66 471.572 916.236 471.038 916.98 470.666C917.724 470.282 918.582 470.09 919.554 470.09C920.526 470.09 921.384 470.282 922.128 470.666C922.872 471.038 923.448 471.572 923.856 472.268C924.276 472.964 924.486 473.774 924.486 474.698C924.486 475.634 924.276 476.45 923.856 477.146C923.448 477.83 922.872 478.358 922.128 478.73C921.384 479.09 920.526 479.27 919.554 479.27ZM919.554 477.83C920.49 477.83 921.234 477.542 921.786 476.966C922.338 476.39 922.614 475.634 922.614 474.698C922.614 473.726 922.338 472.958 921.786 472.394C921.234 471.83 920.49 471.548 919.554 471.548C918.618 471.548 917.874 471.83 917.322 472.394C916.77 472.958 916.494 473.726 916.494 474.698C916.494 475.634 916.77 476.39 917.322 476.966C917.874 477.542 918.618 477.83 919.554 477.83ZM926.371 470.36H928.099V471.602C928.507 471.098 928.969 470.72 929.485 470.468C930.001 470.216 930.535 470.09 931.087 470.09C931.783 470.09 932.335 470.21 932.743 470.45C933.151 470.678 933.451 471.032 933.643 471.512C934.027 471.044 934.495 470.69 935.047 470.45C935.611 470.21 936.175 470.09 936.739 470.09C937.795 470.09 938.557 470.36 939.025 470.9C939.493 471.428 939.727 472.214 939.727 473.258V479H937.963V473.492C937.963 472.784 937.831 472.286 937.567 471.998C937.303 471.698 936.853 471.548 936.217 471.548C935.305 471.548 934.561 471.944 933.985 472.736C934.009 472.916 934.021 473.21 934.021 473.618V479H932.257V473.492C932.257 472.784 932.137 472.286 931.897 471.998C931.657 471.698 931.225 471.548 930.601 471.548C929.689 471.548 928.873 472.064 928.153 473.096V479H926.371V470.36ZM951.793 479.27C950.917 479.27 950.239 479.018 949.759 478.514C949.291 478.01 949.057 477.296 949.057 476.372V471.764H947.743V470.36H949.057V467.768H950.893V470.36H953.017V471.764H950.893V476.246C950.893 476.822 951.001 477.23 951.217 477.47C951.445 477.71 951.853 477.83 952.441 477.83C952.789 477.83 953.137 477.752 953.485 477.596V479.036C953.029 479.192 952.465 479.27 951.793 479.27ZM955.105 465.698H956.923V471.548C957.751 470.576 958.855 470.09 960.235 470.09C961.387 470.09 962.245 470.396 962.809 471.008C963.373 471.62 963.655 472.442 963.655 473.474V479H961.837V473.654C961.837 472.25 961.165 471.548 959.821 471.548C959.245 471.548 958.705 471.686 958.201 471.962C957.709 472.226 957.283 472.634 956.923 473.186V479H955.105V465.698ZM970.56 479.27C968.964 479.27 967.71 478.874 966.798 478.082C965.898 477.278 965.448 476.15 965.448 474.698C965.448 473.282 965.85 472.16 966.654 471.332C967.47 470.504 968.628 470.09 970.128 470.09C971.124 470.09 971.97 470.282 972.666 470.666C973.362 471.038 973.884 471.56 974.232 472.232C974.592 472.892 974.772 473.648 974.772 474.5V475.4H967.176C967.236 476.216 967.578 476.828 968.202 477.236C968.838 477.632 969.696 477.83 970.776 477.83C971.328 477.83 971.886 477.782 972.45 477.686C973.014 477.578 973.512 477.44 973.944 477.272V478.73C973.56 478.886 973.05 479.012 972.414 479.108C971.79 479.216 971.172 479.27 970.56 479.27ZM973.062 474.122C973.038 473.306 972.768 472.676 972.252 472.232C971.748 471.776 971.028 471.548 970.092 471.548C969.18 471.548 968.472 471.782 967.968 472.25C967.464 472.718 967.2 473.342 967.176 474.122H973.062ZM983.242 470.36H985.006V471.908C985.366 471.38 985.87 470.99 986.518 470.738C987.178 470.486 987.94 470.36 988.804 470.36V471.782C987.88 471.782 987.088 471.932 986.428 472.232C985.768 472.532 985.312 473.006 985.06 473.654V479H983.242V470.36ZM994.548 479.27C992.952 479.27 991.698 478.874 990.786 478.082C989.886 477.278 989.436 476.15 989.436 474.698C989.436 473.282 989.838 472.16 990.642 471.332C991.458 470.504 992.616 470.09 994.116 470.09C995.112 470.09 995.958 470.282 996.654 470.666C997.35 471.038 997.872 471.56 998.22 472.232C998.58 472.892 998.76 473.648 998.76 474.5V475.4H991.164C991.224 476.216 991.566 476.828 992.19 477.236C992.826 477.632 993.684 477.83 994.764 477.83C995.316 477.83 995.874 477.782 996.438 477.686C997.002 477.578 997.5 477.44 997.932 477.272V478.73C997.548 478.886 997.038 479.012 996.402 479.108C995.778 479.216 995.16 479.27 994.548 479.27ZM997.05 474.122C997.026 473.306 996.756 472.676 996.24 472.232C995.736 471.776 995.016 471.548 994.08 471.548C993.168 471.548 992.46 471.782 991.956 472.25C991.452 472.718 991.188 473.342 991.164 474.122H997.05ZM1000.66 465.698H1002.48V479H1000.66V465.698ZM1009.49 479.27C1007.89 479.27 1006.64 478.874 1005.72 478.082C1004.82 477.278 1004.37 476.15 1004.37 474.698C1004.37 473.282 1004.78 472.16 1005.58 471.332C1006.4 470.504 1007.55 470.09 1009.05 470.09C1010.05 470.09 1010.9 470.282 1011.59 470.666C1012.29 471.038 1012.81 471.56 1013.16 472.232C1013.52 472.892 1013.7 473.648 1013.7 474.5V475.4H1006.1C1006.16 476.216 1006.5 476.828 1007.13 477.236C1007.76 477.632 1008.62 477.83 1009.7 477.83C1010.25 477.83 1010.81 477.782 1011.38 477.686C1011.94 477.578 1012.44 477.44 1012.87 477.272V478.73C1012.49 478.886 1011.98 479.012 1011.34 479.108C1010.72 479.216 1010.1 479.27 1009.49 479.27ZM1011.99 474.122C1011.96 473.306 1011.69 472.676 1011.18 472.232C1010.67 471.776 1009.95 471.548 1009.02 471.548C1008.11 471.548 1007.4 471.782 1006.89 472.25C1006.39 472.718 1006.13 473.342 1006.1 474.122H1011.99ZM1014.51 470.36H1016.44L1018.98 476.57L1021.52 470.36H1023.44L1019.77 479H1018.19L1014.51 470.36ZM1027.62 479.27C1026.57 479.27 1025.73 479.006 1025.1 478.478C1024.47 477.938 1024.16 477.212 1024.16 476.3C1024.16 475.34 1024.46 474.602 1025.06 474.086C1025.67 473.558 1026.54 473.294 1027.65 473.294C1028.84 473.294 1029.85 473.534 1030.68 474.014V473.564C1030.68 472.88 1030.47 472.376 1030.05 472.052C1029.64 471.716 1028.99 471.548 1028.1 471.548C1027.58 471.548 1027.06 471.602 1026.56 471.71C1026.06 471.806 1025.62 471.944 1025.22 472.124V470.648C1025.58 470.48 1026.05 470.348 1026.63 470.252C1027.2 470.144 1027.76 470.09 1028.3 470.09C1029.73 470.09 1030.79 470.408 1031.47 471.044C1032.17 471.668 1032.51 472.538 1032.51 473.654V479H1030.8V478.028C1030.43 478.436 1029.99 478.748 1029.47 478.964C1028.97 479.168 1028.35 479.27 1027.62 479.27ZM1028.07 477.884C1028.64 477.884 1029.17 477.77 1029.63 477.542C1030.1 477.314 1030.45 476.996 1030.68 476.588V475.418C1029.9 474.914 1029.03 474.662 1028.07 474.662C1027.37 474.662 1026.85 474.8 1026.5 475.076C1026.17 475.34 1026 475.748 1026 476.3C1026 477.356 1026.69 477.884 1028.07 477.884ZM1034.68 470.36H1036.44V471.602C1036.85 471.086 1037.35 470.708 1037.94 470.468C1038.54 470.216 1039.16 470.09 1039.81 470.09C1040.96 470.09 1041.82 470.396 1042.38 471.008C1042.95 471.62 1043.23 472.442 1043.23 473.474V479H1041.41V473.654C1041.41 472.25 1040.74 471.548 1039.4 471.548C1038.82 471.548 1038.28 471.686 1037.78 471.962C1037.28 472.226 1036.86 472.634 1036.5 473.186V479H1034.68V470.36ZM1048.71 479.27C1047.84 479.27 1047.16 479.018 1046.68 478.514C1046.21 478.01 1045.98 477.296 1045.98 476.372V471.764H1044.66V470.36H1045.98V467.768H1047.81V470.36H1049.94V471.764H1047.81V476.246C1047.81 476.822 1047.92 477.23 1048.14 477.47C1048.37 477.71 1048.77 477.83 1049.36 477.83C1049.71 477.83 1050.06 477.752 1050.41 477.596V479.036C1049.95 479.192 1049.39 479.27 1048.71 479.27ZM1058.6 470.36H1060.36V471.638C1061.25 470.606 1062.45 470.09 1063.96 470.09C1064.83 470.09 1065.6 470.282 1066.28 470.666C1066.98 471.05 1067.52 471.59 1067.9 472.286C1068.3 472.97 1068.5 473.768 1068.5 474.68C1068.5 475.58 1068.3 476.378 1067.9 477.074C1067.52 477.77 1066.99 478.31 1066.3 478.694C1065.62 479.078 1064.84 479.27 1063.96 479.27C1063.24 479.27 1062.57 479.15 1061.95 478.91C1061.32 478.67 1060.81 478.316 1060.42 477.848V482.942H1058.6V470.36ZM1063.55 477.83C1064.14 477.83 1064.66 477.704 1065.13 477.452C1065.61 477.188 1065.98 476.816 1066.25 476.336C1066.52 475.856 1066.66 475.304 1066.66 474.68C1066.66 474.056 1066.52 473.51 1066.25 473.042C1065.98 472.562 1065.61 472.196 1065.13 471.944C1064.66 471.68 1064.14 471.548 1063.55 471.548C1062.82 471.548 1062.17 471.74 1061.6 472.124C1061.05 472.508 1060.66 473.036 1060.42 473.708V475.652C1060.62 476.312 1061.01 476.84 1061.59 477.236C1062.16 477.632 1062.82 477.83 1063.55 477.83ZM1073.03 479.27C1071.99 479.27 1071.15 479.006 1070.51 478.478C1069.89 477.938 1069.57 477.212 1069.57 476.3C1069.57 475.34 1069.87 474.602 1070.47 474.086C1071.09 473.558 1071.95 473.294 1073.07 473.294C1074.25 473.294 1075.26 473.534 1076.09 474.014V473.564C1076.09 472.88 1075.88 472.376 1075.46 472.052C1075.05 471.716 1074.4 471.548 1073.52 471.548C1072.99 471.548 1072.47 471.602 1071.97 471.71C1071.48 471.806 1071.03 471.944 1070.64 472.124V470.648C1071 470.48 1071.46 470.348 1072.04 470.252C1072.62 470.144 1073.17 470.09 1073.71 470.09C1075.14 470.09 1076.2 470.408 1076.88 471.044C1077.58 471.668 1077.93 472.538 1077.93 473.654V479H1076.22V478.028C1075.84 478.436 1075.4 478.748 1074.88 478.964C1074.38 479.168 1073.76 479.27 1073.03 479.27ZM1073.48 477.884C1074.06 477.884 1074.58 477.77 1075.05 477.542C1075.51 477.314 1075.86 476.996 1076.09 476.588V475.418C1075.31 474.914 1074.44 474.662 1073.48 474.662C1072.78 474.662 1072.26 474.8 1071.91 475.076C1071.58 475.34 1071.41 475.748 1071.41 476.3C1071.41 477.356 1072.1 477.884 1073.48 477.884ZM1081.15 468.668C1080.85 468.668 1080.6 468.566 1080.4 468.362C1080.19 468.158 1080.09 467.906 1080.09 467.606C1080.09 467.306 1080.19 467.054 1080.4 466.85C1080.6 466.646 1080.85 466.544 1081.15 466.544C1081.47 466.544 1081.72 466.646 1081.93 466.85C1082.14 467.054 1082.25 467.306 1082.25 467.606C1082.25 467.906 1082.14 468.158 1081.93 468.362C1081.72 468.566 1081.47 468.668 1081.15 468.668ZM1080.24 470.36H1082.09V479H1080.24V470.36ZM1088.68 479.27C1087.81 479.27 1087.03 479.084 1086.34 478.712C1085.65 478.328 1085.11 477.794 1084.72 477.11C1084.33 476.414 1084.14 475.61 1084.14 474.698C1084.14 473.798 1084.33 473 1084.72 472.304C1085.11 471.608 1085.65 471.068 1086.34 470.684C1087.03 470.288 1087.81 470.09 1088.68 470.09C1090.24 470.09 1091.42 470.564 1092.22 471.512V465.698H1094.04V479H1092.28V477.74C1091.8 478.268 1091.27 478.658 1090.69 478.91C1090.13 479.15 1089.46 479.27 1088.68 479.27ZM1089.09 477.83C1089.84 477.83 1090.48 477.638 1091.04 477.254C1091.6 476.858 1092 476.33 1092.22 475.67V473.726C1092.02 473.066 1091.63 472.538 1091.05 472.142C1090.49 471.746 1089.84 471.548 1089.09 471.548C1088.5 471.548 1087.97 471.68 1087.49 471.944C1087.02 472.208 1086.65 472.58 1086.37 473.06C1086.11 473.54 1085.98 474.086 1085.98 474.698C1085.98 475.31 1086.11 475.856 1086.37 476.336C1086.65 476.816 1087.02 477.188 1087.49 477.452C1087.97 477.704 1088.5 477.83 1089.09 477.83ZM1107.38 483.14C1106.8 483.14 1106.22 483.092 1105.66 482.996C1105.1 482.9 1104.64 482.762 1104.25 482.582V481.088C1105.15 481.496 1106.2 481.7 1107.38 481.7C1108.5 481.7 1109.31 481.454 1109.81 480.962C1110.33 480.482 1110.59 479.75 1110.59 478.766V477.848C1109.8 478.796 1108.63 479.27 1107.1 479.27C1106.22 479.27 1105.43 479.078 1104.74 478.694C1104.04 478.31 1103.5 477.77 1103.1 477.074C1102.7 476.378 1102.51 475.58 1102.51 474.68C1102.51 473.768 1102.7 472.97 1103.08 472.286C1103.48 471.59 1104.02 471.05 1104.7 470.666C1105.4 470.282 1106.18 470.09 1107.04 470.09C1107.85 470.09 1108.52 470.21 1109.08 470.45C1109.64 470.678 1110.16 471.062 1110.64 471.602V470.36H1112.41V478.568C1112.41 480.044 1111.99 481.172 1111.16 481.952C1110.35 482.744 1109.09 483.14 1107.38 483.14ZM1107.46 477.83C1108.2 477.83 1108.85 477.632 1109.42 477.236C1109.99 476.84 1110.38 476.312 1110.59 475.652V473.708C1110.36 473.036 1109.96 472.508 1109.4 472.124C1108.85 471.74 1108.2 471.548 1107.46 471.548C1106.87 471.548 1106.33 471.68 1105.85 471.944C1105.39 472.196 1105.01 472.562 1104.74 473.042C1104.47 473.522 1104.34 474.068 1104.34 474.68C1104.34 475.304 1104.47 475.856 1104.74 476.336C1105.01 476.804 1105.39 477.17 1105.85 477.434C1106.33 477.698 1106.87 477.83 1107.46 477.83ZM1114.66 470.36H1116.42V471.908C1116.78 471.38 1117.29 470.99 1117.94 470.738C1118.6 470.486 1119.36 470.36 1120.22 470.36V471.782C1119.3 471.782 1118.51 471.932 1117.85 472.232C1117.19 472.532 1116.73 473.006 1116.48 473.654V479H1114.66V470.36ZM1126.05 479.27C1125.08 479.27 1124.22 479.09 1123.47 478.73C1122.74 478.358 1122.17 477.83 1121.75 477.146C1121.34 476.45 1121.13 475.634 1121.13 474.698C1121.13 473.774 1121.34 472.964 1121.75 472.268C1122.15 471.572 1122.73 471.038 1123.47 470.666C1124.22 470.282 1125.08 470.09 1126.05 470.09C1127.02 470.09 1127.88 470.282 1128.62 470.666C1129.37 471.038 1129.94 471.572 1130.35 472.268C1130.77 472.964 1130.98 473.774 1130.98 474.698C1130.98 475.634 1130.77 476.45 1130.35 477.146C1129.94 477.83 1129.37 478.358 1128.62 478.73C1127.88 479.09 1127.02 479.27 1126.05 479.27ZM1126.05 477.83C1126.98 477.83 1127.73 477.542 1128.28 476.966C1128.83 476.39 1129.11 475.634 1129.11 474.698C1129.11 473.726 1128.83 472.958 1128.28 472.394C1127.73 471.83 1126.98 471.548 1126.05 471.548C1125.11 471.548 1124.37 471.83 1123.82 472.394C1123.26 472.958 1122.99 473.726 1122.99 474.698C1122.99 475.634 1123.26 476.39 1123.82 476.966C1124.37 477.542 1125.11 477.83 1126.05 477.83ZM1136.3 479.27C1135.14 479.27 1134.26 478.958 1133.66 478.334C1133.07 477.71 1132.78 476.876 1132.78 475.832V470.36H1134.59V475.76C1134.59 477.14 1135.28 477.83 1136.66 477.83C1137.88 477.83 1138.82 477.284 1139.51 476.192V470.36H1141.33V479H1139.56V477.776C1139.15 478.292 1138.67 478.67 1138.1 478.91C1137.55 479.15 1136.95 479.27 1136.3 479.27ZM1143.57 470.36H1145.33V471.638C1146.22 470.606 1147.42 470.09 1148.93 470.09C1149.8 470.09 1150.57 470.282 1151.25 470.666C1151.95 471.05 1152.49 471.59 1152.87 472.286C1153.27 472.97 1153.47 473.768 1153.47 474.68C1153.47 475.58 1153.27 476.378 1152.87 477.074C1152.49 477.77 1151.96 478.31 1151.27 478.694C1150.59 479.078 1149.81 479.27 1148.93 479.27C1148.21 479.27 1147.54 479.15 1146.92 478.91C1146.29 478.67 1145.78 478.316 1145.39 477.848V482.942H1143.57V470.36ZM1148.52 477.83C1149.11 477.83 1149.63 477.704 1150.1 477.452C1150.58 477.188 1150.95 476.816 1151.22 476.336C1151.49 475.856 1151.63 475.304 1151.63 474.68C1151.63 474.056 1151.49 473.51 1151.22 473.042C1150.95 472.562 1150.58 472.196 1150.1 471.944C1149.63 471.68 1149.11 471.548 1148.52 471.548C1147.79 471.548 1147.14 471.74 1146.57 472.124C1146.02 472.508 1145.63 473.036 1145.39 473.708V475.652C1145.59 476.312 1145.98 476.84 1146.56 477.236C1147.13 477.632 1147.79 477.83 1148.52 477.83ZM1163 468.668C1162.7 468.668 1162.44 468.566 1162.24 468.362C1162.04 468.158 1161.93 467.906 1161.93 467.606C1161.93 467.306 1162.04 467.054 1162.24 466.85C1162.44 466.646 1162.7 466.544 1163 466.544C1163.31 466.544 1163.57 466.646 1163.77 466.85C1163.99 467.054 1164.09 467.306 1164.09 467.606C1164.09 467.906 1163.99 468.158 1163.77 468.362C1163.57 468.566 1163.31 468.668 1163 468.668ZM1162.08 470.36H1163.93V479H1162.08V470.36ZM1166.94 471.764H1165.62V470.36H1166.94V468.668C1166.94 467.672 1167.22 466.916 1167.78 466.4C1168.35 465.872 1169.1 465.608 1170.05 465.608C1170.54 465.608 1171.01 465.68 1171.44 465.824V467.336C1171.1 467.18 1170.75 467.102 1170.39 467.102C1169.83 467.102 1169.42 467.24 1169.15 467.516C1168.89 467.78 1168.76 468.2 1168.76 468.776V470.36H1170.92V471.764H1168.76V479H1166.94V471.764ZM1181.01 482.564C1180.36 482.564 1179.82 482.498 1179.39 482.366V480.944C1179.7 481.064 1180.08 481.124 1180.54 481.124C1180.96 481.124 1181.29 481.016 1181.53 480.8C1181.77 480.596 1181.99 480.26 1182.18 479.792L1182.59 478.784L1178.81 470.36H1180.68L1183.56 477.002L1186.25 470.36H1188.12L1184.23 479.972C1183.87 480.872 1183.44 481.526 1182.93 481.934C1182.44 482.354 1181.8 482.564 1181.01 482.564ZM1193.02 479.27C1192.05 479.27 1191.19 479.09 1190.45 478.73C1189.72 478.358 1189.14 477.83 1188.72 477.146C1188.31 476.45 1188.11 475.634 1188.11 474.698C1188.11 473.774 1188.31 472.964 1188.72 472.268C1189.13 471.572 1189.7 471.038 1190.45 470.666C1191.19 470.282 1192.05 470.09 1193.02 470.09C1193.99 470.09 1194.85 470.282 1195.6 470.666C1196.34 471.038 1196.92 471.572 1197.32 472.268C1197.74 472.964 1197.95 473.774 1197.95 474.698C1197.95 475.634 1197.74 476.45 1197.32 477.146C1196.92 477.83 1196.34 478.358 1195.6 478.73C1194.85 479.09 1193.99 479.27 1193.02 479.27ZM1193.02 477.83C1193.96 477.83 1194.7 477.542 1195.25 476.966C1195.81 476.39 1196.08 475.634 1196.08 474.698C1196.08 473.726 1195.81 472.958 1195.25 472.394C1194.7 471.83 1193.96 471.548 1193.02 471.548C1192.09 471.548 1191.34 471.83 1190.79 472.394C1190.24 472.958 1189.96 473.726 1189.96 474.698C1189.96 475.634 1190.24 476.39 1190.79 476.966C1191.34 477.542 1192.09 477.83 1193.02 477.83ZM1203.28 479.27C1202.11 479.27 1201.23 478.958 1200.63 478.334C1200.04 477.71 1199.75 476.876 1199.75 475.832V470.36H1201.57V475.76C1201.57 477.14 1202.26 477.83 1203.64 477.83C1204.85 477.83 1205.8 477.284 1206.48 476.192V470.36H1208.3V479H1206.54V477.776C1206.13 478.292 1205.64 478.67 1205.08 478.91C1204.53 479.15 1203.93 479.27 1203.28 479.27ZM1210.54 470.36H1212.31V471.908C1212.67 471.38 1213.17 470.99 1213.82 470.738C1214.48 470.486 1215.24 470.36 1216.1 470.36V471.782C1215.18 471.782 1214.39 471.932 1213.73 472.232C1213.07 472.532 1212.61 473.006 1212.36 473.654V479H1210.54V470.36ZM820.17 496.36H821.934V497.638C822.822 496.606 824.022 496.09 825.534 496.09C826.398 496.09 827.172 496.282 827.856 496.666C828.552 497.05 829.092 497.59 829.476 498.286C829.872 498.97 830.07 499.768 830.07 500.68C830.07 501.58 829.872 502.378 829.476 503.074C829.092 503.77 828.558 504.31 827.874 504.694C827.19 505.078 826.41 505.27 825.534 505.27C824.814 505.27 824.142 505.15 823.518 504.91C822.894 504.67 822.384 504.316 821.988 503.848V508.942H820.17V496.36ZM825.12 503.83C825.708 503.83 826.236 503.704 826.704 503.452C827.184 503.188 827.556 502.816 827.82 502.336C828.096 501.856 828.234 501.304 828.234 500.68C828.234 500.056 828.096 499.51 827.82 499.042C827.556 498.562 827.184 498.196 826.704 497.944C826.236 497.68 825.708 497.548 825.12 497.548C824.388 497.548 823.74 497.74 823.176 498.124C822.624 498.508 822.228 499.036 821.988 499.708V501.652C822.192 502.312 822.582 502.84 823.158 503.236C823.734 503.632 824.388 503.83 825.12 503.83ZM834.602 505.27C833.558 505.27 832.718 505.006 832.082 504.478C831.458 503.938 831.146 503.212 831.146 502.3C831.146 501.34 831.446 500.602 832.046 500.086C832.658 499.558 833.522 499.294 834.638 499.294C835.826 499.294 836.834 499.534 837.662 500.014V499.564C837.662 498.88 837.452 498.376 837.032 498.052C836.624 497.716 835.976 497.548 835.088 497.548C834.56 497.548 834.044 497.602 833.54 497.71C833.048 497.806 832.604 497.944 832.208 498.124V496.648C832.568 496.48 833.036 496.348 833.612 496.252C834.188 496.144 834.746 496.09 835.286 496.09C836.714 496.09 837.77 496.408 838.454 497.044C839.15 497.668 839.498 498.538 839.498 499.654V505H837.788V504.028C837.416 504.436 836.972 504.748 836.456 504.964C835.952 505.168 835.334 505.27 834.602 505.27ZM835.052 503.884C835.628 503.884 836.15 503.77 836.618 503.542C837.086 503.314 837.434 502.996 837.662 502.588V501.418C836.882 500.914 836.012 500.662 835.052 500.662C834.356 500.662 833.834 500.8 833.486 501.076C833.15 501.34 832.982 501.748 832.982 502.3C832.982 503.356 833.672 503.884 835.052 503.884ZM842.691 508.564C842.043 508.564 841.503 508.498 841.071 508.366V506.944C841.383 507.064 841.767 507.124 842.223 507.124C842.643 507.124 842.973 507.016 843.213 506.8C843.453 506.596 843.669 506.26 843.861 505.792L844.275 504.784L840.495 496.36H842.367L845.247 503.002L847.929 496.36H849.801L845.913 505.972C845.553 506.872 845.121 507.526 844.617 507.934C844.125 508.354 843.483 508.564 842.691 508.564ZM851.33 496.36H853.058V497.602C853.466 497.098 853.928 496.72 854.444 496.468C854.96 496.216 855.494 496.09 856.046 496.09C856.742 496.09 857.294 496.21 857.702 496.45C858.11 496.678 858.41 497.032 858.602 497.512C858.986 497.044 859.454 496.69 860.006 496.45C860.57 496.21 861.134 496.09 861.698 496.09C862.754 496.09 863.516 496.36 863.984 496.9C864.452 497.428 864.686 498.214 864.686 499.258V505H862.922V499.492C862.922 498.784 862.79 498.286 862.526 497.998C862.262 497.698 861.812 497.548 861.176 497.548C860.264 497.548 859.52 497.944 858.944 498.736C858.968 498.916 858.98 499.21 858.98 499.618V505H857.216V499.492C857.216 498.784 857.096 498.286 856.856 497.998C856.616 497.698 856.184 497.548 855.56 497.548C854.648 497.548 853.832 498.064 853.112 499.096V505H851.33V496.36ZM871.601 505.27C870.005 505.27 868.751 504.874 867.839 504.082C866.939 503.278 866.489 502.15 866.489 500.698C866.489 499.282 866.891 498.16 867.695 497.332C868.511 496.504 869.669 496.09 871.169 496.09C872.165 496.09 873.011 496.282 873.707 496.666C874.403 497.038 874.925 497.56 875.273 498.232C875.633 498.892 875.813 499.648 875.813 500.5V501.4H868.217C868.277 502.216 868.619 502.828 869.243 503.236C869.879 503.632 870.737 503.83 871.817 503.83C872.369 503.83 872.927 503.782 873.491 503.686C874.055 503.578 874.553 503.44 874.985 503.272V504.73C874.601 504.886 874.091 505.012 873.455 505.108C872.831 505.216 872.213 505.27 871.601 505.27ZM874.103 500.122C874.079 499.306 873.809 498.676 873.293 498.232C872.789 497.776 872.069 497.548 871.133 497.548C870.221 497.548 869.513 497.782 869.009 498.25C868.505 498.718 868.241 499.342 868.217 500.122H874.103ZM877.71 496.36H879.474V497.602C879.882 497.086 880.38 496.708 880.968 496.468C881.568 496.216 882.192 496.09 882.84 496.09C883.992 496.09 884.85 496.396 885.414 497.008C885.978 497.62 886.26 498.442 886.26 499.474V505H884.442V499.654C884.442 498.25 883.77 497.548 882.426 497.548C881.85 497.548 881.31 497.686 880.806 497.962C880.314 498.226 879.888 498.634 879.528 499.186V505H877.71V496.36ZM891.743 505.27C890.867 505.27 890.189 505.018 889.709 504.514C889.241 504.01 889.007 503.296 889.007 502.372V497.764H887.693V496.36H889.007V493.768H890.843V496.36H892.967V497.764H890.843V502.246C890.843 502.822 890.951 503.23 891.167 503.47C891.395 503.71 891.803 503.83 892.391 503.83C892.739 503.83 893.087 503.752 893.435 503.596V505.036C892.979 505.192 892.415 505.27 891.743 505.27ZM906.182 505.27C905.21 505.27 904.352 505.09 903.608 504.73C902.876 504.358 902.3 503.83 901.88 503.146C901.472 502.45 901.268 501.634 901.268 500.698C901.268 499.774 901.472 498.964 901.88 498.268C902.288 497.572 902.864 497.038 903.608 496.666C904.352 496.282 905.21 496.09 906.182 496.09C907.154 496.09 908.012 496.282 908.756 496.666C909.5 497.038 910.076 497.572 910.484 498.268C910.904 498.964 911.114 499.774 911.114 500.698C911.114 501.634 910.904 502.45 910.484 503.146C910.076 503.83 909.5 504.358 908.756 504.73C908.012 505.09 907.154 505.27 906.182 505.27ZM906.182 503.83C907.118 503.83 907.862 503.542 908.414 502.966C908.966 502.39 909.242 501.634 909.242 500.698C909.242 499.726 908.966 498.958 908.414 498.394C907.862 497.83 907.118 497.548 906.182 497.548C905.246 497.548 904.502 497.83 903.95 498.394C903.398 498.958 903.122 499.726 903.122 500.698C903.122 501.634 903.398 502.39 903.95 502.966C904.502 503.542 905.246 503.83 906.182 503.83ZM912.96 497.764H911.646V496.36H912.96V494.668C912.96 493.672 913.242 492.916 913.806 492.4C914.37 491.872 915.126 491.608 916.074 491.608C916.566 491.608 917.028 491.68 917.46 491.824V493.336C917.124 493.18 916.776 493.102 916.416 493.102C915.852 493.102 915.438 493.24 915.174 493.516C914.91 493.78 914.778 494.2 914.778 494.776V496.36H916.938V497.764H914.778V505H912.96V497.764ZM929.748 505.27C928.788 505.27 927.936 505.09 927.192 504.73C926.448 504.37 925.866 503.848 925.446 503.164C925.038 502.468 924.834 501.646 924.834 500.698C924.834 499.75 925.038 498.934 925.446 498.25C925.866 497.554 926.448 497.02 927.192 496.648C927.948 496.276 928.812 496.09 929.784 496.09C931.104 496.09 932.16 496.348 932.952 496.864V498.358C932.172 497.818 931.176 497.548 929.964 497.548C928.98 497.548 928.182 497.818 927.57 498.358C926.97 498.886 926.67 499.666 926.67 500.698C926.67 501.73 926.97 502.51 927.57 503.038C928.17 503.566 928.956 503.83 929.928 503.83C931.14 503.83 932.184 503.542 933.06 502.966V504.442C932.64 504.73 932.16 504.94 931.62 505.072C931.092 505.204 930.468 505.27 929.748 505.27ZM934.947 491.698H936.765V497.548C937.593 496.576 938.697 496.09 940.077 496.09C941.229 496.09 942.087 496.396 942.651 497.008C943.215 497.62 943.497 498.442 943.497 499.474V505H941.679V499.654C941.679 498.25 941.007 497.548 939.663 497.548C939.087 497.548 938.547 497.686 938.043 497.962C937.551 498.226 937.125 498.634 936.765 499.186V505H934.947V491.698ZM949.941 505.27C948.969 505.27 948.111 505.09 947.367 504.73C946.635 504.358 946.059 503.83 945.639 503.146C945.231 502.45 945.027 501.634 945.027 500.698C945.027 499.774 945.231 498.964 945.639 498.268C946.047 497.572 946.623 497.038 947.367 496.666C948.111 496.282 948.969 496.09 949.941 496.09C950.913 496.09 951.771 496.282 952.515 496.666C953.259 497.038 953.835 497.572 954.243 498.268C954.663 498.964 954.873 499.774 954.873 500.698C954.873 501.634 954.663 502.45 954.243 503.146C953.835 503.83 953.259 504.358 952.515 504.73C951.771 505.09 950.913 505.27 949.941 505.27ZM949.941 503.83C950.877 503.83 951.621 503.542 952.173 502.966C952.725 502.39 953.001 501.634 953.001 500.698C953.001 499.726 952.725 498.958 952.173 498.394C951.621 497.83 950.877 497.548 949.941 497.548C949.005 497.548 948.261 497.83 947.709 498.394C947.157 498.958 946.881 499.726 946.881 500.698C946.881 501.634 947.157 502.39 947.709 502.966C948.261 503.542 949.005 503.83 949.941 503.83ZM957.82 494.668C957.52 494.668 957.268 494.566 957.064 494.362C956.86 494.158 956.758 493.906 956.758 493.606C956.758 493.306 956.86 493.054 957.064 492.85C957.268 492.646 957.52 492.544 957.82 492.544C958.132 492.544 958.39 492.646 958.594 492.85C958.81 493.054 958.918 493.306 958.918 493.606C958.918 493.906 958.81 494.158 958.594 494.362C958.39 494.566 958.132 494.668 957.82 494.668ZM956.902 496.36H958.756V505H956.902V496.36ZM965.722 505.27C964.762 505.27 963.91 505.09 963.166 504.73C962.422 504.37 961.84 503.848 961.42 503.164C961.012 502.468 960.808 501.646 960.808 500.698C960.808 499.75 961.012 498.934 961.42 498.25C961.84 497.554 962.422 497.02 963.166 496.648C963.922 496.276 964.786 496.09 965.758 496.09C967.078 496.09 968.134 496.348 968.926 496.864V498.358C968.146 497.818 967.15 497.548 965.938 497.548C964.954 497.548 964.156 497.818 963.544 498.358C962.944 498.886 962.644 499.666 962.644 500.698C962.644 501.73 962.944 502.51 963.544 503.038C964.144 503.566 964.93 503.83 965.902 503.83C967.114 503.83 968.158 503.542 969.034 502.966V504.442C968.614 504.73 968.134 504.94 967.594 505.072C967.066 505.204 966.442 505.27 965.722 505.27ZM975.673 505.27C974.077 505.27 972.823 504.874 971.911 504.082C971.011 503.278 970.561 502.15 970.561 500.698C970.561 499.282 970.963 498.16 971.767 497.332C972.583 496.504 973.741 496.09 975.241 496.09C976.237 496.09 977.083 496.282 977.779 496.666C978.475 497.038 978.997 497.56 979.345 498.232C979.705 498.892 979.885 499.648 979.885 500.5V501.4H972.289C972.349 502.216 972.691 502.828 973.315 503.236C973.951 503.632 974.809 503.83 975.889 503.83C976.441 503.83 976.999 503.782 977.563 503.686C978.127 503.578 978.625 503.44 979.057 503.272V504.73C978.673 504.886 978.163 505.012 977.527 505.108C976.903 505.216 976.285 505.27 975.673 505.27ZM978.175 500.122C978.151 499.306 977.881 498.676 977.365 498.232C976.861 497.776 976.141 497.548 975.205 497.548C974.293 497.548 973.585 497.782 973.081 498.25C972.577 498.718 972.313 499.342 972.289 500.122H978.175ZM989.417 494.668C989.117 494.668 988.865 494.566 988.661 494.362C988.457 494.158 988.355 493.906 988.355 493.606C988.355 493.306 988.457 493.054 988.661 492.85C988.865 492.646 989.117 492.544 989.417 492.544C989.729 492.544 989.987 492.646 990.191 492.85C990.407 493.054 990.515 493.306 990.515 493.606C990.515 493.906 990.407 494.158 990.191 494.362C989.987 494.566 989.729 494.668 989.417 494.668ZM988.499 496.36H990.353V505H988.499V496.36ZM995.951 505.27C995.351 505.27 994.715 505.192 994.043 505.036C993.371 504.892 992.843 504.694 992.459 504.442V502.894C992.927 503.17 993.467 503.398 994.079 503.578C994.691 503.746 995.285 503.83 995.861 503.83C996.509 503.83 996.983 503.752 997.283 503.596C997.583 503.44 997.733 503.188 997.733 502.84C997.733 502.576 997.661 502.366 997.517 502.21C997.385 502.042 997.151 501.892 996.815 501.76C996.491 501.628 995.999 501.472 995.339 501.292C994.631 501.088 994.067 500.884 993.647 500.68C993.239 500.464 992.927 500.194 992.711 499.87C992.507 499.546 992.405 499.126 992.405 498.61C992.405 497.782 992.729 497.158 993.377 496.738C994.037 496.306 994.919 496.09 996.023 496.09C996.599 496.09 997.163 496.144 997.715 496.252C998.267 496.36 998.711 496.51 999.047 496.702V498.214C998.699 498.01 998.267 497.848 997.751 497.728C997.247 497.608 996.731 497.548 996.203 497.548C995.567 497.548 995.081 497.626 994.745 497.782C994.409 497.938 994.241 498.214 994.241 498.61C994.241 498.862 994.313 499.066 994.457 499.222C994.601 499.378 994.829 499.516 995.141 499.636C995.465 499.744 995.975 499.888 996.671 500.068C997.763 500.368 998.519 500.722 998.939 501.13C999.371 501.538 999.587 502.102 999.587 502.822C999.587 503.566 999.281 504.16 998.669 504.604C998.057 505.048 997.151 505.27 995.951 505.27ZM1012.23 505.27C1011.37 505.27 1010.59 505.084 1009.89 504.712C1009.21 504.328 1008.67 503.794 1008.27 503.11C1007.89 502.414 1007.69 501.61 1007.69 500.698C1007.69 499.798 1007.89 499 1008.27 498.304C1008.67 497.608 1009.21 497.068 1009.89 496.684C1010.59 496.288 1011.37 496.09 1012.23 496.09C1013.79 496.09 1014.97 496.564 1015.78 497.512V491.698H1017.59V505H1015.83V503.74C1015.35 504.268 1014.82 504.658 1014.25 504.91C1013.68 505.15 1013.01 505.27 1012.23 505.27ZM1012.64 503.83C1013.39 503.83 1014.04 503.638 1014.59 503.254C1015.15 502.858 1015.55 502.33 1015.78 501.67V499.726C1015.57 499.066 1015.18 498.538 1014.61 498.142C1014.04 497.746 1013.39 497.548 1012.64 497.548C1012.06 497.548 1011.52 497.68 1011.04 497.944C1010.57 498.208 1010.2 498.58 1009.93 499.06C1009.66 499.54 1009.53 500.086 1009.53 500.698C1009.53 501.31 1009.66 501.856 1009.93 502.336C1010.2 502.816 1010.57 503.188 1011.04 503.452C1011.52 503.704 1012.06 503.83 1012.64 503.83ZM1024.6 505.27C1023 505.27 1021.75 504.874 1020.84 504.082C1019.94 503.278 1019.49 502.15 1019.49 500.698C1019.49 499.282 1019.89 498.16 1020.69 497.332C1021.51 496.504 1022.67 496.09 1024.17 496.09C1025.16 496.09 1026.01 496.282 1026.7 496.666C1027.4 497.038 1027.92 497.56 1028.27 498.232C1028.63 498.892 1028.81 499.648 1028.81 500.5V501.4H1021.21C1021.27 502.216 1021.62 502.828 1022.24 503.236C1022.88 503.632 1023.73 503.83 1024.81 503.83C1025.37 503.83 1025.92 503.782 1026.49 503.686C1027.05 503.578 1027.55 503.44 1027.98 503.272V504.73C1027.6 504.886 1027.09 505.012 1026.45 505.108C1025.83 505.216 1025.21 505.27 1024.6 505.27ZM1027.1 500.122C1027.08 499.306 1026.81 498.676 1026.29 498.232C1025.79 497.776 1025.07 497.548 1024.13 497.548C1023.22 497.548 1022.51 497.782 1022.01 498.25C1021.5 498.718 1021.24 499.342 1021.21 500.122H1027.1ZM1035.26 505.27C1034.3 505.27 1033.45 505.09 1032.71 504.73C1031.96 504.37 1031.38 503.848 1030.96 503.164C1030.55 502.468 1030.35 501.646 1030.35 500.698C1030.35 499.75 1030.55 498.934 1030.96 498.25C1031.38 497.554 1031.96 497.02 1032.71 496.648C1033.46 496.276 1034.33 496.09 1035.3 496.09C1036.62 496.09 1037.67 496.348 1038.47 496.864V498.358C1037.69 497.818 1036.69 497.548 1035.48 497.548C1034.49 497.548 1033.7 497.818 1033.08 498.358C1032.48 498.886 1032.18 499.666 1032.18 500.698C1032.18 501.73 1032.48 502.51 1033.08 503.038C1033.68 503.566 1034.47 503.83 1035.44 503.83C1036.65 503.83 1037.7 503.542 1038.57 502.966V504.442C1038.15 504.73 1037.67 504.94 1037.13 505.072C1036.61 505.204 1035.98 505.27 1035.26 505.27ZM1040.46 491.698H1042.28V505H1040.46V491.698ZM1045.6 494.668C1045.3 494.668 1045.05 494.566 1044.84 494.362C1044.64 494.158 1044.54 493.906 1044.54 493.606C1044.54 493.306 1044.64 493.054 1044.84 492.85C1045.05 492.646 1045.3 492.544 1045.6 492.544C1045.91 492.544 1046.17 492.646 1046.37 492.85C1046.59 493.054 1046.7 493.306 1046.7 493.606C1046.7 493.906 1046.59 494.158 1046.37 494.362C1046.17 494.566 1045.91 494.668 1045.6 494.668ZM1044.68 496.36H1046.54V505H1044.68V496.36ZM1048.95 496.36H1050.71V497.602C1051.12 497.086 1051.62 496.708 1052.21 496.468C1052.81 496.216 1053.43 496.09 1054.08 496.09C1055.23 496.09 1056.09 496.396 1056.65 497.008C1057.22 497.62 1057.5 498.442 1057.5 499.474V505H1055.68V499.654C1055.68 498.25 1055.01 497.548 1053.66 497.548C1053.09 497.548 1052.55 497.686 1052.04 497.962C1051.55 498.226 1051.13 498.634 1050.77 499.186V505H1048.95V496.36ZM1064.4 505.27C1062.81 505.27 1061.55 504.874 1060.64 504.082C1059.74 503.278 1059.29 502.15 1059.29 500.698C1059.29 499.282 1059.69 498.16 1060.5 497.332C1061.31 496.504 1062.47 496.09 1063.97 496.09C1064.97 496.09 1065.81 496.282 1066.51 496.666C1067.2 497.038 1067.73 497.56 1068.07 498.232C1068.43 498.892 1068.61 499.648 1068.61 500.5V501.4H1061.02C1061.08 502.216 1061.42 502.828 1062.04 503.236C1062.68 503.632 1063.54 503.83 1064.62 503.83C1065.17 503.83 1065.73 503.782 1066.29 503.686C1066.86 503.578 1067.35 503.44 1067.79 503.272V504.73C1067.4 504.886 1066.89 505.012 1066.26 505.108C1065.63 505.216 1065.01 505.27 1064.4 505.27ZM1066.9 500.122C1066.88 499.306 1066.61 498.676 1066.09 498.232C1065.59 497.776 1064.87 497.548 1063.93 497.548C1063.02 497.548 1062.31 497.782 1061.81 498.25C1061.31 498.718 1061.04 499.342 1061.02 500.122H1066.9ZM1074.69 505.27C1073.82 505.27 1073.04 505.084 1072.35 504.712C1071.66 504.328 1071.12 503.794 1070.73 503.11C1070.34 502.414 1070.15 501.61 1070.15 500.698C1070.15 499.798 1070.34 499 1070.73 498.304C1071.12 497.608 1071.66 497.068 1072.35 496.684C1073.04 496.288 1073.82 496.09 1074.69 496.09C1076.25 496.09 1077.43 496.564 1078.23 497.512V491.698H1080.05V505H1078.29V503.74C1077.81 504.268 1077.28 504.658 1076.7 504.91C1076.14 505.15 1075.47 505.27 1074.69 505.27ZM1075.1 503.83C1075.85 503.83 1076.49 503.638 1077.05 503.254C1077.61 502.858 1078.01 502.33 1078.23 501.67V499.726C1078.03 499.066 1077.64 498.538 1077.06 498.142C1076.5 497.746 1075.85 497.548 1075.1 497.548C1074.51 497.548 1073.98 497.68 1073.5 497.944C1073.03 498.208 1072.66 498.58 1072.38 499.06C1072.12 499.54 1071.99 500.086 1071.99 500.698C1071.99 501.31 1072.12 501.856 1072.38 502.336C1072.66 502.816 1073.03 503.188 1073.5 503.452C1073.98 503.704 1074.51 503.83 1075.1 503.83ZM1082.79 505C1082.55 505 1082.35 504.922 1082.18 504.766C1082.02 504.598 1081.94 504.394 1081.94 504.154C1081.94 503.914 1082.02 503.71 1082.18 503.542C1082.35 503.374 1082.55 503.29 1082.79 503.29C1083.03 503.29 1083.23 503.374 1083.4 503.542C1083.57 503.71 1083.65 503.914 1083.65 504.154C1083.65 504.394 1083.57 504.598 1083.4 504.766C1083.23 504.922 1083.03 505 1082.79 505Z" fill="white"/>
<path d="M615.5 367.5C607.768 367.5 601.5 361.232 601.5 353.5C601.5 345.768 607.768 339.5 615.5 339.5C623.232 339.5 629.5 345.768 629.5 353.5C629.5 361.232 623.232 367.5 615.5 367.5Z" fill="#FF8A37" stroke="#FF8A37"/>
<circle cx="615.5" cy="439.5" r="9" transform="rotate(90 615.5 439.5)" fill="#171717" stroke="#FF8A37"/>
<path d="M615.5 407.5C610.504 407.5 606.5 403.669 606.5 399C606.5 394.331 610.504 390.5 615.5 390.5C620.496 390.5 624.5 394.331 624.5 399C624.5 403.669 620.496 407.5 615.5 407.5Z" fill="#171717" stroke="#FF8A37"/>
<path d="M615.5 488.5C610.504 488.5 606.5 484.669 606.5 480C606.5 475.331 610.504 471.5 615.5 471.5C620.496 471.5 624.5 475.331 624.5 480C624.5 484.669 620.496 488.5 615.5 488.5Z" fill="#171717" stroke="#FF8A37"/>
</g>
<defs>
<linearGradient id="paint0_linear_1144_910" x1="786.29" y1="641.889" x2="786.29" y2="660.922" gradientUnits="userSpaceOnUse">
<stop stop-color="#FF8A37"/>
<stop offset="0.520833" stop-color="#FF8A37" stop-opacity="0.322917"/>
<stop offset="1" stop-color="#FF8A37" stop-opacity="0"/>
</linearGradient>
<linearGradient id="paint1_linear_1144_910" x1="553.106" y1="678.788" x2="1030.11" y2="678.788" gradientUnits="userSpaceOnUse">
<stop offset="0.0516655" stop-color="#171717"/>
<stop offset="0.505208" stop-color="#171717" stop-opacity="0"/>
<stop offset="0.934152" stop-color="#171717"/>
</linearGradient>
<clipPath id="clip0_1144_910">
<rect width="1440" height="876" fill="white"/>
</clipPath>
</defs>
</svg>
