<svg width="1440" height="876" viewBox="0 0 1440 876" fill="none" xmlns="http://www.w3.org/2000/svg">
<g clip-path="url(#clip0_1144_674)">
<rect width="1440" height="876" fill="#171717"/>
<rect x="558.746" y="641.889" width="455.088" height="21.1484" transform="rotate(-90 558.746 641.889)" fill="url(#paint0_linear_1144_674)"/>
<rect x="558.746" y="641.889" width="455.088" height="1.40989" transform="rotate(-90 558.746 641.889)" fill="#FF8A37"/>
<rect x="553.106" y="652" width="477" height="26.788" transform="rotate(-90 553.106 652)" fill="url(#paint1_linear_1144_674)"/>
<path d="M759.356 407.468C752.552 407.468 748.916 403.148 748.916 395.3C748.916 387.488 752.624 383.132 759.356 383.132C766.124 383.132 769.796 387.452 769.796 395.3C769.796 403.112 766.052 407.468 759.356 407.468ZM759.356 403.004C763.136 403.004 765.116 400.304 765.116 395.3C765.116 390.26 763.136 387.56 759.356 387.56C755.576 387.56 753.56 390.26 753.56 395.3C753.56 400.34 755.576 403.004 759.356 403.004ZM775.348 407V403.724C775.348 399.872 778.588 396.38 784.384 394.004C787.912 392.528 788.92 391.736 788.92 390.368C788.92 388.568 787.444 387.56 784.672 387.56C781.936 387.56 780.496 389.036 780.496 390.836H775.78C775.78 386.156 778.948 383.132 784.672 383.132C790.144 383.132 793.564 385.94 793.564 390.368C793.564 393.752 791.62 395.732 786.04 398C782.728 399.368 780.496 401.024 780.496 402.788H794.032V407H775.348ZM802.913 407.468C801.149 407.468 800.033 406.244 800.033 404.408C800.033 402.608 801.149 401.384 802.913 401.384C804.641 401.384 805.793 402.608 805.793 404.408C805.793 406.244 804.641 407.468 802.913 407.468Z" fill="#FF8A37"/>
<path d="M821.232 406V390.4H828.648C833.088 390.4 836.352 393.664 836.352 398.2C836.352 402.688 833.088 406 828.648 406H821.232ZM824.208 403.192H828.648C831.312 403.192 833.232 401.104 833.232 398.2C833.232 395.32 831.312 393.208 828.648 393.208H824.208V403.192ZM847.036 406.312C842.596 406.312 839.332 402.88 839.332 398.2C839.332 393.52 842.596 390.088 847.036 390.088C851.476 390.088 854.74 393.52 854.74 398.2C854.74 402.88 851.476 406.312 847.036 406.312ZM847.036 403.336C849.7 403.336 851.644 401.152 851.644 398.2C851.644 395.224 849.7 393.04 847.036 393.04C844.372 393.04 842.452 395.224 842.452 398.2C842.452 401.152 844.372 403.336 847.036 403.336ZM865.857 406V390.4H868.521L877.713 401.152V390.4H880.689V406H878.001L868.833 395.224V406H865.857ZM892.083 406.312C887.643 406.312 884.379 402.88 884.379 398.2C884.379 393.52 887.643 390.088 892.083 390.088C896.523 390.088 899.787 393.52 899.787 398.2C899.787 402.88 896.523 406.312 892.083 406.312ZM892.083 403.336C894.747 403.336 896.691 401.152 896.691 398.2C896.691 395.224 894.747 393.04 892.083 393.04C889.419 393.04 887.499 395.224 887.499 398.2C887.499 401.152 889.419 403.336 892.083 403.336ZM907.409 406V393.208H901.481V390.4H916.313V393.208H910.385V406H907.409ZM927.123 406V390.4H937.803C940.467 390.4 942.243 392.272 942.243 395.08C942.243 397.576 940.683 399.328 938.355 399.568C938.547 399.832 938.763 400.096 938.883 400.312L942.243 406H938.883L935.139 399.592H930.099V406H927.123ZM930.099 396.784H937.803C938.691 396.784 939.267 396.16 939.267 395.224V394.768C939.267 393.832 938.691 393.208 937.803 393.208H930.099V396.784ZM946.084 406V390.4H960.604V393.208H949.06V396.784H957.652V399.592H949.06V403.192H960.604V406H946.084ZM970.973 406.312C966.533 406.312 963.269 402.88 963.269 398.2C963.269 393.52 966.533 390.088 970.973 390.088C974.981 390.088 977.981 392.824 978.581 396.784H975.413C974.909 394.552 973.205 393.04 970.973 393.04C968.309 393.04 966.389 395.224 966.389 398.2C966.389 401.152 968.309 403.336 970.973 403.336C973.205 403.336 974.909 401.824 975.413 399.592H978.581C977.981 403.576 974.981 406.312 970.973 406.312ZM982.295 406V390.4H985.271V406H982.295ZM989.701 406V390.4H1000.38C1003.04 390.4 1004.82 392.272 1004.82 395.08C1004.82 397.576 1003.26 399.328 1000.93 399.568C1001.12 399.832 1001.34 400.096 1001.46 400.312L1004.82 406H1001.46L997.717 399.592H992.677V406H989.701ZM992.677 396.784H1000.38C1001.27 396.784 1001.84 396.16 1001.84 395.224V394.768C1001.84 393.832 1001.27 393.208 1000.38 393.208H992.677V396.784ZM1015.27 406.312C1010.83 406.312 1007.57 402.88 1007.57 398.2C1007.57 393.52 1010.83 390.088 1015.27 390.088C1019.28 390.088 1022.28 392.824 1022.88 396.784H1019.71C1019.21 394.552 1017.5 393.04 1015.27 393.04C1012.61 393.04 1010.69 395.224 1010.69 398.2C1010.69 401.152 1012.61 403.336 1015.27 403.336C1017.5 403.336 1019.21 401.824 1019.71 399.592H1022.88C1022.28 403.576 1019.28 406.312 1015.27 406.312ZM1033.72 406.312C1029.62 406.312 1026.59 403 1026.59 398.512V390.4H1029.57V398.512C1029.57 401.32 1031.3 403.336 1033.72 403.336C1036.1 403.336 1037.85 401.32 1037.85 398.512V390.4H1040.82V398.512C1040.82 403 1037.8 406.312 1033.72 406.312ZM1045.27 406V390.4H1048.25V403.192H1057.13V406H1045.27ZM1059.21 406L1065.3 390.4H1069.74L1075.82 406H1072.62L1071.09 402.016H1063.86L1062.35 406H1059.21ZM1064.87 399.208H1070.08L1067.44 392.728L1064.87 399.208ZM1081.88 406V393.208H1075.95V390.4H1090.78V393.208H1084.85V406H1081.88ZM1094.19 406V390.4H1108.71V393.208H1097.16V396.784H1105.75V399.592H1097.16V403.192H1108.71V406H1094.19ZM1118.79 406L1124.88 390.4H1129.32L1135.39 406H1132.2L1130.67 402.016H1123.44L1121.93 406H1118.79ZM1124.47 399.208H1129.66L1127.02 392.752L1124.47 399.208ZM1138.51 406V390.4H1141.48V406H1138.51ZM1151.97 406L1158.07 390.4H1162.51L1168.58 406H1165.39L1163.85 402.016H1156.63L1155.12 406H1151.97ZM1157.66 399.208H1162.85L1160.21 392.752L1157.66 399.208ZM1171.69 406V390.4H1174.67V403.192H1183.55V406H1171.69ZM1186.97 406V390.4H1197.65C1200.32 390.4 1202.09 392.272 1202.09 395.08C1202.09 397.768 1200.32 399.592 1197.65 399.592H1189.95V406H1186.97ZM1189.95 396.784H1197.65C1198.54 396.784 1199.12 396.16 1199.12 395.224V394.768C1199.12 393.832 1198.54 393.208 1197.65 393.208H1189.95V396.784ZM1205.82 406V390.4H1208.79V396.784H1217.67V390.4H1220.65V406H1217.67V399.592H1208.79V406H1205.82ZM1223.74 406L1229.84 390.4H1234.28L1240.35 406H1237.16L1235.62 402.016H1228.4L1226.88 406H1223.74ZM1229.4 399.208H1234.61L1231.97 392.728L1229.4 399.208ZM1257.82 406.312C1253.38 406.312 1250.12 402.88 1250.12 398.2C1250.12 393.52 1253.38 390.088 1257.82 390.088C1261.83 390.088 1264.83 392.824 1265.43 396.784H1262.26C1261.76 394.552 1260.06 393.04 1257.82 393.04C1255.16 393.04 1253.24 395.224 1253.24 398.2C1253.24 401.152 1255.16 403.336 1257.82 403.336C1260.06 403.336 1261.76 401.824 1262.26 399.592H1265.43C1264.83 403.576 1261.83 406.312 1257.82 406.312ZM1276.11 406.312C1271.67 406.312 1268.4 402.88 1268.4 398.2C1268.4 393.52 1271.67 390.088 1276.11 390.088C1280.55 390.088 1283.81 393.52 1283.81 398.2C1283.81 402.88 1280.55 406.312 1276.11 406.312ZM1276.11 403.336C1278.77 403.336 1280.71 401.152 1280.71 398.2C1280.71 395.224 1278.77 393.04 1276.11 393.04C1273.44 393.04 1271.52 395.224 1271.52 398.2C1271.52 401.152 1273.44 403.336 1276.11 403.336ZM1287.52 406V390.4H1290.19L1299.38 401.152V390.4H1302.35V406H1299.67L1290.5 395.224V406H1287.52ZM1311.66 406V393.208H1305.73V390.4H1320.56V393.208H1314.63V406H1311.66ZM1323.97 406V390.4H1338.49V393.208H1326.94V396.784H1335.53V399.592H1326.94V403.192H1338.49V406H1323.97ZM1342.51 406V390.4H1345.17L1354.36 401.152V390.4H1357.34V406H1354.65L1345.48 395.224V406H1342.51ZM1366.64 406V393.208H1360.72V390.4H1375.55V393.208H1369.62V406H1366.64Z" fill="#FF8A37"/>
<path d="M720.5 398.5C720.5 376.961 737.961 359.5 759.5 359.5H1363C1384.54 359.5 1402 376.961 1402 398.5C1402 420.039 1384.54 437.5 1363 437.5H759.5C737.961 437.5 720.5 420.039 720.5 398.5Z" stroke="#FF8A37"/>
<rect x="630" y="400" width="0.999996" height="91" transform="rotate(-90 630 400)" fill="#FF8A37"/>
<path d="M818.662 473.27C817.942 473.27 817.228 473.204 816.52 473.072C815.824 472.952 815.254 472.784 814.81 472.568V470.912C815.962 471.452 817.204 471.722 818.536 471.722C820.408 471.722 821.344 471.092 821.344 469.832C821.344 469.4 821.242 469.052 821.038 468.788C820.834 468.524 820.54 468.296 820.156 468.104C819.772 467.9 819.148 467.624 818.284 467.276C817.096 466.796 816.238 466.268 815.71 465.692C815.182 465.116 814.918 464.39 814.918 463.514C814.918 462.854 815.098 462.272 815.458 461.768C815.818 461.252 816.322 460.856 816.97 460.58C817.618 460.292 818.362 460.148 819.202 460.148C819.886 460.148 820.504 460.202 821.056 460.31C821.608 460.418 822.148 460.592 822.676 460.832V462.416C821.632 461.948 820.576 461.714 819.508 461.714C818.644 461.714 817.984 461.87 817.528 462.182C817.072 462.494 816.844 462.938 816.844 463.514C816.844 463.91 816.94 464.246 817.132 464.522C817.336 464.786 817.63 465.026 818.014 465.242C818.41 465.446 818.992 465.704 819.76 466.016C820.612 466.364 821.284 466.694 821.776 467.006C822.268 467.318 822.64 467.702 822.892 468.158C823.156 468.602 823.288 469.16 823.288 469.832C823.288 470.924 822.898 471.77 822.118 472.37C821.338 472.97 820.186 473.27 818.662 473.27ZM825.26 459.698H827.078V465.548C827.906 464.576 829.01 464.09 830.39 464.09C831.542 464.09 832.4 464.396 832.964 465.008C833.528 465.62 833.81 466.442 833.81 467.474V473H831.992V467.654C831.992 466.25 831.32 465.548 829.976 465.548C829.4 465.548 828.86 465.686 828.356 465.962C827.864 466.226 827.438 466.634 827.078 467.186V473H825.26V459.698ZM838.885 473.27C837.841 473.27 837.001 473.006 836.365 472.478C835.741 471.938 835.429 471.212 835.429 470.3C835.429 469.34 835.729 468.602 836.329 468.086C836.941 467.558 837.805 467.294 838.921 467.294C840.109 467.294 841.117 467.534 841.945 468.014V467.564C841.945 466.88 841.735 466.376 841.315 466.052C840.907 465.716 840.259 465.548 839.371 465.548C838.843 465.548 838.327 465.602 837.823 465.71C837.331 465.806 836.887 465.944 836.491 466.124V464.648C836.851 464.48 837.319 464.348 837.895 464.252C838.471 464.144 839.029 464.09 839.569 464.09C840.997 464.09 842.053 464.408 842.737 465.044C843.433 465.668 843.781 466.538 843.781 467.654V473H842.071V472.028C841.699 472.436 841.255 472.748 840.739 472.964C840.235 473.168 839.617 473.27 838.885 473.27ZM839.335 471.884C839.911 471.884 840.433 471.77 840.901 471.542C841.369 471.314 841.717 470.996 841.945 470.588V469.418C841.165 468.914 840.295 468.662 839.335 468.662C838.639 468.662 838.117 468.8 837.769 469.076C837.433 469.34 837.265 469.748 837.265 470.3C837.265 471.356 837.955 471.884 839.335 471.884ZM846.037 464.36H847.801V465.908C848.161 465.38 848.665 464.99 849.313 464.738C849.973 464.486 850.735 464.36 851.599 464.36V465.782C850.675 465.782 849.883 465.932 849.223 466.232C848.563 466.532 848.107 467.006 847.855 467.654V473H846.037V464.36ZM854.289 462.668C853.989 462.668 853.737 462.566 853.533 462.362C853.329 462.158 853.227 461.906 853.227 461.606C853.227 461.306 853.329 461.054 853.533 460.85C853.737 460.646 853.989 460.544 854.289 460.544C854.601 460.544 854.859 460.646 855.063 460.85C855.279 461.054 855.387 461.306 855.387 461.606C855.387 461.906 855.279 462.158 855.063 462.362C854.859 462.566 854.601 462.668 854.289 462.668ZM853.371 464.36H855.225V473H853.371V464.36ZM857.727 464.36H859.491V465.602C859.899 465.086 860.397 464.708 860.985 464.468C861.585 464.216 862.209 464.09 862.857 464.09C864.009 464.09 864.867 464.396 865.431 465.008C865.995 465.62 866.277 466.442 866.277 467.474V473H864.459V467.654C864.459 466.25 863.787 465.548 862.443 465.548C861.867 465.548 861.327 465.686 860.823 465.962C860.331 466.226 859.905 466.634 859.545 467.186V473H857.727V464.36ZM873.038 477.14C872.45 477.14 871.874 477.092 871.31 476.996C870.758 476.9 870.29 476.762 869.906 476.582V475.088C870.806 475.496 871.85 475.7 873.038 475.7C874.154 475.7 874.964 475.454 875.468 474.962C875.984 474.482 876.242 473.75 876.242 472.766V471.848C875.45 472.796 874.286 473.27 872.75 473.27C871.874 473.27 871.088 473.078 870.392 472.694C869.696 472.31 869.15 471.77 868.754 471.074C868.358 470.378 868.16 469.58 868.16 468.68C868.16 467.768 868.352 466.97 868.736 466.286C869.132 465.59 869.672 465.05 870.356 464.666C871.052 464.282 871.832 464.09 872.696 464.09C873.5 464.09 874.178 464.21 874.73 464.45C875.294 464.678 875.816 465.062 876.296 465.602V464.36H878.06V472.568C878.06 474.044 877.646 475.172 876.818 475.952C876.002 476.744 874.742 477.14 873.038 477.14ZM873.11 471.83C873.854 471.83 874.508 471.632 875.072 471.236C875.648 470.84 876.038 470.312 876.242 469.652V467.708C876.014 467.036 875.618 466.508 875.054 466.124C874.502 465.74 873.854 465.548 873.11 465.548C872.522 465.548 871.988 465.68 871.508 465.944C871.04 466.196 870.668 466.562 870.392 467.042C870.128 467.522 869.996 468.068 869.996 468.68C869.996 469.304 870.128 469.856 870.392 470.336C870.668 470.804 871.04 471.17 871.508 471.434C871.988 471.698 872.522 471.83 873.11 471.83ZM890.161 473.27C889.117 473.27 888.277 473.006 887.641 472.478C887.017 471.938 886.705 471.212 886.705 470.3C886.705 469.34 887.005 468.602 887.605 468.086C888.217 467.558 889.081 467.294 890.197 467.294C891.385 467.294 892.393 467.534 893.221 468.014V467.564C893.221 466.88 893.011 466.376 892.591 466.052C892.183 465.716 891.535 465.548 890.647 465.548C890.119 465.548 889.603 465.602 889.099 465.71C888.607 465.806 888.163 465.944 887.767 466.124V464.648C888.127 464.48 888.595 464.348 889.171 464.252C889.747 464.144 890.305 464.09 890.845 464.09C892.273 464.09 893.329 464.408 894.013 465.044C894.709 465.668 895.057 466.538 895.057 467.654V473H893.347V472.028C892.975 472.436 892.531 472.748 892.015 472.964C891.511 473.168 890.893 473.27 890.161 473.27ZM890.611 471.884C891.187 471.884 891.709 471.77 892.177 471.542C892.645 471.314 892.993 470.996 893.221 470.588V469.418C892.441 468.914 891.571 468.662 890.611 468.662C889.915 468.662 889.393 468.8 889.045 469.076C888.709 469.34 888.541 469.748 888.541 470.3C888.541 471.356 889.231 471.884 890.611 471.884ZM897.313 464.36H899.077V465.602C899.485 465.086 899.983 464.708 900.571 464.468C901.171 464.216 901.795 464.09 902.443 464.09C903.595 464.09 904.453 464.396 905.017 465.008C905.581 465.62 905.863 466.442 905.863 467.474V473H904.045V467.654C904.045 466.25 903.373 465.548 902.029 465.548C901.453 465.548 900.913 465.686 900.409 465.962C899.917 466.226 899.491 466.634 899.131 467.186V473H897.313V464.36ZM912.282 473.27C911.418 473.27 910.638 473.084 909.942 472.712C909.258 472.328 908.718 471.794 908.322 471.11C907.938 470.414 907.746 469.61 907.746 468.698C907.746 467.798 907.938 467 908.322 466.304C908.718 465.608 909.258 465.068 909.942 464.684C910.638 464.288 911.418 464.09 912.282 464.09C913.842 464.09 915.024 464.564 915.828 465.512V459.698H917.646V473H915.882V471.74C915.402 472.268 914.874 472.658 914.298 472.91C913.734 473.15 913.062 473.27 912.282 473.27ZM912.696 471.83C913.44 471.83 914.088 471.638 914.64 471.254C915.204 470.858 915.6 470.33 915.828 469.67V467.726C915.624 467.066 915.234 466.538 914.658 466.142C914.094 465.746 913.44 465.548 912.696 465.548C912.108 465.548 911.574 465.68 911.094 465.944C910.626 466.208 910.254 466.58 909.978 467.06C909.714 467.54 909.582 468.086 909.582 468.698C909.582 469.31 909.714 469.856 909.978 470.336C910.254 470.816 910.626 471.188 911.094 471.452C911.574 471.704 912.108 471.83 912.696 471.83ZM924.758 460.148H926.594L921.464 473H919.628L924.758 460.148ZM933.12 473.27C932.148 473.27 931.29 473.09 930.546 472.73C929.814 472.358 929.238 471.83 928.818 471.146C928.41 470.45 928.206 469.634 928.206 468.698C928.206 467.774 928.41 466.964 928.818 466.268C929.226 465.572 929.802 465.038 930.546 464.666C931.29 464.282 932.148 464.09 933.12 464.09C934.092 464.09 934.95 464.282 935.694 464.666C936.438 465.038 937.014 465.572 937.422 466.268C937.842 466.964 938.052 467.774 938.052 468.698C938.052 469.634 937.842 470.45 937.422 471.146C937.014 471.83 936.438 472.358 935.694 472.73C934.95 473.09 934.092 473.27 933.12 473.27ZM933.12 471.83C934.056 471.83 934.8 471.542 935.352 470.966C935.904 470.39 936.18 469.634 936.18 468.698C936.18 467.726 935.904 466.958 935.352 466.394C934.8 465.83 934.056 465.548 933.12 465.548C932.184 465.548 931.44 465.83 930.888 466.394C930.336 466.958 930.06 467.726 930.06 468.698C930.06 469.634 930.336 470.39 930.888 470.966C931.44 471.542 932.184 471.83 933.12 471.83ZM940.027 464.36H941.791V465.908C942.151 465.38 942.655 464.99 943.303 464.738C943.963 464.486 944.725 464.36 945.589 464.36V465.782C944.665 465.782 943.873 465.932 943.213 466.232C942.553 466.532 942.097 467.006 941.845 467.654V473H940.027V464.36ZM953.879 464.36H955.643V465.908C956.003 465.38 956.507 464.99 957.155 464.738C957.815 464.486 958.577 464.36 959.441 464.36V465.782C958.517 465.782 957.725 465.932 957.065 466.232C956.405 466.532 955.949 467.006 955.697 467.654V473H953.879V464.36ZM965.276 473.27C963.68 473.27 962.426 472.874 961.514 472.082C960.614 471.278 960.164 470.15 960.164 468.698C960.164 467.282 960.566 466.16 961.37 465.332C962.186 464.504 963.344 464.09 964.844 464.09C965.84 464.09 966.686 464.282 967.382 464.666C968.078 465.038 968.6 465.56 968.948 466.232C969.308 466.892 969.488 467.648 969.488 468.5V469.4H961.892C961.952 470.216 962.294 470.828 962.918 471.236C963.554 471.632 964.412 471.83 965.492 471.83C966.044 471.83 966.602 471.782 967.166 471.686C967.73 471.578 968.228 471.44 968.66 471.272V472.73C968.276 472.886 967.766 473.012 967.13 473.108C966.506 473.216 965.888 473.27 965.276 473.27ZM967.778 468.122C967.754 467.306 967.484 466.676 966.968 466.232C966.464 465.776 965.744 465.548 964.808 465.548C963.896 465.548 963.188 465.782 962.684 466.25C962.18 466.718 961.916 467.342 961.892 468.122H967.778ZM975.651 473.27C974.787 473.27 974.007 473.084 973.311 472.712C972.627 472.328 972.087 471.794 971.691 471.11C971.307 470.414 971.115 469.61 971.115 468.698C971.115 467.798 971.307 467 971.691 466.304C972.087 465.608 972.627 465.068 973.311 464.684C974.007 464.288 974.787 464.09 975.651 464.09C977.211 464.09 978.393 464.564 979.197 465.512V459.698H981.015V473H979.251V471.74C978.771 472.268 978.243 472.658 977.667 472.91C977.103 473.15 976.431 473.27 975.651 473.27ZM976.065 471.83C976.809 471.83 977.457 471.638 978.009 471.254C978.573 470.858 978.969 470.33 979.197 469.67V467.726C978.993 467.066 978.603 466.538 978.027 466.142C977.463 465.746 976.809 465.548 976.065 465.548C975.477 465.548 974.943 465.68 974.463 465.944C973.995 466.208 973.623 466.58 973.347 467.06C973.083 467.54 972.951 468.086 972.951 468.698C972.951 469.31 973.083 469.856 973.347 470.336C973.623 470.816 973.995 471.188 974.463 471.452C974.943 471.704 975.477 471.83 976.065 471.83ZM984.42 462.668C984.12 462.668 983.868 462.566 983.664 462.362C983.46 462.158 983.358 461.906 983.358 461.606C983.358 461.306 983.46 461.054 983.664 460.85C983.868 460.646 984.12 460.544 984.42 460.544C984.732 460.544 984.99 460.646 985.194 460.85C985.41 461.054 985.518 461.306 985.518 461.606C985.518 461.906 985.41 462.158 985.194 462.362C984.99 462.566 984.732 462.668 984.42 462.668ZM983.502 464.36H985.356V473H983.502V464.36ZM991.044 473.27C990.444 473.27 989.808 473.192 989.136 473.036C988.464 472.892 987.936 472.694 987.552 472.442V470.894C988.02 471.17 988.56 471.398 989.172 471.578C989.784 471.746 990.378 471.83 990.954 471.83C991.602 471.83 992.076 471.752 992.376 471.596C992.676 471.44 992.826 471.188 992.826 470.84C992.826 470.576 992.754 470.366 992.61 470.21C992.478 470.042 992.244 469.892 991.908 469.76C991.584 469.628 991.092 469.472 990.432 469.292C989.724 469.088 989.16 468.884 988.74 468.68C988.332 468.464 988.02 468.194 987.804 467.87C987.6 467.546 987.498 467.126 987.498 466.61C987.498 465.782 987.822 465.158 988.47 464.738C989.13 464.306 990.012 464.09 991.116 464.09C991.692 464.09 992.256 464.144 992.808 464.252C993.36 464.36 993.804 464.51 994.14 464.702V466.214C993.792 466.01 993.36 465.848 992.844 465.728C992.34 465.608 991.824 465.548 991.296 465.548C990.66 465.548 990.174 465.626 989.838 465.782C989.502 465.938 989.333 466.214 989.333 466.61C989.333 466.862 989.406 467.066 989.55 467.222C989.694 467.378 989.922 467.516 990.234 467.636C990.558 467.744 991.068 467.888 991.764 468.068C992.856 468.368 993.612 468.722 994.032 469.13C994.464 469.538 994.68 470.102 994.68 470.822C994.68 471.566 994.374 472.16 993.762 472.604C993.15 473.048 992.244 473.27 991.044 473.27ZM999.73 473.27C998.854 473.27 998.176 473.018 997.696 472.514C997.228 472.01 996.994 471.296 996.994 470.372V465.764H995.68V464.36H996.994V461.768H998.83V464.36H1000.95V465.764H998.83V470.246C998.83 470.822 998.938 471.23 999.154 471.47C999.382 471.71 999.79 471.83 1000.38 471.83C1000.73 471.83 1001.07 471.752 1001.42 471.596V473.036C1000.97 473.192 1000.4 473.27 999.73 473.27ZM1003.13 464.36H1004.9V465.908C1005.26 465.38 1005.76 464.99 1006.41 464.738C1007.07 464.486 1007.83 464.36 1008.69 464.36V465.782C1007.77 465.782 1006.98 465.932 1006.32 466.232C1005.66 466.532 1005.2 467.006 1004.95 467.654V473H1003.13V464.36ZM1011.38 462.668C1011.08 462.668 1010.83 462.566 1010.63 462.362C1010.42 462.158 1010.32 461.906 1010.32 461.606C1010.32 461.306 1010.42 461.054 1010.63 460.85C1010.83 460.646 1011.08 460.544 1011.38 460.544C1011.7 460.544 1011.95 460.646 1012.16 460.85C1012.37 461.054 1012.48 461.306 1012.48 461.606C1012.48 461.906 1012.37 462.158 1012.16 462.362C1011.95 462.566 1011.7 462.668 1011.38 462.668ZM1010.47 464.36H1012.32V473H1010.47V464.36ZM1020.19 473.27C1019.41 473.27 1018.73 473.15 1018.15 472.91C1017.59 472.658 1017.07 472.268 1016.59 471.74V473H1014.82V459.698H1016.64V465.512C1017.04 465.044 1017.55 464.69 1018.17 464.45C1018.79 464.21 1019.47 464.09 1020.19 464.09C1021.05 464.09 1021.82 464.288 1022.51 464.684C1023.2 465.068 1023.74 465.608 1024.13 466.304C1024.52 467 1024.72 467.798 1024.72 468.698C1024.72 469.61 1024.52 470.414 1024.13 471.11C1023.74 471.794 1023.2 472.328 1022.51 472.712C1021.82 473.084 1021.05 473.27 1020.19 473.27ZM1019.77 471.83C1020.36 471.83 1020.89 471.704 1021.36 471.452C1021.84 471.188 1022.21 470.816 1022.47 470.336C1022.75 469.856 1022.89 469.31 1022.89 468.698C1022.89 468.086 1022.75 467.54 1022.47 467.06C1022.21 466.58 1021.84 466.208 1021.36 465.944C1020.89 465.68 1020.36 465.548 1019.77 465.548C1019.04 465.548 1018.39 465.746 1017.81 466.142C1017.23 466.538 1016.84 467.066 1016.64 467.726V469.67C1016.87 470.33 1017.26 470.858 1017.81 471.254C1018.37 471.638 1019.03 471.83 1019.77 471.83ZM1029.69 473.27C1028.52 473.27 1027.64 472.958 1027.04 472.334C1026.45 471.71 1026.16 470.876 1026.16 469.832V464.36H1027.98V469.76C1027.98 471.14 1028.67 471.83 1030.05 471.83C1031.26 471.83 1032.21 471.284 1032.89 470.192V464.36H1034.71V473H1032.94V471.776C1032.54 472.292 1032.05 472.67 1031.49 472.91C1030.93 473.15 1030.33 473.27 1029.69 473.27ZM1040.37 473.27C1039.5 473.27 1038.82 473.018 1038.34 472.514C1037.87 472.01 1037.64 471.296 1037.64 470.372V465.764H1036.32V464.36H1037.64V461.768H1039.47V464.36H1041.6V465.764H1039.47V470.246C1039.47 470.822 1039.58 471.23 1039.8 471.47C1040.02 471.71 1040.43 471.83 1041.02 471.83C1041.37 471.83 1041.72 471.752 1042.06 471.596V473.036C1041.61 473.192 1041.04 473.27 1040.37 473.27ZM1044.84 462.668C1044.54 462.668 1044.28 462.566 1044.08 462.362C1043.88 462.158 1043.77 461.906 1043.77 461.606C1043.77 461.306 1043.88 461.054 1044.08 460.85C1044.28 460.646 1044.54 460.544 1044.84 460.544C1045.15 460.544 1045.41 460.646 1045.61 460.85C1045.83 461.054 1045.93 461.306 1045.93 461.606C1045.93 461.906 1045.83 462.158 1045.61 462.362C1045.41 462.566 1045.15 462.668 1044.84 462.668ZM1043.92 464.36H1045.77V473H1043.92V464.36ZM1048.27 464.36H1050.04V465.602C1050.45 465.086 1050.94 464.708 1051.53 464.468C1052.13 464.216 1052.76 464.09 1053.4 464.09C1054.56 464.09 1055.41 464.396 1055.98 465.008C1056.54 465.62 1056.82 466.442 1056.82 467.474V473H1055.01V467.654C1055.01 466.25 1054.33 465.548 1052.99 465.548C1052.41 465.548 1051.87 465.686 1051.37 465.962C1050.88 466.226 1050.45 466.634 1050.09 467.186V473H1048.27V464.36ZM1063.58 477.14C1063 477.14 1062.42 477.092 1061.86 476.996C1061.3 476.9 1060.84 476.762 1060.45 476.582V475.088C1061.35 475.496 1062.4 475.7 1063.58 475.7C1064.7 475.7 1065.51 475.454 1066.01 474.962C1066.53 474.482 1066.79 473.75 1066.79 472.766V471.848C1066 472.796 1064.83 473.27 1063.3 473.27C1062.42 473.27 1061.63 473.078 1060.94 472.694C1060.24 472.31 1059.7 471.77 1059.3 471.074C1058.9 470.378 1058.71 469.58 1058.71 468.68C1058.71 467.768 1058.9 466.97 1059.28 466.286C1059.68 465.59 1060.22 465.05 1060.9 464.666C1061.6 464.282 1062.38 464.09 1063.24 464.09C1064.05 464.09 1064.72 464.21 1065.28 464.45C1065.84 464.678 1066.36 465.062 1066.84 465.602V464.36H1068.61V472.568C1068.61 474.044 1068.19 475.172 1067.36 475.952C1066.55 476.744 1065.29 477.14 1063.58 477.14ZM1063.66 471.83C1064.4 471.83 1065.05 471.632 1065.62 471.236C1066.19 470.84 1066.58 470.312 1066.79 469.652V467.708C1066.56 467.036 1066.16 466.508 1065.6 466.124C1065.05 465.74 1064.4 465.548 1063.66 465.548C1063.07 465.548 1062.53 465.68 1062.05 465.944C1061.59 466.196 1061.21 466.562 1060.94 467.042C1060.67 467.522 1060.54 468.068 1060.54 468.68C1060.54 469.304 1060.67 469.856 1060.94 470.336C1061.21 470.804 1061.59 471.17 1062.05 471.434C1062.53 471.698 1063.07 471.83 1063.66 471.83ZM1080.71 473.27C1079.66 473.27 1078.82 473.006 1078.19 472.478C1077.56 471.938 1077.25 471.212 1077.25 470.3C1077.25 469.34 1077.55 468.602 1078.15 468.086C1078.76 467.558 1079.63 467.294 1080.74 467.294C1081.93 467.294 1082.94 467.534 1083.77 468.014V467.564C1083.77 466.88 1083.56 466.376 1083.14 466.052C1082.73 465.716 1082.08 465.548 1081.19 465.548C1080.67 465.548 1080.15 465.602 1079.65 465.71C1079.15 465.806 1078.71 465.944 1078.31 466.124V464.648C1078.67 464.48 1079.14 464.348 1079.72 464.252C1080.29 464.144 1080.85 464.09 1081.39 464.09C1082.82 464.09 1083.88 464.408 1084.56 465.044C1085.26 465.668 1085.6 466.538 1085.6 467.654V473H1083.89V472.028C1083.52 472.436 1083.08 472.748 1082.56 472.964C1082.06 473.168 1081.44 473.27 1080.71 473.27ZM1081.16 471.884C1081.73 471.884 1082.26 471.77 1082.72 471.542C1083.19 471.314 1083.54 470.996 1083.77 470.588V469.418C1082.99 468.914 1082.12 468.662 1081.16 468.662C1080.46 468.662 1079.94 468.8 1079.59 469.076C1079.26 469.34 1079.09 469.748 1079.09 470.3C1079.09 471.356 1079.78 471.884 1081.16 471.884ZM1087.86 464.36H1089.62V465.602C1090.03 465.086 1090.53 464.708 1091.12 464.468C1091.72 464.216 1092.34 464.09 1092.99 464.09C1094.14 464.09 1095 464.396 1095.56 465.008C1096.13 465.62 1096.41 466.442 1096.41 467.474V473H1094.59V467.654C1094.59 466.25 1093.92 465.548 1092.58 465.548C1092 465.548 1091.46 465.686 1090.96 465.962C1090.46 466.226 1090.04 466.634 1089.68 467.186V473H1087.86V464.36ZM1099.68 476.564C1099.03 476.564 1098.49 476.498 1098.06 476.366V474.944C1098.37 475.064 1098.76 475.124 1099.21 475.124C1099.63 475.124 1099.96 475.016 1100.2 474.8C1100.44 474.596 1100.66 474.26 1100.85 473.792L1101.26 472.784L1097.48 464.36H1099.36L1102.24 471.002L1104.92 464.36H1106.79L1102.9 473.972C1102.54 474.872 1102.11 475.526 1101.61 475.934C1101.11 476.354 1100.47 476.564 1099.68 476.564ZM1116.13 462.668C1115.83 462.668 1115.58 462.566 1115.38 462.362C1115.17 462.158 1115.07 461.906 1115.07 461.606C1115.07 461.306 1115.17 461.054 1115.38 460.85C1115.58 460.646 1115.83 460.544 1116.13 460.544C1116.44 460.544 1116.7 460.646 1116.91 460.85C1117.12 461.054 1117.23 461.306 1117.23 461.606C1117.23 461.906 1117.12 462.158 1116.91 462.362C1116.7 462.566 1116.44 462.668 1116.13 462.668ZM1115.21 464.36H1117.07V473H1115.21V464.36ZM1119.57 464.36H1121.33V465.602C1121.74 465.086 1122.24 464.708 1122.83 464.468C1123.43 464.216 1124.05 464.09 1124.7 464.09C1125.85 464.09 1126.71 464.396 1127.27 465.008C1127.84 465.62 1128.12 466.442 1128.12 467.474V473H1126.3V467.654C1126.3 466.25 1125.63 465.548 1124.29 465.548C1123.71 465.548 1123.17 465.686 1122.67 465.962C1122.17 466.226 1121.75 466.634 1121.39 467.186V473H1119.57V464.36ZM1130.96 465.764H1129.64V464.36H1130.96V462.668C1130.96 461.672 1131.24 460.916 1131.8 460.4C1132.37 459.872 1133.12 459.608 1134.07 459.608C1134.56 459.608 1135.03 459.68 1135.46 459.824V461.336C1135.12 461.18 1134.77 461.102 1134.41 461.102C1133.85 461.102 1133.44 461.24 1133.17 461.516C1132.91 461.78 1132.78 462.2 1132.78 462.776V464.36H1134.94V465.764H1132.78V473H1130.96V465.764ZM1140.63 473.27C1139.66 473.27 1138.8 473.09 1138.06 472.73C1137.32 472.358 1136.75 471.83 1136.33 471.146C1135.92 470.45 1135.72 469.634 1135.72 468.698C1135.72 467.774 1135.92 466.964 1136.33 466.268C1136.74 465.572 1137.31 465.038 1138.06 464.666C1138.8 464.282 1139.66 464.09 1140.63 464.09C1141.6 464.09 1142.46 464.282 1143.2 464.666C1143.95 465.038 1144.52 465.572 1144.93 466.268C1145.35 466.964 1145.56 467.774 1145.56 468.698C1145.56 469.634 1145.35 470.45 1144.93 471.146C1144.52 471.83 1143.95 472.358 1143.2 472.73C1142.46 473.09 1141.6 473.27 1140.63 473.27ZM1140.63 471.83C1141.57 471.83 1142.31 471.542 1142.86 470.966C1143.41 470.39 1143.69 469.634 1143.69 468.698C1143.69 467.726 1143.41 466.958 1142.86 466.394C1142.31 465.83 1141.57 465.548 1140.63 465.548C1139.69 465.548 1138.95 465.83 1138.4 466.394C1137.85 466.958 1137.57 467.726 1137.57 468.698C1137.57 469.634 1137.85 470.39 1138.4 470.966C1138.95 471.542 1139.69 471.83 1140.63 471.83ZM1147.54 464.36H1149.3V465.908C1149.66 465.38 1150.17 464.99 1150.81 464.738C1151.47 464.486 1152.24 464.36 1153.1 464.36V465.782C1152.18 465.782 1151.38 465.932 1150.72 466.232C1150.06 466.532 1149.61 467.006 1149.36 467.654V473H1147.54V464.36ZM1154.73 464.36H1156.45V465.602C1156.86 465.098 1157.32 464.72 1157.84 464.468C1158.36 464.216 1158.89 464.09 1159.44 464.09C1160.14 464.09 1160.69 464.21 1161.1 464.45C1161.51 464.678 1161.81 465.032 1162 465.512C1162.38 465.044 1162.85 464.69 1163.4 464.45C1163.97 464.21 1164.53 464.09 1165.09 464.09C1166.15 464.09 1166.91 464.36 1167.38 464.9C1167.85 465.428 1168.08 466.214 1168.08 467.258V473H1166.32V467.492C1166.32 466.784 1166.19 466.286 1165.92 465.998C1165.66 465.698 1165.21 465.548 1164.57 465.548C1163.66 465.548 1162.92 465.944 1162.34 466.736C1162.36 466.916 1162.38 467.21 1162.38 467.618V473H1160.61V467.492C1160.61 466.784 1160.49 466.286 1160.25 465.998C1160.01 465.698 1159.58 465.548 1158.96 465.548C1158.04 465.548 1157.23 466.064 1156.51 467.096V473H1154.73V464.36ZM1173.17 473.27C1172.12 473.27 1171.28 473.006 1170.65 472.478C1170.02 471.938 1169.71 471.212 1169.71 470.3C1169.71 469.34 1170.01 468.602 1170.61 468.086C1171.22 467.558 1172.09 467.294 1173.2 467.294C1174.39 467.294 1175.4 467.534 1176.23 468.014V467.564C1176.23 466.88 1176.02 466.376 1175.6 466.052C1175.19 465.716 1174.54 465.548 1173.65 465.548C1173.13 465.548 1172.61 465.602 1172.11 465.71C1171.61 465.806 1171.17 465.944 1170.77 466.124V464.648C1171.13 464.48 1171.6 464.348 1172.18 464.252C1172.75 464.144 1173.31 464.09 1173.85 464.09C1175.28 464.09 1176.34 464.408 1177.02 465.044C1177.72 465.668 1178.06 466.538 1178.06 467.654V473H1176.35V472.028C1175.98 472.436 1175.54 472.748 1175.02 472.964C1174.52 473.168 1173.9 473.27 1173.17 473.27ZM1173.62 471.884C1174.19 471.884 1174.72 471.77 1175.18 471.542C1175.65 471.314 1176 470.996 1176.23 470.588V469.418C1175.45 468.914 1174.58 468.662 1173.62 468.662C1172.92 468.662 1172.4 468.8 1172.05 469.076C1171.72 469.34 1171.55 469.748 1171.55 470.3C1171.55 471.356 1172.24 471.884 1173.62 471.884ZM1183.19 473.27C1182.32 473.27 1181.64 473.018 1181.16 472.514C1180.69 472.01 1180.46 471.296 1180.46 470.372V465.764H1179.14V464.36H1180.46V461.768H1182.29V464.36H1184.42V465.764H1182.29V470.246C1182.29 470.822 1182.4 471.23 1182.62 471.47C1182.85 471.71 1183.25 471.83 1183.84 471.83C1184.19 471.83 1184.54 471.752 1184.89 471.596V473.036C1184.43 473.192 1183.87 473.27 1183.19 473.27ZM1187.66 462.668C1187.36 462.668 1187.11 462.566 1186.9 462.362C1186.7 462.158 1186.6 461.906 1186.6 461.606C1186.6 461.306 1186.7 461.054 1186.9 460.85C1187.11 460.646 1187.36 460.544 1187.66 460.544C1187.97 460.544 1188.23 460.646 1188.43 460.85C1188.65 461.054 1188.76 461.306 1188.76 461.606C1188.76 461.906 1188.65 462.158 1188.43 462.362C1188.23 462.566 1187.97 462.668 1187.66 462.668ZM1186.74 464.36H1188.59V473H1186.74V464.36ZM1195.65 473.27C1194.68 473.27 1193.82 473.09 1193.08 472.73C1192.34 472.358 1191.77 471.83 1191.35 471.146C1190.94 470.45 1190.74 469.634 1190.74 468.698C1190.74 467.774 1190.94 466.964 1191.35 466.268C1191.76 465.572 1192.33 465.038 1193.08 464.666C1193.82 464.282 1194.68 464.09 1195.65 464.09C1196.62 464.09 1197.48 464.282 1198.22 464.666C1198.97 465.038 1199.54 465.572 1199.95 466.268C1200.37 466.964 1200.58 467.774 1200.58 468.698C1200.58 469.634 1200.37 470.45 1199.95 471.146C1199.54 471.83 1198.97 472.358 1198.22 472.73C1197.48 473.09 1196.62 473.27 1195.65 473.27ZM1195.65 471.83C1196.59 471.83 1197.33 471.542 1197.88 470.966C1198.43 470.39 1198.71 469.634 1198.71 468.698C1198.71 467.726 1198.43 466.958 1197.88 466.394C1197.33 465.83 1196.59 465.548 1195.65 465.548C1194.71 465.548 1193.97 465.83 1193.42 466.394C1192.87 466.958 1192.59 467.726 1192.59 468.698C1192.59 469.634 1192.87 470.39 1193.42 470.966C1193.97 471.542 1194.71 471.83 1195.65 471.83ZM1202.56 464.36H1204.32V465.602C1204.73 465.086 1205.23 464.708 1205.81 464.468C1206.41 464.216 1207.04 464.09 1207.69 464.09C1208.84 464.09 1209.7 464.396 1210.26 465.008C1210.82 465.62 1211.11 466.442 1211.11 467.474V473H1209.29V467.654C1209.29 466.25 1208.62 465.548 1207.27 465.548C1206.7 465.548 1206.16 465.686 1205.65 465.962C1205.16 466.226 1204.73 466.634 1204.37 467.186V473H1202.56V464.36ZM815.764 491.764H814.45V490.36H815.764V488.668C815.764 487.672 816.046 486.916 816.61 486.4C817.174 485.872 817.93 485.608 818.878 485.608C819.37 485.608 819.832 485.68 820.264 485.824V487.336C819.928 487.18 819.58 487.102 819.22 487.102C818.656 487.102 818.242 487.24 817.978 487.516C817.714 487.78 817.582 488.2 817.582 488.776V490.36H819.742V491.764H817.582V499H815.764V491.764ZM825.437 499.27C824.465 499.27 823.607 499.09 822.863 498.73C822.131 498.358 821.555 497.83 821.135 497.146C820.727 496.45 820.523 495.634 820.523 494.698C820.523 493.774 820.727 492.964 821.135 492.268C821.543 491.572 822.119 491.038 822.863 490.666C823.607 490.282 824.465 490.09 825.437 490.09C826.409 490.09 827.267 490.282 828.011 490.666C828.755 491.038 829.331 491.572 829.739 492.268C830.159 492.964 830.369 493.774 830.369 494.698C830.369 495.634 830.159 496.45 829.739 497.146C829.331 497.83 828.755 498.358 828.011 498.73C827.267 499.09 826.409 499.27 825.437 499.27ZM825.437 497.83C826.373 497.83 827.117 497.542 827.669 496.966C828.221 496.39 828.497 495.634 828.497 494.698C828.497 493.726 828.221 492.958 827.669 492.394C827.117 491.83 826.373 491.548 825.437 491.548C824.501 491.548 823.757 491.83 823.205 492.394C822.653 492.958 822.377 493.726 822.377 494.698C822.377 495.634 822.653 496.39 823.205 496.966C823.757 497.542 824.501 497.83 825.437 497.83ZM832.344 490.36H834.108V491.908C834.468 491.38 834.972 490.99 835.62 490.738C836.28 490.486 837.042 490.36 837.906 490.36V491.782C836.982 491.782 836.19 491.932 835.53 492.232C834.87 492.532 834.414 493.006 834.162 493.654V499H832.344V490.36ZM850.749 499.27C849.777 499.27 848.919 499.09 848.175 498.73C847.443 498.358 846.867 497.83 846.447 497.146C846.039 496.45 845.835 495.634 845.835 494.698C845.835 493.774 846.039 492.964 846.447 492.268C846.855 491.572 847.431 491.038 848.175 490.666C848.919 490.282 849.777 490.09 850.749 490.09C851.721 490.09 852.579 490.282 853.323 490.666C854.067 491.038 854.643 491.572 855.051 492.268C855.471 492.964 855.681 493.774 855.681 494.698C855.681 495.634 855.471 496.45 855.051 497.146C854.643 497.83 854.067 498.358 853.323 498.73C852.579 499.09 851.721 499.27 850.749 499.27ZM850.749 497.83C851.685 497.83 852.429 497.542 852.981 496.966C853.533 496.39 853.809 495.634 853.809 494.698C853.809 493.726 853.533 492.958 852.981 492.394C852.429 491.83 851.685 491.548 850.749 491.548C849.813 491.548 849.069 491.83 848.517 492.394C847.965 492.958 847.689 493.726 847.689 494.698C847.689 495.634 847.965 496.39 848.517 496.966C849.069 497.542 849.813 497.83 850.749 497.83ZM861.094 499.27C859.93 499.27 859.048 498.958 858.448 498.334C857.86 497.71 857.566 496.876 857.566 495.832V490.36H859.384V495.76C859.384 497.14 860.074 497.83 861.454 497.83C862.666 497.83 863.614 497.284 864.298 496.192V490.36H866.116V499H864.352V497.776C863.944 498.292 863.458 498.67 862.894 498.91C862.342 499.15 861.742 499.27 861.094 499.27ZM868.449 490.36H870.213V491.908C870.573 491.38 871.077 490.99 871.725 490.738C872.385 490.486 873.147 490.36 874.011 490.36V491.782C873.087 491.782 872.295 491.932 871.635 492.232C870.975 492.532 870.519 493.006 870.267 493.654V499H868.449V490.36ZM882.301 490.36H884.065V491.638C884.953 490.606 886.153 490.09 887.665 490.09C888.529 490.09 889.303 490.282 889.987 490.666C890.683 491.05 891.223 491.59 891.607 492.286C892.003 492.97 892.201 493.768 892.201 494.68C892.201 495.58 892.003 496.378 891.607 497.074C891.223 497.77 890.689 498.31 890.005 498.694C889.321 499.078 888.541 499.27 887.665 499.27C886.945 499.27 886.273 499.15 885.649 498.91C885.025 498.67 884.515 498.316 884.119 497.848V502.942H882.301V490.36ZM887.251 497.83C887.839 497.83 888.367 497.704 888.835 497.452C889.315 497.188 889.687 496.816 889.951 496.336C890.227 495.856 890.365 495.304 890.365 494.68C890.365 494.056 890.227 493.51 889.951 493.042C889.687 492.562 889.315 492.196 888.835 491.944C888.367 491.68 887.839 491.548 887.251 491.548C886.519 491.548 885.871 491.74 885.307 492.124C884.755 492.508 884.359 493.036 884.119 493.708V495.652C884.323 496.312 884.713 496.84 885.289 497.236C885.865 497.632 886.519 497.83 887.251 497.83ZM896.823 499.27C895.779 499.27 894.939 499.006 894.303 498.478C893.679 497.938 893.367 497.212 893.367 496.3C893.367 495.34 893.667 494.602 894.267 494.086C894.879 493.558 895.743 493.294 896.859 493.294C898.047 493.294 899.055 493.534 899.883 494.014V493.564C899.883 492.88 899.673 492.376 899.253 492.052C898.845 491.716 898.197 491.548 897.309 491.548C896.781 491.548 896.265 491.602 895.761 491.71C895.269 491.806 894.825 491.944 894.429 492.124V490.648C894.789 490.48 895.257 490.348 895.833 490.252C896.409 490.144 896.967 490.09 897.507 490.09C898.935 490.09 899.991 490.408 900.675 491.044C901.371 491.668 901.719 492.538 901.719 493.654V499H900.009V498.028C899.637 498.436 899.193 498.748 898.677 498.964C898.173 499.168 897.555 499.27 896.823 499.27ZM897.273 497.884C897.849 497.884 898.371 497.77 898.839 497.542C899.307 497.314 899.655 496.996 899.883 496.588V495.418C899.103 494.914 898.233 494.662 897.273 494.662C896.577 494.662 896.055 494.8 895.707 495.076C895.371 495.34 895.203 495.748 895.203 496.3C895.203 497.356 895.893 497.884 897.273 497.884ZM905.037 488.668C904.737 488.668 904.485 488.566 904.281 488.362C904.077 488.158 903.975 487.906 903.975 487.606C903.975 487.306 904.077 487.054 904.281 486.85C904.485 486.646 904.737 486.544 905.037 486.544C905.349 486.544 905.607 486.646 905.811 486.85C906.027 487.054 906.135 487.306 906.135 487.606C906.135 487.906 906.027 488.158 905.811 488.362C905.607 488.566 905.349 488.668 905.037 488.668ZM904.119 490.36H905.973V499H904.119V490.36ZM912.651 499.27C911.787 499.27 911.007 499.084 910.311 498.712C909.627 498.328 909.087 497.794 908.691 497.11C908.307 496.414 908.115 495.61 908.115 494.698C908.115 493.798 908.307 493 908.691 492.304C909.087 491.608 909.627 491.068 910.311 490.684C911.007 490.288 911.787 490.09 912.651 490.09C914.211 490.09 915.393 490.564 916.197 491.512V485.698H918.015V499H916.251V497.74C915.771 498.268 915.243 498.658 914.667 498.91C914.103 499.15 913.431 499.27 912.651 499.27ZM913.065 497.83C913.809 497.83 914.457 497.638 915.009 497.254C915.573 496.858 915.969 496.33 916.197 495.67V493.726C915.993 493.066 915.603 492.538 915.027 492.142C914.463 491.746 913.809 491.548 913.065 491.548C912.477 491.548 911.943 491.68 911.463 491.944C910.995 492.208 910.623 492.58 910.347 493.06C910.083 493.54 909.951 494.086 909.951 494.698C909.951 495.31 910.083 495.856 910.347 496.336C910.623 496.816 910.995 497.188 911.463 497.452C911.943 497.704 912.477 497.83 913.065 497.83ZM931.574 499.27C930.614 499.27 929.762 499.09 929.018 498.73C928.274 498.37 927.692 497.848 927.272 497.164C926.864 496.468 926.66 495.646 926.66 494.698C926.66 493.75 926.864 492.934 927.272 492.25C927.692 491.554 928.274 491.02 929.018 490.648C929.774 490.276 930.638 490.09 931.61 490.09C932.93 490.09 933.986 490.348 934.778 490.864V492.358C933.998 491.818 933.002 491.548 931.79 491.548C930.806 491.548 930.008 491.818 929.396 492.358C928.796 492.886 928.496 493.666 928.496 494.698C928.496 495.73 928.796 496.51 929.396 497.038C929.996 497.566 930.782 497.83 931.754 497.83C932.966 497.83 934.01 497.542 934.886 496.966V498.442C934.466 498.73 933.986 498.94 933.446 499.072C932.918 499.204 932.294 499.27 931.574 499.27ZM936.863 485.698H938.681V491.548C939.509 490.576 940.613 490.09 941.993 490.09C943.145 490.09 944.003 490.396 944.567 491.008C945.131 491.62 945.413 492.442 945.413 493.474V499H943.595V493.654C943.595 492.25 942.923 491.548 941.579 491.548C941.003 491.548 940.463 491.686 939.959 491.962C939.467 492.226 939.041 492.634 938.681 493.186V499H936.863V485.698ZM950.489 499.27C949.445 499.27 948.605 499.006 947.969 498.478C947.345 497.938 947.033 497.212 947.033 496.3C947.033 495.34 947.333 494.602 947.933 494.086C948.545 493.558 949.409 493.294 950.525 493.294C951.713 493.294 952.721 493.534 953.549 494.014V493.564C953.549 492.88 953.339 492.376 952.919 492.052C952.511 491.716 951.863 491.548 950.975 491.548C950.447 491.548 949.931 491.602 949.427 491.71C948.935 491.806 948.491 491.944 948.095 492.124V490.648C948.455 490.48 948.923 490.348 949.499 490.252C950.075 490.144 950.633 490.09 951.173 490.09C952.601 490.09 953.657 490.408 954.341 491.044C955.037 491.668 955.385 492.538 955.385 493.654V499H953.675V498.028C953.303 498.436 952.859 498.748 952.343 498.964C951.839 499.168 951.221 499.27 950.489 499.27ZM950.939 497.884C951.515 497.884 952.037 497.77 952.505 497.542C952.973 497.314 953.321 496.996 953.549 496.588V495.418C952.769 494.914 951.899 494.662 950.939 494.662C950.243 494.662 949.721 494.8 949.373 495.076C949.037 495.34 948.869 495.748 948.869 496.3C948.869 497.356 949.559 497.884 950.939 497.884ZM957.641 490.36H959.405V491.602C959.813 491.086 960.311 490.708 960.899 490.468C961.499 490.216 962.123 490.09 962.771 490.09C963.923 490.09 964.781 490.396 965.345 491.008C965.909 491.62 966.191 492.442 966.191 493.474V499H964.373V493.654C964.373 492.25 963.701 491.548 962.357 491.548C961.781 491.548 961.241 491.686 960.737 491.962C960.245 492.226 959.819 492.634 959.459 493.186V499H957.641V490.36ZM968.434 490.36H970.198V491.602C970.606 491.086 971.104 490.708 971.692 490.468C972.292 490.216 972.916 490.09 973.564 490.09C974.716 490.09 975.574 490.396 976.138 491.008C976.702 491.62 976.984 492.442 976.984 493.474V499H975.166V493.654C975.166 492.25 974.494 491.548 973.15 491.548C972.574 491.548 972.034 491.686 971.53 491.962C971.038 492.226 970.612 492.634 970.252 493.186V499H968.434V490.36ZM983.979 499.27C982.383 499.27 981.129 498.874 980.217 498.082C979.317 497.278 978.867 496.15 978.867 494.698C978.867 493.282 979.269 492.16 980.073 491.332C980.889 490.504 982.047 490.09 983.547 490.09C984.543 490.09 985.389 490.282 986.085 490.666C986.781 491.038 987.303 491.56 987.651 492.232C988.011 492.892 988.191 493.648 988.191 494.5V495.4H980.595C980.655 496.216 980.997 496.828 981.621 497.236C982.257 497.632 983.115 497.83 984.195 497.83C984.747 497.83 985.305 497.782 985.869 497.686C986.433 497.578 986.931 497.44 987.363 497.272V498.73C986.979 498.886 986.469 499.012 985.833 499.108C985.209 499.216 984.591 499.27 983.979 499.27ZM986.481 494.122C986.457 493.306 986.187 492.676 985.671 492.232C985.167 491.776 984.447 491.548 983.511 491.548C982.599 491.548 981.891 491.782 981.387 492.25C980.883 492.718 980.619 493.342 980.595 494.122H986.481ZM990.178 485.698H991.996V499H990.178V485.698ZM997.53 499.27C996.93 499.27 996.294 499.192 995.622 499.036C994.95 498.892 994.422 498.694 994.038 498.442V496.894C994.506 497.17 995.046 497.398 995.658 497.578C996.27 497.746 996.864 497.83 997.44 497.83C998.088 497.83 998.562 497.752 998.862 497.596C999.162 497.44 999.312 497.188 999.312 496.84C999.312 496.576 999.24 496.366 999.096 496.21C998.964 496.042 998.73 495.892 998.394 495.76C998.07 495.628 997.578 495.472 996.918 495.292C996.21 495.088 995.646 494.884 995.226 494.68C994.818 494.464 994.506 494.194 994.29 493.87C994.086 493.546 993.984 493.126 993.984 492.61C993.984 491.782 994.308 491.158 994.956 490.738C995.616 490.306 996.498 490.09 997.602 490.09C998.178 490.09 998.742 490.144 999.294 490.252C999.846 490.36 1000.29 490.51 1000.63 490.702V492.214C1000.28 492.01 999.846 491.848 999.33 491.728C998.826 491.608 998.31 491.548 997.782 491.548C997.146 491.548 996.66 491.626 996.324 491.782C995.988 491.938 995.82 492.214 995.82 492.61C995.82 492.862 995.892 493.066 996.036 493.222C996.18 493.378 996.408 493.516 996.72 493.636C997.044 493.744 997.554 493.888 998.25 494.068C999.342 494.368 1000.1 494.722 1000.52 495.13C1000.95 495.538 1001.17 496.102 1001.17 496.822C1001.17 497.566 1000.86 498.16 1000.25 498.604C999.636 499.048 998.73 499.27 997.53 499.27ZM1010.87 488.668C1010.57 488.668 1010.32 488.566 1010.12 488.362C1009.91 488.158 1009.81 487.906 1009.81 487.606C1009.81 487.306 1009.91 487.054 1010.12 486.85C1010.32 486.646 1010.57 486.544 1010.87 486.544C1011.19 486.544 1011.44 486.646 1011.65 486.85C1011.86 487.054 1011.97 487.306 1011.97 487.606C1011.97 487.906 1011.86 488.158 1011.65 488.362C1011.44 488.566 1011.19 488.668 1010.87 488.668ZM1009.96 490.36H1011.81V499H1009.96V490.36ZM1017.5 499.27C1016.9 499.27 1016.26 499.192 1015.59 499.036C1014.92 498.892 1014.39 498.694 1014.01 498.442V496.894C1014.47 497.17 1015.01 497.398 1015.63 497.578C1016.24 497.746 1016.83 497.83 1017.41 497.83C1018.06 497.83 1018.53 497.752 1018.83 497.596C1019.13 497.44 1019.28 497.188 1019.28 496.84C1019.28 496.576 1019.21 496.366 1019.06 496.21C1018.93 496.042 1018.7 495.892 1018.36 495.76C1018.04 495.628 1017.55 495.472 1016.89 495.292C1016.18 495.088 1015.61 494.884 1015.19 494.68C1014.79 494.464 1014.47 494.194 1014.26 493.87C1014.05 493.546 1013.95 493.126 1013.95 492.61C1013.95 491.782 1014.28 491.158 1014.92 490.738C1015.58 490.306 1016.47 490.09 1017.57 490.09C1018.15 490.09 1018.71 490.144 1019.26 490.252C1019.81 490.36 1020.26 490.51 1020.59 490.702V492.214C1020.25 492.01 1019.81 491.848 1019.3 491.728C1018.79 491.608 1018.28 491.548 1017.75 491.548C1017.11 491.548 1016.63 491.626 1016.29 491.782C1015.96 491.938 1015.79 492.214 1015.79 492.61C1015.79 492.862 1015.86 493.066 1016 493.222C1016.15 493.378 1016.38 493.516 1016.69 493.636C1017.01 493.744 1017.52 493.888 1018.22 494.068C1019.31 494.368 1020.07 494.722 1020.49 495.13C1020.92 495.538 1021.13 496.102 1021.13 496.822C1021.13 497.566 1020.83 498.16 1020.22 498.604C1019.6 499.048 1018.7 499.27 1017.5 499.27ZM1032.97 499.27C1032.37 499.27 1031.73 499.192 1031.06 499.036C1030.39 498.892 1029.86 498.694 1029.48 498.442V496.894C1029.94 497.17 1030.48 497.398 1031.1 497.578C1031.71 497.746 1032.3 497.83 1032.88 497.83C1033.53 497.83 1034 497.752 1034.3 497.596C1034.6 497.44 1034.75 497.188 1034.75 496.84C1034.75 496.576 1034.68 496.366 1034.53 496.21C1034.4 496.042 1034.17 495.892 1033.83 495.76C1033.51 495.628 1033.02 495.472 1032.36 495.292C1031.65 495.088 1031.08 494.884 1030.66 494.68C1030.26 494.464 1029.94 494.194 1029.73 493.87C1029.52 493.546 1029.42 493.126 1029.42 492.61C1029.42 491.782 1029.75 491.158 1030.39 490.738C1031.05 490.306 1031.94 490.09 1033.04 490.09C1033.62 490.09 1034.18 490.144 1034.73 490.252C1035.28 490.36 1035.73 490.51 1036.06 490.702V492.214C1035.72 492.01 1035.28 491.848 1034.77 491.728C1034.26 491.608 1033.75 491.548 1033.22 491.548C1032.58 491.548 1032.1 491.626 1031.76 491.782C1031.43 491.938 1031.26 492.214 1031.26 492.61C1031.26 492.862 1031.33 493.066 1031.47 493.222C1031.62 493.378 1031.85 493.516 1032.16 493.636C1032.48 493.744 1032.99 493.888 1033.69 494.068C1034.78 494.368 1035.54 494.722 1035.96 495.13C1036.39 495.538 1036.6 496.102 1036.6 496.822C1036.6 497.566 1036.3 498.16 1035.69 498.604C1035.07 499.048 1034.17 499.27 1032.97 499.27ZM1041.65 499.27C1040.78 499.27 1040.1 499.018 1039.62 498.514C1039.15 498.01 1038.92 497.296 1038.92 496.372V491.764H1037.6V490.36H1038.92V487.768H1040.75V490.36H1042.88V491.764H1040.75V496.246C1040.75 496.822 1040.86 497.23 1041.08 497.47C1041.31 497.71 1041.71 497.83 1042.3 497.83C1042.65 497.83 1043 497.752 1043.35 497.596V499.036C1042.89 499.192 1042.33 499.27 1041.65 499.27ZM1045.06 490.36H1046.82V491.908C1047.18 491.38 1047.68 490.99 1048.33 490.738C1048.99 490.486 1049.75 490.36 1050.62 490.36V491.782C1049.69 491.782 1048.9 491.932 1048.24 492.232C1047.58 492.532 1047.13 493.006 1046.87 493.654V499H1045.06V490.36ZM1053.31 488.668C1053.01 488.668 1052.76 488.566 1052.55 488.362C1052.35 488.158 1052.25 487.906 1052.25 487.606C1052.25 487.306 1052.35 487.054 1052.55 486.85C1052.76 486.646 1053.01 486.544 1053.31 486.544C1053.62 486.544 1053.88 486.646 1054.08 486.85C1054.3 487.054 1054.41 487.306 1054.41 487.606C1054.41 487.906 1054.3 488.158 1054.08 488.362C1053.88 488.566 1053.62 488.668 1053.31 488.668ZM1052.39 490.36H1054.24V499H1052.39V490.36ZM1061.3 499.27C1060.34 499.27 1059.49 499.09 1058.74 498.73C1058 498.37 1057.42 497.848 1057 497.164C1056.59 496.468 1056.39 495.646 1056.39 494.698C1056.39 493.75 1056.59 492.934 1057 492.25C1057.42 491.554 1058 491.02 1058.74 490.648C1059.5 490.276 1060.36 490.09 1061.34 490.09C1062.66 490.09 1063.71 490.348 1064.5 490.864V492.358C1063.72 491.818 1062.73 491.548 1061.52 491.548C1060.53 491.548 1059.73 491.818 1059.12 492.358C1058.52 492.886 1058.22 493.666 1058.22 494.698C1058.22 495.73 1058.52 496.51 1059.12 497.038C1059.72 497.566 1060.51 497.83 1061.48 497.83C1062.69 497.83 1063.74 497.542 1064.61 496.966V498.442C1064.19 498.73 1063.71 498.94 1063.17 499.072C1062.64 499.204 1062.02 499.27 1061.3 499.27ZM1069.92 499.27C1069.04 499.27 1068.37 499.018 1067.89 498.514C1067.42 498.01 1067.18 497.296 1067.18 496.372V491.764H1065.87V490.36H1067.18V487.768H1069.02V490.36H1071.14V491.764H1069.02V496.246C1069.02 496.822 1069.13 497.23 1069.34 497.47C1069.57 497.71 1069.98 497.83 1070.57 497.83C1070.92 497.83 1071.26 497.752 1071.61 497.596V499.036C1071.16 499.192 1070.59 499.27 1069.92 499.27ZM1073.32 485.698H1075.14V499H1073.32V485.698ZM1079.32 502.564C1078.68 502.564 1078.14 502.498 1077.7 502.366V500.944C1078.02 501.064 1078.4 501.124 1078.86 501.124C1079.28 501.124 1079.61 501.016 1079.85 500.8C1080.09 500.596 1080.3 500.26 1080.49 499.792L1080.91 498.784L1077.13 490.36H1079L1081.88 497.002L1084.56 490.36H1086.43L1082.55 499.972C1082.19 500.872 1081.75 501.526 1081.25 501.934C1080.76 502.354 1080.12 502.564 1079.32 502.564ZM1094.71 490.36H1096.48V491.638C1097.37 490.606 1098.57 490.09 1100.08 490.09C1100.94 490.09 1101.72 490.282 1102.4 490.666C1103.1 491.05 1103.64 491.59 1104.02 492.286C1104.42 492.97 1104.61 493.768 1104.61 494.68C1104.61 495.58 1104.42 496.378 1104.02 497.074C1103.64 497.77 1103.1 498.31 1102.42 498.694C1101.73 499.078 1100.95 499.27 1100.08 499.27C1099.36 499.27 1098.69 499.15 1098.06 498.91C1097.44 498.67 1096.93 498.316 1096.53 497.848V502.942H1094.71V490.36ZM1099.66 497.83C1100.25 497.83 1100.78 497.704 1101.25 497.452C1101.73 497.188 1102.1 496.816 1102.36 496.336C1102.64 495.856 1102.78 495.304 1102.78 494.68C1102.78 494.056 1102.64 493.51 1102.36 493.042C1102.1 492.562 1101.73 492.196 1101.25 491.944C1100.78 491.68 1100.25 491.548 1099.66 491.548C1098.93 491.548 1098.28 491.74 1097.72 492.124C1097.17 492.508 1096.77 493.036 1096.53 493.708V495.652C1096.74 496.312 1097.13 496.84 1097.7 497.236C1098.28 497.632 1098.93 497.83 1099.66 497.83ZM1106.6 490.36H1108.36V491.908C1108.72 491.38 1109.23 490.99 1109.87 490.738C1110.53 490.486 1111.3 490.36 1112.16 490.36V491.782C1111.24 491.782 1110.44 491.932 1109.78 492.232C1109.12 492.532 1108.67 493.006 1108.42 493.654V499H1106.6V490.36ZM1118.08 499.27C1117.11 499.27 1116.25 499.09 1115.5 498.73C1114.77 498.358 1114.2 497.83 1113.78 497.146C1113.37 496.45 1113.16 495.634 1113.16 494.698C1113.16 493.774 1113.37 492.964 1113.78 492.268C1114.18 491.572 1114.76 491.038 1115.5 490.666C1116.25 490.282 1117.11 490.09 1118.08 490.09C1119.05 490.09 1119.91 490.282 1120.65 490.666C1121.4 491.038 1121.97 491.572 1122.38 492.268C1122.8 492.964 1123.01 493.774 1123.01 494.698C1123.01 495.634 1122.8 496.45 1122.38 497.146C1121.97 497.83 1121.4 498.358 1120.65 498.73C1119.91 499.09 1119.05 499.27 1118.08 499.27ZM1118.08 497.83C1119.01 497.83 1119.76 497.542 1120.31 496.966C1120.86 496.39 1121.14 495.634 1121.14 494.698C1121.14 493.726 1120.86 492.958 1120.31 492.394C1119.76 491.83 1119.01 491.548 1118.08 491.548C1117.14 491.548 1116.4 491.83 1115.85 492.394C1115.29 492.958 1115.02 493.726 1115.02 494.698C1115.02 495.634 1115.29 496.39 1115.85 496.966C1116.4 497.542 1117.14 497.83 1118.08 497.83ZM1124.98 485.698H1126.8V491.548C1127.63 490.576 1128.73 490.09 1130.11 490.09C1131.27 490.09 1132.12 490.396 1132.69 491.008C1133.25 491.62 1133.53 492.442 1133.53 493.474V499H1131.72V493.654C1131.72 492.25 1131.04 491.548 1129.7 491.548C1129.12 491.548 1128.58 491.686 1128.08 491.962C1127.59 492.226 1127.16 492.634 1126.8 493.186V499H1124.98V485.698ZM1136.84 488.668C1136.54 488.668 1136.29 488.566 1136.08 488.362C1135.88 488.158 1135.78 487.906 1135.78 487.606C1135.78 487.306 1135.88 487.054 1136.08 486.85C1136.29 486.646 1136.54 486.544 1136.84 486.544C1137.15 486.544 1137.41 486.646 1137.61 486.85C1137.83 487.054 1137.94 487.306 1137.94 487.606C1137.94 487.906 1137.83 488.158 1137.61 488.362C1137.41 488.566 1137.15 488.668 1136.84 488.668ZM1135.92 490.36H1137.78V499H1135.92V490.36ZM1145.64 499.27C1144.86 499.27 1144.18 499.15 1143.61 498.91C1143.04 498.658 1142.52 498.268 1142.04 497.74V499H1140.28V485.698H1142.1V491.512C1142.49 491.044 1143 490.69 1143.63 490.45C1144.25 490.21 1144.92 490.09 1145.64 490.09C1146.51 490.09 1147.28 490.288 1147.96 490.684C1148.66 491.068 1149.2 491.608 1149.58 492.304C1149.98 493 1150.18 493.798 1150.18 494.698C1150.18 495.61 1149.98 496.414 1149.58 497.11C1149.2 497.794 1148.66 498.328 1147.96 498.712C1147.28 499.084 1146.51 499.27 1145.64 499.27ZM1145.23 497.83C1145.82 497.83 1146.34 497.704 1146.81 497.452C1147.29 497.188 1147.66 496.816 1147.93 496.336C1148.2 495.856 1148.34 495.31 1148.34 494.698C1148.34 494.086 1148.2 493.54 1147.93 493.06C1147.66 492.58 1147.29 492.208 1146.81 491.944C1146.34 491.68 1145.82 491.548 1145.23 491.548C1144.5 491.548 1143.84 491.746 1143.27 492.142C1142.69 492.538 1142.3 493.066 1142.1 493.726V495.67C1142.32 496.33 1142.71 496.858 1143.27 497.254C1143.83 497.638 1144.48 497.83 1145.23 497.83ZM1153.22 488.668C1152.92 488.668 1152.67 488.566 1152.47 488.362C1152.26 488.158 1152.16 487.906 1152.16 487.606C1152.16 487.306 1152.26 487.054 1152.47 486.85C1152.67 486.646 1152.92 486.544 1153.22 486.544C1153.53 486.544 1153.79 486.646 1154 486.85C1154.21 487.054 1154.32 487.306 1154.32 487.606C1154.32 487.906 1154.21 488.158 1154 488.362C1153.79 488.566 1153.53 488.668 1153.22 488.668ZM1152.3 490.36H1154.16V499H1152.3V490.36ZM1159.99 499.27C1159.11 499.27 1158.44 499.018 1157.96 498.514C1157.49 498.01 1157.25 497.296 1157.25 496.372V491.764H1155.94V490.36H1157.25V487.768H1159.09V490.36H1161.21V491.764H1159.09V496.246C1159.09 496.822 1159.2 497.23 1159.41 497.47C1159.64 497.71 1160.05 497.83 1160.64 497.83C1160.99 497.83 1161.33 497.752 1161.68 497.596V499.036C1161.23 499.192 1160.66 499.27 1159.99 499.27ZM1168.14 499.27C1166.55 499.27 1165.29 498.874 1164.38 498.082C1163.48 497.278 1163.03 496.15 1163.03 494.698C1163.03 493.282 1163.43 492.16 1164.24 491.332C1165.05 490.504 1166.21 490.09 1167.71 490.09C1168.71 490.09 1169.55 490.282 1170.25 490.666C1170.95 491.038 1171.47 491.56 1171.82 492.232C1172.18 492.892 1172.36 493.648 1172.36 494.5V495.4H1164.76C1164.82 496.216 1165.16 496.828 1165.79 497.236C1166.42 497.632 1167.28 497.83 1168.36 497.83C1168.91 497.83 1169.47 497.782 1170.03 497.686C1170.6 497.578 1171.1 497.44 1171.53 497.272V498.73C1171.14 498.886 1170.63 499.012 1170 499.108C1169.37 499.216 1168.76 499.27 1168.14 499.27ZM1170.65 494.122C1170.62 493.306 1170.35 492.676 1169.84 492.232C1169.33 491.776 1168.61 491.548 1167.68 491.548C1166.76 491.548 1166.06 491.782 1165.55 492.25C1165.05 492.718 1164.78 493.342 1164.76 494.122H1170.65ZM1178.52 499.27C1177.66 499.27 1176.88 499.084 1176.18 498.712C1175.5 498.328 1174.96 497.794 1174.56 497.11C1174.18 496.414 1173.98 495.61 1173.98 494.698C1173.98 493.798 1174.18 493 1174.56 492.304C1174.96 491.608 1175.5 491.068 1176.18 490.684C1176.88 490.288 1177.66 490.09 1178.52 490.09C1180.08 490.09 1181.26 490.564 1182.07 491.512V485.698H1183.88V499H1182.12V497.74C1181.64 498.268 1181.11 498.658 1180.54 498.91C1179.97 499.15 1179.3 499.27 1178.52 499.27ZM1178.93 497.83C1179.68 497.83 1180.33 497.638 1180.88 497.254C1181.44 496.858 1181.84 496.33 1182.07 495.67V493.726C1181.86 493.066 1181.47 492.538 1180.9 492.142C1180.33 491.746 1179.68 491.548 1178.93 491.548C1178.35 491.548 1177.81 491.68 1177.33 491.944C1176.86 492.208 1176.49 492.58 1176.22 493.06C1175.95 493.54 1175.82 494.086 1175.82 494.698C1175.82 495.31 1175.95 495.856 1176.22 496.336C1176.49 496.816 1176.86 497.188 1177.33 497.452C1177.81 497.704 1178.35 497.83 1178.93 497.83ZM818.266 525.27C817.222 525.27 816.382 525.006 815.746 524.478C815.122 523.938 814.81 523.212 814.81 522.3C814.81 521.34 815.11 520.602 815.71 520.086C816.322 519.558 817.186 519.294 818.302 519.294C819.49 519.294 820.498 519.534 821.326 520.014V519.564C821.326 518.88 821.116 518.376 820.696 518.052C820.288 517.716 819.64 517.548 818.752 517.548C818.224 517.548 817.708 517.602 817.204 517.71C816.712 517.806 816.268 517.944 815.872 518.124V516.648C816.232 516.48 816.7 516.348 817.276 516.252C817.852 516.144 818.41 516.09 818.95 516.09C820.378 516.09 821.434 516.408 822.118 517.044C822.814 517.668 823.162 518.538 823.162 519.654V525H821.452V524.028C821.08 524.436 820.636 524.748 820.12 524.964C819.616 525.168 818.998 525.27 818.266 525.27ZM818.716 523.884C819.292 523.884 819.814 523.77 820.282 523.542C820.75 523.314 821.098 522.996 821.326 522.588V521.418C820.546 520.914 819.676 520.662 818.716 520.662C818.02 520.662 817.498 520.8 817.15 521.076C816.814 521.34 816.646 521.748 816.646 522.3C816.646 523.356 817.336 523.884 818.716 523.884ZM825.418 516.36H827.182V517.602C827.59 517.086 828.088 516.708 828.676 516.468C829.276 516.216 829.9 516.09 830.548 516.09C831.7 516.09 832.558 516.396 833.122 517.008C833.686 517.62 833.968 518.442 833.968 519.474V525H832.15V519.654C832.15 518.25 831.478 517.548 830.134 517.548C829.558 517.548 829.018 517.686 828.514 517.962C828.022 518.226 827.596 518.634 827.236 519.186V525H825.418V516.36ZM840.387 525.27C839.523 525.27 838.743 525.084 838.047 524.712C837.363 524.328 836.823 523.794 836.427 523.11C836.043 522.414 835.851 521.61 835.851 520.698C835.851 519.798 836.043 519 836.427 518.304C836.823 517.608 837.363 517.068 838.047 516.684C838.743 516.288 839.523 516.09 840.387 516.09C841.947 516.09 843.129 516.564 843.933 517.512V511.698H845.751V525H843.987V523.74C843.507 524.268 842.979 524.658 842.403 524.91C841.839 525.15 841.167 525.27 840.387 525.27ZM840.801 523.83C841.545 523.83 842.193 523.638 842.745 523.254C843.309 522.858 843.705 522.33 843.933 521.67V519.726C843.729 519.066 843.339 518.538 842.763 518.142C842.199 517.746 841.545 517.548 840.801 517.548C840.213 517.548 839.679 517.68 839.199 517.944C838.731 518.208 838.359 518.58 838.083 519.06C837.819 519.54 837.687 520.086 837.687 520.698C837.687 521.31 837.819 521.856 838.083 522.336C838.359 522.816 838.731 523.188 839.199 523.452C839.679 523.704 840.213 523.83 840.801 523.83ZM857.852 525.27C856.808 525.27 855.968 525.006 855.332 524.478C854.708 523.938 854.396 523.212 854.396 522.3C854.396 521.34 854.696 520.602 855.296 520.086C855.908 519.558 856.772 519.294 857.888 519.294C859.076 519.294 860.084 519.534 860.912 520.014V519.564C860.912 518.88 860.702 518.376 860.282 518.052C859.874 517.716 859.226 517.548 858.338 517.548C857.81 517.548 857.294 517.602 856.79 517.71C856.298 517.806 855.854 517.944 855.458 518.124V516.648C855.818 516.48 856.286 516.348 856.862 516.252C857.438 516.144 857.996 516.09 858.536 516.09C859.964 516.09 861.02 516.408 861.704 517.044C862.4 517.668 862.748 518.538 862.748 519.654V525H861.038V524.028C860.666 524.436 860.222 524.748 859.706 524.964C859.202 525.168 858.584 525.27 857.852 525.27ZM858.302 523.884C858.878 523.884 859.4 523.77 859.868 523.542C860.336 523.314 860.684 522.996 860.912 522.588V521.418C860.132 520.914 859.262 520.662 858.302 520.662C857.606 520.662 857.084 520.8 856.736 521.076C856.4 521.34 856.232 521.748 856.232 522.3C856.232 523.356 856.922 523.884 858.302 523.884ZM865.004 516.36H866.768V517.602C867.176 517.086 867.674 516.708 868.262 516.468C868.862 516.216 869.486 516.09 870.134 516.09C871.286 516.09 872.144 516.396 872.708 517.008C873.272 517.62 873.554 518.442 873.554 519.474V525H871.736V519.654C871.736 518.25 871.064 517.548 869.72 517.548C869.144 517.548 868.604 517.686 868.1 517.962C867.608 518.226 867.182 518.634 866.822 519.186V525H865.004V516.36ZM876.824 528.564C876.176 528.564 875.636 528.498 875.204 528.366V526.944C875.516 527.064 875.9 527.124 876.356 527.124C876.776 527.124 877.106 527.016 877.346 526.8C877.586 526.596 877.802 526.26 877.994 525.792L878.408 524.784L874.628 516.36H876.5L879.38 523.002L882.062 516.36H883.934L880.046 525.972C879.686 526.872 879.254 527.526 878.75 527.934C878.258 528.354 877.616 528.564 876.824 528.564ZM897.579 525.27C896.799 525.27 896.121 525.15 895.545 524.91C894.981 524.658 894.459 524.268 893.979 523.74V525H892.215V511.698H894.033V517.512C894.429 517.044 894.939 516.69 895.563 516.45C896.187 516.21 896.859 516.09 897.579 516.09C898.443 516.09 899.217 516.288 899.901 516.684C900.597 517.068 901.137 517.608 901.521 518.304C901.917 519 902.115 519.798 902.115 520.698C902.115 521.61 901.917 522.414 901.521 523.11C901.137 523.794 900.597 524.328 899.901 524.712C899.217 525.084 898.443 525.27 897.579 525.27ZM897.165 523.83C897.753 523.83 898.281 523.704 898.749 523.452C899.229 523.188 899.601 522.816 899.865 522.336C900.141 521.856 900.279 521.31 900.279 520.698C900.279 520.086 900.141 519.54 899.865 519.06C899.601 518.58 899.229 518.208 898.749 517.944C898.281 517.68 897.753 517.548 897.165 517.548C896.433 517.548 895.779 517.746 895.203 518.142C894.627 518.538 894.237 519.066 894.033 519.726V521.67C894.261 522.33 894.651 522.858 895.203 523.254C895.767 523.638 896.421 523.83 897.165 523.83ZM904.098 516.36H905.862V517.908C906.222 517.38 906.726 516.99 907.374 516.738C908.034 516.486 908.796 516.36 909.66 516.36V517.782C908.736 517.782 907.944 517.932 907.284 518.232C906.624 518.532 906.168 519.006 905.916 519.654V525H904.098V516.36ZM915.494 525.27C913.898 525.27 912.644 524.874 911.732 524.082C910.832 523.278 910.382 522.15 910.382 520.698C910.382 519.282 910.784 518.16 911.588 517.332C912.404 516.504 913.562 516.09 915.062 516.09C916.058 516.09 916.904 516.282 917.6 516.666C918.296 517.038 918.818 517.56 919.166 518.232C919.526 518.892 919.706 519.648 919.706 520.5V521.4H912.11C912.17 522.216 912.512 522.828 913.136 523.236C913.772 523.632 914.63 523.83 915.71 523.83C916.262 523.83 916.82 523.782 917.384 523.686C917.948 523.578 918.446 523.44 918.878 523.272V524.73C918.494 524.886 917.984 525.012 917.348 525.108C916.724 525.216 916.106 525.27 915.494 525.27ZM917.996 520.122C917.972 519.306 917.702 518.676 917.186 518.232C916.682 517.776 915.962 517.548 915.026 517.548C914.114 517.548 913.406 517.782 912.902 518.25C912.398 518.718 912.134 519.342 912.11 520.122H917.996ZM924.789 525.27C923.745 525.27 922.905 525.006 922.269 524.478C921.645 523.938 921.333 523.212 921.333 522.3C921.333 521.34 921.633 520.602 922.233 520.086C922.845 519.558 923.709 519.294 924.825 519.294C926.013 519.294 927.021 519.534 927.849 520.014V519.564C927.849 518.88 927.639 518.376 927.219 518.052C926.811 517.716 926.163 517.548 925.275 517.548C924.747 517.548 924.231 517.602 923.727 517.71C923.235 517.806 922.791 517.944 922.395 518.124V516.648C922.755 516.48 923.223 516.348 923.799 516.252C924.375 516.144 924.933 516.09 925.473 516.09C926.901 516.09 927.957 516.408 928.641 517.044C929.337 517.668 929.685 518.538 929.685 519.654V525H927.975V524.028C927.603 524.436 927.159 524.748 926.643 524.964C926.139 525.168 925.521 525.27 924.789 525.27ZM925.239 523.884C925.815 523.884 926.337 523.77 926.805 523.542C927.273 523.314 927.621 522.996 927.849 522.588V521.418C927.069 520.914 926.199 520.662 925.239 520.662C924.543 520.662 924.021 520.8 923.673 521.076C923.337 521.34 923.169 521.748 923.169 522.3C923.169 523.356 923.859 523.884 925.239 523.884ZM936.144 525.27C935.184 525.27 934.332 525.09 933.588 524.73C932.844 524.37 932.262 523.848 931.842 523.164C931.434 522.468 931.23 521.646 931.23 520.698C931.23 519.75 931.434 518.934 931.842 518.25C932.262 517.554 932.844 517.02 933.588 516.648C934.344 516.276 935.208 516.09 936.18 516.09C937.5 516.09 938.556 516.348 939.348 516.864V518.358C938.568 517.818 937.572 517.548 936.36 517.548C935.376 517.548 934.578 517.818 933.966 518.358C933.366 518.886 933.066 519.666 933.066 520.698C933.066 521.73 933.366 522.51 933.966 523.038C934.566 523.566 935.352 523.83 936.324 523.83C937.536 523.83 938.58 523.542 939.456 522.966V524.442C939.036 524.73 938.556 524.94 938.016 525.072C937.488 525.204 936.864 525.27 936.144 525.27ZM941.434 511.698H943.252V517.548C944.08 516.576 945.184 516.09 946.564 516.09C947.716 516.09 948.574 516.396 949.138 517.008C949.702 517.62 949.984 518.442 949.984 519.474V525H948.166V519.654C948.166 518.25 947.494 517.548 946.15 517.548C945.574 517.548 945.034 517.686 944.53 517.962C944.038 518.226 943.612 518.634 943.252 519.186V525H941.434V511.698ZM963.443 525.27C962.471 525.27 961.613 525.09 960.869 524.73C960.137 524.358 959.561 523.83 959.141 523.146C958.733 522.45 958.529 521.634 958.529 520.698C958.529 519.774 958.733 518.964 959.141 518.268C959.549 517.572 960.125 517.038 960.869 516.666C961.613 516.282 962.471 516.09 963.443 516.09C964.415 516.09 965.273 516.282 966.017 516.666C966.761 517.038 967.337 517.572 967.745 518.268C968.165 518.964 968.375 519.774 968.375 520.698C968.375 521.634 968.165 522.45 967.745 523.146C967.337 523.83 966.761 524.358 966.017 524.73C965.273 525.09 964.415 525.27 963.443 525.27ZM963.443 523.83C964.379 523.83 965.123 523.542 965.675 522.966C966.227 522.39 966.503 521.634 966.503 520.698C966.503 519.726 966.227 518.958 965.675 518.394C965.123 517.83 964.379 517.548 963.443 517.548C962.507 517.548 961.763 517.83 961.211 518.394C960.659 518.958 960.383 519.726 960.383 520.698C960.383 521.634 960.659 522.39 961.211 522.966C961.763 523.542 962.507 523.83 963.443 523.83ZM970.311 517.764H968.997V516.36H970.311V514.668C970.311 513.672 970.593 512.916 971.157 512.4C971.721 511.872 972.477 511.608 973.425 511.608C973.917 511.608 974.379 511.68 974.811 511.824V513.336C974.475 513.18 974.127 513.102 973.767 513.102C973.203 513.102 972.789 513.24 972.525 513.516C972.261 513.78 972.129 514.2 972.129 514.776V516.36H974.289V517.764H972.129V525H970.311V517.764ZM986.055 525.27C985.179 525.27 984.501 525.018 984.021 524.514C983.553 524.01 983.319 523.296 983.319 522.372V517.764H982.005V516.36H983.319V513.768H985.155V516.36H987.279V517.764H985.155V522.246C985.155 522.822 985.263 523.23 985.479 523.47C985.707 523.71 986.115 523.83 986.703 523.83C987.051 523.83 987.399 523.752 987.747 523.596V525.036C987.291 525.192 986.727 525.27 986.055 525.27ZM989.457 511.698H991.275V517.548C992.103 516.576 993.207 516.09 994.587 516.09C995.739 516.09 996.597 516.396 997.161 517.008C997.725 517.62 998.007 518.442 998.007 519.474V525H996.189V519.654C996.189 518.25 995.517 517.548 994.173 517.548C993.597 517.548 993.057 517.686 992.553 517.962C992.061 518.226 991.635 518.634 991.275 519.186V525H989.457V511.698ZM1001.31 514.668C1001.01 514.668 1000.76 514.566 1000.56 514.362C1000.35 514.158 1000.25 513.906 1000.25 513.606C1000.25 513.306 1000.35 513.054 1000.56 512.85C1000.76 512.646 1001.01 512.544 1001.31 512.544C1001.62 512.544 1001.88 512.646 1002.09 512.85C1002.3 513.054 1002.41 513.306 1002.41 513.606C1002.41 513.906 1002.3 514.158 1002.09 514.362C1001.88 514.566 1001.62 514.668 1001.31 514.668ZM1000.39 516.36H1002.25V525H1000.39V516.36ZM1007.94 525.27C1007.34 525.27 1006.7 525.192 1006.03 525.036C1005.36 524.892 1004.83 524.694 1004.44 524.442V522.894C1004.91 523.17 1005.45 523.398 1006.06 523.578C1006.68 523.746 1007.27 523.83 1007.85 523.83C1008.49 523.83 1008.97 523.752 1009.27 523.596C1009.57 523.44 1009.72 523.188 1009.72 522.84C1009.72 522.576 1009.65 522.366 1009.5 522.21C1009.37 522.042 1009.14 521.892 1008.8 521.76C1008.48 521.628 1007.98 521.472 1007.32 521.292C1006.62 521.088 1006.05 520.884 1005.63 520.68C1005.22 520.464 1004.91 520.194 1004.7 519.87C1004.49 519.546 1004.39 519.126 1004.39 518.61C1004.39 517.782 1004.71 517.158 1005.36 516.738C1006.02 516.306 1006.9 516.09 1008.01 516.09C1008.58 516.09 1009.15 516.144 1009.7 516.252C1010.25 516.36 1010.7 516.51 1011.03 516.702V518.214C1010.68 518.01 1010.25 517.848 1009.74 517.728C1009.23 517.608 1008.72 517.548 1008.19 517.548C1007.55 517.548 1007.07 517.626 1006.73 517.782C1006.39 517.938 1006.23 518.214 1006.23 518.61C1006.23 518.862 1006.3 519.066 1006.44 519.222C1006.59 519.378 1006.81 519.516 1007.13 519.636C1007.45 519.744 1007.96 519.888 1008.66 520.068C1009.75 520.368 1010.5 520.722 1010.92 521.13C1011.36 521.538 1011.57 522.102 1011.57 522.822C1011.57 523.566 1011.27 524.16 1010.65 524.604C1010.04 525.048 1009.14 525.27 1007.94 525.27ZM1020.22 516.36H1021.98V517.908C1022.34 517.38 1022.85 516.99 1023.49 516.738C1024.15 516.486 1024.92 516.36 1025.78 516.36V517.782C1024.86 517.782 1024.06 517.932 1023.4 518.232C1022.74 518.532 1022.29 519.006 1022.04 519.654V525H1020.22V516.36ZM1030.76 525.27C1029.59 525.27 1028.71 524.958 1028.11 524.334C1027.52 523.71 1027.23 522.876 1027.23 521.832V516.36H1029.05V521.76C1029.05 523.14 1029.74 523.83 1031.12 523.83C1032.33 523.83 1033.28 523.284 1033.96 522.192V516.36H1035.78V525H1034.02V523.776C1033.61 524.292 1033.12 524.67 1032.56 524.91C1032.01 525.15 1031.41 525.27 1030.76 525.27ZM1038.11 511.698H1039.93V525H1038.11V511.698ZM1047.03 525.27C1045.44 525.27 1044.18 524.874 1043.27 524.082C1042.37 523.278 1041.92 522.15 1041.92 520.698C1041.92 519.282 1042.32 518.16 1043.13 517.332C1043.94 516.504 1045.1 516.09 1046.6 516.09C1047.6 516.09 1048.44 516.282 1049.14 516.666C1049.83 517.038 1050.36 517.56 1050.7 518.232C1051.06 518.892 1051.24 519.648 1051.24 520.5V521.4H1043.65C1043.71 522.216 1044.05 522.828 1044.67 523.236C1045.31 523.632 1046.17 523.83 1047.25 523.83C1047.8 523.83 1048.36 523.782 1048.92 523.686C1049.49 523.578 1049.98 523.44 1050.42 523.272V524.73C1050.03 524.886 1049.52 525.012 1048.89 525.108C1048.26 525.216 1047.64 525.27 1047.03 525.27ZM1049.53 520.122C1049.51 519.306 1049.24 518.676 1048.72 518.232C1048.22 517.776 1047.5 517.548 1046.56 517.548C1045.65 517.548 1044.94 517.782 1044.44 518.25C1043.94 518.718 1043.67 519.342 1043.65 520.122H1049.53ZM1059.53 516.36H1061.39L1063.33 522.768L1065.26 516.36H1066.89L1068.82 522.768L1070.76 516.36H1072.64L1069.83 525H1068.08L1066.08 518.556L1064.09 525H1062.32L1059.53 516.36ZM1075.69 514.668C1075.39 514.668 1075.13 514.566 1074.93 514.362C1074.73 514.158 1074.62 513.906 1074.62 513.606C1074.62 513.306 1074.73 513.054 1074.93 512.85C1075.13 512.646 1075.39 512.544 1075.69 512.544C1076 512.544 1076.26 512.646 1076.46 512.85C1076.68 513.054 1076.78 513.306 1076.78 513.606C1076.78 513.906 1076.68 514.158 1076.46 514.362C1076.26 514.566 1076 514.668 1075.69 514.668ZM1074.77 516.36H1076.62V525H1074.77V516.36ZM1079.12 511.698H1080.94V525H1079.12V511.698ZM1083.29 511.698H1085.11V525H1083.29V511.698ZM1099.48 525.27C1098.7 525.27 1098.02 525.15 1097.45 524.91C1096.88 524.658 1096.36 524.268 1095.88 523.74V525H1094.12V511.698H1095.94V517.512C1096.33 517.044 1096.84 516.69 1097.47 516.45C1098.09 516.21 1098.76 516.09 1099.48 516.09C1100.35 516.09 1101.12 516.288 1101.8 516.684C1102.5 517.068 1103.04 517.608 1103.42 518.304C1103.82 519 1104.02 519.798 1104.02 520.698C1104.02 521.61 1103.82 522.414 1103.42 523.11C1103.04 523.794 1102.5 524.328 1101.8 524.712C1101.12 525.084 1100.35 525.27 1099.48 525.27ZM1099.07 523.83C1099.66 523.83 1100.18 523.704 1100.65 523.452C1101.13 523.188 1101.5 522.816 1101.77 522.336C1102.04 521.856 1102.18 521.31 1102.18 520.698C1102.18 520.086 1102.04 519.54 1101.77 519.06C1101.5 518.58 1101.13 518.208 1100.65 517.944C1100.18 517.68 1099.66 517.548 1099.07 517.548C1098.34 517.548 1097.68 517.746 1097.11 518.142C1096.53 518.538 1096.14 519.066 1095.94 519.726V521.67C1096.16 522.33 1096.55 522.858 1097.11 523.254C1097.67 523.638 1098.32 523.83 1099.07 523.83ZM1110.75 525.27C1109.16 525.27 1107.9 524.874 1106.99 524.082C1106.09 523.278 1105.64 522.15 1105.64 520.698C1105.64 519.282 1106.04 518.16 1106.85 517.332C1107.66 516.504 1108.82 516.09 1110.32 516.09C1111.32 516.09 1112.16 516.282 1112.86 516.666C1113.55 517.038 1114.08 517.56 1114.42 518.232C1114.78 518.892 1114.96 519.648 1114.96 520.5V521.4H1107.37C1107.43 522.216 1107.77 522.828 1108.39 523.236C1109.03 523.632 1109.89 523.83 1110.97 523.83C1111.52 523.83 1112.08 523.782 1112.64 523.686C1113.21 523.578 1113.7 523.44 1114.14 523.272V524.73C1113.75 524.886 1113.24 525.012 1112.61 525.108C1111.98 525.216 1111.36 525.27 1110.75 525.27ZM1113.25 520.122C1113.23 519.306 1112.96 518.676 1112.44 518.232C1111.94 517.776 1111.22 517.548 1110.28 517.548C1109.37 517.548 1108.66 517.782 1108.16 518.25C1107.66 518.718 1107.39 519.342 1107.37 520.122H1113.25ZM1123.61 516.36H1125.34V517.602C1125.75 517.098 1126.21 516.72 1126.73 516.468C1127.24 516.216 1127.78 516.09 1128.33 516.09C1129.03 516.09 1129.58 516.21 1129.99 516.45C1130.39 516.678 1130.69 517.032 1130.89 517.512C1131.27 517.044 1131.74 516.69 1132.29 516.45C1132.85 516.21 1133.42 516.09 1133.98 516.09C1135.04 516.09 1135.8 516.36 1136.27 516.9C1136.74 517.428 1136.97 518.214 1136.97 519.258V525H1135.21V519.492C1135.21 518.784 1135.07 518.286 1134.81 517.998C1134.55 517.698 1134.1 517.548 1133.46 517.548C1132.55 517.548 1131.8 517.944 1131.23 518.736C1131.25 518.916 1131.26 519.21 1131.26 519.618V525H1129.5V519.492C1129.5 518.784 1129.38 518.286 1129.14 517.998C1128.9 517.698 1128.47 517.548 1127.84 517.548C1126.93 517.548 1126.12 518.064 1125.4 519.096V525H1123.61V516.36ZM1143.97 525.27C1142.38 525.27 1141.12 524.874 1140.21 524.082C1139.31 523.278 1138.86 522.15 1138.86 520.698C1138.86 519.282 1139.26 518.16 1140.07 517.332C1140.88 516.504 1142.04 516.09 1143.54 516.09C1144.54 516.09 1145.38 516.282 1146.08 516.666C1146.78 517.038 1147.3 517.56 1147.65 518.232C1148.01 518.892 1148.19 519.648 1148.19 520.5V521.4H1140.59C1140.65 522.216 1140.99 522.828 1141.62 523.236C1142.25 523.632 1143.11 523.83 1144.19 523.83C1144.74 523.83 1145.3 523.782 1145.86 523.686C1146.43 523.578 1146.93 523.44 1147.36 523.272V524.73C1146.97 524.886 1146.46 525.012 1145.83 525.108C1145.2 525.216 1144.59 525.27 1143.97 525.27ZM1146.48 520.122C1146.45 519.306 1146.18 518.676 1145.67 518.232C1145.16 517.776 1144.44 517.548 1143.51 517.548C1142.59 517.548 1141.89 517.782 1141.38 518.25C1140.88 518.718 1140.61 519.342 1140.59 520.122H1146.48ZM1153.5 525.27C1152.63 525.27 1151.95 525.018 1151.47 524.514C1151 524.01 1150.77 523.296 1150.77 522.372V517.764H1149.45V516.36H1150.77V513.768H1152.6V516.36H1154.73V517.764H1152.6V522.246C1152.6 522.822 1152.71 523.23 1152.93 523.47C1153.16 523.71 1153.56 523.83 1154.15 523.83C1154.5 523.83 1154.85 523.752 1155.2 523.596V525.036C1154.74 525.192 1154.18 525.27 1153.5 525.27ZM1163.21 516.36H1165.06L1167.01 522.768L1168.93 516.36H1170.57L1172.5 522.768L1174.44 516.36H1176.31L1173.5 525H1171.76L1169.76 518.556L1167.76 525H1166L1163.21 516.36ZM1179.36 514.668C1179.06 514.668 1178.81 514.566 1178.6 514.362C1178.4 514.158 1178.3 513.906 1178.3 513.606C1178.3 513.306 1178.4 513.054 1178.6 512.85C1178.81 512.646 1179.06 512.544 1179.36 512.544C1179.67 512.544 1179.93 512.646 1180.13 512.85C1180.35 513.054 1180.46 513.306 1180.46 513.606C1180.46 513.906 1180.35 514.158 1180.13 514.362C1179.93 514.566 1179.67 514.668 1179.36 514.668ZM1178.44 516.36H1180.3V525H1178.44V516.36ZM1186.13 525.27C1185.25 525.27 1184.57 525.018 1184.09 524.514C1183.63 524.01 1183.39 523.296 1183.39 522.372V517.764H1182.08V516.36H1183.39V513.768H1185.23V516.36H1187.35V517.764H1185.23V522.246C1185.23 522.822 1185.34 523.23 1185.55 523.47C1185.78 523.71 1186.19 523.83 1186.78 523.83C1187.12 523.83 1187.47 523.752 1187.82 523.596V525.036C1187.36 525.192 1186.8 525.27 1186.13 525.27ZM1189.53 511.698H1191.35V517.548C1192.18 516.576 1193.28 516.09 1194.66 516.09C1195.81 516.09 1196.67 516.396 1197.24 517.008C1197.8 517.62 1198.08 518.442 1198.08 519.474V525H1196.26V519.654C1196.26 518.25 1195.59 517.548 1194.25 517.548C1193.67 517.548 1193.13 517.686 1192.63 517.962C1192.14 518.226 1191.71 518.634 1191.35 519.186V525H1189.53V511.698ZM818.266 551.27C817.222 551.27 816.382 551.006 815.746 550.478C815.122 549.938 814.81 549.212 814.81 548.3C814.81 547.34 815.11 546.602 815.71 546.086C816.322 545.558 817.186 545.294 818.302 545.294C819.49 545.294 820.498 545.534 821.326 546.014V545.564C821.326 544.88 821.116 544.376 820.696 544.052C820.288 543.716 819.64 543.548 818.752 543.548C818.224 543.548 817.708 543.602 817.204 543.71C816.712 543.806 816.268 543.944 815.872 544.124V542.648C816.232 542.48 816.7 542.348 817.276 542.252C817.852 542.144 818.41 542.09 818.95 542.09C820.378 542.09 821.434 542.408 822.118 543.044C822.814 543.668 823.162 544.538 823.162 545.654V551H821.452V550.028C821.08 550.436 820.636 550.748 820.12 550.964C819.616 551.168 818.998 551.27 818.266 551.27ZM818.716 549.884C819.292 549.884 819.814 549.77 820.282 549.542C820.75 549.314 821.098 548.996 821.326 548.588V547.418C820.546 546.914 819.676 546.662 818.716 546.662C818.02 546.662 817.498 546.8 817.15 547.076C816.814 547.34 816.646 547.748 816.646 548.3C816.646 549.356 817.336 549.884 818.716 549.884ZM832.08 537.698H833.898V551H832.08V537.698ZM837.308 540.668C837.008 540.668 836.756 540.566 836.552 540.362C836.348 540.158 836.246 539.906 836.246 539.606C836.246 539.306 836.348 539.054 836.552 538.85C836.756 538.646 837.008 538.544 837.308 538.544C837.62 538.544 837.878 538.646 838.082 538.85C838.298 539.054 838.406 539.306 838.406 539.606C838.406 539.906 838.298 540.158 838.082 540.362C837.878 540.566 837.62 540.668 837.308 540.668ZM836.39 542.36H838.244V551H836.39V542.36ZM841.34 543.764H840.026V542.36H841.34V540.668C841.34 539.672 841.622 538.916 842.186 538.4C842.75 537.872 843.506 537.608 844.454 537.608C844.946 537.608 845.408 537.68 845.84 537.824V539.336C845.504 539.18 845.156 539.102 844.796 539.102C844.232 539.102 843.818 539.24 843.554 539.516C843.29 539.78 843.158 540.2 843.158 540.776V542.36H845.318V543.764H843.158V551H841.34V543.764ZM851.844 551.27C850.248 551.27 848.994 550.874 848.082 550.082C847.182 549.278 846.732 548.15 846.732 546.698C846.732 545.282 847.134 544.16 847.938 543.332C848.754 542.504 849.912 542.09 851.412 542.09C852.408 542.09 853.254 542.282 853.95 542.666C854.646 543.038 855.168 543.56 855.516 544.232C855.876 544.892 856.056 545.648 856.056 546.5V547.4H848.46C848.52 548.216 848.862 548.828 849.486 549.236C850.122 549.632 850.98 549.83 852.06 549.83C852.612 549.83 853.17 549.782 853.734 549.686C854.298 549.578 854.796 549.44 855.228 549.272V550.73C854.844 550.886 854.334 551.012 853.698 551.108C853.074 551.216 852.456 551.27 851.844 551.27ZM854.346 546.122C854.322 545.306 854.052 544.676 853.536 544.232C853.032 543.776 852.312 543.548 851.376 543.548C850.464 543.548 849.756 543.782 849.252 544.25C848.748 544.718 848.484 545.342 848.46 546.122H854.346ZM861.373 551.27C860.497 551.27 859.819 551.018 859.339 550.514C858.871 550.01 858.637 549.296 858.637 548.372V543.764H857.323V542.36H858.637V539.768H860.473V542.36H862.597V543.764H860.473V548.246C860.473 548.822 860.581 549.23 860.797 549.47C861.025 549.71 861.433 549.83 862.021 549.83C862.369 549.83 862.717 549.752 863.065 549.596V551.036C862.609 551.192 862.045 551.27 861.373 551.27ZM865.837 540.668C865.537 540.668 865.285 540.566 865.081 540.362C864.877 540.158 864.775 539.906 864.775 539.606C864.775 539.306 864.877 539.054 865.081 538.85C865.285 538.646 865.537 538.544 865.837 538.544C866.149 538.544 866.407 538.646 866.611 538.85C866.827 539.054 866.935 539.306 866.935 539.606C866.935 539.906 866.827 540.158 866.611 540.362C866.407 540.566 866.149 540.668 865.837 540.668ZM864.919 542.36H866.773V551H864.919V542.36ZM869.275 542.36H871.003V543.602C871.411 543.098 871.873 542.72 872.389 542.468C872.905 542.216 873.439 542.09 873.991 542.09C874.687 542.09 875.239 542.21 875.647 542.45C876.055 542.678 876.355 543.032 876.547 543.512C876.931 543.044 877.399 542.69 877.951 542.45C878.515 542.21 879.079 542.09 879.643 542.09C880.699 542.09 881.461 542.36 881.929 542.9C882.397 543.428 882.631 544.214 882.631 545.258V551H880.867V545.492C880.867 544.784 880.735 544.286 880.471 543.998C880.207 543.698 879.757 543.548 879.121 543.548C878.209 543.548 877.465 543.944 876.889 544.736C876.913 544.916 876.925 545.21 876.925 545.618V551H875.161V545.492C875.161 544.784 875.041 544.286 874.801 543.998C874.561 543.698 874.129 543.548 873.505 543.548C872.593 543.548 871.777 544.064 871.057 545.096V551H869.275V542.36ZM889.637 551.27C888.041 551.27 886.787 550.874 885.875 550.082C884.975 549.278 884.525 548.15 884.525 546.698C884.525 545.282 884.927 544.16 885.731 543.332C886.547 542.504 887.705 542.09 889.205 542.09C890.201 542.09 891.047 542.282 891.743 542.666C892.439 543.038 892.961 543.56 893.309 544.232C893.669 544.892 893.849 545.648 893.849 546.5V547.4H886.253C886.313 548.216 886.655 548.828 887.279 549.236C887.915 549.632 888.773 549.83 889.853 549.83C890.405 549.83 890.963 549.782 891.527 549.686C892.091 549.578 892.589 549.44 893.021 549.272V550.73C892.637 550.886 892.127 551.012 891.491 551.108C890.867 551.216 890.249 551.27 889.637 551.27ZM892.139 546.122C892.115 545.306 891.845 544.676 891.329 544.232C890.825 543.776 890.105 543.548 889.169 543.548C888.257 543.548 887.549 543.782 887.045 544.25C886.541 544.718 886.277 545.342 886.253 546.122H892.139ZM907.862 551.27C907.082 551.27 906.404 551.15 905.828 550.91C905.264 550.658 904.742 550.268 904.262 549.74V551H902.498V537.698H904.316V543.512C904.712 543.044 905.222 542.69 905.846 542.45C906.47 542.21 907.142 542.09 907.862 542.09C908.726 542.09 909.5 542.288 910.184 542.684C910.88 543.068 911.42 543.608 911.804 544.304C912.2 545 912.398 545.798 912.398 546.698C912.398 547.61 912.2 548.414 911.804 549.11C911.42 549.794 910.88 550.328 910.184 550.712C909.5 551.084 908.726 551.27 907.862 551.27ZM907.448 549.83C908.036 549.83 908.564 549.704 909.032 549.452C909.512 549.188 909.884 548.816 910.148 548.336C910.424 547.856 910.562 547.31 910.562 546.698C910.562 546.086 910.424 545.54 910.148 545.06C909.884 544.58 909.512 544.208 909.032 543.944C908.564 543.68 908.036 543.548 907.448 543.548C906.716 543.548 906.062 543.746 905.486 544.142C904.91 544.538 904.52 545.066 904.316 545.726V547.67C904.544 548.33 904.934 548.858 905.486 549.254C906.05 549.638 906.704 549.83 907.448 549.83ZM917.02 551.27C915.976 551.27 915.136 551.006 914.5 550.478C913.876 549.938 913.564 549.212 913.564 548.3C913.564 547.34 913.864 546.602 914.464 546.086C915.076 545.558 915.94 545.294 917.056 545.294C918.244 545.294 919.252 545.534 920.08 546.014V545.564C920.08 544.88 919.87 544.376 919.45 544.052C919.042 543.716 918.394 543.548 917.506 543.548C916.978 543.548 916.462 543.602 915.958 543.71C915.466 543.806 915.022 543.944 914.626 544.124V542.648C914.986 542.48 915.454 542.348 916.03 542.252C916.606 542.144 917.164 542.09 917.704 542.09C919.132 542.09 920.188 542.408 920.872 543.044C921.568 543.668 921.916 544.538 921.916 545.654V551H920.206V550.028C919.834 550.436 919.39 550.748 918.874 550.964C918.37 551.168 917.752 551.27 917.02 551.27ZM917.47 549.884C918.046 549.884 918.568 549.77 919.036 549.542C919.504 549.314 919.852 548.996 920.08 548.588V547.418C919.3 546.914 918.43 546.662 917.47 546.662C916.774 546.662 916.252 546.8 915.904 547.076C915.568 547.34 915.4 547.748 915.4 548.3C915.4 549.356 916.09 549.884 917.47 549.884ZM924.172 542.36H925.936V543.602C926.344 543.086 926.842 542.708 927.43 542.468C928.03 542.216 928.654 542.09 929.302 542.09C930.454 542.09 931.312 542.396 931.876 543.008C932.44 543.62 932.722 544.442 932.722 545.474V551H930.904V545.654C930.904 544.25 930.232 543.548 928.888 543.548C928.312 543.548 927.772 543.686 927.268 543.962C926.776 544.226 926.35 544.634 925.99 545.186V551H924.172V542.36ZM942.221 543.764H940.907V542.36H942.221V540.668C942.221 539.672 942.503 538.916 943.067 538.4C943.631 537.872 944.387 537.608 945.335 537.608C945.827 537.608 946.289 537.68 946.721 537.824V539.336C946.385 539.18 946.037 539.102 945.677 539.102C945.113 539.102 944.699 539.24 944.435 539.516C944.171 539.78 944.039 540.2 944.039 540.776V542.36H946.199V543.764H944.039V551H942.221V543.764ZM947.885 542.36H949.649V543.908C950.009 543.38 950.513 542.99 951.161 542.738C951.821 542.486 952.583 542.36 953.447 542.36V543.782C952.523 543.782 951.731 543.932 951.071 544.232C950.411 544.532 949.955 545.006 949.703 545.654V551H947.885V542.36ZM959.365 551.27C958.393 551.27 957.535 551.09 956.791 550.73C956.059 550.358 955.483 549.83 955.063 549.146C954.655 548.45 954.451 547.634 954.451 546.698C954.451 545.774 954.655 544.964 955.063 544.268C955.471 543.572 956.047 543.038 956.791 542.666C957.535 542.282 958.393 542.09 959.365 542.09C960.337 542.09 961.195 542.282 961.939 542.666C962.683 543.038 963.259 543.572 963.667 544.268C964.087 544.964 964.297 545.774 964.297 546.698C964.297 547.634 964.087 548.45 963.667 549.146C963.259 549.83 962.683 550.358 961.939 550.73C961.195 551.09 960.337 551.27 959.365 551.27ZM959.365 549.83C960.301 549.83 961.045 549.542 961.597 548.966C962.149 548.39 962.425 547.634 962.425 546.698C962.425 545.726 962.149 544.958 961.597 544.394C961.045 543.83 960.301 543.548 959.365 543.548C958.429 543.548 957.685 543.83 957.133 544.394C956.581 544.958 956.305 545.726 956.305 546.698C956.305 547.634 956.581 548.39 957.133 548.966C957.685 549.542 958.429 549.83 959.365 549.83ZM966.272 542.36H968V543.602C968.408 543.098 968.87 542.72 969.386 542.468C969.902 542.216 970.436 542.09 970.988 542.09C971.684 542.09 972.236 542.21 972.644 542.45C973.052 542.678 973.352 543.032 973.544 543.512C973.928 543.044 974.396 542.69 974.948 542.45C975.512 542.21 976.076 542.09 976.64 542.09C977.696 542.09 978.458 542.36 978.926 542.9C979.394 543.428 979.628 544.214 979.628 545.258V551H977.864V545.492C977.864 544.784 977.732 544.286 977.468 543.998C977.204 543.698 976.754 543.548 976.118 543.548C975.206 543.548 974.462 543.944 973.886 544.736C973.91 544.916 973.922 545.21 973.922 545.618V551H972.158V545.492C972.158 544.784 972.038 544.286 971.798 543.998C971.558 543.698 971.126 543.548 970.502 543.548C969.59 543.548 968.774 544.064 968.054 545.096V551H966.272V542.36ZM993.097 551.27C992.125 551.27 991.267 551.09 990.523 550.73C989.791 550.358 989.215 549.83 988.795 549.146C988.387 548.45 988.183 547.634 988.183 546.698C988.183 545.774 988.387 544.964 988.795 544.268C989.203 543.572 989.779 543.038 990.523 542.666C991.267 542.282 992.125 542.09 993.097 542.09C994.069 542.09 994.927 542.282 995.671 542.666C996.415 543.038 996.991 543.572 997.399 544.268C997.819 544.964 998.029 545.774 998.029 546.698C998.029 547.634 997.819 548.45 997.399 549.146C996.991 549.83 996.415 550.358 995.671 550.73C994.927 551.09 994.069 551.27 993.097 551.27ZM993.097 549.83C994.033 549.83 994.777 549.542 995.329 548.966C995.881 548.39 996.157 547.634 996.157 546.698C996.157 545.726 995.881 544.958 995.329 544.394C994.777 543.83 994.033 543.548 993.097 543.548C992.161 543.548 991.417 543.83 990.865 544.394C990.313 544.958 990.037 545.726 990.037 546.698C990.037 547.634 990.313 548.39 990.865 548.966C991.417 549.542 992.161 549.83 993.097 549.83ZM1003.44 551.27C1002.28 551.27 1001.4 550.958 1000.8 550.334C1000.21 549.71 999.914 548.876 999.914 547.832V542.36H1001.73V547.76C1001.73 549.14 1002.42 549.83 1003.8 549.83C1005.01 549.83 1005.96 549.284 1006.65 548.192V542.36H1008.46V551H1006.7V549.776C1006.29 550.292 1005.81 550.67 1005.24 550.91C1004.69 551.15 1004.09 551.27 1003.44 551.27ZM1010.8 542.36H1012.56V543.908C1012.92 543.38 1013.42 542.99 1014.07 542.738C1014.73 542.486 1015.49 542.36 1016.36 542.36V543.782C1015.43 543.782 1014.64 543.932 1013.98 544.232C1013.32 544.532 1012.87 545.006 1012.61 545.654V551H1010.8V542.36ZM1029.17 555.14C1028.58 555.14 1028 555.092 1027.44 554.996C1026.89 554.9 1026.42 554.762 1026.03 554.582V553.088C1026.93 553.496 1027.98 553.7 1029.17 553.7C1030.28 553.7 1031.09 553.454 1031.6 552.962C1032.11 552.482 1032.37 551.75 1032.37 550.766V549.848C1031.58 550.796 1030.41 551.27 1028.88 551.27C1028 551.27 1027.22 551.078 1026.52 550.694C1025.82 550.31 1025.28 549.77 1024.88 549.074C1024.49 548.378 1024.29 547.58 1024.29 546.68C1024.29 545.768 1024.48 544.97 1024.86 544.286C1025.26 543.59 1025.8 543.05 1026.48 542.666C1027.18 542.282 1027.96 542.09 1028.82 542.09C1029.63 542.09 1030.31 542.21 1030.86 542.45C1031.42 542.678 1031.94 543.062 1032.42 543.602V542.36H1034.19V550.568C1034.19 552.044 1033.77 553.172 1032.95 553.952C1032.13 554.744 1030.87 555.14 1029.17 555.14ZM1029.24 549.83C1029.98 549.83 1030.64 549.632 1031.2 549.236C1031.78 548.84 1032.17 548.312 1032.37 547.652V545.708C1032.14 545.036 1031.75 544.508 1031.18 544.124C1030.63 543.74 1029.98 543.548 1029.24 543.548C1028.65 543.548 1028.12 543.68 1027.64 543.944C1027.17 544.196 1026.8 544.562 1026.52 545.042C1026.26 545.522 1026.12 546.068 1026.12 546.68C1026.12 547.304 1026.26 547.856 1026.52 548.336C1026.8 548.804 1027.17 549.17 1027.64 549.434C1028.12 549.698 1028.65 549.83 1029.24 549.83ZM1036.53 542.36H1038.3V543.908C1038.66 543.38 1039.16 542.99 1039.81 542.738C1040.47 542.486 1041.23 542.36 1042.09 542.36V543.782C1041.17 543.782 1040.38 543.932 1039.72 544.232C1039.06 544.532 1038.6 545.006 1038.35 545.654V551H1036.53V542.36ZM1048.01 551.27C1047.04 551.27 1046.18 551.09 1045.44 550.73C1044.71 550.358 1044.13 549.83 1043.71 549.146C1043.3 548.45 1043.1 547.634 1043.1 546.698C1043.1 545.774 1043.3 544.964 1043.71 544.268C1044.12 543.572 1044.69 543.038 1045.44 542.666C1046.18 542.282 1047.04 542.09 1048.01 542.09C1048.98 542.09 1049.84 542.282 1050.59 542.666C1051.33 543.038 1051.91 543.572 1052.31 544.268C1052.73 544.964 1052.94 545.774 1052.94 546.698C1052.94 547.634 1052.73 548.45 1052.31 549.146C1051.91 549.83 1051.33 550.358 1050.59 550.73C1049.84 551.09 1048.98 551.27 1048.01 551.27ZM1048.01 549.83C1048.95 549.83 1049.69 549.542 1050.24 548.966C1050.8 548.39 1051.07 547.634 1051.07 546.698C1051.07 545.726 1050.8 544.958 1050.24 544.394C1049.69 543.83 1048.95 543.548 1048.01 543.548C1047.08 543.548 1046.33 543.83 1045.78 544.394C1045.23 544.958 1044.95 545.726 1044.95 546.698C1044.95 547.634 1045.23 548.39 1045.78 548.966C1046.33 549.542 1047.08 549.83 1048.01 549.83ZM1058.36 551.27C1057.19 551.27 1056.31 550.958 1055.71 550.334C1055.12 549.71 1054.83 548.876 1054.83 547.832V542.36H1056.65V547.76C1056.65 549.14 1057.34 549.83 1058.72 549.83C1059.93 549.83 1060.88 549.284 1061.56 548.192V542.36H1063.38V551H1061.61V549.776C1061.21 550.292 1060.72 550.67 1060.16 550.91C1059.6 551.15 1059 551.27 1058.36 551.27ZM1065.71 542.36H1067.48V543.638C1068.36 542.606 1069.56 542.09 1071.08 542.09C1071.94 542.09 1072.71 542.282 1073.4 542.666C1074.09 543.05 1074.63 543.59 1075.02 544.286C1075.41 544.97 1075.61 545.768 1075.61 546.68C1075.61 547.58 1075.41 548.378 1075.02 549.074C1074.63 549.77 1074.1 550.31 1073.42 550.694C1072.73 551.078 1071.95 551.27 1071.08 551.27C1070.36 551.27 1069.68 551.15 1069.06 550.91C1068.44 550.67 1067.93 550.316 1067.53 549.848V554.942H1065.71V542.36ZM1070.66 549.83C1071.25 549.83 1071.78 549.704 1072.25 549.452C1072.73 549.188 1073.1 548.816 1073.36 548.336C1073.64 547.856 1073.78 547.304 1073.78 546.68C1073.78 546.056 1073.64 545.51 1073.36 545.042C1073.1 544.562 1072.73 544.196 1072.25 543.944C1071.78 543.68 1071.25 543.548 1070.66 543.548C1069.93 543.548 1069.28 543.74 1068.72 544.124C1068.17 544.508 1067.77 545.036 1067.53 545.708V547.652C1067.73 548.312 1068.12 548.84 1068.7 549.236C1069.28 549.632 1069.93 549.83 1070.66 549.83ZM1080.52 551.27C1079.92 551.27 1079.28 551.192 1078.61 551.036C1077.94 550.892 1077.41 550.694 1077.02 550.442V548.894C1077.49 549.17 1078.03 549.398 1078.64 549.578C1079.26 549.746 1079.85 549.83 1080.43 549.83C1081.07 549.83 1081.55 549.752 1081.85 549.596C1082.15 549.44 1082.3 549.188 1082.3 548.84C1082.3 548.576 1082.23 548.366 1082.08 548.21C1081.95 548.042 1081.72 547.892 1081.38 547.76C1081.06 547.628 1080.56 547.472 1079.9 547.292C1079.2 547.088 1078.63 546.884 1078.21 546.68C1077.8 546.464 1077.49 546.194 1077.28 545.87C1077.07 545.546 1076.97 545.126 1076.97 544.61C1076.97 543.782 1077.29 543.158 1077.94 542.738C1078.6 542.306 1079.48 542.09 1080.59 542.09C1081.16 542.09 1081.73 542.144 1082.28 542.252C1082.83 542.36 1083.28 542.51 1083.61 542.702V544.214C1083.26 544.01 1082.83 543.848 1082.32 543.728C1081.81 543.608 1081.3 543.548 1080.77 543.548C1080.13 543.548 1079.65 543.626 1079.31 543.782C1078.97 543.938 1078.81 544.214 1078.81 544.61C1078.81 544.862 1078.88 545.066 1079.02 545.222C1079.17 545.378 1079.39 545.516 1079.71 545.636C1080.03 545.744 1080.54 545.888 1081.24 546.068C1082.33 546.368 1083.08 546.722 1083.5 547.13C1083.94 547.538 1084.15 548.102 1084.15 548.822C1084.15 549.566 1083.85 550.16 1083.23 550.604C1082.62 551.048 1081.72 551.27 1080.52 551.27ZM1086.62 551C1086.38 551 1086.18 550.922 1086.01 550.766C1085.85 550.598 1085.78 550.394 1085.78 550.154C1085.78 549.914 1085.85 549.71 1086.01 549.542C1086.18 549.374 1086.38 549.29 1086.62 549.29C1086.86 549.29 1087.07 549.374 1087.23 549.542C1087.4 549.71 1087.49 549.914 1087.49 550.154C1087.49 550.394 1087.4 550.598 1087.23 550.766C1087.07 550.922 1086.86 551 1086.62 551Z" fill="white"/>
<path d="M615.5 412.5C607.768 412.5 601.5 406.232 601.5 398.5C601.5 390.768 607.768 384.5 615.5 384.5C623.232 384.5 629.5 390.768 629.5 398.5C629.5 406.232 623.232 412.5 615.5 412.5Z" fill="#FF8A37" stroke="#FF8A37"/>
<circle cx="615.5" cy="439.5" r="9" transform="rotate(90 615.5 439.5)" fill="#171717" stroke="#FF8A37"/>
<path d="M615.5 362.5C610.504 362.5 606.5 358.669 606.5 354C606.5 349.331 610.504 345.5 615.5 345.5C620.496 345.5 624.5 349.331 624.5 354C624.5 358.669 620.496 362.5 615.5 362.5Z" fill="#171717" stroke="#FF8A37"/>
<path d="M615.5 488.5C610.504 488.5 606.5 484.669 606.5 480C606.5 475.331 610.504 471.5 615.5 471.5C620.496 471.5 624.5 475.331 624.5 480C624.5 484.669 620.496 488.5 615.5 488.5Z" fill="#171717" stroke="#FF8A37"/>
</g>
<defs>
<linearGradient id="paint0_linear_1144_674" x1="786.29" y1="641.889" x2="786.29" y2="660.922" gradientUnits="userSpaceOnUse">
<stop stop-color="#FF8A37"/>
<stop offset="0.520833" stop-color="#FF8A37" stop-opacity="0.322917"/>
<stop offset="1" stop-color="#FF8A37" stop-opacity="0"/>
</linearGradient>
<linearGradient id="paint1_linear_1144_674" x1="553.106" y1="678.788" x2="1030.11" y2="678.788" gradientUnits="userSpaceOnUse">
<stop offset="0.0516655" stop-color="#171717"/>
<stop offset="0.505208" stop-color="#171717" stop-opacity="0"/>
<stop offset="0.934152" stop-color="#171717"/>
</linearGradient>
<clipPath id="clip0_1144_674">
<rect width="1440" height="876" fill="white"/>
</clipPath>
</defs>
</svg>
