<svg width="1440" height="967" viewBox="0 0 1440 967" fill="none" xmlns="http://www.w3.org/2000/svg">
<g clip-path="url(#clip0_1284_1115)">
<rect width="1440" height="967" fill="#171717"/>
<g clip-path="url(#clip1_1284_1115)">
<path d="M3 472.5L182.248 471.77L361.504 471.35L720 471L1078.5 471.34L1257.75 471.76L1437 472.5L1257.75 473.23L1078.5 473.65L720 474L361.504 473.65L182.248 473.23L3 472.5Z" fill="#FF8B37"/>
</g>
<g clip-path="url(#clip2_1284_1115)">
<path d="M279.5 547.28C320.17 547.28 353.14 514.31 353.14 473.64C353.14 432.97 320.17 400 279.5 400C238.83 400 205.86 432.97 205.86 473.64C205.86 514.31 238.83 547.28 279.5 547.28Z" fill="url(#paint0_radial_1284_1115)"/>
<path d="M279.5 522.91C306.711 522.91 328.77 500.851 328.77 473.64C328.77 446.429 306.711 424.37 279.5 424.37C252.289 424.37 230.23 446.429 230.23 473.64C230.23 500.851 252.289 522.91 279.5 522.91Z" fill="#171717"/>
</g>
<path d="M268.782 606.805C266.636 606.805 264.769 606.291 263.182 605.265C261.596 604.238 260.371 602.768 259.507 600.855C258.667 598.941 258.247 596.678 258.247 594.065C258.247 591.451 258.667 589.188 259.507 587.275C260.347 585.338 261.549 583.856 263.112 582.83C264.699 581.803 266.589 581.29 268.782 581.29C270.952 581.29 272.831 581.803 274.417 582.83C276.004 583.856 277.217 585.338 278.057 587.275C278.897 589.188 279.317 591.451 279.317 594.065C279.317 596.678 278.897 598.941 278.057 600.855C277.217 602.768 276.004 604.238 274.417 605.265C272.831 606.291 270.952 606.805 268.782 606.805ZM268.782 602.815C270.719 602.815 272.212 602.045 273.262 600.505C274.336 598.941 274.872 596.806 274.872 594.1C274.872 591.393 274.347 589.258 273.297 587.695C272.247 586.131 270.754 585.35 268.817 585.35C266.881 585.35 265.376 586.131 264.302 587.695C263.252 589.258 262.727 591.393 262.727 594.1C262.727 596.806 263.252 598.941 264.302 600.505C265.376 602.045 266.869 602.815 268.782 602.815ZM288.285 586.505L283.105 590.25V586.12L288.985 581.815H292.695V606.28H288.285V586.505ZM298.98 606.28C298.49 606.28 298.07 606.116 297.72 605.79C297.37 605.44 297.195 605.02 297.195 604.53C297.195 604.016 297.37 603.585 297.72 603.235C298.07 602.885 298.49 602.71 298.98 602.71C299.47 602.71 299.89 602.885 300.24 603.235C300.59 603.585 300.765 604.016 300.765 604.53C300.765 605.02 300.59 605.44 300.24 605.79C299.89 606.116 299.47 606.28 298.98 606.28ZM113.088 629.02H108.748V627.3H119.488V629.02H115.148V641.28H113.088V629.02ZM122.286 626.5H124.306V633C125.226 631.92 126.453 631.38 127.986 631.38C129.266 631.38 130.22 631.72 130.846 632.4C131.473 633.08 131.786 633.993 131.786 635.14V641.28H129.766V635.34C129.766 633.78 129.02 633 127.526 633C126.886 633 126.286 633.153 125.726 633.46C125.18 633.753 124.706 634.206 124.306 634.82V641.28H122.286V626.5ZM140.559 641.58C138.785 641.58 137.392 641.14 136.379 640.26C135.379 639.366 134.879 638.113 134.879 636.5C134.879 634.926 135.325 633.68 136.219 632.76C137.125 631.84 138.412 631.38 140.079 631.38C141.185 631.38 142.125 631.593 142.899 632.02C143.672 632.433 144.252 633.013 144.639 633.76C145.039 634.493 145.239 635.333 145.239 636.28V637.28H136.799C136.865 638.186 137.245 638.866 137.939 639.32C138.645 639.76 139.599 639.98 140.799 639.98C141.412 639.98 142.032 639.926 142.659 639.82C143.285 639.7 143.839 639.546 144.319 639.36V640.98C143.892 641.153 143.325 641.293 142.619 641.4C141.925 641.52 141.239 641.58 140.559 641.58ZM143.339 635.86C143.312 634.953 143.012 634.253 142.439 633.76C141.879 633.253 141.079 633 140.039 633C139.025 633 138.239 633.26 137.679 633.78C137.119 634.3 136.825 634.993 136.799 635.86H143.339ZM156.849 631.68H158.809V633.1C159.795 631.953 161.129 631.38 162.809 631.38C163.769 631.38 164.629 631.593 165.389 632.02C166.162 632.446 166.762 633.046 167.189 633.82C167.629 634.58 167.849 635.466 167.849 636.48C167.849 637.48 167.629 638.366 167.189 639.14C166.762 639.913 166.169 640.513 165.409 640.94C164.649 641.366 163.782 641.58 162.809 641.58C162.009 641.58 161.262 641.446 160.569 641.18C159.875 640.913 159.309 640.52 158.869 640V645.66H156.849V631.68ZM162.349 639.98C163.002 639.98 163.589 639.84 164.109 639.56C164.642 639.266 165.055 638.853 165.349 638.32C165.655 637.786 165.809 637.173 165.809 636.48C165.809 635.786 165.655 635.18 165.349 634.66C165.055 634.126 164.642 633.72 164.109 633.44C163.589 633.146 163.002 633 162.349 633C161.535 633 160.815 633.213 160.189 633.64C159.575 634.066 159.135 634.653 158.869 635.4V637.56C159.095 638.293 159.529 638.88 160.169 639.32C160.809 639.76 161.535 639.98 162.349 639.98ZM171.052 631.68H173.012V633.4C173.412 632.813 173.972 632.38 174.692 632.1C175.425 631.82 176.272 631.68 177.232 631.68V633.26C176.205 633.26 175.325 633.426 174.592 633.76C173.859 634.093 173.352 634.62 173.072 635.34V641.28H171.052V631.68ZM184.807 641.58C183.727 641.58 182.774 641.38 181.947 640.98C181.134 640.566 180.494 639.98 180.027 639.22C179.574 638.446 179.347 637.54 179.347 636.5C179.347 635.473 179.574 634.573 180.027 633.8C180.481 633.026 181.121 632.433 181.947 632.02C182.774 631.593 183.727 631.38 184.807 631.38C185.887 631.38 186.841 631.593 187.667 632.02C188.494 632.433 189.134 633.026 189.587 633.8C190.054 634.573 190.287 635.473 190.287 636.5C190.287 637.54 190.054 638.446 189.587 639.22C189.134 639.98 188.494 640.566 187.667 640.98C186.841 641.38 185.887 641.58 184.807 641.58ZM184.807 639.98C185.847 639.98 186.674 639.66 187.287 639.02C187.901 638.38 188.207 637.54 188.207 636.5C188.207 635.42 187.901 634.566 187.287 633.94C186.674 633.313 185.847 633 184.807 633C183.767 633 182.941 633.313 182.327 633.94C181.714 634.566 181.407 635.42 181.407 636.5C181.407 637.54 181.714 638.38 182.327 639.02C182.941 639.66 183.767 639.98 184.807 639.98ZM199.149 641.58C198.282 641.58 197.529 641.446 196.889 641.18C196.262 640.9 195.682 640.466 195.149 639.88V641.28H193.189V626.5H195.209V632.96C195.649 632.44 196.215 632.046 196.909 631.78C197.602 631.513 198.349 631.38 199.149 631.38C200.109 631.38 200.969 631.6 201.729 632.04C202.502 632.466 203.102 633.066 203.529 633.84C203.969 634.613 204.189 635.5 204.189 636.5C204.189 637.513 203.969 638.406 203.529 639.18C203.102 639.94 202.502 640.533 201.729 640.96C200.969 641.373 200.109 641.58 199.149 641.58ZM198.689 639.98C199.342 639.98 199.929 639.84 200.449 639.56C200.982 639.266 201.395 638.853 201.689 638.32C201.995 637.786 202.149 637.18 202.149 636.5C202.149 635.82 201.995 635.213 201.689 634.68C201.395 634.146 200.982 633.733 200.449 633.44C199.929 633.146 199.342 633 198.689 633C197.875 633 197.149 633.22 196.509 633.66C195.869 634.1 195.435 634.686 195.209 635.42V637.58C195.462 638.313 195.895 638.9 196.509 639.34C197.135 639.766 197.862 639.98 198.689 639.98ZM207.392 626.5H209.412V641.28H207.392V626.5ZM218.301 641.58C216.527 641.58 215.134 641.14 214.121 640.26C213.121 639.366 212.621 638.113 212.621 636.5C212.621 634.926 213.067 633.68 213.961 632.76C214.867 631.84 216.154 631.38 217.821 631.38C218.927 631.38 219.867 631.593 220.641 632.02C221.414 632.433 221.994 633.013 222.381 633.76C222.781 634.493 222.981 635.333 222.981 636.28V637.28H214.541C214.607 638.186 214.987 638.866 215.681 639.32C216.387 639.76 217.341 639.98 218.541 639.98C219.154 639.98 219.774 639.926 220.401 639.82C221.027 639.7 221.581 639.546 222.061 639.36V640.98C221.634 641.153 221.067 641.293 220.361 641.4C219.667 641.52 218.981 641.58 218.301 641.58ZM221.081 635.86C221.054 634.953 220.754 634.253 220.181 633.76C219.621 633.253 218.821 633 217.781 633C216.767 633 215.981 633.26 215.421 633.78C214.861 634.3 214.567 634.993 214.541 635.86H221.081ZM226.189 631.68H228.109V633.06C228.562 632.5 229.075 632.08 229.649 631.8C230.222 631.52 230.815 631.38 231.429 631.38C232.202 631.38 232.815 631.513 233.269 631.78C233.722 632.033 234.055 632.426 234.269 632.96C234.695 632.44 235.215 632.046 235.829 631.78C236.455 631.513 237.082 631.38 237.709 631.38C238.882 631.38 239.729 631.68 240.249 632.28C240.769 632.866 241.029 633.74 241.029 634.9V641.28H239.069V635.16C239.069 634.373 238.922 633.82 238.629 633.5C238.335 633.166 237.835 633 237.129 633C236.115 633 235.289 633.44 234.649 634.32C234.675 634.52 234.689 634.846 234.689 635.3V641.28H232.729V635.16C232.729 634.373 232.595 633.82 232.329 633.5C232.062 633.166 231.582 633 230.889 633C229.875 633 228.969 633.573 228.169 634.72V641.28H226.189V631.68ZM247.092 644.76C246.132 643.586 245.399 642.253 244.892 640.76C244.386 639.266 244.132 637.64 244.132 635.88C244.132 634.133 244.386 632.513 244.892 631.02C245.399 629.513 246.132 628.173 247.092 627H249.232C248.219 628.293 247.459 629.666 246.952 631.12C246.446 632.573 246.192 634.16 246.192 635.88C246.192 637.6 246.446 639.186 246.952 640.64C247.459 642.093 248.219 643.466 249.232 644.76H247.092ZM255.674 641.58C255.007 641.58 254.301 641.493 253.554 641.32C252.807 641.16 252.221 640.94 251.794 640.66V638.94C252.314 639.246 252.914 639.5 253.594 639.7C254.274 639.886 254.934 639.98 255.574 639.98C256.294 639.98 256.821 639.893 257.154 639.72C257.487 639.546 257.654 639.266 257.654 638.88C257.654 638.586 257.574 638.353 257.414 638.18C257.267 637.993 257.007 637.826 256.634 637.68C256.274 637.533 255.727 637.36 254.994 637.16C254.207 636.933 253.581 636.706 253.114 636.48C252.661 636.24 252.314 635.94 252.074 635.58C251.847 635.22 251.734 634.753 251.734 634.18C251.734 633.26 252.094 632.566 252.814 632.1C253.547 631.62 254.527 631.38 255.754 631.38C256.394 631.38 257.021 631.44 257.634 631.56C258.247 631.68 258.741 631.846 259.114 632.06V633.74C258.727 633.513 258.247 633.333 257.674 633.2C257.114 633.066 256.541 633 255.954 633C255.247 633 254.707 633.086 254.334 633.26C253.961 633.433 253.774 633.74 253.774 634.18C253.774 634.46 253.854 634.686 254.014 634.86C254.174 635.033 254.427 635.186 254.774 635.32C255.134 635.44 255.701 635.6 256.474 635.8C257.687 636.133 258.527 636.526 258.994 636.98C259.474 637.433 259.714 638.06 259.714 638.86C259.714 639.686 259.374 640.346 258.694 640.84C258.014 641.333 257.007 641.58 255.674 641.58ZM262.219 644.76C263.232 643.466 263.992 642.093 264.499 640.64C265.006 639.186 265.259 637.6 265.259 635.88C265.259 634.16 265.006 632.573 264.499 631.12C263.992 629.666 263.232 628.293 262.219 627H264.359C265.319 628.173 266.052 629.513 266.559 631.02C267.066 632.513 267.319 634.133 267.319 635.88C267.319 637.64 267.066 639.266 266.559 640.76C266.052 642.253 265.319 643.586 264.359 644.76H262.219ZM278.523 631.68H280.583L282.743 638.8L284.883 631.68H286.703L288.843 638.8L291.003 631.68H293.083L289.963 641.28H288.023L285.803 634.12L283.583 641.28H281.623L278.523 631.68ZM297.47 629.8C297.137 629.8 296.857 629.686 296.63 629.46C296.404 629.233 296.29 628.953 296.29 628.62C296.29 628.286 296.404 628.006 296.63 627.78C296.857 627.553 297.137 627.44 297.47 627.44C297.817 627.44 298.104 627.553 298.33 627.78C298.57 628.006 298.69 628.286 298.69 628.62C298.69 628.953 298.57 629.233 298.33 629.46C298.104 629.686 297.817 629.8 297.47 629.8ZM296.45 631.68H298.51V641.28H296.45V631.68ZM305.99 641.58C305.017 641.58 304.264 641.3 303.73 640.74C303.21 640.18 302.95 639.386 302.95 638.36V633.24H301.49V631.68H302.95V628.8H304.99V631.68H307.35V633.24H304.99V638.22C304.99 638.86 305.11 639.313 305.35 639.58C305.604 639.846 306.057 639.98 306.71 639.98C307.097 639.98 307.484 639.893 307.87 639.72V641.32C307.364 641.493 306.737 641.58 305.99 641.58ZM310.771 626.5H312.791V633C313.711 631.92 314.937 631.38 316.471 631.38C317.751 631.38 318.704 631.72 319.331 632.4C319.957 633.08 320.271 633.993 320.271 635.14V641.28H318.251V635.34C318.251 633.78 317.504 633 316.011 633C315.371 633 314.771 633.153 314.211 633.46C313.664 633.753 313.191 634.206 312.791 634.82V641.28H310.771V626.5ZM335.865 641.58C334.892 641.58 334.139 641.3 333.605 640.74C333.085 640.18 332.825 639.386 332.825 638.36V633.24H331.365V631.68H332.825V628.8H334.865V631.68H337.225V633.24H334.865V638.22C334.865 638.86 334.985 639.313 335.225 639.58C335.479 639.846 335.932 639.98 336.585 639.98C336.972 639.98 337.359 639.893 337.745 639.72V641.32C337.239 641.493 336.612 641.58 335.865 641.58ZM340.646 626.5H342.666V633C343.586 631.92 344.812 631.38 346.346 631.38C347.626 631.38 348.579 631.72 349.206 632.4C349.832 633.08 350.146 633.993 350.146 635.14V641.28H348.126V635.34C348.126 633.78 347.379 633 345.886 633C345.246 633 344.646 633.153 344.086 633.46C343.539 633.753 343.066 634.206 342.666 634.82V641.28H340.646V626.5ZM358.918 641.58C357.145 641.58 355.751 641.14 354.738 640.26C353.738 639.366 353.238 638.113 353.238 636.5C353.238 634.926 353.685 633.68 354.578 632.76C355.485 631.84 356.771 631.38 358.438 631.38C359.545 631.38 360.485 631.593 361.258 632.02C362.031 632.433 362.611 633.013 362.998 633.76C363.398 634.493 363.598 635.333 363.598 636.28V637.28H355.158C355.225 638.186 355.605 638.866 356.298 639.32C357.005 639.76 357.958 639.98 359.158 639.98C359.771 639.98 360.391 639.926 361.018 639.82C361.645 639.7 362.198 639.546 362.678 639.36V640.98C362.251 641.153 361.685 641.293 360.978 641.4C360.285 641.52 359.598 641.58 358.918 641.58ZM361.698 635.86C361.671 634.953 361.371 634.253 360.798 633.76C360.238 633.253 359.438 633 358.398 633C357.385 633 356.598 633.26 356.038 633.78C355.478 634.3 355.185 634.993 355.158 635.86H361.698ZM380.268 641.58C379.202 641.58 378.255 641.38 377.428 640.98C376.602 640.58 375.955 640 375.488 639.24C375.035 638.466 374.808 637.553 374.808 636.5C374.808 635.446 375.035 634.54 375.488 633.78C375.955 633.006 376.602 632.413 377.428 632C378.268 631.586 379.228 631.38 380.308 631.38C381.775 631.38 382.948 631.666 383.828 632.24V633.9C382.962 633.3 381.855 633 380.508 633C379.415 633 378.528 633.3 377.848 633.9C377.182 634.486 376.848 635.353 376.848 636.5C376.848 637.646 377.182 638.513 377.848 639.1C378.515 639.686 379.388 639.98 380.468 639.98C381.815 639.98 382.975 639.66 383.948 639.02V640.66C383.482 640.98 382.948 641.213 382.348 641.36C381.762 641.506 381.068 641.58 380.268 641.58ZM390.966 641.58C389.672 641.58 388.692 641.233 388.026 640.54C387.372 639.846 387.046 638.92 387.046 637.76V631.68H389.066V637.68C389.066 639.213 389.832 639.98 391.366 639.98C392.712 639.98 393.766 639.373 394.526 638.16V631.68H396.546V641.28H394.586V639.92C394.132 640.493 393.592 640.913 392.966 641.18C392.352 641.446 391.686 641.58 390.966 641.58ZM400.138 631.68H402.098V633.4C402.498 632.813 403.058 632.38 403.778 632.1C404.511 631.82 405.358 631.68 406.318 631.68V633.26C405.291 633.26 404.411 633.426 403.678 633.76C402.945 634.093 402.438 634.62 402.158 635.34V641.28H400.138V631.68ZM409.029 631.68H410.989V633.4C411.389 632.813 411.949 632.38 412.669 632.1C413.402 631.82 414.249 631.68 415.209 631.68V633.26C414.182 633.26 413.302 633.426 412.569 633.76C411.835 634.093 411.329 634.62 411.049 635.34V641.28H409.029V631.68ZM422.691 641.58C420.918 641.58 419.525 641.14 418.511 640.26C417.511 639.366 417.011 638.113 417.011 636.5C417.011 634.926 417.458 633.68 418.351 632.76C419.258 631.84 420.545 631.38 422.211 631.38C423.318 631.38 424.258 631.593 425.031 632.02C425.805 632.433 426.385 633.013 426.771 633.76C427.171 634.493 427.371 635.333 427.371 636.28V637.28H418.931C418.998 638.186 419.378 638.866 420.071 639.32C420.778 639.76 421.731 639.98 422.931 639.98C423.545 639.98 424.165 639.926 424.791 639.82C425.418 639.7 425.971 639.546 426.451 639.36V640.98C426.025 641.153 425.458 641.293 424.751 641.4C424.058 641.52 423.371 641.58 422.691 641.58ZM425.471 635.86C425.445 634.953 425.145 634.253 424.571 633.76C424.011 633.253 423.211 633 422.171 633C421.158 633 420.371 633.26 419.811 633.78C419.251 634.3 418.958 634.993 418.931 635.86H425.471ZM430.579 631.68H432.539V633.06C432.993 632.486 433.546 632.066 434.199 631.8C434.866 631.52 435.559 631.38 436.279 631.38C437.559 631.38 438.513 631.72 439.139 632.4C439.766 633.08 440.079 633.993 440.079 635.14V641.28H438.059V635.34C438.059 633.78 437.313 633 435.819 633C435.179 633 434.579 633.153 434.019 633.46C433.473 633.753 432.999 634.206 432.599 634.82V641.28H430.579V631.68ZM447.271 641.58C446.298 641.58 445.545 641.3 445.011 640.74C444.491 640.18 444.231 639.386 444.231 638.36V633.24H442.771V631.68H444.231V628.8H446.271V631.68H448.631V633.24H446.271V638.22C446.271 638.86 446.391 639.313 446.631 639.58C446.885 639.846 447.338 639.98 447.991 639.98C448.378 639.98 448.765 639.893 449.151 639.72V641.32C448.645 641.493 448.018 641.58 447.271 641.58ZM139.346 666.58C138.28 666.58 137.333 666.38 136.506 665.98C135.68 665.58 135.033 665 134.566 664.24C134.113 663.466 133.886 662.553 133.886 661.5C133.886 660.446 134.113 659.54 134.566 658.78C135.033 658.006 135.68 657.413 136.506 657C137.346 656.586 138.306 656.38 139.386 656.38C140.853 656.38 142.026 656.666 142.906 657.24V658.9C142.04 658.3 140.933 658 139.586 658C138.493 658 137.606 658.3 136.926 658.9C136.26 659.486 135.926 660.353 135.926 661.5C135.926 662.646 136.26 663.513 136.926 664.1C137.593 664.686 138.466 664.98 139.546 664.98C140.893 664.98 142.053 664.66 143.026 664.02V665.66C142.56 665.98 142.026 666.213 141.426 666.36C140.84 666.506 140.146 666.58 139.346 666.58ZM146.224 656.68H148.184V658.4C148.584 657.813 149.144 657.38 149.864 657.1C150.597 656.82 151.444 656.68 152.404 656.68V658.26C151.377 658.26 150.497 658.426 149.764 658.76C149.03 659.093 148.524 659.62 148.244 660.34V666.28H146.224V656.68ZM156.959 670.24C156.239 670.24 155.639 670.166 155.159 670.02V668.44C155.506 668.573 155.932 668.64 156.439 668.64C156.906 668.64 157.272 668.52 157.539 668.28C157.806 668.053 158.046 667.68 158.259 667.16L158.719 666.04L154.519 656.68H156.599L159.799 664.06L162.779 656.68H164.859L160.539 667.36C160.139 668.36 159.659 669.086 159.099 669.54C158.552 670.006 157.839 670.24 156.959 670.24ZM167.15 656.68H169.11V658.1C170.096 656.953 171.43 656.38 173.11 656.38C174.07 656.38 174.93 656.593 175.69 657.02C176.463 657.446 177.063 658.046 177.49 658.82C177.93 659.58 178.15 660.466 178.15 661.48C178.15 662.48 177.93 663.366 177.49 664.14C177.063 664.913 176.47 665.513 175.71 665.94C174.95 666.366 174.083 666.58 173.11 666.58C172.31 666.58 171.563 666.446 170.87 666.18C170.176 665.913 169.61 665.52 169.17 665V670.66H167.15V656.68ZM172.65 664.98C173.303 664.98 173.89 664.84 174.41 664.56C174.943 664.266 175.356 663.853 175.65 663.32C175.956 662.786 176.11 662.173 176.11 661.48C176.11 660.786 175.956 660.18 175.65 659.66C175.356 659.126 174.943 658.72 174.41 658.44C173.89 658.146 173.303 658 172.65 658C171.836 658 171.116 658.213 170.49 658.64C169.876 659.066 169.436 659.653 169.17 660.4V662.56C169.396 663.293 169.83 663.88 170.47 664.32C171.11 664.76 171.836 664.98 172.65 664.98ZM184.35 666.58C183.376 666.58 182.623 666.3 182.09 665.74C181.57 665.18 181.31 664.386 181.31 663.36V658.24H179.85V656.68H181.31V653.8H183.35V656.68H185.71V658.24H183.35V663.22C183.35 663.86 183.47 664.313 183.71 664.58C183.963 664.846 184.416 664.98 185.07 664.98C185.456 664.98 185.843 664.893 186.23 664.72V666.32C185.723 666.493 185.096 666.58 184.35 666.58ZM194.092 666.58C193.012 666.58 192.059 666.38 191.232 665.98C190.419 665.566 189.779 664.98 189.312 664.22C188.859 663.446 188.632 662.54 188.632 661.5C188.632 660.473 188.859 659.573 189.312 658.8C189.766 658.026 190.406 657.433 191.232 657.02C192.059 656.593 193.012 656.38 194.092 656.38C195.172 656.38 196.126 656.593 196.952 657.02C197.779 657.433 198.419 658.026 198.872 658.8C199.339 659.573 199.572 660.473 199.572 661.5C199.572 662.54 199.339 663.446 198.872 664.22C198.419 664.98 197.779 665.566 196.952 665.98C196.126 666.38 195.172 666.58 194.092 666.58ZM194.092 664.98C195.132 664.98 195.959 664.66 196.572 664.02C197.186 663.38 197.492 662.54 197.492 661.5C197.492 660.42 197.186 659.566 196.572 658.94C195.959 658.313 195.132 658 194.092 658C193.052 658 192.226 658.313 191.612 658.94C190.999 659.566 190.692 660.42 190.692 661.5C190.692 662.54 190.999 663.38 191.612 664.02C192.226 664.66 193.052 664.98 194.092 664.98ZM214.869 666.58C213.896 666.58 213.142 666.3 212.609 665.74C212.089 665.18 211.829 664.386 211.829 663.36V658.24H210.369V656.68H211.829V653.8H213.869V656.68H216.229V658.24H213.869V663.22C213.869 663.86 213.989 664.313 214.229 664.58C214.482 664.846 214.936 664.98 215.589 664.98C215.976 664.98 216.362 664.893 216.749 664.72V666.32C216.242 666.493 215.616 666.58 214.869 666.58ZM219.65 656.68H221.61V658.4C222.01 657.813 222.57 657.38 223.29 657.1C224.023 656.82 224.87 656.68 225.83 656.68V658.26C224.803 658.26 223.923 658.426 223.19 658.76C222.456 659.093 221.95 659.62 221.67 660.34V666.28H219.65V656.68ZM231.179 666.58C230.019 666.58 229.086 666.286 228.379 665.7C227.686 665.1 227.339 664.293 227.339 663.28C227.339 662.213 227.673 661.393 228.339 660.82C229.019 660.233 229.979 659.94 231.219 659.94C232.539 659.94 233.659 660.206 234.579 660.74V660.24C234.579 659.48 234.346 658.92 233.879 658.56C233.426 658.186 232.706 658 231.719 658C231.133 658 230.559 658.06 229.999 658.18C229.453 658.286 228.959 658.44 228.519 658.64V657C228.919 656.813 229.439 656.666 230.079 656.56C230.719 656.44 231.339 656.38 231.939 656.38C233.526 656.38 234.699 656.733 235.459 657.44C236.233 658.133 236.619 659.1 236.619 660.34V666.28H234.719V665.2C234.306 665.653 233.813 666 233.239 666.24C232.679 666.466 231.993 666.58 231.179 666.58ZM231.679 665.04C232.319 665.04 232.899 664.913 233.419 664.66C233.939 664.406 234.326 664.053 234.579 663.6V662.3C233.713 661.74 232.746 661.46 231.679 661.46C230.906 661.46 230.326 661.613 229.939 661.92C229.566 662.213 229.379 662.666 229.379 663.28C229.379 664.453 230.146 665.04 231.679 665.04ZM244.766 666.58C243.806 666.58 242.94 666.373 242.166 665.96C241.406 665.533 240.806 664.94 240.366 664.18C239.94 663.406 239.726 662.513 239.726 661.5C239.726 660.5 239.94 659.613 240.366 658.84C240.806 658.066 241.406 657.466 242.166 657.04C242.94 656.6 243.806 656.38 244.766 656.38C246.5 656.38 247.813 656.906 248.706 657.96V651.5H250.726V666.28H248.766V664.88C248.233 665.466 247.646 665.9 247.006 666.18C246.38 666.446 245.633 666.58 244.766 666.58ZM245.226 664.98C246.053 664.98 246.773 664.766 247.386 664.34C248.013 663.9 248.453 663.313 248.706 662.58V660.42C248.48 659.686 248.046 659.1 247.406 658.66C246.78 658.22 246.053 658 245.226 658C244.573 658 243.98 658.146 243.446 658.44C242.926 658.733 242.513 659.146 242.206 659.68C241.913 660.213 241.766 660.82 241.766 661.5C241.766 662.18 241.913 662.786 242.206 663.32C242.513 663.853 242.926 664.266 243.446 664.56C243.98 664.84 244.573 664.98 245.226 664.98ZM255.509 654.8C255.176 654.8 254.896 654.686 254.669 654.46C254.443 654.233 254.329 653.953 254.329 653.62C254.329 653.286 254.443 653.006 254.669 652.78C254.896 652.553 255.176 652.44 255.509 652.44C255.856 652.44 256.143 652.553 256.369 652.78C256.609 653.006 256.729 653.286 256.729 653.62C256.729 653.953 256.609 654.233 256.369 654.46C256.143 654.686 255.856 654.8 255.509 654.8ZM254.489 656.68H256.549V666.28H254.489V656.68ZM260.329 656.68H262.289V658.06C262.743 657.486 263.296 657.066 263.949 656.8C264.616 656.52 265.309 656.38 266.029 656.38C267.309 656.38 268.263 656.72 268.889 657.4C269.516 658.08 269.829 658.993 269.829 660.14V666.28H267.809V660.34C267.809 658.78 267.063 658 265.569 658C264.929 658 264.329 658.153 263.769 658.46C263.223 658.753 262.749 659.206 262.349 659.82V666.28H260.329V656.68ZM278.341 670.88C277.688 670.88 277.048 670.826 276.421 670.72C275.808 670.613 275.288 670.46 274.861 670.26V668.6C275.861 669.053 277.021 669.28 278.341 669.28C279.581 669.28 280.481 669.006 281.041 668.46C281.615 667.926 281.901 667.113 281.901 666.02V665C281.021 666.053 279.728 666.58 278.021 666.58C277.048 666.58 276.175 666.366 275.401 665.94C274.628 665.513 274.021 664.913 273.581 664.14C273.141 663.366 272.921 662.48 272.921 661.48C272.921 660.466 273.135 659.58 273.561 658.82C274.001 658.046 274.601 657.446 275.361 657.02C276.135 656.593 277.001 656.38 277.961 656.38C278.855 656.38 279.608 656.513 280.221 656.78C280.848 657.033 281.428 657.46 281.961 658.06V656.68H283.921V665.8C283.921 667.44 283.461 668.693 282.541 669.56C281.635 670.44 280.235 670.88 278.341 670.88ZM278.421 664.98C279.248 664.98 279.975 664.76 280.601 664.32C281.241 663.88 281.675 663.293 281.901 662.56V660.4C281.648 659.653 281.208 659.066 280.581 658.64C279.968 658.213 279.248 658 278.421 658C277.768 658 277.175 658.146 276.641 658.44C276.121 658.72 275.708 659.126 275.401 659.66C275.108 660.193 274.961 660.8 274.961 661.48C274.961 662.173 275.108 662.786 275.401 663.32C275.708 663.84 276.121 664.246 276.641 664.54C277.175 664.833 277.768 664.98 278.421 664.98ZM301.207 666.58C299.434 666.58 298.04 666.14 297.027 665.26C296.027 664.366 295.527 663.113 295.527 661.5C295.527 659.926 295.974 658.68 296.867 657.76C297.774 656.84 299.06 656.38 300.727 656.38C301.834 656.38 302.774 656.593 303.547 657.02C304.32 657.433 304.9 658.013 305.287 658.76C305.687 659.493 305.887 660.333 305.887 661.28V662.28H297.447C297.514 663.186 297.894 663.866 298.587 664.32C299.294 664.76 300.247 664.98 301.447 664.98C302.06 664.98 302.68 664.926 303.307 664.82C303.934 664.7 304.487 664.546 304.967 664.36V665.98C304.54 666.153 303.974 666.293 303.267 666.4C302.574 666.52 301.887 666.58 301.207 666.58ZM303.987 660.86C303.96 659.953 303.66 659.253 303.087 658.76C302.527 658.253 301.727 658 300.687 658C299.674 658 298.887 658.26 298.327 658.78C297.767 659.3 297.474 659.993 297.447 660.86H303.987ZM309.095 656.68H311.055V658.06C311.508 657.486 312.062 657.066 312.715 656.8C313.382 656.52 314.075 656.38 314.795 656.38C316.075 656.38 317.028 656.72 317.655 657.4C318.282 658.08 318.595 658.993 318.595 660.14V666.28H316.575V660.34C316.575 658.78 315.828 658 314.335 658C313.695 658 313.095 658.153 312.535 658.46C311.988 658.753 311.515 659.206 311.115 659.82V666.28H309.095V656.68ZM320.789 656.68H322.929L325.749 663.58L328.569 656.68H330.709L326.629 666.28H324.869L320.789 656.68ZM335.087 654.8C334.754 654.8 334.474 654.686 334.247 654.46C334.021 654.233 333.907 653.953 333.907 653.62C333.907 653.286 334.021 653.006 334.247 652.78C334.474 652.553 334.754 652.44 335.087 652.44C335.434 652.44 335.721 652.553 335.947 652.78C336.187 653.006 336.307 653.286 336.307 653.62C336.307 653.953 336.187 654.233 335.947 654.46C335.721 654.686 335.434 654.8 335.087 654.8ZM334.067 656.68H336.127V666.28H334.067V656.68ZM339.907 656.68H341.867V658.4C342.267 657.813 342.827 657.38 343.547 657.1C344.281 656.82 345.127 656.68 346.087 656.68V658.26C345.061 658.26 344.181 658.426 343.447 658.76C342.714 659.093 342.207 659.62 341.927 660.34V666.28H339.907V656.68ZM353.663 666.58C352.583 666.58 351.629 666.38 350.803 665.98C349.989 665.566 349.349 664.98 348.883 664.22C348.429 663.446 348.203 662.54 348.203 661.5C348.203 660.473 348.429 659.573 348.883 658.8C349.336 658.026 349.976 657.433 350.803 657.02C351.629 656.593 352.583 656.38 353.663 656.38C354.743 656.38 355.696 656.593 356.523 657.02C357.349 657.433 357.989 658.026 358.443 658.8C358.909 659.573 359.143 660.473 359.143 661.5C359.143 662.54 358.909 663.446 358.443 664.22C357.989 664.98 357.349 665.566 356.523 665.98C355.696 666.38 354.743 666.58 353.663 666.58ZM353.663 664.98C354.703 664.98 355.529 664.66 356.143 664.02C356.756 663.38 357.063 662.54 357.063 661.5C357.063 660.42 356.756 659.566 356.143 658.94C355.529 658.313 354.703 658 353.663 658C352.623 658 351.796 658.313 351.183 658.94C350.569 659.566 350.263 660.42 350.263 661.5C350.263 662.54 350.569 663.38 351.183 664.02C351.796 664.66 352.623 664.98 353.663 664.98ZM362.337 656.68H364.297V658.06C364.75 657.486 365.304 657.066 365.957 656.8C366.624 656.52 367.317 656.38 368.037 656.38C369.317 656.38 370.27 656.72 370.897 657.4C371.524 658.08 371.837 658.993 371.837 660.14V666.28H369.817V660.34C369.817 658.78 369.07 658 367.577 658C366.937 658 366.337 658.153 365.777 658.46C365.23 658.753 364.757 659.206 364.357 659.82V666.28H362.337V656.68ZM375.329 656.68H377.249V658.06C377.703 657.5 378.216 657.08 378.789 656.8C379.363 656.52 379.956 656.38 380.569 656.38C381.343 656.38 381.956 656.513 382.409 656.78C382.863 657.033 383.196 657.426 383.409 657.96C383.836 657.44 384.356 657.046 384.969 656.78C385.596 656.513 386.223 656.38 386.849 656.38C388.023 656.38 388.869 656.68 389.389 657.28C389.909 657.866 390.169 658.74 390.169 659.9V666.28H388.209V660.16C388.209 659.373 388.063 658.82 387.769 658.5C387.476 658.166 386.976 658 386.269 658C385.256 658 384.429 658.44 383.789 659.32C383.816 659.52 383.829 659.846 383.829 660.3V666.28H381.869V660.16C381.869 659.373 381.736 658.82 381.469 658.5C381.203 658.166 380.723 658 380.029 658C379.016 658 378.109 658.573 377.309 659.72V666.28H375.329V656.68ZM398.953 666.58C397.18 666.58 395.786 666.14 394.773 665.26C393.773 664.366 393.273 663.113 393.273 661.5C393.273 659.926 393.72 658.68 394.613 657.76C395.52 656.84 396.806 656.38 398.473 656.38C399.58 656.38 400.52 656.593 401.293 657.02C402.066 657.433 402.646 658.013 403.033 658.76C403.433 659.493 403.633 660.333 403.633 661.28V662.28H395.193C395.26 663.186 395.64 663.866 396.333 664.32C397.04 664.76 397.993 664.98 399.193 664.98C399.806 664.98 400.426 664.926 401.053 664.82C401.68 664.7 402.233 664.546 402.713 664.36V665.98C402.286 666.153 401.72 666.293 401.013 666.4C400.32 666.52 399.633 666.58 398.953 666.58ZM401.733 660.86C401.706 659.953 401.406 659.253 400.833 658.76C400.273 658.253 399.473 658 398.433 658C397.42 658 396.633 658.26 396.073 658.78C395.513 659.3 395.22 659.993 395.193 660.86H401.733ZM406.841 656.68H408.801V658.06C409.254 657.486 409.808 657.066 410.461 656.8C411.128 656.52 411.821 656.38 412.541 656.38C413.821 656.38 414.774 656.72 415.401 657.4C416.028 658.08 416.341 658.993 416.341 660.14V666.28H414.321V660.34C414.321 658.78 413.574 658 412.081 658C411.441 658 410.841 658.153 410.281 658.46C409.734 658.753 409.261 659.206 408.861 659.82V666.28H406.841V656.68ZM423.533 666.58C422.56 666.58 421.807 666.3 421.273 665.74C420.753 665.18 420.493 664.386 420.493 663.36V658.24H419.033V656.68H420.493V653.8H422.533V656.68H424.893V658.24H422.533V663.22C422.533 663.86 422.653 664.313 422.893 664.58C423.147 664.846 423.6 664.98 424.253 664.98C424.64 664.98 425.027 664.893 425.413 664.72V666.32C424.907 666.493 424.28 666.58 423.533 666.58Z" fill="#FF8A37"/>
<g clip-path="url(#clip3_1284_1115)">
<path d="M720.5 547.28C761.17 547.28 794.14 514.31 794.14 473.64C794.14 432.97 761.17 400 720.5 400C679.83 400 646.86 432.97 646.86 473.64C646.86 514.31 679.83 547.28 720.5 547.28Z" fill="url(#paint1_radial_1284_1115)"/>
<path d="M720.5 522.91C747.711 522.91 769.77 500.851 769.77 473.64C769.77 446.429 747.711 424.37 720.5 424.37C693.289 424.37 671.23 446.429 671.23 473.64C671.23 500.851 693.289 522.91 720.5 522.91Z" fill="#171717"/>
</g>
<path d="M706.091 606.805C703.944 606.805 702.077 606.291 700.491 605.265C698.904 604.238 697.679 602.768 696.816 600.855C695.976 598.941 695.556 596.678 695.556 594.065C695.556 591.451 695.976 589.188 696.816 587.275C697.656 585.338 698.857 583.856 700.421 582.83C702.007 581.803 703.897 581.29 706.091 581.29C708.261 581.29 710.139 581.803 711.726 582.83C713.312 583.856 714.526 585.338 715.366 587.275C716.206 589.188 716.626 591.451 716.626 594.065C716.626 596.678 716.206 598.941 715.366 600.855C714.526 602.768 713.312 604.238 711.726 605.265C710.139 606.291 708.261 606.805 706.091 606.805ZM706.091 602.815C708.027 602.815 709.521 602.045 710.571 600.505C711.644 598.941 712.181 596.806 712.181 594.1C712.181 591.393 711.656 589.258 710.606 587.695C709.556 586.131 708.062 585.35 706.126 585.35C704.189 585.35 702.684 586.131 701.611 587.695C700.561 589.258 700.036 591.393 700.036 594.1C700.036 596.806 700.561 598.941 701.611 600.505C702.684 602.045 704.177 602.815 706.091 602.815ZM720.413 603.41L725.243 598.965L727.553 596.9C728.837 595.78 729.805 594.881 730.458 594.205C731.135 593.528 731.683 592.805 732.103 592.035C732.523 591.241 732.733 590.39 732.733 589.48C732.733 588.15 732.337 587.135 731.543 586.435C730.773 585.711 729.665 585.35 728.218 585.35C727.098 585.35 725.932 585.56 724.718 585.98C723.528 586.376 722.443 586.948 721.463 587.695V583.46C723.493 582.013 725.99 581.29 728.953 581.29C731.567 581.29 733.597 581.99 735.043 583.39C736.49 584.79 737.213 586.703 737.213 589.13C737.213 590.273 736.992 591.346 736.548 592.35C736.105 593.33 735.475 594.286 734.658 595.22C733.842 596.153 732.733 597.261 731.333 598.545L726.958 602.605H738.088V606.28H720.413V603.41ZM743.672 606.28C743.182 606.28 742.762 606.116 742.412 605.79C742.062 605.44 741.887 605.02 741.887 604.53C741.887 604.016 742.062 603.585 742.412 603.235C742.762 602.885 743.182 602.71 743.672 602.71C744.162 602.71 744.582 602.885 744.932 603.235C745.282 603.585 745.457 604.016 745.457 604.53C745.457 605.02 745.282 605.44 744.932 605.79C744.582 606.116 744.162 606.28 743.672 606.28ZM630.334 641.58C628.948 641.58 627.694 641.28 626.574 640.68C625.454 640.066 624.574 639.206 623.934 638.1C623.294 636.993 622.974 635.726 622.974 634.3C622.974 632.873 623.294 631.606 623.934 630.5C624.574 629.393 625.454 628.533 626.574 627.92C627.694 627.306 628.948 627 630.334 627C631.721 627 632.974 627.306 634.094 627.92C635.214 628.533 636.094 629.393 636.734 630.5C637.374 631.606 637.694 632.873 637.694 634.3C637.694 635.726 637.374 636.993 636.734 638.1C636.094 639.206 635.214 640.066 634.094 640.68C632.974 641.28 631.721 641.58 630.334 641.58ZM630.334 639.74C631.321 639.74 632.214 639.52 633.014 639.08C633.828 638.626 634.468 637.993 634.934 637.18C635.401 636.353 635.634 635.393 635.634 634.3C635.634 633.22 635.401 632.273 634.934 631.46C634.481 630.633 633.854 630 633.054 629.56C632.254 629.106 631.361 628.88 630.374 628.88C629.374 628.88 628.468 629.1 627.654 629.54C626.854 629.98 626.214 630.613 625.734 631.44C625.268 632.266 625.034 633.22 625.034 634.3C625.034 635.393 625.268 636.353 625.734 637.18C626.201 637.993 626.834 638.626 627.634 639.08C628.448 639.52 629.348 639.74 630.334 639.74ZM644.718 641.58C643.424 641.58 642.444 641.233 641.778 640.54C641.124 639.846 640.798 638.92 640.798 637.76V631.68H642.818V637.68C642.818 639.213 643.584 639.98 645.118 639.98C646.464 639.98 647.518 639.373 648.278 638.16V631.68H650.298V641.28H648.338V639.92C647.884 640.493 647.344 640.913 646.718 641.18C646.104 641.446 645.438 641.58 644.718 641.58ZM653.89 631.68H655.85V633.4C656.25 632.813 656.81 632.38 657.53 632.1C658.263 631.82 659.11 631.68 660.07 631.68V633.26C659.043 633.26 658.163 633.426 657.43 633.76C656.697 634.093 656.19 634.62 655.91 635.34V641.28H653.89V631.68ZM672.46 629.8C672.127 629.8 671.847 629.686 671.62 629.46C671.394 629.233 671.28 628.953 671.28 628.62C671.28 628.286 671.394 628.006 671.62 627.78C671.847 627.553 672.127 627.44 672.46 627.44C672.807 627.44 673.094 627.553 673.32 627.78C673.56 628.006 673.68 628.286 673.68 628.62C673.68 628.953 673.56 629.233 673.32 629.46C673.094 629.686 672.807 629.8 672.46 629.8ZM671.44 631.68H673.5V641.28H671.44V631.68ZM677.28 631.68H679.24V633.06C679.694 632.486 680.247 632.066 680.9 631.8C681.567 631.52 682.26 631.38 682.98 631.38C684.26 631.38 685.214 631.72 685.84 632.4C686.467 633.08 686.78 633.993 686.78 635.14V641.28H684.76V635.34C684.76 633.78 684.014 633 682.52 633C681.88 633 681.28 633.153 680.72 633.46C680.174 633.753 679.7 634.206 679.3 634.82V641.28H677.28V631.68ZM691.453 629.8C691.119 629.8 690.839 629.686 690.613 629.46C690.386 629.233 690.273 628.953 690.273 628.62C690.273 628.286 690.386 628.006 690.613 627.78C690.839 627.553 691.119 627.44 691.453 627.44C691.799 627.44 692.086 627.553 692.313 627.78C692.553 628.006 692.673 628.286 692.673 628.62C692.673 628.953 692.553 629.233 692.313 629.46C692.086 629.686 691.799 629.8 691.453 629.8ZM690.433 631.68H692.493V641.28H690.433V631.68ZM699.973 641.58C698.999 641.58 698.246 641.3 697.713 640.74C697.193 640.18 696.933 639.386 696.933 638.36V633.24H695.473V631.68H696.933V628.8H698.973V631.68H701.333V633.24H698.973V638.22C698.973 638.86 699.093 639.313 699.333 639.58C699.586 639.846 700.039 639.98 700.693 639.98C701.079 639.98 701.466 639.893 701.853 639.72V641.32C701.346 641.493 700.719 641.58 699.973 641.58ZM705.933 629.8C705.6 629.8 705.32 629.686 705.093 629.46C704.866 629.233 704.753 628.953 704.753 628.62C704.753 628.286 704.866 628.006 705.093 627.78C705.32 627.553 705.6 627.44 705.933 627.44C706.28 627.44 706.566 627.553 706.793 627.78C707.033 628.006 707.153 628.286 707.153 628.62C707.153 628.953 707.033 629.233 706.793 629.46C706.566 629.686 706.28 629.8 705.933 629.8ZM704.913 631.68H706.973V641.28H704.913V631.68ZM714.193 641.58C713.033 641.58 712.1 641.286 711.393 640.7C710.7 640.1 710.353 639.293 710.353 638.28C710.353 637.213 710.686 636.393 711.353 635.82C712.033 635.233 712.993 634.94 714.233 634.94C715.553 634.94 716.673 635.206 717.593 635.74V635.24C717.593 634.48 717.36 633.92 716.893 633.56C716.44 633.186 715.72 633 714.733 633C714.146 633 713.573 633.06 713.013 633.18C712.466 633.286 711.973 633.44 711.533 633.64V632C711.933 631.813 712.453 631.666 713.093 631.56C713.733 631.44 714.353 631.38 714.953 631.38C716.54 631.38 717.713 631.733 718.473 632.44C719.246 633.133 719.633 634.1 719.633 635.34V641.28H717.733V640.2C717.32 640.653 716.826 641 716.253 641.24C715.693 641.466 715.006 641.58 714.193 641.58ZM714.693 640.04C715.333 640.04 715.913 639.913 716.433 639.66C716.953 639.406 717.34 639.053 717.593 638.6V637.3C716.726 636.74 715.76 636.46 714.693 636.46C713.92 636.46 713.34 636.613 712.953 636.92C712.58 637.213 712.393 637.666 712.393 638.28C712.393 639.453 713.16 640.04 714.693 640.04ZM723.14 626.5H725.16V641.28H723.14V626.5ZM740.711 641.58C740.044 641.58 739.338 641.493 738.591 641.32C737.844 641.16 737.258 640.94 736.831 640.66V638.94C737.351 639.246 737.951 639.5 738.631 639.7C739.311 639.886 739.971 639.98 740.611 639.98C741.331 639.98 741.858 639.893 742.191 639.72C742.524 639.546 742.691 639.266 742.691 638.88C742.691 638.586 742.611 638.353 742.451 638.18C742.304 637.993 742.044 637.826 741.671 637.68C741.311 637.533 740.764 637.36 740.031 637.16C739.244 636.933 738.618 636.706 738.151 636.48C737.698 636.24 737.351 635.94 737.111 635.58C736.884 635.22 736.771 634.753 736.771 634.18C736.771 633.26 737.131 632.566 737.851 632.1C738.584 631.62 739.564 631.38 740.791 631.38C741.431 631.38 742.058 631.44 742.671 631.56C743.284 631.68 743.778 631.846 744.151 632.06V633.74C743.764 633.513 743.284 633.333 742.711 633.2C742.151 633.066 741.578 633 740.991 633C740.284 633 739.744 633.086 739.371 633.26C738.998 633.433 738.811 633.74 738.811 634.18C738.811 634.46 738.891 634.686 739.051 634.86C739.211 635.033 739.464 635.186 739.811 635.32C740.171 635.44 740.738 635.6 741.511 635.8C742.724 636.133 743.564 636.526 744.031 636.98C744.511 637.433 744.751 638.06 744.751 638.86C744.751 639.686 744.411 640.346 743.731 640.84C743.051 641.333 742.044 641.58 740.711 641.58ZM752.723 641.58C751.643 641.58 750.69 641.38 749.863 640.98C749.05 640.566 748.41 639.98 747.943 639.22C747.49 638.446 747.263 637.54 747.263 636.5C747.263 635.473 747.49 634.573 747.943 633.8C748.397 633.026 749.037 632.433 749.863 632.02C750.69 631.593 751.643 631.38 752.723 631.38C753.803 631.38 754.757 631.593 755.583 632.02C756.41 632.433 757.05 633.026 757.503 633.8C757.97 634.573 758.203 635.473 758.203 636.5C758.203 637.54 757.97 638.446 757.503 639.22C757.05 639.98 756.41 640.566 755.583 640.98C754.757 641.38 753.803 641.58 752.723 641.58ZM752.723 639.98C753.763 639.98 754.59 639.66 755.203 639.02C755.817 638.38 756.123 637.54 756.123 636.5C756.123 635.42 755.817 634.566 755.203 633.94C754.59 633.313 753.763 633 752.723 633C751.683 633 750.857 633.313 750.243 633.94C749.63 634.566 749.323 635.42 749.323 636.5C749.323 637.54 749.63 638.38 750.243 639.02C750.857 639.66 751.683 639.98 752.723 639.98ZM761.398 626.5H763.418V641.28H761.398V626.5ZM770.847 641.58C769.553 641.58 768.573 641.233 767.907 640.54C767.253 639.846 766.927 638.92 766.927 637.76V631.68H768.947V637.68C768.947 639.213 769.713 639.98 771.247 639.98C772.593 639.98 773.647 639.373 774.407 638.16V631.68H776.427V641.28H774.467V639.92C774.013 640.493 773.473 640.913 772.847 641.18C772.233 641.446 771.567 641.58 770.847 641.58ZM783.719 641.58C782.745 641.58 781.992 641.3 781.459 640.74C780.939 640.18 780.679 639.386 780.679 638.36V633.24H779.219V631.68H780.679V628.8H782.719V631.68H785.079V633.24H782.719V638.22C782.719 638.86 782.839 639.313 783.079 639.58C783.332 639.846 783.785 639.98 784.439 639.98C784.825 639.98 785.212 639.893 785.599 639.72V641.32C785.092 641.493 784.465 641.58 783.719 641.58ZM789.679 629.8C789.346 629.8 789.066 629.686 788.839 629.46C788.613 629.233 788.499 628.953 788.499 628.62C788.499 628.286 788.613 628.006 788.839 627.78C789.066 627.553 789.346 627.44 789.679 627.44C790.026 627.44 790.313 627.553 790.539 627.78C790.779 628.006 790.899 628.286 790.899 628.62C790.899 628.953 790.779 629.233 790.539 629.46C790.313 629.686 790.026 629.8 789.679 629.8ZM788.659 631.68H790.719V641.28H788.659V631.68ZM799.559 641.58C798.479 641.58 797.526 641.38 796.699 640.98C795.886 640.566 795.246 639.98 794.779 639.22C794.326 638.446 794.099 637.54 794.099 636.5C794.099 635.473 794.326 634.573 794.779 633.8C795.233 633.026 795.873 632.433 796.699 632.02C797.526 631.593 798.479 631.38 799.559 631.38C800.639 631.38 801.593 631.593 802.419 632.02C803.246 632.433 803.886 633.026 804.339 633.8C804.806 634.573 805.039 635.473 805.039 636.5C805.039 637.54 804.806 638.446 804.339 639.22C803.886 639.98 803.246 640.566 802.419 640.98C801.593 641.38 800.639 641.58 799.559 641.58ZM799.559 639.98C800.599 639.98 801.426 639.66 802.039 639.02C802.653 638.38 802.959 637.54 802.959 636.5C802.959 635.42 802.653 634.566 802.039 633.94C801.426 633.313 800.599 633 799.559 633C798.519 633 797.693 633.313 797.079 633.94C796.466 634.566 796.159 635.42 796.159 636.5C796.159 637.54 796.466 638.38 797.079 639.02C797.693 639.66 798.519 639.98 799.559 639.98ZM808.234 631.68H810.194V633.06C810.647 632.486 811.2 632.066 811.854 631.8C812.52 631.52 813.214 631.38 813.934 631.38C815.214 631.38 816.167 631.72 816.794 632.4C817.42 633.08 817.734 633.993 817.734 635.14V641.28H815.714V635.34C815.714 633.78 814.967 633 813.474 633C812.834 633 812.234 633.153 811.674 633.46C811.127 633.753 810.654 634.206 810.254 634.82V641.28H808.234V631.68Z" fill="#FF8A37"/>
<g clip-path="url(#clip4_1284_1115)">
<path d="M1161.5 547.28C1202.17 547.28 1235.14 514.31 1235.14 473.64C1235.14 432.97 1202.17 400 1161.5 400C1120.83 400 1087.86 432.97 1087.86 473.64C1087.86 514.31 1120.83 547.28 1161.5 547.28Z" fill="url(#paint2_radial_1284_1115)"/>
<path d="M1161.5 522.91C1188.71 522.91 1210.77 500.851 1210.77 473.64C1210.77 446.429 1188.71 424.37 1161.5 424.37C1134.29 424.37 1112.23 446.429 1112.23 473.64C1112.23 500.851 1134.29 522.91 1161.5 522.91Z" fill="#171717"/>
</g>
<path d="M1147.18 606.805C1145.03 606.805 1143.16 606.291 1141.58 605.265C1139.99 604.238 1138.76 602.768 1137.9 600.855C1137.06 598.941 1136.64 596.678 1136.64 594.065C1136.64 591.451 1137.06 589.188 1137.9 587.275C1138.74 585.338 1139.94 583.856 1141.51 582.83C1143.09 581.803 1144.98 581.29 1147.18 581.29C1149.35 581.29 1151.22 581.803 1152.81 582.83C1154.4 583.856 1155.61 585.338 1156.45 587.275C1157.29 589.188 1157.71 591.451 1157.71 594.065C1157.71 596.678 1157.29 598.941 1156.45 600.855C1155.61 602.768 1154.4 604.238 1152.81 605.265C1151.22 606.291 1149.35 606.805 1147.18 606.805ZM1147.18 602.815C1149.11 602.815 1150.61 602.045 1151.66 600.505C1152.73 598.941 1153.27 596.806 1153.27 594.1C1153.27 591.393 1152.74 589.258 1151.69 587.695C1150.64 586.131 1149.15 585.35 1147.21 585.35C1145.27 585.35 1143.77 586.131 1142.7 587.695C1141.65 589.258 1141.12 591.393 1141.12 594.1C1141.12 596.806 1141.65 598.941 1142.7 600.505C1143.77 602.045 1145.26 602.815 1147.18 602.815ZM1169.16 606.805C1167.72 606.805 1166.32 606.688 1164.96 606.455C1163.63 606.221 1162.48 605.871 1161.5 605.405V602.01C1163.72 603.013 1166.07 603.515 1168.57 603.515C1170.55 603.515 1172.03 603.165 1173.01 602.465C1174.02 601.741 1174.52 600.715 1174.52 599.385C1174.52 598.008 1174.03 597.04 1173.05 596.48C1172.09 595.896 1170.6 595.605 1168.57 595.605H1165.52V592.175H1168.46C1170.1 592.175 1171.39 591.871 1172.35 591.265C1173.31 590.635 1173.78 589.69 1173.78 588.43C1173.78 587.17 1173.35 586.213 1172.49 585.56C1171.65 584.906 1170.46 584.58 1168.92 584.58C1167.59 584.58 1166.39 584.743 1165.31 585.07C1164.26 585.373 1163.19 585.863 1162.09 586.54V583.11C1164.19 581.896 1166.67 581.29 1169.51 581.29C1172.41 581.29 1174.59 581.908 1176.06 583.145C1177.53 584.358 1178.26 586.061 1178.26 588.255C1178.26 589.468 1177.94 590.565 1177.28 591.545C1176.65 592.525 1175.71 593.295 1174.45 593.855C1175.94 594.298 1177.07 595.01 1177.84 595.99C1178.61 596.946 1179 598.148 1179 599.595C1179 601.858 1178.22 603.631 1176.65 604.915C1175.09 606.175 1172.59 606.805 1169.16 606.805ZM1184.59 606.28C1184.1 606.28 1183.68 606.116 1183.33 605.79C1182.98 605.44 1182.8 605.02 1182.8 604.53C1182.8 604.016 1182.98 603.585 1183.33 603.235C1183.68 602.885 1184.1 602.71 1184.59 602.71C1185.08 602.71 1185.5 602.885 1185.85 603.235C1186.2 603.585 1186.37 604.016 1186.37 604.53C1186.37 605.02 1186.2 605.44 1185.85 605.79C1185.5 606.116 1185.08 606.28 1184.59 606.28ZM1065.91 629.02H1061.57V627.3H1072.31V629.02H1067.97V641.28H1065.91V629.02ZM1075.11 626.5H1077.13V633C1078.05 631.92 1079.27 631.38 1080.81 631.38C1082.09 631.38 1083.04 631.72 1083.67 632.4C1084.29 633.08 1084.61 633.993 1084.61 635.14V641.28H1082.59V635.34C1082.59 633.78 1081.84 633 1080.35 633C1079.71 633 1079.11 633.153 1078.55 633.46C1078 633.753 1077.53 634.206 1077.13 634.82V641.28H1075.11V626.5ZM1093.38 641.58C1091.61 641.58 1090.21 641.14 1089.2 640.26C1088.2 639.366 1087.7 638.113 1087.7 636.5C1087.7 634.926 1088.15 633.68 1089.04 632.76C1089.95 631.84 1091.23 631.38 1092.9 631.38C1094.01 631.38 1094.95 631.593 1095.72 632.02C1096.49 632.433 1097.07 633.013 1097.46 633.76C1097.86 634.493 1098.06 635.333 1098.06 636.28V637.28H1089.62C1089.69 638.186 1090.07 638.866 1090.76 639.32C1091.47 639.76 1092.42 639.98 1093.62 639.98C1094.23 639.98 1094.85 639.926 1095.48 639.82C1096.11 639.7 1096.66 639.546 1097.14 639.36V640.98C1096.71 641.153 1096.15 641.293 1095.44 641.4C1094.75 641.52 1094.06 641.58 1093.38 641.58ZM1096.16 635.86C1096.13 634.953 1095.83 634.253 1095.26 633.76C1094.7 633.253 1093.9 633 1092.86 633C1091.85 633 1091.06 633.26 1090.5 633.78C1089.94 634.3 1089.65 634.993 1089.62 635.86H1096.16ZM1114.73 641.58C1113.66 641.58 1112.72 641.38 1111.89 640.98C1111.06 640.58 1110.42 640 1109.95 639.24C1109.5 638.466 1109.27 637.553 1109.27 636.5C1109.27 635.446 1109.5 634.54 1109.95 633.78C1110.42 633.006 1111.06 632.413 1111.89 632C1112.73 631.586 1113.69 631.38 1114.77 631.38C1116.24 631.38 1117.41 631.666 1118.29 632.24V633.9C1117.42 633.3 1116.32 633 1114.97 633C1113.88 633 1112.99 633.3 1112.31 633.9C1111.64 634.486 1111.31 635.353 1111.31 636.5C1111.31 637.646 1111.64 638.513 1112.31 639.1C1112.98 639.686 1113.85 639.98 1114.93 639.98C1116.28 639.98 1117.44 639.66 1118.41 639.02V640.66C1117.94 640.98 1117.41 641.213 1116.81 641.36C1116.22 641.506 1115.53 641.58 1114.73 641.58ZM1126.37 641.58C1125.29 641.58 1124.34 641.38 1123.51 640.98C1122.7 640.566 1122.06 639.98 1121.59 639.22C1121.14 638.446 1120.91 637.54 1120.91 636.5C1120.91 635.473 1121.14 634.573 1121.59 633.8C1122.05 633.026 1122.69 632.433 1123.51 632.02C1124.34 631.593 1125.29 631.38 1126.37 631.38C1127.45 631.38 1128.41 631.593 1129.23 632.02C1130.06 632.433 1130.7 633.026 1131.15 633.8C1131.62 634.573 1131.85 635.473 1131.85 636.5C1131.85 637.54 1131.62 638.446 1131.15 639.22C1130.7 639.98 1130.06 640.566 1129.23 640.98C1128.41 641.38 1127.45 641.58 1126.37 641.58ZM1126.37 639.98C1127.41 639.98 1128.24 639.66 1128.85 639.02C1129.47 638.38 1129.77 637.54 1129.77 636.5C1129.77 635.42 1129.47 634.566 1128.85 633.94C1128.24 633.313 1127.41 633 1126.37 633C1125.33 633 1124.51 633.313 1123.89 633.94C1123.28 634.566 1122.97 635.42 1122.97 636.5C1122.97 637.54 1123.28 638.38 1123.89 639.02C1124.51 639.66 1125.33 639.98 1126.37 639.98ZM1135.05 631.68H1136.97V633.06C1137.42 632.5 1137.93 632.08 1138.51 631.8C1139.08 631.52 1139.67 631.38 1140.29 631.38C1141.06 631.38 1141.67 631.513 1142.13 631.78C1142.58 632.033 1142.91 632.426 1143.13 632.96C1143.55 632.44 1144.07 632.046 1144.69 631.78C1145.31 631.513 1145.94 631.38 1146.57 631.38C1147.74 631.38 1148.59 631.68 1149.11 632.28C1149.63 632.866 1149.89 633.74 1149.89 634.9V641.28H1147.93V635.16C1147.93 634.373 1147.78 633.82 1147.49 633.5C1147.19 633.166 1146.69 633 1145.99 633C1144.97 633 1144.15 633.44 1143.51 634.32C1143.53 634.52 1143.55 634.846 1143.55 635.3V641.28H1141.59V635.16C1141.59 634.373 1141.45 633.82 1141.19 633.5C1140.92 633.166 1140.44 633 1139.75 633C1138.73 633 1137.83 633.573 1137.03 634.72V641.28H1135.05V631.68ZM1154.57 629.8C1154.24 629.8 1153.96 629.686 1153.73 629.46C1153.51 629.233 1153.39 628.953 1153.39 628.62C1153.39 628.286 1153.51 628.006 1153.73 627.78C1153.96 627.553 1154.24 627.44 1154.57 627.44C1154.92 627.44 1155.21 627.553 1155.43 627.78C1155.67 628.006 1155.79 628.286 1155.79 628.62C1155.79 628.953 1155.67 629.233 1155.43 629.46C1155.21 629.686 1154.92 629.8 1154.57 629.8ZM1153.55 631.68H1155.61V641.28H1153.55V631.68ZM1159.39 631.68H1161.35V633.06C1161.81 632.486 1162.36 632.066 1163.01 631.8C1163.68 631.52 1164.37 631.38 1165.09 631.38C1166.37 631.38 1167.33 631.72 1167.95 632.4C1168.58 633.08 1168.89 633.993 1168.89 635.14V641.28H1166.87V635.34C1166.87 633.78 1166.13 633 1164.63 633C1163.99 633 1163.39 633.153 1162.83 633.46C1162.29 633.753 1161.81 634.206 1161.41 634.82V641.28H1159.39V631.68ZM1177.4 645.88C1176.75 645.88 1176.11 645.826 1175.48 645.72C1174.87 645.613 1174.35 645.46 1173.92 645.26V643.6C1174.92 644.053 1176.08 644.28 1177.4 644.28C1178.64 644.28 1179.54 644.006 1180.1 643.46C1180.68 642.926 1180.96 642.113 1180.96 641.02V640C1180.08 641.053 1178.79 641.58 1177.08 641.58C1176.11 641.58 1175.24 641.366 1174.46 640.94C1173.69 640.513 1173.08 639.913 1172.64 639.14C1172.2 638.366 1171.98 637.48 1171.98 636.48C1171.98 635.466 1172.2 634.58 1172.62 633.82C1173.06 633.046 1173.66 632.446 1174.42 632.02C1175.2 631.593 1176.06 631.38 1177.02 631.38C1177.92 631.38 1178.67 631.513 1179.28 631.78C1179.91 632.033 1180.49 632.46 1181.02 633.06V631.68H1182.98V640.8C1182.98 642.44 1182.52 643.693 1181.6 644.56C1180.7 645.44 1179.3 645.88 1177.4 645.88ZM1177.48 639.98C1178.31 639.98 1179.04 639.76 1179.66 639.32C1180.3 638.88 1180.74 638.293 1180.96 637.56V635.4C1180.71 634.653 1180.27 634.066 1179.64 633.64C1179.03 633.213 1178.31 633 1177.48 633C1176.83 633 1176.24 633.146 1175.7 633.44C1175.18 633.72 1174.77 634.126 1174.46 634.66C1174.17 635.193 1174.02 635.8 1174.02 636.48C1174.02 637.173 1174.17 637.786 1174.46 638.32C1174.77 638.84 1175.18 639.246 1175.7 639.54C1176.24 639.833 1176.83 639.98 1177.48 639.98ZM1200.05 641.58C1198.97 641.58 1198.02 641.38 1197.19 640.98C1196.38 640.566 1195.74 639.98 1195.27 639.22C1194.82 638.446 1194.59 637.54 1194.59 636.5C1194.59 635.473 1194.82 634.573 1195.27 633.8C1195.72 633.026 1196.36 632.433 1197.19 632.02C1198.02 631.593 1198.97 631.38 1200.05 631.38C1201.13 631.38 1202.08 631.593 1202.91 632.02C1203.74 632.433 1204.38 633.026 1204.83 633.8C1205.3 634.573 1205.53 635.473 1205.53 636.5C1205.53 637.54 1205.3 638.446 1204.83 639.22C1204.38 639.98 1203.74 640.566 1202.91 640.98C1202.08 641.38 1201.13 641.58 1200.05 641.58ZM1200.05 639.98C1201.09 639.98 1201.92 639.66 1202.53 639.02C1203.14 638.38 1203.45 637.54 1203.45 636.5C1203.45 635.42 1203.14 634.566 1202.53 633.94C1201.92 633.313 1201.09 633 1200.05 633C1199.01 633 1198.18 633.313 1197.57 633.94C1196.96 634.566 1196.65 635.42 1196.65 636.5C1196.65 637.54 1196.96 638.38 1197.57 639.02C1198.18 639.66 1199.01 639.98 1200.05 639.98ZM1208.68 633.24H1207.22V631.68H1208.68V629.8C1208.68 628.693 1208.99 627.853 1209.62 627.28C1210.25 626.693 1211.09 626.4 1212.14 626.4C1212.69 626.4 1213.2 626.48 1213.68 626.64V628.32C1213.31 628.146 1212.92 628.06 1212.52 628.06C1211.89 628.06 1211.43 628.213 1211.14 628.52C1210.85 628.813 1210.7 629.28 1210.7 629.92V631.68H1213.1V633.24H1210.7V641.28H1208.68V633.24ZM1227.91 641.58C1226.75 641.58 1225.82 641.286 1225.11 640.7C1224.42 640.1 1224.07 639.293 1224.07 638.28C1224.07 637.213 1224.41 636.393 1225.07 635.82C1225.75 635.233 1226.71 634.94 1227.95 634.94C1229.27 634.94 1230.39 635.206 1231.31 635.74V635.24C1231.31 634.48 1231.08 633.92 1230.61 633.56C1230.16 633.186 1229.44 633 1228.45 633C1227.87 633 1227.29 633.06 1226.73 633.18C1226.19 633.286 1225.69 633.44 1225.25 633.64V632C1225.65 631.813 1226.17 631.666 1226.81 631.56C1227.45 631.44 1228.07 631.38 1228.67 631.38C1230.26 631.38 1231.43 631.733 1232.19 632.44C1232.97 633.133 1233.35 634.1 1233.35 635.34V641.28H1231.45V640.2C1231.04 640.653 1230.55 641 1229.97 641.24C1229.41 641.466 1228.73 641.58 1227.91 641.58ZM1228.41 640.04C1229.05 640.04 1229.63 639.913 1230.15 639.66C1230.67 639.406 1231.06 639.053 1231.31 638.6V637.3C1230.45 636.74 1229.48 636.46 1228.41 636.46C1227.64 636.46 1227.06 636.613 1226.67 636.92C1226.3 637.213 1226.11 637.666 1226.11 638.28C1226.11 639.453 1226.88 640.04 1228.41 640.04ZM1241.88 645.88C1241.23 645.88 1240.59 645.826 1239.96 645.72C1239.35 645.613 1238.83 645.46 1238.4 645.26V643.6C1239.4 644.053 1240.56 644.28 1241.88 644.28C1243.12 644.28 1244.02 644.006 1244.58 643.46C1245.15 642.926 1245.44 642.113 1245.44 641.02V640C1244.56 641.053 1243.27 641.58 1241.56 641.58C1240.59 641.58 1239.71 641.366 1238.94 640.94C1238.17 640.513 1237.56 639.913 1237.12 639.14C1236.68 638.366 1236.46 637.48 1236.46 636.48C1236.46 635.466 1236.67 634.58 1237.1 633.82C1237.54 633.046 1238.14 632.446 1238.9 632.02C1239.67 631.593 1240.54 631.38 1241.5 631.38C1242.39 631.38 1243.15 631.513 1243.76 631.78C1244.39 632.033 1244.97 632.46 1245.5 633.06V631.68H1247.46V640.8C1247.46 642.44 1247 643.693 1246.08 644.56C1245.17 645.44 1243.77 645.88 1241.88 645.88ZM1241.96 639.98C1242.79 639.98 1243.51 639.76 1244.14 639.32C1244.78 638.88 1245.21 638.293 1245.44 637.56V635.4C1245.19 634.653 1244.75 634.066 1244.12 633.64C1243.51 633.213 1242.79 633 1241.96 633C1241.31 633 1240.71 633.146 1240.18 633.44C1239.66 633.72 1239.25 634.126 1238.94 634.66C1238.65 635.193 1238.5 635.8 1238.5 636.48C1238.5 637.173 1238.65 637.786 1238.94 638.32C1239.25 638.84 1239.66 639.246 1240.18 639.54C1240.71 639.833 1241.31 639.98 1241.96 639.98ZM1256.34 641.58C1254.57 641.58 1253.18 641.14 1252.16 640.26C1251.16 639.366 1250.66 638.113 1250.66 636.5C1250.66 634.926 1251.11 633.68 1252 632.76C1252.91 631.84 1254.2 631.38 1255.86 631.38C1256.97 631.38 1257.91 631.593 1258.68 632.02C1259.46 632.433 1260.04 633.013 1260.42 633.76C1260.82 634.493 1261.02 635.333 1261.02 636.28V637.28H1252.58C1252.65 638.186 1253.03 638.866 1253.72 639.32C1254.43 639.76 1255.38 639.98 1256.58 639.98C1257.2 639.98 1257.82 639.926 1258.44 639.82C1259.07 639.7 1259.62 639.546 1260.1 639.36V640.98C1259.68 641.153 1259.11 641.293 1258.4 641.4C1257.71 641.52 1257.02 641.58 1256.34 641.58ZM1259.12 635.86C1259.1 634.953 1258.8 634.253 1258.22 633.76C1257.66 633.253 1256.86 633 1255.82 633C1254.81 633 1254.02 633.26 1253.46 633.78C1252.9 634.3 1252.61 634.993 1252.58 635.86H1259.12ZM1104.88 666.58C1103.8 666.58 1102.85 666.38 1102.02 665.98C1101.21 665.566 1100.57 664.98 1100.1 664.22C1099.65 663.446 1099.42 662.54 1099.42 661.5C1099.42 660.473 1099.65 659.573 1100.1 658.8C1100.55 658.026 1101.19 657.433 1102.02 657.02C1102.85 656.593 1103.8 656.38 1104.88 656.38C1105.96 656.38 1106.91 656.593 1107.74 657.02C1108.57 657.433 1109.21 658.026 1109.66 658.8C1110.13 659.573 1110.36 660.473 1110.36 661.5C1110.36 662.54 1110.13 663.446 1109.66 664.22C1109.21 664.98 1108.57 665.566 1107.74 665.98C1106.91 666.38 1105.96 666.58 1104.88 666.58ZM1104.88 664.98C1105.92 664.98 1106.75 664.66 1107.36 664.02C1107.97 663.38 1108.28 662.54 1108.28 661.5C1108.28 660.42 1107.97 659.566 1107.36 658.94C1106.75 658.313 1105.92 658 1104.88 658C1103.84 658 1103.01 658.313 1102.4 658.94C1101.79 659.566 1101.48 660.42 1101.48 661.5C1101.48 662.54 1101.79 663.38 1102.4 664.02C1103.01 664.66 1103.84 664.98 1104.88 664.98ZM1113.51 658.24H1112.05V656.68H1113.51V654.8C1113.51 653.693 1113.83 652.853 1114.45 652.28C1115.08 651.693 1115.92 651.4 1116.97 651.4C1117.52 651.4 1118.03 651.48 1118.51 651.64V653.32C1118.14 653.146 1117.75 653.06 1117.35 653.06C1116.73 653.06 1116.27 653.213 1115.97 653.52C1115.68 653.813 1115.53 654.28 1115.53 654.92V656.68H1117.93V658.24H1115.53V666.28H1113.51V658.24ZM1134.49 652.3H1136.45L1142.03 666.28H1139.95L1138.55 662.8H1132.37L1131.01 666.28H1128.91L1134.49 652.3ZM1137.99 661.1L1135.47 654.56L1132.95 661.1H1137.99ZM1145.23 652.3H1147.29V666.28H1145.23V652.3ZM1163.94 666.58C1162.44 666.58 1161.23 666.253 1160.3 665.6C1159.36 664.933 1158.9 664 1158.9 662.8C1158.9 661.906 1159.14 661.14 1159.64 660.5C1160.14 659.86 1160.95 659.226 1162.06 658.6C1161.39 657.986 1160.9 657.433 1160.6 656.94C1160.29 656.433 1160.14 655.873 1160.14 655.26C1160.14 654.273 1160.47 653.486 1161.14 652.9C1161.82 652.3 1162.72 652 1163.84 652C1164.54 652 1165.17 652.146 1165.72 652.44C1166.28 652.72 1166.71 653.106 1167.02 653.6C1167.32 654.093 1167.48 654.646 1167.48 655.26C1167.48 655.993 1167.28 656.62 1166.88 657.14C1166.49 657.66 1165.82 658.233 1164.86 658.86L1168.66 662.46C1168.9 662.073 1169.06 661.62 1169.14 661.1C1169.23 660.566 1169.28 659.92 1169.28 659.16H1171.06C1171.06 660.186 1170.98 661.046 1170.82 661.74C1170.66 662.42 1170.38 663.086 1169.98 663.74L1172.66 666.28H1170.22L1168.8 664.92C1168.2 665.493 1167.5 665.913 1166.7 666.18C1165.9 666.446 1164.98 666.58 1163.94 666.58ZM1163.62 657.86C1164.36 657.406 1164.9 657 1165.22 656.64C1165.54 656.266 1165.7 655.833 1165.7 655.34C1165.7 654.793 1165.53 654.36 1165.2 654.04C1164.86 653.706 1164.41 653.54 1163.84 653.54C1163.25 653.54 1162.79 653.7 1162.46 654.02C1162.12 654.34 1161.96 654.78 1161.96 655.34C1161.96 655.766 1162.08 656.153 1162.34 656.5C1162.59 656.846 1163.02 657.3 1163.62 657.86ZM1163.96 665.08C1164.72 665.08 1165.4 664.966 1166.02 664.74C1166.63 664.5 1167.14 664.166 1167.56 663.74L1163.4 659.72C1162.5 660.16 1161.86 660.62 1161.46 661.1C1161.06 661.566 1160.86 662.133 1160.86 662.8C1160.86 663.533 1161.14 664.1 1161.72 664.5C1162.3 664.886 1163.05 665.08 1163.96 665.08ZM1184.17 652.3H1186.21L1191.19 663.2L1196.17 652.3H1198.21V666.28H1196.23V656.34L1191.69 666.28H1190.69L1186.13 656.34V666.28H1184.17V652.3ZM1201.81 652.3H1203.85V664.58H1210.93V666.28H1201.81V652.3ZM1213.73 652.3H1219.11C1220.61 652.3 1221.8 652.68 1222.67 653.44C1223.55 654.186 1223.99 655.253 1223.99 656.64C1223.99 658.053 1223.55 659.126 1222.69 659.86C1221.82 660.58 1220.63 660.94 1219.11 660.94H1215.77V666.28H1213.73V652.3ZM1218.89 659.24C1219.82 659.24 1220.56 659.046 1221.11 658.66C1221.65 658.273 1221.93 657.6 1221.93 656.64C1221.93 655.68 1221.65 655.006 1221.11 654.62C1220.56 654.22 1219.82 654.02 1218.89 654.02H1215.77V659.24H1218.89Z" fill="#FF8A37"/>
</g>
<defs>
<radialGradient id="paint0_radial_1284_1115" cx="0" cy="0" r="1" gradientUnits="userSpaceOnUse" gradientTransform="translate(279.5 473.64) scale(78.9717)">
<stop offset="0.6014" stop-color="#FF8B37"/>
<stop offset="0.6262" stop-color="#EC8134" stop-opacity="0.9308"/>
<stop offset="0.7494" stop-color="#925428" stop-opacity="0.5863"/>
<stop offset="0.8497" stop-color="#50331F" stop-opacity="0.306"/>
<stop offset="0.922" stop-color="#271F19" stop-opacity="0.1039"/>
<stop offset="0.9591" stop-color="#171717" stop-opacity="0"/>
</radialGradient>
<radialGradient id="paint1_radial_1284_1115" cx="0" cy="0" r="1" gradientUnits="userSpaceOnUse" gradientTransform="translate(720.5 473.64) scale(78.9717)">
<stop offset="0.6014" stop-color="#FF8B37"/>
<stop offset="0.6262" stop-color="#EC8134" stop-opacity="0.9308"/>
<stop offset="0.7494" stop-color="#925428" stop-opacity="0.5863"/>
<stop offset="0.8497" stop-color="#50331F" stop-opacity="0.306"/>
<stop offset="0.922" stop-color="#271F19" stop-opacity="0.1039"/>
<stop offset="0.9591" stop-color="#171717" stop-opacity="0"/>
</radialGradient>
<radialGradient id="paint2_radial_1284_1115" cx="0" cy="0" r="1" gradientUnits="userSpaceOnUse" gradientTransform="translate(1161.5 473.64) scale(78.9717)">
<stop offset="0.6014" stop-color="#FF8B37"/>
<stop offset="0.6262" stop-color="#EC8134" stop-opacity="0.9308"/>
<stop offset="0.7494" stop-color="#925428" stop-opacity="0.5863"/>
<stop offset="0.8497" stop-color="#50331F" stop-opacity="0.306"/>
<stop offset="0.922" stop-color="#271F19" stop-opacity="0.1039"/>
<stop offset="0.9591" stop-color="#171717" stop-opacity="0"/>
</radialGradient>
<clipPath id="clip0_1284_1115">
<rect width="1440" height="967" fill="white"/>
</clipPath>
<clipPath id="clip1_1284_1115">
<rect width="1434" height="3" fill="white" transform="translate(3 471)"/>
</clipPath>
<clipPath id="clip2_1284_1115">
<rect width="147.28" height="147.28" fill="white" transform="translate(205.86 400)"/>
</clipPath>
<clipPath id="clip3_1284_1115">
<rect width="147.28" height="147.28" fill="white" transform="translate(646.86 400)"/>
</clipPath>
<clipPath id="clip4_1284_1115">
<rect width="147.28" height="147.28" fill="white" transform="translate(1087.86 400)"/>
</clipPath>
</defs>
</svg>
