<svg width="1440" height="1085" viewBox="0 0 1440 1085" fill="none" xmlns="http://www.w3.org/2000/svg">
<g clip-path="url(#clip0_1284_1115)">
<rect width="1440" height="1085" fill="#171717"/>
<g clip-path="url(#clip1_1284_1115)">
<path d="M3 250.5L182.248 249.77L361.504 249.35L720 249L1078.5 249.34L1257.75 249.76L1437 250.5L1257.75 251.23L1078.5 251.65L720 252L361.504 251.65L182.248 251.23L3 250.5Z" fill="#FF8B37"/>
</g>
<g clip-path="url(#clip2_1284_1115)">
<path d="M279.5 325.28C320.17 325.28 353.14 292.31 353.14 251.64C353.14 210.97 320.17 178 279.5 178C238.83 178 205.86 210.97 205.86 251.64C205.86 292.31 238.83 325.28 279.5 325.28Z" fill="url(#paint0_radial_1284_1115)"/>
<path d="M279.5 300.91C306.711 300.91 328.77 278.851 328.77 251.64C328.77 224.429 306.711 202.37 279.5 202.37C252.289 202.37 230.23 224.429 230.23 251.64C230.23 278.851 252.289 300.91 279.5 300.91Z" fill="#171717"/>
</g>
<path d="M268.782 384.805C266.636 384.805 264.769 384.292 263.182 383.265C261.596 382.239 260.371 380.769 259.507 378.855C258.667 376.942 258.247 374.679 258.247 372.065C258.247 369.452 258.667 367.189 259.507 365.275C260.347 363.339 261.549 361.857 263.112 360.83C264.699 359.804 266.589 359.29 268.782 359.29C270.952 359.29 272.831 359.804 274.417 360.83C276.004 361.857 277.217 363.339 278.057 365.275C278.897 367.189 279.317 369.452 279.317 372.065C279.317 374.679 278.897 376.942 278.057 378.855C277.217 380.769 276.004 382.239 274.417 383.265C272.831 384.292 270.952 384.805 268.782 384.805ZM268.782 380.815C270.719 380.815 272.212 380.045 273.262 378.505C274.336 376.942 274.872 374.807 274.872 372.1C274.872 369.394 274.347 367.259 273.297 365.695C272.247 364.132 270.754 363.35 268.817 363.35C266.881 363.35 265.376 364.132 264.302 365.695C263.252 367.259 262.727 369.394 262.727 372.1C262.727 374.807 263.252 376.942 264.302 378.505C265.376 380.045 266.869 380.815 268.782 380.815ZM288.285 364.505L283.105 368.25V364.12L288.985 359.815H292.695V384.28H288.285V364.505ZM298.98 384.28C298.49 384.28 298.07 384.117 297.72 383.79C297.37 383.44 297.195 383.02 297.195 382.53C297.195 382.017 297.37 381.585 297.72 381.235C298.07 380.885 298.49 380.71 298.98 380.71C299.47 380.71 299.89 380.885 300.24 381.235C300.59 381.585 300.765 382.017 300.765 382.53C300.765 383.02 300.59 383.44 300.24 383.79C299.89 384.117 299.47 384.28 298.98 384.28ZM113.088 407.02H108.748V405.3H119.488V407.02H115.148V419.28H113.088V407.02ZM122.286 404.5H124.306V411C125.226 409.92 126.453 409.38 127.986 409.38C129.266 409.38 130.22 409.72 130.846 410.4C131.473 411.08 131.786 411.994 131.786 413.14V419.28H129.766V413.34C129.766 411.78 129.02 411 127.526 411C126.886 411 126.286 411.154 125.726 411.46C125.18 411.754 124.706 412.207 124.306 412.82V419.28H122.286V404.5ZM140.559 419.58C138.785 419.58 137.392 419.14 136.379 418.26C135.379 417.367 134.879 416.114 134.879 414.5C134.879 412.927 135.325 411.68 136.219 410.76C137.125 409.84 138.412 409.38 140.079 409.38C141.185 409.38 142.125 409.594 142.899 410.02C143.672 410.434 144.252 411.014 144.639 411.76C145.039 412.494 145.239 413.334 145.239 414.28V415.28H136.799C136.865 416.187 137.245 416.867 137.939 417.32C138.645 417.76 139.599 417.98 140.799 417.98C141.412 417.98 142.032 417.927 142.659 417.82C143.285 417.7 143.839 417.547 144.319 417.36V418.98C143.892 419.154 143.325 419.294 142.619 419.4C141.925 419.52 141.239 419.58 140.559 419.58ZM143.339 413.86C143.312 412.954 143.012 412.254 142.439 411.76C141.879 411.254 141.079 411 140.039 411C139.025 411 138.239 411.26 137.679 411.78C137.119 412.3 136.825 412.994 136.799 413.86H143.339ZM156.849 409.68H158.809V411.1C159.795 409.954 161.129 409.38 162.809 409.38C163.769 409.38 164.629 409.594 165.389 410.02C166.162 410.447 166.762 411.047 167.189 411.82C167.629 412.58 167.849 413.467 167.849 414.48C167.849 415.48 167.629 416.367 167.189 417.14C166.762 417.914 166.169 418.514 165.409 418.94C164.649 419.367 163.782 419.58 162.809 419.58C162.009 419.58 161.262 419.447 160.569 419.18C159.875 418.914 159.309 418.52 158.869 418V423.66H156.849V409.68ZM162.349 417.98C163.002 417.98 163.589 417.84 164.109 417.56C164.642 417.267 165.055 416.854 165.349 416.32C165.655 415.787 165.809 415.174 165.809 414.48C165.809 413.787 165.655 413.18 165.349 412.66C165.055 412.127 164.642 411.72 164.109 411.44C163.589 411.147 163.002 411 162.349 411C161.535 411 160.815 411.214 160.189 411.64C159.575 412.067 159.135 412.654 158.869 413.4V415.56C159.095 416.294 159.529 416.88 160.169 417.32C160.809 417.76 161.535 417.98 162.349 417.98ZM171.052 409.68H173.012V411.4C173.412 410.814 173.972 410.38 174.692 410.1C175.425 409.82 176.272 409.68 177.232 409.68V411.26C176.205 411.26 175.325 411.427 174.592 411.76C173.859 412.094 173.352 412.62 173.072 413.34V419.28H171.052V409.68ZM184.807 419.58C183.727 419.58 182.774 419.38 181.947 418.98C181.134 418.567 180.494 417.98 180.027 417.22C179.574 416.447 179.347 415.54 179.347 414.5C179.347 413.474 179.574 412.574 180.027 411.8C180.481 411.027 181.121 410.434 181.947 410.02C182.774 409.594 183.727 409.38 184.807 409.38C185.887 409.38 186.841 409.594 187.667 410.02C188.494 410.434 189.134 411.027 189.587 411.8C190.054 412.574 190.287 413.474 190.287 414.5C190.287 415.54 190.054 416.447 189.587 417.22C189.134 417.98 188.494 418.567 187.667 418.98C186.841 419.38 185.887 419.58 184.807 419.58ZM184.807 417.98C185.847 417.98 186.674 417.66 187.287 417.02C187.901 416.38 188.207 415.54 188.207 414.5C188.207 413.42 187.901 412.567 187.287 411.94C186.674 411.314 185.847 411 184.807 411C183.767 411 182.941 411.314 182.327 411.94C181.714 412.567 181.407 413.42 181.407 414.5C181.407 415.54 181.714 416.38 182.327 417.02C182.941 417.66 183.767 417.98 184.807 417.98ZM199.149 419.58C198.282 419.58 197.529 419.447 196.889 419.18C196.262 418.9 195.682 418.467 195.149 417.88V419.28H193.189V404.5H195.209V410.96C195.649 410.44 196.215 410.047 196.909 409.78C197.602 409.514 198.349 409.38 199.149 409.38C200.109 409.38 200.969 409.6 201.729 410.04C202.502 410.467 203.102 411.067 203.529 411.84C203.969 412.614 204.189 413.5 204.189 414.5C204.189 415.514 203.969 416.407 203.529 417.18C203.102 417.94 202.502 418.534 201.729 418.96C200.969 419.374 200.109 419.58 199.149 419.58ZM198.689 417.98C199.342 417.98 199.929 417.84 200.449 417.56C200.982 417.267 201.395 416.854 201.689 416.32C201.995 415.787 202.149 415.18 202.149 414.5C202.149 413.82 201.995 413.214 201.689 412.68C201.395 412.147 200.982 411.734 200.449 411.44C199.929 411.147 199.342 411 198.689 411C197.875 411 197.149 411.22 196.509 411.66C195.869 412.1 195.435 412.687 195.209 413.42V415.58C195.462 416.314 195.895 416.9 196.509 417.34C197.135 417.767 197.862 417.98 198.689 417.98ZM207.392 404.5H209.412V419.28H207.392V404.5ZM218.301 419.58C216.527 419.58 215.134 419.14 214.121 418.26C213.121 417.367 212.621 416.114 212.621 414.5C212.621 412.927 213.067 411.68 213.961 410.76C214.867 409.84 216.154 409.38 217.821 409.38C218.927 409.38 219.867 409.594 220.641 410.02C221.414 410.434 221.994 411.014 222.381 411.76C222.781 412.494 222.981 413.334 222.981 414.28V415.28H214.541C214.607 416.187 214.987 416.867 215.681 417.32C216.387 417.76 217.341 417.98 218.541 417.98C219.154 417.98 219.774 417.927 220.401 417.82C221.027 417.7 221.581 417.547 222.061 417.36V418.98C221.634 419.154 221.067 419.294 220.361 419.4C219.667 419.52 218.981 419.58 218.301 419.58ZM221.081 413.86C221.054 412.954 220.754 412.254 220.181 411.76C219.621 411.254 218.821 411 217.781 411C216.767 411 215.981 411.26 215.421 411.78C214.861 412.3 214.567 412.994 214.541 413.86H221.081ZM226.189 409.68H228.109V411.06C228.562 410.5 229.075 410.08 229.649 409.8C230.222 409.52 230.815 409.38 231.429 409.38C232.202 409.38 232.815 409.514 233.269 409.78C233.722 410.034 234.055 410.427 234.269 410.96C234.695 410.44 235.215 410.047 235.829 409.78C236.455 409.514 237.082 409.38 237.709 409.38C238.882 409.38 239.729 409.68 240.249 410.28C240.769 410.867 241.029 411.74 241.029 412.9V419.28H239.069V413.16C239.069 412.374 238.922 411.82 238.629 411.5C238.335 411.167 237.835 411 237.129 411C236.115 411 235.289 411.44 234.649 412.32C234.675 412.52 234.689 412.847 234.689 413.3V419.28H232.729V413.16C232.729 412.374 232.595 411.82 232.329 411.5C232.062 411.167 231.582 411 230.889 411C229.875 411 228.969 411.574 228.169 412.72V419.28H226.189V409.68ZM247.092 422.76C246.132 421.587 245.399 420.254 244.892 418.76C244.386 417.267 244.132 415.64 244.132 413.88C244.132 412.134 244.386 410.514 244.892 409.02C245.399 407.514 246.132 406.174 247.092 405H249.232C248.219 406.294 247.459 407.667 246.952 409.12C246.446 410.574 246.192 412.16 246.192 413.88C246.192 415.6 246.446 417.187 246.952 418.64C247.459 420.094 248.219 421.467 249.232 422.76H247.092ZM255.674 419.58C255.007 419.58 254.301 419.494 253.554 419.32C252.807 419.16 252.221 418.94 251.794 418.66V416.94C252.314 417.247 252.914 417.5 253.594 417.7C254.274 417.887 254.934 417.98 255.574 417.98C256.294 417.98 256.821 417.894 257.154 417.72C257.487 417.547 257.654 417.267 257.654 416.88C257.654 416.587 257.574 416.354 257.414 416.18C257.267 415.994 257.007 415.827 256.634 415.68C256.274 415.534 255.727 415.36 254.994 415.16C254.207 414.934 253.581 414.707 253.114 414.48C252.661 414.24 252.314 413.94 252.074 413.58C251.847 413.22 251.734 412.754 251.734 412.18C251.734 411.26 252.094 410.567 252.814 410.1C253.547 409.62 254.527 409.38 255.754 409.38C256.394 409.38 257.021 409.44 257.634 409.56C258.247 409.68 258.741 409.847 259.114 410.06V411.74C258.727 411.514 258.247 411.334 257.674 411.2C257.114 411.067 256.541 411 255.954 411C255.247 411 254.707 411.087 254.334 411.26C253.961 411.434 253.774 411.74 253.774 412.18C253.774 412.46 253.854 412.687 254.014 412.86C254.174 413.034 254.427 413.187 254.774 413.32C255.134 413.44 255.701 413.6 256.474 413.8C257.687 414.134 258.527 414.527 258.994 414.98C259.474 415.434 259.714 416.06 259.714 416.86C259.714 417.687 259.374 418.347 258.694 418.84C258.014 419.334 257.007 419.58 255.674 419.58ZM262.219 422.76C263.232 421.467 263.992 420.094 264.499 418.64C265.006 417.187 265.259 415.6 265.259 413.88C265.259 412.16 265.006 410.574 264.499 409.12C263.992 407.667 263.232 406.294 262.219 405H264.359C265.319 406.174 266.052 407.514 266.559 409.02C267.066 410.514 267.319 412.134 267.319 413.88C267.319 415.64 267.066 417.267 266.559 418.76C266.052 420.254 265.319 421.587 264.359 422.76H262.219ZM278.523 409.68H280.583L282.743 416.8L284.883 409.68H286.703L288.843 416.8L291.003 409.68H293.083L289.963 419.28H288.023L285.803 412.12L283.583 419.28H281.623L278.523 409.68ZM297.47 407.8C297.137 407.8 296.857 407.687 296.63 407.46C296.404 407.234 296.29 406.954 296.29 406.62C296.29 406.287 296.404 406.007 296.63 405.78C296.857 405.554 297.137 405.44 297.47 405.44C297.817 405.44 298.104 405.554 298.33 405.78C298.57 406.007 298.69 406.287 298.69 406.62C298.69 406.954 298.57 407.234 298.33 407.46C298.104 407.687 297.817 407.8 297.47 407.8ZM296.45 409.68H298.51V419.28H296.45V409.68ZM305.99 419.58C305.017 419.58 304.264 419.3 303.73 418.74C303.21 418.18 302.95 417.387 302.95 416.36V411.24H301.49V409.68H302.95V406.8H304.99V409.68H307.35V411.24H304.99V416.22C304.99 416.86 305.11 417.314 305.35 417.58C305.604 417.847 306.057 417.98 306.71 417.98C307.097 417.98 307.484 417.894 307.87 417.72V419.32C307.364 419.494 306.737 419.58 305.99 419.58ZM310.771 404.5H312.791V411C313.711 409.92 314.937 409.38 316.471 409.38C317.751 409.38 318.704 409.72 319.331 410.4C319.957 411.08 320.271 411.994 320.271 413.14V419.28H318.251V413.34C318.251 411.78 317.504 411 316.011 411C315.371 411 314.771 411.154 314.211 411.46C313.664 411.754 313.191 412.207 312.791 412.82V419.28H310.771V404.5ZM335.865 419.58C334.892 419.58 334.139 419.3 333.605 418.74C333.085 418.18 332.825 417.387 332.825 416.36V411.24H331.365V409.68H332.825V406.8H334.865V409.68H337.225V411.24H334.865V416.22C334.865 416.86 334.985 417.314 335.225 417.58C335.479 417.847 335.932 417.98 336.585 417.98C336.972 417.98 337.359 417.894 337.745 417.72V419.32C337.239 419.494 336.612 419.58 335.865 419.58ZM340.646 404.5H342.666V411C343.586 409.92 344.812 409.38 346.346 409.38C347.626 409.38 348.579 409.72 349.206 410.4C349.832 411.08 350.146 411.994 350.146 413.14V419.28H348.126V413.34C348.126 411.78 347.379 411 345.886 411C345.246 411 344.646 411.154 344.086 411.46C343.539 411.754 343.066 412.207 342.666 412.82V419.28H340.646V404.5ZM358.918 419.58C357.145 419.58 355.751 419.14 354.738 418.26C353.738 417.367 353.238 416.114 353.238 414.5C353.238 412.927 353.685 411.68 354.578 410.76C355.485 409.84 356.771 409.38 358.438 409.38C359.545 409.38 360.485 409.594 361.258 410.02C362.031 410.434 362.611 411.014 362.998 411.76C363.398 412.494 363.598 413.334 363.598 414.28V415.28H355.158C355.225 416.187 355.605 416.867 356.298 417.32C357.005 417.76 357.958 417.98 359.158 417.98C359.771 417.98 360.391 417.927 361.018 417.82C361.645 417.7 362.198 417.547 362.678 417.36V418.98C362.251 419.154 361.685 419.294 360.978 419.4C360.285 419.52 359.598 419.58 358.918 419.58ZM361.698 413.86C361.671 412.954 361.371 412.254 360.798 411.76C360.238 411.254 359.438 411 358.398 411C357.385 411 356.598 411.26 356.038 411.78C355.478 412.3 355.185 412.994 355.158 413.86H361.698ZM380.268 419.58C379.202 419.58 378.255 419.38 377.428 418.98C376.602 418.58 375.955 418 375.488 417.24C375.035 416.467 374.808 415.554 374.808 414.5C374.808 413.447 375.035 412.54 375.488 411.78C375.955 411.007 376.602 410.414 377.428 410C378.268 409.587 379.228 409.38 380.308 409.38C381.775 409.38 382.948 409.667 383.828 410.24V411.9C382.962 411.3 381.855 411 380.508 411C379.415 411 378.528 411.3 377.848 411.9C377.182 412.487 376.848 413.354 376.848 414.5C376.848 415.647 377.182 416.514 377.848 417.1C378.515 417.687 379.388 417.98 380.468 417.98C381.815 417.98 382.975 417.66 383.948 417.02V418.66C383.482 418.98 382.948 419.214 382.348 419.36C381.762 419.507 381.068 419.58 380.268 419.58ZM390.966 419.58C389.672 419.58 388.692 419.234 388.026 418.54C387.372 417.847 387.046 416.92 387.046 415.76V409.68H389.066V415.68C389.066 417.214 389.832 417.98 391.366 417.98C392.712 417.98 393.766 417.374 394.526 416.16V409.68H396.546V419.28H394.586V417.92C394.132 418.494 393.592 418.914 392.966 419.18C392.352 419.447 391.686 419.58 390.966 419.58ZM400.138 409.68H402.098V411.4C402.498 410.814 403.058 410.38 403.778 410.1C404.511 409.82 405.358 409.68 406.318 409.68V411.26C405.291 411.26 404.411 411.427 403.678 411.76C402.945 412.094 402.438 412.62 402.158 413.34V419.28H400.138V409.68ZM409.029 409.68H410.989V411.4C411.389 410.814 411.949 410.38 412.669 410.1C413.402 409.82 414.249 409.68 415.209 409.68V411.26C414.182 411.26 413.302 411.427 412.569 411.76C411.835 412.094 411.329 412.62 411.049 413.34V419.28H409.029V409.68ZM422.691 419.58C420.918 419.58 419.525 419.14 418.511 418.26C417.511 417.367 417.011 416.114 417.011 414.5C417.011 412.927 417.458 411.68 418.351 410.76C419.258 409.84 420.545 409.38 422.211 409.38C423.318 409.38 424.258 409.594 425.031 410.02C425.805 410.434 426.385 411.014 426.771 411.76C427.171 412.494 427.371 413.334 427.371 414.28V415.28H418.931C418.998 416.187 419.378 416.867 420.071 417.32C420.778 417.76 421.731 417.98 422.931 417.98C423.545 417.98 424.165 417.927 424.791 417.82C425.418 417.7 425.971 417.547 426.451 417.36V418.98C426.025 419.154 425.458 419.294 424.751 419.4C424.058 419.52 423.371 419.58 422.691 419.58ZM425.471 413.86C425.445 412.954 425.145 412.254 424.571 411.76C424.011 411.254 423.211 411 422.171 411C421.158 411 420.371 411.26 419.811 411.78C419.251 412.3 418.958 412.994 418.931 413.86H425.471ZM430.579 409.68H432.539V411.06C432.993 410.487 433.546 410.067 434.199 409.8C434.866 409.52 435.559 409.38 436.279 409.38C437.559 409.38 438.513 409.72 439.139 410.4C439.766 411.08 440.079 411.994 440.079 413.14V419.28H438.059V413.34C438.059 411.78 437.313 411 435.819 411C435.179 411 434.579 411.154 434.019 411.46C433.473 411.754 432.999 412.207 432.599 412.82V419.28H430.579V409.68ZM447.271 419.58C446.298 419.58 445.545 419.3 445.011 418.74C444.491 418.18 444.231 417.387 444.231 416.36V411.24H442.771V409.68H444.231V406.8H446.271V409.68H448.631V411.24H446.271V416.22C446.271 416.86 446.391 417.314 446.631 417.58C446.885 417.847 447.338 417.98 447.991 417.98C448.378 417.98 448.765 417.894 449.151 417.72V419.32C448.645 419.494 448.018 419.58 447.271 419.58ZM139.346 444.58C138.28 444.58 137.333 444.38 136.506 443.98C135.68 443.58 135.033 443 134.566 442.24C134.113 441.467 133.886 440.554 133.886 439.5C133.886 438.447 134.113 437.54 134.566 436.78C135.033 436.007 135.68 435.414 136.506 435C137.346 434.587 138.306 434.38 139.386 434.38C140.853 434.38 142.026 434.667 142.906 435.24V436.9C142.04 436.3 140.933 436 139.586 436C138.493 436 137.606 436.3 136.926 436.9C136.26 437.487 135.926 438.354 135.926 439.5C135.926 440.647 136.26 441.514 136.926 442.1C137.593 442.687 138.466 442.98 139.546 442.98C140.893 442.98 142.053 442.66 143.026 442.02V443.66C142.56 443.98 142.026 444.214 141.426 444.36C140.84 444.507 140.146 444.58 139.346 444.58ZM146.224 434.68H148.184V436.4C148.584 435.814 149.144 435.38 149.864 435.1C150.597 434.82 151.444 434.68 152.404 434.68V436.26C151.377 436.26 150.497 436.427 149.764 436.76C149.03 437.094 148.524 437.62 148.244 438.34V444.28H146.224V434.68ZM156.959 448.24C156.239 448.24 155.639 448.167 155.159 448.02V446.44C155.506 446.574 155.932 446.64 156.439 446.64C156.906 446.64 157.272 446.52 157.539 446.28C157.806 446.054 158.046 445.68 158.259 445.16L158.719 444.04L154.519 434.68H156.599L159.799 442.06L162.779 434.68H164.859L160.539 445.36C160.139 446.36 159.659 447.087 159.099 447.54C158.552 448.007 157.839 448.24 156.959 448.24ZM167.15 434.68H169.11V436.1C170.096 434.954 171.43 434.38 173.11 434.38C174.07 434.38 174.93 434.594 175.69 435.02C176.463 435.447 177.063 436.047 177.49 436.82C177.93 437.58 178.15 438.467 178.15 439.48C178.15 440.48 177.93 441.367 177.49 442.14C177.063 442.914 176.47 443.514 175.71 443.94C174.95 444.367 174.083 444.58 173.11 444.58C172.31 444.58 171.563 444.447 170.87 444.18C170.176 443.914 169.61 443.52 169.17 443V448.66H167.15V434.68ZM172.65 442.98C173.303 442.98 173.89 442.84 174.41 442.56C174.943 442.267 175.356 441.854 175.65 441.32C175.956 440.787 176.11 440.174 176.11 439.48C176.11 438.787 175.956 438.18 175.65 437.66C175.356 437.127 174.943 436.72 174.41 436.44C173.89 436.147 173.303 436 172.65 436C171.836 436 171.116 436.214 170.49 436.64C169.876 437.067 169.436 437.654 169.17 438.4V440.56C169.396 441.294 169.83 441.88 170.47 442.32C171.11 442.76 171.836 442.98 172.65 442.98ZM184.35 444.58C183.376 444.58 182.623 444.3 182.09 443.74C181.57 443.18 181.31 442.387 181.31 441.36V436.24H179.85V434.68H181.31V431.8H183.35V434.68H185.71V436.24H183.35V441.22C183.35 441.86 183.47 442.314 183.71 442.58C183.963 442.847 184.416 442.98 185.07 442.98C185.456 442.98 185.843 442.894 186.23 442.72V444.32C185.723 444.494 185.096 444.58 184.35 444.58ZM194.092 444.58C193.012 444.58 192.059 444.38 191.232 443.98C190.419 443.567 189.779 442.98 189.312 442.22C188.859 441.447 188.632 440.54 188.632 439.5C188.632 438.474 188.859 437.574 189.312 436.8C189.766 436.027 190.406 435.434 191.232 435.02C192.059 434.594 193.012 434.38 194.092 434.38C195.172 434.38 196.126 434.594 196.952 435.02C197.779 435.434 198.419 436.027 198.872 436.8C199.339 437.574 199.572 438.474 199.572 439.5C199.572 440.54 199.339 441.447 198.872 442.22C198.419 442.98 197.779 443.567 196.952 443.98C196.126 444.38 195.172 444.58 194.092 444.58ZM194.092 442.98C195.132 442.98 195.959 442.66 196.572 442.02C197.186 441.38 197.492 440.54 197.492 439.5C197.492 438.42 197.186 437.567 196.572 436.94C195.959 436.314 195.132 436 194.092 436C193.052 436 192.226 436.314 191.612 436.94C190.999 437.567 190.692 438.42 190.692 439.5C190.692 440.54 190.999 441.38 191.612 442.02C192.226 442.66 193.052 442.98 194.092 442.98ZM214.869 444.58C213.896 444.58 213.142 444.3 212.609 443.74C212.089 443.18 211.829 442.387 211.829 441.36V436.24H210.369V434.68H211.829V431.8H213.869V434.68H216.229V436.24H213.869V441.22C213.869 441.86 213.989 442.314 214.229 442.58C214.482 442.847 214.936 442.98 215.589 442.98C215.976 442.98 216.362 442.894 216.749 442.72V444.32C216.242 444.494 215.616 444.58 214.869 444.58ZM219.65 434.68H221.61V436.4C222.01 435.814 222.57 435.38 223.29 435.1C224.023 434.82 224.87 434.68 225.83 434.68V436.26C224.803 436.26 223.923 436.427 223.19 436.76C222.456 437.094 221.95 437.62 221.67 438.34V444.28H219.65V434.68ZM231.179 444.58C230.019 444.58 229.086 444.287 228.379 443.7C227.686 443.1 227.339 442.294 227.339 441.28C227.339 440.214 227.673 439.394 228.339 438.82C229.019 438.234 229.979 437.94 231.219 437.94C232.539 437.94 233.659 438.207 234.579 438.74V438.24C234.579 437.48 234.346 436.92 233.879 436.56C233.426 436.187 232.706 436 231.719 436C231.133 436 230.559 436.06 229.999 436.18C229.453 436.287 228.959 436.44 228.519 436.64V435C228.919 434.814 229.439 434.667 230.079 434.56C230.719 434.44 231.339 434.38 231.939 434.38C233.526 434.38 234.699 434.734 235.459 435.44C236.233 436.134 236.619 437.1 236.619 438.34V444.28H234.719V443.2C234.306 443.654 233.813 444 233.239 444.24C232.679 444.467 231.993 444.58 231.179 444.58ZM231.679 443.04C232.319 443.04 232.899 442.914 233.419 442.66C233.939 442.407 234.326 442.054 234.579 441.6V440.3C233.713 439.74 232.746 439.46 231.679 439.46C230.906 439.46 230.326 439.614 229.939 439.92C229.566 440.214 229.379 440.667 229.379 441.28C229.379 442.454 230.146 443.04 231.679 443.04ZM244.766 444.58C243.806 444.58 242.94 444.374 242.166 443.96C241.406 443.534 240.806 442.94 240.366 442.18C239.94 441.407 239.726 440.514 239.726 439.5C239.726 438.5 239.94 437.614 240.366 436.84C240.806 436.067 241.406 435.467 242.166 435.04C242.94 434.6 243.806 434.38 244.766 434.38C246.5 434.38 247.813 434.907 248.706 435.96V429.5H250.726V444.28H248.766V442.88C248.233 443.467 247.646 443.9 247.006 444.18C246.38 444.447 245.633 444.58 244.766 444.58ZM245.226 442.98C246.053 442.98 246.773 442.767 247.386 442.34C248.013 441.9 248.453 441.314 248.706 440.58V438.42C248.48 437.687 248.046 437.1 247.406 436.66C246.78 436.22 246.053 436 245.226 436C244.573 436 243.98 436.147 243.446 436.44C242.926 436.734 242.513 437.147 242.206 437.68C241.913 438.214 241.766 438.82 241.766 439.5C241.766 440.18 241.913 440.787 242.206 441.32C242.513 441.854 242.926 442.267 243.446 442.56C243.98 442.84 244.573 442.98 245.226 442.98ZM255.509 432.8C255.176 432.8 254.896 432.687 254.669 432.46C254.443 432.234 254.329 431.954 254.329 431.62C254.329 431.287 254.443 431.007 254.669 430.78C254.896 430.554 255.176 430.44 255.509 430.44C255.856 430.44 256.143 430.554 256.369 430.78C256.609 431.007 256.729 431.287 256.729 431.62C256.729 431.954 256.609 432.234 256.369 432.46C256.143 432.687 255.856 432.8 255.509 432.8ZM254.489 434.68H256.549V444.28H254.489V434.68ZM260.329 434.68H262.289V436.06C262.743 435.487 263.296 435.067 263.949 434.8C264.616 434.52 265.309 434.38 266.029 434.38C267.309 434.38 268.263 434.72 268.889 435.4C269.516 436.08 269.829 436.994 269.829 438.14V444.28H267.809V438.34C267.809 436.78 267.063 436 265.569 436C264.929 436 264.329 436.154 263.769 436.46C263.223 436.754 262.749 437.207 262.349 437.82V444.28H260.329V434.68ZM278.341 448.88C277.688 448.88 277.048 448.827 276.421 448.72C275.808 448.614 275.288 448.46 274.861 448.26V446.6C275.861 447.054 277.021 447.28 278.341 447.28C279.581 447.28 280.481 447.007 281.041 446.46C281.615 445.927 281.901 445.114 281.901 444.02V443C281.021 444.054 279.728 444.58 278.021 444.58C277.048 444.58 276.175 444.367 275.401 443.94C274.628 443.514 274.021 442.914 273.581 442.14C273.141 441.367 272.921 440.48 272.921 439.48C272.921 438.467 273.135 437.58 273.561 436.82C274.001 436.047 274.601 435.447 275.361 435.02C276.135 434.594 277.001 434.38 277.961 434.38C278.855 434.38 279.608 434.514 280.221 434.78C280.848 435.034 281.428 435.46 281.961 436.06V434.68H283.921V443.8C283.921 445.44 283.461 446.694 282.541 447.56C281.635 448.44 280.235 448.88 278.341 448.88ZM278.421 442.98C279.248 442.98 279.975 442.76 280.601 442.32C281.241 441.88 281.675 441.294 281.901 440.56V438.4C281.648 437.654 281.208 437.067 280.581 436.64C279.968 436.214 279.248 436 278.421 436C277.768 436 277.175 436.147 276.641 436.44C276.121 436.72 275.708 437.127 275.401 437.66C275.108 438.194 274.961 438.8 274.961 439.48C274.961 440.174 275.108 440.787 275.401 441.32C275.708 441.84 276.121 442.247 276.641 442.54C277.175 442.834 277.768 442.98 278.421 442.98ZM301.207 444.58C299.434 444.58 298.04 444.14 297.027 443.26C296.027 442.367 295.527 441.114 295.527 439.5C295.527 437.927 295.974 436.68 296.867 435.76C297.774 434.84 299.06 434.38 300.727 434.38C301.834 434.38 302.774 434.594 303.547 435.02C304.32 435.434 304.9 436.014 305.287 436.76C305.687 437.494 305.887 438.334 305.887 439.28V440.28H297.447C297.514 441.187 297.894 441.867 298.587 442.32C299.294 442.76 300.247 442.98 301.447 442.98C302.06 442.98 302.68 442.927 303.307 442.82C303.934 442.7 304.487 442.547 304.967 442.36V443.98C304.54 444.154 303.974 444.294 303.267 444.4C302.574 444.52 301.887 444.58 301.207 444.58ZM303.987 438.86C303.96 437.954 303.66 437.254 303.087 436.76C302.527 436.254 301.727 436 300.687 436C299.674 436 298.887 436.26 298.327 436.78C297.767 437.3 297.474 437.994 297.447 438.86H303.987ZM309.095 434.68H311.055V436.06C311.508 435.487 312.062 435.067 312.715 434.8C313.382 434.52 314.075 434.38 314.795 434.38C316.075 434.38 317.028 434.72 317.655 435.4C318.282 436.08 318.595 436.994 318.595 438.14V444.28H316.575V438.34C316.575 436.78 315.828 436 314.335 436C313.695 436 313.095 436.154 312.535 436.46C311.988 436.754 311.515 437.207 311.115 437.82V444.28H309.095V434.68ZM320.789 434.68H322.929L325.749 441.58L328.569 434.68H330.709L326.629 444.28H324.869L320.789 434.68ZM335.087 432.8C334.754 432.8 334.474 432.687 334.247 432.46C334.021 432.234 333.907 431.954 333.907 431.62C333.907 431.287 334.021 431.007 334.247 430.78C334.474 430.554 334.754 430.44 335.087 430.44C335.434 430.44 335.721 430.554 335.947 430.78C336.187 431.007 336.307 431.287 336.307 431.62C336.307 431.954 336.187 432.234 335.947 432.46C335.721 432.687 335.434 432.8 335.087 432.8ZM334.067 434.68H336.127V444.28H334.067V434.68ZM339.907 434.68H341.867V436.4C342.267 435.814 342.827 435.38 343.547 435.1C344.281 434.82 345.127 434.68 346.087 434.68V436.26C345.061 436.26 344.181 436.427 343.447 436.76C342.714 437.094 342.207 437.62 341.927 438.34V444.28H339.907V434.68ZM353.663 444.58C352.583 444.58 351.629 444.38 350.803 443.98C349.989 443.567 349.349 442.98 348.883 442.22C348.429 441.447 348.203 440.54 348.203 439.5C348.203 438.474 348.429 437.574 348.883 436.8C349.336 436.027 349.976 435.434 350.803 435.02C351.629 434.594 352.583 434.38 353.663 434.38C354.743 434.38 355.696 434.594 356.523 435.02C357.349 435.434 357.989 436.027 358.443 436.8C358.909 437.574 359.143 438.474 359.143 439.5C359.143 440.54 358.909 441.447 358.443 442.22C357.989 442.98 357.349 443.567 356.523 443.98C355.696 444.38 354.743 444.58 353.663 444.58ZM353.663 442.98C354.703 442.98 355.529 442.66 356.143 442.02C356.756 441.38 357.063 440.54 357.063 439.5C357.063 438.42 356.756 437.567 356.143 436.94C355.529 436.314 354.703 436 353.663 436C352.623 436 351.796 436.314 351.183 436.94C350.569 437.567 350.263 438.42 350.263 439.5C350.263 440.54 350.569 441.38 351.183 442.02C351.796 442.66 352.623 442.98 353.663 442.98ZM362.337 434.68H364.297V436.06C364.75 435.487 365.304 435.067 365.957 434.8C366.624 434.52 367.317 434.38 368.037 434.38C369.317 434.38 370.27 434.72 370.897 435.4C371.524 436.08 371.837 436.994 371.837 438.14V444.28H369.817V438.34C369.817 436.78 369.07 436 367.577 436C366.937 436 366.337 436.154 365.777 436.46C365.23 436.754 364.757 437.207 364.357 437.82V444.28H362.337V434.68ZM375.329 434.68H377.249V436.06C377.703 435.5 378.216 435.08 378.789 434.8C379.363 434.52 379.956 434.38 380.569 434.38C381.343 434.38 381.956 434.514 382.409 434.78C382.863 435.034 383.196 435.427 383.409 435.96C383.836 435.44 384.356 435.047 384.969 434.78C385.596 434.514 386.223 434.38 386.849 434.38C388.023 434.38 388.869 434.68 389.389 435.28C389.909 435.867 390.169 436.74 390.169 437.9V444.28H388.209V438.16C388.209 437.374 388.063 436.82 387.769 436.5C387.476 436.167 386.976 436 386.269 436C385.256 436 384.429 436.44 383.789 437.32C383.816 437.52 383.829 437.847 383.829 438.3V444.28H381.869V438.16C381.869 437.374 381.736 436.82 381.469 436.5C381.203 436.167 380.723 436 380.029 436C379.016 436 378.109 436.574 377.309 437.72V444.28H375.329V434.68ZM398.953 444.58C397.18 444.58 395.786 444.14 394.773 443.26C393.773 442.367 393.273 441.114 393.273 439.5C393.273 437.927 393.72 436.68 394.613 435.76C395.52 434.84 396.806 434.38 398.473 434.38C399.58 434.38 400.52 434.594 401.293 435.02C402.066 435.434 402.646 436.014 403.033 436.76C403.433 437.494 403.633 438.334 403.633 439.28V440.28H395.193C395.26 441.187 395.64 441.867 396.333 442.32C397.04 442.76 397.993 442.98 399.193 442.98C399.806 442.98 400.426 442.927 401.053 442.82C401.68 442.7 402.233 442.547 402.713 442.36V443.98C402.286 444.154 401.72 444.294 401.013 444.4C400.32 444.52 399.633 444.58 398.953 444.58ZM401.733 438.86C401.706 437.954 401.406 437.254 400.833 436.76C400.273 436.254 399.473 436 398.433 436C397.42 436 396.633 436.26 396.073 436.78C395.513 437.3 395.22 437.994 395.193 438.86H401.733ZM406.841 434.68H408.801V436.06C409.254 435.487 409.808 435.067 410.461 434.8C411.128 434.52 411.821 434.38 412.541 434.38C413.821 434.38 414.774 434.72 415.401 435.4C416.028 436.08 416.341 436.994 416.341 438.14V444.28H414.321V438.34C414.321 436.78 413.574 436 412.081 436C411.441 436 410.841 436.154 410.281 436.46C409.734 436.754 409.261 437.207 408.861 437.82V444.28H406.841V434.68ZM423.533 444.58C422.56 444.58 421.807 444.3 421.273 443.74C420.753 443.18 420.493 442.387 420.493 441.36V436.24H419.033V434.68H420.493V431.8H422.533V434.68H424.893V436.24H422.533V441.22C422.533 441.86 422.653 442.314 422.893 442.58C423.147 442.847 423.6 442.98 424.253 442.98C424.64 442.98 425.027 442.894 425.413 442.72V444.32C424.907 444.494 424.28 444.58 423.533 444.58Z" fill="#FF8A37"/>
<g clip-path="url(#clip3_1284_1115)">
<path d="M720.5 325.28C761.17 325.28 794.14 292.31 794.14 251.64C794.14 210.97 761.17 178 720.5 178C679.83 178 646.86 210.97 646.86 251.64C646.86 292.31 679.83 325.28 720.5 325.28Z" fill="url(#paint1_radial_1284_1115)"/>
<path d="M720.5 300.91C747.711 300.91 769.77 278.851 769.77 251.64C769.77 224.429 747.711 202.37 720.5 202.37C693.289 202.37 671.23 224.429 671.23 251.64C671.23 278.851 693.289 300.91 720.5 300.91Z" fill="#171717"/>
</g>
<path d="M706.091 384.805C703.944 384.805 702.077 384.292 700.491 383.265C698.904 382.239 697.679 380.769 696.816 378.855C695.976 376.942 695.556 374.679 695.556 372.065C695.556 369.452 695.976 367.189 696.816 365.275C697.656 363.339 698.857 361.857 700.421 360.83C702.007 359.804 703.897 359.29 706.091 359.29C708.261 359.29 710.139 359.804 711.726 360.83C713.312 361.857 714.526 363.339 715.366 365.275C716.206 367.189 716.626 369.452 716.626 372.065C716.626 374.679 716.206 376.942 715.366 378.855C714.526 380.769 713.312 382.239 711.726 383.265C710.139 384.292 708.261 384.805 706.091 384.805ZM706.091 380.815C708.027 380.815 709.521 380.045 710.571 378.505C711.644 376.942 712.181 374.807 712.181 372.1C712.181 369.394 711.656 367.259 710.606 365.695C709.556 364.132 708.062 363.35 706.126 363.35C704.189 363.35 702.684 364.132 701.611 365.695C700.561 367.259 700.036 369.394 700.036 372.1C700.036 374.807 700.561 376.942 701.611 378.505C702.684 380.045 704.177 380.815 706.091 380.815ZM720.413 381.41L725.243 376.965L727.553 374.9C728.837 373.78 729.805 372.882 730.458 372.205C731.135 371.529 731.683 370.805 732.103 370.035C732.523 369.242 732.733 368.39 732.733 367.48C732.733 366.15 732.337 365.135 731.543 364.435C730.773 363.712 729.665 363.35 728.218 363.35C727.098 363.35 725.932 363.56 724.718 363.98C723.528 364.377 722.443 364.949 721.463 365.695V361.46C723.493 360.014 725.99 359.29 728.953 359.29C731.567 359.29 733.597 359.99 735.043 361.39C736.49 362.79 737.213 364.704 737.213 367.13C737.213 368.274 736.992 369.347 736.548 370.35C736.105 371.33 735.475 372.287 734.658 373.22C733.842 374.154 732.733 375.262 731.333 376.545L726.958 380.605H738.088V384.28H720.413V381.41ZM743.672 384.28C743.182 384.28 742.762 384.117 742.412 383.79C742.062 383.44 741.887 383.02 741.887 382.53C741.887 382.017 742.062 381.585 742.412 381.235C742.762 380.885 743.182 380.71 743.672 380.71C744.162 380.71 744.582 380.885 744.932 381.235C745.282 381.585 745.457 382.017 745.457 382.53C745.457 383.02 745.282 383.44 744.932 383.79C744.582 384.117 744.162 384.28 743.672 384.28ZM630.334 419.58C628.948 419.58 627.694 419.28 626.574 418.68C625.454 418.067 624.574 417.207 623.934 416.1C623.294 414.994 622.974 413.727 622.974 412.3C622.974 410.874 623.294 409.607 623.934 408.5C624.574 407.394 625.454 406.534 626.574 405.92C627.694 405.307 628.948 405 630.334 405C631.721 405 632.974 405.307 634.094 405.92C635.214 406.534 636.094 407.394 636.734 408.5C637.374 409.607 637.694 410.874 637.694 412.3C637.694 413.727 637.374 414.994 636.734 416.1C636.094 417.207 635.214 418.067 634.094 418.68C632.974 419.28 631.721 419.58 630.334 419.58ZM630.334 417.74C631.321 417.74 632.214 417.52 633.014 417.08C633.828 416.627 634.468 415.994 634.934 415.18C635.401 414.354 635.634 413.394 635.634 412.3C635.634 411.22 635.401 410.274 634.934 409.46C634.481 408.634 633.854 408 633.054 407.56C632.254 407.107 631.361 406.88 630.374 406.88C629.374 406.88 628.468 407.1 627.654 407.54C626.854 407.98 626.214 408.614 625.734 409.44C625.268 410.267 625.034 411.22 625.034 412.3C625.034 413.394 625.268 414.354 625.734 415.18C626.201 415.994 626.834 416.627 627.634 417.08C628.448 417.52 629.348 417.74 630.334 417.74ZM644.718 419.58C643.424 419.58 642.444 419.234 641.778 418.54C641.124 417.847 640.798 416.92 640.798 415.76V409.68H642.818V415.68C642.818 417.214 643.584 417.98 645.118 417.98C646.464 417.98 647.518 417.374 648.278 416.16V409.68H650.298V419.28H648.338V417.92C647.884 418.494 647.344 418.914 646.718 419.18C646.104 419.447 645.438 419.58 644.718 419.58ZM653.89 409.68H655.85V411.4C656.25 410.814 656.81 410.38 657.53 410.1C658.263 409.82 659.11 409.68 660.07 409.68V411.26C659.043 411.26 658.163 411.427 657.43 411.76C656.697 412.094 656.19 412.62 655.91 413.34V419.28H653.89V409.68ZM672.46 407.8C672.127 407.8 671.847 407.687 671.62 407.46C671.394 407.234 671.28 406.954 671.28 406.62C671.28 406.287 671.394 406.007 671.62 405.78C671.847 405.554 672.127 405.44 672.46 405.44C672.807 405.44 673.094 405.554 673.32 405.78C673.56 406.007 673.68 406.287 673.68 406.62C673.68 406.954 673.56 407.234 673.32 407.46C673.094 407.687 672.807 407.8 672.46 407.8ZM671.44 409.68H673.5V419.28H671.44V409.68ZM677.28 409.68H679.24V411.06C679.694 410.487 680.247 410.067 680.9 409.8C681.567 409.52 682.26 409.38 682.98 409.38C684.26 409.38 685.214 409.72 685.84 410.4C686.467 411.08 686.78 411.994 686.78 413.14V419.28H684.76V413.34C684.76 411.78 684.014 411 682.52 411C681.88 411 681.28 411.154 680.72 411.46C680.174 411.754 679.7 412.207 679.3 412.82V419.28H677.28V409.68ZM691.453 407.8C691.119 407.8 690.839 407.687 690.613 407.46C690.386 407.234 690.273 406.954 690.273 406.62C690.273 406.287 690.386 406.007 690.613 405.78C690.839 405.554 691.119 405.44 691.453 405.44C691.799 405.44 692.086 405.554 692.313 405.78C692.553 406.007 692.673 406.287 692.673 406.62C692.673 406.954 692.553 407.234 692.313 407.46C692.086 407.687 691.799 407.8 691.453 407.8ZM690.433 409.68H692.493V419.28H690.433V409.68ZM699.973 419.58C698.999 419.58 698.246 419.3 697.713 418.74C697.193 418.18 696.933 417.387 696.933 416.36V411.24H695.473V409.68H696.933V406.8H698.973V409.68H701.333V411.24H698.973V416.22C698.973 416.86 699.093 417.314 699.333 417.58C699.586 417.847 700.039 417.98 700.693 417.98C701.079 417.98 701.466 417.894 701.853 417.72V419.32C701.346 419.494 700.719 419.58 699.973 419.58ZM705.933 407.8C705.6 407.8 705.32 407.687 705.093 407.46C704.866 407.234 704.753 406.954 704.753 406.62C704.753 406.287 704.866 406.007 705.093 405.78C705.32 405.554 705.6 405.44 705.933 405.44C706.28 405.44 706.566 405.554 706.793 405.78C707.033 406.007 707.153 406.287 707.153 406.62C707.153 406.954 707.033 407.234 706.793 407.46C706.566 407.687 706.28 407.8 705.933 407.8ZM704.913 409.68H706.973V419.28H704.913V409.68ZM714.193 419.58C713.033 419.58 712.1 419.287 711.393 418.7C710.7 418.1 710.353 417.294 710.353 416.28C710.353 415.214 710.686 414.394 711.353 413.82C712.033 413.234 712.993 412.94 714.233 412.94C715.553 412.94 716.673 413.207 717.593 413.74V413.24C717.593 412.48 717.36 411.92 716.893 411.56C716.44 411.187 715.72 411 714.733 411C714.146 411 713.573 411.06 713.013 411.18C712.466 411.287 711.973 411.44 711.533 411.64V410C711.933 409.814 712.453 409.667 713.093 409.56C713.733 409.44 714.353 409.38 714.953 409.38C716.54 409.38 717.713 409.734 718.473 410.44C719.246 411.134 719.633 412.1 719.633 413.34V419.28H717.733V418.2C717.32 418.654 716.826 419 716.253 419.24C715.693 419.467 715.006 419.58 714.193 419.58ZM714.693 418.04C715.333 418.04 715.913 417.914 716.433 417.66C716.953 417.407 717.34 417.054 717.593 416.6V415.3C716.726 414.74 715.76 414.46 714.693 414.46C713.92 414.46 713.34 414.614 712.953 414.92C712.58 415.214 712.393 415.667 712.393 416.28C712.393 417.454 713.16 418.04 714.693 418.04ZM723.14 404.5H725.16V419.28H723.14V404.5ZM740.711 419.58C740.044 419.58 739.338 419.494 738.591 419.32C737.844 419.16 737.258 418.94 736.831 418.66V416.94C737.351 417.247 737.951 417.5 738.631 417.7C739.311 417.887 739.971 417.98 740.611 417.98C741.331 417.98 741.858 417.894 742.191 417.72C742.524 417.547 742.691 417.267 742.691 416.88C742.691 416.587 742.611 416.354 742.451 416.18C742.304 415.994 742.044 415.827 741.671 415.68C741.311 415.534 740.764 415.36 740.031 415.16C739.244 414.934 738.618 414.707 738.151 414.48C737.698 414.24 737.351 413.94 737.111 413.58C736.884 413.22 736.771 412.754 736.771 412.18C736.771 411.26 737.131 410.567 737.851 410.1C738.584 409.62 739.564 409.38 740.791 409.38C741.431 409.38 742.058 409.44 742.671 409.56C743.284 409.68 743.778 409.847 744.151 410.06V411.74C743.764 411.514 743.284 411.334 742.711 411.2C742.151 411.067 741.578 411 740.991 411C740.284 411 739.744 411.087 739.371 411.26C738.998 411.434 738.811 411.74 738.811 412.18C738.811 412.46 738.891 412.687 739.051 412.86C739.211 413.034 739.464 413.187 739.811 413.32C740.171 413.44 740.738 413.6 741.511 413.8C742.724 414.134 743.564 414.527 744.031 414.98C744.511 415.434 744.751 416.06 744.751 416.86C744.751 417.687 744.411 418.347 743.731 418.84C743.051 419.334 742.044 419.58 740.711 419.58ZM752.723 419.58C751.643 419.58 750.69 419.38 749.863 418.98C749.05 418.567 748.41 417.98 747.943 417.22C747.49 416.447 747.263 415.54 747.263 414.5C747.263 413.474 747.49 412.574 747.943 411.8C748.397 411.027 749.037 410.434 749.863 410.02C750.69 409.594 751.643 409.38 752.723 409.38C753.803 409.38 754.757 409.594 755.583 410.02C756.41 410.434 757.05 411.027 757.503 411.8C757.97 412.574 758.203 413.474 758.203 414.5C758.203 415.54 757.97 416.447 757.503 417.22C757.05 417.98 756.41 418.567 755.583 418.98C754.757 419.38 753.803 419.58 752.723 419.58ZM752.723 417.98C753.763 417.98 754.59 417.66 755.203 417.02C755.817 416.38 756.123 415.54 756.123 414.5C756.123 413.42 755.817 412.567 755.203 411.94C754.59 411.314 753.763 411 752.723 411C751.683 411 750.857 411.314 750.243 411.94C749.63 412.567 749.323 413.42 749.323 414.5C749.323 415.54 749.63 416.38 750.243 417.02C750.857 417.66 751.683 417.98 752.723 417.98ZM761.398 404.5H763.418V419.28H761.398V404.5ZM770.847 419.58C769.553 419.58 768.573 419.234 767.907 418.54C767.253 417.847 766.927 416.92 766.927 415.76V409.68H768.947V415.68C768.947 417.214 769.713 417.98 771.247 417.98C772.593 417.98 773.647 417.374 774.407 416.16V409.68H776.427V419.28H774.467V417.92C774.013 418.494 773.473 418.914 772.847 419.18C772.233 419.447 771.567 419.58 770.847 419.58ZM783.719 419.58C782.745 419.58 781.992 419.3 781.459 418.74C780.939 418.18 780.679 417.387 780.679 416.36V411.24H779.219V409.68H780.679V406.8H782.719V409.68H785.079V411.24H782.719V416.22C782.719 416.86 782.839 417.314 783.079 417.58C783.332 417.847 783.785 417.98 784.439 417.98C784.825 417.98 785.212 417.894 785.599 417.72V419.32C785.092 419.494 784.465 419.58 783.719 419.58ZM789.679 407.8C789.346 407.8 789.066 407.687 788.839 407.46C788.613 407.234 788.499 406.954 788.499 406.62C788.499 406.287 788.613 406.007 788.839 405.78C789.066 405.554 789.346 405.44 789.679 405.44C790.026 405.44 790.313 405.554 790.539 405.78C790.779 406.007 790.899 406.287 790.899 406.62C790.899 406.954 790.779 407.234 790.539 407.46C790.313 407.687 790.026 407.8 789.679 407.8ZM788.659 409.68H790.719V419.28H788.659V409.68ZM799.559 419.58C798.479 419.58 797.526 419.38 796.699 418.98C795.886 418.567 795.246 417.98 794.779 417.22C794.326 416.447 794.099 415.54 794.099 414.5C794.099 413.474 794.326 412.574 794.779 411.8C795.233 411.027 795.873 410.434 796.699 410.02C797.526 409.594 798.479 409.38 799.559 409.38C800.639 409.38 801.593 409.594 802.419 410.02C803.246 410.434 803.886 411.027 804.339 411.8C804.806 412.574 805.039 413.474 805.039 414.5C805.039 415.54 804.806 416.447 804.339 417.22C803.886 417.98 803.246 418.567 802.419 418.98C801.593 419.38 800.639 419.58 799.559 419.58ZM799.559 417.98C800.599 417.98 801.426 417.66 802.039 417.02C802.653 416.38 802.959 415.54 802.959 414.5C802.959 413.42 802.653 412.567 802.039 411.94C801.426 411.314 800.599 411 799.559 411C798.519 411 797.693 411.314 797.079 411.94C796.466 412.567 796.159 413.42 796.159 414.5C796.159 415.54 796.466 416.38 797.079 417.02C797.693 417.66 798.519 417.98 799.559 417.98ZM808.234 409.68H810.194V411.06C810.647 410.487 811.2 410.067 811.854 409.8C812.52 409.52 813.214 409.38 813.934 409.38C815.214 409.38 816.167 409.72 816.794 410.4C817.42 411.08 817.734 411.994 817.734 413.14V419.28H815.714V413.34C815.714 411.78 814.967 411 813.474 411C812.834 411 812.234 411.154 811.674 411.46C811.127 411.754 810.654 412.207 810.254 412.82V419.28H808.234V409.68Z" fill="#FF8A37"/>
<g clip-path="url(#clip4_1284_1115)">
<path d="M1161.5 325.28C1202.17 325.28 1235.14 292.31 1235.14 251.64C1235.14 210.97 1202.17 178 1161.5 178C1120.83 178 1087.86 210.97 1087.86 251.64C1087.86 292.31 1120.83 325.28 1161.5 325.28Z" fill="url(#paint2_radial_1284_1115)"/>
<path d="M1161.5 300.91C1188.71 300.91 1210.77 278.851 1210.77 251.64C1210.77 224.429 1188.71 202.37 1161.5 202.37C1134.29 202.37 1112.23 224.429 1112.23 251.64C1112.23 278.851 1134.29 300.91 1161.5 300.91Z" fill="#171717"/>
</g>
<path d="M1147.18 384.805C1145.03 384.805 1143.16 384.292 1141.58 383.265C1139.99 382.239 1138.76 380.769 1137.9 378.855C1137.06 376.942 1136.64 374.679 1136.64 372.065C1136.64 369.452 1137.06 367.189 1137.9 365.275C1138.74 363.339 1139.94 361.857 1141.51 360.83C1143.09 359.804 1144.98 359.29 1147.18 359.29C1149.35 359.29 1151.22 359.804 1152.81 360.83C1154.4 361.857 1155.61 363.339 1156.45 365.275C1157.29 367.189 1157.71 369.452 1157.71 372.065C1157.71 374.679 1157.29 376.942 1156.45 378.855C1155.61 380.769 1154.4 382.239 1152.81 383.265C1151.22 384.292 1149.35 384.805 1147.18 384.805ZM1147.18 380.815C1149.11 380.815 1150.61 380.045 1151.66 378.505C1152.73 376.942 1153.27 374.807 1153.27 372.1C1153.27 369.394 1152.74 367.259 1151.69 365.695C1150.64 364.132 1149.15 363.35 1147.21 363.35C1145.27 363.35 1143.77 364.132 1142.7 365.695C1141.65 367.259 1141.12 369.394 1141.12 372.1C1141.12 374.807 1141.65 376.942 1142.7 378.505C1143.77 380.045 1145.26 380.815 1147.18 380.815ZM1169.16 384.805C1167.72 384.805 1166.32 384.689 1164.96 384.455C1163.63 384.222 1162.48 383.872 1161.5 383.405V380.01C1163.72 381.014 1166.07 381.515 1168.57 381.515C1170.55 381.515 1172.03 381.165 1173.01 380.465C1174.02 379.742 1174.52 378.715 1174.52 377.385C1174.52 376.009 1174.03 375.04 1173.05 374.48C1172.09 373.897 1170.6 373.605 1168.57 373.605H1165.52V370.175H1168.46C1170.1 370.175 1171.39 369.872 1172.35 369.265C1173.31 368.635 1173.78 367.69 1173.78 366.43C1173.78 365.17 1173.35 364.214 1172.49 363.56C1171.65 362.907 1170.46 362.58 1168.92 362.58C1167.59 362.58 1166.39 362.744 1165.31 363.07C1164.26 363.374 1163.19 363.864 1162.09 364.54V361.11C1164.19 359.897 1166.67 359.29 1169.51 359.29C1172.41 359.29 1174.59 359.909 1176.06 361.145C1177.53 362.359 1178.26 364.062 1178.26 366.255C1178.26 367.469 1177.94 368.565 1177.28 369.545C1176.65 370.525 1175.71 371.295 1174.45 371.855C1175.94 372.299 1177.07 373.01 1177.84 373.99C1178.61 374.947 1179 376.149 1179 377.595C1179 379.859 1178.22 381.632 1176.65 382.915C1175.09 384.175 1172.59 384.805 1169.16 384.805ZM1184.59 384.28C1184.1 384.28 1183.68 384.117 1183.33 383.79C1182.98 383.44 1182.8 383.02 1182.8 382.53C1182.8 382.017 1182.98 381.585 1183.33 381.235C1183.68 380.885 1184.1 380.71 1184.59 380.71C1185.08 380.71 1185.5 380.885 1185.85 381.235C1186.2 381.585 1186.37 382.017 1186.37 382.53C1186.37 383.02 1186.2 383.44 1185.85 383.79C1185.5 384.117 1185.08 384.28 1184.59 384.28ZM1065.91 407.02H1061.57V405.3H1072.31V407.02H1067.97V419.28H1065.91V407.02ZM1075.11 404.5H1077.13V411C1078.05 409.92 1079.27 409.38 1080.81 409.38C1082.09 409.38 1083.04 409.72 1083.67 410.4C1084.29 411.08 1084.61 411.994 1084.61 413.14V419.28H1082.59V413.34C1082.59 411.78 1081.84 411 1080.35 411C1079.71 411 1079.11 411.154 1078.55 411.46C1078 411.754 1077.53 412.207 1077.13 412.82V419.28H1075.11V404.5ZM1093.38 419.58C1091.61 419.58 1090.21 419.14 1089.2 418.26C1088.2 417.367 1087.7 416.114 1087.7 414.5C1087.7 412.927 1088.15 411.68 1089.04 410.76C1089.95 409.84 1091.23 409.38 1092.9 409.38C1094.01 409.38 1094.95 409.594 1095.72 410.02C1096.49 410.434 1097.07 411.014 1097.46 411.76C1097.86 412.494 1098.06 413.334 1098.06 414.28V415.28H1089.62C1089.69 416.187 1090.07 416.867 1090.76 417.32C1091.47 417.76 1092.42 417.98 1093.62 417.98C1094.23 417.98 1094.85 417.927 1095.48 417.82C1096.11 417.7 1096.66 417.547 1097.14 417.36V418.98C1096.71 419.154 1096.15 419.294 1095.44 419.4C1094.75 419.52 1094.06 419.58 1093.38 419.58ZM1096.16 413.86C1096.13 412.954 1095.83 412.254 1095.26 411.76C1094.7 411.254 1093.9 411 1092.86 411C1091.85 411 1091.06 411.26 1090.5 411.78C1089.94 412.3 1089.65 412.994 1089.62 413.86H1096.16ZM1114.73 419.58C1113.66 419.58 1112.72 419.38 1111.89 418.98C1111.06 418.58 1110.42 418 1109.95 417.24C1109.5 416.467 1109.27 415.554 1109.27 414.5C1109.27 413.447 1109.5 412.54 1109.95 411.78C1110.42 411.007 1111.06 410.414 1111.89 410C1112.73 409.587 1113.69 409.38 1114.77 409.38C1116.24 409.38 1117.41 409.667 1118.29 410.24V411.9C1117.42 411.3 1116.32 411 1114.97 411C1113.88 411 1112.99 411.3 1112.31 411.9C1111.64 412.487 1111.31 413.354 1111.31 414.5C1111.31 415.647 1111.64 416.514 1112.31 417.1C1112.98 417.687 1113.85 417.98 1114.93 417.98C1116.28 417.98 1117.44 417.66 1118.41 417.02V418.66C1117.94 418.98 1117.41 419.214 1116.81 419.36C1116.22 419.507 1115.53 419.58 1114.73 419.58ZM1126.37 419.58C1125.29 419.58 1124.34 419.38 1123.51 418.98C1122.7 418.567 1122.06 417.98 1121.59 417.22C1121.14 416.447 1120.91 415.54 1120.91 414.5C1120.91 413.474 1121.14 412.574 1121.59 411.8C1122.05 411.027 1122.69 410.434 1123.51 410.02C1124.34 409.594 1125.29 409.38 1126.37 409.38C1127.45 409.38 1128.41 409.594 1129.23 410.02C1130.06 410.434 1130.7 411.027 1131.15 411.8C1131.62 412.574 1131.85 413.474 1131.85 414.5C1131.85 415.54 1131.62 416.447 1131.15 417.22C1130.7 417.98 1130.06 418.567 1129.23 418.98C1128.41 419.38 1127.45 419.58 1126.37 419.58ZM1126.37 417.98C1127.41 417.98 1128.24 417.66 1128.85 417.02C1129.47 416.38 1129.77 415.54 1129.77 414.5C1129.77 413.42 1129.47 412.567 1128.85 411.94C1128.24 411.314 1127.41 411 1126.37 411C1125.33 411 1124.51 411.314 1123.89 411.94C1123.28 412.567 1122.97 413.42 1122.97 414.5C1122.97 415.54 1123.28 416.38 1123.89 417.02C1124.51 417.66 1125.33 417.98 1126.37 417.98ZM1135.05 409.68H1136.97V411.06C1137.42 410.5 1137.93 410.08 1138.51 409.8C1139.08 409.52 1139.67 409.38 1140.29 409.38C1141.06 409.38 1141.67 409.514 1142.13 409.78C1142.58 410.034 1142.91 410.427 1143.13 410.96C1143.55 410.44 1144.07 410.047 1144.69 409.78C1145.31 409.514 1145.94 409.38 1146.57 409.38C1147.74 409.38 1148.59 409.68 1149.11 410.28C1149.63 410.867 1149.89 411.74 1149.89 412.9V419.28H1147.93V413.16C1147.93 412.374 1147.78 411.82 1147.49 411.5C1147.19 411.167 1146.69 411 1145.99 411C1144.97 411 1144.15 411.44 1143.51 412.32C1143.53 412.52 1143.55 412.847 1143.55 413.3V419.28H1141.59V413.16C1141.59 412.374 1141.45 411.82 1141.19 411.5C1140.92 411.167 1140.44 411 1139.75 411C1138.73 411 1137.83 411.574 1137.03 412.72V419.28H1135.05V409.68ZM1154.57 407.8C1154.24 407.8 1153.96 407.687 1153.73 407.46C1153.51 407.234 1153.39 406.954 1153.39 406.62C1153.39 406.287 1153.51 406.007 1153.73 405.78C1153.96 405.554 1154.24 405.44 1154.57 405.44C1154.92 405.44 1155.21 405.554 1155.43 405.78C1155.67 406.007 1155.79 406.287 1155.79 406.62C1155.79 406.954 1155.67 407.234 1155.43 407.46C1155.21 407.687 1154.92 407.8 1154.57 407.8ZM1153.55 409.68H1155.61V419.28H1153.55V409.68ZM1159.39 409.68H1161.35V411.06C1161.81 410.487 1162.36 410.067 1163.01 409.8C1163.68 409.52 1164.37 409.38 1165.09 409.38C1166.37 409.38 1167.33 409.72 1167.95 410.4C1168.58 411.08 1168.89 411.994 1168.89 413.14V419.28H1166.87V413.34C1166.87 411.78 1166.13 411 1164.63 411C1163.99 411 1163.39 411.154 1162.83 411.46C1162.29 411.754 1161.81 412.207 1161.41 412.82V419.28H1159.39V409.68ZM1177.4 423.88C1176.75 423.88 1176.11 423.827 1175.48 423.72C1174.87 423.614 1174.35 423.46 1173.92 423.26V421.6C1174.92 422.054 1176.08 422.28 1177.4 422.28C1178.64 422.28 1179.54 422.007 1180.1 421.46C1180.68 420.927 1180.96 420.114 1180.96 419.02V418C1180.08 419.054 1178.79 419.58 1177.08 419.58C1176.11 419.58 1175.24 419.367 1174.46 418.94C1173.69 418.514 1173.08 417.914 1172.64 417.14C1172.2 416.367 1171.98 415.48 1171.98 414.48C1171.98 413.467 1172.2 412.58 1172.62 411.82C1173.06 411.047 1173.66 410.447 1174.42 410.02C1175.2 409.594 1176.06 409.38 1177.02 409.38C1177.92 409.38 1178.67 409.514 1179.28 409.78C1179.91 410.034 1180.49 410.46 1181.02 411.06V409.68H1182.98V418.8C1182.98 420.44 1182.52 421.694 1181.6 422.56C1180.7 423.44 1179.3 423.88 1177.4 423.88ZM1177.48 417.98C1178.31 417.98 1179.04 417.76 1179.66 417.32C1180.3 416.88 1180.74 416.294 1180.96 415.56V413.4C1180.71 412.654 1180.27 412.067 1179.64 411.64C1179.03 411.214 1178.31 411 1177.48 411C1176.83 411 1176.24 411.147 1175.7 411.44C1175.18 411.72 1174.77 412.127 1174.46 412.66C1174.17 413.194 1174.02 413.8 1174.02 414.48C1174.02 415.174 1174.17 415.787 1174.46 416.32C1174.77 416.84 1175.18 417.247 1175.7 417.54C1176.24 417.834 1176.83 417.98 1177.48 417.98ZM1200.05 419.58C1198.97 419.58 1198.02 419.38 1197.19 418.98C1196.38 418.567 1195.74 417.98 1195.27 417.22C1194.82 416.447 1194.59 415.54 1194.59 414.5C1194.59 413.474 1194.82 412.574 1195.27 411.8C1195.72 411.027 1196.36 410.434 1197.19 410.02C1198.02 409.594 1198.97 409.38 1200.05 409.38C1201.13 409.38 1202.08 409.594 1202.91 410.02C1203.74 410.434 1204.38 411.027 1204.83 411.8C1205.3 412.574 1205.53 413.474 1205.53 414.5C1205.53 415.54 1205.3 416.447 1204.83 417.22C1204.38 417.98 1203.74 418.567 1202.91 418.98C1202.08 419.38 1201.13 419.58 1200.05 419.58ZM1200.05 417.98C1201.09 417.98 1201.92 417.66 1202.53 417.02C1203.14 416.38 1203.45 415.54 1203.45 414.5C1203.45 413.42 1203.14 412.567 1202.53 411.94C1201.92 411.314 1201.09 411 1200.05 411C1199.01 411 1198.18 411.314 1197.57 411.94C1196.96 412.567 1196.65 413.42 1196.65 414.5C1196.65 415.54 1196.96 416.38 1197.57 417.02C1198.18 417.66 1199.01 417.98 1200.05 417.98ZM1208.68 411.24H1207.22V409.68H1208.68V407.8C1208.68 406.694 1208.99 405.854 1209.62 405.28C1210.25 404.694 1211.09 404.4 1212.14 404.4C1212.69 404.4 1213.2 404.48 1213.68 404.64V406.32C1213.31 406.147 1212.92 406.06 1212.52 406.06C1211.89 406.06 1211.43 406.214 1211.14 406.52C1210.85 406.814 1210.7 407.28 1210.7 407.92V409.68H1213.1V411.24H1210.7V419.28H1208.68V411.24ZM1227.91 419.58C1226.75 419.58 1225.82 419.287 1225.11 418.7C1224.42 418.1 1224.07 417.294 1224.07 416.28C1224.07 415.214 1224.41 414.394 1225.07 413.82C1225.75 413.234 1226.71 412.94 1227.95 412.94C1229.27 412.94 1230.39 413.207 1231.31 413.74V413.24C1231.31 412.48 1231.08 411.92 1230.61 411.56C1230.16 411.187 1229.44 411 1228.45 411C1227.87 411 1227.29 411.06 1226.73 411.18C1226.19 411.287 1225.69 411.44 1225.25 411.64V410C1225.65 409.814 1226.17 409.667 1226.81 409.56C1227.45 409.44 1228.07 409.38 1228.67 409.38C1230.26 409.38 1231.43 409.734 1232.19 410.44C1232.97 411.134 1233.35 412.1 1233.35 413.34V419.28H1231.45V418.2C1231.04 418.654 1230.55 419 1229.97 419.24C1229.41 419.467 1228.73 419.58 1227.91 419.58ZM1228.41 418.04C1229.05 418.04 1229.63 417.914 1230.15 417.66C1230.67 417.407 1231.06 417.054 1231.31 416.6V415.3C1230.45 414.74 1229.48 414.46 1228.41 414.46C1227.64 414.46 1227.06 414.614 1226.67 414.92C1226.3 415.214 1226.11 415.667 1226.11 416.28C1226.11 417.454 1226.88 418.04 1228.41 418.04ZM1241.88 423.88C1241.23 423.88 1240.59 423.827 1239.96 423.72C1239.35 423.614 1238.83 423.46 1238.4 423.26V421.6C1239.4 422.054 1240.56 422.28 1241.88 422.28C1243.12 422.28 1244.02 422.007 1244.58 421.46C1245.15 420.927 1245.44 420.114 1245.44 419.02V418C1244.56 419.054 1243.27 419.58 1241.56 419.58C1240.59 419.58 1239.71 419.367 1238.94 418.94C1238.17 418.514 1237.56 417.914 1237.12 417.14C1236.68 416.367 1236.46 415.48 1236.46 414.48C1236.46 413.467 1236.67 412.58 1237.1 411.82C1237.54 411.047 1238.14 410.447 1238.9 410.02C1239.67 409.594 1240.54 409.38 1241.5 409.38C1242.39 409.38 1243.15 409.514 1243.76 409.78C1244.39 410.034 1244.97 410.46 1245.5 411.06V409.68H1247.46V418.8C1247.46 420.44 1247 421.694 1246.08 422.56C1245.17 423.44 1243.77 423.88 1241.88 423.88ZM1241.96 417.98C1242.79 417.98 1243.51 417.76 1244.14 417.32C1244.78 416.88 1245.21 416.294 1245.44 415.56V413.4C1245.19 412.654 1244.75 412.067 1244.12 411.64C1243.51 411.214 1242.79 411 1241.96 411C1241.31 411 1240.71 411.147 1240.18 411.44C1239.66 411.72 1239.25 412.127 1238.94 412.66C1238.65 413.194 1238.5 413.8 1238.5 414.48C1238.5 415.174 1238.65 415.787 1238.94 416.32C1239.25 416.84 1239.66 417.247 1240.18 417.54C1240.71 417.834 1241.31 417.98 1241.96 417.98ZM1256.34 419.58C1254.57 419.58 1253.18 419.14 1252.16 418.26C1251.16 417.367 1250.66 416.114 1250.66 414.5C1250.66 412.927 1251.11 411.68 1252 410.76C1252.91 409.84 1254.2 409.38 1255.86 409.38C1256.97 409.38 1257.91 409.594 1258.68 410.02C1259.46 410.434 1260.04 411.014 1260.42 411.76C1260.82 412.494 1261.02 413.334 1261.02 414.28V415.28H1252.58C1252.65 416.187 1253.03 416.867 1253.72 417.32C1254.43 417.76 1255.38 417.98 1256.58 417.98C1257.2 417.98 1257.82 417.927 1258.44 417.82C1259.07 417.7 1259.62 417.547 1260.1 417.36V418.98C1259.68 419.154 1259.11 419.294 1258.4 419.4C1257.71 419.52 1257.02 419.58 1256.34 419.58ZM1259.12 413.86C1259.1 412.954 1258.8 412.254 1258.22 411.76C1257.66 411.254 1256.86 411 1255.82 411C1254.81 411 1254.02 411.26 1253.46 411.78C1252.9 412.3 1252.61 412.994 1252.58 413.86H1259.12ZM1104.88 444.58C1103.8 444.58 1102.85 444.38 1102.02 443.98C1101.21 443.567 1100.57 442.98 1100.1 442.22C1099.65 441.447 1099.42 440.54 1099.42 439.5C1099.42 438.474 1099.65 437.574 1100.1 436.8C1100.55 436.027 1101.19 435.434 1102.02 435.02C1102.85 434.594 1103.8 434.38 1104.88 434.38C1105.96 434.38 1106.91 434.594 1107.74 435.02C1108.57 435.434 1109.21 436.027 1109.66 436.8C1110.13 437.574 1110.36 438.474 1110.36 439.5C1110.36 440.54 1110.13 441.447 1109.66 442.22C1109.21 442.98 1108.57 443.567 1107.74 443.98C1106.91 444.38 1105.96 444.58 1104.88 444.58ZM1104.88 442.98C1105.92 442.98 1106.75 442.66 1107.36 442.02C1107.97 441.38 1108.28 440.54 1108.28 439.5C1108.28 438.42 1107.97 437.567 1107.36 436.94C1106.75 436.314 1105.92 436 1104.88 436C1103.84 436 1103.01 436.314 1102.4 436.94C1101.79 437.567 1101.48 438.42 1101.48 439.5C1101.48 440.54 1101.79 441.38 1102.4 442.02C1103.01 442.66 1103.84 442.98 1104.88 442.98ZM1113.51 436.24H1112.05V434.68H1113.51V432.8C1113.51 431.694 1113.83 430.854 1114.45 430.28C1115.08 429.694 1115.92 429.4 1116.97 429.4C1117.52 429.4 1118.03 429.48 1118.51 429.64V431.32C1118.14 431.147 1117.75 431.06 1117.35 431.06C1116.73 431.06 1116.27 431.214 1115.97 431.52C1115.68 431.814 1115.53 432.28 1115.53 432.92V434.68H1117.93V436.24H1115.53V444.28H1113.51V436.24ZM1134.49 430.3H1136.45L1142.03 444.28H1139.95L1138.55 440.8H1132.37L1131.01 444.28H1128.91L1134.49 430.3ZM1137.99 439.1L1135.47 432.56L1132.95 439.1H1137.99ZM1145.23 430.3H1147.29V444.28H1145.23V430.3ZM1163.94 444.58C1162.44 444.58 1161.23 444.254 1160.3 443.6C1159.36 442.934 1158.9 442 1158.9 440.8C1158.9 439.907 1159.14 439.14 1159.64 438.5C1160.14 437.86 1160.95 437.227 1162.06 436.6C1161.39 435.987 1160.9 435.434 1160.6 434.94C1160.29 434.434 1160.14 433.874 1160.14 433.26C1160.14 432.274 1160.47 431.487 1161.14 430.9C1161.82 430.3 1162.72 430 1163.84 430C1164.54 430 1165.17 430.147 1165.72 430.44C1166.28 430.72 1166.71 431.107 1167.02 431.6C1167.32 432.094 1167.48 432.647 1167.48 433.26C1167.48 433.994 1167.28 434.62 1166.88 435.14C1166.49 435.66 1165.82 436.234 1164.86 436.86L1168.66 440.46C1168.9 440.074 1169.06 439.62 1169.14 439.1C1169.23 438.567 1169.28 437.92 1169.28 437.16H1171.06C1171.06 438.187 1170.98 439.047 1170.82 439.74C1170.66 440.42 1170.38 441.087 1169.98 441.74L1172.66 444.28H1170.22L1168.8 442.92C1168.2 443.494 1167.5 443.914 1166.7 444.18C1165.9 444.447 1164.98 444.58 1163.94 444.58ZM1163.62 435.86C1164.36 435.407 1164.9 435 1165.22 434.64C1165.54 434.267 1165.7 433.834 1165.7 433.34C1165.7 432.794 1165.53 432.36 1165.2 432.04C1164.86 431.707 1164.41 431.54 1163.84 431.54C1163.25 431.54 1162.79 431.7 1162.46 432.02C1162.12 432.34 1161.96 432.78 1161.96 433.34C1161.96 433.767 1162.08 434.154 1162.34 434.5C1162.59 434.847 1163.02 435.3 1163.62 435.86ZM1163.96 443.08C1164.72 443.08 1165.4 442.967 1166.02 442.74C1166.63 442.5 1167.14 442.167 1167.56 441.74L1163.4 437.72C1162.5 438.16 1161.86 438.62 1161.46 439.1C1161.06 439.567 1160.86 440.134 1160.86 440.8C1160.86 441.534 1161.14 442.1 1161.72 442.5C1162.3 442.887 1163.05 443.08 1163.96 443.08ZM1184.17 430.3H1186.21L1191.19 441.2L1196.17 430.3H1198.21V444.28H1196.23V434.34L1191.69 444.28H1190.69L1186.13 434.34V444.28H1184.17V430.3ZM1201.81 430.3H1203.85V442.58H1210.93V444.28H1201.81V430.3ZM1213.73 430.3H1219.11C1220.61 430.3 1221.8 430.68 1222.67 431.44C1223.55 432.187 1223.99 433.254 1223.99 434.64C1223.99 436.054 1223.55 437.127 1222.69 437.86C1221.82 438.58 1220.63 438.94 1219.11 438.94H1215.77V444.28H1213.73V430.3ZM1218.89 437.24C1219.82 437.24 1220.56 437.047 1221.11 436.66C1221.65 436.274 1221.93 435.6 1221.93 434.64C1221.93 433.68 1221.65 433.007 1221.11 432.62C1220.56 432.22 1219.82 432.02 1218.89 432.02H1215.77V437.24H1218.89Z" fill="#FF8A37"/>
</g>
<defs>
<radialGradient id="paint0_radial_1284_1115" cx="0" cy="0" r="1" gradientUnits="userSpaceOnUse" gradientTransform="translate(279.5 251.64) scale(78.9717)">
<stop offset="0.6014" stop-color="#FF8B37"/>
<stop offset="0.6262" stop-color="#EC8134" stop-opacity="0.9308"/>
<stop offset="0.7494" stop-color="#925428" stop-opacity="0.5863"/>
<stop offset="0.8497" stop-color="#50331F" stop-opacity="0.306"/>
<stop offset="0.922" stop-color="#271F19" stop-opacity="0.1039"/>
<stop offset="0.9591" stop-color="#171717" stop-opacity="0"/>
</radialGradient>
<radialGradient id="paint1_radial_1284_1115" cx="0" cy="0" r="1" gradientUnits="userSpaceOnUse" gradientTransform="translate(720.5 251.64) scale(78.9717)">
<stop offset="0.6014" stop-color="#FF8B37"/>
<stop offset="0.6262" stop-color="#EC8134" stop-opacity="0.9308"/>
<stop offset="0.7494" stop-color="#925428" stop-opacity="0.5863"/>
<stop offset="0.8497" stop-color="#50331F" stop-opacity="0.306"/>
<stop offset="0.922" stop-color="#271F19" stop-opacity="0.1039"/>
<stop offset="0.9591" stop-color="#171717" stop-opacity="0"/>
</radialGradient>
<radialGradient id="paint2_radial_1284_1115" cx="0" cy="0" r="1" gradientUnits="userSpaceOnUse" gradientTransform="translate(1161.5 251.64) scale(78.9717)">
<stop offset="0.6014" stop-color="#FF8B37"/>
<stop offset="0.6262" stop-color="#EC8134" stop-opacity="0.9308"/>
<stop offset="0.7494" stop-color="#925428" stop-opacity="0.5863"/>
<stop offset="0.8497" stop-color="#50331F" stop-opacity="0.306"/>
<stop offset="0.922" stop-color="#271F19" stop-opacity="0.1039"/>
<stop offset="0.9591" stop-color="#171717" stop-opacity="0"/>
</radialGradient>
<clipPath id="clip0_1284_1115">
<rect width="1440" height="1085" fill="white"/>
</clipPath>
<clipPath id="clip1_1284_1115">
<rect width="1434" height="3" fill="white" transform="translate(3 249)"/>
</clipPath>
<clipPath id="clip2_1284_1115">
<rect width="147.28" height="147.28" fill="white" transform="translate(205.86 178)"/>
</clipPath>
<clipPath id="clip3_1284_1115">
<rect width="147.28" height="147.28" fill="white" transform="translate(646.86 178)"/>
</clipPath>
<clipPath id="clip4_1284_1115">
<rect width="147.28" height="147.28" fill="white" transform="translate(1087.86 178)"/>
</clipPath>
</defs>
</svg>
