<svg width="1440" height="1085" viewBox="0 0 1440 1085" fill="none" xmlns="http://www.w3.org/2000/svg">
<g clip-path="url(#clip0_1284_1115)">
<rect width="1440" height="1085" fill="#171717"/>
<g clip-path="url(#clip1_1284_1115)">
<path d="M3 250.5L182.248 249.77L361.504 249.35L720 249L1078.5 249.34L1257.75 249.76L1437 250.5L1257.75 251.23L1078.5 251.65L720 252L361.504 251.65L182.248 251.23L3 250.5Z" fill="#FF8B37"/>
</g>
<g clip-path="url(#clip2_1284_1115)">
<path d="M299.5 325.28C340.17 325.28 373.14 292.31 373.14 251.64C373.14 210.97 340.17 178 299.5 178C258.83 178 225.86 210.97 225.86 251.64C225.86 292.31 258.83 325.28 299.5 325.28Z" fill="url(#paint0_radial_1284_1115)"/>
<path d="M299.5 300.91C326.711 300.91 348.77 278.851 348.77 251.64C348.77 224.429 326.711 202.37 299.5 202.37C272.289 202.37 250.23 224.429 250.23 251.64C250.23 278.851 272.289 300.91 299.5 300.91Z" fill="#171717"/>
</g>
<path d="M288.491 385.735C281.876 385.735 278.341 381.535 278.341 373.905C278.341 366.31 281.946 362.075 288.491 362.075C295.071 362.075 298.641 366.275 298.641 373.905C298.641 381.5 295.001 385.735 288.491 385.735ZM288.491 381.395C292.166 381.395 294.091 378.77 294.091 373.905C294.091 369.005 292.166 366.38 288.491 366.38C284.816 366.38 282.856 369.005 282.856 373.905C282.856 378.805 284.816 381.395 288.491 381.395ZM304.703 385.28V362.53H309.043V385.28H304.703ZM317.884 385.735C316.169 385.735 315.084 384.545 315.084 382.76C315.084 381.01 316.169 379.82 317.884 379.82C319.564 379.82 320.684 381.01 320.684 382.76C320.684 384.545 319.564 385.735 317.884 385.735ZM107.425 409.1H102.365V407.52H114.205V409.1H109.125V420.28H107.425V409.1ZM117.053 407.52H118.753V413.12H127.193V407.52H128.893V420.28H127.193V414.68H118.753V420.28H117.053V407.52ZM132.6 407.52H144.16V409.1H134.3V413.12H141.64V414.68H134.3V418.72H144.16V420.28H132.6V407.52ZM153.674 420.28V407.52H162.374C164.634 407.52 165.754 409.22 165.754 411.12C165.754 413.04 164.634 414.68 162.374 414.68H155.374V420.28H153.674ZM155.374 413.12H162.374C163.554 413.12 164.054 412.24 164.054 411.14C164.054 410.08 163.534 409.1 162.374 409.1H155.374V413.12ZM168.85 420.28V407.52H177.55C179.81 407.52 180.93 409.22 180.93 411.12C180.93 412.82 180.05 414.54 177.97 414.66C177.77 414.66 177.59 414.68 177.39 414.68L180.61 420.28H178.71L175.53 414.68H170.55V420.28H168.85ZM170.55 413.12H177.55C178.73 413.12 179.23 412.24 179.23 411.14C179.23 410.08 178.71 409.1 177.55 409.1H170.55V413.12ZM183.211 413.9C183.211 410.52 185.411 407.26 189.371 407.26C193.331 407.26 195.551 410.5 195.551 413.9C195.551 417.3 193.331 420.56 189.371 420.56C185.411 420.56 183.211 417.28 183.211 413.9ZM193.731 413.9C193.731 411.42 192.171 408.94 189.371 408.94C186.571 408.94 185.051 411.42 185.051 413.88C185.051 416.36 186.571 418.84 189.371 418.84C192.171 418.84 193.731 416.38 193.731 413.9ZM198.655 420.28V407.52H206.615C208.835 407.52 209.975 409.16 209.975 411.06C209.975 412.22 209.655 413.16 208.655 413.78C209.835 414.26 210.495 415.64 210.495 416.72C210.495 418.66 209.335 420.28 207.095 420.28H198.655ZM200.355 413.12H206.615C207.795 413.12 208.275 412.24 208.275 411.14C208.275 410.08 207.755 409.1 206.615 409.1H200.355V413.12ZM200.355 418.72H207.095C208.275 418.72 208.795 417.86 208.795 416.74C208.795 415.66 208.255 414.68 207.095 414.68H200.355V418.72ZM213.694 407.52H215.394V418.72H222.994V420.28H213.694V407.52ZM225.862 407.52H237.422V409.1H227.562V413.12H234.902V414.68H227.562V418.72H237.422V420.28H225.862V407.52ZM240.764 407.52H242.404L246.704 413.26L250.924 407.52H252.604V420.28H250.904V410.12L247.284 415.02H246.044L242.464 410.14V420.28H240.764V407.52ZM255.691 413.9C255.691 410.8 256.471 407.44 258.231 404.78L258.351 404.6L259.551 405.48L259.471 405.62C258.031 408.1 257.371 411.08 257.371 413.9C257.371 416.74 258.051 419.7 259.471 422.2L259.551 422.34L258.351 423.2L258.231 423.04C256.471 420.36 255.691 417 255.691 413.9ZM261.454 417.28L261.414 417.06H263.114L263.174 417.2C263.614 418.56 265.694 418.98 267.154 418.98C268.854 418.98 271.014 418.42 271.014 416.64C271.014 414.88 268.714 414.54 267.074 414.54C264.594 414.54 261.654 414.22 261.654 411.1C261.654 408.24 264.174 407.26 266.734 407.26C268.914 407.26 271.954 407.98 272.394 410.5L272.434 410.72H270.734L270.674 410.58C270.274 409.24 268.314 408.82 266.894 408.82C265.294 408.82 263.354 409.36 263.354 411C263.354 412.64 265.394 412.98 266.954 412.98C269.514 412.98 272.714 413.3 272.714 416.54C272.714 419.54 270.014 420.56 267.354 420.56C265.174 420.56 261.934 419.84 261.454 417.28ZM274.563 422.34L274.643 422.2C276.043 419.7 276.723 416.74 276.723 413.9C276.723 411.08 276.063 408.1 274.643 405.6L274.563 405.48L275.763 404.6L275.883 404.78C277.643 407.44 278.423 410.8 278.423 413.9C278.423 417 277.643 420.36 275.883 423.04L275.763 423.2L274.563 422.34ZM286.818 407.52H288.458L289.678 417.58L292.838 410.26H294.838L298.078 417.58L299.198 407.52H300.818L299.418 420.28H297.418L293.818 412.02L290.278 420.28H288.258L286.818 407.52ZM303.655 407.52H305.355V420.28H303.655V407.52ZM313.226 409.1H308.166V407.52H320.006V409.1H314.926V420.28H313.226V409.1ZM322.854 407.52H324.554V413.12H332.994V407.52H334.694V420.28H332.994V414.68H324.554V420.28H322.854V407.52ZM348.753 409.1H343.693V407.52H355.533V409.1H350.453V420.28H348.753V409.1ZM358.381 407.52H360.081V413.12H368.521V407.52H370.221V420.28H368.521V414.68H360.081V420.28H358.381V407.52ZM373.928 407.52H385.488V409.1H375.628V413.12H382.968V414.68H375.628V418.72H385.488V420.28H373.928V407.52ZM394.383 413.9C394.383 410.52 396.583 407.26 400.543 407.26C403.623 407.26 405.803 409.3 406.483 412L406.543 412.24H404.663L404.623 412.1C404.063 410.28 402.543 408.94 400.523 408.94C397.743 408.94 396.223 411.44 396.223 413.88C396.223 416.34 397.743 418.84 400.523 418.84C402.543 418.84 404.063 417.5 404.623 415.7L404.663 415.56H406.543L406.483 415.78C405.803 418.5 403.643 420.56 400.543 420.56C396.583 420.56 394.383 417.28 394.383 413.9ZM409.651 414.18V407.52H411.351V414.18C411.351 416.46 412.711 418.84 415.311 418.84C417.911 418.84 419.271 416.46 419.271 414.18V407.52H420.971V414.18C420.971 417.28 419.051 420.56 415.311 420.56C411.571 420.56 409.651 417.28 409.651 414.18ZM424.671 420.28V407.52H433.371C435.631 407.52 436.751 409.22 436.751 411.12C436.751 412.82 435.871 414.54 433.791 414.66C433.591 414.66 433.411 414.68 433.211 414.68L436.431 420.28H434.531L431.351 414.68H426.371V420.28H424.671ZM426.371 413.12H433.371C434.551 413.12 435.051 412.24 435.051 411.14C435.051 410.08 434.531 409.1 433.371 409.1H426.371V413.12ZM439.944 420.28V407.52H448.644C450.904 407.52 452.024 409.22 452.024 411.12C452.024 412.82 451.144 414.54 449.064 414.66C448.864 414.66 448.684 414.68 448.484 414.68L451.704 420.28H449.804L446.624 414.68H441.644V420.28H439.944ZM441.644 413.12H448.644C449.824 413.12 450.324 412.24 450.324 411.14C450.324 410.08 449.804 409.1 448.644 409.1H441.644V413.12ZM455.217 407.52H466.777V409.1H456.917V413.12H464.257V414.68H456.917V418.72H466.777V420.28H455.217V407.52ZM470.12 407.52H471.8L480.26 417.66V407.52H481.96V420.28H480.26L471.82 410.14V420.28H470.12V407.52ZM489.847 409.1H484.787V407.52H496.627V409.1H491.547V420.28H489.847V409.1ZM126.97 435.9C126.97 432.52 129.17 429.26 133.13 429.26C136.21 429.26 138.39 431.3 139.07 434L139.13 434.24H137.25L137.21 434.1C136.65 432.28 135.13 430.94 133.11 430.94C130.33 430.94 128.81 433.44 128.81 435.88C128.81 438.34 130.33 440.84 133.11 440.84C135.13 440.84 136.65 439.5 137.21 437.7L137.25 437.56H139.13L139.07 437.78C138.39 440.5 136.23 442.56 133.13 442.56C129.17 442.56 126.97 439.28 126.97 435.9ZM142.239 442.28V429.52H150.939C153.199 429.52 154.319 431.22 154.319 433.12C154.319 434.82 153.439 436.54 151.359 436.66C151.159 436.66 150.979 436.68 150.779 436.68L153.999 442.28H152.099L148.919 436.68H143.939V442.28H142.239ZM143.939 435.12H150.939C152.119 435.12 152.619 434.24 152.619 433.14C152.619 432.08 152.099 431.1 150.939 431.1H143.939V435.12ZM160.742 439.82V438.4C160.742 438.22 160.742 438.06 160.742 437.94V437.82C160.522 437.26 160.302 436.88 160.022 436.5C159.762 436.1 159.462 435.7 159.142 435.18L155.762 429.52H157.682L161.602 436L165.442 429.52H167.402L164.022 435.18C163.702 435.7 163.402 436.1 163.142 436.5C162.882 436.88 162.642 437.28 162.422 437.82C162.422 437.86 162.442 437.88 162.442 437.94V438.4C162.442 438.78 162.442 439.3 162.442 439.82V442.1V442.28H160.742V442.1V439.82ZM170.247 442.28V429.52H178.947C181.207 429.52 182.327 431.22 182.327 433.12C182.327 435.04 181.207 436.68 178.947 436.68H171.947V442.28H170.247ZM171.947 435.12H178.947C180.127 435.12 180.627 434.24 180.627 433.14C180.627 432.08 180.107 431.1 178.947 431.1H171.947V435.12ZM189.212 431.1H184.152V429.52H195.992V431.1H190.912V442.28H189.212V431.1ZM197.42 435.9C197.42 432.52 199.62 429.26 203.58 429.26C207.54 429.26 209.76 432.5 209.76 435.9C209.76 439.3 207.54 442.56 203.58 442.56C199.62 442.56 197.42 439.28 197.42 435.9ZM207.94 435.9C207.94 433.42 206.38 430.94 203.58 430.94C200.78 430.94 199.26 433.42 199.26 435.88C199.26 438.36 200.78 440.84 203.58 440.84C206.38 440.84 207.94 438.38 207.94 435.9ZM223.216 431.1H218.156V429.52H229.996V431.1H224.916V442.28H223.216V431.1ZM232.844 442.28V429.52H241.544C243.804 429.52 244.924 431.22 244.924 433.12C244.924 434.82 244.044 436.54 241.964 436.66C241.764 436.66 241.584 436.68 241.384 436.68L244.604 442.28H242.704L239.524 436.68H234.544V442.28H232.844ZM234.544 435.12H241.544C242.724 435.12 243.224 434.24 243.224 433.14C243.224 432.08 242.704 431.1 241.544 431.1H234.544V435.12ZM246.998 442.28L252.498 429.44H254.298L259.978 442.28H258.138L256.658 438.88H250.238L248.798 442.28H246.998ZM250.798 437.32H256.138L253.398 431.12L250.798 437.32ZM262.571 429.52H268.491C272.331 429.52 274.651 432.5 274.651 435.88C274.651 439.26 272.331 442.28 268.491 442.28H262.571V429.52ZM268.491 440.72C271.251 440.72 272.831 438.38 272.831 435.9C272.831 433.44 271.251 431.1 268.491 431.1H264.271V440.72H268.491ZM277.747 429.52H279.447V442.28H277.747V429.52ZM283.137 429.52H284.817L293.277 439.66V429.52H294.977V442.28H293.277L284.837 432.14V442.28H283.137V429.52ZM298.064 435.9C298.064 432.56 300.244 429.26 304.184 429.26C306.524 429.26 308.524 430.46 309.584 432.42L309.724 432.68L307.644 432.7L307.584 432.62C306.784 431.58 305.544 430.94 304.184 430.94C301.404 430.94 299.904 433.44 299.904 435.88C299.904 438.36 301.424 440.84 304.224 440.84C306.644 440.84 308.264 438.98 308.584 436.82H304.644V435.24H310.364L310.384 435.42C310.384 435.58 310.404 435.74 310.404 435.9C310.404 439.28 308.204 442.56 304.244 442.56C300.264 442.56 298.064 439.3 298.064 435.9ZM319.68 429.52H331.24V431.1H321.38V435.12H328.72V436.68H321.38V440.72H331.24V442.28H319.68V429.52ZM334.583 429.52H336.263L344.723 439.66V429.52H346.423V442.28H344.723L336.283 432.14V442.28H334.583V429.52ZM349.01 429.44H350.81L355.43 440.18L360.15 429.44H361.99L356.31 442.28H354.51L349.01 429.44ZM364.583 429.52H366.283V442.28H364.583V429.52ZM369.973 442.28V429.52H378.673C380.933 429.52 382.053 431.22 382.053 433.12C382.053 434.82 381.173 436.54 379.093 436.66C378.893 436.66 378.713 436.68 378.513 436.68L381.733 442.28H379.833L376.653 436.68H371.673V442.28H369.973ZM371.673 435.12H378.673C379.853 435.12 380.353 434.24 380.353 433.14C380.353 432.08 379.833 431.1 378.673 431.1H371.673V435.12ZM384.334 435.9C384.334 432.52 386.534 429.26 390.494 429.26C394.454 429.26 396.674 432.5 396.674 435.9C396.674 439.3 394.454 442.56 390.494 442.56C386.534 442.56 384.334 439.28 384.334 435.9ZM394.854 435.9C394.854 433.42 393.294 430.94 390.494 430.94C387.694 430.94 386.174 433.42 386.174 435.88C386.174 438.36 387.694 440.84 390.494 440.84C393.294 440.84 394.854 438.38 394.854 435.9ZM399.778 429.52H401.458L409.918 439.66V429.52H411.618V442.28H409.918L401.478 432.14V442.28H399.778V429.52ZM415.325 429.52H416.965L421.265 435.26L425.485 429.52H427.165V442.28H425.465V432.12L421.845 437.02H420.605L417.025 432.14V442.28H415.325V429.52ZM430.872 429.52H442.432V431.1H432.572V435.12H439.912V436.68H432.572V440.72H442.432V442.28H430.872V429.52ZM445.774 429.52H447.454L455.914 439.66V429.52H457.614V442.28H455.914L447.474 432.14V442.28H445.774V429.52ZM465.501 431.1H460.441V429.52H472.281V431.1H467.201V442.28H465.501V431.1Z" fill="#FF8A37"/>
<g clip-path="url(#clip3_1284_1115)">
<path d="M728.5 325.28C769.17 325.28 802.14 292.31 802.14 251.64C802.14 210.97 769.17 178 728.5 178C687.83 178 654.86 210.97 654.86 251.64C654.86 292.31 687.83 325.28 728.5 325.28Z" fill="url(#paint1_radial_1284_1115)"/>
<path d="M728.5 300.91C755.711 300.91 777.77 278.851 777.77 251.64C777.77 224.429 755.711 202.37 728.5 202.37C701.289 202.37 679.23 224.429 679.23 251.64C679.23 278.851 701.289 300.91 728.5 300.91Z" fill="#171717"/>
</g>
<path d="M710.014 385.735C703.399 385.735 699.864 381.535 699.864 373.905C699.864 366.31 703.469 362.075 710.014 362.075C716.594 362.075 720.164 366.275 720.164 373.905C720.164 381.5 716.524 385.735 710.014 385.735ZM710.014 381.395C713.689 381.395 715.614 378.77 715.614 373.905C715.614 369.005 713.689 366.38 710.014 366.38C706.339 366.38 704.379 369.005 704.379 373.905C704.379 378.805 706.339 381.395 710.014 381.395ZM726.561 385.28V382.095C726.561 378.35 729.711 374.955 735.346 372.645C738.776 371.21 739.756 370.44 739.756 369.11C739.756 367.36 738.321 366.38 735.626 366.38C732.966 366.38 731.566 367.815 731.566 369.565H726.981C726.981 365.015 730.061 362.075 735.626 362.075C740.946 362.075 744.271 364.805 744.271 369.11C744.271 372.4 742.381 374.325 736.956 376.53C733.736 377.86 731.566 379.47 731.566 381.185H744.726V385.28H726.561ZM754.361 385.735C752.646 385.735 751.561 384.545 751.561 382.76C751.561 381.01 752.646 379.82 754.361 379.82C756.041 379.82 757.161 381.01 757.161 382.76C757.161 384.545 756.041 385.735 754.361 385.735ZM603.062 413.9C603.062 410.52 605.262 407.26 609.222 407.26C613.182 407.26 615.402 410.5 615.402 413.9C615.402 417.3 613.182 420.56 609.222 420.56C605.262 420.56 603.062 417.28 603.062 413.9ZM613.582 413.9C613.582 411.42 612.022 408.94 609.222 408.94C606.422 408.94 604.902 411.42 604.902 413.88C604.902 416.36 606.422 418.84 609.222 418.84C612.022 418.84 613.582 416.38 613.582 413.9ZM619.506 414.18V407.52H621.206V414.18C621.206 416.46 622.566 418.84 625.166 418.84C627.766 418.84 629.126 416.46 629.126 414.18V407.52H630.826V414.18C630.826 417.28 628.906 420.56 625.166 420.56C621.426 420.56 619.506 417.28 619.506 414.18ZM635.526 420.28V407.52H644.226C646.486 407.52 647.606 409.22 647.606 411.12C647.606 412.82 646.726 414.54 644.646 414.66C644.446 414.66 644.266 414.68 644.066 414.68L647.286 420.28H645.386L642.206 414.68H637.226V420.28H635.526ZM637.226 413.12H644.226C645.406 413.12 645.906 412.24 645.906 411.14C645.906 410.08 645.386 409.1 644.226 409.1H637.226V413.12ZM658.971 407.52H660.671V420.28H658.971V407.52ZM665.362 407.52H667.042L675.502 417.66V407.52H677.202V420.28H675.502L667.062 410.14V420.28H665.362V407.52ZM681.909 407.52H683.609V420.28H681.909V407.52ZM692.479 409.1H687.419V407.52H699.259V409.1H694.179V420.28H692.479V409.1ZM703.108 407.52H704.808V420.28H703.108V407.52ZM708.379 420.28L713.879 407.44H715.679L721.359 420.28H719.519L718.039 416.88H711.619L710.179 420.28H708.379ZM712.179 415.32H717.519L714.779 409.12L712.179 415.32ZM724.952 407.52H726.652V418.72H734.252V420.28H724.952V407.52ZM744.712 417.28L744.672 417.06H746.372L746.432 417.2C746.872 418.56 748.952 418.98 750.412 418.98C752.112 418.98 754.272 418.42 754.272 416.64C754.272 414.88 751.972 414.54 750.332 414.54C747.852 414.54 744.912 414.22 744.912 411.1C744.912 408.24 747.432 407.26 749.992 407.26C752.172 407.26 755.212 407.98 755.652 410.5L755.692 410.72H753.992L753.932 410.58C753.532 409.24 751.572 408.82 750.152 408.82C748.552 408.82 746.612 409.36 746.612 411C746.612 412.64 748.652 412.98 750.212 412.98C752.772 412.98 755.972 413.3 755.972 416.54C755.972 419.54 753.272 420.56 750.612 420.56C748.432 420.56 745.192 419.84 744.712 417.28ZM759.441 413.9C759.441 410.52 761.641 407.26 765.601 407.26C769.561 407.26 771.781 410.5 771.781 413.9C771.781 417.3 769.561 420.56 765.601 420.56C761.641 420.56 759.441 417.28 759.441 413.9ZM769.961 413.9C769.961 411.42 768.401 408.94 765.601 408.94C762.801 408.94 761.281 411.42 761.281 413.88C761.281 416.36 762.801 418.84 765.601 418.84C768.401 418.84 769.961 416.38 769.961 413.9ZM775.885 407.52H777.585V418.72H785.185V420.28H775.885V407.52ZM788.448 414.18V407.52H790.148V414.18C790.148 416.46 791.508 418.84 794.108 418.84C796.708 418.84 798.068 416.46 798.068 414.18V407.52H799.768V414.18C799.768 417.28 797.848 420.56 794.108 420.56C790.368 420.56 788.448 417.28 788.448 414.18ZM808.647 409.1H803.587V407.52H815.427V409.1H810.347V420.28H808.647V409.1ZM819.276 407.52H820.976V420.28H819.276V407.52ZM825.047 413.9C825.047 410.52 827.247 407.26 831.207 407.26C835.167 407.26 837.387 410.5 837.387 413.9C837.387 417.3 835.167 420.56 831.207 420.56C827.247 420.56 825.047 417.28 825.047 413.9ZM835.567 413.9C835.567 411.42 834.007 408.94 831.207 408.94C828.407 408.94 826.887 411.42 826.887 413.88C826.887 416.36 828.407 418.84 831.207 418.84C834.007 418.84 835.567 416.38 835.567 413.9ZM841.491 407.52H843.171L851.631 417.66V407.52H853.331V420.28H851.631L843.191 410.14V420.28H841.491V407.52Z" fill="#FF8A37"/>
<g clip-path="url(#clip4_1284_1115)">
<path d="M1161.5 325.28C1202.17 325.28 1235.14 292.31 1235.14 251.64C1235.14 210.97 1202.17 178 1161.5 178C1120.83 178 1087.86 210.97 1087.86 251.64C1087.86 292.31 1120.83 325.28 1161.5 325.28Z" fill="url(#paint2_radial_1284_1115)"/>
<path d="M1161.5 300.91C1188.71 300.91 1210.77 278.851 1210.77 251.64C1210.77 224.429 1188.71 202.37 1161.5 202.37C1134.29 202.37 1112.23 224.429 1112.23 251.64C1112.23 278.851 1134.29 300.91 1161.5 300.91Z" fill="#171717"/>
</g>
<path d="M1143.01 385.735C1136.4 385.735 1132.86 381.535 1132.86 373.905C1132.86 366.31 1136.47 362.075 1143.01 362.075C1149.59 362.075 1153.16 366.275 1153.16 373.905C1153.16 381.5 1149.52 385.735 1143.01 385.735ZM1143.01 381.395C1146.69 381.395 1148.61 378.77 1148.61 373.905C1148.61 369.005 1146.69 366.38 1143.01 366.38C1139.34 366.38 1137.38 369.005 1137.38 373.905C1137.38 378.805 1139.34 381.395 1143.01 381.395ZM1168.87 385.735C1162.99 385.735 1159.81 383.215 1159.81 378.665H1164.32C1164.32 380.45 1165.9 381.395 1168.87 381.395C1171.81 381.395 1173.39 380.45 1173.39 378.665C1173.39 376.915 1171.85 375.935 1168.87 375.935H1165.62V371.84H1168.87C1171.39 371.84 1172.76 370.895 1172.76 369.11C1172.76 367.36 1171.32 366.38 1168.63 366.38C1165.97 366.38 1164.57 367.36 1164.57 369.11H1159.98C1159.98 364.56 1163.06 362.075 1168.63 362.075C1174.23 362.075 1177.27 364.56 1177.27 369.11C1177.27 371.175 1176.54 372.715 1175 373.765C1176.96 374.78 1177.94 376.46 1177.94 378.665C1177.94 383.215 1174.68 385.735 1168.87 385.735ZM1187.36 385.735C1185.65 385.735 1184.56 384.545 1184.56 382.76C1184.56 381.01 1185.65 379.82 1187.36 379.82C1189.04 379.82 1190.16 381.01 1190.16 382.76C1190.16 384.545 1189.04 385.735 1187.36 385.735ZM1051.41 409.1H1046.35V407.52H1058.19V409.1H1053.11V420.28H1051.41V409.1ZM1062.03 407.52H1063.73V413.12H1072.17V407.52H1073.87V420.28H1072.17V414.68H1063.73V420.28H1062.03V407.52ZM1078.58 407.52H1090.14V409.1H1080.28V413.12H1087.62V414.68H1080.28V418.72H1090.14V420.28H1078.58V407.52ZM1101.03 413.9C1101.03 410.52 1103.23 407.26 1107.19 407.26C1110.27 407.26 1112.45 409.3 1113.13 412L1113.19 412.24H1111.31L1111.27 412.1C1110.71 410.28 1109.19 408.94 1107.17 408.94C1104.39 408.94 1102.87 411.44 1102.87 413.88C1102.87 416.34 1104.39 418.84 1107.17 418.84C1109.19 418.84 1110.71 417.5 1111.27 415.7L1111.31 415.56H1113.19L1113.13 415.78C1112.45 418.5 1110.29 420.56 1107.19 420.56C1103.23 420.56 1101.03 417.28 1101.03 413.9ZM1116.68 413.9C1116.68 410.52 1118.88 407.26 1122.84 407.26C1126.8 407.26 1129.02 410.5 1129.02 413.9C1129.02 417.3 1126.8 420.56 1122.84 420.56C1118.88 420.56 1116.68 417.28 1116.68 413.9ZM1127.2 413.9C1127.2 411.42 1125.64 408.94 1122.84 408.94C1120.04 408.94 1118.52 411.42 1118.52 413.88C1118.52 416.36 1120.04 418.84 1122.84 418.84C1125.64 418.84 1127.2 416.38 1127.2 413.9ZM1133.13 407.52H1134.77L1139.07 413.26L1143.29 407.52H1144.97V420.28H1143.27V410.12L1139.65 415.02H1138.41L1134.83 410.14V420.28H1133.13V407.52ZM1149.67 407.52H1151.37V420.28H1149.67V407.52ZM1156.07 407.52H1157.75L1166.21 417.66V407.52H1167.91V420.28H1166.21L1157.77 410.14V420.28H1156.07V407.52ZM1171.99 413.9C1171.99 410.56 1174.17 407.26 1178.11 407.26C1180.45 407.26 1182.45 408.46 1183.51 410.42L1183.65 410.68L1181.57 410.7L1181.51 410.62C1180.71 409.58 1179.47 408.94 1178.11 408.94C1175.33 408.94 1173.83 411.44 1173.83 413.88C1173.83 416.36 1175.35 418.84 1178.15 418.84C1180.57 418.84 1182.19 416.98 1182.51 414.82H1178.57V413.24H1184.29L1184.31 413.42C1184.31 413.58 1184.33 413.74 1184.33 413.9C1184.33 417.28 1182.13 420.56 1178.17 420.56C1174.19 420.56 1171.99 417.3 1171.99 413.9ZM1194.99 413.9C1194.99 410.52 1197.19 407.26 1201.15 407.26C1205.11 407.26 1207.33 410.5 1207.33 413.9C1207.33 417.3 1205.11 420.56 1201.15 420.56C1197.19 420.56 1194.99 417.28 1194.99 413.9ZM1205.51 413.9C1205.51 411.42 1203.95 408.94 1201.15 408.94C1198.35 408.94 1196.83 411.42 1196.83 413.88C1196.83 416.36 1198.35 418.84 1201.15 418.84C1203.95 418.84 1205.51 416.38 1205.51 413.9ZM1211.43 407.52H1222.75V409.1H1213.13V413.12H1220.21V414.68H1213.13V420.28H1211.43V407.52ZM1232.9 420.28L1238.4 407.44H1240.2L1245.88 420.28H1244.04L1242.56 416.88H1236.14L1234.7 420.28H1232.9ZM1236.7 415.32H1242.04L1239.3 409.12L1236.7 415.32ZM1248.15 413.9C1248.15 410.56 1250.33 407.26 1254.27 407.26C1256.61 407.26 1258.61 408.46 1259.67 410.42L1259.81 410.68L1257.73 410.7L1257.67 410.62C1256.87 409.58 1255.63 408.94 1254.27 408.94C1251.49 408.94 1249.99 411.44 1249.99 413.88C1249.99 416.36 1251.51 418.84 1254.31 418.84C1256.73 418.84 1258.35 416.98 1258.67 414.82H1254.73V413.24H1260.45L1260.47 413.42C1260.47 413.58 1260.49 413.74 1260.49 413.9C1260.49 417.28 1258.29 420.56 1254.33 420.56C1250.35 420.56 1248.15 417.3 1248.15 413.9ZM1264.59 407.52H1276.15V409.1H1266.29V413.12H1273.63V414.68H1266.29V418.72H1276.15V420.28H1264.59V407.52ZM1096.27 435.9C1096.27 432.52 1098.47 429.26 1102.43 429.26C1106.39 429.26 1108.61 432.5 1108.61 435.9C1108.61 439.3 1106.39 442.56 1102.43 442.56C1098.47 442.56 1096.27 439.28 1096.27 435.9ZM1106.79 435.9C1106.79 433.42 1105.23 430.94 1102.43 430.94C1099.63 430.94 1098.11 433.42 1098.11 435.88C1098.11 438.36 1099.63 440.84 1102.43 440.84C1105.23 440.84 1106.79 438.38 1106.79 435.9ZM1112.71 429.52H1124.03V431.1H1114.41V435.12H1121.49V436.68H1114.41V442.28H1112.71V429.52ZM1134.18 442.28L1139.68 429.44H1141.48L1147.16 442.28H1145.32L1143.84 438.88H1137.42L1135.98 442.28H1134.18ZM1138 437.32H1143.32L1140.6 431.16L1138 437.32ZM1150.75 429.52H1152.45V442.28H1150.75V429.52ZM1163.69 438.96C1163.69 436.9 1165.19 435.84 1166.85 434.96C1166.13 434.04 1165.29 432.9 1165.29 431.68C1165.29 430 1166.89 429.26 1168.39 429.26C1169.99 429.26 1171.53 430.14 1171.53 431.86C1171.53 432.7 1171.17 433.34 1170.65 433.86C1170.39 434.12 1170.11 434.36 1169.81 434.58L1169.05 435.1L1171.43 438.54C1171.55 438.32 1171.67 438.1 1171.79 437.86C1171.95 437.54 1172.09 437.22 1172.19 436.88L1172.25 436.7L1173.63 437.04L1173.59 437.22C1173.33 438.12 1173.05 438.82 1172.51 439.58C1172.77 439.84 1173.05 440.1 1173.31 440.34C1173.63 440.62 1173.93 440.9 1174.27 441.14L1174.43 441.24L1173.47 442.56L1173.31 442.46C1172.61 442.04 1172.05 441.5 1171.53 440.94C1170.49 441.94 1169.61 442.58 1167.97 442.58C1165.61 442.58 1163.69 441.4 1163.69 438.96ZM1168.77 433.72C1169.01 433.54 1169.23 433.38 1169.43 433.22C1169.83 432.88 1170.11 432.48 1170.11 431.92C1170.11 431.02 1169.47 430.52 1168.49 430.52C1167.65 430.52 1166.83 430.8 1166.83 431.58C1166.83 432.06 1167.03 432.52 1167.33 432.96C1167.59 433.36 1167.93 433.74 1168.21 434.1C1168.39 433.96 1168.57 433.84 1168.77 433.72ZM1170.51 439.88L1167.57 435.92C1166.33 436.62 1165.35 437.52 1165.35 438.9C1165.35 440.26 1166.25 441.28 1167.73 441.28C1168.85 441.28 1169.67 440.62 1170.51 439.88ZM1185.08 429.52H1186.72L1191.02 435.26L1195.24 429.52H1196.92V442.28H1195.22V432.12L1191.6 437.02H1190.36L1186.78 432.14V442.28H1185.08V429.52ZM1201.63 429.52H1203.33V440.72H1210.93V442.28H1201.63V429.52ZM1214.8 442.28V429.52H1223.5C1225.76 429.52 1226.88 431.22 1226.88 433.12C1226.88 435.04 1225.76 436.68 1223.5 436.68H1216.5V442.28H1214.8ZM1216.5 435.12H1223.5C1224.68 435.12 1225.18 434.24 1225.18 433.14C1225.18 432.08 1224.66 431.1 1223.5 431.1H1216.5V435.12Z" fill="#FF8A37"/>
</g>
<defs>
<radialGradient id="paint0_radial_1284_1115" cx="0" cy="0" r="1" gradientUnits="userSpaceOnUse" gradientTransform="translate(299.5 251.64) scale(78.9717)">
<stop offset="0.6014" stop-color="#FF8B37"/>
<stop offset="0.6262" stop-color="#EC8134" stop-opacity="0.9308"/>
<stop offset="0.7494" stop-color="#925428" stop-opacity="0.5863"/>
<stop offset="0.8497" stop-color="#50331F" stop-opacity="0.306"/>
<stop offset="0.922" stop-color="#271F19" stop-opacity="0.1039"/>
<stop offset="0.9591" stop-color="#171717" stop-opacity="0"/>
</radialGradient>
<radialGradient id="paint1_radial_1284_1115" cx="0" cy="0" r="1" gradientUnits="userSpaceOnUse" gradientTransform="translate(728.5 251.64) scale(78.9717)">
<stop offset="0.6014" stop-color="#FF8B37"/>
<stop offset="0.6262" stop-color="#EC8134" stop-opacity="0.9308"/>
<stop offset="0.7494" stop-color="#925428" stop-opacity="0.5863"/>
<stop offset="0.8497" stop-color="#50331F" stop-opacity="0.306"/>
<stop offset="0.922" stop-color="#271F19" stop-opacity="0.1039"/>
<stop offset="0.9591" stop-color="#171717" stop-opacity="0"/>
</radialGradient>
<radialGradient id="paint2_radial_1284_1115" cx="0" cy="0" r="1" gradientUnits="userSpaceOnUse" gradientTransform="translate(1161.5 251.64) scale(78.9717)">
<stop offset="0.6014" stop-color="#FF8B37"/>
<stop offset="0.6262" stop-color="#EC8134" stop-opacity="0.9308"/>
<stop offset="0.7494" stop-color="#925428" stop-opacity="0.5863"/>
<stop offset="0.8497" stop-color="#50331F" stop-opacity="0.306"/>
<stop offset="0.922" stop-color="#271F19" stop-opacity="0.1039"/>
<stop offset="0.9591" stop-color="#171717" stop-opacity="0"/>
</radialGradient>
<clipPath id="clip0_1284_1115">
<rect width="1440" height="1085" fill="white"/>
</clipPath>
<clipPath id="clip1_1284_1115">
<rect width="1434" height="3" fill="white" transform="translate(3 249)"/>
</clipPath>
<clipPath id="clip2_1284_1115">
<rect width="147.28" height="147.28" fill="white" transform="translate(225.86 178)"/>
</clipPath>
<clipPath id="clip3_1284_1115">
<rect width="147.28" height="147.28" fill="white" transform="translate(654.86 178)"/>
</clipPath>
<clipPath id="clip4_1284_1115">
<rect width="147.28" height="147.28" fill="white" transform="translate(1087.86 178)"/>
</clipPath>
</defs>
</svg>
