<svg width="48" height="61" viewBox="0 0 48 61" fill="none" xmlns="http://www.w3.org/2000/svg">
<mask id="path-1-outside-1_339_195" maskUnits="userSpaceOnUse" x="0" y="0" width="48" height="61" fill="black">
<rect fill="white" width="48" height="61"/>
<path d="M46.9926 24.7075C46.5533 24.7542 46.1128 24.7785 45.6711 24.7804C43.2883 24.7807 40.9429 24.1342 38.8467 22.8994C36.7504 21.6646 34.9692 19.8803 33.6638 17.7075V41.7931C33.6638 51.6248 26.3518 59.5949 17.3319 59.5949C8.31196 59.5949 1 51.6248 1 41.7931C1 31.9613 8.31229 23.9913 17.3319 23.9913C17.673 23.9913 18.006 24.0263 18.3413 24.0477V32.8203C18.0063 32.7764 17.6768 32.7094 17.3319 32.7094C12.7283 32.7094 8.99637 36.7779 8.99637 41.7952C8.99637 46.8124 12.7289 50.8792 17.3319 50.8792C21.9349 50.8792 26.0027 46.925 26.0027 41.9063L26.0832 1H33.7825C34.5097 8.52778 40.0764 14.4061 47.0003 14.9578V24.7082"/>
</mask>
<path d="M46.9926 24.7075C46.5533 24.7542 46.1128 24.7785 45.6711 24.7804C43.2883 24.7807 40.9429 24.1342 38.8467 22.8994C36.7504 21.6646 34.9692 19.8803 33.6638 17.7075V41.7931C33.6638 51.6248 26.3518 59.5949 17.3319 59.5949C8.31196 59.5949 1 51.6248 1 41.7931C1 31.9613 8.31229 23.9913 17.3319 23.9913C17.673 23.9913 18.006 24.0263 18.3413 24.0477V32.8203C18.0063 32.7764 17.6768 32.7094 17.3319 32.7094C12.7283 32.7094 8.99637 36.7779 8.99637 41.7952C8.99637 46.8124 12.7289 50.8792 17.3319 50.8792C21.9349 50.8792 26.0027 46.925 26.0027 41.9063L26.0832 1H33.7825C34.5097 8.52778 40.0764 14.4061 47.0003 14.9578V24.7082" fill="url(#paint0_linear_339_195)"/>
<path d="M45.6711 24.7804L45.6712 25.4804L45.674 25.4804L45.6711 24.7804ZM33.6638 17.7075L34.2638 17.347L32.9638 15.1832V17.7075H33.6638ZM18.3413 24.0477H19.0413V23.391L18.3859 23.3491L18.3413 24.0477ZM18.3413 32.8203L18.2505 33.5143L19.0413 33.6178V32.8203H18.3413ZM26.0027 41.9063L25.3027 41.905V41.9063H26.0027ZM26.0832 1V0.3H25.3845L25.3832 0.998623L26.0832 1ZM33.7825 1L34.4793 0.932691L34.4182 0.3H33.7825V1ZM47.0003 14.9578H47.7003V14.3113L47.0559 14.26L47.0003 14.9578ZM46.9185 24.0114C46.5028 24.0556 46.086 24.0786 45.6681 24.0804L45.674 25.4804C46.1395 25.4784 46.6037 25.4528 47.0667 25.4035L46.9185 24.0114ZM45.671 24.0804C43.4159 24.0807 41.1929 23.4691 39.202 22.2963L38.4914 23.5026C40.693 24.7994 43.1607 25.4807 45.6712 25.4804L45.671 24.0804ZM39.202 22.2963C37.2105 21.1232 35.5118 19.4241 34.2638 17.347L33.0638 18.068C34.4266 20.3365 36.2903 22.206 38.4914 23.5026L39.202 22.2963ZM32.9638 17.7075V41.7931H34.3638V17.7075H32.9638ZM32.9638 41.7931C32.9638 51.2962 25.9097 58.8949 17.3319 58.8949V60.2949C26.794 60.2949 34.3638 51.9534 34.3638 41.7931H32.9638ZM17.3319 58.8949C8.75413 58.8949 1.7 51.2962 1.7 41.7931H0.3C0.3 51.9534 7.8698 60.2949 17.3319 60.2949V58.8949ZM1.7 41.7931C1.7 32.2899 8.75444 24.6913 17.3319 24.6913V23.2913C7.87013 23.2913 0.3 31.6327 0.3 41.7931H1.7ZM17.3319 24.6913C17.6435 24.6913 17.9233 24.7225 18.2967 24.7463L18.3859 23.3491C18.0887 23.3302 17.7024 23.2913 17.3319 23.2913V24.6913ZM17.6413 24.0477V32.8203H19.0413V24.0477H17.6413ZM18.4321 32.1262C18.161 32.0907 17.7376 32.0094 17.3319 32.0094V33.4094C17.616 33.4094 17.8517 33.4621 18.2505 33.5143L18.4321 32.1262ZM17.3319 32.0094C12.2861 32.0094 8.29637 36.4494 8.29637 41.7952H9.69637C9.69637 37.1065 13.1705 33.4094 17.3319 33.4094V32.0094ZM8.29637 41.7952C8.29637 47.1412 12.2869 51.5792 17.3319 51.5792V50.1791C13.1709 50.1791 9.69637 46.4836 9.69637 41.7952H8.29637ZM17.3319 51.5792C22.3311 51.5792 26.7027 47.3019 26.7027 41.9063H25.3027C25.3027 46.5481 21.5386 50.1791 17.3319 50.1791V51.5792ZM26.7027 41.9077L26.7832 1.00138L25.3832 0.998623L25.3027 41.905L26.7027 41.9077ZM26.0832 1.7H33.7825V0.3H26.0832V1.7ZM33.0858 1.06731C33.8414 8.8888 39.6402 15.0735 46.9447 15.6556L47.0559 14.26C40.5126 13.7386 35.1781 8.16676 34.4793 0.932691L33.0858 1.06731ZM46.3003 14.9578V24.7082H47.7003V14.9578H46.3003Z" fill="#FF8938" mask="url(#path-1-outside-1_339_195)"/>
<defs>
<linearGradient id="paint0_linear_339_195" x1="-9" y1="74.7865" x2="33" y2="74.7865" gradientUnits="userSpaceOnUse">
<stop stop-color="#FD7528"/>
<stop offset="0.864583" stop-color="#FF8938"/>
</linearGradient>
</defs>
</svg>
