<svg width="52" height="44" viewBox="0 0 52 44" fill="none" xmlns="http://www.w3.org/2000/svg">
<path d="M50.6888 2.67468C49.5026 4.25245 48.3192 5.83023 47.0803 7.4791C48.6276 7.14823 50.1666 6.81736 52 6.4236C50.6777 8.51819 49.5693 10.4487 48.2859 12.2534C47.0581 13.9789 46.4747 15.8246 46.183 17.9056C43.7246 35.3103 28.7682 43.9977 16.1536 44.0004C10.545 44.0004 5.29473 42.614 0 39.7593C5.4114 39.1112 10.4089 38.362 14.7925 34.799C10.0616 33.9896 6.67536 31.8294 4.80026 27.6074C5.98088 27.4406 7.01426 27.2929 8.05043 27.148C3.93077 24.728 0.833378 21.7693 1.0195 16.5903C2.21123 16.8801 3.2974 17.1454 4.38357 17.4079C0.794487 12.9507 0.225012 8.23107 2.21401 2.93445C8.15877 10.1014 15.8703 13.4211 24.9152 14.1402C24.9152 12.0484 24.5513 10.0385 24.9791 8.20646C26.8598 0.126171 37.0436 -2.75047 43.0467 3.06297C44.0023 3.98721 44.8413 4.16495 45.9775 3.79853C47.422 3.33368 48.8693 2.87156 50.3166 2.40943C50.4416 2.49694 50.5666 2.58717 50.6916 2.67468H50.6888Z" fill="url(#paint0_linear_82_135)"/>
<defs>
<linearGradient id="paint0_linear_82_135" x1="0" y1="21.999" x2="52" y2="21.999" gradientUnits="userSpaceOnUse">
<stop stop-color="#FD7528"/>
<stop offset="1" stop-color="#FF8938"/>
</linearGradient>
</defs>
</svg>
